<svg class="marks" width="952" height="653" viewBox="0 0 952 653" version="1.1" xmlns="http://www.w3.org/2000/svg" xmlns:xlink="http://www.w3.org/1999/xlink"><rect width="952" height="653" style="fill: white;"></rect><g transform="translate(67,10)"><g class="mark-group role-frame root"><g transform="translate(0,0)"><path class="background" d="M0.5,0.5h800v600h-800Z" style="fill: none; stroke: #ddd;"></path><g><g class="mark-group role-axis"><g transform="translate(0.5,0.5)"><path class="background" d="M0,0h0v0h0Z" style="pointer-events: none; fill: none;"></path><g><g class="mark-rule role-axis-grid" style="pointer-events: none;"><line transform="translate(0,600)" x2="800" y2="0" style="fill: none; stroke: #ddd; stroke-width: 1; opacity: 1;"></line><line transform="translate(0,567)" x2="800" y2="0" style="fill: none; stroke: #ddd; stroke-width: 1; opacity: 1;"></line><line transform="translate(0,533)" x2="800" y2="0" style="fill: none; stroke: #ddd; stroke-width: 1; opacity: 1;"></line><line transform="translate(0,500)" x2="800" y2="0" style="fill: none; stroke: #ddd; stroke-width: 1; opacity: 1;"></line><line transform="translate(0,467)" x2="800" y2="0" style="fill: none; stroke: #ddd; stroke-width: 1; opacity: 1;"></line><line transform="translate(0,433)" x2="800" y2="0" style="fill: none; stroke: #ddd; stroke-width: 1; opacity: 1;"></line><line transform="translate(0,400)" x2="800" y2="0" style="fill: none; stroke: #ddd; stroke-width: 1; opacity: 1;"></line><line transform="translate(0,367)" x2="800" y2="0" style="fill: none; stroke: #ddd; stroke-width: 1; opacity: 1;"></line><line transform="translate(0,333)" x2="800" y2="0" style="fill: none; stroke: #ddd; stroke-width: 1; opacity: 1;"></line><line transform="translate(0,300)" x2="800" y2="0" style="fill: none; stroke: #ddd; stroke-width: 1; opacity: 1;"></line><line transform="translate(0,267)" x2="800" y2="0" style="fill: none; stroke: #ddd; stroke-width: 1; opacity: 1;"></line><line transform="translate(0,233)" x2="800" y2="0" style="fill: none; stroke: #ddd; stroke-width: 1; opacity: 1;"></line><line transform="translate(0,200)" x2="800" y2="0" style="fill: none; stroke: #ddd; stroke-width: 1; opacity: 1;"></line><line transform="translate(0,167)" x2="800" y2="0" style="fill: none; stroke: #ddd; stroke-width: 1; opacity: 1;"></line><line transform="translate(0,133)" x2="800" y2="0" style="fill: none; stroke: #ddd; stroke-width: 1; opacity: 1;"></line><line transform="translate(0,100)" x2="800" y2="0" style="fill: none; stroke: #ddd; stroke-width: 1; opacity: 1;"></line><line transform="translate(0,67)" x2="800" y2="0" style="fill: none; stroke: #ddd; stroke-width: 1; opacity: 1;"></line><line transform="translate(0,33)" x2="800" y2="0" style="fill: none; stroke: #ddd; stroke-width: 1; opacity: 1;"></line><line transform="translate(0,0)" x2="800" y2="0" style="fill: none; stroke: #ddd; stroke-width: 1; opacity: 1;"></line></g></g><path class="foreground" d="" style="pointer-events: none; display: none; fill: none;"></path></g></g><g class="mark-group role-axis"><g transform="translate(0.5,600.5)"><path class="background" d="M0,0h0v0h0Z" style="pointer-events: none; fill: none;"></path><g><g class="mark-rule role-axis-tick" style="pointer-events: none;"><line transform="translate(9,0)" x2="0" y2="5" style="fill: none; stroke: #888; stroke-width: 1; opacity: 1;"></line><line transform="translate(75,0)" x2="0" y2="5" style="fill: none; stroke: #888; stroke-width: 1; opacity: 1;"></line><line transform="translate(143,0)" x2="0" y2="5" style="fill: none; stroke: #888; stroke-width: 1; opacity: 1;"></line><line transform="translate(219,0)" x2="0" y2="5" style="fill: none; stroke: #888; stroke-width: 1; opacity: 1;"></line><line transform="translate(290,0)" x2="0" y2="5" style="fill: none; stroke: #888; stroke-width: 1; opacity: 1;"></line><line transform="translate(358,0)" x2="0" y2="5" style="fill: none; stroke: #888; stroke-width: 1; opacity: 1;"></line><line transform="translate(427,0)" x2="0" y2="5" style="fill: none; stroke: #888; stroke-width: 1; opacity: 1;"></line><line transform="translate(493,0)" x2="0" y2="5" style="fill: none; stroke: #888; stroke-width: 1; opacity: 1;"></line><line transform="translate(557,0)" x2="0" y2="5" style="fill: none; stroke: #888; stroke-width: 1; opacity: 1;"></line><line transform="translate(620,0)" x2="0" y2="5" style="fill: none; stroke: #888; stroke-width: 1; opacity: 1;"></line><line transform="translate(672,0)" x2="0" y2="5" style="fill: none; stroke: #888; stroke-width: 1; opacity: 1;"></line><line transform="translate(735,0)" x2="0" y2="5" style="fill: none; stroke: #888; stroke-width: 1; opacity: 1;"></line></g><g class="mark-text role-axis-label" style="pointer-events: none;"><text text-anchor="end" transform="translate(8.562691131498518,7) rotate(270) translate(0,3)" style="font-family: sans-serif; font-size: 10px; fill: #000; opacity: 1;">1</text><text text-anchor="end" transform="translate(74.61773700305815,7) rotate(270) translate(0,3)" style="font-family: sans-serif; font-size: 10px; fill: #000; opacity: 1;">2</text><text text-anchor="end" transform="translate(143.1192660550459,7) rotate(270) translate(0,3)" style="font-family: sans-serif; font-size: 10px; fill: #000; opacity: 1;">3</text><text text-anchor="end" transform="translate(218.96024464831808,7) rotate(270) translate(0,3)" style="font-family: sans-serif; font-size: 10px; fill: #000; opacity: 1;">4</text><text text-anchor="end" transform="translate(289.908256880734,7) rotate(270) translate(0,3)" style="font-family: sans-serif; font-size: 10px; fill: #000; opacity: 1;">5</text><text text-anchor="end" transform="translate(358.4097859327217,7) rotate(270) translate(0,3)" style="font-family: sans-serif; font-size: 10px; fill: #000; opacity: 1;">6</text><text text-anchor="end" transform="translate(426.9113149847095,7) rotate(270) translate(0,3)" style="font-family: sans-serif; font-size: 10px; fill: #000; opacity: 1;">7</text><text text-anchor="end" transform="translate(492.96636085626915,7) rotate(270) translate(0,3)" style="font-family: sans-serif; font-size: 10px; fill: #000; opacity: 1;">8</text><text text-anchor="end" transform="translate(556.5749235474007,7) rotate(270) translate(0,3)" style="font-family: sans-serif; font-size: 10px; fill: #000; opacity: 1;">9</text><text text-anchor="end" transform="translate(620.1834862385322,7) rotate(270) translate(0,3)" style="font-family: sans-serif; font-size: 10px; fill: #000; opacity: 1;">10</text><text text-anchor="end" transform="translate(671.559633027523,7) rotate(270) translate(0,3)" style="font-family: sans-serif; font-size: 10px; fill: #000; opacity: 1;">11</text><text text-anchor="end" transform="translate(735.1681957186545,7) rotate(270) translate(0,3)" style="font-family: sans-serif; font-size: 10px; fill: #000; opacity: 1;">12</text></g><g class="mark-rule role-axis-domain" style="pointer-events: none;"><line transform="translate(0,0)" x2="800" y2="0" style="fill: none; stroke: #888; stroke-width: 1; opacity: 1;"></line></g><g class="mark-text role-axis-title" style="pointer-events: none;"><text text-anchor="middle" transform="translate(400,36)" style="font-family: sans-serif; font-size: 11px; font-weight: bold; fill: #000; opacity: 1;">Date</text></g></g><path class="foreground" d="" style="pointer-events: none; display: none; fill: none;"></path></g></g><g class="mark-group role-axis"><g transform="translate(0.5,0.5)"><path class="background" d="M0,0h0v0h0Z" style="pointer-events: none; fill: none;"></path><g><g class="mark-rule role-axis-tick" style="pointer-events: none;"><line transform="translate(0,600)" x2="-5" y2="0" style="fill: none; stroke: #888; stroke-width: 1; opacity: 1;"></line><line transform="translate(0,567)" x2="-5" y2="0" style="fill: none; stroke: #888; stroke-width: 1; opacity: 1;"></line><line transform="translate(0,533)" x2="-5" y2="0" style="fill: none; stroke: #888; stroke-width: 1; opacity: 1;"></line><line transform="translate(0,500)" x2="-5" y2="0" style="fill: none; stroke: #888; stroke-width: 1; opacity: 1;"></line><line transform="translate(0,467)" x2="-5" y2="0" style="fill: none; stroke: #888; stroke-width: 1; opacity: 1;"></line><line transform="translate(0,433)" x2="-5" y2="0" style="fill: none; stroke: #888; stroke-width: 1; opacity: 1;"></line><line transform="translate(0,400)" x2="-5" y2="0" style="fill: none; stroke: #888; stroke-width: 1; opacity: 1;"></line><line transform="translate(0,367)" x2="-5" y2="0" style="fill: none; stroke: #888; stroke-width: 1; opacity: 1;"></line><line transform="translate(0,333)" x2="-5" y2="0" style="fill: none; stroke: #888; stroke-width: 1; opacity: 1;"></line><line transform="translate(0,300)" x2="-5" y2="0" style="fill: none; stroke: #888; stroke-width: 1; opacity: 1;"></line><line transform="translate(0,267)" x2="-5" y2="0" style="fill: none; stroke: #888; stroke-width: 1; opacity: 1;"></line><line transform="translate(0,233)" x2="-5" y2="0" style="fill: none; stroke: #888; stroke-width: 1; opacity: 1;"></line><line transform="translate(0,200)" x2="-5" y2="0" style="fill: none; stroke: #888; stroke-width: 1; opacity: 1;"></line><line transform="translate(0,167)" x2="-5" y2="0" style="fill: none; stroke: #888; stroke-width: 1; opacity: 1;"></line><line transform="translate(0,133)" x2="-5" y2="0" style="fill: none; stroke: #888; stroke-width: 1; opacity: 1;"></line><line transform="translate(0,100)" x2="-5" y2="0" style="fill: none; stroke: #888; stroke-width: 1; opacity: 1;"></line><line transform="translate(0,67)" x2="-5" y2="0" style="fill: none; stroke: #888; stroke-width: 1; opacity: 1;"></line><line transform="translate(0,33)" x2="-5" y2="0" style="fill: none; stroke: #888; stroke-width: 1; opacity: 1;"></line><line transform="translate(0,0)" x2="-5" y2="0" style="fill: none; stroke: #888; stroke-width: 1; opacity: 1;"></line></g><g class="mark-text role-axis-label" style="pointer-events: none;"><text text-anchor="end" transform="translate(-7,603)" style="font-family: sans-serif; font-size: 10px; fill: #000; opacity: 1;">0</text><text text-anchor="end" transform="translate(-7,569.6666666666666)" style="font-family: sans-serif; font-size: 10px; fill: #000; opacity: 1;">100</text><text text-anchor="end" transform="translate(-7,536.3333333333333)" style="font-family: sans-serif; font-size: 10px; fill: #000; opacity: 1;">200</text><text text-anchor="end" transform="translate(-7,503)" style="font-family: sans-serif; font-size: 10px; fill: #000; opacity: 1;">300</text><text text-anchor="end" transform="translate(-7,469.6666666666667)" style="font-family: sans-serif; font-size: 10px; fill: #000; opacity: 1;">400</text><text text-anchor="end" transform="translate(-7,436.3333333333333)" style="font-family: sans-serif; font-size: 10px; fill: #000; opacity: 1;">500</text><text text-anchor="end" transform="translate(-7,403.00000000000006)" style="font-family: sans-serif; font-size: 10px; fill: #000; opacity: 1;">600</text><text text-anchor="end" transform="translate(-7,369.6666666666667)" style="font-family: sans-serif; font-size: 10px; fill: #000; opacity: 1;">700</text><text text-anchor="end" transform="translate(-7,336.33333333333337)" style="font-family: sans-serif; font-size: 10px; fill: #000; opacity: 1;">800</text><text text-anchor="end" transform="translate(-7,303)" style="font-family: sans-serif; font-size: 10px; fill: #000; opacity: 1;">900</text><text text-anchor="end" transform="translate(-7,269.66666666666663)" style="font-family: sans-serif; font-size: 10px; fill: #000; opacity: 1;">1,000</text><text text-anchor="end" transform="translate(-7,236.33333333333331)" style="font-family: sans-serif; font-size: 10px; fill: #000; opacity: 1;">1,100</text><text text-anchor="end" transform="translate(-7,203.00000000000003)" style="font-family: sans-serif; font-size: 10px; fill: #000; opacity: 1;">1,200</text><text text-anchor="end" transform="translate(-7,169.66666666666669)" style="font-family: sans-serif; font-size: 10px; fill: #000; opacity: 1;">1,300</text><text text-anchor="end" transform="translate(-7,136.33333333333331)" style="font-family: sans-serif; font-size: 10px; fill: #000; opacity: 1;">1,400</text><text text-anchor="end" transform="translate(-7,102.99999999999997)" style="font-family: sans-serif; font-size: 10px; fill: #000; opacity: 1;">1,500</text><text text-anchor="end" transform="translate(-7,69.6666666666667)" style="font-family: sans-serif; font-size: 10px; fill: #000; opacity: 1;">1,600</text><text text-anchor="end" transform="translate(-7,36.33333333333335)" style="font-family: sans-serif; font-size: 10px; fill: #000; opacity: 1;">1,700</text><text text-anchor="end" transform="translate(-7,3)" style="font-family: sans-serif; font-size: 10px; fill: #000; opacity: 1;">1,800</text></g><g class="mark-rule role-axis-domain" style="pointer-events: none;"><line transform="translate(0,600)" x2="0" y2="-600" style="fill: none; stroke: #888; stroke-width: 1; opacity: 1;"></line></g><g class="mark-text role-axis-title" style="pointer-events: none;"><text text-anchor="middle" transform="translate(-51,300) rotate(-90) translate(0,-2)" style="font-family: sans-serif; font-size: 11px; font-weight: bold; fill: #000; opacity: 1;">Sum of Hours</text></g></g><path class="foreground" d="" style="pointer-events: none; display: none; fill: none;"></path></g></g><g class="mark-group role-scope pathgroup"><g transform="translate(0,0)"><path class="background" d="M0,0h800v600h-800Z" style="fill: none;"></path><g><g class="mark-line role-mark marks"><path d="M8.562691131498518,599.3333333333334L11.009174311926653,597L13.455657492354788,594.8333333333334L15.902140672782922,593.3333333333334L23.241590214067326,591.6666666666667L25.68807339449546,589.6666666666666L28.134556574923593,587.6666666666666L30.58103975535173,584.8333333333334L33.027522935779864,582.1666666666666L40.366972477064266,579.5L42.8134556574924,577L45.25993883792054,573.5L47.70642201834867,571L50.15290519877681,568.8333333333334L57.49235474006121,566L59.93883792048934,563.1666666666666L62.38532110091747,560.8333333333334L64.83180428134561,559.3333333333333L67.27828746177374,557.1666666666666L74.61773700305815,555.1666666666666L77.06422018348628,553.1666666666666L79.51070336391442,551.1666666666667L81.95718654434255,550.8333333333333L84.40366972477068,548.5L91.74311926605509,548.1666666666667L94.18960244648322,546.8333333333334L96.63608562691135,545.3333333333333L99.0825688073395,544L101.52905198776763,543L108.86850152905203,540.3333333333334L111.31498470948016,539.1666666666666L113.7614678899083,536.8333333333334L116.20795107033643,534.6666666666666L118.65443425076457,531.3333333333334L125.99388379204898,528.3333333333334L128.4403669724771,527.3333333333333L130.88685015290523,526.8333333333334L133.33333333333337,524.6666666666666L135.77981651376152,522.1666666666667L140.67278287461778,521.6666666666666L143.1192660550459,518.8333333333333L145.56574923547404,516.5L148.0122324159022,513.1666666666666L150.4587155963303,511.16666666666663L152.90519877675845,508.3333333333333L165.13761467889913,506.6666666666667L167.58409785932724,505.3333333333333L170.0305810397554,503.6666666666667L177.3700305810398,501L179.81651376146792,498.83333333333337L182.26299694189606,497L184.7094801223242,494L187.15596330275233,492.00000000000006L194.49541284403674,489.6666666666667L196.94189602446488,487.8333333333333L199.388379204893,486.5L201.83486238532114,485.8333333333333L204.28134556574926,482.66666666666663L211.62079510703367,481L214.06727828746182,478.33333333333337L216.51376146788994,478L218.96024464831808,475.3333333333333L221.4067278287462,472.6666666666667L228.7461773700306,470.3333333333333L231.19266055045875,467.66666666666663L233.63914373088687,465.99999999999994L236.08562691131502,463.83333333333337L238.53211009174316,461.33333333333337L243.42507645259943,459L245.87155963302754,458.1666666666667L248.3180428134557,455.6666666666667L250.76452599388384,451.83333333333337L253.21100917431195,450.5L260.55045871559633,447.8333333333333L262.9969418960245,445L265.4434250764526,442.16666666666663L277.6758409785933,439.3333333333333L280.12232415902145,436.99999999999994L282.56880733944956,435L289.908256880734,432.1666666666667L292.3547400611621,430L294.80122324159026,426.8333333333333L297.2477064220184,425.50000000000006L299.6941896024465,423.00000000000006L307.0336391437309,422.1666666666667L309.480122324159,419.83333333333337L311.9266055045872,417.00000000000006L314.3730886850153,415.1666666666667L316.81957186544344,413.8333333333333L324.15902140672785,411.33333333333326L326.60550458715596,409.33333333333337L329.05198776758414,406.83333333333337L331.49847094801225,405.83333333333337L338.83792048929666,403.5L341.2844036697248,401L343.73088685015296,398L346.1773700305811,394.6666666666667L348.6238532110092,392.5L355.9633027522936,390.16666666666663L358.4097859327217,387.49999999999994L360.8562691131499,383L363.302752293578,380.33333333333337L365.7492354740061,377.5L373.08868501529054,374.6666666666667L375.53516819571865,371.83333333333337L377.98165137614683,369.1666666666667L380.42813455657495,366.16666666666663L382.87461773700306,363.5L390.2140672782875,360.8333333333333L392.66055045871565,358.49999999999994L395.10703363914376,355.8333333333333L397.5535168195719,353.16666666666663L400,350.50000000000006L404.8929663608563,348.00000000000006L407.3394495412844,345.33333333333337L409.7859327217126,342.3333333333333L412.2324159021407,339.33333333333337L414.6788990825688,336.6666666666667L419.5718654434251,334.1666666666667L422.0183486238532,332.16666666666663L424.46483180428135,330.16666666666663L426.9113149847095,327.50000000000006L429.35779816513764,325.1666666666667L434.25076452599393,322.5L441.5902140672783,320.16666666666663L444.03669724770646,318.1666666666667L448.9296636085627,315.5L451.37614678899087,312.3333333333333L453.822629969419,309L456.2691131498471,306.1666666666667L458.7155963302753,303.8333333333333L468.5015290519878,301.6666666666667L470.9480122324159,299.33333333333337L473.39449541284404,296.5L478.28746177370033,293.8333333333333L480.73394495412845,291.3333333333333L483.18042813455656,288.5L485.62691131498474,286L488.07339449541286,283.3333333333333L492.96636085626915,280.8333333333333L495.41284403669727,278.16666666666663L497.8593272171254,275.16666666666663L500.30581039755356,272.50000000000006L502.7522935779817,270.33333333333337L507.6452599388379,267.8333333333333L510.0917431192661,264.6666666666667L512.5382262996942,262.6666666666667L514.9847094801223,260.16666666666663L517.4311926605504,258.00000000000006L522.3241590214068,255.49999999999997L524.7706422018349,252.49999999999997L527.217125382263,249.99999999999997L529.6636085626911,247.33333333333337L532.1100917431193,245L537.0030581039756,242L539.4495412844037,239.66666666666669L541.8960244648318,237.16666666666663L544.34250764526,236.16666666666669L546.7889908256881,234L551.6819571865443,231.33333333333331L556.5749235474007,231L559.0214067278288,228.66666666666663L561.4678899082569,226.16666666666666L566.3608562691131,223.50000000000003L568.8073394495412,222L571.2538226299695,219.83333333333331L573.7003058103976,217.25L576.1467889908257,214.91666666666669L581.039755351682,212.58333333333331L583.4862385321101,210.25000000000003L585.9327217125382,207.58333333333334L588.3792048929664,205.08333333333334L590.8256880733945,202.41666666666666L595.7186544342508,200.58333333333331L598.1651376146789,198.08333333333331L600.611620795107,195.25L603.0581039755352,192.58333333333331L605.5045871559633,190.08333333333334L610.3975535168196,187.74999999999997L612.8440366972477,185.41666666666669L615.2905198776758,182.75L617.7370030581039,179.91666666666669L620.1834862385322,177.41666666666669L625.0764525993884,175.25000000000003L627.5229357798165,172.91666666666666L632.4159021406728,170.41666666666666L634.8623853211009,168.25L637.3088685015291,165.91666666666669L644.6483180428135,164.58333333333334L647.0948012232416,161.74999999999997L649.5412844036697,159.41666666666669L651.9877675840978,157.08333333333331L656.8807339449542,154.41666666666669L659.3272171253823,151.41666666666669L661.7737003058104,148.91666666666669L664.2201834862385,146.25L666.6666666666666,143.75000000000003L671.559633027523,141.08333333333334L674.0061162079511,138.41666666666666L676.4525993883792,136.08333333333334L678.8990825688073,133.91666666666669L681.3455657492354,132.08333333333334L686.2385321100918,129.91666666666666L688.6850152905199,127.24999999999997L691.131498470948,124.74999999999999L693.5779816513761,121.74999999999999L696.0244648318043,119.41666666666669L700.9174311926605,116.91666666666669L703.3639143730887,114.25L705.8103975535169,112.25000000000003L708.256880733945,109.41666666666666L710.7033639143731,107.08333333333336L715.5963302752293,104.74999999999999L718.0428134556574,102.0833333333333L720.4892966360857,99.41666666666669L722.9357798165138,96.75L725.3822629969419,94.08333333333331L730.2752293577981,92.74999999999997L732.7217125382263,90.24999999999999L735.1681957186545,87.5833333333333L737.6146788990826,84.91666666666669L740.0611620795107,82.58333333333331L744.954128440367,81.91666666666669L747.4006116207951,78.91666666666669L749.8470948012232,76.0833333333333L752.2935779816514,74.25000000000001L754.7400611620795,72.58333333333336L757.1865443425077,70.9166666666667L762.0795107033639,67.91666666666669L764.525993883792,65.08333333333331L766.9724770642201,63.74999999999997L769.4189602446484,61.08333333333336L771.8654434250765,58.583333333333364L774.3119266055046,56.25L776.7584097859327,55.583333333333364L779.2048929663608,51.250000000000014L781.651376146789,48.583333333333336L784.0978593272172,45.91666666666665L788.9908256880734,43.250000000000036L791.4373088685015,40.58333333333335L793.8837920489296,37.916666666666664L796.3302752293578,35.24999999999998L798.7767584097859,32.583333333333364" style="fill: none; stroke: #4c78a8; stroke-width: 2;"></path></g></g><path class="foreground" d="" style="display: none; fill: none;"></path></g><g transform="translate(0,0)"><path class="background" d="M0,0h800v600h-800Z" style="fill: none;"></path><g><g class="mark-line role-mark marks"><path d="M6.116207951070384,597.5L8.562691131498518,596.1666666666666L11.009174311926653,594L13.455657492354788,592.1666666666666L20.79510703363919,589.8333333333334L23.241590214067326,587.6666666666666L25.68807339449546,585.5L28.134556574923593,582.8333333333333L30.58103975535173,580.6666666666666L37.920489296636134,578L40.366972477064266,575.6666666666666L42.8134556574924,573.6666666666666L45.25993883792054,570.8333333333333L57.49235474006121,569.1666666666666L59.93883792048934,565.1666666666666L62.38532110091747,562.1666666666666L64.83180428134561,560L72.17125382263,558.3333333333334L74.61773700305815,556L77.06422018348628,552.3333333333334L79.51070336391442,549.8333333333334L81.95718654434255,547.8333333333333L89.29663608562696,545.5L91.74311926605509,542.8333333333334L94.18960244648322,541.3333333333334L96.63608562691135,538.6666666666666L99.0825688073395,536.6666666666667L111.31498470948016,534L113.7614678899083,531.1666666666667L116.20795107033643,529.8333333333334L123.54740061162083,526.3333333333334L125.99388379204898,524.1666666666666L128.4403669724771,521.5L130.88685015290523,518.8333333333333L133.33333333333337,516.8333333333334L140.67278287461778,514.3333333333334L143.1192660550459,511.99999999999994L145.56574923547404,509.16666666666663L148.0122324159022,506.33333333333337L150.4587155963303,505L160.24464831804286,502.5L162.69113149847098,499.8333333333333L165.13761467889913,497.3333333333333L167.58409785932724,494.66666666666663L174.92354740061165,492.1666666666667L177.3700305810398,490.1666666666667L179.81651376146792,488.5L182.26299694189606,486.1666666666667L184.7094801223242,483.16666666666663L194.49541284403674,481.5L196.94189602446488,476.16666666666663L199.388379204893,478L201.83486238532114,473.8333333333333L209.17431192660553,472L211.62079510703367,469.33333333333337L214.06727828746182,466.6666666666667L216.51376146788994,464.5L218.96024464831808,462.1666666666667L226.2996941896025,459.5L228.7461773700306,458.5L231.19266055045875,455.8333333333333L233.63914373088687,453.8333333333333L258.1039755351682,451.16666666666663L260.55045871559633,448.83333333333326L262.9969418960245,446.6666666666667L265.4434250764526,444L267.88990825688074,441.8333333333333L270.3363914373089,439.83333333333337L272.78287461773704,438L275.22935779816515,435.5L277.6758409785933,433.66666666666663L280.12232415902145,431.50000000000006L289.908256880734,428.83333333333337L292.3547400611621,427.1666666666667L294.80122324159026,425.16666666666663L297.2477064220184,424.5L304.5871559633028,422.83333333333337L307.0336391437309,420.33333333333337L309.480122324159,419.66666666666663L311.9266055045872,417.5L314.3730886850153,416L321.7125382262997,414.1666666666667L324.15902140672785,412.6666666666667L326.60550458715596,411.6666666666667L329.05198776758414,410L331.49847094801225,409.5L341.2844036697248,407.8333333333333L343.73088685015296,406.00000000000006L346.1773700305811,404.5L353.5168195718655,401.8333333333333L355.9633027522936,400.00000000000006L358.4097859327217,397.5L360.8562691131499,394.91666666666674L363.302752293578,392.4166666666667L370.6422018348624,389.75000000000006L373.08868501529054,385.91666666666663L375.53516819571865,383.58333333333337L377.98165137614683,380.9166666666667L380.42813455657495,378.58333333333337L387.76758409785936,376.75L390.2140672782875,375.08333333333337L392.66055045871565,372.3333333333333L395.10703363914376,370.66666666666663L397.5535168195719,367.5L402.4464831804282,365.6666666666667L404.8929663608563,364.1666666666667L407.3394495412844,361.8333333333333L409.7859327217126,359.83333333333337L412.2324159021407,357.8333333333333L417.12538226299694,355.8333333333333L419.5718654434251,354.5L424.46483180428135,352.5L426.9113149847095,351.6666666666667L431.80428134556576,349L436.69724770642205,346.33333333333337L439.14373088685016,343.6666666666667L441.5902140672783,341L446.4831804281346,337.6666666666667L448.9296636085627,335L451.37614678899087,332.16666666666663L453.822629969419,330.16666666666663L456.2691131498471,329.8333333333333L461.1620795107034,329.5L463.6085626911315,329L466.0550458715596,328.33333333333337L468.5015290519878,326.8333333333333L470.9480122324159,325.83333333333337L475.8409785932722,325.00000000000006L478.28746177370033,323.8333333333333L480.73394495412845,322.8333333333333L483.18042813455656,321.50000000000006L485.62691131498474,320.5L490.519877675841,319.5L495.41284403669727,317.8333333333333L497.8593272171254,316.1666666666667L500.30581039755356,315.16666666666663L505.1987767584098,314.5L507.6452599388379,313.5L510.0917431192661,312.49999999999994L512.5382262996942,311.5L514.9847094801223,309.8333333333333L519.8776758409786,307.16666666666663L522.3241590214068,304.50000000000006L524.7706422018349,301.83333333333337L527.217125382263,299.5L529.6636085626911,296.8333333333333L534.5565749235474,295.50000000000006L537.0030581039756,294.6666666666667L539.4495412844037,293L541.8960244648318,291.5L544.34250764526,290.33333333333337L549.2354740061162,288.1666666666667L551.6819571865443,286L554.1284403669725,284.00000000000006L556.5749235474007,282.8333333333333L563.914373088685,280.1666666666667L566.3608562691131,279.1666666666667L568.8073394495412,278.49999999999994L571.2538226299695,275.49999999999994L573.7003058103976,273.8333333333333L578.5932721712538,272.16666666666663L581.039755351682,269.83333333333337L583.4862385321101,267.8333333333333L585.9327217125382,266.66666666666663L588.3792048929664,264.33333333333337L593.2721712538226,262.8333333333333L595.7186544342508,262L598.1651376146789,261.1666666666667L600.611620795107,259.8333333333333L603.0581039755352,258.5L607.9510703363915,257.1666666666667L610.3975535168196,255.49999999999997L612.8440366972477,252.83333333333334L615.2905198776758,250.33333333333337L617.7370030581039,248.5L622.6299694189603,246.83333333333334L625.0764525993884,245.16666666666669L627.5229357798165,243.66666666666666L629.9694189602446,240L632.4159021406728,237.66666666666666L634.8623853211009,235.16666666666666L639.7553516819572,230.83333333333331L642.2018348623853,233.16666666666669L644.6483180428135,228.66666666666663L647.0948012232416,226.99999999999997L649.5412844036697,225L654.434250764526,222.66666666666663L656.8807339449542,222L659.3272171253823,220.16666666666666L661.7737003058104,218.49999999999997L664.2201834862385,216.5L669.1131498470949,214.50000000000003L671.559633027523,211.83333333333334L674.0061162079511,209.49999999999997L678.8990825688073,207.5L683.7920489296636,206.00000000000003L688.6850152905199,204.66666666666669L691.131498470948,202.33333333333331L693.5779816513761,199.66666666666663L698.4709480122324,197.66666666666666L700.9174311926605,197.16666666666666L703.3639143730887,195.16666666666666L705.8103975535169,193.33333333333331L708.256880733945,191L713.1498470948012,188.99999999999997L715.5963302752293,187.16666666666669L718.0428134556574,184.5L720.4892966360857,181.83333333333331L722.9357798165138,179.16666666666669L727.82874617737,177.16666666666666L730.2752293577981,174.99999999999997L732.7217125382263,172.66666666666669L735.1681957186545,170.66666666666669L737.6146788990826,168.33333333333334L742.5076452599388,165.99999999999997L744.954128440367,163.66666666666669L747.4006116207951,161.33333333333331L752.2935779816514,158.66666666666669L759.6330275229358,156L762.0795107033639,155.66666666666669L764.525993883792,154.83333333333334L774.3119266055046,154.00000000000003L786.5443425076453,151.33333333333334L791.4373088685015,148.66666666666666L796.3302752293578,146.33333333333337L798.7767584097859,144.66666666666669" style="fill: none; stroke: #f58518; stroke-width: 2;"></path></g></g><path class="foreground" d="" style="display: none; fill: none;"></path></g><g transform="translate(0,0)"><path class="background" d="M0,0h800v600h-800Z" style="fill: none;"></path><g><g class="mark-line role-mark marks"><path d="M1.2232415902141156,597.3333333333334L3.66972477064225,595.8333333333334L6.116207951070384,594.8333333333334L8.562691131498518,592.8333333333334L11.009174311926653,590.8333333333334L18.348623853211055,588.8333333333334L20.79510703363919,587.1666666666666L23.241590214067326,585L25.68807339449546,582.6666666666667L28.134556574923593,581.8333333333334L35.474006116207995,579.8333333333333L40.366972477064266,579.5L42.8134556574924,578L45.25993883792054,575.1666666666666L52.59938837920494,573.1666666666666L55.04587155963307,571L57.49235474006121,568.8333333333334L59.93883792048934,567.1666666666666L62.38532110091747,566.1666666666666L69.72477064220188,564.5L72.17125382263,562.3333333333333L74.61773700305815,560.1666666666667L77.06422018348628,559L79.51070336391442,557.6666666666666L86.85015290519883,556.3333333333333L89.29663608562696,555.1666666666666L91.74311926605509,553L94.18960244648322,551.3333333333334L96.63608562691135,549.8333333333334L103.97553516819576,548.3333333333334L106.4220183486239,547L108.86850152905203,545.8333333333334L111.31498470948016,544.5833333333334L113.7614678899083,543.0833333333334L121.1009174311927,541.4166666666667L123.54740061162083,539.3333333333333L125.99388379204898,537.6666666666666L128.4403669724771,535.8333333333334L130.88685015290523,534.6666666666666L135.77981651376152,534.5L138.22629969418963,532.6666666666666L140.67278287461778,530.5L143.1192660550459,528.3333333333334L145.56574923547404,527L148.0122324159022,525.5L155.35168195718657,524L157.79816513761472,522.3333333333334L160.24464831804286,520.6666666666666L162.69113149847098,519.3333333333333L165.13761467889913,518.3333333333334L172.47706422018354,517.5L174.92354740061165,515.8333333333334L177.3700305810398,514L179.81651376146792,513.1666666666666L182.26299694189606,511.5L189.60244648318047,509.5L192.0489296636086,508L194.49541284403674,505L196.94189602446488,503.49999999999994L199.388379204893,502.1666666666667L201.83486238532114,501.5L206.7278287461774,499.6666666666667L209.17431192660553,497.66666666666663L211.62079510703367,495.6666666666667L214.06727828746182,494L216.51376146788994,492.33333333333337L223.85321100917434,490.5L226.2996941896025,488.99999999999994L228.7461773700306,487.1666666666667L231.19266055045875,485.8333333333333L233.63914373088687,484.1666666666667L240.97859327217128,481.3333333333333L243.42507645259943,479.1666666666667L248.3180428134557,477.83333333333337L255.6574923547401,476.16666666666663L258.1039755351682,475.3333333333333L260.55045871559633,473.8333333333333L262.9969418960245,472.1666666666667L265.4434250764526,471.66666666666663L285.0152905198777,471.50000000000006L287.46177370030586,471.3333333333333L292.3547400611621,469.5L294.80122324159026,468.3333333333333L302.1406727828747,466.5L304.5871559633028,465.16666666666663L307.0336391437309,463.5L309.480122324159,462.1666666666667L311.9266055045872,461L319.2660550458716,459.3333333333333L321.7125382262997,457.83333333333337L324.15902140672785,456L326.60550458715596,454.6666666666667L329.05198776758414,453.6666666666667L333.9449541284404,451.3333333333333L336.39143730886855,448.3333333333333L338.83792048929666,446.3333333333333L341.2844036697248,445L343.73088685015296,444L351.0703363914373,442.3333333333333L353.5168195718655,441L355.9633027522936,438.33333333333337L358.4097859327217,435.6666666666667L360.8562691131499,434.33333333333337L368.1957186544343,432.66666666666663L370.6422018348624,431.6666666666667L373.08868501529054,429.6666666666667L375.53516819571865,428.6666666666667L377.98165137614683,427.3333333333333L385.32110091743124,426L387.76758409785936,424.8333333333333L390.2140672782875,422" style="fill: none; stroke: #e45756; stroke-width: 2;"></path></g></g><path class="foreground" d="" style="display: none; fill: none;"></path></g></g><g class="mark-group role-legend"><g transform="translate(819,0)"><path class="background" d="M0,0h61v53h-61Z" style="pointer-events: none; fill: none;"></path><g><g class="mark-group role-legend-entry"><g transform="translate(0,16)"><path class="background" d="M0,0h0v0h0Z" style="pointer-events: none; fill: none;"></path><g><g class="mark-group role-scope"><g transform="translate(0,0)"><path class="background" d="M0,0h48v11h-48Z" style="pointer-events: none; fill: none; opacity: 1;"></path><g><g class="mark-symbol role-legend-symbol" style="pointer-events: none;"><path transform="translate(6,6)" d="M-5,0L5,0" style="fill: none; stroke: #4c78a8; stroke-width: 1.5; opacity: 1;"></path></g><g class="mark-text role-legend-label" style="pointer-events: none;"><text text-anchor="start" transform="translate(16,9)" style="font-family: sans-serif; font-size: 10px; fill: #000; opacity: 1;">2021</text></g></g><path class="foreground" d="" style="pointer-events: none; display: none; fill: none;"></path></g><g transform="translate(0,13)"><path class="background" d="M0,0h48v11h-48Z" style="pointer-events: none; fill: none; opacity: 1;"></path><g><g class="mark-symbol role-legend-symbol" style="pointer-events: none;"><path transform="translate(6,6)" d="M-5,0L5,0" style="fill: none; stroke: #f58518; stroke-width: 1.5; opacity: 1;"></path></g><g class="mark-text role-legend-label" style="pointer-events: none;"><text text-anchor="start" transform="translate(16,9)" style="font-family: sans-serif; font-size: 10px; fill: #000; opacity: 1;">2022</text></g></g><path class="foreground" d="" style="pointer-events: none; display: none; fill: none;"></path></g><g transform="translate(0,26)"><path class="background" d="M0,0h48v11h-48Z" style="pointer-events: none; fill: none; opacity: 1;"></path><g><g class="mark-symbol role-legend-symbol" style="pointer-events: none;"><path transform="translate(6,6)" d="M-5,0L5,0" style="fill: none; stroke: #e45756; stroke-width: 1.5; opacity: 1;"></path></g><g class="mark-text role-legend-label" style="pointer-events: none;"><text text-anchor="start" transform="translate(16,9)" style="font-family: sans-serif; font-size: 10px; fill: #000; opacity: 1;">2023</text></g></g><path class="foreground" d="" style="pointer-events: none; display: none; fill: none;"></path></g></g></g><path class="foreground" d="" style="pointer-events: none; display: none; fill: none;"></path></g></g><g class="mark-text role-legend-title" style="pointer-events: none;"><text text-anchor="start" transform="translate(0,9)" style="font-family: sans-serif; font-size: 11px; font-weight: bold; fill: #000; opacity: 1;">Project</text></g></g><path class="foreground" d="" style="pointer-events: none; display: none; fill: none;"></path></g></g></g><path class="foreground" d="" style="display: none; fill: none;"></path></g></g></g></svg>