<svg class="marks" width="810" height="627" viewBox="0 0 810 627" version="1.1" xmlns="http://www.w3.org/2000/svg" xmlns:xlink="http://www.w3.org/1999/xlink"><rect width="810" height="627" style="fill: white;"></rect><g transform="translate(5,22)"><g class="mark-group role-frame root"><g transform="translate(0,0)"><path class="background" d="M0.5,0.5h800v600h-800Z" style="fill: none; stroke: none;"></path><g><g class="mark-arc role-mark layer_0_marks"><path transform="translate(400,300)" d="M59.4047803917815,218.7437995564263A226.6666666666667,226.6666666666667,0,0,0,192.69718743978942,-119.35481444236954L0,0Z" style="fill: #e45756;"></path><path transform="translate(400,300)" d="M-212.22772665566083,79.60634281480282A226.6666666666667,226.6666666666667,0,0,0,59.4047803917815,218.7437995564263L0,0Z" style="fill: #72b7b2;"></path><path transform="translate(400,300)" d="M-147.04349748295627,-172.49923949327322A226.6666666666667,226.6666666666667,0,0,0,-212.22772665566083,79.60634281480282L0,0Z" style="fill: #54a24b;"></path><path transform="translate(400,300)" d="M155.1027725221316,-165.29037398991417A226.6666666666667,226.6666666666667,0,0,0,1.3879330390336672e-14,-226.6666666666667L0,0Z" style="fill: #4c78a8;"></path><path transform="translate(400,300)" d="M-4.1637991171010013e-14,-226.6666666666667A226.6666666666667,226.6666666666667,0,0,0,-107.61159238724733,-199.49316520036152L0,0Z" style="fill: #b279a2;"></path><path transform="translate(400,300)" d="M192.69718743978942,-119.35481444236954A226.6666666666667,226.6666666666667,0,0,0,155.1027725221316,-165.29037398991417L0,0Z" style="fill: #f58518;"></path><path transform="translate(400,300)" d="M-107.61159238724733,-199.49316520036152A226.6666666666667,226.6666666666667,0,0,0,-147.04349748295627,-172.49923949327322L0,0Z" style="fill: #eeca3b;"></path></g><g class="mark-text role-mark layer_1_marks"><text text-anchor="middle" transform="translate(648.0833623235341,403.80468521170775)" style="font-family: sans-serif; font-size: 20px; fill: #e45756;">ETL</text><text text-anchor="middle" transform="translate(278.4271406556157,543.3418441445622)" style="font-family: sans-serif; font-size: 20px; fill: #72b7b2;">GEM</text><text text-anchor="middle" transform="translate(141.82364525959565,239.24611648699357)" style="font-family: sans-serif; font-size: 20px; fill: #54a24b;">L0MDT</text><text text-anchor="middle" transform="translate(498.12060819836006,58.041420076063844)" style="font-family: sans-serif; font-size: 20px; fill: #4c78a8;">APOLLO</text><text text-anchor="middle" transform="translate(334.7120988702329,47.449035822372366)" style="font-family: sans-serif; font-size: 20px; fill: #b279a2;">VAC/SICK/HOL</text><text text-anchor="middle" transform="translate(606.3648864512098,137.10759415802494)" style="font-family: sans-serif; font-size: 20px; fill: #f58518;">EDF</text><text text-anchor="middle" transform="translate(249.36364874642615,85.95500280142465)" style="font-family: sans-serif; font-size: 20px; fill: #eeca3b;">OTHER PRJ</text></g><g class="mark-group role-title"><g transform="translate(400,-17)"><path class="background" d="M0,0h0v0h0Z" style="pointer-events: none; fill: none;"></path><g><g class="mark-text role-title-text" style="pointer-events: none;"><text text-anchor="middle" transform="translate(0,10)" style="font-family: sans-serif; font-size: 13px; font-weight: bold; fill: #000; opacity: 1;">EDF Work</text></g></g><path class="foreground" d="" style="pointer-events: none; display: none; fill: none;"></path></g></g></g><path class="foreground" d="" style="display: none; fill: none;"></path></g></g></g></svg>