<svg class="marks" width="986" height="693" viewBox="0 0 986 693" version="1.1" xmlns="http://www.w3.org/2000/svg" xmlns:xlink="http://www.w3.org/1999/xlink"><rect width="986" height="693" style="fill: white;"></rect><g transform="translate(51,10)"><g class="mark-group role-frame root"><g transform="translate(0,0)"><path class="background" d="M0.5,0.5h800v600h-800Z" style="fill: none; stroke: #ddd;"></path><g><g class="mark-group role-axis"><g transform="translate(0.5,0.5)"><path class="background" d="M0,0h0v0h0Z" style="pointer-events: none; fill: none;"></path><g><g class="mark-rule role-axis-grid" style="pointer-events: none;"><line transform="translate(0,600)" x2="800" y2="0" style="fill: none; stroke: #ddd; stroke-width: 1; opacity: 1;"></line><line transform="translate(0,567)" x2="800" y2="0" style="fill: none; stroke: #ddd; stroke-width: 1; opacity: 1;"></line><line transform="translate(0,533)" x2="800" y2="0" style="fill: none; stroke: #ddd; stroke-width: 1; opacity: 1;"></line><line transform="translate(0,500)" x2="800" y2="0" style="fill: none; stroke: #ddd; stroke-width: 1; opacity: 1;"></line><line transform="translate(0,467)" x2="800" y2="0" style="fill: none; stroke: #ddd; stroke-width: 1; opacity: 1;"></line><line transform="translate(0,433)" x2="800" y2="0" style="fill: none; stroke: #ddd; stroke-width: 1; opacity: 1;"></line><line transform="translate(0,400)" x2="800" y2="0" style="fill: none; stroke: #ddd; stroke-width: 1; opacity: 1;"></line><line transform="translate(0,367)" x2="800" y2="0" style="fill: none; stroke: #ddd; stroke-width: 1; opacity: 1;"></line><line transform="translate(0,333)" x2="800" y2="0" style="fill: none; stroke: #ddd; stroke-width: 1; opacity: 1;"></line><line transform="translate(0,300)" x2="800" y2="0" style="fill: none; stroke: #ddd; stroke-width: 1; opacity: 1;"></line><line transform="translate(0,267)" x2="800" y2="0" style="fill: none; stroke: #ddd; stroke-width: 1; opacity: 1;"></line><line transform="translate(0,233)" x2="800" y2="0" style="fill: none; stroke: #ddd; stroke-width: 1; opacity: 1;"></line><line transform="translate(0,200)" x2="800" y2="0" style="fill: none; stroke: #ddd; stroke-width: 1; opacity: 1;"></line><line transform="translate(0,167)" x2="800" y2="0" style="fill: none; stroke: #ddd; stroke-width: 1; opacity: 1;"></line><line transform="translate(0,133)" x2="800" y2="0" style="fill: none; stroke: #ddd; stroke-width: 1; opacity: 1;"></line><line transform="translate(0,100)" x2="800" y2="0" style="fill: none; stroke: #ddd; stroke-width: 1; opacity: 1;"></line><line transform="translate(0,67)" x2="800" y2="0" style="fill: none; stroke: #ddd; stroke-width: 1; opacity: 1;"></line><line transform="translate(0,33)" x2="800" y2="0" style="fill: none; stroke: #ddd; stroke-width: 1; opacity: 1;"></line><line transform="translate(0,0)" x2="800" y2="0" style="fill: none; stroke: #ddd; stroke-width: 1; opacity: 1;"></line></g></g><path class="foreground" d="" style="pointer-events: none; display: none; fill: none;"></path></g></g><g class="mark-group role-axis"><g transform="translate(0.5,600.5)"><path class="background" d="M0,0h0v0h0Z" style="pointer-events: none; fill: none;"></path><g><g class="mark-rule role-axis-tick" style="pointer-events: none;"><line transform="translate(14,0)" x2="0" y2="5" style="fill: none; stroke: #888; stroke-width: 1; opacity: 1;"></line><line transform="translate(44,0)" x2="0" y2="5" style="fill: none; stroke: #888; stroke-width: 1; opacity: 1;"></line><line transform="translate(74,0)" x2="0" y2="5" style="fill: none; stroke: #888; stroke-width: 1; opacity: 1;"></line><line transform="translate(103,0)" x2="0" y2="5" style="fill: none; stroke: #888; stroke-width: 1; opacity: 1;"></line><line transform="translate(133,0)" x2="0" y2="5" style="fill: none; stroke: #888; stroke-width: 1; opacity: 1;"></line><line transform="translate(162,0)" x2="0" y2="5" style="fill: none; stroke: #888; stroke-width: 1; opacity: 1;"></line><line transform="translate(192,0)" x2="0" y2="5" style="fill: none; stroke: #888; stroke-width: 1; opacity: 1;"></line><line transform="translate(222,0)" x2="0" y2="5" style="fill: none; stroke: #888; stroke-width: 1; opacity: 1;"></line><line transform="translate(251,0)" x2="0" y2="5" style="fill: none; stroke: #888; stroke-width: 1; opacity: 1;"></line><line transform="translate(281,0)" x2="0" y2="5" style="fill: none; stroke: #888; stroke-width: 1; opacity: 1;"></line><line transform="translate(311,0)" x2="0" y2="5" style="fill: none; stroke: #888; stroke-width: 1; opacity: 1;"></line><line transform="translate(340,0)" x2="0" y2="5" style="fill: none; stroke: #888; stroke-width: 1; opacity: 1;"></line><line transform="translate(370,0)" x2="0" y2="5" style="fill: none; stroke: #888; stroke-width: 1; opacity: 1;"></line><line transform="translate(400,0)" x2="0" y2="5" style="fill: none; stroke: #888; stroke-width: 1; opacity: 1;"></line><line transform="translate(429,0)" x2="0" y2="5" style="fill: none; stroke: #888; stroke-width: 1; opacity: 1;"></line><line transform="translate(459,0)" x2="0" y2="5" style="fill: none; stroke: #888; stroke-width: 1; opacity: 1;"></line><line transform="translate(488,0)" x2="0" y2="5" style="fill: none; stroke: #888; stroke-width: 1; opacity: 1;"></line><line transform="translate(518,0)" x2="0" y2="5" style="fill: none; stroke: #888; stroke-width: 1; opacity: 1;"></line><line transform="translate(548,0)" x2="0" y2="5" style="fill: none; stroke: #888; stroke-width: 1; opacity: 1;"></line><line transform="translate(577,0)" x2="0" y2="5" style="fill: none; stroke: #888; stroke-width: 1; opacity: 1;"></line><line transform="translate(607,0)" x2="0" y2="5" style="fill: none; stroke: #888; stroke-width: 1; opacity: 1;"></line><line transform="translate(637,0)" x2="0" y2="5" style="fill: none; stroke: #888; stroke-width: 1; opacity: 1;"></line><line transform="translate(666,0)" x2="0" y2="5" style="fill: none; stroke: #888; stroke-width: 1; opacity: 1;"></line><line transform="translate(696,0)" x2="0" y2="5" style="fill: none; stroke: #888; stroke-width: 1; opacity: 1;"></line><line transform="translate(725,0)" x2="0" y2="5" style="fill: none; stroke: #888; stroke-width: 1; opacity: 1;"></line><line transform="translate(755,0)" x2="0" y2="5" style="fill: none; stroke: #888; stroke-width: 1; opacity: 1;"></line><line transform="translate(785,0)" x2="0" y2="5" style="fill: none; stroke: #888; stroke-width: 1; opacity: 1;"></line></g><g class="mark-text role-axis-label" style="pointer-events: none;"><text text-anchor="end" transform="translate(14.314814814814858,7) rotate(270) translate(0,3)" style="font-family: sans-serif; font-size: 10px; fill: #000; opacity: 1;">2021-01</text><text text-anchor="end" transform="translate(43.944444444444485,7) rotate(270) translate(0,3)" style="font-family: sans-serif; font-size: 10px; fill: #000; opacity: 1;">2021-02</text><text text-anchor="end" transform="translate(73.57407407407412,7) rotate(270) translate(0,3)" style="font-family: sans-serif; font-size: 10px; fill: #000; opacity: 1;">2021-03</text><text text-anchor="end" transform="translate(103.20370370370374,7) rotate(270) translate(0,3)" style="font-family: sans-serif; font-size: 10px; fill: #000; opacity: 1;">2021-04</text><text text-anchor="end" transform="translate(132.83333333333337,7) rotate(270) translate(0,3)" style="font-family: sans-serif; font-size: 10px; fill: #000; opacity: 1;">2021-05</text><text text-anchor="end" transform="translate(162.46296296296302,7) rotate(270) translate(0,3)" style="font-family: sans-serif; font-size: 10px; fill: #000; opacity: 1;">2021-06</text><text text-anchor="end" transform="translate(192.09259259259264,7) rotate(270) translate(0,3)" style="font-family: sans-serif; font-size: 10px; fill: #000; opacity: 1;">2021-07</text><text text-anchor="end" transform="translate(221.72222222222229,7) rotate(270) translate(0,3)" style="font-family: sans-serif; font-size: 10px; fill: #000; opacity: 1;">2021-08</text><text text-anchor="end" transform="translate(251.3518518518519,7) rotate(270) translate(0,3)" style="font-family: sans-serif; font-size: 10px; fill: #000; opacity: 1;">2021-09</text><text text-anchor="end" transform="translate(280.9814814814815,7) rotate(270) translate(0,3)" style="font-family: sans-serif; font-size: 10px; fill: #000; opacity: 1;">2021-10</text><text text-anchor="end" transform="translate(310.61111111111114,7) rotate(270) translate(0,3)" style="font-family: sans-serif; font-size: 10px; fill: #000; opacity: 1;">2021-11</text><text text-anchor="end" transform="translate(340.24074074074076,7) rotate(270) translate(0,3)" style="font-family: sans-serif; font-size: 10px; fill: #000; opacity: 1;">2021-12</text><text text-anchor="end" transform="translate(369.8703703703704,7) rotate(270) translate(0,3)" style="font-family: sans-serif; font-size: 10px; fill: #000; opacity: 1;">2022-01</text><text text-anchor="end" transform="translate(399.5,7) rotate(270) translate(0,3)" style="font-family: sans-serif; font-size: 10px; fill: #000; opacity: 1;">2022-02</text><text text-anchor="end" transform="translate(429.1296296296297,7) rotate(270) translate(0,3)" style="font-family: sans-serif; font-size: 10px; fill: #000; opacity: 1;">2022-03</text><text text-anchor="end" transform="translate(458.7592592592593,7) rotate(270) translate(0,3)" style="font-family: sans-serif; font-size: 10px; fill: #000; opacity: 1;">2022-04</text><text text-anchor="end" transform="translate(488.3888888888889,7) rotate(270) translate(0,3)" style="font-family: sans-serif; font-size: 10px; fill: #000; opacity: 1;">2022-05</text><text text-anchor="end" transform="translate(518.0185185185186,7) rotate(270) translate(0,3)" style="font-family: sans-serif; font-size: 10px; fill: #000; opacity: 1;">2022-06</text><text text-anchor="end" transform="translate(547.6481481481483,7) rotate(270) translate(0,3)" style="font-family: sans-serif; font-size: 10px; fill: #000; opacity: 1;">2022-07</text><text text-anchor="end" transform="translate(577.2777777777778,7) rotate(270) translate(0,3)" style="font-family: sans-serif; font-size: 10px; fill: #000; opacity: 1;">2022-08</text><text text-anchor="end" transform="translate(606.9074074074075,7) rotate(270) translate(0,3)" style="font-family: sans-serif; font-size: 10px; fill: #000; opacity: 1;">2022-09</text><text text-anchor="end" transform="translate(636.5370370370371,7) rotate(270) translate(0,3)" style="font-family: sans-serif; font-size: 10px; fill: #000; opacity: 1;">2022-10</text><text text-anchor="end" transform="translate(666.1666666666667,7) rotate(270) translate(0,3)" style="font-family: sans-serif; font-size: 10px; fill: #000; opacity: 1;">2022-11</text><text text-anchor="end" transform="translate(695.7962962962964,7) rotate(270) translate(0,3)" style="font-family: sans-serif; font-size: 10px; fill: #000; opacity: 1;">2022-12</text><text text-anchor="end" transform="translate(725.425925925926,7) rotate(270) translate(0,3)" style="font-family: sans-serif; font-size: 10px; fill: #000; opacity: 1;">2023-01</text><text text-anchor="end" transform="translate(755.0555555555557,7) rotate(270) translate(0,3)" style="font-family: sans-serif; font-size: 10px; fill: #000; opacity: 1;">2023-02</text><text text-anchor="end" transform="translate(784.6851851851852,7) rotate(270) translate(0,3)" style="font-family: sans-serif; font-size: 10px; fill: #000; opacity: 1;">2023-03</text></g><g class="mark-rule role-axis-domain" style="pointer-events: none;"><line transform="translate(0,0)" x2="800" y2="0" style="fill: none; stroke: #888; stroke-width: 1; opacity: 1;"></line></g><g class="mark-text role-axis-title" style="pointer-events: none;"><text text-anchor="middle" transform="translate(400,76)" style="font-family: sans-serif; font-size: 11px; font-weight: bold; fill: #000; opacity: 1;">Date</text></g></g><path class="foreground" d="" style="pointer-events: none; display: none; fill: none;"></path></g></g><g class="mark-group role-axis"><g transform="translate(0.5,0.5)"><path class="background" d="M0,0h0v0h0Z" style="pointer-events: none; fill: none;"></path><g><g class="mark-rule role-axis-tick" style="pointer-events: none;"><line transform="translate(0,600)" x2="-5" y2="0" style="fill: none; stroke: #888; stroke-width: 1; opacity: 1;"></line><line transform="translate(0,567)" x2="-5" y2="0" style="fill: none; stroke: #888; stroke-width: 1; opacity: 1;"></line><line transform="translate(0,533)" x2="-5" y2="0" style="fill: none; stroke: #888; stroke-width: 1; opacity: 1;"></line><line transform="translate(0,500)" x2="-5" y2="0" style="fill: none; stroke: #888; stroke-width: 1; opacity: 1;"></line><line transform="translate(0,467)" x2="-5" y2="0" style="fill: none; stroke: #888; stroke-width: 1; opacity: 1;"></line><line transform="translate(0,433)" x2="-5" y2="0" style="fill: none; stroke: #888; stroke-width: 1; opacity: 1;"></line><line transform="translate(0,400)" x2="-5" y2="0" style="fill: none; stroke: #888; stroke-width: 1; opacity: 1;"></line><line transform="translate(0,367)" x2="-5" y2="0" style="fill: none; stroke: #888; stroke-width: 1; opacity: 1;"></line><line transform="translate(0,333)" x2="-5" y2="0" style="fill: none; stroke: #888; stroke-width: 1; opacity: 1;"></line><line transform="translate(0,300)" x2="-5" y2="0" style="fill: none; stroke: #888; stroke-width: 1; opacity: 1;"></line><line transform="translate(0,267)" x2="-5" y2="0" style="fill: none; stroke: #888; stroke-width: 1; opacity: 1;"></line><line transform="translate(0,233)" x2="-5" y2="0" style="fill: none; stroke: #888; stroke-width: 1; opacity: 1;"></line><line transform="translate(0,200)" x2="-5" y2="0" style="fill: none; stroke: #888; stroke-width: 1; opacity: 1;"></line><line transform="translate(0,167)" x2="-5" y2="0" style="fill: none; stroke: #888; stroke-width: 1; opacity: 1;"></line><line transform="translate(0,133)" x2="-5" y2="0" style="fill: none; stroke: #888; stroke-width: 1; opacity: 1;"></line><line transform="translate(0,100)" x2="-5" y2="0" style="fill: none; stroke: #888; stroke-width: 1; opacity: 1;"></line><line transform="translate(0,67)" x2="-5" y2="0" style="fill: none; stroke: #888; stroke-width: 1; opacity: 1;"></line><line transform="translate(0,33)" x2="-5" y2="0" style="fill: none; stroke: #888; stroke-width: 1; opacity: 1;"></line><line transform="translate(0,0)" x2="-5" y2="0" style="fill: none; stroke: #888; stroke-width: 1; opacity: 1;"></line></g><g class="mark-text role-axis-label" style="pointer-events: none;"><text text-anchor="end" transform="translate(-7,603)" style="font-family: sans-serif; font-size: 10px; fill: #000; opacity: 1;">0</text><text text-anchor="end" transform="translate(-7,569.6666666666666)" style="font-family: sans-serif; font-size: 10px; fill: #000; opacity: 1;">10</text><text text-anchor="end" transform="translate(-7,536.3333333333333)" style="font-family: sans-serif; font-size: 10px; fill: #000; opacity: 1;">20</text><text text-anchor="end" transform="translate(-7,503)" style="font-family: sans-serif; font-size: 10px; fill: #000; opacity: 1;">30</text><text text-anchor="end" transform="translate(-7,469.6666666666667)" style="font-family: sans-serif; font-size: 10px; fill: #000; opacity: 1;">40</text><text text-anchor="end" transform="translate(-7,436.3333333333333)" style="font-family: sans-serif; font-size: 10px; fill: #000; opacity: 1;">50</text><text text-anchor="end" transform="translate(-7,403.00000000000006)" style="font-family: sans-serif; font-size: 10px; fill: #000; opacity: 1;">60</text><text text-anchor="end" transform="translate(-7,369.6666666666667)" style="font-family: sans-serif; font-size: 10px; fill: #000; opacity: 1;">70</text><text text-anchor="end" transform="translate(-7,336.33333333333337)" style="font-family: sans-serif; font-size: 10px; fill: #000; opacity: 1;">80</text><text text-anchor="end" transform="translate(-7,303)" style="font-family: sans-serif; font-size: 10px; fill: #000; opacity: 1;">90</text><text text-anchor="end" transform="translate(-7,269.66666666666663)" style="font-family: sans-serif; font-size: 10px; fill: #000; opacity: 1;">100</text><text text-anchor="end" transform="translate(-7,236.33333333333331)" style="font-family: sans-serif; font-size: 10px; fill: #000; opacity: 1;">110</text><text text-anchor="end" transform="translate(-7,203.00000000000003)" style="font-family: sans-serif; font-size: 10px; fill: #000; opacity: 1;">120</text><text text-anchor="end" transform="translate(-7,169.66666666666669)" style="font-family: sans-serif; font-size: 10px; fill: #000; opacity: 1;">130</text><text text-anchor="end" transform="translate(-7,136.33333333333331)" style="font-family: sans-serif; font-size: 10px; fill: #000; opacity: 1;">140</text><text text-anchor="end" transform="translate(-7,102.99999999999997)" style="font-family: sans-serif; font-size: 10px; fill: #000; opacity: 1;">150</text><text text-anchor="end" transform="translate(-7,69.6666666666667)" style="font-family: sans-serif; font-size: 10px; fill: #000; opacity: 1;">160</text><text text-anchor="end" transform="translate(-7,36.33333333333335)" style="font-family: sans-serif; font-size: 10px; fill: #000; opacity: 1;">170</text><text text-anchor="end" transform="translate(-7,3)" style="font-family: sans-serif; font-size: 10px; fill: #000; opacity: 1;">180</text></g><g class="mark-rule role-axis-domain" style="pointer-events: none;"><line transform="translate(0,600)" x2="0" y2="-600" style="fill: none; stroke: #888; stroke-width: 1; opacity: 1;"></line></g><g class="mark-text role-axis-title" style="pointer-events: none;"><text text-anchor="middle" transform="translate(-35,300) rotate(-90) translate(0,-2)" style="font-family: sans-serif; font-size: 11px; font-weight: bold; fill: #000; opacity: 1;">Sum of Hours</text></g></g><path class="foreground" d="" style="pointer-events: none; display: none; fill: none;"></path></g></g><g class="mark-rect role-mark marks"><path d="M1.4814814814815236,243.33333333333334h26.666666666666668v10.000000000000028h-26.666666666666668Z" style="fill: #f58518;"></path><path d="M1.4814814814815236,171.66666666666666h26.666666666666668v71.66666666666669h-26.666666666666668Z" style="fill: #4c78a8;"></path><path d="M1.4814814814815236,253.33333333333337h26.666666666666668v198.33333333333331h-26.666666666666668Z" style="fill: #e45756;"></path><path d="M1.4814814814815236,503.33333333333337h26.666666666666668v70h-26.666666666666668Z" style="fill: #54a24b;"></path><path d="M1.4814814814815236,451.6666666666667h26.666666666666668v51.666666666666686h-26.666666666666668Z" style="fill: #72b7b2;"></path><path d="M1.4814814814815236,573.3333333333334h26.666666666666668v26.66666666666663h-26.666666666666668Z" style="fill: #b279a2;"></path><path d="M31.111111111111153,338.3333333333333h26.666666666666668v63.33333333333337h-26.666666666666668Z" style="fill: #e45756;"></path><path d="M31.111111111111153,448.3333333333333h26.666666666666668v125.00000000000006h-26.666666666666668Z" style="fill: #54a24b;"></path><path d="M31.111111111111153,245h26.666666666666668v93.33333333333331h-26.666666666666668Z" style="fill: #4c78a8;"></path><path d="M31.111111111111153,401.6666666666667h26.666666666666668v46.66666666666663h-26.666666666666668Z" style="fill: #72b7b2;"></path><path d="M31.111111111111153,573.3333333333334h26.666666666666668v26.66666666666663h-26.666666666666668Z" style="fill: #b279a2;"></path><path d="M60.74074074074078,253.33333333333337h26.666666666666668v41.66666666666663h-26.666666666666668Z" style="fill: #e45756;"></path><path d="M60.74074074074078,398.3333333333333h26.666666666666668v178.33333333333331h-26.666666666666668Z" style="fill: #54a24b;"></path><path d="M60.74074074074078,163.33333333333334h26.666666666666668v90.00000000000003h-26.666666666666668Z" style="fill: #4c78a8;"></path><path d="M60.74074074074078,295h26.666666666666668v103.33333333333331h-26.666666666666668Z" style="fill: #72b7b2;"></path><path d="M60.74074074074078,576.6666666666666h26.666666666666668v23.33333333333337h-26.666666666666668Z" style="fill: #eeca3b;"></path><path d="M90.37037037037041,248.33333333333331h26.666666666666668v13.333333333333371h-26.666666666666668Z" style="fill: #f58518;"></path><path d="M90.37037037037041,438.33333333333337h26.666666666666668v116.66666666666663h-26.666666666666668Z" style="fill: #54a24b;"></path><path d="M90.37037037037041,320h26.666666666666668v118.33333333333337h-26.666666666666668Z" style="fill: #72b7b2;"></path><path d="M90.37037037037041,555h26.666666666666668v18.33333333333337h-26.666666666666668Z" style="fill: #eeca3b;"></path><path d="M90.37037037037041,261.6666666666667h26.666666666666668v58.333333333333314h-26.666666666666668Z" style="fill: #e45756;"></path><path d="M90.37037037037041,170h26.666666666666668v78.33333333333331h-26.666666666666668Z" style="fill: #4c78a8;"></path><path d="M90.37037037037041,573.3333333333334h26.666666666666668v26.66666666666663h-26.666666666666668Z" style="fill: #b279a2;"></path><path d="M120.00000000000004,450h26.666666666666668v125h-26.666666666666668Z" style="fill: #54a24b;"></path><path d="M120.00000000000004,260h26.666666666666668v63.333333333333314h-26.666666666666668Z" style="fill: #e45756;"></path><path d="M120.00000000000004,323.3333333333333h26.666666666666668v126.66666666666669h-26.666666666666668Z" style="fill: #72b7b2;"></path><path d="M120.00000000000004,151.66666666666666h26.666666666666668v108.33333333333334h-26.666666666666668Z" style="fill: #4c78a8;"></path><path d="M120.00000000000004,575h26.666666666666668v25h-26.666666666666668Z" style="fill: #eeca3b;"></path><path d="M149.62962962962968,411.6666666666667h26.666666666666668v81.66666666666663h-26.666666666666668Z" style="fill: #54a24b;"></path><path d="M149.62962962962968,493.3333333333333h26.666666666666668v80.00000000000006h-26.666666666666668Z" style="fill: #eeca3b;"></path><path d="M149.62962962962968,241.66666666666669h26.666666666666668v61.66666666666663h-26.666666666666668Z" style="fill: #e45756;"></path><path d="M149.62962962962968,0h26.666666666666668v241.66666666666669h-26.666666666666668Z" style="fill: #4c78a8;"></path><path d="M149.62962962962968,303.3333333333333h26.666666666666668v108.33333333333337h-26.666666666666668Z" style="fill: #72b7b2;"></path><path d="M149.62962962962968,573.3333333333334h26.666666666666668v26.66666666666663h-26.666666666666668Z" style="fill: #b279a2;"></path><path d="M179.2592592592593,488.3333333333333h26.666666666666668v53.333333333333314h-26.666666666666668Z" style="fill: #54a24b;"></path><path d="M179.2592592592593,131.66666666666666h26.666666666666668v138.33333333333334h-26.666666666666668Z" style="fill: #4c78a8;"></path><path d="M179.2592592592593,391.6666666666667h26.666666666666668v96.66666666666663h-26.666666666666668Z" style="fill: #72b7b2;"></path><path d="M179.2592592592593,573.3333333333334h26.666666666666668v26.66666666666663h-26.666666666666668Z" style="fill: #b279a2;"></path><path d="M179.2592592592593,280h26.666666666666668v111.66666666666669h-26.666666666666668Z" style="fill: #e45756;"></path><path d="M179.2592592592593,270h26.666666666666668v10h-26.666666666666668Z" style="fill: #f58518;"></path><path d="M179.2592592592593,541.6666666666666h26.666666666666668v31.666666666666742h-26.666666666666668Z" style="fill: #eeca3b;"></path><path d="M208.88888888888894,79.99999999999999h26.666666666666668v48.33333333333336h-26.666666666666668Z" style="fill: #4c78a8;"></path><path d="M208.88888888888894,445h26.666666666666668v150h-26.666666666666668Z" style="fill: #54a24b;"></path><path d="M208.88888888888894,135h26.666666666666668v196.66666666666669h-26.666666666666668Z" style="fill: #e45756;"></path><path d="M208.88888888888894,331.6666666666667h26.666666666666668v113.33333333333331h-26.666666666666668Z" style="fill: #72b7b2;"></path><path d="M208.88888888888894,595h26.666666666666668v5h-26.666666666666668Z" style="fill: #eeca3b;"></path><path d="M208.88888888888894,128.33333333333334h26.666666666666668v6.666666666666657h-26.666666666666668Z" style="fill: #f58518;"></path><path d="M238.51851851851856,566.6666666666666h26.666666666666668v6.6666666666667425h-26.666666666666668Z" style="fill: #eeca3b;"></path><path d="M238.51851851851856,175.83333333333331h26.666666666666668v26.666666666666686h-26.666666666666668Z" style="fill: #f58518;"></path><path d="M238.51851851851856,483.33333333333337h26.666666666666668v83.33333333333326h-26.666666666666668Z" style="fill: #54a24b;"></path><path d="M238.51851851851856,333.33333333333337h26.666666666666668v150h-26.666666666666668Z" style="fill: #72b7b2;"></path><path d="M238.51851851851856,202.5h26.666666666666668v130.83333333333337h-26.666666666666668Z" style="fill: #e45756;"></path><path d="M238.51851851851856,85.83333333333336h26.666666666666668v89.99999999999996h-26.666666666666668Z" style="fill: #4c78a8;"></path><path d="M238.51851851851856,573.3333333333334h26.666666666666668v26.66666666666663h-26.666666666666668Z" style="fill: #b279a2;"></path><path d="M268.1481481481482,238.33333333333334h26.666666666666668v40.00000000000003h-26.666666666666668Z" style="fill: #4c78a8;"></path><path d="M268.1481481481482,293.33333333333337h26.666666666666668v79.99999999999994h-26.666666666666668Z" style="fill: #e45756;"></path><path d="M268.1481481481482,373.3333333333333h26.666666666666668v66.66666666666674h-26.666666666666668Z" style="fill: #72b7b2;"></path><path d="M268.1481481481482,278.33333333333337h26.666666666666668v15h-26.666666666666668Z" style="fill: #f58518;"></path><path d="M268.1481481481482,440.00000000000006h26.666666666666668v159.99999999999994h-26.666666666666668Z" style="fill: #54a24b;"></path><path d="M297.7777777777778,289.99999999999994h26.666666666666668v193.33333333333343h-26.666666666666668Z" style="fill: #54a24b;"></path><path d="M297.7777777777778,91.66666666666667h26.666666666666668v24.999999999999986h-26.666666666666668Z" style="fill: #f58518;"></path><path d="M297.7777777777778,200.00000000000003h26.666666666666668v89.99999999999991h-26.666666666666668Z" style="fill: #72b7b2;"></path><path d="M297.7777777777778,64.99999999999997h26.666666666666668v26.6666666666667h-26.666666666666668Z" style="fill: #4c78a8;"></path><path d="M297.7777777777778,116.66666666666666h26.666666666666668v83.33333333333337h-26.666666666666668Z" style="fill: #e45756;"></path><path d="M297.7777777777778,483.33333333333337h26.666666666666668v9.999999999999943h-26.666666666666668Z" style="fill: #eeca3b;"></path><path d="M297.7777777777778,493.3333333333333h26.666666666666668v106.66666666666669h-26.666666666666668Z" style="fill: #b279a2;"></path><path d="M327.40740740740745,98.33333333333331h26.666666666666668v115h-26.666666666666668Z" style="fill: #72b7b2;"></path><path d="M327.40740740740745,213.33333333333331h26.666666666666668v173.33333333333331h-26.666666666666668Z" style="fill: #54a24b;"></path><path d="M327.40740740740745,23.333333333333318h26.666666666666668v13.333333333333353h-26.666666666666668Z" style="fill: #4c78a8;"></path><path d="M327.40740740740745,76.66666666666666h26.666666666666668v21.666666666666657h-26.666666666666668Z" style="fill: #e45756;"></path><path d="M327.40740740740745,36.66666666666667h26.666666666666668v39.999999999999986h-26.666666666666668Z" style="fill: #f58518;"></path><path d="M327.40740740740745,386.66666666666663h26.666666666666668v213.33333333333337h-26.666666666666668Z" style="fill: #b279a2;"></path><path d="M357.03703703703707,193.33333333333331h26.666666666666668v11.666666666666686h-26.666666666666668Z" style="fill: #f58518;"></path><path d="M357.03703703703707,258.33333333333337h26.666666666666668v56.66666666666663h-26.666666666666668Z" style="fill: #72b7b2;"></path><path d="M357.03703703703707,315h26.666666666666668v233.33333333333337h-26.666666666666668Z" style="fill: #54a24b;"></path><path d="M357.03703703703707,205h26.666666666666668v53.33333333333337h-26.666666666666668Z" style="fill: #e45756;"></path><path d="M357.03703703703707,548.3333333333334h26.666666666666668v25h-26.666666666666668Z" style="fill: #eeca3b;"></path><path d="M357.03703703703707,183.33333333333334h26.666666666666668v9.999999999999972h-26.666666666666668Z" style="fill: #4c78a8;"></path><path d="M357.03703703703707,573.3333333333334h26.666666666666668v26.66666666666663h-26.666666666666668Z" style="fill: #b279a2;"></path><path d="M386.6666666666667,510h26.666666666666668v41.66666666666663h-26.666666666666668Z" style="fill: #54a24b;"></path><path d="M386.6666666666667,160.00000000000003h26.666666666666668v76.66666666666666h-26.666666666666668Z" style="fill: #4c78a8;"></path><path d="M386.6666666666667,383.3333333333333h26.666666666666668v126.66666666666669h-26.666666666666668Z" style="fill: #72b7b2;"></path><path d="M386.6666666666667,276.6666666666667h26.666666666666668v106.66666666666663h-26.666666666666668Z" style="fill: #e45756;"></path><path d="M386.6666666666667,236.66666666666669h26.666666666666668v40h-26.666666666666668Z" style="fill: #f58518;"></path><path d="M386.6666666666667,551.6666666666666h26.666666666666668v21.666666666666742h-26.666666666666668Z" style="fill: #eeca3b;"></path><path d="M386.6666666666667,573.3333333333334h26.666666666666668v26.66666666666663h-26.666666666666668Z" style="fill: #b279a2;"></path><path d="M416.29629629629636,214.99999999999997h26.666666666666668v150.00000000000009h-26.666666666666668Z" style="fill: #e45756;"></path><path d="M416.29629629629636,365.00000000000006h26.666666666666668v144.99999999999994h-26.666666666666668Z" style="fill: #72b7b2;"></path><path d="M416.29629629629636,205h26.666666666666668v9.999999999999972h-26.666666666666668Z" style="fill: #f58518;"></path><path d="M416.29629629629636,101.66666666666664h26.666666666666668v103.33333333333336h-26.666666666666668Z" style="fill: #4c78a8;"></path><path d="M416.29629629629636,510h26.666666666666668v65h-26.666666666666668Z" style="fill: #54a24b;"></path><path d="M416.29629629629636,575h26.666666666666668v25h-26.666666666666668Z" style="fill: #eeca3b;"></path><path d="M445.925925925926,311.66666666666663h26.666666666666668v155.00000000000006h-26.666666666666668Z" style="fill: #e45756;"></path><path d="M445.925925925926,500h26.666666666666668v70h-26.666666666666668Z" style="fill: #54a24b;"></path><path d="M445.925925925926,570h26.666666666666668v3.3333333333333712h-26.666666666666668Z" style="fill: #eeca3b;"></path><path d="M445.925925925926,466.6666666666667h26.666666666666668v33.333333333333314h-26.666666666666668Z" style="fill: #72b7b2;"></path><path d="M445.925925925926,573.3333333333334h26.666666666666668v26.66666666666663h-26.666666666666668Z" style="fill: #b279a2;"></path><path d="M445.925925925926,278.33333333333337h26.666666666666668v33.33333333333326h-26.666666666666668Z" style="fill: #f58518;"></path><path d="M445.925925925926,270h26.666666666666668v8.333333333333371h-26.666666666666668Z" style="fill: #4c78a8;"></path><path d="M475.5555555555556,298.3333333333333h26.666666666666668v8.333333333333314h-26.666666666666668Z" style="fill: #f58518;"></path><path d="M475.5555555555556,483.33333333333337h26.666666666666668v88.33333333333326h-26.666666666666668Z" style="fill: #54a24b;"></path><path d="M475.5555555555556,420h26.666666666666668v63.33333333333337h-26.666666666666668Z" style="fill: #72b7b2;"></path><path d="M475.5555555555556,306.66666666666663h26.666666666666668v113.33333333333337h-26.666666666666668Z" style="fill: #e45756;"></path><path d="M475.5555555555556,285h26.666666666666668v13.333333333333314h-26.666666666666668Z" style="fill: #4c78a8;"></path><path d="M475.5555555555556,571.6666666666666h26.666666666666668v1.6666666666667425h-26.666666666666668Z" style="fill: #eeca3b;"></path><path d="M475.5555555555556,573.3333333333334h26.666666666666668v26.66666666666663h-26.666666666666668Z" style="fill: #b279a2;"></path><path d="M505.1851851851852,164.16666666666669h26.666666666666668v23.333333333333314h-26.666666666666668Z" style="fill: #f58518;"></path><path d="M505.1851851851852,187.5h26.666666666666668v230.83333333333331h-26.666666666666668Z" style="fill: #e45756;"></path><path d="M505.1851851851852,418.3333333333333h26.666666666666668v93.33333333333331h-26.666666666666668Z" style="fill: #72b7b2;"></path><path d="M505.1851851851852,511.66666666666663h26.666666666666668v61.66666666666674h-26.666666666666668Z" style="fill: #54a24b;"></path><path d="M505.1851851851852,125.00000000000003h26.666666666666668v39.16666666666666h-26.666666666666668Z" style="fill: #4c78a8;"></path><path d="M505.1851851851852,573.3333333333334h26.666666666666668v26.66666666666663h-26.666666666666668Z" style="fill: #b279a2;"></path><path d="M534.8148148148149,558.3333333333334h26.666666666666668v15h-26.666666666666668Z" style="fill: #54a24b;"></path><path d="M534.8148148148149,573.3333333333334h26.666666666666668v26.66666666666663h-26.666666666666668Z" style="fill: #b279a2;"></path><path d="M534.8148148148149,316.6666666666667h26.666666666666668v186.66666666666669h-26.666666666666668Z" style="fill: #e45756;"></path><path d="M534.8148148148149,503.33333333333337h26.666666666666668v55h-26.666666666666668Z" style="fill: #72b7b2;"></path><path d="M534.8148148148149,283.3333333333333h26.666666666666668v33.33333333333337h-26.666666666666668Z" style="fill: #f58518;"></path><path d="M534.8148148148149,280h26.666666666666668v3.3333333333333144h-26.666666666666668Z" style="fill: #4c78a8;"></path><path d="M564.4444444444445,241.66666666666669h26.666666666666668v50h-26.666666666666668Z" style="fill: #f58518;"></path><path d="M564.4444444444445,420h26.666666666666668v128.33333333333337h-26.666666666666668Z" style="fill: #72b7b2;"></path><path d="M564.4444444444445,291.6666666666667h26.666666666666668v128.33333333333331h-26.666666666666668Z" style="fill: #e45756;"></path><path d="M564.4444444444445,563.3333333333334h26.666666666666668v36.66666666666663h-26.666666666666668Z" style="fill: #eeca3b;"></path><path d="M564.4444444444445,235.00000000000003h26.666666666666668v6.666666666666657h-26.666666666666668Z" style="fill: #4c78a8;"></path><path d="M564.4444444444445,548.3333333333334h26.666666666666668v15h-26.666666666666668Z" style="fill: #54a24b;"></path><path d="M594.0740740740741,271.66666666666663h26.666666666666668v183.33333333333337h-26.666666666666668Z" style="fill: #e45756;"></path><path d="M594.0740740740741,573.3333333333334h26.666666666666668v26.66666666666663h-26.666666666666668Z" style="fill: #b279a2;"></path><path d="M594.0740740740741,540h26.666666666666668v33.33333333333337h-26.666666666666668Z" style="fill: #54a24b;"></path><path d="M594.0740740740741,455h26.666666666666668v85h-26.666666666666668Z" style="fill: #72b7b2;"></path><path d="M594.0740740740741,245h26.666666666666668v13.333333333333371h-26.666666666666668Z" style="fill: #4c78a8;"></path><path d="M594.0740740740741,258.33333333333337h26.666666666666668v13.333333333333258h-26.666666666666668Z" style="fill: #f58518;"></path><path d="M623.7037037037037,260h26.666666666666668v16.666666666666686h-26.666666666666668Z" style="fill: #4c78a8;"></path><path d="M623.7037037037037,493.3333333333333h26.666666666666668v78.33333333333331h-26.666666666666668Z" style="fill: #72b7b2;"></path><path d="M623.7037037037037,585h26.666666666666668v15h-26.666666666666668Z" style="fill: #eeca3b;"></path><path d="M623.7037037037037,296.6666666666667h26.666666666666668v196.66666666666663h-26.666666666666668Z" style="fill: #e45756;"></path><path d="M623.7037037037037,571.6666666666666h26.666666666666668v13.333333333333371h-26.666666666666668Z" style="fill: #54a24b;"></path><path d="M623.7037037037037,276.6666666666667h26.666666666666668v20h-26.666666666666668Z" style="fill: #f58518;"></path><path d="M653.3333333333334,210h26.666666666666668v211.66666666666663h-26.666666666666668Z" style="fill: #e45756;"></path><path d="M653.3333333333334,200.00000000000003h26.666666666666668v9.999999999999972h-26.666666666666668Z" style="fill: #f58518;"></path><path d="M653.3333333333334,181.66666666666669h26.666666666666668v18.333333333333343h-26.666666666666668Z" style="fill: #4c78a8;"></path><path d="M653.3333333333334,421.66666666666663h26.666666666666668v66.66666666666669h-26.666666666666668Z" style="fill: #72b7b2;"></path><path d="M653.3333333333334,488.3333333333333h26.666666666666668v5h-26.666666666666668Z" style="fill: #54a24b;"></path><path d="M653.3333333333334,493.3333333333333h26.666666666666668v106.66666666666669h-26.666666666666668Z" style="fill: #b279a2;"></path><path d="M682.962962962963,388.33333333333326h26.666666666666668v146.66666666666674h-26.666666666666668Z" style="fill: #72b7b2;"></path><path d="M682.962962962963,320h26.666666666666668v68.33333333333326h-26.666666666666668Z" style="fill: #e45756;"></path><path d="M682.962962962963,535h26.666666666666668v11.666666666666629h-26.666666666666668Z" style="fill: #54a24b;"></path><path d="M682.962962962963,546.6666666666666h26.666666666666668v53.33333333333337h-26.666666666666668Z" style="fill: #b279a2;"></path><path d="M712.5925925925926,553.3333333333334h26.666666666666668v46.66666666666663h-26.666666666666668Z" style="fill: #b279a2;"></path><path d="M712.5925925925926,416.66666666666663h26.666666666666668v100.00000000000011h-26.666666666666668Z" style="fill: #72b7b2;"></path><path d="M712.5925925925926,223.33333333333334h26.666666666666668v18.333333333333343h-26.666666666666668Z" style="fill: #f58518;"></path><path d="M712.5925925925926,241.66666666666669h26.666666666666668v174.99999999999994h-26.666666666666668Z" style="fill: #e45756;"></path><path d="M712.5925925925926,540h26.666666666666668v13.333333333333371h-26.666666666666668Z" style="fill: #eeca3b;"></path><path d="M712.5925925925926,516.6666666666667h26.666666666666668v23.333333333333258h-26.666666666666668Z" style="fill: #54a24b;"></path><path d="M742.2222222222223,311.66666666666663h26.666666666666668v145h-26.666666666666668Z" style="fill: #e45756;"></path><path d="M742.2222222222223,456.66666666666663h26.666666666666668v108.33333333333337h-26.666666666666668Z" style="fill: #72b7b2;"></path><path d="M742.2222222222223,281.6666666666667h26.666666666666668v3.3333333333333144h-26.666666666666668Z" style="fill: #4c78a8;"></path><path d="M742.2222222222223,578.3333333333334h26.666666666666668v5h-26.666666666666668Z" style="fill: #eeca3b;"></path><path d="M742.2222222222223,285h26.666666666666668v26.66666666666663h-26.666666666666668Z" style="fill: #f58518;"></path><path d="M742.2222222222223,565h26.666666666666668v13.333333333333371h-26.666666666666668Z" style="fill: #54a24b;"></path><path d="M742.2222222222223,583.3333333333334h26.666666666666668v16.66666666666663h-26.666666666666668Z" style="fill: #b279a2;"></path><path d="M771.8518518518518,444.1666666666667h26.666666666666668v120.83333333333331h-26.666666666666668Z" style="fill: #72b7b2;"></path><path d="M771.8518518518518,324.16666666666674h26.666666666666668v119.99999999999994h-26.666666666666668Z" style="fill: #e45756;"></path><path d="M771.8518518518518,566.6666666666666h26.666666666666668v33.33333333333337h-26.666666666666668Z" style="fill: #eeca3b;"></path><path d="M771.8518518518518,296.6666666666667h26.666666666666668v27.500000000000057h-26.666666666666668Z" style="fill: #f58518;"></path><path d="M771.8518518518518,565h26.666666666666668v1.6666666666666288h-26.666666666666668Z" style="fill: #54a24b;"></path><path d="M771.8518518518518,295h26.666666666666668v1.6666666666666856h-26.666666666666668Z" style="fill: #4c78a8;"></path></g><g class="mark-group role-legend"><g transform="translate(818,0)"><path class="background" d="M0,0h112v105h-112Z" style="pointer-events: none; fill: none;"></path><g><g class="mark-group role-legend-entry"><g transform="translate(0,16)"><path class="background" d="M0,0h0v0h0Z" style="pointer-events: none; fill: none;"></path><g><g class="mark-group role-scope"><g transform="translate(0,0)"><path class="background" d="M0,0h112v11h-112Z" style="pointer-events: none; fill: none; opacity: 1;"></path><g><g class="mark-symbol role-legend-symbol" style="pointer-events: none;"><path transform="translate(6,6)" d="M-5,-5h10v10h-10Z" style="fill: #4c78a8; stroke-width: 1.5; opacity: 1;"></path></g><g class="mark-text role-legend-label" style="pointer-events: none;"><text text-anchor="start" transform="translate(16,9)" style="font-family: sans-serif; font-size: 10px; fill: #000; opacity: 1;">APOLLO</text></g></g><path class="foreground" d="" style="pointer-events: none; display: none; fill: none;"></path></g><g transform="translate(0,13)"><path class="background" d="M0,0h112v11h-112Z" style="pointer-events: none; fill: none; opacity: 1;"></path><g><g class="mark-symbol role-legend-symbol" style="pointer-events: none;"><path transform="translate(6,6)" d="M-5,-5h10v10h-10Z" style="fill: #f58518; stroke-width: 1.5; opacity: 1;"></path></g><g class="mark-text role-legend-label" style="pointer-events: none;"><text text-anchor="start" transform="translate(16,9)" style="font-family: sans-serif; font-size: 10px; fill: #000; opacity: 1;">EDF</text></g></g><path class="foreground" d="" style="pointer-events: none; display: none; fill: none;"></path></g><g transform="translate(0,26)"><path class="background" d="M0,0h112v11h-112Z" style="pointer-events: none; fill: none; opacity: 1;"></path><g><g class="mark-symbol role-legend-symbol" style="pointer-events: none;"><path transform="translate(6,6)" d="M-5,-5h10v10h-10Z" style="fill: #e45756; stroke-width: 1.5; opacity: 1;"></path></g><g class="mark-text role-legend-label" style="pointer-events: none;"><text text-anchor="start" transform="translate(16,9)" style="font-family: sans-serif; font-size: 10px; fill: #000; opacity: 1;">ETL</text></g></g><path class="foreground" d="" style="pointer-events: none; display: none; fill: none;"></path></g><g transform="translate(0,39)"><path class="background" d="M0,0h112v11h-112Z" style="pointer-events: none; fill: none; opacity: 1;"></path><g><g class="mark-symbol role-legend-symbol" style="pointer-events: none;"><path transform="translate(6,6)" d="M-5,-5h10v10h-10Z" style="fill: #72b7b2; stroke-width: 1.5; opacity: 1;"></path></g><g class="mark-text role-legend-label" style="pointer-events: none;"><text text-anchor="start" transform="translate(16,9)" style="font-family: sans-serif; font-size: 10px; fill: #000; opacity: 1;">GEM</text></g></g><path class="foreground" d="" style="pointer-events: none; display: none; fill: none;"></path></g><g transform="translate(0,52)"><path class="background" d="M0,0h112v11h-112Z" style="pointer-events: none; fill: none; opacity: 1;"></path><g><g class="mark-symbol role-legend-symbol" style="pointer-events: none;"><path transform="translate(6,6)" d="M-5,-5h10v10h-10Z" style="fill: #54a24b; stroke-width: 1.5; opacity: 1;"></path></g><g class="mark-text role-legend-label" style="pointer-events: none;"><text text-anchor="start" transform="translate(16,9)" style="font-family: sans-serif; font-size: 10px; fill: #000; opacity: 1;">L0MDT</text></g></g><path class="foreground" d="" style="pointer-events: none; display: none; fill: none;"></path></g><g transform="translate(0,65)"><path class="background" d="M0,0h112v11h-112Z" style="pointer-events: none; fill: none; opacity: 1;"></path><g><g class="mark-symbol role-legend-symbol" style="pointer-events: none;"><path transform="translate(6,6)" d="M-5,-5h10v10h-10Z" style="fill: #eeca3b; stroke-width: 1.5; opacity: 1;"></path></g><g class="mark-text role-legend-label" style="pointer-events: none;"><text text-anchor="start" transform="translate(16,9)" style="font-family: sans-serif; font-size: 10px; fill: #000; opacity: 1;">OTHER PRJ</text></g></g><path class="foreground" d="" style="pointer-events: none; display: none; fill: none;"></path></g><g transform="translate(0,78)"><path class="background" d="M0,0h112v11h-112Z" style="pointer-events: none; fill: none; opacity: 1;"></path><g><g class="mark-symbol role-legend-symbol" style="pointer-events: none;"><path transform="translate(6,6)" d="M-5,-5h10v10h-10Z" style="fill: #b279a2; stroke-width: 1.5; opacity: 1;"></path></g><g class="mark-text role-legend-label" style="pointer-events: none;"><text text-anchor="start" transform="translate(16,9)" style="font-family: sans-serif; font-size: 10px; fill: #000; opacity: 1;">VAC/SICK/HOL</text></g></g><path class="foreground" d="" style="pointer-events: none; display: none; fill: none;"></path></g></g></g><path class="foreground" d="" style="pointer-events: none; display: none; fill: none;"></path></g></g><g class="mark-text role-legend-title" style="pointer-events: none;"><text text-anchor="start" transform="translate(0,9)" style="font-family: sans-serif; font-size: 11px; font-weight: bold; fill: #000; opacity: 1;">Project</text></g></g><path class="foreground" d="" style="pointer-events: none; display: none; fill: none;"></path></g></g></g><path class="foreground" d="" style="display: none; fill: none;"></path></g></g></g></svg>