<svg class="marks" width="986" height="693" viewBox="0 0 986 693" version="1.1" xmlns="http://www.w3.org/2000/svg" xmlns:xlink="http://www.w3.org/1999/xlink"><rect width="986" height="693" style="fill: white;"></rect><g transform="translate(51,10)"><g class="mark-group role-frame root"><g transform="translate(0,0)"><path class="background" d="M0.5,0.5h800v600h-800Z" style="fill: none; stroke: #ddd;"></path><g><g class="mark-group role-axis"><g transform="translate(0.5,0.5)"><path class="background" d="M0,0h0v0h0Z" style="pointer-events: none; fill: none;"></path><g><g class="mark-rule role-axis-grid" style="pointer-events: none;"><line transform="translate(0,600)" x2="800" y2="0" style="fill: none; stroke: #ddd; stroke-width: 1; opacity: 1;"></line><line transform="translate(0,570)" x2="800" y2="0" style="fill: none; stroke: #ddd; stroke-width: 1; opacity: 1;"></line><line transform="translate(0,540)" x2="800" y2="0" style="fill: none; stroke: #ddd; stroke-width: 1; opacity: 1;"></line><line transform="translate(0,510)" x2="800" y2="0" style="fill: none; stroke: #ddd; stroke-width: 1; opacity: 1;"></line><line transform="translate(0,480)" x2="800" y2="0" style="fill: none; stroke: #ddd; stroke-width: 1; opacity: 1;"></line><line transform="translate(0,450)" x2="800" y2="0" style="fill: none; stroke: #ddd; stroke-width: 1; opacity: 1;"></line><line transform="translate(0,420)" x2="800" y2="0" style="fill: none; stroke: #ddd; stroke-width: 1; opacity: 1;"></line><line transform="translate(0,390)" x2="800" y2="0" style="fill: none; stroke: #ddd; stroke-width: 1; opacity: 1;"></line><line transform="translate(0,360)" x2="800" y2="0" style="fill: none; stroke: #ddd; stroke-width: 1; opacity: 1;"></line><line transform="translate(0,330)" x2="800" y2="0" style="fill: none; stroke: #ddd; stroke-width: 1; opacity: 1;"></line><line transform="translate(0,300)" x2="800" y2="0" style="fill: none; stroke: #ddd; stroke-width: 1; opacity: 1;"></line><line transform="translate(0,270)" x2="800" y2="0" style="fill: none; stroke: #ddd; stroke-width: 1; opacity: 1;"></line><line transform="translate(0,240)" x2="800" y2="0" style="fill: none; stroke: #ddd; stroke-width: 1; opacity: 1;"></line><line transform="translate(0,210)" x2="800" y2="0" style="fill: none; stroke: #ddd; stroke-width: 1; opacity: 1;"></line><line transform="translate(0,180)" x2="800" y2="0" style="fill: none; stroke: #ddd; stroke-width: 1; opacity: 1;"></line><line transform="translate(0,150)" x2="800" y2="0" style="fill: none; stroke: #ddd; stroke-width: 1; opacity: 1;"></line><line transform="translate(0,120)" x2="800" y2="0" style="fill: none; stroke: #ddd; stroke-width: 1; opacity: 1;"></line><line transform="translate(0,90)" x2="800" y2="0" style="fill: none; stroke: #ddd; stroke-width: 1; opacity: 1;"></line><line transform="translate(0,60)" x2="800" y2="0" style="fill: none; stroke: #ddd; stroke-width: 1; opacity: 1;"></line><line transform="translate(0,30)" x2="800" y2="0" style="fill: none; stroke: #ddd; stroke-width: 1; opacity: 1;"></line><line transform="translate(0,0)" x2="800" y2="0" style="fill: none; stroke: #ddd; stroke-width: 1; opacity: 1;"></line></g></g><path class="foreground" d="" style="pointer-events: none; display: none; fill: none;"></path></g></g><g class="mark-group role-axis"><g transform="translate(0.5,600.5)"><path class="background" d="M0,0h0v0h0Z" style="pointer-events: none; fill: none;"></path><g><g class="mark-rule role-axis-tick" style="pointer-events: none;"><line transform="translate(16,0)" x2="0" y2="5" style="fill: none; stroke: #888; stroke-width: 1; opacity: 1;"></line><line transform="translate(48,0)" x2="0" y2="5" style="fill: none; stroke: #888; stroke-width: 1; opacity: 1;"></line><line transform="translate(80,0)" x2="0" y2="5" style="fill: none; stroke: #888; stroke-width: 1; opacity: 1;"></line><line transform="translate(112,0)" x2="0" y2="5" style="fill: none; stroke: #888; stroke-width: 1; opacity: 1;"></line><line transform="translate(144,0)" x2="0" y2="5" style="fill: none; stroke: #888; stroke-width: 1; opacity: 1;"></line><line transform="translate(176,0)" x2="0" y2="5" style="fill: none; stroke: #888; stroke-width: 1; opacity: 1;"></line><line transform="translate(208,0)" x2="0" y2="5" style="fill: none; stroke: #888; stroke-width: 1; opacity: 1;"></line><line transform="translate(240,0)" x2="0" y2="5" style="fill: none; stroke: #888; stroke-width: 1; opacity: 1;"></line><line transform="translate(272,0)" x2="0" y2="5" style="fill: none; stroke: #888; stroke-width: 1; opacity: 1;"></line><line transform="translate(304,0)" x2="0" y2="5" style="fill: none; stroke: #888; stroke-width: 1; opacity: 1;"></line><line transform="translate(336,0)" x2="0" y2="5" style="fill: none; stroke: #888; stroke-width: 1; opacity: 1;"></line><line transform="translate(368,0)" x2="0" y2="5" style="fill: none; stroke: #888; stroke-width: 1; opacity: 1;"></line><line transform="translate(400,0)" x2="0" y2="5" style="fill: none; stroke: #888; stroke-width: 1; opacity: 1;"></line><line transform="translate(432,0)" x2="0" y2="5" style="fill: none; stroke: #888; stroke-width: 1; opacity: 1;"></line><line transform="translate(464,0)" x2="0" y2="5" style="fill: none; stroke: #888; stroke-width: 1; opacity: 1;"></line><line transform="translate(496,0)" x2="0" y2="5" style="fill: none; stroke: #888; stroke-width: 1; opacity: 1;"></line><line transform="translate(528,0)" x2="0" y2="5" style="fill: none; stroke: #888; stroke-width: 1; opacity: 1;"></line><line transform="translate(560,0)" x2="0" y2="5" style="fill: none; stroke: #888; stroke-width: 1; opacity: 1;"></line><line transform="translate(592,0)" x2="0" y2="5" style="fill: none; stroke: #888; stroke-width: 1; opacity: 1;"></line><line transform="translate(624,0)" x2="0" y2="5" style="fill: none; stroke: #888; stroke-width: 1; opacity: 1;"></line><line transform="translate(656,0)" x2="0" y2="5" style="fill: none; stroke: #888; stroke-width: 1; opacity: 1;"></line><line transform="translate(688,0)" x2="0" y2="5" style="fill: none; stroke: #888; stroke-width: 1; opacity: 1;"></line><line transform="translate(720,0)" x2="0" y2="5" style="fill: none; stroke: #888; stroke-width: 1; opacity: 1;"></line><line transform="translate(752,0)" x2="0" y2="5" style="fill: none; stroke: #888; stroke-width: 1; opacity: 1;"></line><line transform="translate(784,0)" x2="0" y2="5" style="fill: none; stroke: #888; stroke-width: 1; opacity: 1;"></line></g><g class="mark-text role-axis-label" style="pointer-events: none;"><text text-anchor="end" transform="translate(15.500000000000021,7) rotate(270) translate(0,3)" style="font-family: sans-serif; font-size: 10px; fill: #000; opacity: 1;">2021-01</text><text text-anchor="end" transform="translate(47.50000000000002,7) rotate(270) translate(0,3)" style="font-family: sans-serif; font-size: 10px; fill: #000; opacity: 1;">2021-02</text><text text-anchor="end" transform="translate(79.50000000000003,7) rotate(270) translate(0,3)" style="font-family: sans-serif; font-size: 10px; fill: #000; opacity: 1;">2021-03</text><text text-anchor="end" transform="translate(111.50000000000003,7) rotate(270) translate(0,3)" style="font-family: sans-serif; font-size: 10px; fill: #000; opacity: 1;">2021-04</text><text text-anchor="end" transform="translate(143.50000000000003,7) rotate(270) translate(0,3)" style="font-family: sans-serif; font-size: 10px; fill: #000; opacity: 1;">2021-05</text><text text-anchor="end" transform="translate(175.50000000000003,7) rotate(270) translate(0,3)" style="font-family: sans-serif; font-size: 10px; fill: #000; opacity: 1;">2021-06</text><text text-anchor="end" transform="translate(207.50000000000003,7) rotate(270) translate(0,3)" style="font-family: sans-serif; font-size: 10px; fill: #000; opacity: 1;">2021-07</text><text text-anchor="end" transform="translate(239.50000000000003,7) rotate(270) translate(0,3)" style="font-family: sans-serif; font-size: 10px; fill: #000; opacity: 1;">2021-08</text><text text-anchor="end" transform="translate(271.5,7) rotate(270) translate(0,3)" style="font-family: sans-serif; font-size: 10px; fill: #000; opacity: 1;">2021-09</text><text text-anchor="end" transform="translate(303.5,7) rotate(270) translate(0,3)" style="font-family: sans-serif; font-size: 10px; fill: #000; opacity: 1;">2021-10</text><text text-anchor="end" transform="translate(335.5,7) rotate(270) translate(0,3)" style="font-family: sans-serif; font-size: 10px; fill: #000; opacity: 1;">2021-11</text><text text-anchor="end" transform="translate(367.5,7) rotate(270) translate(0,3)" style="font-family: sans-serif; font-size: 10px; fill: #000; opacity: 1;">2021-12</text><text text-anchor="end" transform="translate(399.5,7) rotate(270) translate(0,3)" style="font-family: sans-serif; font-size: 10px; fill: #000; opacity: 1;">2022-01</text><text text-anchor="end" transform="translate(431.5,7) rotate(270) translate(0,3)" style="font-family: sans-serif; font-size: 10px; fill: #000; opacity: 1;">2022-02</text><text text-anchor="end" transform="translate(463.5,7) rotate(270) translate(0,3)" style="font-family: sans-serif; font-size: 10px; fill: #000; opacity: 1;">2022-03</text><text text-anchor="end" transform="translate(495.5,7) rotate(270) translate(0,3)" style="font-family: sans-serif; font-size: 10px; fill: #000; opacity: 1;">2022-04</text><text text-anchor="end" transform="translate(527.5,7) rotate(270) translate(0,3)" style="font-family: sans-serif; font-size: 10px; fill: #000; opacity: 1;">2022-05</text><text text-anchor="end" transform="translate(559.5,7) rotate(270) translate(0,3)" style="font-family: sans-serif; font-size: 10px; fill: #000; opacity: 1;">2022-06</text><text text-anchor="end" transform="translate(591.5,7) rotate(270) translate(0,3)" style="font-family: sans-serif; font-size: 10px; fill: #000; opacity: 1;">2022-07</text><text text-anchor="end" transform="translate(623.5,7) rotate(270) translate(0,3)" style="font-family: sans-serif; font-size: 10px; fill: #000; opacity: 1;">2022-08</text><text text-anchor="end" transform="translate(655.5,7) rotate(270) translate(0,3)" style="font-family: sans-serif; font-size: 10px; fill: #000; opacity: 1;">2022-09</text><text text-anchor="end" transform="translate(687.5,7) rotate(270) translate(0,3)" style="font-family: sans-serif; font-size: 10px; fill: #000; opacity: 1;">2022-10</text><text text-anchor="end" transform="translate(719.5,7) rotate(270) translate(0,3)" style="font-family: sans-serif; font-size: 10px; fill: #000; opacity: 1;">2022-11</text><text text-anchor="end" transform="translate(751.5,7) rotate(270) translate(0,3)" style="font-family: sans-serif; font-size: 10px; fill: #000; opacity: 1;">2022-12</text><text text-anchor="end" transform="translate(783.5,7) rotate(270) translate(0,3)" style="font-family: sans-serif; font-size: 10px; fill: #000; opacity: 1;">2023-01</text></g><g class="mark-rule role-axis-domain" style="pointer-events: none;"><line transform="translate(0,0)" x2="800" y2="0" style="fill: none; stroke: #888; stroke-width: 1; opacity: 1;"></line></g><g class="mark-text role-axis-title" style="pointer-events: none;"><text text-anchor="middle" transform="translate(400,76)" style="font-family: sans-serif; font-size: 11px; font-weight: bold; fill: #000; opacity: 1;">Date</text></g></g><path class="foreground" d="" style="pointer-events: none; display: none; fill: none;"></path></g></g><g class="mark-group role-axis"><g transform="translate(0.5,0.5)"><path class="background" d="M0,0h0v0h0Z" style="pointer-events: none; fill: none;"></path><g><g class="mark-rule role-axis-tick" style="pointer-events: none;"><line transform="translate(0,600)" x2="-5" y2="0" style="fill: none; stroke: #888; stroke-width: 1; opacity: 1;"></line><line transform="translate(0,570)" x2="-5" y2="0" style="fill: none; stroke: #888; stroke-width: 1; opacity: 1;"></line><line transform="translate(0,540)" x2="-5" y2="0" style="fill: none; stroke: #888; stroke-width: 1; opacity: 1;"></line><line transform="translate(0,510)" x2="-5" y2="0" style="fill: none; stroke: #888; stroke-width: 1; opacity: 1;"></line><line transform="translate(0,480)" x2="-5" y2="0" style="fill: none; stroke: #888; stroke-width: 1; opacity: 1;"></line><line transform="translate(0,450)" x2="-5" y2="0" style="fill: none; stroke: #888; stroke-width: 1; opacity: 1;"></line><line transform="translate(0,420)" x2="-5" y2="0" style="fill: none; stroke: #888; stroke-width: 1; opacity: 1;"></line><line transform="translate(0,390)" x2="-5" y2="0" style="fill: none; stroke: #888; stroke-width: 1; opacity: 1;"></line><line transform="translate(0,360)" x2="-5" y2="0" style="fill: none; stroke: #888; stroke-width: 1; opacity: 1;"></line><line transform="translate(0,330)" x2="-5" y2="0" style="fill: none; stroke: #888; stroke-width: 1; opacity: 1;"></line><line transform="translate(0,300)" x2="-5" y2="0" style="fill: none; stroke: #888; stroke-width: 1; opacity: 1;"></line><line transform="translate(0,270)" x2="-5" y2="0" style="fill: none; stroke: #888; stroke-width: 1; opacity: 1;"></line><line transform="translate(0,240)" x2="-5" y2="0" style="fill: none; stroke: #888; stroke-width: 1; opacity: 1;"></line><line transform="translate(0,210)" x2="-5" y2="0" style="fill: none; stroke: #888; stroke-width: 1; opacity: 1;"></line><line transform="translate(0,180)" x2="-5" y2="0" style="fill: none; stroke: #888; stroke-width: 1; opacity: 1;"></line><line transform="translate(0,150)" x2="-5" y2="0" style="fill: none; stroke: #888; stroke-width: 1; opacity: 1;"></line><line transform="translate(0,120)" x2="-5" y2="0" style="fill: none; stroke: #888; stroke-width: 1; opacity: 1;"></line><line transform="translate(0,90)" x2="-5" y2="0" style="fill: none; stroke: #888; stroke-width: 1; opacity: 1;"></line><line transform="translate(0,60)" x2="-5" y2="0" style="fill: none; stroke: #888; stroke-width: 1; opacity: 1;"></line><line transform="translate(0,30)" x2="-5" y2="0" style="fill: none; stroke: #888; stroke-width: 1; opacity: 1;"></line><line transform="translate(0,0)" x2="-5" y2="0" style="fill: none; stroke: #888; stroke-width: 1; opacity: 1;"></line></g><g class="mark-text role-axis-label" style="pointer-events: none;"><text text-anchor="end" transform="translate(-7,603)" style="font-family: sans-serif; font-size: 10px; fill: #000; opacity: 1;">0</text><text text-anchor="end" transform="translate(-7,573)" style="font-family: sans-serif; font-size: 10px; fill: #000; opacity: 1;">10</text><text text-anchor="end" transform="translate(-7,543)" style="font-family: sans-serif; font-size: 10px; fill: #000; opacity: 1;">20</text><text text-anchor="end" transform="translate(-7,513)" style="font-family: sans-serif; font-size: 10px; fill: #000; opacity: 1;">30</text><text text-anchor="end" transform="translate(-7,483)" style="font-family: sans-serif; font-size: 10px; fill: #000; opacity: 1;">40</text><text text-anchor="end" transform="translate(-7,453)" style="font-family: sans-serif; font-size: 10px; fill: #000; opacity: 1;">50</text><text text-anchor="end" transform="translate(-7,423)" style="font-family: sans-serif; font-size: 10px; fill: #000; opacity: 1;">60</text><text text-anchor="end" transform="translate(-7,393)" style="font-family: sans-serif; font-size: 10px; fill: #000; opacity: 1;">70</text><text text-anchor="end" transform="translate(-7,363)" style="font-family: sans-serif; font-size: 10px; fill: #000; opacity: 1;">80</text><text text-anchor="end" transform="translate(-7,333)" style="font-family: sans-serif; font-size: 10px; fill: #000; opacity: 1;">90</text><text text-anchor="end" transform="translate(-7,303)" style="font-family: sans-serif; font-size: 10px; fill: #000; opacity: 1;">100</text><text text-anchor="end" transform="translate(-7,273)" style="font-family: sans-serif; font-size: 10px; fill: #000; opacity: 1;">110</text><text text-anchor="end" transform="translate(-7,243)" style="font-family: sans-serif; font-size: 10px; fill: #000; opacity: 1;">120</text><text text-anchor="end" transform="translate(-7,213)" style="font-family: sans-serif; font-size: 10px; fill: #000; opacity: 1;">130</text><text text-anchor="end" transform="translate(-7,183.00000000000003)" style="font-family: sans-serif; font-size: 10px; fill: #000; opacity: 1;">140</text><text text-anchor="end" transform="translate(-7,153)" style="font-family: sans-serif; font-size: 10px; fill: #000; opacity: 1;">150</text><text text-anchor="end" transform="translate(-7,122.99999999999997)" style="font-family: sans-serif; font-size: 10px; fill: #000; opacity: 1;">160</text><text text-anchor="end" transform="translate(-7,93.00000000000001)" style="font-family: sans-serif; font-size: 10px; fill: #000; opacity: 1;">170</text><text text-anchor="end" transform="translate(-7,62.999999999999986)" style="font-family: sans-serif; font-size: 10px; fill: #000; opacity: 1;">180</text><text text-anchor="end" transform="translate(-7,33.00000000000003)" style="font-family: sans-serif; font-size: 10px; fill: #000; opacity: 1;">190</text><text text-anchor="end" transform="translate(-7,3)" style="font-family: sans-serif; font-size: 10px; fill: #000; opacity: 1;">200</text></g><g class="mark-rule role-axis-domain" style="pointer-events: none;"><line transform="translate(0,600)" x2="0" y2="-600" style="fill: none; stroke: #888; stroke-width: 1; opacity: 1;"></line></g><g class="mark-text role-axis-title" style="pointer-events: none;"><text text-anchor="middle" transform="translate(-35,300) rotate(-90) translate(0,-2)" style="font-family: sans-serif; font-size: 11px; font-weight: bold; fill: #000; opacity: 1;">Sum of Hours</text></g></g><path class="foreground" d="" style="pointer-events: none; display: none; fill: none;"></path></g></g><g class="mark-rect role-mark marks"><path d="M1.6000000000000227,273h28.8v9h-28.8Z" style="fill: #f58518;"></path><path d="M1.6000000000000227,206.99999999999997h28.8v66.00000000000003h-28.8Z" style="fill: #4c78a8;"></path><path d="M1.6000000000000227,282h28.8v175.5h-28.8Z" style="fill: #e45756;"></path><path d="M1.6000000000000227,513h28.8v63h-28.8Z" style="fill: #54a24b;"></path><path d="M1.6000000000000227,457.5h28.8v55.5h-28.8Z" style="fill: #72b7b2;"></path><path d="M1.6000000000000227,576h28.8v24h-28.8Z" style="fill: #b279a2;"></path><path d="M33.60000000000002,363h28.8v57h-28.8Z" style="fill: #e45756;"></path><path d="M33.60000000000002,463.5h28.8v112.5h-28.8Z" style="fill: #54a24b;"></path><path d="M33.60000000000002,279h28.8v84h-28.8Z" style="fill: #4c78a8;"></path><path d="M33.60000000000002,420h28.8v43.5h-28.8Z" style="fill: #72b7b2;"></path><path d="M33.60000000000002,576h28.8v24h-28.8Z" style="fill: #b279a2;"></path><path d="M65.60000000000002,288h28.8v37.5h-28.8Z" style="fill: #e45756;"></path><path d="M65.60000000000002,418.5h28.8v160.5h-28.8Z" style="fill: #54a24b;"></path><path d="M65.60000000000002,206.99999999999997h28.8v81.00000000000003h-28.8Z" style="fill: #4c78a8;"></path><path d="M65.60000000000002,325.5h28.8v93h-28.8Z" style="fill: #72b7b2;"></path><path d="M65.60000000000002,579h28.8v21h-28.8Z" style="fill: #eeca3b;"></path><path d="M97.60000000000002,289.5h28.8v11.999999999999943h-28.8Z" style="fill: #f58518;"></path><path d="M97.60000000000002,460.5h28.8v102h-28.8Z" style="fill: #54a24b;"></path><path d="M97.60000000000002,354.00000000000006h28.8v106.49999999999994h-28.8Z" style="fill: #72b7b2;"></path><path d="M97.60000000000002,562.5h28.8v13.5h-28.8Z" style="fill: #eeca3b;"></path><path d="M97.60000000000002,301.49999999999994h28.8v52.500000000000114h-28.8Z" style="fill: #e45756;"></path><path d="M97.60000000000002,219h28.8v70.5h-28.8Z" style="fill: #4c78a8;"></path><path d="M97.60000000000002,576h28.8v24h-28.8Z" style="fill: #b279a2;"></path><path d="M129.60000000000002,465h28.8v112.5h-28.8Z" style="fill: #54a24b;"></path><path d="M129.60000000000002,295.50000000000006h28.8v58.5h-28.8Z" style="fill: #e45756;"></path><path d="M129.60000000000002,354.00000000000006h28.8v110.99999999999994h-28.8Z" style="fill: #72b7b2;"></path><path d="M129.60000000000002,200.99999999999997h28.8v94.50000000000009h-28.8Z" style="fill: #4c78a8;"></path><path d="M129.60000000000002,577.5h28.8v22.5h-28.8Z" style="fill: #eeca3b;"></path><path d="M161.60000000000002,438h28.8v72h-28.8Z" style="fill: #54a24b;"></path><path d="M161.60000000000002,510h28.8v66h-28.8Z" style="fill: #eeca3b;"></path><path d="M161.60000000000002,266.99999999999994h28.8v63.00000000000006h-28.8Z" style="fill: #e45756;"></path><path d="M161.60000000000002,55.500000000000014h28.8v211.49999999999994h-28.8Z" style="fill: #4c78a8;"></path><path d="M161.60000000000002,330h28.8v108h-28.8Z" style="fill: #72b7b2;"></path><path d="M161.60000000000002,576h28.8v24h-28.8Z" style="fill: #b279a2;"></path><path d="M193.60000000000002,501h28.8v49.5h-28.8Z" style="fill: #54a24b;"></path><path d="M193.60000000000002,191.99999999999997h28.8v121.50000000000003h-28.8Z" style="fill: #4c78a8;"></path><path d="M193.60000000000002,420h28.8v81h-28.8Z" style="fill: #72b7b2;"></path><path d="M193.60000000000002,576h28.8v24h-28.8Z" style="fill: #b279a2;"></path><path d="M193.60000000000002,322.5h28.8v97.5h-28.8Z" style="fill: #e45756;"></path><path d="M193.60000000000002,313.5h28.8v9h-28.8Z" style="fill: #f58518;"></path><path d="M193.60000000000002,550.5h28.8v25.5h-28.8Z" style="fill: #eeca3b;"></path><path d="M225.60000000000002,131.99999999999997h28.8v42.00000000000006h-28.8Z" style="fill: #4c78a8;"></path><path d="M225.60000000000002,456h28.8v139.5h-28.8Z" style="fill: #54a24b;"></path><path d="M225.60000000000002,180.00000000000003h28.8v175.49999999999997h-28.8Z" style="fill: #e45756;"></path><path d="M225.60000000000002,355.5h28.8v100.5h-28.8Z" style="fill: #72b7b2;"></path><path d="M225.60000000000002,595.5h28.8v4.5h-28.8Z" style="fill: #eeca3b;"></path><path d="M225.60000000000002,174.00000000000003h28.8v6h-28.8Z" style="fill: #f58518;"></path><path d="M257.6,570h28.8v6h-28.8Z" style="fill: #eeca3b;"></path><path d="M257.6,221.25h28.8v23.99999999999997h-28.8Z" style="fill: #f58518;"></path><path d="M257.6,495h28.8v75h-28.8Z" style="fill: #54a24b;"></path><path d="M257.6,361.5h28.8v133.5h-28.8Z" style="fill: #72b7b2;"></path><path d="M257.6,245.24999999999997h28.8v116.25000000000003h-28.8Z" style="fill: #e45756;"></path><path d="M257.6,141.74999999999997h28.8v79.50000000000003h-28.8Z" style="fill: #4c78a8;"></path><path d="M257.6,576h28.8v24h-28.8Z" style="fill: #b279a2;"></path><path d="M289.6,273h28.8v36h-28.8Z" style="fill: #4c78a8;"></path><path d="M289.6,322.5h28.8v72h-28.8Z" style="fill: #e45756;"></path><path d="M289.6,394.5h28.8v60.00000000000006h-28.8Z" style="fill: #72b7b2;"></path><path d="M289.6,309h28.8v13.5h-28.8Z" style="fill: #f58518;"></path><path d="M289.6,454.50000000000006h28.8v145.49999999999994h-28.8Z" style="fill: #54a24b;"></path><path d="M321.6,325.5h28.8v169.5h-28.8Z" style="fill: #54a24b;"></path><path d="M321.6,148.50000000000003h28.8v22.5h-28.8Z" style="fill: #f58518;"></path><path d="M321.6,247.5h28.8v78h-28.8Z" style="fill: #72b7b2;"></path><path d="M321.6,125.99999999999997h28.8v22.500000000000057h-28.8Z" style="fill: #4c78a8;"></path><path d="M321.6,171.00000000000003h28.8v76.49999999999997h-28.8Z" style="fill: #e45756;"></path><path d="M321.6,495h28.8v9h-28.8Z" style="fill: #eeca3b;"></path><path d="M321.6,504h28.8v96h-28.8Z" style="fill: #b279a2;"></path><path d="M353.6,153h28.8v103.5h-28.8Z" style="fill: #72b7b2;"></path><path d="M353.6,256.5h28.8v151.49999999999994h-28.8Z" style="fill: #54a24b;"></path><path d="M353.6,85.49999999999997h28.8v12.000000000000014h-28.8Z" style="fill: #4c78a8;"></path><path d="M353.6,133.50000000000003h28.8v19.49999999999997h-28.8Z" style="fill: #e45756;"></path><path d="M353.6,97.49999999999999h28.8v36.00000000000004h-28.8Z" style="fill: #f58518;"></path><path d="M353.6,407.99999999999994h28.8v192.00000000000006h-28.8Z" style="fill: #b279a2;"></path><path d="M385.6,234h28.8v10.499999999999972h-28.8Z" style="fill: #f58518;"></path><path d="M385.6,292.5h28.8v51h-28.8Z" style="fill: #72b7b2;"></path><path d="M385.6,343.5h28.8v210h-28.8Z" style="fill: #54a24b;"></path><path d="M385.6,244.49999999999997h28.8v48.00000000000003h-28.8Z" style="fill: #e45756;"></path><path d="M385.6,553.5h28.8v22.5h-28.8Z" style="fill: #eeca3b;"></path><path d="M385.6,225h28.8v9h-28.8Z" style="fill: #4c78a8;"></path><path d="M385.6,576h28.8v24h-28.8Z" style="fill: #b279a2;"></path><path d="M417.6,519h28.8v37.5h-28.8Z" style="fill: #54a24b;"></path><path d="M417.6,206.99999999999997h28.8v69.00000000000003h-28.8Z" style="fill: #4c78a8;"></path><path d="M417.6,405h28.8v114h-28.8Z" style="fill: #72b7b2;"></path><path d="M417.6,312h28.8v93h-28.8Z" style="fill: #e45756;"></path><path d="M417.6,276h28.8v36h-28.8Z" style="fill: #f58518;"></path><path d="M417.6,556.5h28.8v19.5h-28.8Z" style="fill: #eeca3b;"></path><path d="M417.6,576h28.8v24h-28.8Z" style="fill: #b279a2;"></path><path d="M449.6,250.5h28.8v139.5h-28.8Z" style="fill: #e45756;"></path><path d="M449.6,390h28.8v130.5h-28.8Z" style="fill: #72b7b2;"></path><path d="M449.6,241.49999999999997h28.8v9.000000000000028h-28.8Z" style="fill: #f58518;"></path><path d="M449.6,147h28.8v94.49999999999997h-28.8Z" style="fill: #4c78a8;"></path><path d="M449.6,520.5h28.8v57h-28.8Z" style="fill: #54a24b;"></path><path d="M449.6,577.5h28.8v22.5h-28.8Z" style="fill: #eeca3b;"></path><path d="M481.6,340.5h28.8v139.5h-28.8Z" style="fill: #e45756;"></path><path d="M481.6,510h28.8v63h-28.8Z" style="fill: #54a24b;"></path><path d="M481.6,573h28.8v3h-28.8Z" style="fill: #eeca3b;"></path><path d="M481.6,480h28.8v30h-28.8Z" style="fill: #72b7b2;"></path><path d="M481.6,576h28.8v24h-28.8Z" style="fill: #b279a2;"></path><path d="M481.6,310.50000000000006h28.8v29.999999999999943h-28.8Z" style="fill: #f58518;"></path><path d="M481.6,303h28.8v7.500000000000057h-28.8Z" style="fill: #4c78a8;"></path><path d="M513.6,322.5h28.8v7.5h-28.8Z" style="fill: #f58518;"></path><path d="M513.6,493.5h28.8v81h-28.8Z" style="fill: #54a24b;"></path><path d="M513.6,432h28.8v61.5h-28.8Z" style="fill: #72b7b2;"></path><path d="M513.6,330h28.8v102h-28.8Z" style="fill: #e45756;"></path><path d="M513.6,310.50000000000006h28.8v11.999999999999943h-28.8Z" style="fill: #4c78a8;"></path><path d="M513.6,574.5h28.8v1.5h-28.8Z" style="fill: #eeca3b;"></path><path d="M513.6,576h28.8v24h-28.8Z" style="fill: #b279a2;"></path><path d="M545.6,207.74999999999997h28.8v21.00000000000003h-28.8Z" style="fill: #f58518;"></path><path d="M545.6,228.75h28.8v207.75h-28.8Z" style="fill: #e45756;"></path><path d="M545.6,436.5h28.8v84h-28.8Z" style="fill: #72b7b2;"></path><path d="M545.6,520.5h28.8v55.5h-28.8Z" style="fill: #54a24b;"></path><path d="M545.6,172.5h28.8v35.24999999999997h-28.8Z" style="fill: #4c78a8;"></path><path d="M545.6,576h28.8v24h-28.8Z" style="fill: #b279a2;"></path><path d="M577.6,562.5h28.8v13.5h-28.8Z" style="fill: #54a24b;"></path><path d="M577.6,576h28.8v24h-28.8Z" style="fill: #b279a2;"></path><path d="M577.6,345h28.8v168h-28.8Z" style="fill: #e45756;"></path><path d="M577.6,513h28.8v49.5h-28.8Z" style="fill: #72b7b2;"></path><path d="M577.6,315h28.8v30h-28.8Z" style="fill: #f58518;"></path><path d="M577.6,312h28.8v3h-28.8Z" style="fill: #4c78a8;"></path><path d="M609.6,277.5h28.8v45h-28.8Z" style="fill: #f58518;"></path><path d="M609.6,438h28.8v115.5h-28.8Z" style="fill: #72b7b2;"></path><path d="M609.6,322.5h28.8v115.5h-28.8Z" style="fill: #e45756;"></path><path d="M609.6,567h28.8v33h-28.8Z" style="fill: #eeca3b;"></path><path d="M609.6,271.5h28.8v6h-28.8Z" style="fill: #4c78a8;"></path><path d="M609.6,553.5h28.8v13.5h-28.8Z" style="fill: #54a24b;"></path><path d="M641.6,313.5h28.8v159h-28.8Z" style="fill: #e45756;"></path><path d="M641.6,576h28.8v24h-28.8Z" style="fill: #b279a2;"></path><path d="M641.6,546h28.8v30h-28.8Z" style="fill: #54a24b;"></path><path d="M641.6,472.5h28.8v73.5h-28.8Z" style="fill: #72b7b2;"></path><path d="M641.6,294h28.8v12h-28.8Z" style="fill: #4c78a8;"></path><path d="M641.6,306h28.8v7.5h-28.8Z" style="fill: #f58518;"></path><path d="M673.6,285h28.8v15h-28.8Z" style="fill: #4c78a8;"></path><path d="M673.6,504h28.8v70.5h-28.8Z" style="fill: #72b7b2;"></path><path d="M673.6,586.5h28.8v13.5h-28.8Z" style="fill: #eeca3b;"></path><path d="M673.6,318h28.8v186h-28.8Z" style="fill: #e45756;"></path><path d="M673.6,574.5h28.8v12h-28.8Z" style="fill: #54a24b;"></path><path d="M673.6,300h28.8v18h-28.8Z" style="fill: #f58518;"></path><path d="M705.6,249.00000000000003h28.8v190.49999999999991h-28.8Z" style="fill: #e45756;"></path><path d="M705.6,240h28.8v9.000000000000028h-28.8Z" style="fill: #f58518;"></path><path d="M705.6,223.50000000000003h28.8v16.49999999999997h-28.8Z" style="fill: #4c78a8;"></path><path d="M705.6,439.49999999999994h28.8v60.00000000000006h-28.8Z" style="fill: #72b7b2;"></path><path d="M705.6,499.5h28.8v4.5h-28.8Z" style="fill: #54a24b;"></path><path d="M705.6,504h28.8v96h-28.8Z" style="fill: #b279a2;"></path><path d="M737.6,409.5h28.8v132h-28.8Z" style="fill: #72b7b2;"></path><path d="M737.6,348.00000000000006h28.8v61.49999999999994h-28.8Z" style="fill: #e45756;"></path><path d="M737.6,541.5h28.8v10.5h-28.8Z" style="fill: #54a24b;"></path><path d="M737.6,552h28.8v48h-28.8Z" style="fill: #b279a2;"></path><path d="M769.6,582h28.8v18h-28.8Z" style="fill: #b279a2;"></path><path d="M769.6,549h28.8v30h-28.8Z" style="fill: #72b7b2;"></path><path d="M769.6,528h28.8v6h-28.8Z" style="fill: #f58518;"></path><path d="M769.6,534h28.8v15h-28.8Z" style="fill: #e45756;"></path><path d="M769.6,579h28.8v3h-28.8Z" style="fill: #eeca3b;"></path></g><g class="mark-group role-legend"><g transform="translate(818,0)"><path class="background" d="M0,0h112v105h-112Z" style="pointer-events: none; fill: none;"></path><g><g class="mark-group role-legend-entry"><g transform="translate(0,16)"><path class="background" d="M0,0h0v0h0Z" style="pointer-events: none; fill: none;"></path><g><g class="mark-group role-scope"><g transform="translate(0,0)"><path class="background" d="M0,0h112v11h-112Z" style="pointer-events: none; fill: none; opacity: 1;"></path><g><g class="mark-symbol role-legend-symbol" style="pointer-events: none;"><path transform="translate(6,6)" d="M-5,-5h10v10h-10Z" style="fill: #4c78a8; stroke-width: 1.5; opacity: 1;"></path></g><g class="mark-text role-legend-label" style="pointer-events: none;"><text text-anchor="start" transform="translate(16,9)" style="font-family: sans-serif; font-size: 10px; fill: #000; opacity: 1;">APOLLO</text></g></g><path class="foreground" d="" style="pointer-events: none; display: none; fill: none;"></path></g><g transform="translate(0,13)"><path class="background" d="M0,0h112v11h-112Z" style="pointer-events: none; fill: none; opacity: 1;"></path><g><g class="mark-symbol role-legend-symbol" style="pointer-events: none;"><path transform="translate(6,6)" d="M-5,-5h10v10h-10Z" style="fill: #f58518; stroke-width: 1.5; opacity: 1;"></path></g><g class="mark-text role-legend-label" style="pointer-events: none;"><text text-anchor="start" transform="translate(16,9)" style="font-family: sans-serif; font-size: 10px; fill: #000; opacity: 1;">EDF</text></g></g><path class="foreground" d="" style="pointer-events: none; display: none; fill: none;"></path></g><g transform="translate(0,26)"><path class="background" d="M0,0h112v11h-112Z" style="pointer-events: none; fill: none; opacity: 1;"></path><g><g class="mark-symbol role-legend-symbol" style="pointer-events: none;"><path transform="translate(6,6)" d="M-5,-5h10v10h-10Z" style="fill: #e45756; stroke-width: 1.5; opacity: 1;"></path></g><g class="mark-text role-legend-label" style="pointer-events: none;"><text text-anchor="start" transform="translate(16,9)" style="font-family: sans-serif; font-size: 10px; fill: #000; opacity: 1;">ETL</text></g></g><path class="foreground" d="" style="pointer-events: none; display: none; fill: none;"></path></g><g transform="translate(0,39)"><path class="background" d="M0,0h112v11h-112Z" style="pointer-events: none; fill: none; opacity: 1;"></path><g><g class="mark-symbol role-legend-symbol" style="pointer-events: none;"><path transform="translate(6,6)" d="M-5,-5h10v10h-10Z" style="fill: #72b7b2; stroke-width: 1.5; opacity: 1;"></path></g><g class="mark-text role-legend-label" style="pointer-events: none;"><text text-anchor="start" transform="translate(16,9)" style="font-family: sans-serif; font-size: 10px; fill: #000; opacity: 1;">GEM</text></g></g><path class="foreground" d="" style="pointer-events: none; display: none; fill: none;"></path></g><g transform="translate(0,52)"><path class="background" d="M0,0h112v11h-112Z" style="pointer-events: none; fill: none; opacity: 1;"></path><g><g class="mark-symbol role-legend-symbol" style="pointer-events: none;"><path transform="translate(6,6)" d="M-5,-5h10v10h-10Z" style="fill: #54a24b; stroke-width: 1.5; opacity: 1;"></path></g><g class="mark-text role-legend-label" style="pointer-events: none;"><text text-anchor="start" transform="translate(16,9)" style="font-family: sans-serif; font-size: 10px; fill: #000; opacity: 1;">L0MDT</text></g></g><path class="foreground" d="" style="pointer-events: none; display: none; fill: none;"></path></g><g transform="translate(0,65)"><path class="background" d="M0,0h112v11h-112Z" style="pointer-events: none; fill: none; opacity: 1;"></path><g><g class="mark-symbol role-legend-symbol" style="pointer-events: none;"><path transform="translate(6,6)" d="M-5,-5h10v10h-10Z" style="fill: #eeca3b; stroke-width: 1.5; opacity: 1;"></path></g><g class="mark-text role-legend-label" style="pointer-events: none;"><text text-anchor="start" transform="translate(16,9)" style="font-family: sans-serif; font-size: 10px; fill: #000; opacity: 1;">OTHER PRJ</text></g></g><path class="foreground" d="" style="pointer-events: none; display: none; fill: none;"></path></g><g transform="translate(0,78)"><path class="background" d="M0,0h112v11h-112Z" style="pointer-events: none; fill: none; opacity: 1;"></path><g><g class="mark-symbol role-legend-symbol" style="pointer-events: none;"><path transform="translate(6,6)" d="M-5,-5h10v10h-10Z" style="fill: #b279a2; stroke-width: 1.5; opacity: 1;"></path></g><g class="mark-text role-legend-label" style="pointer-events: none;"><text text-anchor="start" transform="translate(16,9)" style="font-family: sans-serif; font-size: 10px; fill: #000; opacity: 1;">VAC/SICK/HOL</text></g></g><path class="foreground" d="" style="pointer-events: none; display: none; fill: none;"></path></g></g></g><path class="foreground" d="" style="pointer-events: none; display: none; fill: none;"></path></g></g><g class="mark-text role-legend-title" style="pointer-events: none;"><text text-anchor="start" transform="translate(0,9)" style="font-family: sans-serif; font-size: 11px; font-weight: bold; fill: #000; opacity: 1;">Project</text></g></g><path class="foreground" d="" style="pointer-events: none; display: none; fill: none;"></path></g></g></g><path class="foreground" d="" style="display: none; fill: none;"></path></g></g></g></svg>