<svg class="marks" width="952" height="653" viewBox="0 0 952 653" version="1.1" xmlns="http://www.w3.org/2000/svg" xmlns:xlink="http://www.w3.org/1999/xlink"><rect width="952" height="653" style="fill: white;"></rect><g transform="translate(67,10)"><g class="mark-group role-frame root"><g transform="translate(0,0)"><path class="background" d="M0.5,0.5h800v600h-800Z" style="fill: none; stroke: #ddd;"></path><g><g class="mark-group role-axis"><g transform="translate(0.5,0.5)"><path class="background" d="M0,0h0v0h0Z" style="pointer-events: none; fill: none;"></path><g><g class="mark-rule role-axis-grid" style="pointer-events: none;"><line transform="translate(0,600)" x2="800" y2="0" style="fill: none; stroke: #ddd; stroke-width: 1; opacity: 1;"></line><line transform="translate(0,567)" x2="800" y2="0" style="fill: none; stroke: #ddd; stroke-width: 1; opacity: 1;"></line><line transform="translate(0,533)" x2="800" y2="0" style="fill: none; stroke: #ddd; stroke-width: 1; opacity: 1;"></line><line transform="translate(0,500)" x2="800" y2="0" style="fill: none; stroke: #ddd; stroke-width: 1; opacity: 1;"></line><line transform="translate(0,467)" x2="800" y2="0" style="fill: none; stroke: #ddd; stroke-width: 1; opacity: 1;"></line><line transform="translate(0,433)" x2="800" y2="0" style="fill: none; stroke: #ddd; stroke-width: 1; opacity: 1;"></line><line transform="translate(0,400)" x2="800" y2="0" style="fill: none; stroke: #ddd; stroke-width: 1; opacity: 1;"></line><line transform="translate(0,367)" x2="800" y2="0" style="fill: none; stroke: #ddd; stroke-width: 1; opacity: 1;"></line><line transform="translate(0,333)" x2="800" y2="0" style="fill: none; stroke: #ddd; stroke-width: 1; opacity: 1;"></line><line transform="translate(0,300)" x2="800" y2="0" style="fill: none; stroke: #ddd; stroke-width: 1; opacity: 1;"></line><line transform="translate(0,267)" x2="800" y2="0" style="fill: none; stroke: #ddd; stroke-width: 1; opacity: 1;"></line><line transform="translate(0,233)" x2="800" y2="0" style="fill: none; stroke: #ddd; stroke-width: 1; opacity: 1;"></line><line transform="translate(0,200)" x2="800" y2="0" style="fill: none; stroke: #ddd; stroke-width: 1; opacity: 1;"></line><line transform="translate(0,167)" x2="800" y2="0" style="fill: none; stroke: #ddd; stroke-width: 1; opacity: 1;"></line><line transform="translate(0,133)" x2="800" y2="0" style="fill: none; stroke: #ddd; stroke-width: 1; opacity: 1;"></line><line transform="translate(0,100)" x2="800" y2="0" style="fill: none; stroke: #ddd; stroke-width: 1; opacity: 1;"></line><line transform="translate(0,67)" x2="800" y2="0" style="fill: none; stroke: #ddd; stroke-width: 1; opacity: 1;"></line><line transform="translate(0,33)" x2="800" y2="0" style="fill: none; stroke: #ddd; stroke-width: 1; opacity: 1;"></line><line transform="translate(0,0)" x2="800" y2="0" style="fill: none; stroke: #ddd; stroke-width: 1; opacity: 1;"></line></g></g><path class="foreground" d="" style="pointer-events: none; display: none; fill: none;"></path></g></g><g class="mark-group role-axis"><g transform="translate(0.5,600.5)"><path class="background" d="M0,0h0v0h0Z" style="pointer-events: none; fill: none;"></path><g><g class="mark-rule role-axis-tick" style="pointer-events: none;"><line transform="translate(8,0)" x2="0" y2="5" style="fill: none; stroke: #888; stroke-width: 1; opacity: 1;"></line><line transform="translate(73,0)" x2="0" y2="5" style="fill: none; stroke: #888; stroke-width: 1; opacity: 1;"></line><line transform="translate(141,0)" x2="0" y2="5" style="fill: none; stroke: #888; stroke-width: 1; opacity: 1;"></line><line transform="translate(216,0)" x2="0" y2="5" style="fill: none; stroke: #888; stroke-width: 1; opacity: 1;"></line><line transform="translate(286,0)" x2="0" y2="5" style="fill: none; stroke: #888; stroke-width: 1; opacity: 1;"></line><line transform="translate(353,0)" x2="0" y2="5" style="fill: none; stroke: #888; stroke-width: 1; opacity: 1;"></line><line transform="translate(423,0)" x2="0" y2="5" style="fill: none; stroke: #888; stroke-width: 1; opacity: 1;"></line><line transform="translate(498,0)" x2="0" y2="5" style="fill: none; stroke: #888; stroke-width: 1; opacity: 1;"></line><line transform="translate(560,0)" x2="0" y2="5" style="fill: none; stroke: #888; stroke-width: 1; opacity: 1;"></line><line transform="translate(623,0)" x2="0" y2="5" style="fill: none; stroke: #888; stroke-width: 1; opacity: 1;"></line><line transform="translate(673,0)" x2="0" y2="5" style="fill: none; stroke: #888; stroke-width: 1; opacity: 1;"></line><line transform="translate(736,0)" x2="0" y2="5" style="fill: none; stroke: #888; stroke-width: 1; opacity: 1;"></line></g><g class="mark-text role-axis-label" style="pointer-events: none;"><text text-anchor="end" transform="translate(8.433734939759017,7) rotate(270) translate(0,3)" style="font-family: sans-serif; font-size: 10px; fill: #000; opacity: 1;">1</text><text text-anchor="end" transform="translate(73.49397590361444,7) rotate(270) translate(0,3)" style="font-family: sans-serif; font-size: 10px; fill: #000; opacity: 1;">2</text><text text-anchor="end" transform="translate(140.96385542168673,7) rotate(270) translate(0,3)" style="font-family: sans-serif; font-size: 10px; fill: #000; opacity: 1;">3</text><text text-anchor="end" transform="translate(215.66265060240963,7) rotate(270) translate(0,3)" style="font-family: sans-serif; font-size: 10px; fill: #000; opacity: 1;">4</text><text text-anchor="end" transform="translate(285.5421686746988,7) rotate(270) translate(0,3)" style="font-family: sans-serif; font-size: 10px; fill: #000; opacity: 1;">5</text><text text-anchor="end" transform="translate(353.0120481927711,7) rotate(270) translate(0,3)" style="font-family: sans-serif; font-size: 10px; fill: #000; opacity: 1;">6</text><text text-anchor="end" transform="translate(422.89156626506025,7) rotate(270) translate(0,3)" style="font-family: sans-serif; font-size: 10px; fill: #000; opacity: 1;">7</text><text text-anchor="end" transform="translate(497.5903614457832,7) rotate(270) translate(0,3)" style="font-family: sans-serif; font-size: 10px; fill: #000; opacity: 1;">8</text><text text-anchor="end" transform="translate(560.2409638554217,7) rotate(270) translate(0,3)" style="font-family: sans-serif; font-size: 10px; fill: #000; opacity: 1;">9</text><text text-anchor="end" transform="translate(622.8915662650603,7) rotate(270) translate(0,3)" style="font-family: sans-serif; font-size: 10px; fill: #000; opacity: 1;">10</text><text text-anchor="end" transform="translate(673.4939759036145,7) rotate(270) translate(0,3)" style="font-family: sans-serif; font-size: 10px; fill: #000; opacity: 1;">11</text><text text-anchor="end" transform="translate(736.1445783132531,7) rotate(270) translate(0,3)" style="font-family: sans-serif; font-size: 10px; fill: #000; opacity: 1;">12</text></g><g class="mark-rule role-axis-domain" style="pointer-events: none;"><line transform="translate(0,0)" x2="800" y2="0" style="fill: none; stroke: #888; stroke-width: 1; opacity: 1;"></line></g><g class="mark-text role-axis-title" style="pointer-events: none;"><text text-anchor="middle" transform="translate(400,36)" style="font-family: sans-serif; font-size: 11px; font-weight: bold; fill: #000; opacity: 1;">Date</text></g></g><path class="foreground" d="" style="pointer-events: none; display: none; fill: none;"></path></g></g><g class="mark-group role-axis"><g transform="translate(0.5,0.5)"><path class="background" d="M0,0h0v0h0Z" style="pointer-events: none; fill: none;"></path><g><g class="mark-rule role-axis-tick" style="pointer-events: none;"><line transform="translate(0,600)" x2="-5" y2="0" style="fill: none; stroke: #888; stroke-width: 1; opacity: 1;"></line><line transform="translate(0,567)" x2="-5" y2="0" style="fill: none; stroke: #888; stroke-width: 1; opacity: 1;"></line><line transform="translate(0,533)" x2="-5" y2="0" style="fill: none; stroke: #888; stroke-width: 1; opacity: 1;"></line><line transform="translate(0,500)" x2="-5" y2="0" style="fill: none; stroke: #888; stroke-width: 1; opacity: 1;"></line><line transform="translate(0,467)" x2="-5" y2="0" style="fill: none; stroke: #888; stroke-width: 1; opacity: 1;"></line><line transform="translate(0,433)" x2="-5" y2="0" style="fill: none; stroke: #888; stroke-width: 1; opacity: 1;"></line><line transform="translate(0,400)" x2="-5" y2="0" style="fill: none; stroke: #888; stroke-width: 1; opacity: 1;"></line><line transform="translate(0,367)" x2="-5" y2="0" style="fill: none; stroke: #888; stroke-width: 1; opacity: 1;"></line><line transform="translate(0,333)" x2="-5" y2="0" style="fill: none; stroke: #888; stroke-width: 1; opacity: 1;"></line><line transform="translate(0,300)" x2="-5" y2="0" style="fill: none; stroke: #888; stroke-width: 1; opacity: 1;"></line><line transform="translate(0,267)" x2="-5" y2="0" style="fill: none; stroke: #888; stroke-width: 1; opacity: 1;"></line><line transform="translate(0,233)" x2="-5" y2="0" style="fill: none; stroke: #888; stroke-width: 1; opacity: 1;"></line><line transform="translate(0,200)" x2="-5" y2="0" style="fill: none; stroke: #888; stroke-width: 1; opacity: 1;"></line><line transform="translate(0,167)" x2="-5" y2="0" style="fill: none; stroke: #888; stroke-width: 1; opacity: 1;"></line><line transform="translate(0,133)" x2="-5" y2="0" style="fill: none; stroke: #888; stroke-width: 1; opacity: 1;"></line><line transform="translate(0,100)" x2="-5" y2="0" style="fill: none; stroke: #888; stroke-width: 1; opacity: 1;"></line><line transform="translate(0,67)" x2="-5" y2="0" style="fill: none; stroke: #888; stroke-width: 1; opacity: 1;"></line><line transform="translate(0,33)" x2="-5" y2="0" style="fill: none; stroke: #888; stroke-width: 1; opacity: 1;"></line><line transform="translate(0,0)" x2="-5" y2="0" style="fill: none; stroke: #888; stroke-width: 1; opacity: 1;"></line></g><g class="mark-text role-axis-label" style="pointer-events: none;"><text text-anchor="end" transform="translate(-7,603)" style="font-family: sans-serif; font-size: 10px; fill: #000; opacity: 1;">0</text><text text-anchor="end" transform="translate(-7,569.6666666666666)" style="font-family: sans-serif; font-size: 10px; fill: #000; opacity: 1;">100</text><text text-anchor="end" transform="translate(-7,536.3333333333333)" style="font-family: sans-serif; font-size: 10px; fill: #000; opacity: 1;">200</text><text text-anchor="end" transform="translate(-7,503)" style="font-family: sans-serif; font-size: 10px; fill: #000; opacity: 1;">300</text><text text-anchor="end" transform="translate(-7,469.6666666666667)" style="font-family: sans-serif; font-size: 10px; fill: #000; opacity: 1;">400</text><text text-anchor="end" transform="translate(-7,436.3333333333333)" style="font-family: sans-serif; font-size: 10px; fill: #000; opacity: 1;">500</text><text text-anchor="end" transform="translate(-7,403.00000000000006)" style="font-family: sans-serif; font-size: 10px; fill: #000; opacity: 1;">600</text><text text-anchor="end" transform="translate(-7,369.6666666666667)" style="font-family: sans-serif; font-size: 10px; fill: #000; opacity: 1;">700</text><text text-anchor="end" transform="translate(-7,336.33333333333337)" style="font-family: sans-serif; font-size: 10px; fill: #000; opacity: 1;">800</text><text text-anchor="end" transform="translate(-7,303)" style="font-family: sans-serif; font-size: 10px; fill: #000; opacity: 1;">900</text><text text-anchor="end" transform="translate(-7,269.66666666666663)" style="font-family: sans-serif; font-size: 10px; fill: #000; opacity: 1;">1,000</text><text text-anchor="end" transform="translate(-7,236.33333333333331)" style="font-family: sans-serif; font-size: 10px; fill: #000; opacity: 1;">1,100</text><text text-anchor="end" transform="translate(-7,203.00000000000003)" style="font-family: sans-serif; font-size: 10px; fill: #000; opacity: 1;">1,200</text><text text-anchor="end" transform="translate(-7,169.66666666666669)" style="font-family: sans-serif; font-size: 10px; fill: #000; opacity: 1;">1,300</text><text text-anchor="end" transform="translate(-7,136.33333333333331)" style="font-family: sans-serif; font-size: 10px; fill: #000; opacity: 1;">1,400</text><text text-anchor="end" transform="translate(-7,102.99999999999997)" style="font-family: sans-serif; font-size: 10px; fill: #000; opacity: 1;">1,500</text><text text-anchor="end" transform="translate(-7,69.6666666666667)" style="font-family: sans-serif; font-size: 10px; fill: #000; opacity: 1;">1,600</text><text text-anchor="end" transform="translate(-7,36.33333333333335)" style="font-family: sans-serif; font-size: 10px; fill: #000; opacity: 1;">1,700</text><text text-anchor="end" transform="translate(-7,3)" style="font-family: sans-serif; font-size: 10px; fill: #000; opacity: 1;">1,800</text></g><g class="mark-rule role-axis-domain" style="pointer-events: none;"><line transform="translate(0,600)" x2="0" y2="-600" style="fill: none; stroke: #888; stroke-width: 1; opacity: 1;"></line></g><g class="mark-text role-axis-title" style="pointer-events: none;"><text text-anchor="middle" transform="translate(-51,300) rotate(-90) translate(0,-2)" style="font-family: sans-serif; font-size: 11px; font-weight: bold; fill: #000; opacity: 1;">Sum of Hours</text></g></g><path class="foreground" d="" style="pointer-events: none; display: none; fill: none;"></path></g></g><g class="mark-group role-scope pathgroup"><g transform="translate(0,0)"><path class="background" d="M0,0h800v600h-800Z" style="fill: none;"></path><g><g class="mark-line role-mark marks"><path d="M8.433734939759017,599.3333333333334L10.843373493975884,597L13.253012048192751,594.8333333333334L15.66265060240962,593.3333333333334L22.891566265060224,591.6666666666667L25.30120481927709,589.6666666666666L27.710843373493958,587.6666666666666L30.120481927710827,584.8333333333334L32.530120481927696,582.1666666666666L39.759036144578296,579.5L42.168674698795165,577L44.578313253012034,573.5L46.987951807228896,571L49.397590361445765,568.8333333333334L56.62650602409637,566L59.03614457831324,563.1666666666666L61.4457831325301,560.8333333333334L63.85542168674697,559.3333333333333L66.26506024096383,557.1666666666666L73.49397590361444,555.1666666666666L75.90361445783131,553.1666666666666L78.31325301204818,551.1666666666667L80.72289156626505,550.8333333333333L83.13253012048192,548.5L90.36144578313252,548.1666666666667L92.77108433734938,546.8333333333334L95.18072289156625,545.3333333333333L97.59036144578312,544L99.99999999999999,543L107.22891566265059,540.3333333333334L109.63855421686746,539.1666666666666L112.04819277108433,536.8333333333334L114.4578313253012,534.6666666666666L116.86746987951807,531.3333333333334L124.09638554216866,528.3333333333334L126.50602409638553,527.3333333333333L128.9156626506024,526.8333333333334L131.32530120481925,524.6666666666666L133.73493975903614,522.1666666666667L138.55421686746988,521.6666666666666L140.96385542168673,518.8333333333333L143.3734939759036,516.5L145.78313253012047,513.1666666666666L148.19277108433735,511.16666666666663L150.6024096385542,508.3333333333333L162.65060240963854,506.6666666666667L165.06024096385542,505.3333333333333L167.46987951807228,503.6666666666667L174.6987951807229,501L177.10843373493975,498.83333333333337L179.51807228915663,497L181.9277108433735,494L184.33734939759034,492.00000000000006L191.56626506024097,489.6666666666667L193.97590361445782,487.8333333333333L196.3855421686747,486.5L198.79518072289156,485.8333333333333L201.20481927710844,482.66666666666663L208.43373493975903,481L210.8433734939759,478.33333333333337L213.25301204819277,478L215.66265060240963,475.3333333333333L218.0722891566265,472.6666666666667L225.3012048192771,470.3333333333333L227.710843373494,467.66666666666663L230.12048192771084,465.99999999999994L232.53012048192772,463.83333333333337L234.93975903614458,461.33333333333337L239.75903614457832,459L242.16867469879517,458.1666666666667L244.57831325301206,455.6666666666667L246.9879518072289,451.83333333333337L249.3975903614458,450.5L256.6265060240964,447.8333333333333L259.03614457831327,445L261.4457831325301,442.16666666666663L273.49397590361446,439.3333333333333L275.90361445783134,436.99999999999994L278.3132530120482,435L285.5421686746988,432.1666666666667L287.95180722891564,430L290.3614457831325,426.8333333333333L292.7710843373494,425.50000000000006L295.1807228915663,423.00000000000006L302.4096385542169,422.1666666666667L304.81927710843377,419.83333333333337L307.2289156626506,417.00000000000006L309.6385542168675,415.1666666666667L312.04819277108436,413.8333333333333L319.27710843373495,411.33333333333326L321.68674698795184,409.33333333333337L324.09638554216866,406.83333333333337L326.50602409638554,405.83333333333337L333.73493975903614,403.5L336.144578313253,401L338.5542168674699,398L340.96385542168673,394.6666666666667L343.3734939759036,392.5L350.6024096385542,390.16666666666663L353.0120481927711,387.49999999999994L355.421686746988,383L357.83132530120486,380.33333333333337L360.2409638554217,377.5L367.4698795180723,374.6666666666667L369.87951807228916,371.83333333333337L372.28915662650604,369.1666666666667L374.6987951807229,366.16666666666663L377.10843373493975,363.5L384.3373493975904,360.8333333333333L386.7469879518072,358.49999999999994L389.1566265060241,355.8333333333333L391.566265060241,353.16666666666663L393.9759036144578,350.50000000000006L401.20481927710847,348.00000000000006L403.6144578313253,345.33333333333337L406.0240963855422,342.3333333333333L408.43373493975906,339.33333333333337L410.84337349397595,336.6666666666667L415.66265060240966,334.1666666666667L418.07228915662654,332.16666666666663L420.48192771084337,330.16666666666663L422.89156626506025,327.50000000000006L425.30120481927713,325.1666666666667L432.5301204819277,322.5L439.7590361445783,320.16666666666663L442.1686746987952,318.1666666666667L449.3975903614458,315.5L451.8072289156627,312.3333333333333L454.21686746987956,309L456.6265060240964,306.1666666666667L459.03614457831327,303.8333333333333L471.08433734939763,301.6666666666667L473.49397590361446,299.33333333333337L475.90361445783134,296.5L483.13253012048193,293.8333333333333L485.5421686746988,291.3333333333333L487.9518072289157,288.5L490.3614457831325,286L492.7710843373494,283.3333333333333L497.5903614457832,280.8333333333333L500,278.16666666666663L502.4096385542169,275.16666666666663L504.81927710843377,272.50000000000006L507.22891566265065,270.33333333333337L512.0481927710844,267.8333333333333L514.4578313253012,264.6666666666667L516.8674698795181,262.6666666666667L519.277108433735,260.16666666666663L521.6867469879518,258.00000000000006L526.5060240963855,255.49999999999997L528.9156626506025,252.49999999999997L531.3253012048193,249.99999999999997L533.7349397590361,247.33333333333337L536.1445783132531,245L540.9638554216867,242L543.3734939759037,239.66666666666669L545.7831325301205,237.16666666666663L548.1927710843373,236.16666666666669L550.6024096385543,234L555.421686746988,231.33333333333331L560.2409638554217,231L562.6506024096386,228.66666666666663L565.0602409638554,226.16666666666666L569.8795180722892,223.50000000000003L572.289156626506,222L574.6987951807229,219.83333333333331L577.1084337349398,217.25L579.5180722891566,214.91666666666669L584.3373493975904,212.58333333333331L586.7469879518072,210.25000000000003L589.1566265060242,207.58333333333334L591.566265060241,205.08333333333334L593.9759036144578,202.41666666666666L598.7951807228916,200.58333333333331L601.2048192771084,198.08333333333331L603.6144578313254,195.25L606.0240963855422,192.58333333333331L608.4337349397591,190.08333333333334L613.2530120481928,187.74999999999997L615.6626506024097,185.41666666666669L618.0722891566265,182.75L620.4819277108434,179.91666666666669L622.8915662650603,177.41666666666669L627.710843373494,175.25000000000003L630.1204819277109,172.91666666666666L634.9397590361447,170.41666666666666L637.3493975903615,168.25L639.7590361445783,165.91666666666669L646.9879518072289,164.58333333333334L649.3975903614459,161.74999999999997L651.8072289156627,159.41666666666669L654.2168674698795,157.08333333333331L659.0361445783133,154.41666666666669L661.4457831325302,151.41666666666669L663.855421686747,148.91666666666669L666.2650602409639,146.25L668.6746987951808,143.75000000000003L673.4939759036145,141.08333333333334L675.9036144578314,138.41666666666666L678.3132530120482,136.08333333333334L680.722891566265,133.91666666666669L683.132530120482,132.08333333333334L687.9518072289158,129.91666666666666L690.3614457831326,127.24999999999997L692.7710843373494,124.74999999999999L695.1807228915663,121.74999999999999L697.5903614457832,119.41666666666669L702.4096385542169,116.91666666666669L704.8192771084338,114.25L707.2289156626506,112.25000000000003L709.6385542168675,109.41666666666666L712.0481927710844,107.08333333333336L716.8674698795181,104.74999999999999L719.277108433735,102.0833333333333L721.6867469879519,99.41666666666669L724.0963855421687,96.75L726.5060240963855,94.08333333333331L731.3253012048193,92.74999999999997L733.7349397590361,90.24999999999999L736.1445783132531,87.5833333333333L738.5542168674699,84.91666666666669L740.9638554216868,82.58333333333331L745.7831325301205,81.91666666666669L748.1927710843374,78.91666666666669L750.6024096385543,76.0833333333333L753.0120481927711,74.25000000000001L755.421686746988,72.58333333333336L757.8313253012049,70.9166666666667L762.6506024096386,67.91666666666669L765.0602409638554,65.08333333333331L767.4698795180724,63.74999999999997L769.8795180722892,61.08333333333336L772.289156626506,58.583333333333364L774.698795180723,56.25L777.1084337349398,55.583333333333364L779.5180722891566,51.250000000000014L781.9277108433736,48.583333333333336L784.3373493975904,45.91666666666665L789.1566265060242,43.250000000000036L791.566265060241,40.58333333333335L793.9759036144579,37.916666666666664L796.3855421686748,35.24999999999998L798.7951807228916,32.583333333333364" style="fill: none; stroke: #4c78a8; stroke-width: 2;"></path></g></g><path class="foreground" d="" style="display: none; fill: none;"></path></g><g transform="translate(0,0)"><path class="background" d="M0,0h800v600h-800Z" style="fill: none;"></path><g><g class="mark-line role-mark marks"><path d="M6.0240963855421485,597.5L8.433734939759017,596.1666666666666L10.843373493975884,594L13.253012048192751,592.1666666666666L20.481927710843355,589.8333333333334L22.891566265060224,587.6666666666666L25.30120481927709,585.5L27.710843373493958,582.8333333333333L30.120481927710827,580.6666666666666L37.34939759036143,578L39.759036144578296,575.6666666666666L42.168674698795165,573.6666666666666L44.578313253012034,570.8333333333333L56.62650602409637,569.1666666666666L59.03614457831324,565.1666666666666L61.4457831325301,562.1666666666666L63.85542168674697,560L71.08433734939757,558.3333333333334L73.49397590361444,556L75.90361445783131,552.3333333333334L78.31325301204818,549.8333333333334L80.72289156626505,547.8333333333333L87.95180722891565,545.5L90.36144578313252,542.8333333333334L92.77108433734938,541.3333333333334L95.18072289156625,538.6666666666666L97.59036144578312,536.6666666666667L109.63855421686746,534L112.04819277108433,531.1666666666667L114.4578313253012,529.8333333333334L121.68674698795179,526.3333333333334L124.09638554216866,524.1666666666666L126.50602409638553,521.5L128.9156626506024,518.8333333333333L131.32530120481925,516.8333333333334L138.55421686746988,514.3333333333334L140.96385542168673,511.99999999999994L143.3734939759036,509.16666666666663L145.78313253012047,506.33333333333337L148.19277108433735,505L157.8313253012048,502.5L160.24096385542168,499.8333333333333L162.65060240963854,497.3333333333333L165.06024096385542,494.66666666666663L172.289156626506,492.1666666666667L174.6987951807229,490.1666666666667L177.10843373493975,488.5L179.51807228915663,486.1666666666667L181.9277108433735,483.16666666666663L191.56626506024097,481.5L193.97590361445782,476.16666666666663L196.3855421686747,478L198.79518072289156,473.8333333333333L206.02409638554218,472L208.43373493975903,469.33333333333337L210.8433734939759,466.6666666666667L213.25301204819277,464.5L215.66265060240963,462.1666666666667L222.89156626506025,459.5L225.3012048192771,458.5L227.710843373494,455.8333333333333L230.12048192771084,453.8333333333333L254.21686746987953,451.16666666666663L256.6265060240964,448.83333333333326L259.03614457831327,446.6666666666667L261.4457831325301,444L263.855421686747,441.8333333333333L266.26506024096386,439.83333333333337L268.67469879518075,438L271.0843373493976,435.5L273.49397590361446,433.66666666666663L275.90361445783134,431.50000000000006L285.5421686746988,428.83333333333337L287.95180722891564,427.1666666666667L290.3614457831325,425.16666666666663L292.7710843373494,424.5L300,422.83333333333337L302.4096385542169,420.33333333333337L304.81927710843377,419.66666666666663L307.2289156626506,417.5L309.6385542168675,416L316.86746987951807,414.1666666666667L319.27710843373495,412.6666666666667L321.68674698795184,411.6666666666667L324.09638554216866,410L326.50602409638554,409.5L336.144578313253,407.8333333333333L338.5542168674699,406.00000000000006L340.96385542168673,404.5L348.1927710843374,401.8333333333333L350.6024096385542,400.00000000000006L353.0120481927711,397.5L355.421686746988,394.91666666666674L357.83132530120486,392.4166666666667L365.06024096385545,389.75000000000006L367.4698795180723,385.91666666666663L369.87951807228916,383.58333333333337L372.28915662650604,380.9166666666667L374.6987951807229,378.58333333333337L381.9277108433735,376.75L384.3373493975904,375.08333333333337L386.7469879518072,372.3333333333333L389.1566265060241,370.66666666666663L391.566265060241,367.5L398.7951807228916,365.6666666666667L401.20481927710847,364.1666666666667L403.6144578313253,361.8333333333333L406.0240963855422,359.83333333333337L408.43373493975906,357.8333333333333L413.2530120481928,355.8333333333333L415.66265060240966,354.5L420.48192771084337,352.5L422.89156626506025,351.6666666666667L430.12048192771084,349L434.9397590361446,346.33333333333337L437.3493975903615,343.6666666666667L439.7590361445783,341L446.9879518072289,337.6666666666667L449.3975903614458,335L451.8072289156627,332.16666666666663L454.21686746987956,330.16666666666663L456.6265060240964,329.8333333333333L463.85542168674704,329.5L466.26506024096386,329L468.67469879518075,328.33333333333337L471.08433734939763,326.8333333333333L473.49397590361446,325.83333333333337L480.7228915662651,325.00000000000006L483.13253012048193,323.8333333333333L485.5421686746988,322.8333333333333L487.9518072289157,321.50000000000006L490.3614457831325,320.5L495.1807228915663,319.5L500,317.8333333333333L502.4096385542169,316.1666666666667L504.81927710843377,315.16666666666663L509.6385542168675,314.5L512.0481927710844,313.5L514.4578313253012,312.49999999999994L516.8674698795181,311.5L519.277108433735,309.8333333333333L524.0963855421687,307.16666666666663L526.5060240963855,304.50000000000006L528.9156626506025,301.83333333333337L531.3253012048193,299.5L533.7349397590361,296.8333333333333L538.5542168674699,295.50000000000006L540.9638554216867,294.6666666666667L543.3734939759037,293L545.7831325301205,291.5L548.1927710843373,290.33333333333337L553.0120481927711,288.1666666666667L555.421686746988,286L557.8313253012049,284.00000000000006L560.2409638554217,282.8333333333333L567.4698795180723,280.1666666666667L569.8795180722892,279.1666666666667L572.289156626506,278.49999999999994L574.6987951807229,275.49999999999994L577.1084337349398,273.8333333333333L581.9277108433736,272.16666666666663L584.3373493975904,269.83333333333337L586.7469879518072,267.8333333333333L589.1566265060242,266.66666666666663L591.566265060241,264.33333333333337L596.3855421686748,262.8333333333333L598.7951807228916,262L601.2048192771084,261.1666666666667L603.6144578313254,259.8333333333333L606.0240963855422,258.5L610.843373493976,257.1666666666667L613.2530120481928,255.49999999999997L615.6626506024097,252.83333333333334L618.0722891566265,250.33333333333337L620.4819277108434,248.5L625.3012048192771,246.83333333333334L627.710843373494,245.16666666666669L630.1204819277109,243.66666666666666L632.5301204819277,240L634.9397590361447,237.66666666666666L637.3493975903615,235.16666666666666L642.1686746987953,230.83333333333331L644.5783132530121,233.16666666666669L646.9879518072289,228.66666666666663L649.3975903614459,226.99999999999997L651.8072289156627,225L656.6265060240964,222.66666666666663L659.0361445783133,222L661.4457831325302,220.16666666666666L663.855421686747,218.49999999999997L666.2650602409639,216.5L671.0843373493976,214.50000000000003L673.4939759036145,211.83333333333334L675.9036144578314,209.49999999999997L680.722891566265,207.5L685.5421686746988,206.00000000000003L690.3614457831326,204.66666666666669L692.7710843373494,202.33333333333331L695.1807228915663,199.66666666666663L700,197.66666666666666L702.4096385542169,197.16666666666666L704.8192771084338,195.16666666666666L707.2289156626506,193.33333333333331L709.6385542168675,191L714.4578313253013,188.99999999999997L716.8674698795181,187.16666666666669L719.277108433735,184.5L721.6867469879519,181.83333333333331L724.0963855421687,179.16666666666669L728.9156626506025,177.16666666666666L731.3253012048193,174.99999999999997L733.7349397590361,172.66666666666669L736.1445783132531,170.66666666666669L738.5542168674699,168.33333333333334L743.3734939759037,165.99999999999997L745.7831325301205,163.66666666666669L748.1927710843374,161.33333333333331L753.0120481927711,158.66666666666669L760.2409638554217,156L762.6506024096386,155.66666666666669L765.0602409638554,154.83333333333334L774.698795180723,154.00000000000003L786.7469879518072,151.33333333333334L791.566265060241,148.66666666666666L796.3855421686748,146.33333333333337L798.7951807228916,144.66666666666669" style="fill: none; stroke: #f58518; stroke-width: 2;"></path></g></g><path class="foreground" d="" style="display: none; fill: none;"></path></g><g transform="translate(0,0)"><path class="background" d="M0,0h800v600h-800Z" style="fill: none;"></path><g><g class="mark-line role-mark marks"><path d="M1.2048192771084132,597.3333333333334L3.614457831325281,595.8333333333334L6.0240963855421485,594.8333333333334L8.433734939759017,592.8333333333334L10.843373493975884,590.8333333333334L18.072289156626486,588.8333333333334L20.481927710843355,587.1666666666666L22.891566265060224,585L25.30120481927709,582.6666666666667L27.710843373493958,581.8333333333334L34.93975903614456,579.8333333333333L39.759036144578296,579.5L42.168674698795165,578L44.578313253012034,575.1666666666666L51.807228915662634,573.1666666666666L54.2168674698795,571L56.62650602409637,568.8333333333334L59.03614457831324,567.1666666666666L61.4457831325301,566.1666666666666L68.6746987951807,564.5L71.08433734939757,562.3333333333333L73.49397590361444,560.1666666666667L75.90361445783131,559L78.31325301204818,557.6666666666666L85.54216867469879,556.3333333333333L87.95180722891565,555.1666666666666L90.36144578313252,553L92.77108433734938,551.3333333333334L95.18072289156625,549.8333333333334L102.40963855421685,548.3333333333334L104.81927710843372,547L107.22891566265059,545.8333333333334L109.63855421686746,544.5833333333334L112.04819277108433,543.0833333333334L119.27710843373492,541.4166666666667L121.68674698795179,539.3333333333333L124.09638554216866,537.6666666666666L126.50602409638553,535.8333333333334L128.9156626506024,534.6666666666666L133.73493975903614,534.5L136.144578313253,532.6666666666666L138.55421686746988,530.5L140.96385542168673,528.3333333333334L143.3734939759036,527L145.78313253012047,525.5L153.0120481927711,524L155.42168674698794,522.3333333333334L157.8313253012048,520.6666666666666L160.24096385542168,519.3333333333333L162.65060240963854,518.3333333333334L169.87951807228916,517.5L172.289156626506,515.8333333333334L174.6987951807229,514L177.10843373493975,513.1666666666666L179.51807228915663,511.5L186.74698795180723,509.5L189.15662650602408,508L191.56626506024097,505L193.97590361445782,503.49999999999994L196.3855421686747,502.1666666666667L198.79518072289156,501.5L203.6144578313253,499.6666666666667L206.02409638554218,497.66666666666663L208.43373493975903,495.6666666666667L210.8433734939759,494L213.25301204819277,492.33333333333337L220.48192771084337,490.5L222.89156626506025,488.99999999999994L225.3012048192771,487.1666666666667L227.710843373494,485.8333333333333L230.12048192771084,484.1666666666667L237.34939759036143,481.3333333333333L239.75903614457832,479.1666666666667L244.57831325301206,477.83333333333337L251.80722891566265,476.16666666666663L254.21686746987953,475.3333333333333L256.6265060240964,473.8333333333333L259.03614457831327,472.1666666666667L261.4457831325301,471.66666666666663L280.72289156626505,471.50000000000006L283.13253012048193,471.3333333333333L287.95180722891564,469.5L290.3614457831325,468.3333333333333L297.5903614457831,466.5L300,465.16666666666663L302.4096385542169,463.5L304.81927710843377,462.1666666666667L307.2289156626506,461L314.4578313253012,459.3333333333333L316.86746987951807,457.83333333333337L319.27710843373495,456L321.68674698795184,454.6666666666667L324.09638554216866,453.6666666666667L328.9156626506024,451.3333333333333L331.3253012048193,448.3333333333333L333.73493975903614,446.3333333333333L336.144578313253,445L338.5542168674699,444L345.7831325301205,442.3333333333333L348.1927710843374,441L350.6024096385542,438.33333333333337L353.0120481927711,435.6666666666667L355.421686746988,434.33333333333337L362.65060240963857,432.66666666666663L365.06024096385545,431.6666666666667L367.4698795180723,429.6666666666667L369.87951807228916,428.6666666666667L372.28915662650604,427.3333333333333L379.51807228915663,426L381.9277108433735,424.8333333333333L384.3373493975904,422L386.7469879518072,419.16666666666663L389.1566265060241,417.83333333333337L396.3855421686747,415.8333333333333L398.7951807228916,414.1666666666667L401.20481927710847,412.6666666666667L403.6144578313253,410.66666666666663L406.0240963855422,410L415.66265060240966,409L418.07228915662654,407.16666666666663L420.48192771084337,405.6666666666667L427.710843373494,404L430.12048192771084,402.33333333333337L432.5301204819277,400.5833333333333L434.9397590361446,399.41666666666663L437.3493975903615,398.4166666666667L439.7590361445783,397.91666666666663L444.5783132530121,396.58333333333337L446.9879518072289,394.1666666666667L449.3975903614458,392.1666666666667L451.8072289156627,390.83333333333337L454.21686746987956,388.83333333333337L461.44578313253015,385.8333333333333L463.85542168674704,383.1666666666667L466.26506024096386,381.8333333333333L468.67469879518075,378.8333333333333L471.08433734939763,376.49999999999994L478.3132530120482,374.8333333333333L480.7228915662651,373.50000000000006L483.13253012048193,372.8333333333333L485.5421686746988,372.5" style="fill: none; stroke: #e45756; stroke-width: 2;"></path></g></g><path class="foreground" d="" style="display: none; fill: none;"></path></g></g><g class="mark-group role-legend"><g transform="translate(819,0)"><path class="background" d="M0,0h61v53h-61Z" style="pointer-events: none; fill: none;"></path><g><g class="mark-group role-legend-entry"><g transform="translate(0,16)"><path class="background" d="M0,0h0v0h0Z" style="pointer-events: none; fill: none;"></path><g><g class="mark-group role-scope"><g transform="translate(0,0)"><path class="background" d="M0,0h48v11h-48Z" style="pointer-events: none; fill: none; opacity: 1;"></path><g><g class="mark-symbol role-legend-symbol" style="pointer-events: none;"><path transform="translate(6,6)" d="M-5,0L5,0" style="fill: none; stroke: #4c78a8; stroke-width: 1.5; opacity: 1;"></path></g><g class="mark-text role-legend-label" style="pointer-events: none;"><text text-anchor="start" transform="translate(16,9)" style="font-family: sans-serif; font-size: 10px; fill: #000; opacity: 1;">2021</text></g></g><path class="foreground" d="" style="pointer-events: none; display: none; fill: none;"></path></g><g transform="translate(0,13)"><path class="background" d="M0,0h48v11h-48Z" style="pointer-events: none; fill: none; opacity: 1;"></path><g><g class="mark-symbol role-legend-symbol" style="pointer-events: none;"><path transform="translate(6,6)" d="M-5,0L5,0" style="fill: none; stroke: #f58518; stroke-width: 1.5; opacity: 1;"></path></g><g class="mark-text role-legend-label" style="pointer-events: none;"><text text-anchor="start" transform="translate(16,9)" style="font-family: sans-serif; font-size: 10px; fill: #000; opacity: 1;">2022</text></g></g><path class="foreground" d="" style="pointer-events: none; display: none; fill: none;"></path></g><g transform="translate(0,26)"><path class="background" d="M0,0h48v11h-48Z" style="pointer-events: none; fill: none; opacity: 1;"></path><g><g class="mark-symbol role-legend-symbol" style="pointer-events: none;"><path transform="translate(6,6)" d="M-5,0L5,0" style="fill: none; stroke: #e45756; stroke-width: 1.5; opacity: 1;"></path></g><g class="mark-text role-legend-label" style="pointer-events: none;"><text text-anchor="start" transform="translate(16,9)" style="font-family: sans-serif; font-size: 10px; fill: #000; opacity: 1;">2023</text></g></g><path class="foreground" d="" style="pointer-events: none; display: none; fill: none;"></path></g></g></g><path class="foreground" d="" style="pointer-events: none; display: none; fill: none;"></path></g></g><g class="mark-text role-legend-title" style="pointer-events: none;"><text text-anchor="start" transform="translate(0,9)" style="font-family: sans-serif; font-size: 11px; font-weight: bold; fill: #000; opacity: 1;">Project</text></g></g><path class="foreground" d="" style="pointer-events: none; display: none; fill: none;"></path></g></g></g><path class="foreground" d="" style="display: none; fill: none;"></path></g></g></g></svg>