<svg class="marks" width="810" height="627" viewBox="0 0 810 627" version="1.1" xmlns="http://www.w3.org/2000/svg" xmlns:xlink="http://www.w3.org/1999/xlink"><rect width="810" height="627" style="fill: white;"></rect><g transform="translate(5,22)"><g class="mark-group role-frame root"><g transform="translate(0,0)"><path class="background" d="M0.5,0.5h800v600h-800Z" style="fill: none; stroke: none;"></path><g><g class="mark-arc role-mark layer_0_marks"><path transform="translate(400,300)" d="M-215.38835589125108,70.60902154995186A226.6666666666667,226.6666666666667,0,0,0,-183.0644746909221,133.66067441066775L0,0Z" style="fill: #54a24b;"></path><path transform="translate(400,300)" d="M-142.45083497252514,176.3109111581249A226.6666666666667,226.6666666666667,0,0,0,166.41624851008703,153.8941519668852L0,0Z" style="fill: #e45756;"></path><path transform="translate(400,300)" d="M-4.1637991171010013e-14,-226.6666666666667A226.6666666666667,226.6666666666667,0,0,0,-36.67804783449041,-223.67945499045868L0,0Z" style="fill: #ff9da6;"></path><path transform="translate(400,300)" d="M166.41624851008703,153.8941519668852A226.6666666666667,226.6666666666667,0,0,0,143.99936166689085,-175.04845505546675L0,0Z" style="fill: #f58518;"></path><path transform="translate(400,300)" d="M-183.0644746909221,133.66067441066775A226.6666666666667,226.6666666666667,0,0,0,-142.45083497252514,176.3109111581249L0,0Z" style="fill: #72b7b2;"></path><path transform="translate(400,300)" d="M143.99936166689085,-175.04845505546675A226.6666666666667,226.6666666666667,0,0,0,1.3879330390336672e-14,-226.6666666666667L0,0Z" style="fill: #4c78a8;"></path><path transform="translate(400,300)" d="M-158.57155526227731,-161.96555078003576A226.6666666666667,226.6666666666667,0,0,0,-215.38835589125108,70.60902154995186L0,0Z" style="fill: #eeca3b;"></path><path transform="translate(400,300)" d="M-36.67804783449041,-223.67945499045868A226.6666666666667,226.6666666666667,0,0,0,-158.57155526227731,-161.96555078003576L0,0Z" style="fill: #b279a2;"></path></g><g class="mark-text role-mark layer_1_marks"><text text-anchor="middle" transform="translate(162.69960554875237,427.653745952985)" style="font-family: sans-serif; font-size: 20px; fill: #54a24b;">GE21</text><text text-anchor="middle" transform="translate(419.30319136230287,571.9670993080563)" style="font-family: sans-serif; font-size: 20px; fill: #e45756;">ETL</text><text text-anchor="middle" transform="translate(378.35323987939734,40.21337714739627)" style="font-family: sans-serif; font-size: 20px; fill: #ff9da6;">OTHER</text><text text-anchor="middle" transform="translate(666.0495893601181,287.86916680282974)" style="font-family: sans-serif; font-size: 20px; fill: #f58518;">ETC</text><text text-anchor="middle" transform="translate(206.88381366241632,489.8946700846405)" style="font-family: sans-serif; font-size: 20px; fill: #72b7b2;">GE11</text><text text-anchor="middle" transform="translate(489.9831893765958,54.97383255778527)" style="font-family: sans-serif; font-size: 20px; fill: #4c78a8;">APOLLO</text><text text-anchor="middle" transform="translate(140.95133665511395,242.7157118208712)" style="font-family: sans-serif; font-size: 20px; fill: #eeca3b;">L0MDT</text><text text-anchor="middle" transform="translate(279.5466845414314,68.08802067539835)" style="font-family: sans-serif; font-size: 20px; fill: #b279a2;">ME0</text></g><g class="mark-group role-title"><g transform="translate(400,-17)"><path class="background" d="M0,0h0v0h0Z" style="pointer-events: none; fill: none;"></path><g><g class="mark-text role-title-text" style="pointer-events: none;"><text text-anchor="middle" transform="translate(0,10)" style="font-family: sans-serif; font-size: 13px; font-weight: bold; fill: #000; opacity: 1;">EDF Work</text></g></g><path class="foreground" d="" style="pointer-events: none; display: none; fill: none;"></path></g></g></g><path class="foreground" d="" style="display: none; fill: none;"></path></g></g></g></svg>