<svg class="marks" width="952" height="653" viewBox="0 0 952 653" version="1.1" xmlns="http://www.w3.org/2000/svg" xmlns:xlink="http://www.w3.org/1999/xlink"><rect width="952" height="653" style="fill: white;"></rect><g transform="translate(67,10)"><g class="mark-group role-frame root"><g transform="translate(0,0)"><path class="background" d="M0.5,0.5h800v600h-800Z" style="fill: none; stroke: #ddd;"></path><g><g class="mark-group role-axis"><g transform="translate(0.5,0.5)"><path class="background" d="M0,0h0v0h0Z" style="pointer-events: none; fill: none;"></path><g><g class="mark-rule role-axis-grid" style="pointer-events: none;"><line transform="translate(0,600)" x2="800" y2="0" style="fill: none; stroke: #ddd; stroke-width: 1; opacity: 1;"></line><line transform="translate(0,567)" x2="800" y2="0" style="fill: none; stroke: #ddd; stroke-width: 1; opacity: 1;"></line><line transform="translate(0,533)" x2="800" y2="0" style="fill: none; stroke: #ddd; stroke-width: 1; opacity: 1;"></line><line transform="translate(0,500)" x2="800" y2="0" style="fill: none; stroke: #ddd; stroke-width: 1; opacity: 1;"></line><line transform="translate(0,467)" x2="800" y2="0" style="fill: none; stroke: #ddd; stroke-width: 1; opacity: 1;"></line><line transform="translate(0,433)" x2="800" y2="0" style="fill: none; stroke: #ddd; stroke-width: 1; opacity: 1;"></line><line transform="translate(0,400)" x2="800" y2="0" style="fill: none; stroke: #ddd; stroke-width: 1; opacity: 1;"></line><line transform="translate(0,367)" x2="800" y2="0" style="fill: none; stroke: #ddd; stroke-width: 1; opacity: 1;"></line><line transform="translate(0,333)" x2="800" y2="0" style="fill: none; stroke: #ddd; stroke-width: 1; opacity: 1;"></line><line transform="translate(0,300)" x2="800" y2="0" style="fill: none; stroke: #ddd; stroke-width: 1; opacity: 1;"></line><line transform="translate(0,267)" x2="800" y2="0" style="fill: none; stroke: #ddd; stroke-width: 1; opacity: 1;"></line><line transform="translate(0,233)" x2="800" y2="0" style="fill: none; stroke: #ddd; stroke-width: 1; opacity: 1;"></line><line transform="translate(0,200)" x2="800" y2="0" style="fill: none; stroke: #ddd; stroke-width: 1; opacity: 1;"></line><line transform="translate(0,167)" x2="800" y2="0" style="fill: none; stroke: #ddd; stroke-width: 1; opacity: 1;"></line><line transform="translate(0,133)" x2="800" y2="0" style="fill: none; stroke: #ddd; stroke-width: 1; opacity: 1;"></line><line transform="translate(0,100)" x2="800" y2="0" style="fill: none; stroke: #ddd; stroke-width: 1; opacity: 1;"></line><line transform="translate(0,67)" x2="800" y2="0" style="fill: none; stroke: #ddd; stroke-width: 1; opacity: 1;"></line><line transform="translate(0,33)" x2="800" y2="0" style="fill: none; stroke: #ddd; stroke-width: 1; opacity: 1;"></line><line transform="translate(0,0)" x2="800" y2="0" style="fill: none; stroke: #ddd; stroke-width: 1; opacity: 1;"></line></g></g><path class="foreground" d="" style="pointer-events: none; display: none; fill: none;"></path></g></g><g class="mark-group role-axis"><g transform="translate(0.5,600.5)"><path class="background" d="M0,0h0v0h0Z" style="pointer-events: none; fill: none;"></path><g><g class="mark-rule role-axis-tick" style="pointer-events: none;"><line transform="translate(9,0)" x2="0" y2="5" style="fill: none; stroke: #888; stroke-width: 1; opacity: 1;"></line><line transform="translate(77,0)" x2="0" y2="5" style="fill: none; stroke: #888; stroke-width: 1; opacity: 1;"></line><line transform="translate(149,0)" x2="0" y2="5" style="fill: none; stroke: #888; stroke-width: 1; opacity: 1;"></line><line transform="translate(227,0)" x2="0" y2="5" style="fill: none; stroke: #888; stroke-width: 1; opacity: 1;"></line><line transform="translate(288,0)" x2="0" y2="5" style="fill: none; stroke: #888; stroke-width: 1; opacity: 1;"></line><line transform="translate(347,0)" x2="0" y2="5" style="fill: none; stroke: #888; stroke-width: 1; opacity: 1;"></line><line transform="translate(413,0)" x2="0" y2="5" style="fill: none; stroke: #888; stroke-width: 1; opacity: 1;"></line><line transform="translate(481,0)" x2="0" y2="5" style="fill: none; stroke: #888; stroke-width: 1; opacity: 1;"></line><line transform="translate(547,0)" x2="0" y2="5" style="fill: none; stroke: #888; stroke-width: 1; opacity: 1;"></line><line transform="translate(613,0)" x2="0" y2="5" style="fill: none; stroke: #888; stroke-width: 1; opacity: 1;"></line><line transform="translate(667,0)" x2="0" y2="5" style="fill: none; stroke: #888; stroke-width: 1; opacity: 1;"></line><line transform="translate(733,0)" x2="0" y2="5" style="fill: none; stroke: #888; stroke-width: 1; opacity: 1;"></line></g><g class="mark-text role-axis-label" style="pointer-events: none;"><text text-anchor="end" transform="translate(8.888888888888884,7) rotate(270) translate(0,3)" style="font-family: sans-serif; font-size: 10px; fill: #000; opacity: 1;">1</text><text text-anchor="end" transform="translate(77.46031746031746,7) rotate(270) translate(0,3)" style="font-family: sans-serif; font-size: 10px; fill: #000; opacity: 1;">2</text><text text-anchor="end" transform="translate(148.57142857142856,7) rotate(270) translate(0,3)" style="font-family: sans-serif; font-size: 10px; fill: #000; opacity: 1;">3</text><text text-anchor="end" transform="translate(227.3015873015873,7) rotate(270) translate(0,3)" style="font-family: sans-serif; font-size: 10px; fill: #000; opacity: 1;">4</text><text text-anchor="end" transform="translate(288.25396825396825,7) rotate(270) translate(0,3)" style="font-family: sans-serif; font-size: 10px; fill: #000; opacity: 1;">5</text><text text-anchor="end" transform="translate(346.66666666666663,7) rotate(270) translate(0,3)" style="font-family: sans-serif; font-size: 10px; fill: #000; opacity: 1;">6</text><text text-anchor="end" transform="translate(412.69841269841265,7) rotate(270) translate(0,3)" style="font-family: sans-serif; font-size: 10px; fill: #000; opacity: 1;">7</text><text text-anchor="end" transform="translate(481.26984126984127,7) rotate(270) translate(0,3)" style="font-family: sans-serif; font-size: 10px; fill: #000; opacity: 1;">8</text><text text-anchor="end" transform="translate(547.3015873015872,7) rotate(270) translate(0,3)" style="font-family: sans-serif; font-size: 10px; fill: #000; opacity: 1;">9</text><text text-anchor="end" transform="translate(613.3333333333333,7) rotate(270) translate(0,3)" style="font-family: sans-serif; font-size: 10px; fill: #000; opacity: 1;">10</text><text text-anchor="end" transform="translate(666.6666666666665,7) rotate(270) translate(0,3)" style="font-family: sans-serif; font-size: 10px; fill: #000; opacity: 1;">11</text><text text-anchor="end" transform="translate(732.6984126984125,7) rotate(270) translate(0,3)" style="font-family: sans-serif; font-size: 10px; fill: #000; opacity: 1;">12</text></g><g class="mark-rule role-axis-domain" style="pointer-events: none;"><line transform="translate(0,0)" x2="800" y2="0" style="fill: none; stroke: #888; stroke-width: 1; opacity: 1;"></line></g><g class="mark-text role-axis-title" style="pointer-events: none;"><text text-anchor="middle" transform="translate(400,36)" style="font-family: sans-serif; font-size: 11px; font-weight: bold; fill: #000; opacity: 1;">Date</text></g></g><path class="foreground" d="" style="pointer-events: none; display: none; fill: none;"></path></g></g><g class="mark-group role-axis"><g transform="translate(0.5,0.5)"><path class="background" d="M0,0h0v0h0Z" style="pointer-events: none; fill: none;"></path><g><g class="mark-rule role-axis-tick" style="pointer-events: none;"><line transform="translate(0,600)" x2="-5" y2="0" style="fill: none; stroke: #888; stroke-width: 1; opacity: 1;"></line><line transform="translate(0,567)" x2="-5" y2="0" style="fill: none; stroke: #888; stroke-width: 1; opacity: 1;"></line><line transform="translate(0,533)" x2="-5" y2="0" style="fill: none; stroke: #888; stroke-width: 1; opacity: 1;"></line><line transform="translate(0,500)" x2="-5" y2="0" style="fill: none; stroke: #888; stroke-width: 1; opacity: 1;"></line><line transform="translate(0,467)" x2="-5" y2="0" style="fill: none; stroke: #888; stroke-width: 1; opacity: 1;"></line><line transform="translate(0,433)" x2="-5" y2="0" style="fill: none; stroke: #888; stroke-width: 1; opacity: 1;"></line><line transform="translate(0,400)" x2="-5" y2="0" style="fill: none; stroke: #888; stroke-width: 1; opacity: 1;"></line><line transform="translate(0,367)" x2="-5" y2="0" style="fill: none; stroke: #888; stroke-width: 1; opacity: 1;"></line><line transform="translate(0,333)" x2="-5" y2="0" style="fill: none; stroke: #888; stroke-width: 1; opacity: 1;"></line><line transform="translate(0,300)" x2="-5" y2="0" style="fill: none; stroke: #888; stroke-width: 1; opacity: 1;"></line><line transform="translate(0,267)" x2="-5" y2="0" style="fill: none; stroke: #888; stroke-width: 1; opacity: 1;"></line><line transform="translate(0,233)" x2="-5" y2="0" style="fill: none; stroke: #888; stroke-width: 1; opacity: 1;"></line><line transform="translate(0,200)" x2="-5" y2="0" style="fill: none; stroke: #888; stroke-width: 1; opacity: 1;"></line><line transform="translate(0,167)" x2="-5" y2="0" style="fill: none; stroke: #888; stroke-width: 1; opacity: 1;"></line><line transform="translate(0,133)" x2="-5" y2="0" style="fill: none; stroke: #888; stroke-width: 1; opacity: 1;"></line><line transform="translate(0,100)" x2="-5" y2="0" style="fill: none; stroke: #888; stroke-width: 1; opacity: 1;"></line><line transform="translate(0,67)" x2="-5" y2="0" style="fill: none; stroke: #888; stroke-width: 1; opacity: 1;"></line><line transform="translate(0,33)" x2="-5" y2="0" style="fill: none; stroke: #888; stroke-width: 1; opacity: 1;"></line><line transform="translate(0,0)" x2="-5" y2="0" style="fill: none; stroke: #888; stroke-width: 1; opacity: 1;"></line></g><g class="mark-text role-axis-label" style="pointer-events: none;"><text text-anchor="end" transform="translate(-7,603)" style="font-family: sans-serif; font-size: 10px; fill: #000; opacity: 1;">0</text><text text-anchor="end" transform="translate(-7,569.6666666666666)" style="font-family: sans-serif; font-size: 10px; fill: #000; opacity: 1;">100</text><text text-anchor="end" transform="translate(-7,536.3333333333333)" style="font-family: sans-serif; font-size: 10px; fill: #000; opacity: 1;">200</text><text text-anchor="end" transform="translate(-7,503)" style="font-family: sans-serif; font-size: 10px; fill: #000; opacity: 1;">300</text><text text-anchor="end" transform="translate(-7,469.6666666666667)" style="font-family: sans-serif; font-size: 10px; fill: #000; opacity: 1;">400</text><text text-anchor="end" transform="translate(-7,436.3333333333333)" style="font-family: sans-serif; font-size: 10px; fill: #000; opacity: 1;">500</text><text text-anchor="end" transform="translate(-7,403.00000000000006)" style="font-family: sans-serif; font-size: 10px; fill: #000; opacity: 1;">600</text><text text-anchor="end" transform="translate(-7,369.6666666666667)" style="font-family: sans-serif; font-size: 10px; fill: #000; opacity: 1;">700</text><text text-anchor="end" transform="translate(-7,336.33333333333337)" style="font-family: sans-serif; font-size: 10px; fill: #000; opacity: 1;">800</text><text text-anchor="end" transform="translate(-7,303)" style="font-family: sans-serif; font-size: 10px; fill: #000; opacity: 1;">900</text><text text-anchor="end" transform="translate(-7,269.66666666666663)" style="font-family: sans-serif; font-size: 10px; fill: #000; opacity: 1;">1,000</text><text text-anchor="end" transform="translate(-7,236.33333333333331)" style="font-family: sans-serif; font-size: 10px; fill: #000; opacity: 1;">1,100</text><text text-anchor="end" transform="translate(-7,203.00000000000003)" style="font-family: sans-serif; font-size: 10px; fill: #000; opacity: 1;">1,200</text><text text-anchor="end" transform="translate(-7,169.66666666666669)" style="font-family: sans-serif; font-size: 10px; fill: #000; opacity: 1;">1,300</text><text text-anchor="end" transform="translate(-7,136.33333333333331)" style="font-family: sans-serif; font-size: 10px; fill: #000; opacity: 1;">1,400</text><text text-anchor="end" transform="translate(-7,102.99999999999997)" style="font-family: sans-serif; font-size: 10px; fill: #000; opacity: 1;">1,500</text><text text-anchor="end" transform="translate(-7,69.6666666666667)" style="font-family: sans-serif; font-size: 10px; fill: #000; opacity: 1;">1,600</text><text text-anchor="end" transform="translate(-7,36.33333333333335)" style="font-family: sans-serif; font-size: 10px; fill: #000; opacity: 1;">1,700</text><text text-anchor="end" transform="translate(-7,3)" style="font-family: sans-serif; font-size: 10px; fill: #000; opacity: 1;">1,800</text></g><g class="mark-rule role-axis-domain" style="pointer-events: none;"><line transform="translate(0,600)" x2="0" y2="-600" style="fill: none; stroke: #888; stroke-width: 1; opacity: 1;"></line></g><g class="mark-text role-axis-title" style="pointer-events: none;"><text text-anchor="middle" transform="translate(-51,300) rotate(-90) translate(0,-2)" style="font-family: sans-serif; font-size: 11px; font-weight: bold; fill: #000; opacity: 1;">Sum of Hours</text></g></g><path class="foreground" d="" style="pointer-events: none; display: none; fill: none;"></path></g></g><g class="mark-group role-scope pathgroup"><g transform="translate(0,0)"><path class="background" d="M0,0h800v600h-800Z" style="fill: none;"></path><g><g class="mark-line role-mark marks"><path d="M8.888888888888884,599.3333333333334L11.428571428571423,597L13.968253968253963,594.8333333333334L16.507936507936503,593.3333333333334L24.12698412698412,591.6666666666667L26.66666666666666,589.6666666666666L29.206349206349202,587.6666666666666L31.74603174603174,584.8333333333334L34.28571428571428,582.1666666666666L41.9047619047619,579.5L44.444444444444436,577L46.98412698412697,573.5L49.52380952380952,571L52.063492063492056,568.8333333333334L59.68253968253968,566L62.222222222222214,563.1666666666666L64.76190476190476,560.8333333333334L67.30158730158729,559.3333333333333L69.84126984126983,557.1666666666666L77.46031746031746,555.1666666666666L79.99999999999999,553.1666666666666L82.53968253968253,551.1666666666667L85.07936507936508,550.8333333333333L87.6190476190476,548.5L95.23809523809523,548.1666666666667L97.77777777777777,546.8333333333334L100.3174603174603,545.3333333333333L102.85714285714285,544L105.39682539682539,543L113.01587301587301,540.3333333333334L115.55555555555554,539.1666666666666L118.09523809523809,536.8333333333334L120.63492063492062,534.6666666666666L123.17460317460316,531.3333333333334L130.79365079365078,528.3333333333334L133.33333333333331,527.3333333333333L135.87301587301587,526.8333333333334L138.4126984126984,524.6666666666666L140.95238095238093,522.1666666666667L146.03174603174602,521.6666666666666L148.57142857142856,518.8333333333333L151.1111111111111,516.5L153.65079365079364,513.1666666666666L156.19047619047618,511.16666666666663L158.7301587301587,508.3333333333333L171.42857142857142,506.6666666666667L173.96825396825395,505.3333333333333L176.5079365079365,503.6666666666667L184.1269841269841,501L186.66666666666666,498.83333333333337L189.2063492063492,497L191.74603174603172,494L194.28571428571428,492.00000000000006L201.9047619047619,489.6666666666667L204.44444444444443,487.8333333333333L206.98412698412696,486.5L209.52380952380952,485.8333333333333L212.06349206349205,482.66666666666663L219.68253968253967,481L222.2222222222222,478.33333333333337L224.76190476190476,478L227.3015873015873,475.3333333333333L229.84126984126982,472.6666666666667L234.9206349206349,470.3333333333333L237.46031746031744,467.66666666666663L239.99999999999997,465.99999999999994L242.53968253968253,463.83333333333337L245.07936507936506,461.33333333333337L247.6190476190476,459L250.15873015873015,458.1666666666667L252.69841269841268,455.6666666666667L255.2380952380952,451.83333333333337L257.77777777777777,450.5L262.85714285714283,447.8333333333333L265.39682539682536,445L267.9365079365079,442.16666666666663L280.6349206349206,439.3333333333333L283.17460317460313,436.99999999999994L285.7142857142857,435L288.25396825396825,432.1666666666667L290.7936507936508,430L293.3333333333333,426.8333333333333L295.87301587301585,425.50000000000006L298.4126984126984,423.00000000000006L303.4920634920635,422.1666666666667L306.031746031746,419.83333333333337L308.57142857142856,417.00000000000006L311.1111111111111,415.1666666666667L313.6507936507936,413.8333333333333L318.73015873015873,411.33333333333326L321.26984126984127,409.33333333333337L323.8095238095238,406.83333333333337L326.3492063492063,405.83333333333337L328.88888888888886,403.5L331.4285714285714,401L333.9682539682539,398L336.5079365079365,394.6666666666667L339.04761904761904,392.5L344.1269841269841,390.16666666666663L346.66666666666663,387.49999999999994L349.20634920634916,383L351.74603174603175,380.33333333333337L354.2857142857143,377.5L359.36507936507934,374.6666666666667L361.90476190476187,371.83333333333337L364.4444444444444,369.1666666666667L366.98412698412693,366.16666666666663L369.5238095238095,363.5L374.6031746031746,360.8333333333333L377.1428571428571,358.49999999999994L379.68253968253964,355.8333333333333L382.2222222222222,353.16666666666663L384.76190476190476,350.50000000000006L389.8412698412698,348.00000000000006L392.38095238095235,345.33333333333337L394.9206349206349,342.3333333333333L397.4603174603174,339.33333333333337L400,336.6666666666667L405.07936507936506,334.1666666666667L407.6190476190476,332.16666666666663L410.1587301587301,330.16666666666663L412.69841269841265,327.50000000000006L415.2380952380952,325.1666666666667L420.3174603174603,322.5L427.9365079365079,320.16666666666663L430.4761904761904,318.1666666666667L435.55555555555554,315.5L438.0952380952381,312.3333333333333L440.6349206349206,309L443.17460317460313,306.1666666666667L445.71428571428567,303.8333333333333L455.87301587301585,301.6666666666667L458.4126984126984,299.33333333333337L460.9523809523809,296.5L466.031746031746,293.8333333333333L468.57142857142856,291.3333333333333L471.1111111111111,288.5L473.6507936507936,286L476.19047619047615,283.3333333333333L481.26984126984127,280.8333333333333L483.8095238095238,278.16666666666663L486.3492063492063,275.16666666666663L488.88888888888886,272.50000000000006L491.4285714285714,270.33333333333337L496.50793650793645,267.8333333333333L499.04761904761904,264.6666666666667L501.58730158730157,262.6666666666667L504.1269841269841,260.16666666666663L506.66666666666663,258.00000000000006L511.7460317460317,255.49999999999997L514.2857142857142,252.49999999999997L516.8253968253969,249.99999999999997L519.3650793650793,247.33333333333337L521.9047619047619,245L526.984126984127,242L529.5238095238094,239.66666666666669L532.063492063492,237.16666666666663L534.6031746031745,236.16666666666669L537.1428571428571,234L542.2222222222222,231.33333333333331L547.3015873015872,231L549.8412698412699,228.66666666666663L552.3809523809523,226.16666666666666L557.4603174603174,223.50000000000003L560,222L562.5396825396824,219.83333333333331L565.0793650793651,217.25L567.6190476190475,214.91666666666669L572.6984126984128,212.58333333333331L575.2380952380952,210.25000000000003L577.7777777777778,207.58333333333334L580.3174603174602,205.08333333333334L582.8571428571429,202.41666666666666L587.936507936508,200.58333333333331L590.4761904761904,198.08333333333331L593.015873015873,195.25L595.5555555555554,192.58333333333331L598.0952380952381,190.08333333333334L603.1746031746031,187.74999999999997L605.7142857142858,185.41666666666669L608.2539682539682,182.75L610.7936507936508,179.91666666666669L613.3333333333333,177.41666666666669L618.4126984126983,175.25000000000003L620.952380952381,172.91666666666666L626.031746031746,170.41666666666666L628.5714285714284,168.25L631.1111111111111,165.91666666666669L638.7301587301588,164.58333333333334L641.2698412698412,161.74999999999997L643.8095238095239,159.41666666666669L646.3492063492063,157.08333333333331L651.4285714285713,154.41666666666669L653.968253968254,151.41666666666669L656.5079365079364,148.91666666666669L659.047619047619,146.25L661.5873015873015,143.75000000000003L666.6666666666665,141.08333333333334L669.2063492063492,138.41666666666666L671.7460317460318,136.08333333333334L674.2857142857142,133.91666666666669L676.8253968253969,132.08333333333334L681.9047619047619,129.91666666666666L684.4444444444443,127.24999999999997L686.984126984127,124.74999999999999L689.5238095238094,121.74999999999999L692.063492063492,119.41666666666669L697.1428571428571,116.91666666666669L699.6825396825395,114.25L702.2222222222222,112.25000000000003L704.7619047619048,109.41666666666666L707.3015873015872,107.08333333333336L712.3809523809523,104.74999999999999L714.9206349206349,102.0833333333333L717.4603174603174,99.41666666666669L720,96.75L722.5396825396824,94.08333333333331L727.6190476190475,92.74999999999997L730.1587301587301,90.24999999999999L732.6984126984125,87.5833333333333L735.2380952380952,84.91666666666669L737.7777777777778,82.58333333333331L742.8571428571429,81.91666666666669L745.3968253968253,78.91666666666669L747.936507936508,76.0833333333333L750.4761904761904,74.25000000000001L753.015873015873,72.58333333333336L755.5555555555554,70.9166666666667L760.6349206349205,67.91666666666669L763.1746031746031,65.08333333333331L765.7142857142858,63.74999999999997L768.2539682539682,61.08333333333336L770.7936507936508,58.583333333333364L773.3333333333333,56.25L775.8730158730159,55.583333333333364L778.4126984126983,51.250000000000014L780.952380952381,48.583333333333336L783.4920634920634,45.91666666666665L788.5714285714284,43.250000000000036L791.1111111111111,40.58333333333335L793.6507936507935,37.916666666666664L796.1904761904761,35.24999999999998L798.7301587301588,32.583333333333364" style="fill: none; stroke: #4c78a8; stroke-width: 2;"></path></g></g><path class="foreground" d="" style="display: none; fill: none;"></path></g><g transform="translate(0,0)"><path class="background" d="M0,0h800v600h-800Z" style="fill: none;"></path><g><g class="mark-line role-mark marks"><path d="M6.349206349206344,597.5L8.888888888888884,596.1666666666666L11.428571428571423,594L13.968253968253963,592.1666666666666L21.58730158730158,589.8333333333334L24.12698412698412,587.6666666666666L26.66666666666666,585.5L29.206349206349202,582.8333333333333L31.74603174603174,580.6666666666666L39.36507936507936,578L41.9047619047619,575.6666666666666L44.444444444444436,573.6666666666666L46.98412698412697,570.8333333333333L59.68253968253968,569.1666666666666L62.222222222222214,565.1666666666666L64.76190476190476,562.1666666666666L67.30158730158729,560L74.92063492063491,558.3333333333334L77.46031746031746,556L79.99999999999999,552.3333333333334L82.53968253968253,549.8333333333334L85.07936507936508,547.8333333333333L92.69841269841268,545.5L95.23809523809523,542.8333333333334L97.77777777777777,541.3333333333334L100.3174603174603,538.6666666666666L102.85714285714285,536.6666666666667L115.55555555555554,534L118.09523809523809,531.1666666666667L120.63492063492062,529.8333333333334L128.25396825396825,526.3333333333334L130.79365079365078,524.1666666666666L133.33333333333331,521.5L135.87301587301587,518.8333333333333L138.4126984126984,516.8333333333334L146.03174603174602,514.3333333333334L148.57142857142856,511.99999999999994L151.1111111111111,509.16666666666663L153.65079365079364,506.33333333333337L156.19047619047618,505L166.34920634920633,502.5L168.88888888888889,499.8333333333333L171.42857142857142,497.3333333333333L173.96825396825395,494.66666666666663L181.58730158730157,492.1666666666667L184.1269841269841,490.1666666666667L186.66666666666666,488.5L189.2063492063492,486.1666666666667L191.74603174603172,483.16666666666663L201.9047619047619,481.5L204.44444444444443,476.16666666666663L206.98412698412696,478L209.52380952380952,473.8333333333333L217.14285714285714,472L219.68253968253967,469.33333333333337L222.2222222222222,466.6666666666667L224.76190476190476,464.5L227.3015873015873,462.1666666666667L232.38095238095235,459.5L234.9206349206349,458.5L237.46031746031744,455.8333333333333L239.99999999999997,453.8333333333333L260.3174603174603,451.16666666666663L262.85714285714283,448.83333333333326L265.39682539682536,446.6666666666667L267.9365079365079,444L270.4761904761905,441.8333333333333L273.015873015873,439.83333333333337L275.55555555555554,438L278.0952380952381,435.5L280.6349206349206,433.66666666666663L283.17460317460313,431.50000000000006L288.25396825396825,428.83333333333337L290.7936507936508,427.1666666666667L293.3333333333333,425.16666666666663L295.87301587301585,424.5L300.9523809523809,422.83333333333337L303.4920634920635,420.33333333333337L306.031746031746,419.66666666666663L308.57142857142856,417.5L311.1111111111111,416L316.19047619047615,414.1666666666667L318.73015873015873,412.6666666666667L321.26984126984127,411.6666666666667L323.8095238095238,410L326.3492063492063,409.5L331.4285714285714,407.8333333333333L333.9682539682539,406.00000000000006L336.5079365079365,404.5L341.58730158730157,401.8333333333333L344.1269841269841,400.00000000000006L346.66666666666663,397.5L349.20634920634916,394.91666666666674L351.74603174603175,392.4166666666667L356.8253968253968,389.75000000000006L359.36507936507934,385.91666666666663L361.90476190476187,383.58333333333337L364.4444444444444,380.9166666666667L366.98412698412693,378.58333333333337L372.06349206349205,376.75L374.6031746031746,375.08333333333337L377.1428571428571,372.3333333333333L379.68253968253964,370.66666666666663L382.2222222222222,367.5L387.3015873015873,365.6666666666667L389.8412698412698,364.1666666666667L392.38095238095235,361.8333333333333L394.9206349206349,359.83333333333337L397.4603174603174,357.8333333333333L402.53968253968253,355.8333333333333L405.07936507936506,354.5L410.1587301587301,352.5L412.69841269841265,351.6666666666667L417.77777777777777,349L422.85714285714283,346.33333333333337L425.39682539682536,343.6666666666667L427.9365079365079,341L433.015873015873,337.6666666666667L435.55555555555554,335L438.0952380952381,332.16666666666663L440.6349206349206,330.16666666666663L443.17460317460313,329.8333333333333L448.25396825396825,329.5L450.7936507936508,329L453.3333333333333,328.33333333333337L455.87301587301585,326.8333333333333L458.4126984126984,325.83333333333337L463.49206349206344,325.00000000000006L466.031746031746,323.8333333333333L468.57142857142856,322.8333333333333L471.1111111111111,321.50000000000006L473.6507936507936,320.5L478.7301587301587,319.5L483.8095238095238,317.8333333333333L486.3492063492063,316.1666666666667L488.88888888888886,315.16666666666663L493.9682539682539,314.5L496.50793650793645,313.5L499.04761904761904,312.49999999999994L501.58730158730157,311.5L504.1269841269841,309.8333333333333L509.20634920634916,307.16666666666663L511.7460317460317,304.50000000000006L514.2857142857142,301.83333333333337L516.8253968253969,299.5L519.3650793650793,296.8333333333333L524.4444444444443,295.50000000000006L526.984126984127,294.6666666666667L529.5238095238094,293L532.063492063492,291.5L534.6031746031745,290.33333333333337L539.6825396825398,288.1666666666667L542.2222222222222,286L544.7619047619048,284.00000000000006L547.3015873015872,282.8333333333333L554.9206349206349,280.1666666666667L557.4603174603174,279.1666666666667L560,278.49999999999994L562.5396825396824,275.49999999999994L565.0793650793651,273.8333333333333L570.1587301587301,272.16666666666663L572.6984126984128,269.83333333333337L575.2380952380952,267.8333333333333L577.7777777777778,266.66666666666663L580.3174603174602,264.33333333333337L585.3968253968253,262.8333333333333L587.936507936508,262L590.4761904761904,261.1666666666667L593.015873015873,259.8333333333333L595.5555555555554,258.5L600.6349206349205,257.1666666666667L603.1746031746031,255.49999999999997L605.7142857142858,252.83333333333334L608.2539682539682,250.33333333333337L610.7936507936508,248.5L615.8730158730159,246.83333333333334L618.4126984126983,245.16666666666669L620.952380952381,243.66666666666666L623.4920634920634,240L626.031746031746,237.66666666666666L628.5714285714284,235.16666666666666L633.6507936507935,230.83333333333331L636.1904761904761,233.16666666666669L638.7301587301588,228.66666666666663L641.2698412698412,226.99999999999997L643.8095238095239,225L648.8888888888889,222.66666666666663L651.4285714285713,222L653.968253968254,220.16666666666666L656.5079365079364,218.49999999999997L659.047619047619,216.5L664.1269841269841,214.50000000000003L666.6666666666665,211.83333333333334L669.2063492063492,209.49999999999997L674.2857142857142,207.5L679.3650793650793,206.00000000000003L684.4444444444443,204.66666666666669L686.984126984127,202.33333333333331L689.5238095238094,199.66666666666663L694.6031746031745,197.66666666666666L697.1428571428571,197.16666666666666L699.6825396825395,195.16666666666666L702.2222222222222,193.33333333333331L704.7619047619048,191L709.8412698412699,188.99999999999997L712.3809523809523,187.16666666666669L714.9206349206349,184.5L717.4603174603174,181.83333333333331L720,179.16666666666669L725.0793650793651,177.16666666666666L727.6190476190475,174.99999999999997L730.1587301587301,172.66666666666669L732.6984126984125,170.66666666666669L735.2380952380952,168.33333333333334L740.3174603174602,165.99999999999997L742.8571428571429,163.66666666666669L745.3968253968253,161.33333333333331L750.4761904761904,158.66666666666669L758.0952380952381,156L760.6349206349205,155.66666666666669L763.1746031746031,154.83333333333334L773.3333333333333,154.00000000000003L786.031746031746,151.33333333333334L791.1111111111111,148.66666666666666L796.1904761904761,146.33333333333337L798.7301587301588,144.66666666666669" style="fill: none; stroke: #f58518; stroke-width: 2;"></path></g></g><path class="foreground" d="" style="display: none; fill: none;"></path></g><g transform="translate(0,0)"><path class="background" d="M0,0h800v600h-800Z" style="fill: none;"></path><g><g class="mark-line role-mark marks"><path d="M1.2698412698412653,597.3333333333334L3.809523809523805,595.8333333333334L6.349206349206344,594.8333333333334L8.888888888888884,592.8333333333334L11.428571428571423,590.8333333333334L19.047619047619044,588.8333333333334L21.58730158730158,587.1666666666666L24.12698412698412,585L26.66666666666666,582.6666666666667L29.206349206349202,581.8333333333334L36.82539682539682,579.8333333333333L41.9047619047619,579.5L44.444444444444436,578L46.98412698412697,575.1666666666666L54.603174603174594,573.1666666666666L57.14285714285714,571L59.68253968253968,568.8333333333334L62.222222222222214,567.1666666666666L64.76190476190476,566.1666666666666L72.38095238095238,564.5L74.92063492063491,562.3333333333333L77.46031746031746,560.1666666666667L79.99999999999999,559L82.53968253968253,557.6666666666666L90.15873015873015,556.3333333333333L92.69841269841268,555.1666666666666L95.23809523809523,553L97.77777777777777,551.3333333333334L100.3174603174603,549.8333333333334L107.93650793650792,548.3333333333334L110.47619047619047,547L113.01587301587301,545.8333333333334L115.55555555555554,544.5833333333334L118.09523809523809,543.0833333333334L125.71428571428571,541.4166666666667L128.25396825396825,539.3333333333333L130.79365079365078,537.6666666666666L133.33333333333331,535.8333333333334L135.87301587301587,534.6666666666666L140.95238095238093,534.5L143.4920634920635,532.6666666666666L146.03174603174602,530.5L148.57142857142856,528.3333333333334L151.1111111111111,527L153.65079365079364,525.5L161.26984126984127,524L163.8095238095238,522.3333333333334L166.34920634920633,520.6666666666666L168.88888888888889,519.3333333333333L171.42857142857142,518.3333333333334L179.04761904761904,517.5L181.58730158730157,515.8333333333334L184.1269841269841,514L186.66666666666666,513.1666666666666L189.2063492063492,511.5L196.8253968253968,509.5L199.36507936507934,508L201.9047619047619,505L204.44444444444443,503.49999999999994L206.98412698412696,502.1666666666667L209.52380952380952,501.5L214.60317460317458,499.6666666666667L217.14285714285714,497.66666666666663L219.68253968253967,495.6666666666667L222.2222222222222,494L224.76190476190476,492.33333333333337" style="fill: none; stroke: #e45756; stroke-width: 2;"></path></g></g><path class="foreground" d="" style="display: none; fill: none;"></path></g></g><g class="mark-group role-legend"><g transform="translate(819,0)"><path class="background" d="M0,0h61v53h-61Z" style="pointer-events: none; fill: none;"></path><g><g class="mark-group role-legend-entry"><g transform="translate(0,16)"><path class="background" d="M0,0h0v0h0Z" style="pointer-events: none; fill: none;"></path><g><g class="mark-group role-scope"><g transform="translate(0,0)"><path class="background" d="M0,0h48v11h-48Z" style="pointer-events: none; fill: none; opacity: 1;"></path><g><g class="mark-symbol role-legend-symbol" style="pointer-events: none;"><path transform="translate(6,6)" d="M-5,0L5,0" style="fill: none; stroke: #4c78a8; stroke-width: 1.5; opacity: 1;"></path></g><g class="mark-text role-legend-label" style="pointer-events: none;"><text text-anchor="start" transform="translate(16,9)" style="font-family: sans-serif; font-size: 10px; fill: #000; opacity: 1;">2021</text></g></g><path class="foreground" d="" style="pointer-events: none; display: none; fill: none;"></path></g><g transform="translate(0,13)"><path class="background" d="M0,0h48v11h-48Z" style="pointer-events: none; fill: none; opacity: 1;"></path><g><g class="mark-symbol role-legend-symbol" style="pointer-events: none;"><path transform="translate(6,6)" d="M-5,0L5,0" style="fill: none; stroke: #f58518; stroke-width: 1.5; opacity: 1;"></path></g><g class="mark-text role-legend-label" style="pointer-events: none;"><text text-anchor="start" transform="translate(16,9)" style="font-family: sans-serif; font-size: 10px; fill: #000; opacity: 1;">2022</text></g></g><path class="foreground" d="" style="pointer-events: none; display: none; fill: none;"></path></g><g transform="translate(0,26)"><path class="background" d="M0,0h48v11h-48Z" style="pointer-events: none; fill: none; opacity: 1;"></path><g><g class="mark-symbol role-legend-symbol" style="pointer-events: none;"><path transform="translate(6,6)" d="M-5,0L5,0" style="fill: none; stroke: #e45756; stroke-width: 1.5; opacity: 1;"></path></g><g class="mark-text role-legend-label" style="pointer-events: none;"><text text-anchor="start" transform="translate(16,9)" style="font-family: sans-serif; font-size: 10px; fill: #000; opacity: 1;">2023</text></g></g><path class="foreground" d="" style="pointer-events: none; display: none; fill: none;"></path></g></g></g><path class="foreground" d="" style="pointer-events: none; display: none; fill: none;"></path></g></g><g class="mark-text role-legend-title" style="pointer-events: none;"><text text-anchor="start" transform="translate(0,9)" style="font-family: sans-serif; font-size: 11px; font-weight: bold; fill: #000; opacity: 1;">Project</text></g></g><path class="foreground" d="" style="pointer-events: none; display: none; fill: none;"></path></g></g></g><path class="foreground" d="" style="display: none; fill: none;"></path></g></g></g></svg>