<svg class="marks" width="986" height="693" viewBox="0 0 986 693" version="1.1" xmlns="http://www.w3.org/2000/svg" xmlns:xlink="http://www.w3.org/1999/xlink"><rect width="986" height="693" style="fill: white;"></rect><g transform="translate(51,10)"><g class="mark-group role-frame root"><g transform="translate(0,0)"><path class="background" d="M0.5,0.5h800v600h-800Z" style="fill: none; stroke: #ddd;"></path><g><g class="mark-group role-axis"><g transform="translate(0.5,0.5)"><path class="background" d="M0,0h0v0h0Z" style="pointer-events: none; fill: none;"></path><g><g class="mark-rule role-axis-grid" style="pointer-events: none;"><line transform="translate(0,600)" x2="800" y2="0" style="fill: none; stroke: #ddd; stroke-width: 1; opacity: 1;"></line><line transform="translate(0,567)" x2="800" y2="0" style="fill: none; stroke: #ddd; stroke-width: 1; opacity: 1;"></line><line transform="translate(0,533)" x2="800" y2="0" style="fill: none; stroke: #ddd; stroke-width: 1; opacity: 1;"></line><line transform="translate(0,500)" x2="800" y2="0" style="fill: none; stroke: #ddd; stroke-width: 1; opacity: 1;"></line><line transform="translate(0,467)" x2="800" y2="0" style="fill: none; stroke: #ddd; stroke-width: 1; opacity: 1;"></line><line transform="translate(0,433)" x2="800" y2="0" style="fill: none; stroke: #ddd; stroke-width: 1; opacity: 1;"></line><line transform="translate(0,400)" x2="800" y2="0" style="fill: none; stroke: #ddd; stroke-width: 1; opacity: 1;"></line><line transform="translate(0,367)" x2="800" y2="0" style="fill: none; stroke: #ddd; stroke-width: 1; opacity: 1;"></line><line transform="translate(0,333)" x2="800" y2="0" style="fill: none; stroke: #ddd; stroke-width: 1; opacity: 1;"></line><line transform="translate(0,300)" x2="800" y2="0" style="fill: none; stroke: #ddd; stroke-width: 1; opacity: 1;"></line><line transform="translate(0,267)" x2="800" y2="0" style="fill: none; stroke: #ddd; stroke-width: 1; opacity: 1;"></line><line transform="translate(0,233)" x2="800" y2="0" style="fill: none; stroke: #ddd; stroke-width: 1; opacity: 1;"></line><line transform="translate(0,200)" x2="800" y2="0" style="fill: none; stroke: #ddd; stroke-width: 1; opacity: 1;"></line><line transform="translate(0,167)" x2="800" y2="0" style="fill: none; stroke: #ddd; stroke-width: 1; opacity: 1;"></line><line transform="translate(0,133)" x2="800" y2="0" style="fill: none; stroke: #ddd; stroke-width: 1; opacity: 1;"></line><line transform="translate(0,100)" x2="800" y2="0" style="fill: none; stroke: #ddd; stroke-width: 1; opacity: 1;"></line><line transform="translate(0,67)" x2="800" y2="0" style="fill: none; stroke: #ddd; stroke-width: 1; opacity: 1;"></line><line transform="translate(0,33)" x2="800" y2="0" style="fill: none; stroke: #ddd; stroke-width: 1; opacity: 1;"></line><line transform="translate(0,0)" x2="800" y2="0" style="fill: none; stroke: #ddd; stroke-width: 1; opacity: 1;"></line></g></g><path class="foreground" d="" style="pointer-events: none; display: none; fill: none;"></path></g></g><g class="mark-group role-axis"><g transform="translate(0.5,600.5)"><path class="background" d="M0,0h0v0h0Z" style="pointer-events: none; fill: none;"></path><g><g class="mark-rule role-axis-tick" style="pointer-events: none;"><line transform="translate(15,0)" x2="0" y2="5" style="fill: none; stroke: #888; stroke-width: 1; opacity: 1;"></line><line transform="translate(46,0)" x2="0" y2="5" style="fill: none; stroke: #888; stroke-width: 1; opacity: 1;"></line><line transform="translate(76,0)" x2="0" y2="5" style="fill: none; stroke: #888; stroke-width: 1; opacity: 1;"></line><line transform="translate(107,0)" x2="0" y2="5" style="fill: none; stroke: #888; stroke-width: 1; opacity: 1;"></line><line transform="translate(138,0)" x2="0" y2="5" style="fill: none; stroke: #888; stroke-width: 1; opacity: 1;"></line><line transform="translate(169,0)" x2="0" y2="5" style="fill: none; stroke: #888; stroke-width: 1; opacity: 1;"></line><line transform="translate(200,0)" x2="0" y2="5" style="fill: none; stroke: #888; stroke-width: 1; opacity: 1;"></line><line transform="translate(230,0)" x2="0" y2="5" style="fill: none; stroke: #888; stroke-width: 1; opacity: 1;"></line><line transform="translate(261,0)" x2="0" y2="5" style="fill: none; stroke: #888; stroke-width: 1; opacity: 1;"></line><line transform="translate(292,0)" x2="0" y2="5" style="fill: none; stroke: #888; stroke-width: 1; opacity: 1;"></line><line transform="translate(323,0)" x2="0" y2="5" style="fill: none; stroke: #888; stroke-width: 1; opacity: 1;"></line><line transform="translate(353,0)" x2="0" y2="5" style="fill: none; stroke: #888; stroke-width: 1; opacity: 1;"></line><line transform="translate(384,0)" x2="0" y2="5" style="fill: none; stroke: #888; stroke-width: 1; opacity: 1;"></line><line transform="translate(415,0)" x2="0" y2="5" style="fill: none; stroke: #888; stroke-width: 1; opacity: 1;"></line><line transform="translate(446,0)" x2="0" y2="5" style="fill: none; stroke: #888; stroke-width: 1; opacity: 1;"></line><line transform="translate(476,0)" x2="0" y2="5" style="fill: none; stroke: #888; stroke-width: 1; opacity: 1;"></line><line transform="translate(507,0)" x2="0" y2="5" style="fill: none; stroke: #888; stroke-width: 1; opacity: 1;"></line><line transform="translate(538,0)" x2="0" y2="5" style="fill: none; stroke: #888; stroke-width: 1; opacity: 1;"></line><line transform="translate(569,0)" x2="0" y2="5" style="fill: none; stroke: #888; stroke-width: 1; opacity: 1;"></line><line transform="translate(600,0)" x2="0" y2="5" style="fill: none; stroke: #888; stroke-width: 1; opacity: 1;"></line><line transform="translate(630,0)" x2="0" y2="5" style="fill: none; stroke: #888; stroke-width: 1; opacity: 1;"></line><line transform="translate(661,0)" x2="0" y2="5" style="fill: none; stroke: #888; stroke-width: 1; opacity: 1;"></line><line transform="translate(692,0)" x2="0" y2="5" style="fill: none; stroke: #888; stroke-width: 1; opacity: 1;"></line><line transform="translate(723,0)" x2="0" y2="5" style="fill: none; stroke: #888; stroke-width: 1; opacity: 1;"></line><line transform="translate(753,0)" x2="0" y2="5" style="fill: none; stroke: #888; stroke-width: 1; opacity: 1;"></line><line transform="translate(784,0)" x2="0" y2="5" style="fill: none; stroke: #888; stroke-width: 1; opacity: 1;"></line></g><g class="mark-text role-axis-label" style="pointer-events: none;"><text text-anchor="end" transform="translate(14.884615384615394,7) rotate(270) translate(0,3)" style="font-family: sans-serif; font-size: 10px; fill: #000; opacity: 1;">2021-01</text><text text-anchor="end" transform="translate(45.65384615384617,7) rotate(270) translate(0,3)" style="font-family: sans-serif; font-size: 10px; fill: #000; opacity: 1;">2021-02</text><text text-anchor="end" transform="translate(76.42307692307693,7) rotate(270) translate(0,3)" style="font-family: sans-serif; font-size: 10px; fill: #000; opacity: 1;">2021-03</text><text text-anchor="end" transform="translate(107.19230769230771,7) rotate(270) translate(0,3)" style="font-family: sans-serif; font-size: 10px; fill: #000; opacity: 1;">2021-04</text><text text-anchor="end" transform="translate(137.96153846153848,7) rotate(270) translate(0,3)" style="font-family: sans-serif; font-size: 10px; fill: #000; opacity: 1;">2021-05</text><text text-anchor="end" transform="translate(168.73076923076923,7) rotate(270) translate(0,3)" style="font-family: sans-serif; font-size: 10px; fill: #000; opacity: 1;">2021-06</text><text text-anchor="end" transform="translate(199.5,7) rotate(270) translate(0,3)" style="font-family: sans-serif; font-size: 10px; fill: #000; opacity: 1;">2021-07</text><text text-anchor="end" transform="translate(230.26923076923077,7) rotate(270) translate(0,3)" style="font-family: sans-serif; font-size: 10px; fill: #000; opacity: 1;">2021-08</text><text text-anchor="end" transform="translate(261.03846153846155,7) rotate(270) translate(0,3)" style="font-family: sans-serif; font-size: 10px; fill: #000; opacity: 1;">2021-09</text><text text-anchor="end" transform="translate(291.8076923076923,7) rotate(270) translate(0,3)" style="font-family: sans-serif; font-size: 10px; fill: #000; opacity: 1;">2021-10</text><text text-anchor="end" transform="translate(322.5769230769231,7) rotate(270) translate(0,3)" style="font-family: sans-serif; font-size: 10px; fill: #000; opacity: 1;">2021-11</text><text text-anchor="end" transform="translate(353.34615384615387,7) rotate(270) translate(0,3)" style="font-family: sans-serif; font-size: 10px; fill: #000; opacity: 1;">2021-12</text><text text-anchor="end" transform="translate(384.11538461538464,7) rotate(270) translate(0,3)" style="font-family: sans-serif; font-size: 10px; fill: #000; opacity: 1;">2022-01</text><text text-anchor="end" transform="translate(414.8846153846154,7) rotate(270) translate(0,3)" style="font-family: sans-serif; font-size: 10px; fill: #000; opacity: 1;">2022-02</text><text text-anchor="end" transform="translate(445.6538461538462,7) rotate(270) translate(0,3)" style="font-family: sans-serif; font-size: 10px; fill: #000; opacity: 1;">2022-03</text><text text-anchor="end" transform="translate(476.42307692307696,7) rotate(270) translate(0,3)" style="font-family: sans-serif; font-size: 10px; fill: #000; opacity: 1;">2022-04</text><text text-anchor="end" transform="translate(507.19230769230774,7) rotate(270) translate(0,3)" style="font-family: sans-serif; font-size: 10px; fill: #000; opacity: 1;">2022-05</text><text text-anchor="end" transform="translate(537.9615384615385,7) rotate(270) translate(0,3)" style="font-family: sans-serif; font-size: 10px; fill: #000; opacity: 1;">2022-06</text><text text-anchor="end" transform="translate(568.7307692307692,7) rotate(270) translate(0,3)" style="font-family: sans-serif; font-size: 10px; fill: #000; opacity: 1;">2022-07</text><text text-anchor="end" transform="translate(599.5,7) rotate(270) translate(0,3)" style="font-family: sans-serif; font-size: 10px; fill: #000; opacity: 1;">2022-08</text><text text-anchor="end" transform="translate(630.2692307692307,7) rotate(270) translate(0,3)" style="font-family: sans-serif; font-size: 10px; fill: #000; opacity: 1;">2022-09</text><text text-anchor="end" transform="translate(661.0384615384615,7) rotate(270) translate(0,3)" style="font-family: sans-serif; font-size: 10px; fill: #000; opacity: 1;">2022-10</text><text text-anchor="end" transform="translate(691.8076923076923,7) rotate(270) translate(0,3)" style="font-family: sans-serif; font-size: 10px; fill: #000; opacity: 1;">2022-11</text><text text-anchor="end" transform="translate(722.5769230769231,7) rotate(270) translate(0,3)" style="font-family: sans-serif; font-size: 10px; fill: #000; opacity: 1;">2022-12</text><text text-anchor="end" transform="translate(753.3461538461538,7) rotate(270) translate(0,3)" style="font-family: sans-serif; font-size: 10px; fill: #000; opacity: 1;">2023-01</text><text text-anchor="end" transform="translate(784.1153846153846,7) rotate(270) translate(0,3)" style="font-family: sans-serif; font-size: 10px; fill: #000; opacity: 1;">2023-02</text></g><g class="mark-rule role-axis-domain" style="pointer-events: none;"><line transform="translate(0,0)" x2="800" y2="0" style="fill: none; stroke: #888; stroke-width: 1; opacity: 1;"></line></g><g class="mark-text role-axis-title" style="pointer-events: none;"><text text-anchor="middle" transform="translate(400,76)" style="font-family: sans-serif; font-size: 11px; font-weight: bold; fill: #000; opacity: 1;">Date</text></g></g><path class="foreground" d="" style="pointer-events: none; display: none; fill: none;"></path></g></g><g class="mark-group role-axis"><g transform="translate(0.5,0.5)"><path class="background" d="M0,0h0v0h0Z" style="pointer-events: none; fill: none;"></path><g><g class="mark-rule role-axis-tick" style="pointer-events: none;"><line transform="translate(0,600)" x2="-5" y2="0" style="fill: none; stroke: #888; stroke-width: 1; opacity: 1;"></line><line transform="translate(0,567)" x2="-5" y2="0" style="fill: none; stroke: #888; stroke-width: 1; opacity: 1;"></line><line transform="translate(0,533)" x2="-5" y2="0" style="fill: none; stroke: #888; stroke-width: 1; opacity: 1;"></line><line transform="translate(0,500)" x2="-5" y2="0" style="fill: none; stroke: #888; stroke-width: 1; opacity: 1;"></line><line transform="translate(0,467)" x2="-5" y2="0" style="fill: none; stroke: #888; stroke-width: 1; opacity: 1;"></line><line transform="translate(0,433)" x2="-5" y2="0" style="fill: none; stroke: #888; stroke-width: 1; opacity: 1;"></line><line transform="translate(0,400)" x2="-5" y2="0" style="fill: none; stroke: #888; stroke-width: 1; opacity: 1;"></line><line transform="translate(0,367)" x2="-5" y2="0" style="fill: none; stroke: #888; stroke-width: 1; opacity: 1;"></line><line transform="translate(0,333)" x2="-5" y2="0" style="fill: none; stroke: #888; stroke-width: 1; opacity: 1;"></line><line transform="translate(0,300)" x2="-5" y2="0" style="fill: none; stroke: #888; stroke-width: 1; opacity: 1;"></line><line transform="translate(0,267)" x2="-5" y2="0" style="fill: none; stroke: #888; stroke-width: 1; opacity: 1;"></line><line transform="translate(0,233)" x2="-5" y2="0" style="fill: none; stroke: #888; stroke-width: 1; opacity: 1;"></line><line transform="translate(0,200)" x2="-5" y2="0" style="fill: none; stroke: #888; stroke-width: 1; opacity: 1;"></line><line transform="translate(0,167)" x2="-5" y2="0" style="fill: none; stroke: #888; stroke-width: 1; opacity: 1;"></line><line transform="translate(0,133)" x2="-5" y2="0" style="fill: none; stroke: #888; stroke-width: 1; opacity: 1;"></line><line transform="translate(0,100)" x2="-5" y2="0" style="fill: none; stroke: #888; stroke-width: 1; opacity: 1;"></line><line transform="translate(0,67)" x2="-5" y2="0" style="fill: none; stroke: #888; stroke-width: 1; opacity: 1;"></line><line transform="translate(0,33)" x2="-5" y2="0" style="fill: none; stroke: #888; stroke-width: 1; opacity: 1;"></line><line transform="translate(0,0)" x2="-5" y2="0" style="fill: none; stroke: #888; stroke-width: 1; opacity: 1;"></line></g><g class="mark-text role-axis-label" style="pointer-events: none;"><text text-anchor="end" transform="translate(-7,603)" style="font-family: sans-serif; font-size: 10px; fill: #000; opacity: 1;">0</text><text text-anchor="end" transform="translate(-7,569.6666666666666)" style="font-family: sans-serif; font-size: 10px; fill: #000; opacity: 1;">10</text><text text-anchor="end" transform="translate(-7,536.3333333333333)" style="font-family: sans-serif; font-size: 10px; fill: #000; opacity: 1;">20</text><text text-anchor="end" transform="translate(-7,503)" style="font-family: sans-serif; font-size: 10px; fill: #000; opacity: 1;">30</text><text text-anchor="end" transform="translate(-7,469.6666666666667)" style="font-family: sans-serif; font-size: 10px; fill: #000; opacity: 1;">40</text><text text-anchor="end" transform="translate(-7,436.3333333333333)" style="font-family: sans-serif; font-size: 10px; fill: #000; opacity: 1;">50</text><text text-anchor="end" transform="translate(-7,403.00000000000006)" style="font-family: sans-serif; font-size: 10px; fill: #000; opacity: 1;">60</text><text text-anchor="end" transform="translate(-7,369.6666666666667)" style="font-family: sans-serif; font-size: 10px; fill: #000; opacity: 1;">70</text><text text-anchor="end" transform="translate(-7,336.33333333333337)" style="font-family: sans-serif; font-size: 10px; fill: #000; opacity: 1;">80</text><text text-anchor="end" transform="translate(-7,303)" style="font-family: sans-serif; font-size: 10px; fill: #000; opacity: 1;">90</text><text text-anchor="end" transform="translate(-7,269.66666666666663)" style="font-family: sans-serif; font-size: 10px; fill: #000; opacity: 1;">100</text><text text-anchor="end" transform="translate(-7,236.33333333333331)" style="font-family: sans-serif; font-size: 10px; fill: #000; opacity: 1;">110</text><text text-anchor="end" transform="translate(-7,203.00000000000003)" style="font-family: sans-serif; font-size: 10px; fill: #000; opacity: 1;">120</text><text text-anchor="end" transform="translate(-7,169.66666666666669)" style="font-family: sans-serif; font-size: 10px; fill: #000; opacity: 1;">130</text><text text-anchor="end" transform="translate(-7,136.33333333333331)" style="font-family: sans-serif; font-size: 10px; fill: #000; opacity: 1;">140</text><text text-anchor="end" transform="translate(-7,102.99999999999997)" style="font-family: sans-serif; font-size: 10px; fill: #000; opacity: 1;">150</text><text text-anchor="end" transform="translate(-7,69.6666666666667)" style="font-family: sans-serif; font-size: 10px; fill: #000; opacity: 1;">160</text><text text-anchor="end" transform="translate(-7,36.33333333333335)" style="font-family: sans-serif; font-size: 10px; fill: #000; opacity: 1;">170</text><text text-anchor="end" transform="translate(-7,3)" style="font-family: sans-serif; font-size: 10px; fill: #000; opacity: 1;">180</text></g><g class="mark-rule role-axis-domain" style="pointer-events: none;"><line transform="translate(0,600)" x2="0" y2="-600" style="fill: none; stroke: #888; stroke-width: 1; opacity: 1;"></line></g><g class="mark-text role-axis-title" style="pointer-events: none;"><text text-anchor="middle" transform="translate(-35,300) rotate(-90) translate(0,-2)" style="font-family: sans-serif; font-size: 11px; font-weight: bold; fill: #000; opacity: 1;">Sum of Hours</text></g></g><path class="foreground" d="" style="pointer-events: none; display: none; fill: none;"></path></g></g><g class="mark-rect role-mark marks"><path d="M1.5384615384615472,243.33333333333334h27.692307692307693v10.000000000000028h-27.692307692307693Z" style="fill: #f58518;"></path><path d="M1.5384615384615472,171.66666666666666h27.692307692307693v71.66666666666669h-27.692307692307693Z" style="fill: #4c78a8;"></path><path d="M1.5384615384615472,253.33333333333337h27.692307692307693v198.33333333333331h-27.692307692307693Z" style="fill: #e45756;"></path><path d="M1.5384615384615472,503.33333333333337h27.692307692307693v70h-27.692307692307693Z" style="fill: #54a24b;"></path><path d="M1.5384615384615472,451.6666666666667h27.692307692307693v51.666666666666686h-27.692307692307693Z" style="fill: #72b7b2;"></path><path d="M1.5384615384615472,573.3333333333334h27.692307692307693v26.66666666666663h-27.692307692307693Z" style="fill: #b279a2;"></path><path d="M32.30769230769232,338.3333333333333h27.692307692307693v63.33333333333337h-27.692307692307693Z" style="fill: #e45756;"></path><path d="M32.30769230769232,448.3333333333333h27.692307692307693v125.00000000000006h-27.692307692307693Z" style="fill: #54a24b;"></path><path d="M32.30769230769232,245h27.692307692307693v93.33333333333331h-27.692307692307693Z" style="fill: #4c78a8;"></path><path d="M32.30769230769232,401.6666666666667h27.692307692307693v46.66666666666663h-27.692307692307693Z" style="fill: #72b7b2;"></path><path d="M32.30769230769232,573.3333333333334h27.692307692307693v26.66666666666663h-27.692307692307693Z" style="fill: #b279a2;"></path><path d="M63.07692307692309,253.33333333333337h27.692307692307693v41.66666666666663h-27.692307692307693Z" style="fill: #e45756;"></path><path d="M63.07692307692309,398.3333333333333h27.692307692307693v178.33333333333331h-27.692307692307693Z" style="fill: #54a24b;"></path><path d="M63.07692307692309,163.33333333333334h27.692307692307693v90.00000000000003h-27.692307692307693Z" style="fill: #4c78a8;"></path><path d="M63.07692307692309,295h27.692307692307693v103.33333333333331h-27.692307692307693Z" style="fill: #72b7b2;"></path><path d="M63.07692307692309,576.6666666666666h27.692307692307693v23.33333333333337h-27.692307692307693Z" style="fill: #eeca3b;"></path><path d="M93.84615384615385,248.33333333333331h27.692307692307693v13.333333333333371h-27.692307692307693Z" style="fill: #f58518;"></path><path d="M93.84615384615385,438.33333333333337h27.692307692307693v116.66666666666663h-27.692307692307693Z" style="fill: #54a24b;"></path><path d="M93.84615384615385,320h27.692307692307693v118.33333333333337h-27.692307692307693Z" style="fill: #72b7b2;"></path><path d="M93.84615384615385,555h27.692307692307693v18.33333333333337h-27.692307692307693Z" style="fill: #eeca3b;"></path><path d="M93.84615384615385,261.6666666666667h27.692307692307693v58.333333333333314h-27.692307692307693Z" style="fill: #e45756;"></path><path d="M93.84615384615385,170h27.692307692307693v78.33333333333331h-27.692307692307693Z" style="fill: #4c78a8;"></path><path d="M93.84615384615385,573.3333333333334h27.692307692307693v26.66666666666663h-27.692307692307693Z" style="fill: #b279a2;"></path><path d="M124.61538461538463,450h27.692307692307693v125h-27.692307692307693Z" style="fill: #54a24b;"></path><path d="M124.61538461538463,260h27.692307692307693v63.333333333333314h-27.692307692307693Z" style="fill: #e45756;"></path><path d="M124.61538461538463,323.3333333333333h27.692307692307693v126.66666666666669h-27.692307692307693Z" style="fill: #72b7b2;"></path><path d="M124.61538461538463,151.66666666666666h27.692307692307693v108.33333333333334h-27.692307692307693Z" style="fill: #4c78a8;"></path><path d="M124.61538461538463,575h27.692307692307693v25h-27.692307692307693Z" style="fill: #eeca3b;"></path><path d="M155.3846153846154,411.6666666666667h27.692307692307693v81.66666666666663h-27.692307692307693Z" style="fill: #54a24b;"></path><path d="M155.3846153846154,493.3333333333333h27.692307692307693v80.00000000000006h-27.692307692307693Z" style="fill: #eeca3b;"></path><path d="M155.3846153846154,241.66666666666669h27.692307692307693v61.66666666666663h-27.692307692307693Z" style="fill: #e45756;"></path><path d="M155.3846153846154,0h27.692307692307693v241.66666666666669h-27.692307692307693Z" style="fill: #4c78a8;"></path><path d="M155.3846153846154,303.3333333333333h27.692307692307693v108.33333333333337h-27.692307692307693Z" style="fill: #72b7b2;"></path><path d="M155.3846153846154,573.3333333333334h27.692307692307693v26.66666666666663h-27.692307692307693Z" style="fill: #b279a2;"></path><path d="M186.15384615384616,488.3333333333333h27.692307692307693v53.333333333333314h-27.692307692307693Z" style="fill: #54a24b;"></path><path d="M186.15384615384616,131.66666666666666h27.692307692307693v138.33333333333334h-27.692307692307693Z" style="fill: #4c78a8;"></path><path d="M186.15384615384616,391.6666666666667h27.692307692307693v96.66666666666663h-27.692307692307693Z" style="fill: #72b7b2;"></path><path d="M186.15384615384616,573.3333333333334h27.692307692307693v26.66666666666663h-27.692307692307693Z" style="fill: #b279a2;"></path><path d="M186.15384615384616,280h27.692307692307693v111.66666666666669h-27.692307692307693Z" style="fill: #e45756;"></path><path d="M186.15384615384616,270h27.692307692307693v10h-27.692307692307693Z" style="fill: #f58518;"></path><path d="M186.15384615384616,541.6666666666666h27.692307692307693v31.666666666666742h-27.692307692307693Z" style="fill: #eeca3b;"></path><path d="M216.92307692307693,79.99999999999999h27.692307692307693v48.33333333333336h-27.692307692307693Z" style="fill: #4c78a8;"></path><path d="M216.92307692307693,445h27.692307692307693v150h-27.692307692307693Z" style="fill: #54a24b;"></path><path d="M216.92307692307693,135h27.692307692307693v196.66666666666669h-27.692307692307693Z" style="fill: #e45756;"></path><path d="M216.92307692307693,331.6666666666667h27.692307692307693v113.33333333333331h-27.692307692307693Z" style="fill: #72b7b2;"></path><path d="M216.92307692307693,595h27.692307692307693v5h-27.692307692307693Z" style="fill: #eeca3b;"></path><path d="M216.92307692307693,128.33333333333334h27.692307692307693v6.666666666666657h-27.692307692307693Z" style="fill: #f58518;"></path><path d="M247.6923076923077,566.6666666666666h27.692307692307693v6.6666666666667425h-27.692307692307693Z" style="fill: #eeca3b;"></path><path d="M247.6923076923077,175.83333333333331h27.692307692307693v26.666666666666686h-27.692307692307693Z" style="fill: #f58518;"></path><path d="M247.6923076923077,483.33333333333337h27.692307692307693v83.33333333333326h-27.692307692307693Z" style="fill: #54a24b;"></path><path d="M247.6923076923077,333.33333333333337h27.692307692307693v150h-27.692307692307693Z" style="fill: #72b7b2;"></path><path d="M247.6923076923077,202.5h27.692307692307693v130.83333333333337h-27.692307692307693Z" style="fill: #e45756;"></path><path d="M247.6923076923077,85.83333333333336h27.692307692307693v89.99999999999996h-27.692307692307693Z" style="fill: #4c78a8;"></path><path d="M247.6923076923077,573.3333333333334h27.692307692307693v26.66666666666663h-27.692307692307693Z" style="fill: #b279a2;"></path><path d="M278.46153846153845,238.33333333333334h27.692307692307693v40.00000000000003h-27.692307692307693Z" style="fill: #4c78a8;"></path><path d="M278.46153846153845,293.33333333333337h27.692307692307693v79.99999999999994h-27.692307692307693Z" style="fill: #e45756;"></path><path d="M278.46153846153845,373.3333333333333h27.692307692307693v66.66666666666674h-27.692307692307693Z" style="fill: #72b7b2;"></path><path d="M278.46153846153845,278.33333333333337h27.692307692307693v15h-27.692307692307693Z" style="fill: #f58518;"></path><path d="M278.46153846153845,440.00000000000006h27.692307692307693v159.99999999999994h-27.692307692307693Z" style="fill: #54a24b;"></path><path d="M309.2307692307692,289.99999999999994h27.692307692307693v193.33333333333343h-27.692307692307693Z" style="fill: #54a24b;"></path><path d="M309.2307692307692,91.66666666666667h27.692307692307693v24.999999999999986h-27.692307692307693Z" style="fill: #f58518;"></path><path d="M309.2307692307692,200.00000000000003h27.692307692307693v89.99999999999991h-27.692307692307693Z" style="fill: #72b7b2;"></path><path d="M309.2307692307692,64.99999999999997h27.692307692307693v26.6666666666667h-27.692307692307693Z" style="fill: #4c78a8;"></path><path d="M309.2307692307692,116.66666666666666h27.692307692307693v83.33333333333337h-27.692307692307693Z" style="fill: #e45756;"></path><path d="M309.2307692307692,483.33333333333337h27.692307692307693v9.999999999999943h-27.692307692307693Z" style="fill: #eeca3b;"></path><path d="M309.2307692307692,493.3333333333333h27.692307692307693v106.66666666666669h-27.692307692307693Z" style="fill: #b279a2;"></path><path d="M340,98.33333333333331h27.692307692307693v115h-27.692307692307693Z" style="fill: #72b7b2;"></path><path d="M340,213.33333333333331h27.692307692307693v173.33333333333331h-27.692307692307693Z" style="fill: #54a24b;"></path><path d="M340,23.333333333333318h27.692307692307693v13.333333333333353h-27.692307692307693Z" style="fill: #4c78a8;"></path><path d="M340,76.66666666666666h27.692307692307693v21.666666666666657h-27.692307692307693Z" style="fill: #e45756;"></path><path d="M340,36.66666666666667h27.692307692307693v39.999999999999986h-27.692307692307693Z" style="fill: #f58518;"></path><path d="M340,386.66666666666663h27.692307692307693v213.33333333333337h-27.692307692307693Z" style="fill: #b279a2;"></path><path d="M370.7692307692308,193.33333333333331h27.692307692307693v11.666666666666686h-27.692307692307693Z" style="fill: #f58518;"></path><path d="M370.7692307692308,258.33333333333337h27.692307692307693v56.66666666666663h-27.692307692307693Z" style="fill: #72b7b2;"></path><path d="M370.7692307692308,315h27.692307692307693v233.33333333333337h-27.692307692307693Z" style="fill: #54a24b;"></path><path d="M370.7692307692308,205h27.692307692307693v53.33333333333337h-27.692307692307693Z" style="fill: #e45756;"></path><path d="M370.7692307692308,548.3333333333334h27.692307692307693v25h-27.692307692307693Z" style="fill: #eeca3b;"></path><path d="M370.7692307692308,183.33333333333334h27.692307692307693v9.999999999999972h-27.692307692307693Z" style="fill: #4c78a8;"></path><path d="M370.7692307692308,573.3333333333334h27.692307692307693v26.66666666666663h-27.692307692307693Z" style="fill: #b279a2;"></path><path d="M401.53846153846155,510h27.692307692307693v41.66666666666663h-27.692307692307693Z" style="fill: #54a24b;"></path><path d="M401.53846153846155,160.00000000000003h27.692307692307693v76.66666666666666h-27.692307692307693Z" style="fill: #4c78a8;"></path><path d="M401.53846153846155,383.3333333333333h27.692307692307693v126.66666666666669h-27.692307692307693Z" style="fill: #72b7b2;"></path><path d="M401.53846153846155,276.6666666666667h27.692307692307693v106.66666666666663h-27.692307692307693Z" style="fill: #e45756;"></path><path d="M401.53846153846155,236.66666666666669h27.692307692307693v40h-27.692307692307693Z" style="fill: #f58518;"></path><path d="M401.53846153846155,551.6666666666666h27.692307692307693v21.666666666666742h-27.692307692307693Z" style="fill: #eeca3b;"></path><path d="M401.53846153846155,573.3333333333334h27.692307692307693v26.66666666666663h-27.692307692307693Z" style="fill: #b279a2;"></path><path d="M432.3076923076923,214.99999999999997h27.692307692307693v150.00000000000009h-27.692307692307693Z" style="fill: #e45756;"></path><path d="M432.3076923076923,365.00000000000006h27.692307692307693v144.99999999999994h-27.692307692307693Z" style="fill: #72b7b2;"></path><path d="M432.3076923076923,205h27.692307692307693v9.999999999999972h-27.692307692307693Z" style="fill: #f58518;"></path><path d="M432.3076923076923,101.66666666666664h27.692307692307693v103.33333333333336h-27.692307692307693Z" style="fill: #4c78a8;"></path><path d="M432.3076923076923,510h27.692307692307693v65h-27.692307692307693Z" style="fill: #54a24b;"></path><path d="M432.3076923076923,575h27.692307692307693v25h-27.692307692307693Z" style="fill: #eeca3b;"></path><path d="M463.0769230769231,311.66666666666663h27.692307692307693v155.00000000000006h-27.692307692307693Z" style="fill: #e45756;"></path><path d="M463.0769230769231,500h27.692307692307693v70h-27.692307692307693Z" style="fill: #54a24b;"></path><path d="M463.0769230769231,570h27.692307692307693v3.3333333333333712h-27.692307692307693Z" style="fill: #eeca3b;"></path><path d="M463.0769230769231,466.6666666666667h27.692307692307693v33.333333333333314h-27.692307692307693Z" style="fill: #72b7b2;"></path><path d="M463.0769230769231,573.3333333333334h27.692307692307693v26.66666666666663h-27.692307692307693Z" style="fill: #b279a2;"></path><path d="M463.0769230769231,278.33333333333337h27.692307692307693v33.33333333333326h-27.692307692307693Z" style="fill: #f58518;"></path><path d="M463.0769230769231,270h27.692307692307693v8.333333333333371h-27.692307692307693Z" style="fill: #4c78a8;"></path><path d="M493.84615384615387,298.3333333333333h27.692307692307693v8.333333333333314h-27.692307692307693Z" style="fill: #f58518;"></path><path d="M493.84615384615387,483.33333333333337h27.692307692307693v88.33333333333326h-27.692307692307693Z" style="fill: #54a24b;"></path><path d="M493.84615384615387,420h27.692307692307693v63.33333333333337h-27.692307692307693Z" style="fill: #72b7b2;"></path><path d="M493.84615384615387,306.66666666666663h27.692307692307693v113.33333333333337h-27.692307692307693Z" style="fill: #e45756;"></path><path d="M493.84615384615387,285h27.692307692307693v13.333333333333314h-27.692307692307693Z" style="fill: #4c78a8;"></path><path d="M493.84615384615387,571.6666666666666h27.692307692307693v1.6666666666667425h-27.692307692307693Z" style="fill: #eeca3b;"></path><path d="M493.84615384615387,573.3333333333334h27.692307692307693v26.66666666666663h-27.692307692307693Z" style="fill: #b279a2;"></path><path d="M524.6153846153846,164.16666666666669h27.692307692307693v23.333333333333314h-27.692307692307693Z" style="fill: #f58518;"></path><path d="M524.6153846153846,187.5h27.692307692307693v230.83333333333331h-27.692307692307693Z" style="fill: #e45756;"></path><path d="M524.6153846153846,418.3333333333333h27.692307692307693v93.33333333333331h-27.692307692307693Z" style="fill: #72b7b2;"></path><path d="M524.6153846153846,511.66666666666663h27.692307692307693v61.66666666666674h-27.692307692307693Z" style="fill: #54a24b;"></path><path d="M524.6153846153846,125.00000000000003h27.692307692307693v39.16666666666666h-27.692307692307693Z" style="fill: #4c78a8;"></path><path d="M524.6153846153846,573.3333333333334h27.692307692307693v26.66666666666663h-27.692307692307693Z" style="fill: #b279a2;"></path><path d="M555.3846153846154,558.3333333333334h27.692307692307693v15h-27.692307692307693Z" style="fill: #54a24b;"></path><path d="M555.3846153846154,573.3333333333334h27.692307692307693v26.66666666666663h-27.692307692307693Z" style="fill: #b279a2;"></path><path d="M555.3846153846154,316.6666666666667h27.692307692307693v186.66666666666669h-27.692307692307693Z" style="fill: #e45756;"></path><path d="M555.3846153846154,503.33333333333337h27.692307692307693v55h-27.692307692307693Z" style="fill: #72b7b2;"></path><path d="M555.3846153846154,283.3333333333333h27.692307692307693v33.33333333333337h-27.692307692307693Z" style="fill: #f58518;"></path><path d="M555.3846153846154,280h27.692307692307693v3.3333333333333144h-27.692307692307693Z" style="fill: #4c78a8;"></path><path d="M586.1538461538462,241.66666666666669h27.692307692307693v50h-27.692307692307693Z" style="fill: #f58518;"></path><path d="M586.1538461538462,420h27.692307692307693v128.33333333333337h-27.692307692307693Z" style="fill: #72b7b2;"></path><path d="M586.1538461538462,291.6666666666667h27.692307692307693v128.33333333333331h-27.692307692307693Z" style="fill: #e45756;"></path><path d="M586.1538461538462,563.3333333333334h27.692307692307693v36.66666666666663h-27.692307692307693Z" style="fill: #eeca3b;"></path><path d="M586.1538461538462,235.00000000000003h27.692307692307693v6.666666666666657h-27.692307692307693Z" style="fill: #4c78a8;"></path><path d="M586.1538461538462,548.3333333333334h27.692307692307693v15h-27.692307692307693Z" style="fill: #54a24b;"></path><path d="M616.9230769230769,271.66666666666663h27.692307692307693v183.33333333333337h-27.692307692307693Z" style="fill: #e45756;"></path><path d="M616.9230769230769,573.3333333333334h27.692307692307693v26.66666666666663h-27.692307692307693Z" style="fill: #b279a2;"></path><path d="M616.9230769230769,540h27.692307692307693v33.33333333333337h-27.692307692307693Z" style="fill: #54a24b;"></path><path d="M616.9230769230769,455h27.692307692307693v85h-27.692307692307693Z" style="fill: #72b7b2;"></path><path d="M616.9230769230769,245h27.692307692307693v13.333333333333371h-27.692307692307693Z" style="fill: #4c78a8;"></path><path d="M616.9230769230769,258.33333333333337h27.692307692307693v13.333333333333258h-27.692307692307693Z" style="fill: #f58518;"></path><path d="M647.6923076923077,260h27.692307692307693v16.666666666666686h-27.692307692307693Z" style="fill: #4c78a8;"></path><path d="M647.6923076923077,493.3333333333333h27.692307692307693v78.33333333333331h-27.692307692307693Z" style="fill: #72b7b2;"></path><path d="M647.6923076923077,585h27.692307692307693v15h-27.692307692307693Z" style="fill: #eeca3b;"></path><path d="M647.6923076923077,296.6666666666667h27.692307692307693v196.66666666666663h-27.692307692307693Z" style="fill: #e45756;"></path><path d="M647.6923076923077,571.6666666666666h27.692307692307693v13.333333333333371h-27.692307692307693Z" style="fill: #54a24b;"></path><path d="M647.6923076923077,276.6666666666667h27.692307692307693v20h-27.692307692307693Z" style="fill: #f58518;"></path><path d="M678.4615384615385,210h27.692307692307693v211.66666666666663h-27.692307692307693Z" style="fill: #e45756;"></path><path d="M678.4615384615385,200.00000000000003h27.692307692307693v9.999999999999972h-27.692307692307693Z" style="fill: #f58518;"></path><path d="M678.4615384615385,181.66666666666669h27.692307692307693v18.333333333333343h-27.692307692307693Z" style="fill: #4c78a8;"></path><path d="M678.4615384615385,421.66666666666663h27.692307692307693v66.66666666666669h-27.692307692307693Z" style="fill: #72b7b2;"></path><path d="M678.4615384615385,488.3333333333333h27.692307692307693v5h-27.692307692307693Z" style="fill: #54a24b;"></path><path d="M678.4615384615385,493.3333333333333h27.692307692307693v106.66666666666669h-27.692307692307693Z" style="fill: #b279a2;"></path><path d="M709.2307692307693,388.33333333333326h27.692307692307693v146.66666666666674h-27.692307692307693Z" style="fill: #72b7b2;"></path><path d="M709.2307692307693,320h27.692307692307693v68.33333333333326h-27.692307692307693Z" style="fill: #e45756;"></path><path d="M709.2307692307693,535h27.692307692307693v11.666666666666629h-27.692307692307693Z" style="fill: #54a24b;"></path><path d="M709.2307692307693,546.6666666666666h27.692307692307693v53.33333333333337h-27.692307692307693Z" style="fill: #b279a2;"></path><path d="M740,553.3333333333334h27.692307692307693v46.66666666666663h-27.692307692307693Z" style="fill: #b279a2;"></path><path d="M740,416.66666666666663h27.692307692307693v100.00000000000011h-27.692307692307693Z" style="fill: #72b7b2;"></path><path d="M740,223.33333333333334h27.692307692307693v18.333333333333343h-27.692307692307693Z" style="fill: #f58518;"></path><path d="M740,241.66666666666669h27.692307692307693v174.99999999999994h-27.692307692307693Z" style="fill: #e45756;"></path><path d="M740,540h27.692307692307693v13.333333333333371h-27.692307692307693Z" style="fill: #eeca3b;"></path><path d="M740,516.6666666666667h27.692307692307693v23.333333333333258h-27.692307692307693Z" style="fill: #54a24b;"></path><path d="M770.7692307692308,353.33333333333337h27.692307692307693v125h-27.692307692307693Z" style="fill: #e45756;"></path><path d="M770.7692307692308,478.33333333333337h27.692307692307693v89.99999999999989h-27.692307692307693Z" style="fill: #72b7b2;"></path><path d="M770.7692307692308,323.3333333333333h27.692307692307693v3.3333333333333712h-27.692307692307693Z" style="fill: #4c78a8;"></path><path d="M770.7692307692308,578.3333333333334h27.692307692307693v5h-27.692307692307693Z" style="fill: #eeca3b;"></path><path d="M770.7692307692308,326.6666666666667h27.692307692307693v26.666666666666686h-27.692307692307693Z" style="fill: #f58518;"></path><path d="M770.7692307692308,568.3333333333333h27.692307692307693v10.000000000000114h-27.692307692307693Z" style="fill: #54a24b;"></path><path d="M770.7692307692308,583.3333333333334h27.692307692307693v16.66666666666663h-27.692307692307693Z" style="fill: #b279a2;"></path></g><g class="mark-group role-legend"><g transform="translate(818,0)"><path class="background" d="M0,0h112v105h-112Z" style="pointer-events: none; fill: none;"></path><g><g class="mark-group role-legend-entry"><g transform="translate(0,16)"><path class="background" d="M0,0h0v0h0Z" style="pointer-events: none; fill: none;"></path><g><g class="mark-group role-scope"><g transform="translate(0,0)"><path class="background" d="M0,0h112v11h-112Z" style="pointer-events: none; fill: none; opacity: 1;"></path><g><g class="mark-symbol role-legend-symbol" style="pointer-events: none;"><path transform="translate(6,6)" d="M-5,-5h10v10h-10Z" style="fill: #4c78a8; stroke-width: 1.5; opacity: 1;"></path></g><g class="mark-text role-legend-label" style="pointer-events: none;"><text text-anchor="start" transform="translate(16,9)" style="font-family: sans-serif; font-size: 10px; fill: #000; opacity: 1;">APOLLO</text></g></g><path class="foreground" d="" style="pointer-events: none; display: none; fill: none;"></path></g><g transform="translate(0,13)"><path class="background" d="M0,0h112v11h-112Z" style="pointer-events: none; fill: none; opacity: 1;"></path><g><g class="mark-symbol role-legend-symbol" style="pointer-events: none;"><path transform="translate(6,6)" d="M-5,-5h10v10h-10Z" style="fill: #f58518; stroke-width: 1.5; opacity: 1;"></path></g><g class="mark-text role-legend-label" style="pointer-events: none;"><text text-anchor="start" transform="translate(16,9)" style="font-family: sans-serif; font-size: 10px; fill: #000; opacity: 1;">EDF</text></g></g><path class="foreground" d="" style="pointer-events: none; display: none; fill: none;"></path></g><g transform="translate(0,26)"><path class="background" d="M0,0h112v11h-112Z" style="pointer-events: none; fill: none; opacity: 1;"></path><g><g class="mark-symbol role-legend-symbol" style="pointer-events: none;"><path transform="translate(6,6)" d="M-5,-5h10v10h-10Z" style="fill: #e45756; stroke-width: 1.5; opacity: 1;"></path></g><g class="mark-text role-legend-label" style="pointer-events: none;"><text text-anchor="start" transform="translate(16,9)" style="font-family: sans-serif; font-size: 10px; fill: #000; opacity: 1;">ETL</text></g></g><path class="foreground" d="" style="pointer-events: none; display: none; fill: none;"></path></g><g transform="translate(0,39)"><path class="background" d="M0,0h112v11h-112Z" style="pointer-events: none; fill: none; opacity: 1;"></path><g><g class="mark-symbol role-legend-symbol" style="pointer-events: none;"><path transform="translate(6,6)" d="M-5,-5h10v10h-10Z" style="fill: #72b7b2; stroke-width: 1.5; opacity: 1;"></path></g><g class="mark-text role-legend-label" style="pointer-events: none;"><text text-anchor="start" transform="translate(16,9)" style="font-family: sans-serif; font-size: 10px; fill: #000; opacity: 1;">GEM</text></g></g><path class="foreground" d="" style="pointer-events: none; display: none; fill: none;"></path></g><g transform="translate(0,52)"><path class="background" d="M0,0h112v11h-112Z" style="pointer-events: none; fill: none; opacity: 1;"></path><g><g class="mark-symbol role-legend-symbol" style="pointer-events: none;"><path transform="translate(6,6)" d="M-5,-5h10v10h-10Z" style="fill: #54a24b; stroke-width: 1.5; opacity: 1;"></path></g><g class="mark-text role-legend-label" style="pointer-events: none;"><text text-anchor="start" transform="translate(16,9)" style="font-family: sans-serif; font-size: 10px; fill: #000; opacity: 1;">L0MDT</text></g></g><path class="foreground" d="" style="pointer-events: none; display: none; fill: none;"></path></g><g transform="translate(0,65)"><path class="background" d="M0,0h112v11h-112Z" style="pointer-events: none; fill: none; opacity: 1;"></path><g><g class="mark-symbol role-legend-symbol" style="pointer-events: none;"><path transform="translate(6,6)" d="M-5,-5h10v10h-10Z" style="fill: #eeca3b; stroke-width: 1.5; opacity: 1;"></path></g><g class="mark-text role-legend-label" style="pointer-events: none;"><text text-anchor="start" transform="translate(16,9)" style="font-family: sans-serif; font-size: 10px; fill: #000; opacity: 1;">OTHER PRJ</text></g></g><path class="foreground" d="" style="pointer-events: none; display: none; fill: none;"></path></g><g transform="translate(0,78)"><path class="background" d="M0,0h112v11h-112Z" style="pointer-events: none; fill: none; opacity: 1;"></path><g><g class="mark-symbol role-legend-symbol" style="pointer-events: none;"><path transform="translate(6,6)" d="M-5,-5h10v10h-10Z" style="fill: #b279a2; stroke-width: 1.5; opacity: 1;"></path></g><g class="mark-text role-legend-label" style="pointer-events: none;"><text text-anchor="start" transform="translate(16,9)" style="font-family: sans-serif; font-size: 10px; fill: #000; opacity: 1;">VAC/SICK/HOL</text></g></g><path class="foreground" d="" style="pointer-events: none; display: none; fill: none;"></path></g></g></g><path class="foreground" d="" style="pointer-events: none; display: none; fill: none;"></path></g></g><g class="mark-text role-legend-title" style="pointer-events: none;"><text text-anchor="start" transform="translate(0,9)" style="font-family: sans-serif; font-size: 11px; font-weight: bold; fill: #000; opacity: 1;">Project</text></g></g><path class="foreground" d="" style="pointer-events: none; display: none; fill: none;"></path></g></g></g><path class="foreground" d="" style="display: none; fill: none;"></path></g></g></g></svg>