<svg class="marks" width="952" height="653" viewBox="0 0 952 653" version="1.1" xmlns="http://www.w3.org/2000/svg" xmlns:xlink="http://www.w3.org/1999/xlink"><rect width="952" height="653" style="fill: white;"></rect><g transform="translate(67,10)"><g class="mark-group role-frame root"><g transform="translate(0,0)"><path class="background" d="M0.5,0.5h800v600h-800Z" style="fill: none; stroke: #ddd;"></path><g><g class="mark-group role-axis"><g transform="translate(0.5,0.5)"><path class="background" d="M0,0h0v0h0Z" style="pointer-events: none; fill: none;"></path><g><g class="mark-rule role-axis-grid" style="pointer-events: none;"><line transform="translate(0,600)" x2="800" y2="0" style="fill: none; stroke: #ddd; stroke-width: 1; opacity: 1;"></line><line transform="translate(0,545)" x2="800" y2="0" style="fill: none; stroke: #ddd; stroke-width: 1; opacity: 1;"></line><line transform="translate(0,491)" x2="800" y2="0" style="fill: none; stroke: #ddd; stroke-width: 1; opacity: 1;"></line><line transform="translate(0,436)" x2="800" y2="0" style="fill: none; stroke: #ddd; stroke-width: 1; opacity: 1;"></line><line transform="translate(0,382)" x2="800" y2="0" style="fill: none; stroke: #ddd; stroke-width: 1; opacity: 1;"></line><line transform="translate(0,327)" x2="800" y2="0" style="fill: none; stroke: #ddd; stroke-width: 1; opacity: 1;"></line><line transform="translate(0,273)" x2="800" y2="0" style="fill: none; stroke: #ddd; stroke-width: 1; opacity: 1;"></line><line transform="translate(0,218)" x2="800" y2="0" style="fill: none; stroke: #ddd; stroke-width: 1; opacity: 1;"></line><line transform="translate(0,164)" x2="800" y2="0" style="fill: none; stroke: #ddd; stroke-width: 1; opacity: 1;"></line><line transform="translate(0,109)" x2="800" y2="0" style="fill: none; stroke: #ddd; stroke-width: 1; opacity: 1;"></line><line transform="translate(0,55)" x2="800" y2="0" style="fill: none; stroke: #ddd; stroke-width: 1; opacity: 1;"></line><line transform="translate(0,0)" x2="800" y2="0" style="fill: none; stroke: #ddd; stroke-width: 1; opacity: 1;"></line></g></g><path class="foreground" d="" style="pointer-events: none; display: none; fill: none;"></path></g></g><g class="mark-group role-axis"><g transform="translate(0.5,600.5)"><path class="background" d="M0,0h0v0h0Z" style="pointer-events: none; fill: none;"></path><g><g class="mark-rule role-axis-tick" style="pointer-events: none;"><line transform="translate(6,0)" x2="0" y2="5" style="fill: none; stroke: #888; stroke-width: 1; opacity: 1;"></line><line transform="translate(68,0)" x2="0" y2="5" style="fill: none; stroke: #888; stroke-width: 1; opacity: 1;"></line><line transform="translate(129,0)" x2="0" y2="5" style="fill: none; stroke: #888; stroke-width: 1; opacity: 1;"></line><line transform="translate(197,0)" x2="0" y2="5" style="fill: none; stroke: #888; stroke-width: 1; opacity: 1;"></line><line transform="translate(266,0)" x2="0" y2="5" style="fill: none; stroke: #888; stroke-width: 1; opacity: 1;"></line><line transform="translate(330,0)" x2="0" y2="5" style="fill: none; stroke: #888; stroke-width: 1; opacity: 1;"></line><line transform="translate(396,0)" x2="0" y2="5" style="fill: none; stroke: #888; stroke-width: 1; opacity: 1;"></line><line transform="translate(465,0)" x2="0" y2="5" style="fill: none; stroke: #888; stroke-width: 1; opacity: 1;"></line><line transform="translate(531,0)" x2="0" y2="5" style="fill: none; stroke: #888; stroke-width: 1; opacity: 1;"></line><line transform="translate(597,0)" x2="0" y2="5" style="fill: none; stroke: #888; stroke-width: 1; opacity: 1;"></line><line transform="translate(664,0)" x2="0" y2="5" style="fill: none; stroke: #888; stroke-width: 1; opacity: 1;"></line><line transform="translate(730,0)" x2="0" y2="5" style="fill: none; stroke: #888; stroke-width: 1; opacity: 1;"></line></g><g class="mark-text role-axis-label" style="pointer-events: none;"><text text-anchor="end" transform="translate(6.369426751592379,7) rotate(270) translate(0,3)" style="font-family: sans-serif; font-size: 10px; fill: #000; opacity: 1;">1</text><text text-anchor="end" transform="translate(67.515923566879,7) rotate(270) translate(0,3)" style="font-family: sans-serif; font-size: 10px; fill: #000; opacity: 1;">2</text><text text-anchor="end" transform="translate(128.66242038216564,7) rotate(270) translate(0,3)" style="font-family: sans-serif; font-size: 10px; fill: #000; opacity: 1;">3</text><text text-anchor="end" transform="translate(197.45222929936307,7) rotate(270) translate(0,3)" style="font-family: sans-serif; font-size: 10px; fill: #000; opacity: 1;">4</text><text text-anchor="end" transform="translate(266.2420382165605,7) rotate(270) translate(0,3)" style="font-family: sans-serif; font-size: 10px; fill: #000; opacity: 1;">5</text><text text-anchor="end" transform="translate(329.9363057324841,7) rotate(270) translate(0,3)" style="font-family: sans-serif; font-size: 10px; fill: #000; opacity: 1;">6</text><text text-anchor="end" transform="translate(396.1783439490446,7) rotate(270) translate(0,3)" style="font-family: sans-serif; font-size: 10px; fill: #000; opacity: 1;">7</text><text text-anchor="end" transform="translate(464.96815286624206,7) rotate(270) translate(0,3)" style="font-family: sans-serif; font-size: 10px; fill: #000; opacity: 1;">8</text><text text-anchor="end" transform="translate(531.2101910828026,7) rotate(270) translate(0,3)" style="font-family: sans-serif; font-size: 10px; fill: #000; opacity: 1;">9</text><text text-anchor="end" transform="translate(597.4522292993631,7) rotate(270) translate(0,3)" style="font-family: sans-serif; font-size: 10px; fill: #000; opacity: 1;">10</text><text text-anchor="end" transform="translate(663.6942675159235,7) rotate(270) translate(0,3)" style="font-family: sans-serif; font-size: 10px; fill: #000; opacity: 1;">11</text><text text-anchor="end" transform="translate(729.936305732484,7) rotate(270) translate(0,3)" style="font-family: sans-serif; font-size: 10px; fill: #000; opacity: 1;">12</text></g><g class="mark-rule role-axis-domain" style="pointer-events: none;"><line transform="translate(0,0)" x2="800" y2="0" style="fill: none; stroke: #888; stroke-width: 1; opacity: 1;"></line></g><g class="mark-text role-axis-title" style="pointer-events: none;"><text text-anchor="middle" transform="translate(400,36)" style="font-family: sans-serif; font-size: 11px; font-weight: bold; fill: #000; opacity: 1;">Date</text></g></g><path class="foreground" d="" style="pointer-events: none; display: none; fill: none;"></path></g></g><g class="mark-group role-axis"><g transform="translate(0.5,0.5)"><path class="background" d="M0,0h0v0h0Z" style="pointer-events: none; fill: none;"></path><g><g class="mark-rule role-axis-tick" style="pointer-events: none;"><line transform="translate(0,600)" x2="-5" y2="0" style="fill: none; stroke: #888; stroke-width: 1; opacity: 1;"></line><line transform="translate(0,545)" x2="-5" y2="0" style="fill: none; stroke: #888; stroke-width: 1; opacity: 1;"></line><line transform="translate(0,491)" x2="-5" y2="0" style="fill: none; stroke: #888; stroke-width: 1; opacity: 1;"></line><line transform="translate(0,436)" x2="-5" y2="0" style="fill: none; stroke: #888; stroke-width: 1; opacity: 1;"></line><line transform="translate(0,382)" x2="-5" y2="0" style="fill: none; stroke: #888; stroke-width: 1; opacity: 1;"></line><line transform="translate(0,327)" x2="-5" y2="0" style="fill: none; stroke: #888; stroke-width: 1; opacity: 1;"></line><line transform="translate(0,273)" x2="-5" y2="0" style="fill: none; stroke: #888; stroke-width: 1; opacity: 1;"></line><line transform="translate(0,218)" x2="-5" y2="0" style="fill: none; stroke: #888; stroke-width: 1; opacity: 1;"></line><line transform="translate(0,164)" x2="-5" y2="0" style="fill: none; stroke: #888; stroke-width: 1; opacity: 1;"></line><line transform="translate(0,109)" x2="-5" y2="0" style="fill: none; stroke: #888; stroke-width: 1; opacity: 1;"></line><line transform="translate(0,55)" x2="-5" y2="0" style="fill: none; stroke: #888; stroke-width: 1; opacity: 1;"></line><line transform="translate(0,0)" x2="-5" y2="0" style="fill: none; stroke: #888; stroke-width: 1; opacity: 1;"></line></g><g class="mark-text role-axis-label" style="pointer-events: none;"><text text-anchor="end" transform="translate(-7,603)" style="font-family: sans-serif; font-size: 10px; fill: #000; opacity: 1;">0</text><text text-anchor="end" transform="translate(-7,548.4545454545454)" style="font-family: sans-serif; font-size: 10px; fill: #000; opacity: 1;">200</text><text text-anchor="end" transform="translate(-7,493.9090909090909)" style="font-family: sans-serif; font-size: 10px; fill: #000; opacity: 1;">400</text><text text-anchor="end" transform="translate(-7,439.3636363636364)" style="font-family: sans-serif; font-size: 10px; fill: #000; opacity: 1;">600</text><text text-anchor="end" transform="translate(-7,384.8181818181818)" style="font-family: sans-serif; font-size: 10px; fill: #000; opacity: 1;">800</text><text text-anchor="end" transform="translate(-7,330.27272727272725)" style="font-family: sans-serif; font-size: 10px; fill: #000; opacity: 1;">1,000</text><text text-anchor="end" transform="translate(-7,275.72727272727275)" style="font-family: sans-serif; font-size: 10px; fill: #000; opacity: 1;">1,200</text><text text-anchor="end" transform="translate(-7,221.1818181818182)" style="font-family: sans-serif; font-size: 10px; fill: #000; opacity: 1;">1,400</text><text text-anchor="end" transform="translate(-7,166.63636363636363)" style="font-family: sans-serif; font-size: 10px; fill: #000; opacity: 1;">1,600</text><text text-anchor="end" transform="translate(-7,112.09090909090907)" style="font-family: sans-serif; font-size: 10px; fill: #000; opacity: 1;">1,800</text><text text-anchor="end" transform="translate(-7,57.54545454545456)" style="font-family: sans-serif; font-size: 10px; fill: #000; opacity: 1;">2,000</text><text text-anchor="end" transform="translate(-7,3)" style="font-family: sans-serif; font-size: 10px; fill: #000; opacity: 1;">2,200</text></g><g class="mark-rule role-axis-domain" style="pointer-events: none;"><line transform="translate(0,600)" x2="0" y2="-600" style="fill: none; stroke: #888; stroke-width: 1; opacity: 1;"></line></g><g class="mark-text role-axis-title" style="pointer-events: none;"><text text-anchor="middle" transform="translate(-51,300) rotate(-90) translate(0,-2)" style="font-family: sans-serif; font-size: 11px; font-weight: bold; fill: #000; opacity: 1;">Sum of Hours</text></g></g><path class="foreground" d="" style="pointer-events: none; display: none; fill: none;"></path></g></g><g class="mark-group role-scope pathgroup"><g transform="translate(0,0)"><path class="background" d="M0,0h800v600h-800Z" style="fill: none;"></path><g><g class="mark-line role-mark marks"><path d="M6.369426751592379,597.8181818181818L8.917197452229322,596.1818181818182L11.464968152866264,594.1363636363636L14.012738853503206,592.3636363636364L16.56050955414015,591.1363636363636L21.656050955414035,589.7727272727273L24.203821656050977,588.1363636363636L26.75159235668792,586.5L29.29936305732486,584.1818181818181L31.847133757961807,582.2727272727273L36.94267515923569,580.0909090909091L39.49044585987263,578.0454545454545L42.038216560509575,575.1818181818181L44.58598726114652,572.5909090909091L47.13375796178346,570.8181818181819L52.22929936305734,568.3636363636364L54.77707006369429,565.2272727272727L57.32484076433123,563.3181818181818L59.87261146496817,562.090909090909L62.42038216560512,559.7727272727273L67.515923566879,558.1363636363636L70.06369426751594,556.3636363636364L72.61146496815289,554.7272727272727L75.15923566878983,554.4545454545455L77.70700636942676,552.5454545454545L82.80254777070066,551.5909090909091L85.3503184713376,550.5L87.89808917197455,549.2727272727273L90.44585987261148,548.1818181818181L92.99363057324842,546.8181818181819L98.08917197452232,544.6363636363636L100.63694267515925,543.6818181818181L103.18471337579619,541.7727272727273L105.73248407643314,540L108.28025477707008,537.2727272727273L113.37579617834396,534.8181818181819L115.9235668789809,533.1818181818182L118.47133757961785,531L121.0191082802548,529.2272727272727L123.56687898089174,526.5L126.11464968152868,525.9545454545455L128.66242038216564,523.6363636363636L131.21019108280257,521.7272727272727L133.7579617834395,519L136.30573248407646,517.3636363636364L138.8535031847134,515.0454545454545L143.94904458598728,512.8636363636364L146.4968152866242,510.68181818181813L149.04458598726117,508.3636363636364L151.5923566878981,506.5909090909091L154.14012738853503,504.95454545454544L159.23566878980893,502.77272727272725L161.7834394904459,501L164.33121019108282,498.81818181818176L166.87898089171975,496.3636363636364L169.4267515923567,494.72727272727275L174.5222929936306,492.81818181818176L177.07006369426753,491.3181818181818L179.61783439490446,489.1363636363636L182.16560509554142,488.5909090909091L184.71337579617835,485.72727272727275L189.80891719745225,484.3636363636364L192.35668789808918,482.18181818181824L194.90445859872614,481.09090909090907L197.45222929936307,478.90909090909093L200,476.72727272727275L205.0955414012739,474.8181818181818L207.64331210191085,472.6363636363636L210.19108280254778,471L212.7388535031847,468.8181818181818L215.28662420382167,466.77272727272725L220.38216560509557,464.45454545454544L222.9299363057325,463.77272727272725L225.47770700636943,461.45454545454544L228.0254777070064,458.31818181818187L230.57324840764332,457.0909090909091L235.6687898089172,454.90909090909093L238.21656050955414,452.8636363636364L240.7643312101911,450.2727272727273L243.31210191082803,448.0909090909091L245.859872611465,445.9090909090909L250.95541401273886,443.7272727272727L253.50318471337582,441.5454545454545L256.0509554140127,438.95454545454544L258.5987261146497,436.3636363636364L261.14649681528664,434.72727272727275L266.2420382165605,432.54545454545456L268.7898089171975,430.7727272727273L271.3375796178344,428.1818181818182L273.88535031847135,426L276.4331210191083,423.54545454545456L281.52866242038215,421.2272727272727L284.07643312101914,419.3181818181818L286.62420382165607,416.8636363636364L289.171974522293,414.6818181818182L291.71974522292993,412.90909090909093L296.81528662420385,410.8636363636364L299.3630573248408,409.22727272727275L301.9108280254777,406.90909090909093L304.45859872611464,404.72727272727275L307.0063694267516,402.54545454545456L312.1019108280255,400.3636363636363L314.6496815286624,398.59090909090907L317.19745222929936,395.8636363636364L319.7452229299363,393.40909090909093L322.2929936305733,391.6363636363636L327.38853503184714,389.72727272727275L329.9363057324841,387L332.484076433121,383.5909090909091L335.031847133758,381.40909090909093L337.5796178343949,379.0909090909091L342.6751592356688,376.77272727272725L345.2229299363057,374.59090909090907L347.7707006369427,372.5454545454545L350.31847133757964,369.81818181818187L352.86624203821657,367.7727272727273L357.96178343949043,365.5909090909091L360.5095541401274,363.1363636363636L363.05732484076435,360.95454545454544L365.6050955414013,358.77272727272725L368.1528662420382,356.59090909090907L373.24840764331213,354.27272727272725L375.79617834394907,351.81818181818187L378.343949044586,349.3636363636364L380.89171974522293,346.63636363636357L383.43949044585986,343.7727272727273L388.5350318471338,341.72727272727275L391.0828025477707,339.54545454545456L393.63057324840764,337.90909090909093L396.1783439490446,335.72727272727275L398.7261146496815,333.8181818181818L403.8216560509554,331.6363636363636L406.36942675159236,329.45454545454544L408.9171974522293,327.27272727272725L411.4649681528662,325.09090909090907L414.0127388535032,322.90909090909093L419.10828025477707,320.4545454545455L421.656050955414,317.8636363636364L424.20382165605093,315.4090909090909L426.7515923566879,313.5L429.29936305732485,311.18181818181813L434.3949044585987,309L436.94267515923565,306.8181818181818L439.49044585987264,304.6363636363637L442.03821656050957,302.4545454545455L444.5859872611465,299.59090909090907L449.68152866242036,297.40909090909093L452.22929936305735,294.95454545454544L454.7770700636943,292.6363636363636L457.3248407643312,290.3181818181818L459.87261146496814,287.8636363636363L464.96815286624206,285.54545454545456L467.515923566879,282.8181818181818L470.0636942675159,280.3636363636364L472.61146496815286,278.0454545454545L475.1592356687898,276.1363636363636L480.2547770700637,273.81818181818187L482.80254777070064,270.95454545454544L485.3503184713376,269.0454545454545L487.8980891719745,266.8636363636364L490.4458598726115,264.81818181818187L495.54140127388536,262.7727272727273L498.0891719745223,260.3181818181818L500.6369426751592,258.1363636363636L503.18471337579615,255.95454545454547L505.73248407643314,253.77272727272728L510.828025477707,251.31818181818178L513.375796178344,249.54545454545453L515.9235668789809,246.95454545454547L518.4713375796177,246.00000000000003L521.0191082802548,243.95454545454547L526.1146496815286,241.77272727272728L528.6624203821657,239.59090909090907L531.2101910828026,237.13636363636365L533.7579617834394,234.8181818181818L536.3057324840765,232.49999999999997L541.4012738853503,230.31818181818184L543.9490445859872,228L546.4968152866243,226.22727272727275L549.0445859872611,224.11363636363637L551.592356687898,221.9318181818182L556.687898089172,220.02272727272728L559.2356687898089,217.84090909090907L561.7834394904457,215.65909090909088L564.3312101910828,213.3409090909091L566.8789808917197,210.74999999999997L571.9745222929937,208.56818181818184L574.5222929936306,206.65909090909093L577.0700636942674,204.3409090909091L579.6178343949045,202.02272727272725L582.1656050955414,199.84090909090907L587.2611464968152,197.65909090909093L589.8089171974523,195.75000000000003L592.3566878980891,193.29545454545453L594.904458598726,190.70454545454547L597.4522292993631,188.38636363636363L602.5477707006369,186.34090909090907L605.095541401274,184.15909090909088L607.6433121019109,181.97727272727275L610.1910828025477,179.79545454545456L612.7388535031846,177.61363636363637L617.8343949044586,175.43181818181816L620.3821656050955,173.24999999999997L622.9299363057326,171.2045454545455L625.4777070063694,169.15909090909093L628.0254777070063,166.97727272727275L633.1210191082803,164.79545454545453L635.6687898089172,162.61363636363635L638.216560509554,160.29545454545456L640.7643312101911,158.11363636363637L643.312101910828,155.9318181818182L648.407643312102,153.75L650.9554140127389,151.29545454545456L653.5031847133757,148.97727272727272L656.0509554140128,146.79545454545453L658.5987261146497,144.47727272727275L663.6942675159235,142.43181818181822L666.2420382165606,140.25L668.7898089171974,138.3409090909091L671.3375796178343,136.29545454545456L673.8853503184714,134.52272727272728L678.9808917197452,132.3409090909091L681.5286624203823,130.1590909090909L684.0764331210191,128.11363636363635L686.624203821656,125.65909090909093L689.1719745222929,123.75000000000003L694.2675159235669,121.43181818181819L696.8152866242037,119.24999999999999L699.3630573248408,117.34090909090908L701.9108280254777,115.02272727272724L704.4585987261146,112.84090909090911L709.5541401273886,110.65909090909092L712.1019108280254,108.34090909090908L714.6496815286623,106.15909090909088L717.1974522292994,103.97727272727275L719.7452229299363,101.79545454545456L724.8407643312103,99.75L727.3885350318471,97.43181818181816L729.936305732484,95.24999999999997L732.4840764331211,93.06818181818184L735.031847133758,91.15909090909093L740.1273885350317,88.97727272727273L742.6751592356688,86.52272727272725L745.2229299363057,84.34090909090912L747.7707006369426,82.5681818181818L750.3184713375797,80.93181818181819L752.8662420382166,79.29545454545458L757.9617834394905,77.11363636363637L760.5095541401274,74.79545454545453L763.0573248407643,72.34090909090911L765.6050955414012,70.15909090909092L768.1528662420383,67.84090909090908L773.248407643312,65.65909090909088L775.7961783439491,65.11363636363636L778.343949044586,61.56818181818184L780.8917197452229,59.38636363636365L783.4394904458597,57.20454545454545L788.5350318471337,55.02272727272726L791.0828025477706,52.84090909090906L793.6305732484077,50.659090909090935L796.1783439490446,48.477272727272734L798.7261146496814,46.29545454545454" style="fill: none; stroke: #4c78a8; stroke-width: 2;"></path></g></g><path class="foreground" d="" style="display: none; fill: none;"></path></g><g transform="translate(0,0)"><path class="background" d="M0,0h800v600h-800Z" style="fill: none;"></path><g><g class="mark-line role-mark marks"><path d="M3.8216560509554367,597.8181818181818L6.369426751592379,595.7727272727273L8.917197452229322,594.6818181818181L11.464968152866264,592.9090909090909L14.012738853503206,591.4090909090909L19.108280254777092,589.5L21.656050955414035,587.5909090909091L24.203821656050977,585.5454545454546L26.75159235668792,583.3636363636364L29.29936305732486,581.1818181818181L34.394904458598745,579L36.94267515923569,577.0909090909091L39.49044585987263,574.9090909090909L42.038216560509575,572.5909090909091L44.58598726114652,570.4090909090909L49.681528662420405,568.2272727272727L52.22929936305734,566.5909090909091L54.77707006369429,563.3181818181818L57.32484076433123,560.8636363636364L59.87261146496817,559.0909090909091L64.96815286624206,557.7272727272727L67.515923566879,555.8181818181819L70.06369426751594,552.8181818181819L72.61146496815289,550.6363636363636L75.15923566878983,549L80.25477707006371,546.8181818181819L82.80254777070066,544.6363636363636L85.3503184713376,542.3181818181818L87.89808917197455,540.1363636363636L90.44585987261148,537.9545454545455L95.54140127388537,535.7727272727273L98.08917197452232,533.5909090909091L100.63694267515925,531.409090909091L103.18471337579619,529.0909090909091L105.73248407643314,527.7272727272727L110.82802547770703,524.8636363636364L113.37579617834396,523.0909090909091L115.9235668789809,520.9090909090909L118.47133757961785,518.7272727272727L121.0191082802548,516.8181818181818L126.11464968152868,514.7727272727273L128.66242038216564,512.8636363636364L131.21019108280257,510.1363636363636L133.7579617834395,507.81818181818187L136.30573248407646,506.1818181818182L141.40127388535032,504L143.94904458598728,501.95454545454544L146.4968152866242,499.5L149.04458598726117,497.45454545454544L151.5923566878981,495.1363636363636L156.687898089172,493.09090909090907L159.23566878980893,490.9090909090909L161.7834394904459,489.1363636363636L164.33121019108282,487.09090909090907L166.87898089171975,484.6363636363636L171.97452229299364,482.45454545454544L174.5222929936306,480.8181818181818L177.07006369426753,475.90909090909093L179.61783439490446,477.4090909090909L182.16560509554142,473.72727272727275L187.26114649681531,471.6818181818182L189.80891719745225,469.5L192.35668789808918,467.18181818181813L194.90445859872614,465.5454545454545L197.45222929936307,463.6363636363636L202.54777070063696,461.45454545454544L205.0955414012739,460.6363636363636L207.64331210191085,458.4545454545455L210.19108280254778,456.2727272727273L212.7388535031847,454.0909090909091L217.8343949044586,451.9090909090909L220.38216560509557,449.7272727272727L222.9299363057325,447.5454545454545L225.47770700636943,445.3636363636363L228.0254777070064,443.1818181818182L233.12101910828028,441L235.6687898089172,438.81818181818187L238.21656050955414,436.7727272727273L240.7643312101911,434.5909090909091L243.31210191082803,432.54545454545456L248.40764331210192,430.3636363636364L250.95541401273886,428.45454545454544L253.50318471337582,426.40909090909093L256.0509554140127,424.5L258.5987261146497,422.3181818181818L263.69426751592357,420.1363636363636L266.2420382165605,417.95454545454544L268.7898089171975,415.77272727272725L271.3375796178344,413.8636363636363L273.88535031847135,412.2272727272727L278.9808917197452,410.3181818181818L281.52866242038215,408.27272727272725L284.07643312101914,407.45454545454544L286.62420382165607,405.6818181818182L289.171974522293,403.9090909090909L294.26751592356686,402.4090909090909L296.81528662420385,400.2272727272727L299.3630573248408,398.0454545454545L301.9108280254777,396.6818181818182L304.45859872611464,394.90909090909093L309.55414012738856,392.72727272727275L312.1019108280255,390.5454545454545L314.6496815286624,388.77272727272725L317.19745222929936,386.59090909090907L319.7452229299363,384.5454545454545L324.8407643312102,382.3636363636363L327.38853503184714,380.7272727272727L329.9363057324841,378.4090909090909L332.484076433121,376.02272727272725L335.031847133758,373.97727272727275L340.12738853503186,371.7954545454545L342.6751592356688,368.65909090909093L345.2229299363057,366.47727272727275L347.7707006369427,364.29545454545456L350.31847133757964,362.3863636363636L355.4140127388535,360.75000000000006L357.96178343949043,358.9772727272727L360.5095541401274,356.7272727272727L363.05732484076435,355.09090909090907L365.6050955414013,352.5L370.70063694267515,350.7272727272727L373.24840764331213,349.5L375.79617834394907,347.5909090909091L378.343949044586,345.6818181818182L380.89171974522293,343.2272727272727L385.9872611464968,341.5909090909091L388.5350318471338,339.6818181818182L391.0828025477707,337.5L393.63057324840764,335.5909090909091L396.1783439490446,332.72727272727275L401.2738853503185,330.54545454545456L403.8216560509554,328.36363636363643L406.36942675159236,326.18181818181824L408.9171974522293,324L411.4649681528662,321.8181818181818L416.56050955414014,319.09090909090907L419.10828025477707,316.90909090909093L421.656050955414,314.59090909090907L424.20382165605093,312.95454545454544L426.7515923566879,310.77272727272725L431.8471337579618,309.13636363636357L434.3949044585987,306.95454545454544L436.94267515923565,304.77272727272725L439.49044585987264,302.5909090909091L442.03821656050957,300.40909090909093L447.13375796178343,298.22727272727275L449.68152866242036,297.2727272727273L452.22929936305735,296.4545454545455L454.7770700636943,295.3636363636364L457.3248407643312,294.54545454545456L462.4203821656051,293.7272727272727L467.515923566879,292.3636363636364L470.0636942675159,291L472.61146496815286,290.1818181818182L477.7070063694268,289.6363636363637L480.2547770700637,288.8181818181818L482.80254777070064,288L485.3503184713376,287.1818181818182L487.8980891719745,285.8181818181818L492.9936305732484,283.6363636363637L495.54140127388536,281.4545454545455L498.0891719745223,279.27272727272725L500.6369426751592,277.3636363636364L503.18471337579615,275.1818181818182L508.28025477707007,273.27272727272725L510.828025477707,272.5909090909091L513.375796178344,270.95454545454544L515.9235668789809,269.72727272727275L518.4713375796177,268.5L523.5668789808917,266.72727272727275L526.1146496815286,264.9545454545455L528.6624203821657,263.3181818181818L531.2101910828026,262.3636363636364L533.7579617834394,260.18181818181813L538.8535031847134,258.00000000000006L541.4012738853503,256.09090909090907L543.9490445859872,254.72727272727275L546.4968152866243,252.27272727272725L549.0445859872611,250.90909090909093L554.1401273885351,248.72727272727272L556.687898089172,246.8181818181818L559.2356687898089,245.04545454545456L561.7834394904457,243.00000000000003L564.3312101910828,241.36363636363635L569.4267515923566,240.13636363636365L571.9745222929937,239.45454545454544L574.5222929936306,237.40909090909088L577.0700636942674,235.49999999999997L579.6178343949045,233.31818181818184L584.7133757961783,231.40909090909093L587.2611464968152,230.04545454545456L589.8089171974523,227.86363636363635L592.3566878980891,225.8181818181818L594.904458598726,224.1818181818182L600,222.40909090909093L602.5477707006369,220.77272727272725L605.095541401274,219.5454545454546L607.6433121019109,217.36363636363637L610.1910828025477,215.1818181818182L615.2866242038217,213L617.8343949044586,210.81818181818178L620.3821656050955,207.81818181818178L622.9299363057326,205.90909090909088L625.4777070063694,203.86363636363635L630.5732484076434,200.3181818181818L633.1210191082803,202.22727272727272L635.6687898089172,197.99999999999997L638.216560509554,196.63636363636365L640.7643312101911,194.99999999999997L645.8598726114649,193.09090909090907L648.407643312102,192.54545454545456L650.9554140127389,191.0454545454545L653.5031847133757,189.13636363636363L656.0509554140128,187.36363636363635L661.1464968152866,184.90909090909093L663.6942675159235,182.72727272727275L666.2420382165606,180.81818181818184L668.7898089171974,178.63636363636363L671.3375796178343,176.72727272727272L676.4331210191083,175.5L681.5286624203823,173.5909090909091L684.0764331210191,171.6818181818182L686.624203821656,169.49999999999997L691.71974522293,167.86363636363637L694.2675159235669,167.45454545454544L696.8152866242037,165.8181818181818L699.3630573248408,163.9090909090909L701.9108280254777,162L707.0063694267517,160.36363636363632L709.5541401273886,158.1818181818182L712.1019108280254,156L714.6496815286623,153.8181818181818L717.1974522292994,151.63636363636363L722.2929936305732,150L724.8407643312103,148.22727272727275L727.3885350318471,146.31818181818184L729.936305732484,144.68181818181816L732.4840764331211,142.77272727272725L737.5796178343949,140.86363636363635L740.1273885350317,138.95454545454544L742.6751592356688,137.04545454545453L745.2229299363057,134.86363636363635L747.7707006369426,132.68181818181822L755.4140127388534,130.50000000000003L757.9617834394905,128.3181818181818L760.5095541401274,126.81818181818178L763.0573248407643,124.63636363636365L765.6050955414012,122.45454545454547L770.7006369426751,120.27272727272727L773.248407643312,117.4090909090909L775.7961783439491,115.2272727272727L778.343949044586,113.04545454545452L780.8917197452229,110.86363636363639L785.9872611464968,108.68181818181819L788.5350318471337,106.5L791.0828025477706,104.3181818181818L793.6305732484077,102.13636363636367L796.1783439490446,100.22727272727269L798.7261146496814,98.86363636363637" style="fill: none; stroke: #f58518; stroke-width: 2;"></path></g></g><path class="foreground" d="" style="display: none; fill: none;"></path></g><g transform="translate(0,0)"><path class="background" d="M0,0h800v600h-800Z" style="fill: none;"></path><g><g class="mark-line role-mark marks"><path d="M1.2738853503184941,597.8181818181818L3.8216560509554367,596.590909090909L6.369426751592379,595.9090909090909L8.917197452229322,594.2727272727273" style="fill: none; stroke: #e45756; stroke-width: 2;"></path></g></g><path class="foreground" d="" style="display: none; fill: none;"></path></g></g><g class="mark-group role-legend"><g transform="translate(819,0)"><path class="background" d="M0,0h61v53h-61Z" style="pointer-events: none; fill: none;"></path><g><g class="mark-group role-legend-entry"><g transform="translate(0,16)"><path class="background" d="M0,0h0v0h0Z" style="pointer-events: none; fill: none;"></path><g><g class="mark-group role-scope"><g transform="translate(0,0)"><path class="background" d="M0,0h48v11h-48Z" style="pointer-events: none; fill: none; opacity: 1;"></path><g><g class="mark-symbol role-legend-symbol" style="pointer-events: none;"><path transform="translate(6,6)" d="M-5,0L5,0" style="fill: none; stroke: #4c78a8; stroke-width: 1.5; opacity: 1;"></path></g><g class="mark-text role-legend-label" style="pointer-events: none;"><text text-anchor="start" transform="translate(16,9)" style="font-family: sans-serif; font-size: 10px; fill: #000; opacity: 1;">2021</text></g></g><path class="foreground" d="" style="pointer-events: none; display: none; fill: none;"></path></g><g transform="translate(0,13)"><path class="background" d="M0,0h48v11h-48Z" style="pointer-events: none; fill: none; opacity: 1;"></path><g><g class="mark-symbol role-legend-symbol" style="pointer-events: none;"><path transform="translate(6,6)" d="M-5,0L5,0" style="fill: none; stroke: #f58518; stroke-width: 1.5; opacity: 1;"></path></g><g class="mark-text role-legend-label" style="pointer-events: none;"><text text-anchor="start" transform="translate(16,9)" style="font-family: sans-serif; font-size: 10px; fill: #000; opacity: 1;">2022</text></g></g><path class="foreground" d="" style="pointer-events: none; display: none; fill: none;"></path></g><g transform="translate(0,26)"><path class="background" d="M0,0h48v11h-48Z" style="pointer-events: none; fill: none; opacity: 1;"></path><g><g class="mark-symbol role-legend-symbol" style="pointer-events: none;"><path transform="translate(6,6)" d="M-5,0L5,0" style="fill: none; stroke: #e45756; stroke-width: 1.5; opacity: 1;"></path></g><g class="mark-text role-legend-label" style="pointer-events: none;"><text text-anchor="start" transform="translate(16,9)" style="font-family: sans-serif; font-size: 10px; fill: #000; opacity: 1;">2023</text></g></g><path class="foreground" d="" style="pointer-events: none; display: none; fill: none;"></path></g></g></g><path class="foreground" d="" style="pointer-events: none; display: none; fill: none;"></path></g></g><g class="mark-text role-legend-title" style="pointer-events: none;"><text text-anchor="start" transform="translate(0,9)" style="font-family: sans-serif; font-size: 11px; font-weight: bold; fill: #000; opacity: 1;">Project</text></g></g><path class="foreground" d="" style="pointer-events: none; display: none; fill: none;"></path></g></g></g><path class="foreground" d="" style="display: none; fill: none;"></path></g></g></g></svg>