<svg class="marks" width="952" height="653" viewBox="0 0 952 653" version="1.1" xmlns="http://www.w3.org/2000/svg" xmlns:xlink="http://www.w3.org/1999/xlink"><rect width="952" height="653" style="fill: white;"></rect><g transform="translate(67,10)"><g class="mark-group role-frame root"><g transform="translate(0,0)"><path class="background" d="M0.5,0.5h800v600h-800Z" style="fill: none; stroke: #ddd;"></path><g><g class="mark-group role-axis"><g transform="translate(0.5,0.5)"><path class="background" d="M0,0h0v0h0Z" style="pointer-events: none; fill: none;"></path><g><g class="mark-rule role-axis-grid" style="pointer-events: none;"><line transform="translate(0,600)" x2="800" y2="0" style="fill: none; stroke: #ddd; stroke-width: 1; opacity: 1;"></line><line transform="translate(0,567)" x2="800" y2="0" style="fill: none; stroke: #ddd; stroke-width: 1; opacity: 1;"></line><line transform="translate(0,533)" x2="800" y2="0" style="fill: none; stroke: #ddd; stroke-width: 1; opacity: 1;"></line><line transform="translate(0,500)" x2="800" y2="0" style="fill: none; stroke: #ddd; stroke-width: 1; opacity: 1;"></line><line transform="translate(0,467)" x2="800" y2="0" style="fill: none; stroke: #ddd; stroke-width: 1; opacity: 1;"></line><line transform="translate(0,433)" x2="800" y2="0" style="fill: none; stroke: #ddd; stroke-width: 1; opacity: 1;"></line><line transform="translate(0,400)" x2="800" y2="0" style="fill: none; stroke: #ddd; stroke-width: 1; opacity: 1;"></line><line transform="translate(0,367)" x2="800" y2="0" style="fill: none; stroke: #ddd; stroke-width: 1; opacity: 1;"></line><line transform="translate(0,333)" x2="800" y2="0" style="fill: none; stroke: #ddd; stroke-width: 1; opacity: 1;"></line><line transform="translate(0,300)" x2="800" y2="0" style="fill: none; stroke: #ddd; stroke-width: 1; opacity: 1;"></line><line transform="translate(0,267)" x2="800" y2="0" style="fill: none; stroke: #ddd; stroke-width: 1; opacity: 1;"></line><line transform="translate(0,233)" x2="800" y2="0" style="fill: none; stroke: #ddd; stroke-width: 1; opacity: 1;"></line><line transform="translate(0,200)" x2="800" y2="0" style="fill: none; stroke: #ddd; stroke-width: 1; opacity: 1;"></line><line transform="translate(0,167)" x2="800" y2="0" style="fill: none; stroke: #ddd; stroke-width: 1; opacity: 1;"></line><line transform="translate(0,133)" x2="800" y2="0" style="fill: none; stroke: #ddd; stroke-width: 1; opacity: 1;"></line><line transform="translate(0,100)" x2="800" y2="0" style="fill: none; stroke: #ddd; stroke-width: 1; opacity: 1;"></line><line transform="translate(0,67)" x2="800" y2="0" style="fill: none; stroke: #ddd; stroke-width: 1; opacity: 1;"></line><line transform="translate(0,33)" x2="800" y2="0" style="fill: none; stroke: #ddd; stroke-width: 1; opacity: 1;"></line><line transform="translate(0,0)" x2="800" y2="0" style="fill: none; stroke: #ddd; stroke-width: 1; opacity: 1;"></line></g></g><path class="foreground" d="" style="pointer-events: none; display: none; fill: none;"></path></g></g><g class="mark-group role-axis"><g transform="translate(0.5,600.5)"><path class="background" d="M0,0h0v0h0Z" style="pointer-events: none; fill: none;"></path><g><g class="mark-rule role-axis-tick" style="pointer-events: none;"><line transform="translate(9,0)" x2="0" y2="5" style="fill: none; stroke: #888; stroke-width: 1; opacity: 1;"></line><line transform="translate(68,0)" x2="0" y2="5" style="fill: none; stroke: #888; stroke-width: 1; opacity: 1;"></line><line transform="translate(130,0)" x2="0" y2="5" style="fill: none; stroke: #888; stroke-width: 1; opacity: 1;"></line><line transform="translate(197,0)" x2="0" y2="5" style="fill: none; stroke: #888; stroke-width: 1; opacity: 1;"></line><line transform="translate(261,0)" x2="0" y2="5" style="fill: none; stroke: #888; stroke-width: 1; opacity: 1;"></line><line transform="translate(322,0)" x2="0" y2="5" style="fill: none; stroke: #888; stroke-width: 1; opacity: 1;"></line><line transform="translate(392,0)" x2="0" y2="5" style="fill: none; stroke: #888; stroke-width: 1; opacity: 1;"></line><line transform="translate(464,0)" x2="0" y2="5" style="fill: none; stroke: #888; stroke-width: 1; opacity: 1;"></line><line transform="translate(534,0)" x2="0" y2="5" style="fill: none; stroke: #888; stroke-width: 1; opacity: 1;"></line><line transform="translate(603,0)" x2="0" y2="5" style="fill: none; stroke: #888; stroke-width: 1; opacity: 1;"></line><line transform="translate(660,0)" x2="0" y2="5" style="fill: none; stroke: #888; stroke-width: 1; opacity: 1;"></line><line transform="translate(729,0)" x2="0" y2="5" style="fill: none; stroke: #888; stroke-width: 1; opacity: 1;"></line></g><g class="mark-text role-axis-label" style="pointer-events: none;"><text text-anchor="end" transform="translate(9.36454849498328,7) rotate(270) translate(0,3)" style="font-family: sans-serif; font-size: 10px; fill: #000; opacity: 1;">1</text><text text-anchor="end" transform="translate(68.22742474916389,7) rotate(270) translate(0,3)" style="font-family: sans-serif; font-size: 10px; fill: #000; opacity: 1;">2</text><text text-anchor="end" transform="translate(129.76588628762542,7) rotate(270) translate(0,3)" style="font-family: sans-serif; font-size: 10px; fill: #000; opacity: 1;">3</text><text text-anchor="end" transform="translate(196.65551839464882,7) rotate(270) translate(0,3)" style="font-family: sans-serif; font-size: 10px; fill: #000; opacity: 1;">4</text><text text-anchor="end" transform="translate(260.8695652173913,7) rotate(270) translate(0,3)" style="font-family: sans-serif; font-size: 10px; fill: #000; opacity: 1;">5</text><text text-anchor="end" transform="translate(322.40802675585286,7) rotate(270) translate(0,3)" style="font-family: sans-serif; font-size: 10px; fill: #000; opacity: 1;">6</text><text text-anchor="end" transform="translate(391.9732441471572,7) rotate(270) translate(0,3)" style="font-family: sans-serif; font-size: 10px; fill: #000; opacity: 1;">7</text><text text-anchor="end" transform="translate(464.2140468227425,7) rotate(270) translate(0,3)" style="font-family: sans-serif; font-size: 10px; fill: #000; opacity: 1;">8</text><text text-anchor="end" transform="translate(533.7792642140469,7) rotate(270) translate(0,3)" style="font-family: sans-serif; font-size: 10px; fill: #000; opacity: 1;">9</text><text text-anchor="end" transform="translate(603.3444816053511,7) rotate(270) translate(0,3)" style="font-family: sans-serif; font-size: 10px; fill: #000; opacity: 1;">10</text><text text-anchor="end" transform="translate(659.5317725752508,7) rotate(270) translate(0,3)" style="font-family: sans-serif; font-size: 10px; fill: #000; opacity: 1;">11</text><text text-anchor="end" transform="translate(729.0969899665552,7) rotate(270) translate(0,3)" style="font-family: sans-serif; font-size: 10px; fill: #000; opacity: 1;">12</text></g><g class="mark-rule role-axis-domain" style="pointer-events: none;"><line transform="translate(0,0)" x2="800" y2="0" style="fill: none; stroke: #888; stroke-width: 1; opacity: 1;"></line></g><g class="mark-text role-axis-title" style="pointer-events: none;"><text text-anchor="middle" transform="translate(400,36)" style="font-family: sans-serif; font-size: 11px; font-weight: bold; fill: #000; opacity: 1;">Date</text></g></g><path class="foreground" d="" style="pointer-events: none; display: none; fill: none;"></path></g></g><g class="mark-group role-axis"><g transform="translate(0.5,0.5)"><path class="background" d="M0,0h0v0h0Z" style="pointer-events: none; fill: none;"></path><g><g class="mark-rule role-axis-tick" style="pointer-events: none;"><line transform="translate(0,600)" x2="-5" y2="0" style="fill: none; stroke: #888; stroke-width: 1; opacity: 1;"></line><line transform="translate(0,567)" x2="-5" y2="0" style="fill: none; stroke: #888; stroke-width: 1; opacity: 1;"></line><line transform="translate(0,533)" x2="-5" y2="0" style="fill: none; stroke: #888; stroke-width: 1; opacity: 1;"></line><line transform="translate(0,500)" x2="-5" y2="0" style="fill: none; stroke: #888; stroke-width: 1; opacity: 1;"></line><line transform="translate(0,467)" x2="-5" y2="0" style="fill: none; stroke: #888; stroke-width: 1; opacity: 1;"></line><line transform="translate(0,433)" x2="-5" y2="0" style="fill: none; stroke: #888; stroke-width: 1; opacity: 1;"></line><line transform="translate(0,400)" x2="-5" y2="0" style="fill: none; stroke: #888; stroke-width: 1; opacity: 1;"></line><line transform="translate(0,367)" x2="-5" y2="0" style="fill: none; stroke: #888; stroke-width: 1; opacity: 1;"></line><line transform="translate(0,333)" x2="-5" y2="0" style="fill: none; stroke: #888; stroke-width: 1; opacity: 1;"></line><line transform="translate(0,300)" x2="-5" y2="0" style="fill: none; stroke: #888; stroke-width: 1; opacity: 1;"></line><line transform="translate(0,267)" x2="-5" y2="0" style="fill: none; stroke: #888; stroke-width: 1; opacity: 1;"></line><line transform="translate(0,233)" x2="-5" y2="0" style="fill: none; stroke: #888; stroke-width: 1; opacity: 1;"></line><line transform="translate(0,200)" x2="-5" y2="0" style="fill: none; stroke: #888; stroke-width: 1; opacity: 1;"></line><line transform="translate(0,167)" x2="-5" y2="0" style="fill: none; stroke: #888; stroke-width: 1; opacity: 1;"></line><line transform="translate(0,133)" x2="-5" y2="0" style="fill: none; stroke: #888; stroke-width: 1; opacity: 1;"></line><line transform="translate(0,100)" x2="-5" y2="0" style="fill: none; stroke: #888; stroke-width: 1; opacity: 1;"></line><line transform="translate(0,67)" x2="-5" y2="0" style="fill: none; stroke: #888; stroke-width: 1; opacity: 1;"></line><line transform="translate(0,33)" x2="-5" y2="0" style="fill: none; stroke: #888; stroke-width: 1; opacity: 1;"></line><line transform="translate(0,0)" x2="-5" y2="0" style="fill: none; stroke: #888; stroke-width: 1; opacity: 1;"></line></g><g class="mark-text role-axis-label" style="pointer-events: none;"><text text-anchor="end" transform="translate(-7,603)" style="font-family: sans-serif; font-size: 10px; fill: #000; opacity: 1;">0</text><text text-anchor="end" transform="translate(-7,569.6666666666666)" style="font-family: sans-serif; font-size: 10px; fill: #000; opacity: 1;">100</text><text text-anchor="end" transform="translate(-7,536.3333333333333)" style="font-family: sans-serif; font-size: 10px; fill: #000; opacity: 1;">200</text><text text-anchor="end" transform="translate(-7,503)" style="font-family: sans-serif; font-size: 10px; fill: #000; opacity: 1;">300</text><text text-anchor="end" transform="translate(-7,469.6666666666667)" style="font-family: sans-serif; font-size: 10px; fill: #000; opacity: 1;">400</text><text text-anchor="end" transform="translate(-7,436.3333333333333)" style="font-family: sans-serif; font-size: 10px; fill: #000; opacity: 1;">500</text><text text-anchor="end" transform="translate(-7,403.00000000000006)" style="font-family: sans-serif; font-size: 10px; fill: #000; opacity: 1;">600</text><text text-anchor="end" transform="translate(-7,369.6666666666667)" style="font-family: sans-serif; font-size: 10px; fill: #000; opacity: 1;">700</text><text text-anchor="end" transform="translate(-7,336.33333333333337)" style="font-family: sans-serif; font-size: 10px; fill: #000; opacity: 1;">800</text><text text-anchor="end" transform="translate(-7,303)" style="font-family: sans-serif; font-size: 10px; fill: #000; opacity: 1;">900</text><text text-anchor="end" transform="translate(-7,269.66666666666663)" style="font-family: sans-serif; font-size: 10px; fill: #000; opacity: 1;">1,000</text><text text-anchor="end" transform="translate(-7,236.33333333333331)" style="font-family: sans-serif; font-size: 10px; fill: #000; opacity: 1;">1,100</text><text text-anchor="end" transform="translate(-7,203.00000000000003)" style="font-family: sans-serif; font-size: 10px; fill: #000; opacity: 1;">1,200</text><text text-anchor="end" transform="translate(-7,169.66666666666669)" style="font-family: sans-serif; font-size: 10px; fill: #000; opacity: 1;">1,300</text><text text-anchor="end" transform="translate(-7,136.33333333333331)" style="font-family: sans-serif; font-size: 10px; fill: #000; opacity: 1;">1,400</text><text text-anchor="end" transform="translate(-7,102.99999999999997)" style="font-family: sans-serif; font-size: 10px; fill: #000; opacity: 1;">1,500</text><text text-anchor="end" transform="translate(-7,69.6666666666667)" style="font-family: sans-serif; font-size: 10px; fill: #000; opacity: 1;">1,600</text><text text-anchor="end" transform="translate(-7,36.33333333333335)" style="font-family: sans-serif; font-size: 10px; fill: #000; opacity: 1;">1,700</text><text text-anchor="end" transform="translate(-7,3)" style="font-family: sans-serif; font-size: 10px; fill: #000; opacity: 1;">1,800</text></g><g class="mark-rule role-axis-domain" style="pointer-events: none;"><line transform="translate(0,600)" x2="0" y2="-600" style="fill: none; stroke: #888; stroke-width: 1; opacity: 1;"></line></g><g class="mark-text role-axis-title" style="pointer-events: none;"><text text-anchor="middle" transform="translate(-51,300) rotate(-90) translate(0,-2)" style="font-family: sans-serif; font-size: 11px; font-weight: bold; fill: #000; opacity: 1;">Sum of Hours</text></g></g><path class="foreground" d="" style="pointer-events: none; display: none; fill: none;"></path></g></g><g class="mark-group role-scope pathgroup"><g transform="translate(0,0)"><path class="background" d="M0,0h800v600h-800Z" style="fill: none;"></path><g><g class="mark-line role-mark marks"><path d="M9.36454849498328,599.3333333333334L12.040133779264217,597L14.715719063545153,594.8333333333334L17.39130434782609,593.3333333333334L22.742474916387962,591.6666666666667L25.418060200668897,589.6666666666666L28.093645484949835,587.6666666666666L30.769230769230774,584.8333333333334L33.44481605351171,582.5L38.795986622073585,579.8333333333333L41.47157190635452,577.3333333333334L44.147157190635454,573.8333333333333L46.82274247491639,571.3333333333334L49.49832775919732,569.1666666666666L52.173913043478265,566.1666666666666L54.8494983277592,562.3333333333333L57.525083612040135,560L60.200668896321076,558.5L62.87625418060201,556.3333333333333L68.22742474916389,554.3333333333334L70.90301003344482,552.3333333333334L73.57859531772576,550.3333333333333L76.2541806020067,550L78.92976588628763,547.6666666666666L84.2809364548495,547.3333333333334L86.95652173913044,546L89.63210702341138,544.5L92.3076923076923,543.1666666666666L94.98327759197325,542.1666666666667L97.65886287625418,539.5L100.33444816053512,538.3333333333334L103.01003344481606,536L105.68561872909699,533.8333333333334L108.36120401337793,530.5L113.7123745819398,527.5L116.38795986622074,526.5L119.06354515050168,526L121.73913043478261,523.8333333333334L124.41471571906355,521.3333333333333L127.09030100334448,520.6666666666666L129.76588628762542,517.8333333333334L132.44147157190636,515.5L135.1170568561873,512.1666666666666L137.79264214046822,510.1666666666667L140.46822742474916,507.33333333333337L148.49498327759198,505.66666666666663L151.17056856187293,504.3333333333333L153.84615384615384,502.66666666666663L159.19732441471572,500L161.87290969899666,497.83333333333337L164.5484949832776,496L167.22408026755852,493L169.89966555183946,491L172.5752508361204,488.66666666666663L175.25083612040135,486.83333333333337L177.9264214046823,485.5L180.6020066889632,484.8333333333333L183.27759197324414,481.6666666666667L188.62876254180603,480L191.30434782608697,477.33333333333337L193.97993311036788,477L196.65551839464882,474.3333333333333L199.33110367892976,471.66666666666663L204.68227424749165,469.33333333333337L207.3578595317726,466.6666666666667L210.0334448160535,465L212.70903010033445,462.8333333333333L215.3846153846154,460.6666666666667L218.06020066889633,458.3333333333333L220.73578595317727,457.5L223.41137123745818,455L226.08695652173913,451.16666666666663L228.76254180602007,449.8333333333333L234.11371237458195,447.16666666666663L236.7892976588629,444.66666666666663L239.4648829431438,441.8333333333333L252.8428093645485,439L255.51839464882943,436.66666666666674L258.19397993311037,434.6666666666667L260.8695652173913,432L263.54515050167225,429.83333333333337L266.2207357859532,426.6666666666667L268.89632107023414,425.3333333333333L271.5719063545151,422.83333333333337L276.9230769230769,422L279.59866220735785,419.66666666666663L282.2742474916388,416.83333333333337L284.94983277591973,415L287.6254180602007,413.3333333333333L292.97658862876256,410.8333333333333L295.6521739130435,408.8333333333333L298.32775919732444,406.3333333333333L301.0033444816054,405.33333333333337L303.67892976588627,403L306.3545150501672,400.83333333333337L309.03010033444815,397.8333333333333L311.7056856187291,394.83333333333337L314.38127090301003,392.66666666666663L319.7324414715719,390.3333333333333L322.40802675585286,387L325.0836120401338,382.83333333333337L327.75919732441474,380.1666666666667L330.4347826086956,377.3333333333333L335.7859531772575,374.5L338.46153846153845,371.83333333333337L341.1371237458194,369.33333333333337L343.81270903010034,366.3333333333333L346.4882943143813,363.8333333333333L351.83946488294316,361.5L354.5150501672241,359.16666666666663L357.19063545150505,356.50000000000006L359.86622073578593,353.83333333333337L362.5418060200669,351.1666666666667L367.89297658862876,348.5L370.5685618729097,345.8333333333333L373.24414715719064,342.83333333333337L375.9197324414716,339.50000000000006L378.5953177257525,336.33333333333326L383.9464882943144,333.8333333333333L386.6220735785953,331.83333333333337L389.29765886287623,329.8333333333333L391.9732441471572,327.16666666666663L394.6488294314381,324.83333333333337L400,322.1666666666667L408.0267558528428,319.83333333333337L410.70234113712377,317.8333333333333L416.0535117056856,315.16666666666663L418.72909698996654,312L421.4046822742475,309L424.0802675585284,306.66666666666663L426.75585284280936,304.33333333333337L437.4581939799331,302.3333333333333L440.13377926421407,300L442.809364548495,296.8333333333333L448.16053511705684,294.1666666666667L450.8361204013378,291.8333333333333L453.5117056856187,289.66666666666663L456.18729096989966,287.1666666666667L458.8628762541806,284.5L464.2140468227425,282L466.88963210702343,279.3333333333333L469.5652173913044,276.33333333333337L472.2408026755853,273.6666666666667L474.9163879598662,271.66666666666663L480.2675585284281,269.16666666666663L482.943143812709,265.6666666666667L485.61872909698997,263.66666666666663L488.2943143812709,261.1666666666667L490.96989966555185,259L496.32107023411373,256.5L498.9966555183947,253.5L501.67224080267556,250.83333333333331L504.3478260869565,248.16666666666669L507.02341137123744,245.83333333333331L512.3745819397993,242.83333333333331L515.0501672240803,240.83333333333334L517.7257525083612,237.99999999999997L520.4013377926422,237L523.0769230769231,234.83333333333334L528.428093645485,232.49999999999997L533.7792642140469,232.16666666666666L536.4548494983278,229.83333333333334L539.1304347826087,227.33333333333337L544.4816053511705,224.66666666666669L547.1571906354515,223.16666666666666L549.8327759197324,220.99999999999997L552.5083612040133,218.41666666666663L555.1839464882943,216.08333333333334L560.5351170568562,213.74999999999997L563.2107023411371,211.41666666666669L565.886287625418,208.75L568.561872909699,206.25L571.2374581939799,203.58333333333331L576.5886287625418,201.75000000000003L579.2642140468228,199.58333333333337L581.9397993311037,196.74999999999997L584.6153846153846,194.25L587.2909698996656,191.75L592.6421404682275,189.41666666666669L595.3177257525084,187.08333333333334L597.9933110367894,184.41666666666666L600.6688963210703,181.58333333333334L603.3444816053511,179.08333333333334L608.695652173913,176.91666666666669L611.371237458194,174.58333333333331L616.7224080267558,172.08333333333331L619.3979933110368,169.91666666666666L622.0735785953177,167.58333333333334L630.1003344481605,166.25L632.7759197324415,163.41666666666669L635.4515050167224,161.08333333333334L638.1270903010034,158.74999999999997L643.4782608695652,156.08333333333334L646.1538461538462,153.08333333333334L648.8294314381271,150.58333333333337L651.5050167224081,147.91666666666669L654.180602006689,145.25L659.5317725752508,142.75L662.2073578595317,140.08333333333331L664.8829431438127,137.75000000000003L667.5585284280936,135.58333333333334L670.2341137123746,133.75L675.5852842809364,131.58333333333331L678.2608695652174,128.91666666666663L680.9364548494983,126.41666666666664L683.6120401337793,123.41666666666664L686.2876254180602,121.41666666666666L691.6387959866221,118.91666666666667L694.314381270903,116.24999999999999L696.989966555184,114.25L699.6655518394649,111.4166666666667L702.3411371237459,109.08333333333333L707.6923076923077,106.74999999999997L710.3678929765887,104.24999999999997L713.0434782608696,101.58333333333336L715.7190635451504,98.91666666666667L718.3946488294314,96.24999999999999L723.7458193979933,95.08333333333334L726.4214046822742,92.58333333333336L729.0969899665552,89.91666666666667L731.7725752508361,87.24999999999999L734.448160535117,85.25L739.7993311036789,84.58333333333337L742.4749163879599,81.58333333333336L745.1505016722408,78.91666666666669L747.8260869565217,77.08333333333333L750.5016722408027,75.41666666666667L753.1772575250836,73.41666666666669L758.5284280936455,70.75L761.2040133779265,67.91666666666669L763.8795986622074,66.58333333333334L766.5551839464883,63.916666666666664L769.2307692307693,61.41666666666667L771.9063545150501,59.08333333333331L774.581939799331,58.41666666666667L777.257525083612,54.08333333333333L779.9331103678929,51.41666666666664L782.6086956521739,48.75000000000003L787.9598662207358,46.08333333333334L790.6354515050167,43.41666666666666L793.3110367892976,40.74999999999997L795.9866220735786,38.08333333333336L798.6622073578595,35.41666666666667" style="fill: none; stroke: #4c78a8; stroke-width: 2;"></path></g></g><path class="foreground" d="" style="display: none; fill: none;"></path></g><g transform="translate(0,0)"><path class="background" d="M0,0h800v600h-800Z" style="fill: none;"></path><g><g class="mark-line role-mark marks"><path d="M6.688963210702344,597.5L9.36454849498328,596.1666666666666L12.040133779264217,594L14.715719063545153,592.1666666666666L20.066889632107028,589.8333333333334L22.742474916387962,587.6666666666666L25.418060200668897,585.5L28.093645484949835,582.8333333333333L30.769230769230774,580.6666666666666L36.12040133779264,578L38.795986622073585,575.6666666666666L41.47157190635452,573.6666666666666L44.147157190635454,570.8333333333333L52.173913043478265,569.1666666666666L54.8494983277592,565.1666666666666L57.525083612040135,562.1666666666666L60.200668896321076,560L65.55183946488295,558.3333333333334L68.22742474916389,556L70.90301003344482,552.3333333333334L73.57859531772576,549.8333333333334L76.2541806020067,547.8333333333333L81.60535117056857,545.5L84.2809364548495,542.8333333333334L86.95652173913044,541.3333333333334L89.63210702341138,538.6666666666666L92.3076923076923,536.6666666666667L100.33444816053512,534L103.01003344481606,531.5L105.68561872909699,530.1666666666666L111.03678929765887,526.6666666666666L113.7123745819398,524.5L116.38795986622074,521.8333333333334L119.06354515050168,519.1666666666667L121.73913043478261,517.1666666666666L127.09030100334448,514.6666666666666L129.76588628762542,512.3333333333334L132.44147157190636,509.5L135.1170568561873,506.6666666666667L137.79264214046822,505.3333333333333L143.1438127090301,502.8333333333333L145.81939799331104,499.8333333333333L148.49498327759198,497.3333333333333L151.17056856187293,494.83333333333337L156.52173913043478,492.33333333333337L159.19732441471572,490.3333333333333L161.87290969899666,488.66666666666663L164.5484949832776,486.1666666666667L167.22408026755852,483.16666666666663L172.5752508361204,481.5L175.25083612040135,475.5L177.9264214046823,477.33333333333337L180.6020066889632,473.1666666666667L185.95317725752508,471.3333333333333L188.62876254180603,468.83333333333337L191.30434782608697,466.1666666666667L193.97993311036788,464.3333333333333L196.65551839464882,462L202.0066889632107,459.3333333333333L204.68227424749165,458.3333333333333L207.3578595317726,455.6666666666667L210.0334448160535,453.6666666666667L231.438127090301,451L234.11371237458195,448.6666666666667L236.7892976588629,446.5L239.4648829431438,443.8333333333333L242.14046822742475,441.6666666666667L244.8160535117057,439.66666666666663L247.49163879598663,437.8333333333333L250.16722408026757,435.3333333333333L252.8428093645485,433.49999999999994L255.51839464882943,431.33333333333337L260.8695652173913,428.6666666666667L263.54515050167225,427L266.2207357859532,424.99999999999994L268.89632107023414,424.3333333333333L274.24749163879596,422.66666666666663L276.9230769230769,420.1666666666667L279.59866220735785,419.5L282.2742474916388,417.3333333333333L284.94983277591973,415.8333333333333L290.3010033444816,413.99999999999994L292.97658862876256,412L295.6521739130435,411.00000000000006L298.32775919732444,409.33333333333337L301.0033444816054,408.8333333333333L306.3545150501672,407L309.03010033444815,405.16666666666663L311.7056856187291,403.66666666666663L317.056856187291,401L319.7324414715719,399.16666666666674L322.40802675585286,396.66666666666663L325.0836120401338,394.0833333333333L327.75919732441474,391.5833333333333L333.11036789297657,388.9166666666667L335.7859531772575,385.0833333333333L338.46153846153845,382.75L341.1371237458194,380.0833333333333L343.81270903010034,377.75000000000006L349.1638795986622,375.9166666666667L351.83946488294316,374.25L354.5150501672241,371.5L357.19063545150505,369.8333333333333L359.86622073578593,366.6666666666667L365.2173913043478,364.83333333333337L367.89297658862876,363.33333333333337L370.5685618729097,361L373.24414715719064,359.00000000000006L375.9197324414716,357L381.27090301003346,355L383.9464882943144,353.6666666666667L389.29765886287623,351.6666666666667L391.9732441471572,350.83333333333326L397.32441471571906,348.1666666666667L402.67558528428094,345.5L405.3511705685619,342.83333333333337L408.0267558528428,340.1666666666667L413.3779264214047,336.83333333333337L416.0535117056856,334.1666666666667L418.72909698996654,331.3333333333333L421.4046822742475,329.3333333333333L424.0802675585284,329L429.4314381270903,328.66666666666663L432.10702341137124,328.1666666666667L434.7826086956522,327.50000000000006L437.4581939799331,326L440.13377926421407,325.00000000000006L445.4849498327759,324.16666666666674L448.16053511705684,323L450.8361204013378,322L453.5117056856187,320.6666666666667L456.18729096989966,319.6666666666667L461.53846153846155,318.66666666666663L466.88963210702343,317L469.5652173913044,315.3333333333333L472.2408026755853,314.3333333333333L477.59197324414714,313.6666666666667L480.2675585284281,312.66666666666663L482.943143812709,311.66666666666663L485.61872909698997,310.6666666666667L488.2943143812709,309L493.6454849498328,306.3333333333333L496.32107023411373,303.6666666666667L498.9966555183947,301L501.67224080267556,298.6666666666667L504.3478260869565,296L509.6989966555184,294.6666666666667L512.3745819397993,293.8333333333333L515.0501672240803,292.16666666666663L517.7257525083612,290.6666666666667L520.4013377926422,289.5L525.752508361204,287.33333333333337L528.428093645485,285.1666666666667L531.1036789297659,283.1666666666667L533.7792642140469,282L541.8060200668897,279.3333333333333L544.4816053511705,278.33333333333337L547.1571906354515,277.66666666666663L549.8327759197324,274.66666666666663L552.5083612040133,273L557.8595317725752,271.3333333333333L560.5351170568562,269L563.2107023411371,266.99999999999994L565.886287625418,265.8333333333333L568.561872909699,263.8333333333333L573.9130434782609,262.6666666666667L576.5886287625418,261.83333333333337L579.2642140468228,261.00000000000006L581.9397993311037,260L584.6153846153846,258.6666666666667L589.9665551839465,257.3333333333333L592.6421404682275,255.66666666666666L595.3177257525084,252.99999999999997L597.9933110367894,250.5L600.6688963210703,249.16666666666666L606.0200668896321,247.5L608.695652173913,245.83333333333331L611.371237458194,244.33333333333337L614.0468227424749,240.66666666666666L616.7224080267558,238.33333333333334L619.3979933110368,235.83333333333337L624.7491638795987,231.50000000000003L627.4247491638796,233.83333333333331L630.1003344481605,229.33333333333334L632.7759197324415,227.66666666666669L635.4515050167224,225.66666666666663L640.8026755852843,223.33333333333334L643.4782608695652,222.66666666666663L646.1538461538462,220.83333333333334L648.8294314381271,219.16666666666669L651.5050167224081,217.16666666666663L656.85618729097,214.16666666666663L659.5317725752508,211.50000000000003L662.2073578595317,209.16666666666666L667.5585284280936,207.16666666666669L672.9096989966555,205.66666666666663L678.2608695652174,204.33333333333331L680.9364548494983,202L683.6120401337793,199.33333333333331L688.9632107023411,197.33333333333334L691.6387959866221,196.83333333333331L694.314381270903,194.83333333333334L696.989966555184,193L699.6655518394649,190.66666666666669L705.0167224080268,188.66666666666666L707.6923076923077,186.83333333333337L710.3678929765887,184.16666666666669L713.0434782608696,181.5L715.7190635451504,178.83333333333331L721.0702341137123,176.83333333333334L723.7458193979933,174.66666666666666L726.4214046822742,172.33333333333337L729.0969899665552,170.33333333333331L731.7725752508361,168.00000000000003L737.123745819398,165.66666666666666L739.7993311036789,163.33333333333334L742.4749163879599,161L747.8260869565217,158.33333333333331L755.8528428093646,155.66666666666669L758.5284280936455,155.33333333333331L761.2040133779265,154.49999999999997L771.9063545150501,153.66666666666663L785.2842809364548,151.00000000000003L790.6354515050167,148.33333333333334L795.9866220735786,145.99999999999997L798.6622073578595,144.33333333333331" style="fill: none; stroke: #f58518; stroke-width: 2;"></path></g></g><path class="foreground" d="" style="display: none; fill: none;"></path></g><g transform="translate(0,0)"><path class="background" d="M0,0h800v600h-800Z" style="fill: none;"></path><g><g class="mark-line role-mark marks"><path d="M1.337792642140471,598L4.013377926421407,596.5L6.688963210702344,595.6666666666666L9.36454849498328,593.6666666666666L12.040133779264217,592" style="fill: none; stroke: #e45756; stroke-width: 2;"></path></g></g><path class="foreground" d="" style="display: none; fill: none;"></path></g></g><g class="mark-group role-legend"><g transform="translate(819,0)"><path class="background" d="M0,0h61v53h-61Z" style="pointer-events: none; fill: none;"></path><g><g class="mark-group role-legend-entry"><g transform="translate(0,16)"><path class="background" d="M0,0h0v0h0Z" style="pointer-events: none; fill: none;"></path><g><g class="mark-group role-scope"><g transform="translate(0,0)"><path class="background" d="M0,0h48v11h-48Z" style="pointer-events: none; fill: none; opacity: 1;"></path><g><g class="mark-symbol role-legend-symbol" style="pointer-events: none;"><path transform="translate(6,6)" d="M-5,0L5,0" style="fill: none; stroke: #4c78a8; stroke-width: 1.5; opacity: 1;"></path></g><g class="mark-text role-legend-label" style="pointer-events: none;"><text text-anchor="start" transform="translate(16,9)" style="font-family: sans-serif; font-size: 10px; fill: #000; opacity: 1;">2021</text></g></g><path class="foreground" d="" style="pointer-events: none; display: none; fill: none;"></path></g><g transform="translate(0,13)"><path class="background" d="M0,0h48v11h-48Z" style="pointer-events: none; fill: none; opacity: 1;"></path><g><g class="mark-symbol role-legend-symbol" style="pointer-events: none;"><path transform="translate(6,6)" d="M-5,0L5,0" style="fill: none; stroke: #f58518; stroke-width: 1.5; opacity: 1;"></path></g><g class="mark-text role-legend-label" style="pointer-events: none;"><text text-anchor="start" transform="translate(16,9)" style="font-family: sans-serif; font-size: 10px; fill: #000; opacity: 1;">2022</text></g></g><path class="foreground" d="" style="pointer-events: none; display: none; fill: none;"></path></g><g transform="translate(0,26)"><path class="background" d="M0,0h48v11h-48Z" style="pointer-events: none; fill: none; opacity: 1;"></path><g><g class="mark-symbol role-legend-symbol" style="pointer-events: none;"><path transform="translate(6,6)" d="M-5,0L5,0" style="fill: none; stroke: #e45756; stroke-width: 1.5; opacity: 1;"></path></g><g class="mark-text role-legend-label" style="pointer-events: none;"><text text-anchor="start" transform="translate(16,9)" style="font-family: sans-serif; font-size: 10px; fill: #000; opacity: 1;">2023</text></g></g><path class="foreground" d="" style="pointer-events: none; display: none; fill: none;"></path></g></g></g><path class="foreground" d="" style="pointer-events: none; display: none; fill: none;"></path></g></g><g class="mark-text role-legend-title" style="pointer-events: none;"><text text-anchor="start" transform="translate(0,9)" style="font-family: sans-serif; font-size: 11px; font-weight: bold; fill: #000; opacity: 1;">Project</text></g></g><path class="foreground" d="" style="pointer-events: none; display: none; fill: none;"></path></g></g></g><path class="foreground" d="" style="display: none; fill: none;"></path></g></g></g></svg>