<svg class="marks" width="994" height="693" viewBox="0 0 994 693" version="1.1" xmlns="http://www.w3.org/2000/svg" xmlns:xlink="http://www.w3.org/1999/xlink"><rect width="994" height="693" style="fill: white;"></rect><g transform="translate(51,10)"><g class="mark-group role-frame root"><g transform="translate(0,0)"><path class="background" d="M0.5,0.5h800v600h-800Z" style="fill: none; stroke: #ddd;"></path><g><g class="mark-group role-axis"><g transform="translate(0.5,0.5)"><path class="background" d="M0,0h0v0h0Z" style="pointer-events: none; fill: none;"></path><g><g class="mark-rule role-axis-grid" style="pointer-events: none;"><line transform="translate(0,600)" x2="800" y2="0" style="fill: none; stroke: #ddd; stroke-width: 1; opacity: 1;"></line><line transform="translate(0,545)" x2="800" y2="0" style="fill: none; stroke: #ddd; stroke-width: 1; opacity: 1;"></line><line transform="translate(0,491)" x2="800" y2="0" style="fill: none; stroke: #ddd; stroke-width: 1; opacity: 1;"></line><line transform="translate(0,436)" x2="800" y2="0" style="fill: none; stroke: #ddd; stroke-width: 1; opacity: 1;"></line><line transform="translate(0,382)" x2="800" y2="0" style="fill: none; stroke: #ddd; stroke-width: 1; opacity: 1;"></line><line transform="translate(0,327)" x2="800" y2="0" style="fill: none; stroke: #ddd; stroke-width: 1; opacity: 1;"></line><line transform="translate(0,273)" x2="800" y2="0" style="fill: none; stroke: #ddd; stroke-width: 1; opacity: 1;"></line><line transform="translate(0,218)" x2="800" y2="0" style="fill: none; stroke: #ddd; stroke-width: 1; opacity: 1;"></line><line transform="translate(0,164)" x2="800" y2="0" style="fill: none; stroke: #ddd; stroke-width: 1; opacity: 1;"></line><line transform="translate(0,109)" x2="800" y2="0" style="fill: none; stroke: #ddd; stroke-width: 1; opacity: 1;"></line><line transform="translate(0,55)" x2="800" y2="0" style="fill: none; stroke: #ddd; stroke-width: 1; opacity: 1;"></line><line transform="translate(0,0)" x2="800" y2="0" style="fill: none; stroke: #ddd; stroke-width: 1; opacity: 1;"></line></g></g><path class="foreground" d="" style="pointer-events: none; display: none; fill: none;"></path></g></g><g class="mark-group role-axis"><g transform="translate(0.5,600.5)"><path class="background" d="M0,0h0v0h0Z" style="pointer-events: none; fill: none;"></path><g><g class="mark-rule role-axis-tick" style="pointer-events: none;"><line transform="translate(14,0)" x2="0" y2="5" style="fill: none; stroke: #888; stroke-width: 1; opacity: 1;"></line><line transform="translate(42,0)" x2="0" y2="5" style="fill: none; stroke: #888; stroke-width: 1; opacity: 1;"></line><line transform="translate(71,0)" x2="0" y2="5" style="fill: none; stroke: #888; stroke-width: 1; opacity: 1;"></line><line transform="translate(100,0)" x2="0" y2="5" style="fill: none; stroke: #888; stroke-width: 1; opacity: 1;"></line><line transform="translate(128,0)" x2="0" y2="5" style="fill: none; stroke: #888; stroke-width: 1; opacity: 1;"></line><line transform="translate(157,0)" x2="0" y2="5" style="fill: none; stroke: #888; stroke-width: 1; opacity: 1;"></line><line transform="translate(185,0)" x2="0" y2="5" style="fill: none; stroke: #888; stroke-width: 1; opacity: 1;"></line><line transform="translate(214,0)" x2="0" y2="5" style="fill: none; stroke: #888; stroke-width: 1; opacity: 1;"></line><line transform="translate(242,0)" x2="0" y2="5" style="fill: none; stroke: #888; stroke-width: 1; opacity: 1;"></line><line transform="translate(271,0)" x2="0" y2="5" style="fill: none; stroke: #888; stroke-width: 1; opacity: 1;"></line><line transform="translate(300,0)" x2="0" y2="5" style="fill: none; stroke: #888; stroke-width: 1; opacity: 1;"></line><line transform="translate(328,0)" x2="0" y2="5" style="fill: none; stroke: #888; stroke-width: 1; opacity: 1;"></line><line transform="translate(357,0)" x2="0" y2="5" style="fill: none; stroke: #888; stroke-width: 1; opacity: 1;"></line><line transform="translate(385,0)" x2="0" y2="5" style="fill: none; stroke: #888; stroke-width: 1; opacity: 1;"></line><line transform="translate(414,0)" x2="0" y2="5" style="fill: none; stroke: #888; stroke-width: 1; opacity: 1;"></line><line transform="translate(442,0)" x2="0" y2="5" style="fill: none; stroke: #888; stroke-width: 1; opacity: 1;"></line><line transform="translate(471,0)" x2="0" y2="5" style="fill: none; stroke: #888; stroke-width: 1; opacity: 1;"></line><line transform="translate(500,0)" x2="0" y2="5" style="fill: none; stroke: #888; stroke-width: 1; opacity: 1;"></line><line transform="translate(528,0)" x2="0" y2="5" style="fill: none; stroke: #888; stroke-width: 1; opacity: 1;"></line><line transform="translate(557,0)" x2="0" y2="5" style="fill: none; stroke: #888; stroke-width: 1; opacity: 1;"></line><line transform="translate(585,0)" x2="0" y2="5" style="fill: none; stroke: #888; stroke-width: 1; opacity: 1;"></line><line transform="translate(614,0)" x2="0" y2="5" style="fill: none; stroke: #888; stroke-width: 1; opacity: 1;"></line><line transform="translate(642,0)" x2="0" y2="5" style="fill: none; stroke: #888; stroke-width: 1; opacity: 1;"></line><line transform="translate(671,0)" x2="0" y2="5" style="fill: none; stroke: #888; stroke-width: 1; opacity: 1;"></line><line transform="translate(700,0)" x2="0" y2="5" style="fill: none; stroke: #888; stroke-width: 1; opacity: 1;"></line><line transform="translate(728,0)" x2="0" y2="5" style="fill: none; stroke: #888; stroke-width: 1; opacity: 1;"></line><line transform="translate(757,0)" x2="0" y2="5" style="fill: none; stroke: #888; stroke-width: 1; opacity: 1;"></line><line transform="translate(785,0)" x2="0" y2="5" style="fill: none; stroke: #888; stroke-width: 1; opacity: 1;"></line></g><g class="mark-text role-axis-label" style="pointer-events: none;"><text text-anchor="end" transform="translate(13.785714285714302,7) rotate(270) translate(0,3)" style="font-family: sans-serif; font-size: 10px; fill: #000; opacity: 1;">2021-01</text><text text-anchor="end" transform="translate(42.357142857142875,7) rotate(270) translate(0,3)" style="font-family: sans-serif; font-size: 10px; fill: #000; opacity: 1;">2021-02</text><text text-anchor="end" transform="translate(70.92857142857144,7) rotate(270) translate(0,3)" style="font-family: sans-serif; font-size: 10px; fill: #000; opacity: 1;">2021-03</text><text text-anchor="end" transform="translate(99.50000000000003,7) rotate(270) translate(0,3)" style="font-family: sans-serif; font-size: 10px; fill: #000; opacity: 1;">2021-04</text><text text-anchor="end" transform="translate(128.07142857142858,7) rotate(270) translate(0,3)" style="font-family: sans-serif; font-size: 10px; fill: #000; opacity: 1;">2021-05</text><text text-anchor="end" transform="translate(156.64285714285717,7) rotate(270) translate(0,3)" style="font-family: sans-serif; font-size: 10px; fill: #000; opacity: 1;">2021-06</text><text text-anchor="end" transform="translate(185.21428571428575,7) rotate(270) translate(0,3)" style="font-family: sans-serif; font-size: 10px; fill: #000; opacity: 1;">2021-07</text><text text-anchor="end" transform="translate(213.7857142857143,7) rotate(270) translate(0,3)" style="font-family: sans-serif; font-size: 10px; fill: #000; opacity: 1;">2021-08</text><text text-anchor="end" transform="translate(242.3571428571429,7) rotate(270) translate(0,3)" style="font-family: sans-serif; font-size: 10px; fill: #000; opacity: 1;">2021-09</text><text text-anchor="end" transform="translate(270.92857142857144,7) rotate(270) translate(0,3)" style="font-family: sans-serif; font-size: 10px; fill: #000; opacity: 1;">2021-10</text><text text-anchor="end" transform="translate(299.5,7) rotate(270) translate(0,3)" style="font-family: sans-serif; font-size: 10px; fill: #000; opacity: 1;">2021-11</text><text text-anchor="end" transform="translate(328.07142857142856,7) rotate(270) translate(0,3)" style="font-family: sans-serif; font-size: 10px; fill: #000; opacity: 1;">2021-12</text><text text-anchor="end" transform="translate(356.64285714285717,7) rotate(270) translate(0,3)" style="font-family: sans-serif; font-size: 10px; fill: #000; opacity: 1;">2022-01</text><text text-anchor="end" transform="translate(385.2142857142857,7) rotate(270) translate(0,3)" style="font-family: sans-serif; font-size: 10px; fill: #000; opacity: 1;">2022-02</text><text text-anchor="end" transform="translate(413.7857142857143,7) rotate(270) translate(0,3)" style="font-family: sans-serif; font-size: 10px; fill: #000; opacity: 1;">2022-03</text><text text-anchor="end" transform="translate(442.3571428571429,7) rotate(270) translate(0,3)" style="font-family: sans-serif; font-size: 10px; fill: #000; opacity: 1;">2022-04</text><text text-anchor="end" transform="translate(470.92857142857144,7) rotate(270) translate(0,3)" style="font-family: sans-serif; font-size: 10px; fill: #000; opacity: 1;">2022-05</text><text text-anchor="end" transform="translate(499.5,7) rotate(270) translate(0,3)" style="font-family: sans-serif; font-size: 10px; fill: #000; opacity: 1;">2022-06</text><text text-anchor="end" transform="translate(528.0714285714287,7) rotate(270) translate(0,3)" style="font-family: sans-serif; font-size: 10px; fill: #000; opacity: 1;">2022-07</text><text text-anchor="end" transform="translate(556.6428571428572,7) rotate(270) translate(0,3)" style="font-family: sans-serif; font-size: 10px; fill: #000; opacity: 1;">2022-08</text><text text-anchor="end" transform="translate(585.2142857142858,7) rotate(270) translate(0,3)" style="font-family: sans-serif; font-size: 10px; fill: #000; opacity: 1;">2022-09</text><text text-anchor="end" transform="translate(613.7857142857143,7) rotate(270) translate(0,3)" style="font-family: sans-serif; font-size: 10px; fill: #000; opacity: 1;">2022-10</text><text text-anchor="end" transform="translate(642.3571428571429,7) rotate(270) translate(0,3)" style="font-family: sans-serif; font-size: 10px; fill: #000; opacity: 1;">2022-11</text><text text-anchor="end" transform="translate(670.9285714285716,7) rotate(270) translate(0,3)" style="font-family: sans-serif; font-size: 10px; fill: #000; opacity: 1;">2022-12</text><text text-anchor="end" transform="translate(699.5000000000001,7) rotate(270) translate(0,3)" style="font-family: sans-serif; font-size: 10px; fill: #000; opacity: 1;">2023-01</text><text text-anchor="end" transform="translate(728.0714285714287,7) rotate(270) translate(0,3)" style="font-family: sans-serif; font-size: 10px; fill: #000; opacity: 1;">2023-02</text><text text-anchor="end" transform="translate(756.6428571428572,7) rotate(270) translate(0,3)" style="font-family: sans-serif; font-size: 10px; fill: #000; opacity: 1;">2023-03</text><text text-anchor="end" transform="translate(785.2142857142858,7) rotate(270) translate(0,3)" style="font-family: sans-serif; font-size: 10px; fill: #000; opacity: 1;">2023-04</text></g><g class="mark-rule role-axis-domain" style="pointer-events: none;"><line transform="translate(0,0)" x2="800" y2="0" style="fill: none; stroke: #888; stroke-width: 1; opacity: 1;"></line></g><g class="mark-text role-axis-title" style="pointer-events: none;"><text text-anchor="middle" transform="translate(400,76)" style="font-family: sans-serif; font-size: 11px; font-weight: bold; fill: #000; opacity: 1;">Date</text></g></g><path class="foreground" d="" style="pointer-events: none; display: none; fill: none;"></path></g></g><g class="mark-group role-axis"><g transform="translate(0.5,0.5)"><path class="background" d="M0,0h0v0h0Z" style="pointer-events: none; fill: none;"></path><g><g class="mark-rule role-axis-tick" style="pointer-events: none;"><line transform="translate(0,600)" x2="-5" y2="0" style="fill: none; stroke: #888; stroke-width: 1; opacity: 1;"></line><line transform="translate(0,545)" x2="-5" y2="0" style="fill: none; stroke: #888; stroke-width: 1; opacity: 1;"></line><line transform="translate(0,491)" x2="-5" y2="0" style="fill: none; stroke: #888; stroke-width: 1; opacity: 1;"></line><line transform="translate(0,436)" x2="-5" y2="0" style="fill: none; stroke: #888; stroke-width: 1; opacity: 1;"></line><line transform="translate(0,382)" x2="-5" y2="0" style="fill: none; stroke: #888; stroke-width: 1; opacity: 1;"></line><line transform="translate(0,327)" x2="-5" y2="0" style="fill: none; stroke: #888; stroke-width: 1; opacity: 1;"></line><line transform="translate(0,273)" x2="-5" y2="0" style="fill: none; stroke: #888; stroke-width: 1; opacity: 1;"></line><line transform="translate(0,218)" x2="-5" y2="0" style="fill: none; stroke: #888; stroke-width: 1; opacity: 1;"></line><line transform="translate(0,164)" x2="-5" y2="0" style="fill: none; stroke: #888; stroke-width: 1; opacity: 1;"></line><line transform="translate(0,109)" x2="-5" y2="0" style="fill: none; stroke: #888; stroke-width: 1; opacity: 1;"></line><line transform="translate(0,55)" x2="-5" y2="0" style="fill: none; stroke: #888; stroke-width: 1; opacity: 1;"></line><line transform="translate(0,0)" x2="-5" y2="0" style="fill: none; stroke: #888; stroke-width: 1; opacity: 1;"></line></g><g class="mark-text role-axis-label" style="pointer-events: none;"><text text-anchor="end" transform="translate(-7,603)" style="font-family: sans-serif; font-size: 10px; fill: #000; opacity: 1;">0.0</text><text text-anchor="end" transform="translate(-7,548.4545454545454)" style="font-family: sans-serif; font-size: 10px; fill: #000; opacity: 1;">0.1</text><text text-anchor="end" transform="translate(-7,493.9090909090909)" style="font-family: sans-serif; font-size: 10px; fill: #000; opacity: 1;">0.2</text><text text-anchor="end" transform="translate(-7,439.3636363636364)" style="font-family: sans-serif; font-size: 10px; fill: #000; opacity: 1;">0.3</text><text text-anchor="end" transform="translate(-7,384.8181818181818)" style="font-family: sans-serif; font-size: 10px; fill: #000; opacity: 1;">0.4</text><text text-anchor="end" transform="translate(-7,330.27272727272725)" style="font-family: sans-serif; font-size: 10px; fill: #000; opacity: 1;">0.5</text><text text-anchor="end" transform="translate(-7,275.72727272727275)" style="font-family: sans-serif; font-size: 10px; fill: #000; opacity: 1;">0.6</text><text text-anchor="end" transform="translate(-7,221.18181818181824)" style="font-family: sans-serif; font-size: 10px; fill: #000; opacity: 1;">0.7</text><text text-anchor="end" transform="translate(-7,166.63636363636363)" style="font-family: sans-serif; font-size: 10px; fill: #000; opacity: 1;">0.8</text><text text-anchor="end" transform="translate(-7,112.09090909090912)" style="font-family: sans-serif; font-size: 10px; fill: #000; opacity: 1;">0.9</text><text text-anchor="end" transform="translate(-7,57.54545454545456)" style="font-family: sans-serif; font-size: 10px; fill: #000; opacity: 1;">1.0</text><text text-anchor="end" transform="translate(-7,3)" style="font-family: sans-serif; font-size: 10px; fill: #000; opacity: 1;">1.1</text></g><g class="mark-rule role-axis-domain" style="pointer-events: none;"><line transform="translate(0,600)" x2="0" y2="-600" style="fill: none; stroke: #888; stroke-width: 1; opacity: 1;"></line></g><g class="mark-text role-axis-title" style="pointer-events: none;"><text text-anchor="middle" transform="translate(-35,300) rotate(-90) translate(0,-2)" style="font-family: sans-serif; font-size: 11px; font-weight: bold; fill: #000; opacity: 1;">Sum of Hours</text></g></g><path class="foreground" d="" style="pointer-events: none; display: none; fill: none;"></path></g></g><g class="mark-rect role-mark marks"><path d="M1.4285714285714448,145.80827732578717h25.714285714285715v12.734347364697584h-25.714285714285715Z" style="fill: #e45756;"></path><path d="M1.4285714285714448,54.545454545454696h25.714285714285715v91.26282278033247h-25.714285714285715Z" style="fill: #4c78a8;"></path><path d="M1.4285714285714448,158.54262469048476h25.714285714285715v252.56455606650147h-25.714285714285715Z" style="fill: #72b7b2;"></path><path d="M1.4285714285714448,476.9013088079236h25.714285714285715v89.14043155288294h-25.714285714285715Z" style="fill: #eeca3b;"></path><path d="M1.4285714285714448,411.1071807569862h25.714285714285715v65.79412805093739h-25.714285714285715Z" style="fill: #54a24b;"></path><path d="M1.4285714285714448,566.0417403608066h25.714285714285715v33.95825963919344h-25.714285714285715Z" style="fill: #9d755d;"></path><path d="M30.000000000000018,197.95134443021766h25.714285714285715v97.31113956466072h-25.714285714285715Z" style="fill: #72b7b2;"></path><path d="M30.000000000000018,366.9654289372599h25.714285714285715v192.06145966709352h-25.714285714285715Z" style="fill: #eeca3b;"></path><path d="M30.000000000000018,54.54545454545456h25.714285714285715v143.4058898847631h-25.714285714285715Z" style="fill: #4c78a8;"></path><path d="M30.000000000000018,295.2624839948784h25.714285714285715v71.70294494238152h-25.714285714285715Z" style="fill: #54a24b;"></path><path d="M30.000000000000018,559.0268886043534h25.714285714285715v40.97311139564658h-25.714285714285715Z" style="fill: #9d755d;"></path><path d="M58.57142857142859,166.96738376127672h25.714285714285715v52.04718945176958h-25.714285714285715Z" style="fill: #72b7b2;"></path><path d="M58.57142857142859,348.09160305343505h25.714285714285715v222.76197085357398h-25.714285714285715Z" style="fill: #eeca3b;"></path><path d="M58.57142857142859,54.54545454545436h25.714285714285715v112.42192921582236h-25.714285714285715Z" style="fill: #4c78a8;"></path><path d="M58.57142857142859,219.0145732130463h25.714285714285715v129.07702984038875h-25.714285714285715Z" style="fill: #54a24b;"></path><path d="M58.57142857142859,570.853573907009h25.714285714285715v29.146426092990964h-25.714285714285715Z" style="fill: #b279a2;"></path><path d="M87.14285714285717,153.91120507399577h25.714285714285715v16.91331923890067h-25.714285714285715Z" style="fill: #e45756;"></path><path d="M87.14285714285717,394.9260042283298h25.714285714285715v147.99154334038053h-25.714285714285715Z" style="fill: #eeca3b;"></path><path d="M87.14285714285717,244.82029598308665h25.714285714285715v150.10570824524316h-25.714285714285715Z" style="fill: #54a24b;"></path><path d="M87.14285714285717,542.9175475687103h25.714285714285715v23.255813953488428h-25.714285714285715Z" style="fill: #b279a2;"></path><path d="M87.14285714285717,170.82452431289644h25.714285714285715v73.99577167019021h-25.714285714285715Z" style="fill: #72b7b2;"></path><path d="M87.14285714285717,54.5454545454545h25.714285714285715v99.36575052854127h-25.714285714285715Z" style="fill: #4c78a8;"></path><path d="M87.14285714285717,566.1733615221988h25.714285714285715v33.826638477801225h-25.714285714285715Z" style="fill: #9d755d;"></path><path d="M115.71428571428574,417.5059141601893h25.714285714285715v152.07840486650895h-25.714285714285715Z" style="fill: #eeca3b;"></path><path d="M115.71428571428574,186.34673876309566h25.714285714285715v77.05305846569789h-25.714285714285715Z" style="fill: #72b7b2;"></path><path d="M115.71428571428574,263.39979722879355h25.714285714285715v154.10611693139577h-25.714285714285715Z" style="fill: #54a24b;"></path><path d="M115.71428571428574,54.54545454545456h25.714285714285715v131.8012842176411h-25.714285714285715Z" style="fill: #4c78a8;"></path><path d="M115.71428571428574,569.5843190266983h25.714285714285715v30.415680973301733h-25.714285714285715Z" style="fill: #b279a2;"></path><path d="M144.2857142857143,428.78787878787887h25.714285714285715v74.24242424242419h-25.714285714285715Z" style="fill: #eeca3b;"></path><path d="M144.2857142857143,503.03030303030306h25.714285714285715v72.72727272727269h-25.714285714285715Z" style="fill: #b279a2;"></path><path d="M144.2857142857143,274.2424242424243h25.714285714285715v56.06060606060606h-25.714285714285715Z" style="fill: #72b7b2;"></path><path d="M144.2857142857143,54.545454545454696h25.714285714285715v219.6969696969696h-25.714285714285715Z" style="fill: #4c78a8;"></path><path d="M144.2857142857143,330.30303030303037h25.714285714285715v98.4848484848485h-25.714285714285715Z" style="fill: #54a24b;"></path><path d="M144.2857142857143,575.7575757575758h25.714285714285715v24.24242424242425h-25.714285714285715Z" style="fill: #9d755d;"></path><path d="M172.8571428571429,469.9450016175995h25.714285714285715v62.11582012293752h-25.714285714285715Z" style="fill: #eeca3b;"></path><path d="M172.8571428571429,54.54545454545456h25.714285714285715v161.11290844386932h-25.714285714285715Z" style="fill: #4c78a8;"></path><path d="M172.8571428571429,357.36007764477523h25.714285714285715v112.58492397282424h-25.714285714285715Z" style="fill: #54a24b;"></path><path d="M172.8571428571429,568.9420899385312h25.714285714285715v31.05791006146876h-25.714285714285715Z" style="fill: #9d755d;"></path><path d="M172.8571428571429,227.3050792623747h25.714285714285715v130.05499838240053h-25.714285714285715Z" style="fill: #72b7b2;"></path><path d="M172.8571428571429,215.65836298932388h25.714285714285715v11.646716273050828h-25.714285714285715Z" style="fill: #e45756;"></path><path d="M172.8571428571429,532.060821740537h25.714285714285715v36.881268197994245h-25.714285714285715Z" style="fill: #b279a2;"></path><path d="M201.42857142857144,54.54545454545463h25.714285714285715v50.699300699300736h-25.714285714285715Z" style="fill: #4c78a8;"></path><path d="M201.42857142857144,437.4125874125875h25.714285714285715v157.34265734265728h-25.714285714285715Z" style="fill: #eeca3b;"></path><path d="M201.42857142857144,112.23776223776231h25.714285714285715v206.2937062937063h-25.714285714285715Z" style="fill: #72b7b2;"></path><path d="M201.42857142857144,318.5314685314686h25.714285714285715v118.88111888111894h-25.714285714285715Z" style="fill: #54a24b;"></path><path d="M201.42857142857144,594.7552447552448h25.714285714285715v5.244755244755197h-25.714285714285715Z" style="fill: #b279a2;"></path><path d="M201.42857142857144,105.24475524475537h25.714285714285715v6.993006993006944h-25.714285714285715Z" style="fill: #e45756;"></path><path d="M230.00000000000003,564.6382790629144h25.714285714285715v7.072344187417116h-25.714285714285715Z" style="fill: #b279a2;"></path><path d="M230.00000000000003,150.02210107558577h25.714285714285715v28.28937674966849h-25.714285714285715Z" style="fill: #e45756;"></path><path d="M230.00000000000003,476.23397672020036h25.714285714285715v88.40430234271406h-25.714285714285715Z" style="fill: #eeca3b;"></path><path d="M230.00000000000003,317.10623250331514h25.714285714285715v159.12774421688522h-25.714285714285715Z" style="fill: #54a24b;"></path><path d="M230.00000000000003,178.31147782525426h25.714285714285715v138.79475467806088h-25.714285714285715Z" style="fill: #72b7b2;"></path><path d="M230.00000000000003,54.54545454545463h25.714285714285715v95.47664653013113h-25.714285714285715Z" style="fill: #4c78a8;"></path><path d="M230.00000000000003,571.7106232503315h25.714285714285715v28.289376749668463h-25.714285714285715Z" style="fill: #9d755d;"></path><path d="M258.5714285714286,54.54545454545456h25.714285714285715v60.32677000418934h-25.714285714285715Z" style="fill: #4c78a8;"></path><path d="M258.5714285714286,137.49476330121496h25.714285714285715v120.65354000837874h-25.714285714285715Z" style="fill: #72b7b2;"></path><path d="M258.5714285714286,258.1483033095937h25.714285714285715v100.54461667364887h-25.714285714285715Z" style="fill: #54a24b;"></path><path d="M258.5714285714286,114.8722245496439h25.714285714285715v22.622538751571057h-25.714285714285715Z" style="fill: #e45756;"></path><path d="M258.5714285714286,358.6929199832426h25.714285714285715v241.30708001675742h-25.714285714285715Z" style="fill: #eeca3b;"></path><path d="M287.14285714285717,283.9422259983008h25.714285714285715v197.11129991503822h-25.714285714285715Z" style="fill: #eeca3b;"></path><path d="M287.14285714285717,81.73322005097712h25.714285714285715v25.488530161427335h-25.714285714285715Z" style="fill: #e45756;"></path><path d="M287.14285714285717,192.18351741716236h25.714285714285715v91.75870858113842h-25.714285714285715Z" style="fill: #54a24b;"></path><path d="M287.14285714285717,54.54545454545456h25.714285714285715v27.187765505522563h-25.714285714285715Z" style="fill: #4c78a8;"></path><path d="M287.14285714285717,107.22175021240446h25.714285714285715v84.9617672047579h-25.714285714285715Z" style="fill: #72b7b2;"></path><path d="M287.14285714285717,481.053525913339h25.714285714285715v10.195412064570917h-25.714285714285715Z" style="fill: #b279a2;"></path><path d="M287.14285714285717,491.2489379779099h25.714285714285715v108.75106202209008h-25.714285714285715Z" style="fill: #9d755d;"></path><path d="M315.7142857142857,125.4860746190227h25.714285714285715v108.77561744613766h-25.714285714285715Z" style="fill: #54a24b;"></path><path d="M315.7142857142857,234.26169206516036h25.714285714285715v163.95165528113503h-25.714285714285715Z" style="fill: #eeca3b;"></path><path d="M315.7142857142857,54.545454545454696h25.714285714285715v12.611665790856527h-25.714285714285715Z" style="fill: #4c78a8;"></path><path d="M315.7142857142857,104.99211770888088h25.714285714285715v20.49395691014182h-25.714285714285715Z" style="fill: #72b7b2;"></path><path d="M315.7142857142857,67.15712033631122h25.714285714285715v37.83499737256966h-25.714285714285715Z" style="fill: #e45756;"></path><path d="M315.7142857142857,398.2133473462954h25.714285714285715v201.7866526537046h-25.714285714285715Z" style="fill: #9d755d;"></path><path d="M344.28571428571433,67.63636363636354h25.714285714285715v15.272727272727238h-25.714285714285715Z" style="fill: #e45756;"></path><path d="M344.28571428571433,152.72727272727258h25.714285714285715v74.18181818181819h-25.714285714285715Z" style="fill: #54a24b;"></path><path d="M344.28571428571433,226.90909090909076h25.714285714285715v305.4545454545456h-25.714285714285715Z" style="fill: #eeca3b;"></path><path d="M344.28571428571433,82.90909090909078h25.714285714285715v69.8181818181818h-25.714285714285715Z" style="fill: #72b7b2;"></path><path d="M344.28571428571433,532.3636363636364h25.714285714285715v32.72727272727275h-25.714285714285715Z" style="fill: #b279a2;"></path><path d="M344.28571428571433,54.5454545454545h25.714285714285715v13.090909090909044h-25.714285714285715Z" style="fill: #4c78a8;"></path><path d="M344.28571428571433,565.0909090909091h25.714285714285715v34.90909090909088h-25.714285714285715Z" style="fill: #9d755d;"></path><path d="M372.8571428571429,488.4297520661157h25.714285714285715v51.652892561983435h-25.714285714285715Z" style="fill: #eeca3b;"></path><path d="M372.8571428571429,54.54545454545476h25.714285714285715v95.04132231404958h-25.714285714285715Z" style="fill: #4c78a8;"></path><path d="M372.8571428571429,331.40495867768607h25.714285714285715v157.02479338842966h-25.714285714285715Z" style="fill: #54a24b;"></path><path d="M372.8571428571429,199.17355371900845h25.714285714285715v132.23140495867762h-25.714285714285715Z" style="fill: #72b7b2;"></path><path d="M372.8571428571429,149.58677685950434h25.714285714285715v49.58677685950411h-25.714285714285715Z" style="fill: #e45756;"></path><path d="M372.8571428571429,540.0826446280992h25.714285714285715v26.85950413223145h-25.714285714285715Z" style="fill: #b279a2;"></path><path d="M372.8571428571429,566.9421487603306h25.714285714285715v33.05785123966939h-25.714285714285715Z" style="fill: #9d755d;"></path><path d="M401.42857142857144,178.59531772575272h25.714285714285715v164.1836424445119h-25.714285714285715Z" style="fill: #72b7b2;"></path><path d="M401.42857142857144,342.7789601702646h25.714285714285715v158.7108543630282h-25.714285714285715Z" style="fill: #54a24b;"></path><path d="M401.42857142857144,167.64974156278524h25.714285714285715v10.945576162967484h-25.714285714285715Z" style="fill: #e45756;"></path><path d="M401.42857142857144,54.54545454545476h25.714285714285715v113.10428701733048h-25.714285714285715Z" style="fill: #4c78a8;"></path><path d="M401.42857142857144,501.4898145332928h25.714285714285715v71.1462450592885h-25.714285714285715Z" style="fill: #eeca3b;"></path><path d="M401.42857142857144,572.6360595925813h25.714285714285715v27.36394040741868h-25.714285714285715Z" style="fill: #b279a2;"></path><path d="M430.00000000000006,123.41597796143253h25.714285714285715v256.19834710743794h-25.714285714285715Z" style="fill: #72b7b2;"></path><path d="M430.00000000000006,434.7107438016529h25.714285714285715v115.70247933884303h-25.714285714285715Z" style="fill: #eeca3b;"></path><path d="M430.00000000000006,550.4132231404959h25.714285714285715v5.509641873278156h-25.714285714285715Z" style="fill: #b279a2;"></path><path d="M430.00000000000006,379.61432506887047h25.714285714285715v55.09641873278241h-25.714285714285715Z" style="fill: #54a24b;"></path><path d="M430.00000000000006,555.9228650137741h25.714285714285715v44.07713498622593h-25.714285714285715Z" style="fill: #9d755d;"></path><path d="M430.00000000000006,68.31955922865018h25.714285714285715v55.096418732782354h-25.714285714285715Z" style="fill: #e45756;"></path><path d="M430.00000000000006,54.54545454545456h25.714285714285715v13.774104683195617h-25.714285714285715Z" style="fill: #4c78a8;"></path><path d="M458.5714285714286,77.6334776334777h25.714285714285715v14.430014430014467h-25.714285714285715Z" style="fill: #e45756;"></path><path d="M458.5714285714286,397.979797979798h25.714285714285715v152.958152958153h-25.714285714285715Z" style="fill: #eeca3b;"></path><path d="M458.5714285714286,288.31168831168833h25.714285714285715v109.66810966810965h-25.714285714285715Z" style="fill: #54a24b;"></path><path d="M458.5714285714286,92.06349206349216h25.714285714285715v196.24819624819617h-25.714285714285715Z" style="fill: #72b7b2;"></path><path d="M458.5714285714286,54.54545454545456h25.714285714285715v23.088023088023135h-25.714285714285715Z" style="fill: #4c78a8;"></path><path d="M458.5714285714286,550.937950937951h25.714285714285715v2.8860028860028706h-25.714285714285715Z" style="fill: #b279a2;"></path><path d="M458.5714285714286,553.8239538239538h25.714285714285715v46.17604617604616h-25.714285714285715Z" style="fill: #9d755d;"></path><path d="M487.14285714285717,99.52153110047837h25.714285714285715v26.794258373205764h-25.714285714285715Z" style="fill: #e45756;"></path><path d="M487.14285714285717,126.31578947368413h25.714285714285715v265.0717703349284h-25.714285714285715Z" style="fill: #72b7b2;"></path><path d="M487.14285714285717,391.3875598086125h25.714285714285715v107.177033492823h-25.714285714285715Z" style="fill: #54a24b;"></path><path d="M487.14285714285717,498.5645933014355h25.714285714285715v70.81339712918657h-25.714285714285715Z" style="fill: #eeca3b;"></path><path d="M487.14285714285717,54.5454545454545h25.714285714285715v44.97607655502387h-25.714285714285715Z" style="fill: #4c78a8;"></path><path d="M487.14285714285717,569.377990430622h25.714285714285715v30.62200956937795h-25.714285714285715Z" style="fill: #9d755d;"></path><path d="M515.7142857142858,528.9772727272727h25.714285714285715v25.56818181818187h-25.714285714285715Z" style="fill: #eeca3b;"></path><path d="M515.7142857142858,554.5454545454546h25.714285714285715v45.45454545454538h-25.714285714285715Z" style="fill: #9d755d;"></path><path d="M515.7142857142858,117.0454545454546h25.714285714285715v318.18181818181813h-25.714285714285715Z" style="fill: #72b7b2;"></path><path d="M515.7142857142858,435.22727272727275h25.714285714285715v93.75h-25.714285714285715Z" style="fill: #54a24b;"></path><path d="M515.7142857142858,60.22727272727284h25.714285714285715v56.81818181818176h-25.714285714285715Z" style="fill: #e45756;"></path><path d="M515.7142857142858,54.54545454545463h25.714285714285715v5.681818181818208h-25.714285714285715Z" style="fill: #4c78a8;"></path><path d="M544.2857142857143,64.50809464508104h25.714285714285715v74.71980074719797h-25.714285714285715Z" style="fill: #e45756;"></path><path d="M544.2857142857143,331.00871731008715h25.714285714285715v191.78082191780834h-25.714285714285715Z" style="fill: #54a24b;"></path><path d="M544.2857142857143,139.227895392279h25.714285714285715v191.78082191780814h-25.714285714285715Z" style="fill: #72b7b2;"></path><path d="M544.2857142857143,545.2054794520548h25.714285714285715v54.79452054794524h-25.714285714285715Z" style="fill: #b279a2;"></path><path d="M544.2857142857143,54.54545454545463h25.714285714285715v9.962640099626412h-25.714285714285715Z" style="fill: #4c78a8;"></path><path d="M544.2857142857143,522.7895392278955h25.714285714285715v22.41594022415927h-25.714285714285715Z" style="fill: #eeca3b;"></path><path d="M572.8571428571429,95.51856594110117h25.714285714285715v281.69014084507046h-25.714285714285715Z" style="fill: #72b7b2;"></path><path d="M572.8571428571429,559.0268886043534h25.714285714285715v40.97311139564658h-25.714285714285715Z" style="fill: #9d755d;"></path><path d="M572.8571428571429,507.81049935979513h25.714285714285715v51.216389244558286h-25.714285714285715Z" style="fill: #eeca3b;"></path><path d="M572.8571428571429,377.2087067861716h25.714285714285715v130.60179257362353h-25.714285714285715Z" style="fill: #54a24b;"></path><path d="M572.8571428571429,54.54545454545456h25.714285714285715v20.48655569782335h-25.714285714285715Z" style="fill: #4c78a8;"></path><path d="M572.8571428571429,75.03201024327791h25.714285714285715v20.486555697823263h-25.714285714285715Z" style="fill: #e45756;"></path><path d="M601.4285714285714,54.54545454545456h25.714285714285715v26.7379679144385h-25.714285714285715Z" style="fill: #4c78a8;"></path><path d="M601.4285714285714,428.8770053475936h25.714285714285715v125.66844919786104h-25.714285714285715Z" style="fill: #54a24b;"></path><path d="M601.4285714285714,575.9358288770054h25.714285714285715v24.064171122994594h-25.714285714285715Z" style="fill: #b279a2;"></path><path d="M601.4285714285714,113.36898395721926h25.714285714285715v315.5080213903743h-25.714285714285715Z" style="fill: #72b7b2;"></path><path d="M601.4285714285714,554.5454545454546h25.714285714285715v21.390374331550788h-25.714285714285715Z" style="fill: #eeca3b;"></path><path d="M601.4285714285714,81.28342245989306h25.714285714285715v32.085561497326196h-25.714285714285715Z" style="fill: #e45756;"></path><path d="M630,91.48859109018484h25.714285714285715v275.98696124592533h-25.714285714285715Z" style="fill: #72b7b2;"></path><path d="M630,78.4498370155742h25.714285714285715v13.038754074610637h-25.714285714285715Z" style="fill: #e45756;"></path><path d="M630,54.545454545454696h25.714285714285715v23.904382470119508h-25.714285714285715Z" style="fill: #4c78a8;"></path><path d="M630,367.4755523361102h25.714285714285715v86.92502716407091h-25.714285714285715Z" style="fill: #54a24b;"></path><path d="M630,454.4005795001811h25.714285714285715v6.519377037305333h-25.714285714285715Z" style="fill: #eeca3b;"></path><path d="M630,460.9199565374864h25.714285714285715v139.08004346251357h-25.714285714285715Z" style="fill: #9d755d;"></path><path d="M658.5714285714287,187.66233766233768h25.714285714285715v285.7142857142857h-25.714285714285715Z" style="fill: #54a24b;"></path><path d="M658.5714285714287,54.54545454545456h25.714285714285715v133.11688311688312h-25.714285714285715Z" style="fill: #72b7b2;"></path><path d="M658.5714285714287,473.3766233766234h25.714285714285715v22.727272727272748h-25.714285714285715Z" style="fill: #eeca3b;"></path><path d="M658.5714285714287,496.10389610389615h25.714285714285715v103.89610389610385h-25.714285714285715Z" style="fill: #9d755d;"></path><path d="M687.1428571428572,532.4215607401449h25.714285714285715v67.57843925985514h-25.714285714285715Z" style="fill: #9d755d;"></path><path d="M687.1428571428572,334.5132743362832h25.714285714285715v144.81094127111828h-25.714285714285715Z" style="fill: #54a24b;"></path><path d="M687.1428571428572,54.5454545454545h25.714285714285715v26.548672566371728h-25.714285714285715Z" style="fill: #e45756;"></path><path d="M687.1428571428572,81.09412711182623h25.714285714285715v253.41914722445696h-25.714285714285715Z" style="fill: #72b7b2;"></path><path d="M687.1428571428572,513.113435237329h25.714285714285715v19.30812550281587h-25.714285714285715Z" style="fill: #b279a2;"></path><path d="M687.1428571428572,479.32421560740147h25.714285714285715v33.789219629927516h-25.714285714285715Z" style="fill: #eeca3b;"></path><path d="M715.7142857142858,105.94954783436452h25.714285714285715v248.45311756306523h-25.714285714285715Z" style="fill: #72b7b2;"></path><path d="M715.7142857142858,354.40266539742976h25.714285714285715v185.62589243217525h-25.714285714285715Z" style="fill: #54a24b;"></path><path d="M715.7142857142858,54.5454545454545h25.714285714285715v5.711565920989983h-25.714285714285715Z" style="fill: #4c78a8;"></path><path d="M715.7142857142858,562.8748215135649h25.714285714285715v8.567348881485032h-25.714285714285715Z" style="fill: #b279a2;"></path><path d="M715.7142857142858,60.25702046644448h25.714285714285715v45.69252736792004h-25.714285714285715Z" style="fill: #e45756;"></path><path d="M715.7142857142858,540.028557829605h25.714285714285715v22.846263683959933h-25.714285714285715Z" style="fill: #eeca3b;"></path><path d="M715.7142857142858,571.44217039505h25.714285714285715v28.55782960495003h-25.714285714285715Z" style="fill: #9d755d;"></path><path d="M744.2857142857143,286.7804684398571h25.714285714285715v263.19968241365626h-25.714285714285715Z" style="fill: #54a24b;"></path><path d="M744.2857142857143,98.61055974593094h25.714285714285715v188.16990869392615h-25.714285714285715Z" style="fill: #72b7b2;"></path><path d="M744.2857142857143,552.3620484319174h25.714285714285715v47.6379515680826h-25.714285714285715Z" style="fill: #b279a2;"></path><path d="M744.2857142857143,59.30924970226279h25.714285714285715v39.30131004366815h-25.714285714285715Z" style="fill: #e45756;"></path><path d="M744.2857142857143,549.9801508535134h25.714285714285715v2.3818975784040504h-25.714285714285715Z" style="fill: #eeca3b;"></path><path d="M744.2857142857143,54.54545454545456h25.714285714285715v4.763795156808229h-25.714285714285715Z" style="fill: #4c78a8;"></path><path d="M772.8571428571429,250.2932551319649h25.714285714285715v222.140762463343h-25.714285714285715Z" style="fill: #54a24b;"></path><path d="M772.8571428571429,58.9442815249269h25.714285714285715v30.791788856304954h-25.714285714285715Z" style="fill: #e45756;"></path><path d="M772.8571428571429,472.4340175953079h25.714285714285715v43.98826979472136h-25.714285714285715Z" style="fill: #eeca3b;"></path><path d="M772.8571428571429,89.73607038123185h25.714285714285715v160.55718475073306h-25.714285714285715Z" style="fill: #72b7b2;"></path><path d="M772.8571428571429,516.4222873900293h25.714285714285715v30.79178885630506h-25.714285714285715Z" style="fill: #b279a2;"></path><path d="M772.8571428571429,556.0117302052786h25.714285714285715v43.98826979472142h-25.714285714285715Z" style="fill: #9d755d;"></path><path d="M772.8571428571429,547.2140762463343h25.714285714285715v8.797653958944238h-25.714285714285715Z" style="fill: #ff9da6;"></path><path d="M772.8571428571429,54.54545454545476h25.714285714285715v4.39882697947214h-25.714285714285715Z" style="fill: #f58518;"></path></g><g class="mark-group role-legend"><g transform="translate(818,0)"><path class="background" d="M0,0h120v131h-120Z" style="pointer-events: none; fill: none;"></path><g><g class="mark-group role-legend-entry"><g transform="translate(0,16)"><path class="background" d="M0,0h0v0h0Z" style="pointer-events: none; fill: none;"></path><g><g class="mark-group role-scope"><g transform="translate(0,0)"><path class="background" d="M0,0h120v11h-120Z" style="pointer-events: none; fill: none; opacity: 1;"></path><g><g class="mark-symbol role-legend-symbol" style="pointer-events: none;"><path transform="translate(6,6)" d="M-5,-5h10v10h-10Z" style="fill: #4c78a8; stroke-width: 1.5; opacity: 1;"></path></g><g class="mark-text role-legend-label" style="pointer-events: none;"><text text-anchor="start" transform="translate(16,9)" style="font-family: sans-serif; font-size: 10px; fill: #000; opacity: 1;">APOLLO</text></g></g><path class="foreground" d="" style="pointer-events: none; display: none; fill: none;"></path></g><g transform="translate(0,13)"><path class="background" d="M0,0h120v11h-120Z" style="pointer-events: none; fill: none; opacity: 1;"></path><g><g class="mark-symbol role-legend-symbol" style="pointer-events: none;"><path transform="translate(6,6)" d="M-5,-5h10v10h-10Z" style="fill: #f58518; stroke-width: 1.5; opacity: 1;"></path></g><g class="mark-text role-legend-label" style="pointer-events: none;"><text text-anchor="start" transform="translate(16,9)" style="font-family: sans-serif; font-size: 10px; fill: #000; opacity: 1;">CMS-PIXEL-DTC</text></g></g><path class="foreground" d="" style="pointer-events: none; display: none; fill: none;"></path></g><g transform="translate(0,26)"><path class="background" d="M0,0h120v11h-120Z" style="pointer-events: none; fill: none; opacity: 1;"></path><g><g class="mark-symbol role-legend-symbol" style="pointer-events: none;"><path transform="translate(6,6)" d="M-5,-5h10v10h-10Z" style="fill: #e45756; stroke-width: 1.5; opacity: 1;"></path></g><g class="mark-text role-legend-label" style="pointer-events: none;"><text text-anchor="start" transform="translate(16,9)" style="font-family: sans-serif; font-size: 10px; fill: #000; opacity: 1;">EDF</text></g></g><path class="foreground" d="" style="pointer-events: none; display: none; fill: none;"></path></g><g transform="translate(0,39)"><path class="background" d="M0,0h120v11h-120Z" style="pointer-events: none; fill: none; opacity: 1;"></path><g><g class="mark-symbol role-legend-symbol" style="pointer-events: none;"><path transform="translate(6,6)" d="M-5,-5h10v10h-10Z" style="fill: #72b7b2; stroke-width: 1.5; opacity: 1;"></path></g><g class="mark-text role-legend-label" style="pointer-events: none;"><text text-anchor="start" transform="translate(16,9)" style="font-family: sans-serif; font-size: 10px; fill: #000; opacity: 1;">ETL</text></g></g><path class="foreground" d="" style="pointer-events: none; display: none; fill: none;"></path></g><g transform="translate(0,52)"><path class="background" d="M0,0h120v11h-120Z" style="pointer-events: none; fill: none; opacity: 1;"></path><g><g class="mark-symbol role-legend-symbol" style="pointer-events: none;"><path transform="translate(6,6)" d="M-5,-5h10v10h-10Z" style="fill: #54a24b; stroke-width: 1.5; opacity: 1;"></path></g><g class="mark-text role-legend-label" style="pointer-events: none;"><text text-anchor="start" transform="translate(16,9)" style="font-family: sans-serif; font-size: 10px; fill: #000; opacity: 1;">GEM</text></g></g><path class="foreground" d="" style="pointer-events: none; display: none; fill: none;"></path></g><g transform="translate(0,65)"><path class="background" d="M0,0h120v11h-120Z" style="pointer-events: none; fill: none; opacity: 1;"></path><g><g class="mark-symbol role-legend-symbol" style="pointer-events: none;"><path transform="translate(6,6)" d="M-5,-5h10v10h-10Z" style="fill: #eeca3b; stroke-width: 1.5; opacity: 1;"></path></g><g class="mark-text role-legend-label" style="pointer-events: none;"><text text-anchor="start" transform="translate(16,9)" style="font-family: sans-serif; font-size: 10px; fill: #000; opacity: 1;">L0MDT</text></g></g><path class="foreground" d="" style="pointer-events: none; display: none; fill: none;"></path></g><g transform="translate(0,78)"><path class="background" d="M0,0h120v11h-120Z" style="pointer-events: none; fill: none; opacity: 1;"></path><g><g class="mark-symbol role-legend-symbol" style="pointer-events: none;"><path transform="translate(6,6)" d="M-5,-5h10v10h-10Z" style="fill: #b279a2; stroke-width: 1.5; opacity: 1;"></path></g><g class="mark-text role-legend-label" style="pointer-events: none;"><text text-anchor="start" transform="translate(16,9)" style="font-family: sans-serif; font-size: 10px; fill: #000; opacity: 1;">OTHER PRJ</text></g></g><path class="foreground" d="" style="pointer-events: none; display: none; fill: none;"></path></g><g transform="translate(0,91)"><path class="background" d="M0,0h120v11h-120Z" style="pointer-events: none; fill: none; opacity: 1;"></path><g><g class="mark-symbol role-legend-symbol" style="pointer-events: none;"><path transform="translate(6,6)" d="M-5,-5h10v10h-10Z" style="fill: #ff9da6; stroke-width: 1.5; opacity: 1;"></path></g><g class="mark-text role-legend-label" style="pointer-events: none;"><text text-anchor="start" transform="translate(16,9)" style="font-family: sans-serif; font-size: 10px; fill: #000; opacity: 1;">ROBLYER-DDOSI</text></g></g><path class="foreground" d="" style="pointer-events: none; display: none; fill: none;"></path></g><g transform="translate(0,104)"><path class="background" d="M0,0h120v11h-120Z" style="pointer-events: none; fill: none; opacity: 1;"></path><g><g class="mark-symbol role-legend-symbol" style="pointer-events: none;"><path transform="translate(6,6)" d="M-5,-5h10v10h-10Z" style="fill: #9d755d; stroke-width: 1.5; opacity: 1;"></path></g><g class="mark-text role-legend-label" style="pointer-events: none;"><text text-anchor="start" transform="translate(16,9)" style="font-family: sans-serif; font-size: 10px; fill: #000; opacity: 1;">VAC/SICK/HOL</text></g></g><path class="foreground" d="" style="pointer-events: none; display: none; fill: none;"></path></g></g></g><path class="foreground" d="" style="pointer-events: none; display: none; fill: none;"></path></g></g><g class="mark-text role-legend-title" style="pointer-events: none;"><text text-anchor="start" transform="translate(0,9)" style="font-family: sans-serif; font-size: 11px; font-weight: bold; fill: #000; opacity: 1;">Project</text></g></g><path class="foreground" d="" style="pointer-events: none; display: none; fill: none;"></path></g></g></g><path class="foreground" d="" style="display: none; fill: none;"></path></g></g></g></svg>