<svg class="marks" width="810" height="627" viewBox="0 0 810 627" version="1.1" xmlns="http://www.w3.org/2000/svg" xmlns:xlink="http://www.w3.org/1999/xlink"><rect width="810" height="627" style="fill: white;"></rect><g transform="translate(5,22)"><g class="mark-group role-frame root"><g transform="translate(0,0)"><path class="background" d="M0.5,0.5h800v600h-800Z" style="fill: none; stroke: none;"></path><g><g class="mark-arc role-mark layer_0_marks"><path transform="translate(400,300)" d="M63.72688521117108,217.5239340372917A226.6666666666667,226.6666666666667,0,0,0,185.01189225149017,-130.95181366938297L0,0Z" style="fill: #e45756;"></path><path transform="translate(400,300)" d="M-210.36023296557437,84.4177123857729A226.6666666666667,226.6666666666667,0,0,0,63.72688521117108,217.5239340372917L0,0Z" style="fill: #72b7b2;"></path><path transform="translate(400,300)" d="M-149.3736416489892,-170.4854626010592A226.6666666666667,226.6666666666667,0,0,0,-210.36023296557437,84.4177123857729L0,0Z" style="fill: #54a24b;"></path><path transform="translate(400,300)" d="M143.06420857851114,-175.81356603397265A226.6666666666667,226.6666666666667,0,0,0,1.3879330390336672e-14,-226.6666666666667L0,0Z" style="fill: #4c78a8;"></path><path transform="translate(400,300)" d="M-4.1637991171010013e-14,-226.6666666666667A226.6666666666667,226.6666666666667,0,0,0,-106.50573998741417,-200.08574443850597L0,0Z" style="fill: #b279a2;"></path><path transform="translate(400,300)" d="M185.01189225149017,-130.95181366938297A226.6666666666667,226.6666666666667,0,0,0,143.06420857851114,-175.81356603397265L0,0Z" style="fill: #f58518;"></path><path transform="translate(400,300)" d="M-106.50573998741417,-200.08574443850597A226.6666666666667,226.6666666666667,0,0,0,-149.3736416489892,-170.4854626010592L0,0Z" style="fill: #eeca3b;"></path></g><g class="mark-text role-mark layer_1_marks"><text text-anchor="middle" transform="translate(651.8487532562519,393.65452979956416)" style="font-family: sans-serif; font-size: 20px; fill: #e45756;">ETL</text><text text-anchor="middle" transform="translate(283.50771901954136,545.8763422746833)" style="font-family: sans-serif; font-size: 20px; fill: #72b7b2;">GEM</text><text text-anchor="middle" transform="translate(140.65287642538425,243.9501764330945)" style="font-family: sans-serif; font-size: 20px; fill: #54a24b;">L0MDT</text><text text-anchor="middle" transform="translate(489.31381170900295,54.73489269474783)" style="font-family: sans-serif; font-size: 20px; fill: #4c78a8;">APOLLO</text><text text-anchor="middle" transform="translate(335.4278974483038,47.26933949923068)" style="font-family: sans-serif; font-size: 20px; fill: #b279a2;">VAC/SICK/HOL</text><text text-anchor="middle" transform="translate(594.7818447528983,123.87052938700742)" style="font-family: sans-serif; font-size: 20px; fill: #f58518;">EDF</text><text text-anchor="middle" transform="translate(248.47895228659618,86.56325920451806)" style="font-family: sans-serif; font-size: 20px; fill: #eeca3b;">OTHER PRJ</text></g><g class="mark-group role-title"><g transform="translate(400,-17)"><path class="background" d="M0,0h0v0h0Z" style="pointer-events: none; fill: none;"></path><g><g class="mark-text role-title-text" style="pointer-events: none;"><text text-anchor="middle" transform="translate(0,10)" style="font-family: sans-serif; font-size: 13px; font-weight: bold; fill: #000; opacity: 1;">EDF Work</text></g></g><path class="foreground" d="" style="pointer-events: none; display: none; fill: none;"></path></g></g></g><path class="foreground" d="" style="display: none; fill: none;"></path></g></g></g></svg>