<?xml version="1.0" encoding="utf-8" standalone="no"?>
<!DOCTYPE svg PUBLIC "-//W3C//DTD SVG 1.1//EN"
  "http://www.w3.org/Graphics/SVG/1.1/DTD/svg11.dtd">
<svg xmlns:xlink="http://www.w3.org/1999/xlink" width="540pt" height="360pt" viewBox="0 0 540 360" xmlns="http://www.w3.org/2000/svg" version="1.1">
 <metadata>
  <rdf:RDF xmlns:dc="http://purl.org/dc/elements/1.1/" xmlns:cc="http://creativecommons.org/ns#" xmlns:rdf="http://www.w3.org/1999/02/22-rdf-syntax-ns#">
   <cc:Work>
    <dc:type rdf:resource="http://purl.org/dc/dcmitype/StillImage"/>
    <dc:date>2022-10-20T10:15:44.967190</dc:date>
    <dc:format>image/svg+xml</dc:format>
    <dc:creator>
     <cc:Agent>
      <dc:title>Matplotlib v3.5.2, https://matplotlib.org/</dc:title>
     </cc:Agent>
    </dc:creator>
   </cc:Work>
  </rdf:RDF>
 </metadata>
 <defs>
  <style type="text/css">*{stroke-linejoin: round; stroke-linecap: butt}</style>
 </defs>
 <g id="figure_1">
  <g id="patch_1">
   <path d="M 0 360 
L 540 360 
L 540 0 
L 0 0 
z
" style="fill: #f0f0f0"/>
  </g>
  <g id="axes_1">
   <g id="patch_2">
    <path d="M 33.3875 309.210312 
L 448.804687 309.210312 
L 448.804687 27.74175 
L 33.3875 27.74175 
z
" style="fill: #e5e5e5"/>
   </g>
   <g id="matplotlib.axis_1">
    <g id="xtick_1">
     <g id="line2d_1">
      <path d="M 33.3875 309.210312 
L 33.3875 27.74175 
" clip-path="url(#p18ca7fde8f)" style="fill: none; stroke: #ffffff"/>
     </g>
     <g id="line2d_2"/>
     <g id="text_1">
      <!-- Jan -->
      <g style="fill: #555555" transform="translate(25.679688 320.30875)scale(0.1 -0.1)">
       <defs>
        <path id="DejaVuSans-4a" d="M 628 4666 
L 1259 4666 
L 1259 325 
Q 1259 -519 939 -900 
Q 619 -1281 -91 -1281 
L -331 -1281 
L -331 -750 
L -134 -750 
Q 284 -750 456 -515 
Q 628 -281 628 325 
L 628 4666 
z
" transform="scale(0.015625)"/>
        <path id="DejaVuSans-61" d="M 2194 1759 
Q 1497 1759 1228 1600 
Q 959 1441 959 1056 
Q 959 750 1161 570 
Q 1363 391 1709 391 
Q 2188 391 2477 730 
Q 2766 1069 2766 1631 
L 2766 1759 
L 2194 1759 
z
M 3341 1997 
L 3341 0 
L 2766 0 
L 2766 531 
Q 2569 213 2275 61 
Q 1981 -91 1556 -91 
Q 1019 -91 701 211 
Q 384 513 384 1019 
Q 384 1609 779 1909 
Q 1175 2209 1959 2209 
L 2766 2209 
L 2766 2266 
Q 2766 2663 2505 2880 
Q 2244 3097 1772 3097 
Q 1472 3097 1187 3025 
Q 903 2953 641 2809 
L 641 3341 
Q 956 3463 1253 3523 
Q 1550 3584 1831 3584 
Q 2591 3584 2966 3190 
Q 3341 2797 3341 1997 
z
" transform="scale(0.015625)"/>
        <path id="DejaVuSans-6e" d="M 3513 2113 
L 3513 0 
L 2938 0 
L 2938 2094 
Q 2938 2591 2744 2837 
Q 2550 3084 2163 3084 
Q 1697 3084 1428 2787 
Q 1159 2491 1159 1978 
L 1159 0 
L 581 0 
L 581 3500 
L 1159 3500 
L 1159 2956 
Q 1366 3272 1645 3428 
Q 1925 3584 2291 3584 
Q 2894 3584 3203 3211 
Q 3513 2838 3513 2113 
z
" transform="scale(0.015625)"/>
       </defs>
       <use xlink:href="#DejaVuSans-4a"/>
       <use xlink:href="#DejaVuSans-61" x="29.492188"/>
       <use xlink:href="#DejaVuSans-6e" x="90.771484"/>
      </g>
      <!-- 2021 -->
      <g style="fill: #555555" transform="translate(20.6625 331.506562)scale(0.1 -0.1)">
       <defs>
        <path id="DejaVuSans-32" d="M 1228 531 
L 3431 531 
L 3431 0 
L 469 0 
L 469 531 
Q 828 903 1448 1529 
Q 2069 2156 2228 2338 
Q 2531 2678 2651 2914 
Q 2772 3150 2772 3378 
Q 2772 3750 2511 3984 
Q 2250 4219 1831 4219 
Q 1534 4219 1204 4116 
Q 875 4013 500 3803 
L 500 4441 
Q 881 4594 1212 4672 
Q 1544 4750 1819 4750 
Q 2544 4750 2975 4387 
Q 3406 4025 3406 3419 
Q 3406 3131 3298 2873 
Q 3191 2616 2906 2266 
Q 2828 2175 2409 1742 
Q 1991 1309 1228 531 
z
" transform="scale(0.015625)"/>
        <path id="DejaVuSans-30" d="M 2034 4250 
Q 1547 4250 1301 3770 
Q 1056 3291 1056 2328 
Q 1056 1369 1301 889 
Q 1547 409 2034 409 
Q 2525 409 2770 889 
Q 3016 1369 3016 2328 
Q 3016 3291 2770 3770 
Q 2525 4250 2034 4250 
z
M 2034 4750 
Q 2819 4750 3233 4129 
Q 3647 3509 3647 2328 
Q 3647 1150 3233 529 
Q 2819 -91 2034 -91 
Q 1250 -91 836 529 
Q 422 1150 422 2328 
Q 422 3509 836 4129 
Q 1250 4750 2034 4750 
z
" transform="scale(0.015625)"/>
        <path id="DejaVuSans-31" d="M 794 531 
L 1825 531 
L 1825 4091 
L 703 3866 
L 703 4441 
L 1819 4666 
L 2450 4666 
L 2450 531 
L 3481 531 
L 3481 0 
L 794 0 
L 794 531 
z
" transform="scale(0.015625)"/>
       </defs>
       <use xlink:href="#DejaVuSans-32"/>
       <use xlink:href="#DejaVuSans-30" x="63.623047"/>
       <use xlink:href="#DejaVuSans-32" x="127.246094"/>
       <use xlink:href="#DejaVuSans-31" x="190.869141"/>
      </g>
     </g>
    </g>
    <g id="xtick_2">
     <g id="line2d_3">
      <path d="M 270.76875 309.210312 
L 270.76875 27.74175 
" clip-path="url(#p18ca7fde8f)" style="fill: none; stroke: #ffffff"/>
     </g>
     <g id="line2d_4"/>
     <g id="text_2">
      <!-- Jan -->
      <g style="fill: #555555" transform="translate(263.060938 320.30875)scale(0.1 -0.1)">
       <use xlink:href="#DejaVuSans-4a"/>
       <use xlink:href="#DejaVuSans-61" x="29.492188"/>
       <use xlink:href="#DejaVuSans-6e" x="90.771484"/>
      </g>
      <!-- 2022 -->
      <g style="fill: #555555" transform="translate(258.04375 331.506562)scale(0.1 -0.1)">
       <use xlink:href="#DejaVuSans-32"/>
       <use xlink:href="#DejaVuSans-30" x="63.623047"/>
       <use xlink:href="#DejaVuSans-32" x="127.246094"/>
       <use xlink:href="#DejaVuSans-32" x="190.869141"/>
      </g>
     </g>
    </g>
    <g id="xtick_3">
     <g id="line2d_5"/>
    </g>
    <g id="xtick_4">
     <g id="line2d_6"/>
    </g>
    <g id="xtick_5">
     <g id="line2d_7"/>
     <g id="text_3">
      <!-- Apr -->
      <g style="fill: #555555" transform="translate(84.082813 320.20875)scale(0.1 -0.1)">
       <defs>
        <path id="DejaVuSans-41" d="M 2188 4044 
L 1331 1722 
L 3047 1722 
L 2188 4044 
z
M 1831 4666 
L 2547 4666 
L 4325 0 
L 3669 0 
L 3244 1197 
L 1141 1197 
L 716 0 
L 50 0 
L 1831 4666 
z
" transform="scale(0.015625)"/>
        <path id="DejaVuSans-70" d="M 1159 525 
L 1159 -1331 
L 581 -1331 
L 581 3500 
L 1159 3500 
L 1159 2969 
Q 1341 3281 1617 3432 
Q 1894 3584 2278 3584 
Q 2916 3584 3314 3078 
Q 3713 2572 3713 1747 
Q 3713 922 3314 415 
Q 2916 -91 2278 -91 
Q 1894 -91 1617 61 
Q 1341 213 1159 525 
z
M 3116 1747 
Q 3116 2381 2855 2742 
Q 2594 3103 2138 3103 
Q 1681 3103 1420 2742 
Q 1159 2381 1159 1747 
Q 1159 1113 1420 752 
Q 1681 391 2138 391 
Q 2594 391 2855 752 
Q 3116 1113 3116 1747 
z
" transform="scale(0.015625)"/>
        <path id="DejaVuSans-72" d="M 2631 2963 
Q 2534 3019 2420 3045 
Q 2306 3072 2169 3072 
Q 1681 3072 1420 2755 
Q 1159 2438 1159 1844 
L 1159 0 
L 581 0 
L 581 3500 
L 1159 3500 
L 1159 2956 
Q 1341 3275 1631 3429 
Q 1922 3584 2338 3584 
Q 2397 3584 2469 3576 
Q 2541 3569 2628 3553 
L 2631 2963 
z
" transform="scale(0.015625)"/>
       </defs>
       <use xlink:href="#DejaVuSans-41"/>
       <use xlink:href="#DejaVuSans-70" x="68.408203"/>
       <use xlink:href="#DejaVuSans-72" x="131.884766"/>
      </g>
     </g>
    </g>
    <g id="xtick_6">
     <g id="line2d_8"/>
    </g>
    <g id="xtick_7">
     <g id="line2d_9"/>
    </g>
    <g id="xtick_8">
     <g id="line2d_10"/>
     <g id="text_4">
      <!-- Jul -->
      <g style="fill: #555555" transform="translate(146.045313 320.20875)scale(0.1 -0.1)">
       <defs>
        <path id="DejaVuSans-75" d="M 544 1381 
L 544 3500 
L 1119 3500 
L 1119 1403 
Q 1119 906 1312 657 
Q 1506 409 1894 409 
Q 2359 409 2629 706 
Q 2900 1003 2900 1516 
L 2900 3500 
L 3475 3500 
L 3475 0 
L 2900 0 
L 2900 538 
Q 2691 219 2414 64 
Q 2138 -91 1772 -91 
Q 1169 -91 856 284 
Q 544 659 544 1381 
z
M 1991 3584 
L 1991 3584 
z
" transform="scale(0.015625)"/>
        <path id="DejaVuSans-6c" d="M 603 4863 
L 1178 4863 
L 1178 0 
L 603 0 
L 603 4863 
z
" transform="scale(0.015625)"/>
       </defs>
       <use xlink:href="#DejaVuSans-4a"/>
       <use xlink:href="#DejaVuSans-75" x="29.492188"/>
       <use xlink:href="#DejaVuSans-6c" x="92.871094"/>
      </g>
     </g>
    </g>
    <g id="xtick_9">
     <g id="line2d_11"/>
    </g>
    <g id="xtick_10">
     <g id="line2d_12"/>
    </g>
    <g id="xtick_11">
     <g id="line2d_13"/>
     <g id="text_5">
      <!-- Oct -->
      <g style="fill: #555555" transform="translate(202.778125 320.20875)scale(0.1 -0.1)">
       <defs>
        <path id="DejaVuSans-4f" d="M 2522 4238 
Q 1834 4238 1429 3725 
Q 1025 3213 1025 2328 
Q 1025 1447 1429 934 
Q 1834 422 2522 422 
Q 3209 422 3611 934 
Q 4013 1447 4013 2328 
Q 4013 3213 3611 3725 
Q 3209 4238 2522 4238 
z
M 2522 4750 
Q 3503 4750 4090 4092 
Q 4678 3434 4678 2328 
Q 4678 1225 4090 567 
Q 3503 -91 2522 -91 
Q 1538 -91 948 565 
Q 359 1222 359 2328 
Q 359 3434 948 4092 
Q 1538 4750 2522 4750 
z
" transform="scale(0.015625)"/>
        <path id="DejaVuSans-63" d="M 3122 3366 
L 3122 2828 
Q 2878 2963 2633 3030 
Q 2388 3097 2138 3097 
Q 1578 3097 1268 2742 
Q 959 2388 959 1747 
Q 959 1106 1268 751 
Q 1578 397 2138 397 
Q 2388 397 2633 464 
Q 2878 531 3122 666 
L 3122 134 
Q 2881 22 2623 -34 
Q 2366 -91 2075 -91 
Q 1284 -91 818 406 
Q 353 903 353 1747 
Q 353 2603 823 3093 
Q 1294 3584 2113 3584 
Q 2378 3584 2631 3529 
Q 2884 3475 3122 3366 
z
" transform="scale(0.015625)"/>
        <path id="DejaVuSans-74" d="M 1172 4494 
L 1172 3500 
L 2356 3500 
L 2356 3053 
L 1172 3053 
L 1172 1153 
Q 1172 725 1289 603 
Q 1406 481 1766 481 
L 2356 481 
L 2356 0 
L 1766 0 
Q 1100 0 847 248 
Q 594 497 594 1153 
L 594 3053 
L 172 3053 
L 172 3500 
L 594 3500 
L 594 4494 
L 1172 4494 
z
" transform="scale(0.015625)"/>
       </defs>
       <use xlink:href="#DejaVuSans-4f"/>
       <use xlink:href="#DejaVuSans-63" x="78.710938"/>
       <use xlink:href="#DejaVuSans-74" x="133.691406"/>
      </g>
     </g>
    </g>
    <g id="xtick_12">
     <g id="line2d_14"/>
    </g>
    <g id="xtick_13">
     <g id="line2d_15"/>
    </g>
    <g id="xtick_14">
     <g id="line2d_16"/>
    </g>
    <g id="xtick_15">
     <g id="line2d_17"/>
    </g>
    <g id="xtick_16">
     <g id="line2d_18"/>
     <g id="text_6">
      <!-- Apr -->
      <g style="fill: #555555" transform="translate(321.464063 320.20875)scale(0.1 -0.1)">
       <use xlink:href="#DejaVuSans-41"/>
       <use xlink:href="#DejaVuSans-70" x="68.408203"/>
       <use xlink:href="#DejaVuSans-72" x="131.884766"/>
      </g>
     </g>
    </g>
    <g id="xtick_17">
     <g id="line2d_19"/>
    </g>
    <g id="xtick_18">
     <g id="line2d_20"/>
    </g>
    <g id="xtick_19">
     <g id="line2d_21"/>
     <g id="text_7">
      <!-- Jul -->
      <g style="fill: #555555" transform="translate(383.426563 320.20875)scale(0.1 -0.1)">
       <use xlink:href="#DejaVuSans-4a"/>
       <use xlink:href="#DejaVuSans-75" x="29.492188"/>
       <use xlink:href="#DejaVuSans-6c" x="92.871094"/>
      </g>
     </g>
    </g>
    <g id="xtick_20">
     <g id="line2d_22"/>
    </g>
    <g id="xtick_21">
     <g id="line2d_23"/>
    </g>
    <g id="xtick_22">
     <g id="line2d_24"/>
     <g id="text_8">
      <!-- Oct -->
      <g style="fill: #555555" transform="translate(440.159375 320.20875)scale(0.1 -0.1)">
       <use xlink:href="#DejaVuSans-4f"/>
       <use xlink:href="#DejaVuSans-63" x="78.710938"/>
       <use xlink:href="#DejaVuSans-74" x="133.691406"/>
      </g>
     </g>
    </g>
    <g id="text_9">
     <!-- Date -->
     <g style="fill: #555555" transform="translate(226.755156 346.704375)scale(0.12 -0.12)">
      <defs>
       <path id="DejaVuSans-44" d="M 1259 4147 
L 1259 519 
L 2022 519 
Q 2988 519 3436 956 
Q 3884 1394 3884 2338 
Q 3884 3275 3436 3711 
Q 2988 4147 2022 4147 
L 1259 4147 
z
M 628 4666 
L 1925 4666 
Q 3281 4666 3915 4102 
Q 4550 3538 4550 2338 
Q 4550 1131 3912 565 
Q 3275 0 1925 0 
L 628 0 
L 628 4666 
z
" transform="scale(0.015625)"/>
       <path id="DejaVuSans-65" d="M 3597 1894 
L 3597 1613 
L 953 1613 
Q 991 1019 1311 708 
Q 1631 397 2203 397 
Q 2534 397 2845 478 
Q 3156 559 3463 722 
L 3463 178 
Q 3153 47 2828 -22 
Q 2503 -91 2169 -91 
Q 1331 -91 842 396 
Q 353 884 353 1716 
Q 353 2575 817 3079 
Q 1281 3584 2069 3584 
Q 2775 3584 3186 3129 
Q 3597 2675 3597 1894 
z
M 3022 2063 
Q 3016 2534 2758 2815 
Q 2500 3097 2075 3097 
Q 1594 3097 1305 2825 
Q 1016 2553 972 2059 
L 3022 2063 
z
" transform="scale(0.015625)"/>
      </defs>
      <use xlink:href="#DejaVuSans-44"/>
      <use xlink:href="#DejaVuSans-61" x="77.001953"/>
      <use xlink:href="#DejaVuSans-74" x="138.28125"/>
      <use xlink:href="#DejaVuSans-65" x="177.490234"/>
     </g>
    </g>
   </g>
   <g id="matplotlib.axis_2">
    <g id="ytick_1">
     <g id="line2d_25">
      <path d="M 33.3875 309.210312 
L 448.804687 309.210312 
" clip-path="url(#p18ca7fde8f)" style="fill: none; stroke: #ffffff"/>
     </g>
     <g id="line2d_26"/>
     <g id="text_10">
      <!-- 0 -->
      <g style="fill: #555555" transform="translate(23.525 313.009531)scale(0.1 -0.1)">
       <use xlink:href="#DejaVuSans-30"/>
      </g>
     </g>
    </g>
    <g id="ytick_2">
     <g id="line2d_27">
      <path d="M 33.3875 272.286718 
L 448.804687 272.286718 
" clip-path="url(#p18ca7fde8f)" style="fill: none; stroke: #ffffff"/>
     </g>
     <g id="line2d_28"/>
     <g id="text_11">
      <!-- 25 -->
      <g style="fill: #555555" transform="translate(17.1625 276.085937)scale(0.1 -0.1)">
       <defs>
        <path id="DejaVuSans-35" d="M 691 4666 
L 3169 4666 
L 3169 4134 
L 1269 4134 
L 1269 2991 
Q 1406 3038 1543 3061 
Q 1681 3084 1819 3084 
Q 2600 3084 3056 2656 
Q 3513 2228 3513 1497 
Q 3513 744 3044 326 
Q 2575 -91 1722 -91 
Q 1428 -91 1123 -41 
Q 819 9 494 109 
L 494 744 
Q 775 591 1075 516 
Q 1375 441 1709 441 
Q 2250 441 2565 725 
Q 2881 1009 2881 1497 
Q 2881 1984 2565 2268 
Q 2250 2553 1709 2553 
Q 1456 2553 1204 2497 
Q 953 2441 691 2322 
L 691 4666 
z
" transform="scale(0.015625)"/>
       </defs>
       <use xlink:href="#DejaVuSans-32"/>
       <use xlink:href="#DejaVuSans-35" x="63.623047"/>
      </g>
     </g>
    </g>
    <g id="ytick_3">
     <g id="line2d_29">
      <path d="M 33.3875 235.363123 
L 448.804687 235.363123 
" clip-path="url(#p18ca7fde8f)" style="fill: none; stroke: #ffffff"/>
     </g>
     <g id="line2d_30"/>
     <g id="text_12">
      <!-- 50 -->
      <g style="fill: #555555" transform="translate(17.1625 239.162342)scale(0.1 -0.1)">
       <use xlink:href="#DejaVuSans-35"/>
       <use xlink:href="#DejaVuSans-30" x="63.623047"/>
      </g>
     </g>
    </g>
    <g id="ytick_4">
     <g id="line2d_31">
      <path d="M 33.3875 198.439528 
L 448.804687 198.439528 
" clip-path="url(#p18ca7fde8f)" style="fill: none; stroke: #ffffff"/>
     </g>
     <g id="line2d_32"/>
     <g id="text_13">
      <!-- 75 -->
      <g style="fill: #555555" transform="translate(17.1625 202.238747)scale(0.1 -0.1)">
       <defs>
        <path id="DejaVuSans-37" d="M 525 4666 
L 3525 4666 
L 3525 4397 
L 1831 0 
L 1172 0 
L 2766 4134 
L 525 4134 
L 525 4666 
z
" transform="scale(0.015625)"/>
       </defs>
       <use xlink:href="#DejaVuSans-37"/>
       <use xlink:href="#DejaVuSans-35" x="63.623047"/>
      </g>
     </g>
    </g>
    <g id="ytick_5">
     <g id="line2d_33">
      <path d="M 33.3875 161.515934 
L 448.804687 161.515934 
" clip-path="url(#p18ca7fde8f)" style="fill: none; stroke: #ffffff"/>
     </g>
     <g id="line2d_34"/>
     <g id="text_14">
      <!-- 100 -->
      <g style="fill: #555555" transform="translate(10.8 165.315152)scale(0.1 -0.1)">
       <use xlink:href="#DejaVuSans-31"/>
       <use xlink:href="#DejaVuSans-30" x="63.623047"/>
       <use xlink:href="#DejaVuSans-30" x="127.246094"/>
      </g>
     </g>
    </g>
    <g id="ytick_6">
     <g id="line2d_35">
      <path d="M 33.3875 124.592339 
L 448.804687 124.592339 
" clip-path="url(#p18ca7fde8f)" style="fill: none; stroke: #ffffff"/>
     </g>
     <g id="line2d_36"/>
     <g id="text_15">
      <!-- 125 -->
      <g style="fill: #555555" transform="translate(10.8 128.391558)scale(0.1 -0.1)">
       <use xlink:href="#DejaVuSans-31"/>
       <use xlink:href="#DejaVuSans-32" x="63.623047"/>
       <use xlink:href="#DejaVuSans-35" x="127.246094"/>
      </g>
     </g>
    </g>
    <g id="ytick_7">
     <g id="line2d_37">
      <path d="M 33.3875 87.668744 
L 448.804687 87.668744 
" clip-path="url(#p18ca7fde8f)" style="fill: none; stroke: #ffffff"/>
     </g>
     <g id="line2d_38"/>
     <g id="text_16">
      <!-- 150 -->
      <g style="fill: #555555" transform="translate(10.8 91.467963)scale(0.1 -0.1)">
       <use xlink:href="#DejaVuSans-31"/>
       <use xlink:href="#DejaVuSans-35" x="63.623047"/>
       <use xlink:href="#DejaVuSans-30" x="127.246094"/>
      </g>
     </g>
    </g>
    <g id="ytick_8">
     <g id="line2d_39">
      <path d="M 33.3875 50.74515 
L 448.804687 50.74515 
" clip-path="url(#p18ca7fde8f)" style="fill: none; stroke: #ffffff"/>
     </g>
     <g id="line2d_40"/>
     <g id="text_17">
      <!-- 175 -->
      <g style="fill: #555555" transform="translate(10.8 54.544368)scale(0.1 -0.1)">
       <use xlink:href="#DejaVuSans-31"/>
       <use xlink:href="#DejaVuSans-37" x="63.623047"/>
       <use xlink:href="#DejaVuSans-35" x="127.246094"/>
      </g>
     </g>
    </g>
   </g>
   <g id="PolyCollection_1">
    <defs>
     <path id="me818458014" d="M 33.3875 -56.697463 
L 33.3875 -50.789688 
L 53.169271 -50.789688 
L 72.951042 -50.789688 
L 92.732813 -50.789688 
L 112.514583 -50.789688 
L 132.296354 -50.789688 
L 152.078125 -50.789688 
L 171.859896 -50.789688 
L 191.641667 -50.789688 
L 211.423438 -50.789688 
L 231.205208 -50.789688 
L 250.986979 -50.789688 
L 270.76875 -50.789688 
L 290.550521 -50.789688 
L 310.332292 -50.789688 
L 330.114063 -50.789688 
L 349.895833 -50.789688 
L 369.677604 -50.789688 
L 389.459375 -50.789688 
L 409.241146 -50.789688 
L 429.022917 -50.789688 
L 448.804688 -50.789688 
L 448.804688 -60.389822 
L 448.804688 -60.389822 
L 429.022917 -56.697463 
L 409.241146 -58.174406 
L 389.459375 -50.789688 
L 369.677604 -62.605238 
L 349.895833 -55.220519 
L 330.114063 -52.266631 
L 310.332292 -75.15926 
L 290.550521 -71.466901 
L 270.76875 -59.65135 
L 250.986979 -68.513013 
L 231.205208 -59.65135 
L 211.423438 -51.528159 
L 191.641667 -59.65135 
L 171.859896 -60.389822 
L 152.078125 -59.65135 
L 132.296354 -70.728429 
L 112.514583 -55.220519 
L 92.732813 -52.266631 
L 72.951042 -64.082182 
L 53.169271 -56.697463 
L 33.3875 -56.697463 
z
"/>
    </defs>
    <g clip-path="url(#p18ca7fde8f)">
     <use xlink:href="#me818458014" x="0" y="360" style="fill: #e24a33"/>
    </g>
   </g>
   <g id="PolyCollection_2">
    <defs>
     <path id="m46e189c79e" d="M 33.3875 -66.297597 
L 33.3875 -56.697463 
L 53.169271 -56.697463 
L 72.951042 -64.082182 
L 92.732813 -52.266631 
L 112.514583 -55.220519 
L 132.296354 -70.728429 
L 152.078125 -59.65135 
L 171.859896 -60.389822 
L 191.641667 -59.65135 
L 211.423438 -51.528159 
L 231.205208 -59.65135 
L 250.986979 -68.513013 
L 270.76875 -59.65135 
L 290.550521 -71.466901 
L 310.332292 -75.15926 
L 330.114063 -52.266631 
L 349.895833 -55.220519 
L 369.677604 -62.605238 
L 389.459375 -50.789688 
L 409.241146 -58.174406 
L 429.022917 -56.697463 
L 448.804688 -60.389822 
L 448.804688 -71.466901 
L 448.804688 -71.466901 
L 429.022917 -64.082182 
L 409.241146 -81.067035 
L 389.459375 -51.528159 
L 369.677604 -72.205372 
L 349.895833 -61.866766 
L 330.114063 -53.743575 
L 310.332292 -101.005776 
L 290.550521 -88.451754 
L 270.76875 -64.082182 
L 250.986979 -93.621057 
L 231.205208 -63.34371 
L 211.423438 -57.435935 
L 191.641667 -66.297597 
L 171.859896 -74.420788 
L 152.078125 -64.082182 
L 132.296354 -94.359529 
L 112.514583 -70.728429 
L 92.732813 -54.482047 
L 72.951042 -78.113148 
L 53.169271 -61.128294 
L 33.3875 -66.297597 
z
"/>
    </defs>
    <g clip-path="url(#p18ca7fde8f)">
     <use xlink:href="#m46e189c79e" x="0" y="360" style="fill: #348abd"/>
    </g>
   </g>
   <g id="PolyCollection_3">
    <defs>
     <path id="me24be5b7c9" d="M 33.3875 -94.359529 
L 33.3875 -66.297597 
L 53.169271 -61.128294 
L 72.951042 -78.113148 
L 92.732813 -54.482047 
L 112.514583 -70.728429 
L 132.296354 -94.359529 
L 152.078125 -64.082182 
L 171.859896 -74.420788 
L 191.641667 -66.297597 
L 211.423438 -57.435935 
L 231.205208 -63.34371 
L 250.986979 -93.621057 
L 270.76875 -64.082182 
L 290.550521 -88.451754 
L 310.332292 -101.005776 
L 330.114063 -53.743575 
L 349.895833 -61.866766 
L 369.677604 -72.205372 
L 389.459375 -51.528159 
L 409.241146 -81.067035 
L 429.022917 -64.082182 
L 448.804688 -71.466901 
L 448.804688 -125.375349 
L 448.804688 -125.375349 
L 429.022917 -101.744248 
L 409.241146 -103.221192 
L 389.459375 -101.744248 
L 369.677604 -106.17508 
L 349.895833 -120.206046 
L 330.114063 -154.175753 
L 310.332292 -132.021596 
L 290.550521 -141.62173 
L 270.76875 -116.513686 
L 250.986979 -205.868785 
L 231.205208 -121.682989 
L 211.423438 -123.159933 
L 191.641667 -101.744248 
L 171.859896 -89.190226 
L 152.078125 -127.590765 
L 132.296354 -106.17508 
L 112.514583 -89.928698 
L 92.732813 -119.467574 
L 72.951042 -101.744248 
L 53.169271 -72.943844 
L 33.3875 -94.359529 
z
"/>
    </defs>
    <g clip-path="url(#p18ca7fde8f)">
     <use xlink:href="#me24be5b7c9" x="0" y="360" style="fill: #988ed5"/>
    </g>
   </g>
   <g id="PolyCollection_4">
    <defs>
     <path id="mcbd116b5c4" d="M 33.3875 -106.17508 
L 33.3875 -94.359529 
L 53.169271 -72.943844 
L 72.951042 -101.744248 
L 92.732813 -119.467574 
L 112.514583 -89.928698 
L 132.296354 -106.17508 
L 152.078125 -127.590765 
L 171.859896 -89.190226 
L 191.641667 -101.744248 
L 211.423438 -123.159933 
L 231.205208 -121.682989 
L 250.986979 -205.868785 
L 270.76875 -116.513686 
L 290.550521 -141.62173 
L 310.332292 -132.021596 
L 330.114063 -154.175753 
L 349.895833 -120.206046 
L 369.677604 -106.17508 
L 389.459375 -101.744248 
L 409.241146 -103.221192 
L 429.022917 -101.744248 
L 448.804688 -125.375349 
L 448.804688 -135.713955 
L 448.804688 -135.713955 
L 429.022917 -124.636877 
L 409.241146 -129.80618 
L 389.459375 -125.375349 
L 369.677604 -126.113821 
L 349.895833 -139.406315 
L 330.114063 -165.991303 
L 310.332292 -146.052562 
L 290.550521 -160.083528 
L 270.76875 -128.329236 
L 250.986979 -213.991976 
L 231.205208 -147.529506 
L 211.423438 -146.052562 
L 191.641667 -151.960337 
L 171.859896 -115.036742 
L 152.078125 -154.175753 
L 132.296354 -115.775214 
L 112.514583 -124.636877 
L 92.732813 -168.206719 
L 72.951042 -120.206046 
L 53.169271 -84.020923 
L 33.3875 -106.17508 
z
"/>
    </defs>
    <g clip-path="url(#p18ca7fde8f)">
     <use xlink:href="#mcbd116b5c4" x="0" y="360" style="fill: #777777"/>
    </g>
   </g>
   <g id="PolyCollection_5">
    <defs>
     <path id="m8b6dcc6022" d="M 33.3875 -137.190899 
L 33.3875 -106.17508 
L 53.169271 -84.020923 
L 72.951042 -120.206046 
L 92.732813 -168.206719 
L 112.514583 -124.636877 
L 132.296354 -115.775214 
L 152.078125 -154.175753 
L 171.859896 -115.036742 
L 191.641667 -151.960337 
L 211.423438 -146.052562 
L 231.205208 -147.529506 
L 250.986979 -213.991976 
L 270.76875 -128.329236 
L 290.550521 -160.083528 
L 310.332292 -146.052562 
L 330.114063 -165.991303 
L 349.895833 -139.406315 
L 369.677604 -126.113821 
L 389.459375 -125.375349 
L 409.241146 -129.80618 
L 429.022917 -124.636877 
L 448.804688 -135.713955 
L 448.804688 -138.667843 
L 448.804688 -138.667843 
L 429.022917 -139.406315 
L 409.241146 -136.452427 
L 389.459375 -132.021596 
L 369.677604 -153.437281 
L 349.895833 -179.283797 
L 330.114063 -197.007123 
L 310.332292 -174.114494 
L 290.550521 -178.545325 
L 270.76875 -231.715302 
L 250.986979 -288.577637 
L 231.205208 -230.97683 
L 211.423438 -217.684336 
L 191.641667 -188.883932 
L 171.859896 -183.714628 
L 152.078125 -178.545325 
L 132.296354 -151.221865 
L 112.514583 -180.022269 
L 92.732813 -218.422807 
L 72.951042 -199.222538 
L 53.169271 -139.406315 
L 33.3875 -137.190899 
z
"/>
    </defs>
    <g clip-path="url(#p18ca7fde8f)">
     <use xlink:href="#m8b6dcc6022" x="0" y="360" style="fill: #fbc15e"/>
    </g>
   </g>
   <g id="PolyCollection_6">
    <defs>
     <path id="m76d252be1c" d="M 33.3875 -137.190899 
L 33.3875 -137.190899 
L 53.169271 -139.406315 
L 72.951042 -199.222538 
L 92.732813 -218.422807 
L 112.514583 -180.022269 
L 132.296354 -151.221865 
L 152.078125 -178.545325 
L 171.859896 -183.714628 
L 191.641667 -188.883932 
L 211.423438 -217.684336 
L 231.205208 -230.97683 
L 250.986979 -288.577637 
L 270.76875 -231.715302 
L 290.550521 -178.545325 
L 310.332292 -174.114494 
L 330.114063 -197.007123 
L 349.895833 -179.283797 
L 369.677604 -153.437281 
L 389.459375 -132.021596 
L 409.241146 -136.452427 
L 429.022917 -139.406315 
L 448.804688 -138.667843 
L 448.804688 -145.31409 
L 448.804688 -145.31409 
L 429.022917 -139.406315 
L 409.241146 -152.698809 
L 389.459375 -132.021596 
L 369.677604 -153.437281 
L 349.895833 -180.022269 
L 330.114063 -198.484066 
L 310.332292 -185.191572 
L 290.550521 -188.14546 
L 270.76875 -242.79238 
L 250.986979 -288.577637 
L 231.205208 -235.407661 
L 211.423438 -217.684336 
L 191.641667 -191.837819 
L 171.859896 -185.930044 
L 152.078125 -191.099347 
L 132.296354 -183.714628 
L 112.514583 -191.099347 
L 92.732813 -225.069055 
L 72.951042 -209.561145 
L 53.169271 -139.406315 
L 33.3875 -137.190899 
z
"/>
    </defs>
    <g clip-path="url(#p18ca7fde8f)">
     <use xlink:href="#m76d252be1c" x="0" y="360" style="fill: #8eba42"/>
    </g>
   </g>
   <g id="PolyCollection_7">
    <defs>
     <path id="mc79e36068d" d="M 33.3875 -223.592111 
L 33.3875 -137.190899 
L 53.169271 -139.406315 
L 72.951042 -209.561145 
L 92.732813 -225.069055 
L 112.514583 -191.099347 
L 132.296354 -183.714628 
L 152.078125 -191.099347 
L 171.859896 -185.930044 
L 191.641667 -191.837819 
L 211.423438 -217.684336 
L 231.205208 -235.407661 
L 250.986979 -288.577637 
L 270.76875 -242.79238 
L 290.550521 -188.14546 
L 310.332292 -185.191572 
L 330.114063 -198.484066 
L 349.895833 -180.022269 
L 369.677604 -153.437281 
L 389.459375 -132.021596 
L 409.241146 -152.698809 
L 429.022917 -139.406315 
L 448.804688 -145.31409 
L 448.804688 -178.545325 
L 448.804688 -178.545325 
L 429.022917 -217.684336 
L 409.241146 -209.561145 
L 389.459375 -214.730448 
L 369.677604 -255.715638 
L 349.895833 -230.238358 
L 330.114063 -267.161953 
L 310.332292 -253.869458 
L 290.550521 -233.930717 
L 270.76875 -266.423481 
L 250.986979 -298.177772 
L 231.205208 -273.069728 
L 211.423438 -253.130987 
L 191.641667 -249.069391 
L 171.859896 -272.331256 
L 152.078125 -239.100021 
L 132.296354 -214.730448 
L 112.514583 -219.899751 
L 92.732813 -250.915571 
L 72.951042 -228.022942 
L 53.169271 -167.468247 
L 33.3875 -223.592111 
z
"/>
    </defs>
    <g clip-path="url(#p18ca7fde8f)">
     <use xlink:href="#mc79e36068d" x="0" y="360" style="fill: #ffb5b8"/>
    </g>
   </g>
   <g id="PolyCollection_8">
    <defs>
     <path id="m7450dbfe56" d="M 33.3875 -256.084874 
L 33.3875 -223.592111 
L 53.169271 -167.468247 
L 72.951042 -228.022942 
L 92.732813 -250.915571 
L 112.514583 -219.899751 
L 132.296354 -214.730448 
L 152.078125 -239.100021 
L 171.859896 -272.331256 
L 191.641667 -249.069391 
L 211.423438 -253.130987 
L 231.205208 -273.069728 
L 250.986979 -298.177772 
L 270.76875 -266.423481 
L 290.550521 -233.930717 
L 310.332292 -253.869458 
L 330.114063 -267.161953 
L 349.895833 -230.238358 
L 369.677604 -255.715638 
L 389.459375 -214.730448 
L 409.241146 -209.561145 
L 429.022917 -217.684336 
L 448.804688 -178.545325 
L 448.804688 -185.930044 
L 448.804688 -185.930044 
L 429.022917 -223.592111 
L 409.241146 -212.515032 
L 389.459375 -216.207392 
L 369.677604 -273.069728 
L 349.895833 -236.146133 
L 330.114063 -270.854312 
L 310.332292 -300.393188 
L 290.550521 -267.900424 
L 270.76875 -270.854312 
L 250.986979 -304.085547 
L 231.205208 -284.146806 
L 211.423438 -270.854312 
L 191.641667 -288.208402 
L 171.859896 -293.008469 
L 152.078125 -298.916244 
L 132.296354 -318.854985 
L 112.514583 -266.423481 
L 92.732813 -285.62375 
L 72.951042 -267.900424 
L 53.169271 -208.822673 
L 33.3875 -256.084874 
z
"/>
    </defs>
    <g clip-path="url(#p18ca7fde8f)">
     <use xlink:href="#m7450dbfe56" x="0" y="360" style="fill: #e24a33"/>
    </g>
   </g>
   <g id="line2d_41">
    <path d="M 33.3875 303.302537 
L 53.169271 303.302537 
L 72.951042 295.917818 
L 92.732813 307.733369 
L 112.514583 304.779481 
L 132.296354 289.271571 
L 152.078125 300.34865 
L 171.859896 299.610178 
L 191.641667 300.34865 
L 211.423438 308.471841 
L 231.205208 300.34865 
L 250.986979 291.486987 
L 270.76875 300.34865 
L 290.550521 288.533099 
L 310.332292 284.84074 
L 330.114063 307.733369 
L 349.895833 304.779481 
L 369.677604 297.394762 
L 389.459375 309.210312 
L 409.241146 301.825594 
L 429.022917 303.302537 
L 448.804688 299.610178 
" clip-path="url(#p18ca7fde8f)" style="fill: none"/>
   </g>
   <g id="line2d_42">
    <path d="M 33.3875 293.702403 
L 53.169271 298.871706 
L 72.951042 281.886852 
L 92.732813 305.517953 
L 112.514583 289.271571 
L 132.296354 265.640471 
L 152.078125 295.917818 
L 171.859896 285.579212 
L 191.641667 293.702403 
L 211.423438 302.564065 
L 231.205208 296.65629 
L 250.986979 266.378943 
L 270.76875 295.917818 
L 290.550521 271.548246 
L 310.332292 258.994224 
L 330.114063 306.256425 
L 349.895833 298.133234 
L 369.677604 287.794628 
L 389.459375 308.471841 
L 409.241146 278.932965 
L 429.022917 295.917818 
L 448.804688 288.533099 
" clip-path="url(#p18ca7fde8f)" style="fill: none"/>
   </g>
   <g id="line2d_43">
    <path d="M 33.3875 265.640471 
L 53.169271 287.056156 
L 72.951042 258.255752 
L 92.732813 240.532426 
L 112.514583 270.071302 
L 132.296354 253.82492 
L 152.078125 232.409235 
L 171.859896 270.809774 
L 191.641667 258.255752 
L 211.423438 236.840067 
L 231.205208 238.317011 
L 250.986979 154.131215 
L 270.76875 243.486314 
L 290.550521 218.37827 
L 310.332292 227.978404 
L 330.114063 205.824247 
L 349.895833 239.793954 
L 369.677604 253.82492 
L 389.459375 258.255752 
L 409.241146 256.778808 
L 429.022917 258.255752 
L 448.804688 234.624651 
" clip-path="url(#p18ca7fde8f)" style="fill: none"/>
   </g>
   <g id="line2d_44">
    <path d="M 33.3875 253.82492 
L 53.169271 275.979077 
L 72.951042 239.793954 
L 92.732813 191.793281 
L 112.514583 235.363123 
L 132.296354 244.224786 
L 152.078125 205.824247 
L 171.859896 244.963258 
L 191.641667 208.039663 
L 211.423438 213.947438 
L 231.205208 212.470494 
L 250.986979 146.008024 
L 270.76875 231.670764 
L 290.550521 199.916472 
L 310.332292 213.947438 
L 330.114063 194.008697 
L 349.895833 220.593685 
L 369.677604 233.886179 
L 389.459375 234.624651 
L 409.241146 230.19382 
L 429.022917 235.363123 
L 448.804688 224.286045 
" clip-path="url(#p18ca7fde8f)" style="fill: none"/>
   </g>
   <g id="line2d_45">
    <path d="M 33.3875 222.809101 
L 53.169271 220.593685 
L 72.951042 160.777462 
L 92.732813 141.577193 
L 112.514583 179.977731 
L 132.296354 208.778135 
L 152.078125 181.454675 
L 171.859896 176.285372 
L 191.641667 171.116068 
L 211.423438 142.315664 
L 231.205208 129.02317 
L 250.986979 71.422363 
L 270.76875 128.284698 
L 290.550521 181.454675 
L 310.332292 185.885506 
L 330.114063 162.992877 
L 349.895833 180.716203 
L 369.677604 206.562719 
L 389.459375 227.978404 
L 409.241146 223.547573 
L 429.022917 220.593685 
L 448.804688 221.332157 
" clip-path="url(#p18ca7fde8f)" style="fill: none"/>
   </g>
   <g id="line2d_46">
    <path d="M 33.3875 222.809101 
L 53.169271 220.593685 
L 72.951042 150.438855 
L 92.732813 134.930945 
L 112.514583 168.900653 
L 132.296354 176.285372 
L 152.078125 168.900653 
L 171.859896 174.069956 
L 191.641667 168.162181 
L 211.423438 142.315664 
L 231.205208 124.592339 
L 250.986979 71.422363 
L 270.76875 117.20762 
L 290.550521 171.85454 
L 310.332292 174.808428 
L 330.114063 161.515934 
L 349.895833 179.977731 
L 369.677604 206.562719 
L 389.459375 227.978404 
L 409.241146 207.301191 
L 429.022917 220.593685 
L 448.804688 214.68591 
" clip-path="url(#p18ca7fde8f)" style="fill: none"/>
   </g>
   <g id="line2d_47">
    <path d="M 33.3875 136.407889 
L 53.169271 192.531753 
L 72.951042 131.977058 
L 92.732813 109.084429 
L 112.514583 140.100249 
L 132.296354 145.269552 
L 152.078125 120.899979 
L 171.859896 87.668744 
L 191.641667 110.930609 
L 211.423438 106.869013 
L 231.205208 86.930272 
L 250.986979 61.822228 
L 270.76875 93.576519 
L 290.550521 126.069283 
L 310.332292 106.130542 
L 330.114063 92.838047 
L 349.895833 129.761642 
L 369.677604 104.284362 
L 389.459375 145.269552 
L 409.241146 150.438855 
L 429.022917 142.315664 
L 448.804688 181.454675 
" clip-path="url(#p18ca7fde8f)" style="fill: none"/>
   </g>
   <g id="line2d_48">
    <path d="M 33.3875 103.915126 
L 53.169271 151.177327 
L 72.951042 92.099576 
L 92.732813 74.37625 
L 112.514583 93.576519 
L 132.296354 41.145015 
L 152.078125 61.083756 
L 171.859896 66.991531 
L 191.641667 71.791598 
L 211.423438 89.145688 
L 231.205208 75.853194 
L 250.986979 55.914453 
L 270.76875 89.145688 
L 290.550521 92.099576 
L 310.332292 59.606812 
L 330.114063 89.145688 
L 349.895833 123.853867 
L 369.677604 86.930272 
L 389.459375 143.792608 
L 409.241146 147.484968 
L 429.022917 136.407889 
L 448.804688 174.069956 
" clip-path="url(#p18ca7fde8f)" style="fill: none"/>
   </g>
   <g id="patch_3">
    <path d="M 33.3875 309.210312 
L 33.3875 27.74175 
" style="fill: none; stroke: #ffffff; stroke-linejoin: miter; stroke-linecap: square"/>
   </g>
   <g id="patch_4">
    <path d="M 448.804687 309.210312 
L 448.804687 27.74175 
" style="fill: none; stroke: #ffffff; stroke-linejoin: miter; stroke-linecap: square"/>
   </g>
   <g id="patch_5">
    <path d="M 33.3875 309.210312 
L 448.804688 309.210312 
" style="fill: none; stroke: #ffffff; stroke-linejoin: miter; stroke-linecap: square"/>
   </g>
   <g id="patch_6">
    <path d="M 33.3875 27.74175 
L 448.804688 27.74175 
" style="fill: none; stroke: #ffffff; stroke-linejoin: miter; stroke-linecap: square"/>
   </g>
   <g id="text_18">
    <!-- EDF Work -->
    <g transform="translate(206.342594 21.74175)scale(0.144 -0.144)">
     <defs>
      <path id="DejaVuSans-45" d="M 628 4666 
L 3578 4666 
L 3578 4134 
L 1259 4134 
L 1259 2753 
L 3481 2753 
L 3481 2222 
L 1259 2222 
L 1259 531 
L 3634 531 
L 3634 0 
L 628 0 
L 628 4666 
z
" transform="scale(0.015625)"/>
      <path id="DejaVuSans-46" d="M 628 4666 
L 3309 4666 
L 3309 4134 
L 1259 4134 
L 1259 2759 
L 3109 2759 
L 3109 2228 
L 1259 2228 
L 1259 0 
L 628 0 
L 628 4666 
z
" transform="scale(0.015625)"/>
      <path id="DejaVuSans-20" transform="scale(0.015625)"/>
      <path id="DejaVuSans-57" d="M 213 4666 
L 850 4666 
L 1831 722 
L 2809 4666 
L 3519 4666 
L 4500 722 
L 5478 4666 
L 6119 4666 
L 4947 0 
L 4153 0 
L 3169 4050 
L 2175 0 
L 1381 0 
L 213 4666 
z
" transform="scale(0.015625)"/>
      <path id="DejaVuSans-6f" d="M 1959 3097 
Q 1497 3097 1228 2736 
Q 959 2375 959 1747 
Q 959 1119 1226 758 
Q 1494 397 1959 397 
Q 2419 397 2687 759 
Q 2956 1122 2956 1747 
Q 2956 2369 2687 2733 
Q 2419 3097 1959 3097 
z
M 1959 3584 
Q 2709 3584 3137 3096 
Q 3566 2609 3566 1747 
Q 3566 888 3137 398 
Q 2709 -91 1959 -91 
Q 1206 -91 779 398 
Q 353 888 353 1747 
Q 353 2609 779 3096 
Q 1206 3584 1959 3584 
z
" transform="scale(0.015625)"/>
      <path id="DejaVuSans-6b" d="M 581 4863 
L 1159 4863 
L 1159 1991 
L 2875 3500 
L 3609 3500 
L 1753 1863 
L 3688 0 
L 2938 0 
L 1159 1709 
L 1159 0 
L 581 0 
L 581 4863 
z
" transform="scale(0.015625)"/>
     </defs>
     <use xlink:href="#DejaVuSans-45"/>
     <use xlink:href="#DejaVuSans-44" x="63.183594"/>
     <use xlink:href="#DejaVuSans-46" x="140.185547"/>
     <use xlink:href="#DejaVuSans-20" x="197.705078"/>
     <use xlink:href="#DejaVuSans-57" x="229.492188"/>
     <use xlink:href="#DejaVuSans-6f" x="322.494141"/>
     <use xlink:href="#DejaVuSans-72" x="383.675781"/>
     <use xlink:href="#DejaVuSans-6b" x="424.789062"/>
    </g>
   </g>
   <g id="legend_1">
    <g id="patch_7">
     <path d="M 455.804687 153.16675 
L 527.2 153.16675 
Q 529.2 153.16675 529.2 151.16675 
L 529.2 34.74175 
Q 529.2 32.74175 527.2 32.74175 
L 455.804687 32.74175 
Q 453.804687 32.74175 453.804687 34.74175 
L 453.804687 151.16675 
Q 453.804687 153.16675 455.804687 153.16675 
z
" style="fill: #e5e5e5; opacity: 0.8; stroke: #cccccc; stroke-width: 0.5; stroke-linejoin: miter"/>
    </g>
    <g id="patch_8">
     <path d="M 457.804687 44.340188 
L 477.804687 44.340188 
L 477.804687 37.340188 
L 457.804687 37.340188 
z
" style="fill: #e24a33"/>
    </g>
    <g id="text_19">
     <!-- GE11 -->
     <g transform="translate(485.804687 44.340188)scale(0.1 -0.1)">
      <defs>
       <path id="DejaVuSans-47" d="M 3809 666 
L 3809 1919 
L 2778 1919 
L 2778 2438 
L 4434 2438 
L 4434 434 
Q 4069 175 3628 42 
Q 3188 -91 2688 -91 
Q 1594 -91 976 548 
Q 359 1188 359 2328 
Q 359 3472 976 4111 
Q 1594 4750 2688 4750 
Q 3144 4750 3555 4637 
Q 3966 4525 4313 4306 
L 4313 3634 
Q 3963 3931 3569 4081 
Q 3175 4231 2741 4231 
Q 1884 4231 1454 3753 
Q 1025 3275 1025 2328 
Q 1025 1384 1454 906 
Q 1884 428 2741 428 
Q 3075 428 3337 486 
Q 3600 544 3809 666 
z
" transform="scale(0.015625)"/>
      </defs>
      <use xlink:href="#DejaVuSans-47"/>
      <use xlink:href="#DejaVuSans-45" x="77.490234"/>
      <use xlink:href="#DejaVuSans-31" x="140.673828"/>
      <use xlink:href="#DejaVuSans-31" x="204.296875"/>
     </g>
    </g>
    <g id="patch_9">
     <path d="M 457.804687 59.018313 
L 477.804687 59.018313 
L 477.804687 52.018313 
L 457.804687 52.018313 
z
" style="fill: #348abd"/>
    </g>
    <g id="text_20">
     <!-- GE21 -->
     <g transform="translate(485.804687 59.018313)scale(0.1 -0.1)">
      <use xlink:href="#DejaVuSans-47"/>
      <use xlink:href="#DejaVuSans-45" x="77.490234"/>
      <use xlink:href="#DejaVuSans-32" x="140.673828"/>
      <use xlink:href="#DejaVuSans-31" x="204.296875"/>
     </g>
    </g>
    <g id="patch_10">
     <path d="M 457.804687 73.696438 
L 477.804687 73.696438 
L 477.804687 66.696438 
L 457.804687 66.696438 
z
" style="fill: #988ed5"/>
    </g>
    <g id="text_21">
     <!-- ETC -->
     <g transform="translate(485.804687 73.696438)scale(0.1 -0.1)">
      <defs>
       <path id="DejaVuSans-54" d="M -19 4666 
L 3928 4666 
L 3928 4134 
L 2272 4134 
L 2272 0 
L 1638 0 
L 1638 4134 
L -19 4134 
L -19 4666 
z
" transform="scale(0.015625)"/>
       <path id="DejaVuSans-43" d="M 4122 4306 
L 4122 3641 
Q 3803 3938 3442 4084 
Q 3081 4231 2675 4231 
Q 1875 4231 1450 3742 
Q 1025 3253 1025 2328 
Q 1025 1406 1450 917 
Q 1875 428 2675 428 
Q 3081 428 3442 575 
Q 3803 722 4122 1019 
L 4122 359 
Q 3791 134 3420 21 
Q 3050 -91 2638 -91 
Q 1578 -91 968 557 
Q 359 1206 359 2328 
Q 359 3453 968 4101 
Q 1578 4750 2638 4750 
Q 3056 4750 3426 4639 
Q 3797 4528 4122 4306 
z
" transform="scale(0.015625)"/>
      </defs>
      <use xlink:href="#DejaVuSans-45"/>
      <use xlink:href="#DejaVuSans-54" x="63.183594"/>
      <use xlink:href="#DejaVuSans-43" x="118.392578"/>
     </g>
    </g>
    <g id="patch_11">
     <path d="M 457.804687 88.374563 
L 477.804687 88.374563 
L 477.804687 81.374563 
L 457.804687 81.374563 
z
" style="fill: #777777"/>
    </g>
    <g id="text_22">
     <!-- ME0 -->
     <g transform="translate(485.804687 88.374563)scale(0.1 -0.1)">
      <defs>
       <path id="DejaVuSans-4d" d="M 628 4666 
L 1569 4666 
L 2759 1491 
L 3956 4666 
L 4897 4666 
L 4897 0 
L 4281 0 
L 4281 4097 
L 3078 897 
L 2444 897 
L 1241 4097 
L 1241 0 
L 628 0 
L 628 4666 
z
" transform="scale(0.015625)"/>
      </defs>
      <use xlink:href="#DejaVuSans-4d"/>
      <use xlink:href="#DejaVuSans-45" x="86.279297"/>
      <use xlink:href="#DejaVuSans-30" x="149.462891"/>
     </g>
    </g>
    <g id="patch_12">
     <path d="M 457.804687 103.052688 
L 477.804687 103.052688 
L 477.804687 96.052688 
L 457.804687 96.052688 
z
" style="fill: #fbc15e"/>
    </g>
    <g id="text_23">
     <!-- L0MDT -->
     <g transform="translate(485.804687 103.052688)scale(0.1 -0.1)">
      <defs>
       <path id="DejaVuSans-4c" d="M 628 4666 
L 1259 4666 
L 1259 531 
L 3531 531 
L 3531 0 
L 628 0 
L 628 4666 
z
" transform="scale(0.015625)"/>
      </defs>
      <use xlink:href="#DejaVuSans-4c"/>
      <use xlink:href="#DejaVuSans-30" x="55.712891"/>
      <use xlink:href="#DejaVuSans-4d" x="119.335938"/>
      <use xlink:href="#DejaVuSans-44" x="205.615234"/>
      <use xlink:href="#DejaVuSans-54" x="282.617188"/>
     </g>
    </g>
    <g id="patch_13">
     <path d="M 457.804687 117.730813 
L 477.804687 117.730813 
L 477.804687 110.730813 
L 457.804687 110.730813 
z
" style="fill: #8eba42"/>
    </g>
    <g id="text_24">
     <!-- OTHER -->
     <g transform="translate(485.804687 117.730813)scale(0.1 -0.1)">
      <defs>
       <path id="DejaVuSans-48" d="M 628 4666 
L 1259 4666 
L 1259 2753 
L 3553 2753 
L 3553 4666 
L 4184 4666 
L 4184 0 
L 3553 0 
L 3553 2222 
L 1259 2222 
L 1259 0 
L 628 0 
L 628 4666 
z
" transform="scale(0.015625)"/>
       <path id="DejaVuSans-52" d="M 2841 2188 
Q 3044 2119 3236 1894 
Q 3428 1669 3622 1275 
L 4263 0 
L 3584 0 
L 2988 1197 
Q 2756 1666 2539 1819 
Q 2322 1972 1947 1972 
L 1259 1972 
L 1259 0 
L 628 0 
L 628 4666 
L 2053 4666 
Q 2853 4666 3247 4331 
Q 3641 3997 3641 3322 
Q 3641 2881 3436 2590 
Q 3231 2300 2841 2188 
z
M 1259 4147 
L 1259 2491 
L 2053 2491 
Q 2509 2491 2742 2702 
Q 2975 2913 2975 3322 
Q 2975 3731 2742 3939 
Q 2509 4147 2053 4147 
L 1259 4147 
z
" transform="scale(0.015625)"/>
      </defs>
      <use xlink:href="#DejaVuSans-4f"/>
      <use xlink:href="#DejaVuSans-54" x="78.710938"/>
      <use xlink:href="#DejaVuSans-48" x="139.794922"/>
      <use xlink:href="#DejaVuSans-45" x="214.990234"/>
      <use xlink:href="#DejaVuSans-52" x="278.173828"/>
     </g>
    </g>
    <g id="patch_14">
     <path d="M 457.804687 132.408938 
L 477.804687 132.408938 
L 477.804687 125.408938 
L 457.804687 125.408938 
z
" style="fill: #ffb5b8"/>
    </g>
    <g id="text_25">
     <!-- ETL -->
     <g transform="translate(485.804687 132.408938)scale(0.1 -0.1)">
      <use xlink:href="#DejaVuSans-45"/>
      <use xlink:href="#DejaVuSans-54" x="63.183594"/>
      <use xlink:href="#DejaVuSans-4c" x="124.267578"/>
     </g>
    </g>
    <g id="patch_15">
     <path d="M 457.804687 147.087063 
L 477.804687 147.087063 
L 477.804687 140.087063 
L 457.804687 140.087063 
z
" style="fill: #e24a33"/>
    </g>
    <g id="text_26">
     <!-- APOLLO -->
     <g transform="translate(485.804687 147.087063)scale(0.1 -0.1)">
      <defs>
       <path id="DejaVuSans-50" d="M 1259 4147 
L 1259 2394 
L 2053 2394 
Q 2494 2394 2734 2622 
Q 2975 2850 2975 3272 
Q 2975 3691 2734 3919 
Q 2494 4147 2053 4147 
L 1259 4147 
z
M 628 4666 
L 2053 4666 
Q 2838 4666 3239 4311 
Q 3641 3956 3641 3272 
Q 3641 2581 3239 2228 
Q 2838 1875 2053 1875 
L 1259 1875 
L 1259 0 
L 628 0 
L 628 4666 
z
" transform="scale(0.015625)"/>
      </defs>
      <use xlink:href="#DejaVuSans-41"/>
      <use xlink:href="#DejaVuSans-50" x="68.408203"/>
      <use xlink:href="#DejaVuSans-4f" x="128.710938"/>
      <use xlink:href="#DejaVuSans-4c" x="207.421875"/>
      <use xlink:href="#DejaVuSans-4c" x="263.134766"/>
      <use xlink:href="#DejaVuSans-4f" x="315.222656"/>
     </g>
    </g>
   </g>
  </g>
 </g>
 <defs>
  <clipPath id="p18ca7fde8f">
   <rect x="33.3875" y="27.74175" width="415.417187" height="281.468562"/>
  </clipPath>
 </defs>
</svg>
