<?xml version="1.0" encoding="utf-8" standalone="no"?>
<!DOCTYPE svg PUBLIC "-//W3C//DTD SVG 1.1//EN"
  "http://www.w3.org/Graphics/SVG/1.1/DTD/svg11.dtd">
<svg xmlns:xlink="http://www.w3.org/1999/xlink" width="540pt" height="360pt" viewBox="0 0 540 360" xmlns="http://www.w3.org/2000/svg" version="1.1">
 <metadata>
  <rdf:RDF xmlns:dc="http://purl.org/dc/elements/1.1/" xmlns:cc="http://creativecommons.org/ns#" xmlns:rdf="http://www.w3.org/1999/02/22-rdf-syntax-ns#">
   <cc:Work>
    <dc:type rdf:resource="http://purl.org/dc/dcmitype/StillImage"/>
    <dc:date>2023-01-02T19:35:16.422025</dc:date>
    <dc:format>image/svg+xml</dc:format>
    <dc:creator>
     <cc:Agent>
      <dc:title>Matplotlib v3.5.3, https://matplotlib.org/</dc:title>
     </cc:Agent>
    </dc:creator>
   </cc:Work>
  </rdf:RDF>
 </metadata>
 <defs>
  <style type="text/css">*{stroke-linejoin: round; stroke-linecap: butt}</style>
 </defs>
 <g id="figure_1">
  <g id="patch_1">
   <path d="M 0 360 
L 540 360 
L 540 0 
L 0 0 
z
" style="fill: #f0f0f0"/>
  </g>
  <g id="axes_1">
   <g id="patch_2">
    <path d="M 33.3875 309.210312 
L 448.804687 309.210312 
L 448.804687 27.74175 
L 33.3875 27.74175 
z
" style="fill: #e5e5e5"/>
   </g>
   <g id="matplotlib.axis_1">
    <g id="xtick_1">
     <g id="line2d_1">
      <path d="M 33.3875 309.210312 
L 33.3875 27.74175 
" clip-path="url(#p52dfcb68b6)" style="fill: none; stroke: #ffffff"/>
     </g>
     <g id="line2d_2"/>
     <g id="text_1">
      <!-- Jan -->
      <g style="fill: #555555" transform="translate(25.679688 320.30875)scale(0.1 -0.1)">
       <defs>
        <path id="DejaVuSans-4a" d="M 628 4666 
L 1259 4666 
L 1259 325 
Q 1259 -519 939 -900 
Q 619 -1281 -91 -1281 
L -331 -1281 
L -331 -750 
L -134 -750 
Q 284 -750 456 -515 
Q 628 -281 628 325 
L 628 4666 
z
" transform="scale(0.015625)"/>
        <path id="DejaVuSans-61" d="M 2194 1759 
Q 1497 1759 1228 1600 
Q 959 1441 959 1056 
Q 959 750 1161 570 
Q 1363 391 1709 391 
Q 2188 391 2477 730 
Q 2766 1069 2766 1631 
L 2766 1759 
L 2194 1759 
z
M 3341 1997 
L 3341 0 
L 2766 0 
L 2766 531 
Q 2569 213 2275 61 
Q 1981 -91 1556 -91 
Q 1019 -91 701 211 
Q 384 513 384 1019 
Q 384 1609 779 1909 
Q 1175 2209 1959 2209 
L 2766 2209 
L 2766 2266 
Q 2766 2663 2505 2880 
Q 2244 3097 1772 3097 
Q 1472 3097 1187 3025 
Q 903 2953 641 2809 
L 641 3341 
Q 956 3463 1253 3523 
Q 1550 3584 1831 3584 
Q 2591 3584 2966 3190 
Q 3341 2797 3341 1997 
z
" transform="scale(0.015625)"/>
        <path id="DejaVuSans-6e" d="M 3513 2113 
L 3513 0 
L 2938 0 
L 2938 2094 
Q 2938 2591 2744 2837 
Q 2550 3084 2163 3084 
Q 1697 3084 1428 2787 
Q 1159 2491 1159 1978 
L 1159 0 
L 581 0 
L 581 3500 
L 1159 3500 
L 1159 2956 
Q 1366 3272 1645 3428 
Q 1925 3584 2291 3584 
Q 2894 3584 3203 3211 
Q 3513 2838 3513 2113 
z
" transform="scale(0.015625)"/>
       </defs>
       <use xlink:href="#DejaVuSans-4a"/>
       <use xlink:href="#DejaVuSans-61" x="29.492188"/>
       <use xlink:href="#DejaVuSans-6e" x="90.771484"/>
      </g>
      <!-- 2021 -->
      <g style="fill: #555555" transform="translate(20.6625 331.506562)scale(0.1 -0.1)">
       <defs>
        <path id="DejaVuSans-32" d="M 1228 531 
L 3431 531 
L 3431 0 
L 469 0 
L 469 531 
Q 828 903 1448 1529 
Q 2069 2156 2228 2338 
Q 2531 2678 2651 2914 
Q 2772 3150 2772 3378 
Q 2772 3750 2511 3984 
Q 2250 4219 1831 4219 
Q 1534 4219 1204 4116 
Q 875 4013 500 3803 
L 500 4441 
Q 881 4594 1212 4672 
Q 1544 4750 1819 4750 
Q 2544 4750 2975 4387 
Q 3406 4025 3406 3419 
Q 3406 3131 3298 2873 
Q 3191 2616 2906 2266 
Q 2828 2175 2409 1742 
Q 1991 1309 1228 531 
z
" transform="scale(0.015625)"/>
        <path id="DejaVuSans-30" d="M 2034 4250 
Q 1547 4250 1301 3770 
Q 1056 3291 1056 2328 
Q 1056 1369 1301 889 
Q 1547 409 2034 409 
Q 2525 409 2770 889 
Q 3016 1369 3016 2328 
Q 3016 3291 2770 3770 
Q 2525 4250 2034 4250 
z
M 2034 4750 
Q 2819 4750 3233 4129 
Q 3647 3509 3647 2328 
Q 3647 1150 3233 529 
Q 2819 -91 2034 -91 
Q 1250 -91 836 529 
Q 422 1150 422 2328 
Q 422 3509 836 4129 
Q 1250 4750 2034 4750 
z
" transform="scale(0.015625)"/>
        <path id="DejaVuSans-31" d="M 794 531 
L 1825 531 
L 1825 4091 
L 703 3866 
L 703 4441 
L 1819 4666 
L 2450 4666 
L 2450 531 
L 3481 531 
L 3481 0 
L 794 0 
L 794 531 
z
" transform="scale(0.015625)"/>
       </defs>
       <use xlink:href="#DejaVuSans-32"/>
       <use xlink:href="#DejaVuSans-30" x="63.623047"/>
       <use xlink:href="#DejaVuSans-32" x="127.246094"/>
       <use xlink:href="#DejaVuSans-31" x="190.869141"/>
      </g>
     </g>
    </g>
    <g id="xtick_2">
     <g id="line2d_3">
      <path d="M 241.096094 309.210312 
L 241.096094 27.74175 
" clip-path="url(#p52dfcb68b6)" style="fill: none; stroke: #ffffff"/>
     </g>
     <g id="line2d_4"/>
     <g id="text_2">
      <!-- Jan -->
      <g style="fill: #555555" transform="translate(233.388281 320.30875)scale(0.1 -0.1)">
       <use xlink:href="#DejaVuSans-4a"/>
       <use xlink:href="#DejaVuSans-61" x="29.492188"/>
       <use xlink:href="#DejaVuSans-6e" x="90.771484"/>
      </g>
      <!-- 2022 -->
      <g style="fill: #555555" transform="translate(228.371094 331.506562)scale(0.1 -0.1)">
       <use xlink:href="#DejaVuSans-32"/>
       <use xlink:href="#DejaVuSans-30" x="63.623047"/>
       <use xlink:href="#DejaVuSans-32" x="127.246094"/>
       <use xlink:href="#DejaVuSans-32" x="190.869141"/>
      </g>
     </g>
    </g>
    <g id="xtick_3">
     <g id="line2d_5">
      <path d="M 448.804688 309.210312 
L 448.804688 27.74175 
" clip-path="url(#p52dfcb68b6)" style="fill: none; stroke: #ffffff"/>
     </g>
     <g id="line2d_6"/>
     <g id="text_3">
      <!-- Jan -->
      <g style="fill: #555555" transform="translate(441.096875 320.30875)scale(0.1 -0.1)">
       <use xlink:href="#DejaVuSans-4a"/>
       <use xlink:href="#DejaVuSans-61" x="29.492188"/>
       <use xlink:href="#DejaVuSans-6e" x="90.771484"/>
      </g>
      <!-- 2023 -->
      <g style="fill: #555555" transform="translate(436.079687 331.506562)scale(0.1 -0.1)">
       <defs>
        <path id="DejaVuSans-33" d="M 2597 2516 
Q 3050 2419 3304 2112 
Q 3559 1806 3559 1356 
Q 3559 666 3084 287 
Q 2609 -91 1734 -91 
Q 1441 -91 1130 -33 
Q 819 25 488 141 
L 488 750 
Q 750 597 1062 519 
Q 1375 441 1716 441 
Q 2309 441 2620 675 
Q 2931 909 2931 1356 
Q 2931 1769 2642 2001 
Q 2353 2234 1838 2234 
L 1294 2234 
L 1294 2753 
L 1863 2753 
Q 2328 2753 2575 2939 
Q 2822 3125 2822 3475 
Q 2822 3834 2567 4026 
Q 2313 4219 1838 4219 
Q 1578 4219 1281 4162 
Q 984 4106 628 3988 
L 628 4550 
Q 988 4650 1302 4700 
Q 1616 4750 1894 4750 
Q 2613 4750 3031 4423 
Q 3450 4097 3450 3541 
Q 3450 3153 3228 2886 
Q 3006 2619 2597 2516 
z
" transform="scale(0.015625)"/>
       </defs>
       <use xlink:href="#DejaVuSans-32"/>
       <use xlink:href="#DejaVuSans-30" x="63.623047"/>
       <use xlink:href="#DejaVuSans-32" x="127.246094"/>
       <use xlink:href="#DejaVuSans-33" x="190.869141"/>
      </g>
     </g>
    </g>
    <g id="xtick_4">
     <g id="line2d_7"/>
    </g>
    <g id="xtick_5">
     <g id="line2d_8"/>
    </g>
    <g id="xtick_6">
     <g id="line2d_9"/>
     <g id="text_4">
      <!-- Apr -->
      <g style="fill: #555555" transform="translate(76.664648 320.20875)scale(0.1 -0.1)">
       <defs>
        <path id="DejaVuSans-41" d="M 2188 4044 
L 1331 1722 
L 3047 1722 
L 2188 4044 
z
M 1831 4666 
L 2547 4666 
L 4325 0 
L 3669 0 
L 3244 1197 
L 1141 1197 
L 716 0 
L 50 0 
L 1831 4666 
z
" transform="scale(0.015625)"/>
        <path id="DejaVuSans-70" d="M 1159 525 
L 1159 -1331 
L 581 -1331 
L 581 3500 
L 1159 3500 
L 1159 2969 
Q 1341 3281 1617 3432 
Q 1894 3584 2278 3584 
Q 2916 3584 3314 3078 
Q 3713 2572 3713 1747 
Q 3713 922 3314 415 
Q 2916 -91 2278 -91 
Q 1894 -91 1617 61 
Q 1341 213 1159 525 
z
M 3116 1747 
Q 3116 2381 2855 2742 
Q 2594 3103 2138 3103 
Q 1681 3103 1420 2742 
Q 1159 2381 1159 1747 
Q 1159 1113 1420 752 
Q 1681 391 2138 391 
Q 2594 391 2855 752 
Q 3116 1113 3116 1747 
z
" transform="scale(0.015625)"/>
        <path id="DejaVuSans-72" d="M 2631 2963 
Q 2534 3019 2420 3045 
Q 2306 3072 2169 3072 
Q 1681 3072 1420 2755 
Q 1159 2438 1159 1844 
L 1159 0 
L 581 0 
L 581 3500 
L 1159 3500 
L 1159 2956 
Q 1341 3275 1631 3429 
Q 1922 3584 2338 3584 
Q 2397 3584 2469 3576 
Q 2541 3569 2628 3553 
L 2631 2963 
z
" transform="scale(0.015625)"/>
       </defs>
       <use xlink:href="#DejaVuSans-41"/>
       <use xlink:href="#DejaVuSans-70" x="68.408203"/>
       <use xlink:href="#DejaVuSans-72" x="131.884766"/>
      </g>
     </g>
    </g>
    <g id="xtick_7">
     <g id="line2d_10"/>
    </g>
    <g id="xtick_8">
     <g id="line2d_11"/>
    </g>
    <g id="xtick_9">
     <g id="line2d_12"/>
     <g id="text_5">
      <!-- Jul -->
      <g style="fill: #555555" transform="translate(131.208984 320.20875)scale(0.1 -0.1)">
       <defs>
        <path id="DejaVuSans-75" d="M 544 1381 
L 544 3500 
L 1119 3500 
L 1119 1403 
Q 1119 906 1312 657 
Q 1506 409 1894 409 
Q 2359 409 2629 706 
Q 2900 1003 2900 1516 
L 2900 3500 
L 3475 3500 
L 3475 0 
L 2900 0 
L 2900 538 
Q 2691 219 2414 64 
Q 2138 -91 1772 -91 
Q 1169 -91 856 284 
Q 544 659 544 1381 
z
M 1991 3584 
L 1991 3584 
z
" transform="scale(0.015625)"/>
        <path id="DejaVuSans-6c" d="M 603 4863 
L 1178 4863 
L 1178 0 
L 603 0 
L 603 4863 
z
" transform="scale(0.015625)"/>
       </defs>
       <use xlink:href="#DejaVuSans-4a"/>
       <use xlink:href="#DejaVuSans-75" x="29.492188"/>
       <use xlink:href="#DejaVuSans-6c" x="92.871094"/>
      </g>
     </g>
    </g>
    <g id="xtick_10">
     <g id="line2d_13"/>
    </g>
    <g id="xtick_11">
     <g id="line2d_14"/>
    </g>
    <g id="xtick_12">
     <g id="line2d_15"/>
     <g id="text_6">
      <!-- Oct -->
      <g style="fill: #555555" transform="translate(180.523633 320.20875)scale(0.1 -0.1)">
       <defs>
        <path id="DejaVuSans-4f" d="M 2522 4238 
Q 1834 4238 1429 3725 
Q 1025 3213 1025 2328 
Q 1025 1447 1429 934 
Q 1834 422 2522 422 
Q 3209 422 3611 934 
Q 4013 1447 4013 2328 
Q 4013 3213 3611 3725 
Q 3209 4238 2522 4238 
z
M 2522 4750 
Q 3503 4750 4090 4092 
Q 4678 3434 4678 2328 
Q 4678 1225 4090 567 
Q 3503 -91 2522 -91 
Q 1538 -91 948 565 
Q 359 1222 359 2328 
Q 359 3434 948 4092 
Q 1538 4750 2522 4750 
z
" transform="scale(0.015625)"/>
        <path id="DejaVuSans-63" d="M 3122 3366 
L 3122 2828 
Q 2878 2963 2633 3030 
Q 2388 3097 2138 3097 
Q 1578 3097 1268 2742 
Q 959 2388 959 1747 
Q 959 1106 1268 751 
Q 1578 397 2138 397 
Q 2388 397 2633 464 
Q 2878 531 3122 666 
L 3122 134 
Q 2881 22 2623 -34 
Q 2366 -91 2075 -91 
Q 1284 -91 818 406 
Q 353 903 353 1747 
Q 353 2603 823 3093 
Q 1294 3584 2113 3584 
Q 2378 3584 2631 3529 
Q 2884 3475 3122 3366 
z
" transform="scale(0.015625)"/>
        <path id="DejaVuSans-74" d="M 1172 4494 
L 1172 3500 
L 2356 3500 
L 2356 3053 
L 1172 3053 
L 1172 1153 
Q 1172 725 1289 603 
Q 1406 481 1766 481 
L 2356 481 
L 2356 0 
L 1766 0 
Q 1100 0 847 248 
Q 594 497 594 1153 
L 594 3053 
L 172 3053 
L 172 3500 
L 594 3500 
L 594 4494 
L 1172 4494 
z
" transform="scale(0.015625)"/>
       </defs>
       <use xlink:href="#DejaVuSans-4f"/>
       <use xlink:href="#DejaVuSans-63" x="78.710938"/>
       <use xlink:href="#DejaVuSans-74" x="133.691406"/>
      </g>
     </g>
    </g>
    <g id="xtick_13">
     <g id="line2d_16"/>
    </g>
    <g id="xtick_14">
     <g id="line2d_17"/>
    </g>
    <g id="xtick_15">
     <g id="line2d_18"/>
    </g>
    <g id="xtick_16">
     <g id="line2d_19"/>
    </g>
    <g id="xtick_17">
     <g id="line2d_20"/>
     <g id="text_7">
      <!-- Apr -->
      <g style="fill: #555555" transform="translate(284.373242 320.20875)scale(0.1 -0.1)">
       <use xlink:href="#DejaVuSans-41"/>
       <use xlink:href="#DejaVuSans-70" x="68.408203"/>
       <use xlink:href="#DejaVuSans-72" x="131.884766"/>
      </g>
     </g>
    </g>
    <g id="xtick_18">
     <g id="line2d_21"/>
    </g>
    <g id="xtick_19">
     <g id="line2d_22"/>
    </g>
    <g id="xtick_20">
     <g id="line2d_23"/>
     <g id="text_8">
      <!-- Jul -->
      <g style="fill: #555555" transform="translate(338.917578 320.20875)scale(0.1 -0.1)">
       <use xlink:href="#DejaVuSans-4a"/>
       <use xlink:href="#DejaVuSans-75" x="29.492188"/>
       <use xlink:href="#DejaVuSans-6c" x="92.871094"/>
      </g>
     </g>
    </g>
    <g id="xtick_21">
     <g id="line2d_24"/>
    </g>
    <g id="xtick_22">
     <g id="line2d_25"/>
    </g>
    <g id="xtick_23">
     <g id="line2d_26"/>
     <g id="text_9">
      <!-- Oct -->
      <g style="fill: #555555" transform="translate(388.232227 320.20875)scale(0.1 -0.1)">
       <use xlink:href="#DejaVuSans-4f"/>
       <use xlink:href="#DejaVuSans-63" x="78.710938"/>
       <use xlink:href="#DejaVuSans-74" x="133.691406"/>
      </g>
     </g>
    </g>
    <g id="xtick_24">
     <g id="line2d_27"/>
    </g>
    <g id="xtick_25">
     <g id="line2d_28"/>
    </g>
    <g id="text_10">
     <!-- Date -->
     <g style="fill: #555555" transform="translate(226.755156 346.704375)scale(0.12 -0.12)">
      <defs>
       <path id="DejaVuSans-44" d="M 1259 4147 
L 1259 519 
L 2022 519 
Q 2988 519 3436 956 
Q 3884 1394 3884 2338 
Q 3884 3275 3436 3711 
Q 2988 4147 2022 4147 
L 1259 4147 
z
M 628 4666 
L 1925 4666 
Q 3281 4666 3915 4102 
Q 4550 3538 4550 2338 
Q 4550 1131 3912 565 
Q 3275 0 1925 0 
L 628 0 
L 628 4666 
z
" transform="scale(0.015625)"/>
       <path id="DejaVuSans-65" d="M 3597 1894 
L 3597 1613 
L 953 1613 
Q 991 1019 1311 708 
Q 1631 397 2203 397 
Q 2534 397 2845 478 
Q 3156 559 3463 722 
L 3463 178 
Q 3153 47 2828 -22 
Q 2503 -91 2169 -91 
Q 1331 -91 842 396 
Q 353 884 353 1716 
Q 353 2575 817 3079 
Q 1281 3584 2069 3584 
Q 2775 3584 3186 3129 
Q 3597 2675 3597 1894 
z
M 3022 2063 
Q 3016 2534 2758 2815 
Q 2500 3097 2075 3097 
Q 1594 3097 1305 2825 
Q 1016 2553 972 2059 
L 3022 2063 
z
" transform="scale(0.015625)"/>
      </defs>
      <use xlink:href="#DejaVuSans-44"/>
      <use xlink:href="#DejaVuSans-61" x="77.001953"/>
      <use xlink:href="#DejaVuSans-74" x="138.28125"/>
      <use xlink:href="#DejaVuSans-65" x="177.490234"/>
     </g>
    </g>
   </g>
   <g id="matplotlib.axis_2">
    <g id="ytick_1">
     <g id="line2d_29">
      <path d="M 33.3875 309.210312 
L 448.804687 309.210312 
" clip-path="url(#p52dfcb68b6)" style="fill: none; stroke: #ffffff"/>
     </g>
     <g id="line2d_30"/>
     <g id="text_11">
      <!-- 0 -->
      <g style="fill: #555555" transform="translate(23.525 313.009531)scale(0.1 -0.1)">
       <use xlink:href="#DejaVuSans-30"/>
      </g>
     </g>
    </g>
    <g id="ytick_2">
     <g id="line2d_31">
      <path d="M 33.3875 273.082914 
L 448.804687 273.082914 
" clip-path="url(#p52dfcb68b6)" style="fill: none; stroke: #ffffff"/>
     </g>
     <g id="line2d_32"/>
     <g id="text_12">
      <!-- 25 -->
      <g style="fill: #555555" transform="translate(17.1625 276.882133)scale(0.1 -0.1)">
       <defs>
        <path id="DejaVuSans-35" d="M 691 4666 
L 3169 4666 
L 3169 4134 
L 1269 4134 
L 1269 2991 
Q 1406 3038 1543 3061 
Q 1681 3084 1819 3084 
Q 2600 3084 3056 2656 
Q 3513 2228 3513 1497 
Q 3513 744 3044 326 
Q 2575 -91 1722 -91 
Q 1428 -91 1123 -41 
Q 819 9 494 109 
L 494 744 
Q 775 591 1075 516 
Q 1375 441 1709 441 
Q 2250 441 2565 725 
Q 2881 1009 2881 1497 
Q 2881 1984 2565 2268 
Q 2250 2553 1709 2553 
Q 1456 2553 1204 2497 
Q 953 2441 691 2322 
L 691 4666 
z
" transform="scale(0.015625)"/>
       </defs>
       <use xlink:href="#DejaVuSans-32"/>
       <use xlink:href="#DejaVuSans-35" x="63.623047"/>
      </g>
     </g>
    </g>
    <g id="ytick_3">
     <g id="line2d_33">
      <path d="M 33.3875 236.955515 
L 448.804687 236.955515 
" clip-path="url(#p52dfcb68b6)" style="fill: none; stroke: #ffffff"/>
     </g>
     <g id="line2d_34"/>
     <g id="text_13">
      <!-- 50 -->
      <g style="fill: #555555" transform="translate(17.1625 240.754734)scale(0.1 -0.1)">
       <use xlink:href="#DejaVuSans-35"/>
       <use xlink:href="#DejaVuSans-30" x="63.623047"/>
      </g>
     </g>
    </g>
    <g id="ytick_4">
     <g id="line2d_35">
      <path d="M 33.3875 200.828117 
L 448.804687 200.828117 
" clip-path="url(#p52dfcb68b6)" style="fill: none; stroke: #ffffff"/>
     </g>
     <g id="line2d_36"/>
     <g id="text_14">
      <!-- 75 -->
      <g style="fill: #555555" transform="translate(17.1625 204.627335)scale(0.1 -0.1)">
       <defs>
        <path id="DejaVuSans-37" d="M 525 4666 
L 3525 4666 
L 3525 4397 
L 1831 0 
L 1172 0 
L 2766 4134 
L 525 4134 
L 525 4666 
z
" transform="scale(0.015625)"/>
       </defs>
       <use xlink:href="#DejaVuSans-37"/>
       <use xlink:href="#DejaVuSans-35" x="63.623047"/>
      </g>
     </g>
    </g>
    <g id="ytick_5">
     <g id="line2d_37">
      <path d="M 33.3875 164.700718 
L 448.804687 164.700718 
" clip-path="url(#p52dfcb68b6)" style="fill: none; stroke: #ffffff"/>
     </g>
     <g id="line2d_38"/>
     <g id="text_15">
      <!-- 100 -->
      <g style="fill: #555555" transform="translate(10.8 168.499937)scale(0.1 -0.1)">
       <use xlink:href="#DejaVuSans-31"/>
       <use xlink:href="#DejaVuSans-30" x="63.623047"/>
       <use xlink:href="#DejaVuSans-30" x="127.246094"/>
      </g>
     </g>
    </g>
    <g id="ytick_6">
     <g id="line2d_39">
      <path d="M 33.3875 128.573319 
L 448.804687 128.573319 
" clip-path="url(#p52dfcb68b6)" style="fill: none; stroke: #ffffff"/>
     </g>
     <g id="line2d_40"/>
     <g id="text_16">
      <!-- 125 -->
      <g style="fill: #555555" transform="translate(10.8 132.372538)scale(0.1 -0.1)">
       <use xlink:href="#DejaVuSans-31"/>
       <use xlink:href="#DejaVuSans-32" x="63.623047"/>
       <use xlink:href="#DejaVuSans-35" x="127.246094"/>
      </g>
     </g>
    </g>
    <g id="ytick_7">
     <g id="line2d_41">
      <path d="M 33.3875 92.445921 
L 448.804687 92.445921 
" clip-path="url(#p52dfcb68b6)" style="fill: none; stroke: #ffffff"/>
     </g>
     <g id="line2d_42"/>
     <g id="text_17">
      <!-- 150 -->
      <g style="fill: #555555" transform="translate(10.8 96.24514)scale(0.1 -0.1)">
       <use xlink:href="#DejaVuSans-31"/>
       <use xlink:href="#DejaVuSans-35" x="63.623047"/>
       <use xlink:href="#DejaVuSans-30" x="127.246094"/>
      </g>
     </g>
    </g>
    <g id="ytick_8">
     <g id="line2d_43">
      <path d="M 33.3875 56.318522 
L 448.804687 56.318522 
" clip-path="url(#p52dfcb68b6)" style="fill: none; stroke: #ffffff"/>
     </g>
     <g id="line2d_44"/>
     <g id="text_18">
      <!-- 175 -->
      <g style="fill: #555555" transform="translate(10.8 60.117741)scale(0.1 -0.1)">
       <use xlink:href="#DejaVuSans-31"/>
       <use xlink:href="#DejaVuSans-37" x="63.623047"/>
       <use xlink:href="#DejaVuSans-35" x="127.246094"/>
      </g>
     </g>
    </g>
   </g>
   <g id="PolyCollection_1">
    <defs>
     <path id="m7c42e0c623" d="M 33.3875 -56.570071 
L 33.3875 -50.789688 
L 50.696549 -50.789688 
L 68.005599 -50.789688 
L 85.314648 -50.789688 
L 102.623698 -50.789688 
L 119.932747 -50.789688 
L 137.241797 -50.789688 
L 154.550846 -50.789688 
L 171.859896 -50.789688 
L 189.168945 -50.789688 
L 206.477995 -50.789688 
L 223.787044 -50.789688 
L 241.096094 -50.789688 
L 258.405143 -50.789688 
L 275.714193 -50.789688 
L 293.023242 -50.789688 
L 310.332292 -50.789688 
L 327.641341 -50.789688 
L 344.950391 -50.789688 
L 362.25944 -50.789688 
L 379.56849 -50.789688 
L 396.877539 -50.789688 
L 414.186589 -50.789688 
L 431.495638 -50.789688 
L 448.804688 -50.789688 
L 448.804688 -50.789688 
L 448.804688 -50.789688 
L 431.495638 -68.130839 
L 414.186589 -53.679879 
L 396.877539 -60.182811 
L 379.56849 -56.570071 
L 362.25944 -58.015167 
L 344.950391 -50.789688 
L 327.641341 -62.350455 
L 310.332292 -55.124975 
L 293.023242 -52.234783 
L 275.714193 -74.633771 
L 258.405143 -71.021031 
L 241.096094 -59.460263 
L 223.787044 -68.130839 
L 206.477995 -59.460263 
L 189.168945 -51.512235 
L 171.859896 -59.460263 
L 154.550846 -60.182811 
L 137.241797 -59.460263 
L 119.932747 -70.298483 
L 102.623698 -55.124975 
L 85.314648 -52.234783 
L 68.005599 -63.795551 
L 50.696549 -56.570071 
L 33.3875 -56.570071 
z
"/>
    </defs>
    <g clip-path="url(#p52dfcb68b6)">
     <use xlink:href="#m7c42e0c623" x="0" y="360" style="fill: #e24a33"/>
    </g>
   </g>
   <g id="PolyCollection_2">
    <defs>
     <path id="m1b45804eca" d="M 33.3875 -65.963195 
L 33.3875 -56.570071 
L 50.696549 -56.570071 
L 68.005599 -63.795551 
L 85.314648 -52.234783 
L 102.623698 -55.124975 
L 119.932747 -70.298483 
L 137.241797 -59.460263 
L 154.550846 -60.182811 
L 171.859896 -59.460263 
L 189.168945 -51.512235 
L 206.477995 -59.460263 
L 223.787044 -68.130839 
L 241.096094 -59.460263 
L 258.405143 -71.021031 
L 275.714193 -74.633771 
L 293.023242 -52.234783 
L 310.332292 -55.124975 
L 327.641341 -62.350455 
L 344.950391 -50.789688 
L 362.25944 -58.015167 
L 379.56849 -56.570071 
L 396.877539 -60.182811 
L 414.186589 -53.679879 
L 431.495638 -68.130839 
L 448.804688 -50.789688 
L 448.804688 -50.789688 
L 448.804688 -50.789688 
L 431.495638 -90.529826 
L 414.186589 -60.905359 
L 396.877539 -71.021031 
L 379.56849 -63.795551 
L 362.25944 -80.414154 
L 344.950391 -51.512235 
L 327.641341 -71.743579 
L 310.332292 -61.627907 
L 293.023242 -53.679879 
L 275.714193 -99.92295 
L 258.405143 -87.639634 
L 241.096094 -63.795551 
L 223.787044 -92.69747 
L 206.477995 -63.073003 
L 189.168945 -57.292619 
L 171.859896 -65.963195 
L 154.550846 -73.911223 
L 137.241797 -63.795551 
L 119.932747 -93.420018 
L 102.623698 -70.298483 
L 85.314648 -54.402427 
L 68.005599 -77.523962 
L 50.696549 -60.905359 
L 33.3875 -65.963195 
z
"/>
    </defs>
    <g clip-path="url(#p52dfcb68b6)">
     <use xlink:href="#m1b45804eca" x="0" y="360" style="fill: #348abd"/>
    </g>
   </g>
   <g id="PolyCollection_3">
    <defs>
     <path id="m95a706fde4" d="M 33.3875 -102.090594 
L 33.3875 -65.963195 
L 50.696549 -60.905359 
L 68.005599 -77.523962 
L 85.314648 -54.402427 
L 102.623698 -70.298483 
L 119.932747 -93.420018 
L 137.241797 -63.795551 
L 154.550846 -73.911223 
L 171.859896 -65.963195 
L 189.168945 -57.292619 
L 206.477995 -63.073003 
L 223.787044 -92.69747 
L 241.096094 -63.795551 
L 258.405143 -87.639634 
L 275.714193 -99.92295 
L 293.023242 -53.679879 
L 310.332292 -61.627907 
L 327.641341 -71.743579 
L 344.950391 -51.512235 
L 362.25944 -80.414154 
L 379.56849 -63.795551 
L 396.877539 -71.021031 
L 414.186589 -60.905359 
L 431.495638 -90.529826 
L 448.804688 -50.789688 
L 448.804688 -50.789688 
L 448.804688 -50.789688 
L 431.495638 -175.790487 
L 414.186589 -127.379773 
L 396.877539 -131.71506 
L 379.56849 -112.928813 
L 362.25944 -103.535689 
L 344.950391 -156.281691 
L 327.641341 -106.425881 
L 310.332292 -140.385636 
L 293.023242 -157.004239 
L 275.714193 -130.269964 
L 258.405143 -145.443472 
L 241.096094 -115.096457 
L 223.787044 -211.195337 
L 206.477995 -126.657225 
L 189.168945 -138.94054 
L 171.859896 -110.038621 
L 154.550846 -88.362182 
L 137.241797 -128.824868 
L 119.932747 -110.761169 
L 102.623698 -107.148429 
L 85.314648 -123.767033 
L 68.005599 -115.096457 
L 50.696549 -86.194538 
L 33.3875 -102.090594 
z
"/>
    </defs>
    <g clip-path="url(#p52dfcb68b6)">
     <use xlink:href="#m95a706fde4" x="0" y="360" style="fill: #988ed5"/>
    </g>
   </g>
   <g id="PolyCollection_4">
    <defs>
     <path id="madcfc56551" d="M 33.3875 -113.651361 
L 33.3875 -102.090594 
L 50.696549 -86.194538 
L 68.005599 -115.096457 
L 85.314648 -123.767033 
L 102.623698 -107.148429 
L 119.932747 -110.761169 
L 137.241797 -128.824868 
L 154.550846 -88.362182 
L 171.859896 -110.038621 
L 189.168945 -138.94054 
L 206.477995 -126.657225 
L 223.787044 -211.195337 
L 241.096094 -115.096457 
L 258.405143 -145.443472 
L 275.714193 -130.269964 
L 293.023242 -157.004239 
L 310.332292 -140.385636 
L 327.641341 -106.425881 
L 344.950391 -156.281691 
L 362.25944 -103.535689 
L 379.56849 -112.928813 
L 396.877539 -131.71506 
L 414.186589 -127.379773 
L 431.495638 -175.790487 
L 448.804688 -50.789688 
L 448.804688 -50.789688 
L 448.804688 -50.789688 
L 431.495638 -199.63457 
L 414.186589 -146.16602 
L 396.877539 -145.443472 
L 379.56849 -135.3278 
L 362.25944 -129.547416 
L 344.950391 -179.403227 
L 327.641341 -125.934677 
L 310.332292 -159.171883 
L 293.023242 -168.565007 
L 275.714193 -143.998376 
L 258.405143 -163.507171 
L 241.096094 -126.657225 
L 223.787044 -219.143365 
L 206.477995 -151.946404 
L 189.168945 -161.339527 
L 171.859896 -159.171883 
L 154.550846 -113.651361 
L 137.241797 -154.836595 
L 119.932747 -120.154293 
L 102.623698 -141.108184 
L 85.314648 -171.455199 
L 68.005599 -133.160156 
L 50.696549 -97.032758 
L 33.3875 -113.651361 
z
"/>
    </defs>
    <g clip-path="url(#p52dfcb68b6)">
     <use xlink:href="#madcfc56551" x="0" y="360" style="fill: #777777"/>
    </g>
   </g>
   <g id="PolyCollection_5">
    <defs>
     <path id="m6ac9bfeab0" d="M 33.3875 -143.998376 
L 33.3875 -113.651361 
L 50.696549 -97.032758 
L 68.005599 -133.160156 
L 85.314648 -171.455199 
L 102.623698 -141.108184 
L 119.932747 -120.154293 
L 137.241797 -154.836595 
L 154.550846 -113.651361 
L 171.859896 -159.171883 
L 189.168945 -161.339527 
L 206.477995 -151.946404 
L 223.787044 -219.143365 
L 241.096094 -126.657225 
L 258.405143 -163.507171 
L 275.714193 -143.998376 
L 293.023242 -168.565007 
L 310.332292 -159.171883 
L 327.641341 -125.934677 
L 344.950391 -179.403227 
L 362.25944 -129.547416 
L 379.56849 -135.3278 
L 396.877539 -145.443472 
L 414.186589 -146.16602 
L 431.495638 -199.63457 
L 448.804688 -50.789688 
L 448.804688 -50.789688 
L 448.804688 -50.789688 
L 431.495638 -204.692406 
L 414.186589 -148.333664 
L 396.877539 -151.223856 
L 379.56849 -149.77876 
L 362.25944 -136.050348 
L 344.950391 -185.906158 
L 327.641341 -152.668952 
L 310.332292 -198.189474 
L 293.023242 -198.912022 
L 275.714193 -171.455199 
L 258.405143 -181.57087 
L 241.096094 -227.813941 
L 223.787044 -292.12071 
L 206.477995 -233.594324 
L 189.168945 -231.426681 
L 171.859896 -195.299282 
L 154.550846 -180.848322 
L 137.241797 -178.680679 
L 119.932747 -154.836595 
L 102.623698 -195.299282 
L 85.314648 -220.588461 
L 68.005599 -210.472789 
L 50.696549 -151.223856 
L 33.3875 -143.998376 
z
"/>
    </defs>
    <g clip-path="url(#p52dfcb68b6)">
     <use xlink:href="#m6ac9bfeab0" x="0" y="360" style="fill: #fbc15e"/>
    </g>
   </g>
   <g id="PolyCollection_6">
    <defs>
     <path id="m14d9f738cd" d="M 33.3875 -143.998376 
L 33.3875 -143.998376 
L 50.696549 -151.223856 
L 68.005599 -210.472789 
L 85.314648 -220.588461 
L 102.623698 -195.299282 
L 119.932747 -154.836595 
L 137.241797 -178.680679 
L 154.550846 -180.848322 
L 171.859896 -195.299282 
L 189.168945 -231.426681 
L 206.477995 -233.594324 
L 223.787044 -292.12071 
L 241.096094 -227.813941 
L 258.405143 -181.57087 
L 275.714193 -171.455199 
L 293.023242 -198.912022 
L 310.332292 -198.189474 
L 327.641341 -152.668952 
L 344.950391 -185.906158 
L 362.25944 -136.050348 
L 379.56849 -149.77876 
L 396.877539 -151.223856 
L 414.186589 -148.333664 
L 431.495638 -204.692406 
L 448.804688 -50.789688 
L 448.804688 -50.789688 
L 448.804688 -50.789688 
L 431.495638 -204.692406 
L 414.186589 -148.333664 
L 396.877539 -157.726787 
L 379.56849 -149.77876 
L 362.25944 -151.946404 
L 344.950391 -185.906158 
L 327.641341 -152.668952 
L 310.332292 -198.912022 
L 293.023242 -200.357118 
L 275.714193 -182.293418 
L 258.405143 -190.963994 
L 241.096094 -238.65216 
L 223.787044 -292.12071 
L 206.477995 -237.929612 
L 189.168945 -231.426681 
L 171.859896 -198.189474 
L 154.550846 -183.015966 
L 137.241797 -190.963994 
L 119.932747 -186.628706 
L 102.623698 -206.137501 
L 85.314648 -227.091393 
L 68.005599 -220.588461 
L 50.696549 -151.223856 
L 33.3875 -143.998376 
z
"/>
    </defs>
    <g clip-path="url(#p52dfcb68b6)">
     <use xlink:href="#m14d9f738cd" x="0" y="360" style="fill: #8eba42"/>
    </g>
   </g>
   <g id="PolyCollection_7">
    <defs>
     <path id="m3f59b472b1" d="M 33.3875 -228.536489 
L 33.3875 -143.998376 
L 50.696549 -151.223856 
L 68.005599 -220.588461 
L 85.314648 -227.091393 
L 102.623698 -206.137501 
L 119.932747 -186.628706 
L 137.241797 -190.963994 
L 154.550846 -183.015966 
L 171.859896 -198.189474 
L 189.168945 -231.426681 
L 206.477995 -237.929612 
L 223.787044 -292.12071 
L 241.096094 -238.65216 
L 258.405143 -190.963994 
L 275.714193 -182.293418 
L 293.023242 -200.357118 
L 310.332292 -198.912022 
L 327.641341 -152.668952 
L 344.950391 -185.906158 
L 362.25944 -151.946404 
L 379.56849 -149.77876 
L 396.877539 -157.726787 
L 414.186589 -148.333664 
L 431.495638 -204.692406 
L 448.804688 -50.789688 
L 448.804688 -58.015167 
L 448.804688 -58.015167 
L 431.495638 -227.091393 
L 414.186589 -240.097256 
L 396.877539 -247.322736 
L 379.56849 -226.368845 
L 362.25944 -207.582597 
L 344.950391 -266.831531 
L 327.641341 -252.741846 
L 310.332292 -248.045284 
L 293.023242 -267.554079 
L 275.714193 -249.49038 
L 258.405143 -235.761968 
L 241.096094 -261.773695 
L 223.787044 -301.513834 
L 206.477995 -274.779559 
L 189.168945 -266.108983 
L 171.859896 -254.186942 
L 154.550846 -267.554079 
L 137.241797 -237.929612 
L 119.932747 -216.975721 
L 102.623698 -234.316872 
L 85.314648 -252.380572 
L 68.005599 -238.65216 
L 50.696549 -178.680679 
L 33.3875 -228.536489 
z
"/>
    </defs>
    <g clip-path="url(#p52dfcb68b6)">
     <use xlink:href="#m3f59b472b1" x="0" y="360" style="fill: #ffb5b8"/>
    </g>
   </g>
   <g id="PolyCollection_8">
    <defs>
     <path id="m066cdaadd7" d="M 33.3875 -260.328599 
L 33.3875 -228.536489 
L 50.696549 -178.680679 
L 68.005599 -238.65216 
L 85.314648 -252.380572 
L 102.623698 -234.316872 
L 119.932747 -216.975721 
L 137.241797 -237.929612 
L 154.550846 -267.554079 
L 171.859896 -254.186942 
L 189.168945 -266.108983 
L 206.477995 -274.779559 
L 223.787044 -301.513834 
L 241.096094 -261.773695 
L 258.405143 -235.761968 
L 275.714193 -249.49038 
L 293.023242 -267.554079 
L 310.332292 -248.045284 
L 327.641341 -252.741846 
L 344.950391 -266.831531 
L 362.25944 -207.582597 
L 379.56849 -226.368845 
L 396.877539 -247.322736 
L 414.186589 -240.097256 
L 431.495638 -227.091393 
L 448.804688 -58.015167 
L 448.804688 -58.015167 
L 448.804688 -58.015167 
L 431.495638 -227.091393 
L 414.186589 -248.045284 
L 396.877539 -254.548216 
L 379.56849 -232.149228 
L 362.25944 -210.472789 
L 344.950391 -268.276627 
L 327.641341 -269.721723 
L 310.332292 -253.825668 
L 293.023242 -271.166819 
L 275.714193 -295.010902 
L 258.405143 -268.999175 
L 241.096094 -266.108983 
L 223.787044 -307.294218 
L 206.477995 -285.617778 
L 189.168945 -283.450134 
L 171.859896 -292.481984 
L 154.550846 -287.785422 
L 137.241797 -296.455998 
L 119.932747 -318.854985 
L 102.623698 -279.837395 
L 85.314648 -286.340326 
L 68.005599 -277.669751 
L 50.696549 -219.143365 
L 33.3875 -260.328599 
z
"/>
    </defs>
    <g clip-path="url(#p52dfcb68b6)">
     <use xlink:href="#m066cdaadd7" x="0" y="360" style="fill: #e24a33"/>
    </g>
   </g>
   <g id="line2d_45">
    <path d="M 33.3875 303.429929 
L 50.696549 303.429929 
L 68.005599 296.204449 
L 85.314648 307.765217 
L 102.623698 304.875025 
L 119.932747 289.701517 
L 137.241797 300.539737 
L 154.550846 299.817189 
L 171.859896 300.539737 
L 189.168945 308.487765 
L 206.477995 300.539737 
L 223.787044 291.869161 
L 241.096094 300.539737 
L 258.405143 288.978969 
L 275.714193 285.366229 
L 293.023242 307.765217 
L 310.332292 304.875025 
L 327.641341 297.649545 
L 344.950391 309.210312 
L 362.25944 301.984833 
L 379.56849 303.429929 
L 396.877539 299.817189 
L 414.186589 306.320121 
L 431.495638 291.869161 
L 448.804688 309.210312 
" clip-path="url(#p52dfcb68b6)" style="fill: none"/>
   </g>
   <g id="line2d_46">
    <path d="M 33.3875 294.036805 
L 50.696549 299.094641 
L 68.005599 282.476038 
L 85.314648 305.597573 
L 102.623698 289.701517 
L 119.932747 266.579982 
L 137.241797 296.204449 
L 154.550846 286.088777 
L 171.859896 294.036805 
L 189.168945 302.707381 
L 206.477995 296.926997 
L 223.787044 267.30253 
L 241.096094 296.204449 
L 258.405143 272.360366 
L 275.714193 260.07705 
L 293.023242 306.320121 
L 310.332292 298.372093 
L 327.641341 288.256421 
L 344.950391 308.487765 
L 362.25944 279.585846 
L 379.56849 296.204449 
L 396.877539 288.978969 
L 414.186589 299.094641 
L 431.495638 269.470174 
L 448.804688 309.210312 
" clip-path="url(#p52dfcb68b6)" style="fill: none"/>
   </g>
   <g id="line2d_47">
    <path d="M 33.3875 257.909406 
L 50.696549 273.805462 
L 68.005599 244.903543 
L 85.314648 236.232967 
L 102.623698 252.851571 
L 119.932747 249.238831 
L 137.241797 231.175132 
L 154.550846 271.637818 
L 171.859896 249.961379 
L 189.168945 221.05946 
L 206.477995 233.342775 
L 223.787044 148.804663 
L 241.096094 244.903543 
L 258.405143 214.556528 
L 275.714193 229.730036 
L 293.023242 202.995761 
L 310.332292 219.614364 
L 327.641341 253.574119 
L 344.950391 203.718309 
L 362.25944 256.464311 
L 379.56849 247.071187 
L 396.877539 228.28494 
L 414.186589 232.620227 
L 431.495638 184.209513 
L 448.804688 309.210312 
" clip-path="url(#p52dfcb68b6)" style="fill: none"/>
   </g>
   <g id="line2d_48">
    <path d="M 33.3875 246.348639 
L 50.696549 262.967242 
L 68.005599 226.839844 
L 85.314648 188.544801 
L 102.623698 218.891816 
L 119.932747 239.845707 
L 137.241797 205.163405 
L 154.550846 246.348639 
L 171.859896 200.828117 
L 189.168945 198.660473 
L 206.477995 208.053596 
L 223.787044 140.856635 
L 241.096094 233.342775 
L 258.405143 196.492829 
L 275.714193 216.001624 
L 293.023242 191.434993 
L 310.332292 200.828117 
L 327.641341 234.065323 
L 344.950391 180.596773 
L 362.25944 230.452584 
L 379.56849 224.6722 
L 396.877539 214.556528 
L 414.186589 213.83398 
L 431.495638 160.36543 
L 448.804688 309.210312 
" clip-path="url(#p52dfcb68b6)" style="fill: none"/>
   </g>
   <g id="line2d_49">
    <path d="M 33.3875 216.001624 
L 50.696549 208.776144 
L 68.005599 149.527211 
L 85.314648 139.411539 
L 102.623698 164.700718 
L 119.932747 205.163405 
L 137.241797 181.319321 
L 154.550846 179.151678 
L 171.859896 164.700718 
L 189.168945 128.573319 
L 206.477995 126.405676 
L 223.787044 67.87929 
L 241.096094 132.186059 
L 258.405143 178.42913 
L 275.714193 188.544801 
L 293.023242 161.087978 
L 310.332292 161.810526 
L 327.641341 207.331048 
L 344.950391 174.093842 
L 362.25944 223.949652 
L 379.56849 210.22124 
L 396.877539 208.776144 
L 414.186589 211.666336 
L 431.495638 155.307594 
L 448.804688 309.210312 
" clip-path="url(#p52dfcb68b6)" style="fill: none"/>
   </g>
   <g id="line2d_50">
    <path d="M 33.3875 216.001624 
L 50.696549 208.776144 
L 68.005599 139.411539 
L 85.314648 132.908607 
L 102.623698 153.862499 
L 119.932747 173.371294 
L 137.241797 169.036006 
L 154.550846 176.984034 
L 171.859896 161.810526 
L 189.168945 128.573319 
L 206.477995 122.070388 
L 223.787044 67.87929 
L 241.096094 121.34784 
L 258.405143 169.036006 
L 275.714193 177.706582 
L 293.023242 159.642882 
L 310.332292 161.087978 
L 327.641341 207.331048 
L 344.950391 174.093842 
L 362.25944 208.053596 
L 379.56849 210.22124 
L 396.877539 202.273213 
L 414.186589 211.666336 
L 431.495638 155.307594 
L 448.804688 309.210312 
" clip-path="url(#p52dfcb68b6)" style="fill: none"/>
   </g>
   <g id="line2d_51">
    <path d="M 33.3875 131.463511 
L 50.696549 181.319321 
L 68.005599 121.34784 
L 85.314648 107.619428 
L 102.623698 125.683128 
L 119.932747 143.024279 
L 137.241797 122.070388 
L 154.550846 92.445921 
L 171.859896 105.813058 
L 189.168945 93.891017 
L 206.477995 85.220441 
L 223.787044 58.486166 
L 241.096094 98.226305 
L 258.405143 124.238032 
L 275.714193 110.50962 
L 293.023242 92.445921 
L 310.332292 111.954716 
L 327.641341 107.258154 
L 344.950391 93.168469 
L 362.25944 152.417403 
L 379.56849 133.631155 
L 396.877539 112.677264 
L 414.186589 119.902744 
L 431.495638 132.908607 
L 448.804688 301.984833 
" clip-path="url(#p52dfcb68b6)" style="fill: none"/>
   </g>
   <g id="line2d_52">
    <path d="M 33.3875 99.671401 
L 50.696549 140.856635 
L 68.005599 82.330249 
L 85.314648 73.659674 
L 102.623698 80.162605 
L 119.932747 41.145015 
L 137.241797 63.544002 
L 154.550846 72.214578 
L 171.859896 67.518016 
L 189.168945 76.549866 
L 206.477995 74.382222 
L 223.787044 52.705782 
L 241.096094 93.891017 
L 258.405143 91.000825 
L 275.714193 64.989098 
L 293.023242 88.833181 
L 310.332292 106.174332 
L 327.641341 90.278277 
L 344.950391 91.723373 
L 362.25944 149.527211 
L 379.56849 127.850772 
L 396.877539 105.451784 
L 414.186589 111.954716 
L 431.495638 132.908607 
L 448.804688 301.984833 
" clip-path="url(#p52dfcb68b6)" style="fill: none"/>
   </g>
   <g id="patch_3">
    <path d="M 33.3875 309.210312 
L 33.3875 27.74175 
" style="fill: none; stroke: #ffffff; stroke-linejoin: miter; stroke-linecap: square"/>
   </g>
   <g id="patch_4">
    <path d="M 448.804687 309.210312 
L 448.804687 27.74175 
" style="fill: none; stroke: #ffffff; stroke-linejoin: miter; stroke-linecap: square"/>
   </g>
   <g id="patch_5">
    <path d="M 33.3875 309.210312 
L 448.804688 309.210312 
" style="fill: none; stroke: #ffffff; stroke-linejoin: miter; stroke-linecap: square"/>
   </g>
   <g id="patch_6">
    <path d="M 33.3875 27.74175 
L 448.804688 27.74175 
" style="fill: none; stroke: #ffffff; stroke-linejoin: miter; stroke-linecap: square"/>
   </g>
   <g id="text_19">
    <!-- EDF Work -->
    <g transform="translate(206.342594 21.74175)scale(0.144 -0.144)">
     <defs>
      <path id="DejaVuSans-45" d="M 628 4666 
L 3578 4666 
L 3578 4134 
L 1259 4134 
L 1259 2753 
L 3481 2753 
L 3481 2222 
L 1259 2222 
L 1259 531 
L 3634 531 
L 3634 0 
L 628 0 
L 628 4666 
z
" transform="scale(0.015625)"/>
      <path id="DejaVuSans-46" d="M 628 4666 
L 3309 4666 
L 3309 4134 
L 1259 4134 
L 1259 2759 
L 3109 2759 
L 3109 2228 
L 1259 2228 
L 1259 0 
L 628 0 
L 628 4666 
z
" transform="scale(0.015625)"/>
      <path id="DejaVuSans-20" transform="scale(0.015625)"/>
      <path id="DejaVuSans-57" d="M 213 4666 
L 850 4666 
L 1831 722 
L 2809 4666 
L 3519 4666 
L 4500 722 
L 5478 4666 
L 6119 4666 
L 4947 0 
L 4153 0 
L 3169 4050 
L 2175 0 
L 1381 0 
L 213 4666 
z
" transform="scale(0.015625)"/>
      <path id="DejaVuSans-6f" d="M 1959 3097 
Q 1497 3097 1228 2736 
Q 959 2375 959 1747 
Q 959 1119 1226 758 
Q 1494 397 1959 397 
Q 2419 397 2687 759 
Q 2956 1122 2956 1747 
Q 2956 2369 2687 2733 
Q 2419 3097 1959 3097 
z
M 1959 3584 
Q 2709 3584 3137 3096 
Q 3566 2609 3566 1747 
Q 3566 888 3137 398 
Q 2709 -91 1959 -91 
Q 1206 -91 779 398 
Q 353 888 353 1747 
Q 353 2609 779 3096 
Q 1206 3584 1959 3584 
z
" transform="scale(0.015625)"/>
      <path id="DejaVuSans-6b" d="M 581 4863 
L 1159 4863 
L 1159 1991 
L 2875 3500 
L 3609 3500 
L 1753 1863 
L 3688 0 
L 2938 0 
L 1159 1709 
L 1159 0 
L 581 0 
L 581 4863 
z
" transform="scale(0.015625)"/>
     </defs>
     <use xlink:href="#DejaVuSans-45"/>
     <use xlink:href="#DejaVuSans-44" x="63.183594"/>
     <use xlink:href="#DejaVuSans-46" x="140.185547"/>
     <use xlink:href="#DejaVuSans-20" x="197.705078"/>
     <use xlink:href="#DejaVuSans-57" x="229.492188"/>
     <use xlink:href="#DejaVuSans-6f" x="322.494141"/>
     <use xlink:href="#DejaVuSans-72" x="383.675781"/>
     <use xlink:href="#DejaVuSans-6b" x="424.789062"/>
    </g>
   </g>
   <g id="legend_1">
    <g id="patch_7">
     <path d="M 455.804687 153.16675 
L 527.2 153.16675 
Q 529.2 153.16675 529.2 151.16675 
L 529.2 34.74175 
Q 529.2 32.74175 527.2 32.74175 
L 455.804687 32.74175 
Q 453.804687 32.74175 453.804687 34.74175 
L 453.804687 151.16675 
Q 453.804687 153.16675 455.804687 153.16675 
z
" style="fill: #e5e5e5; opacity: 0.8; stroke: #cccccc; stroke-width: 0.5; stroke-linejoin: miter"/>
    </g>
    <g id="patch_8">
     <path d="M 457.804687 44.340188 
L 477.804687 44.340188 
L 477.804687 37.340188 
L 457.804687 37.340188 
z
" style="fill: #e24a33"/>
    </g>
    <g id="text_20">
     <!-- GE11 -->
     <g transform="translate(485.804687 44.340188)scale(0.1 -0.1)">
      <defs>
       <path id="DejaVuSans-47" d="M 3809 666 
L 3809 1919 
L 2778 1919 
L 2778 2438 
L 4434 2438 
L 4434 434 
Q 4069 175 3628 42 
Q 3188 -91 2688 -91 
Q 1594 -91 976 548 
Q 359 1188 359 2328 
Q 359 3472 976 4111 
Q 1594 4750 2688 4750 
Q 3144 4750 3555 4637 
Q 3966 4525 4313 4306 
L 4313 3634 
Q 3963 3931 3569 4081 
Q 3175 4231 2741 4231 
Q 1884 4231 1454 3753 
Q 1025 3275 1025 2328 
Q 1025 1384 1454 906 
Q 1884 428 2741 428 
Q 3075 428 3337 486 
Q 3600 544 3809 666 
z
" transform="scale(0.015625)"/>
      </defs>
      <use xlink:href="#DejaVuSans-47"/>
      <use xlink:href="#DejaVuSans-45" x="77.490234"/>
      <use xlink:href="#DejaVuSans-31" x="140.673828"/>
      <use xlink:href="#DejaVuSans-31" x="204.296875"/>
     </g>
    </g>
    <g id="patch_9">
     <path d="M 457.804687 59.018313 
L 477.804687 59.018313 
L 477.804687 52.018313 
L 457.804687 52.018313 
z
" style="fill: #348abd"/>
    </g>
    <g id="text_21">
     <!-- GE21 -->
     <g transform="translate(485.804687 59.018313)scale(0.1 -0.1)">
      <use xlink:href="#DejaVuSans-47"/>
      <use xlink:href="#DejaVuSans-45" x="77.490234"/>
      <use xlink:href="#DejaVuSans-32" x="140.673828"/>
      <use xlink:href="#DejaVuSans-31" x="204.296875"/>
     </g>
    </g>
    <g id="patch_10">
     <path d="M 457.804687 73.696438 
L 477.804687 73.696438 
L 477.804687 66.696438 
L 457.804687 66.696438 
z
" style="fill: #988ed5"/>
    </g>
    <g id="text_22">
     <!-- ETC -->
     <g transform="translate(485.804687 73.696438)scale(0.1 -0.1)">
      <defs>
       <path id="DejaVuSans-54" d="M -19 4666 
L 3928 4666 
L 3928 4134 
L 2272 4134 
L 2272 0 
L 1638 0 
L 1638 4134 
L -19 4134 
L -19 4666 
z
" transform="scale(0.015625)"/>
       <path id="DejaVuSans-43" d="M 4122 4306 
L 4122 3641 
Q 3803 3938 3442 4084 
Q 3081 4231 2675 4231 
Q 1875 4231 1450 3742 
Q 1025 3253 1025 2328 
Q 1025 1406 1450 917 
Q 1875 428 2675 428 
Q 3081 428 3442 575 
Q 3803 722 4122 1019 
L 4122 359 
Q 3791 134 3420 21 
Q 3050 -91 2638 -91 
Q 1578 -91 968 557 
Q 359 1206 359 2328 
Q 359 3453 968 4101 
Q 1578 4750 2638 4750 
Q 3056 4750 3426 4639 
Q 3797 4528 4122 4306 
z
" transform="scale(0.015625)"/>
      </defs>
      <use xlink:href="#DejaVuSans-45"/>
      <use xlink:href="#DejaVuSans-54" x="63.183594"/>
      <use xlink:href="#DejaVuSans-43" x="118.392578"/>
     </g>
    </g>
    <g id="patch_11">
     <path d="M 457.804687 88.374563 
L 477.804687 88.374563 
L 477.804687 81.374563 
L 457.804687 81.374563 
z
" style="fill: #777777"/>
    </g>
    <g id="text_23">
     <!-- ME0 -->
     <g transform="translate(485.804687 88.374563)scale(0.1 -0.1)">
      <defs>
       <path id="DejaVuSans-4d" d="M 628 4666 
L 1569 4666 
L 2759 1491 
L 3956 4666 
L 4897 4666 
L 4897 0 
L 4281 0 
L 4281 4097 
L 3078 897 
L 2444 897 
L 1241 4097 
L 1241 0 
L 628 0 
L 628 4666 
z
" transform="scale(0.015625)"/>
      </defs>
      <use xlink:href="#DejaVuSans-4d"/>
      <use xlink:href="#DejaVuSans-45" x="86.279297"/>
      <use xlink:href="#DejaVuSans-30" x="149.462891"/>
     </g>
    </g>
    <g id="patch_12">
     <path d="M 457.804687 103.052688 
L 477.804687 103.052688 
L 477.804687 96.052688 
L 457.804687 96.052688 
z
" style="fill: #fbc15e"/>
    </g>
    <g id="text_24">
     <!-- L0MDT -->
     <g transform="translate(485.804687 103.052688)scale(0.1 -0.1)">
      <defs>
       <path id="DejaVuSans-4c" d="M 628 4666 
L 1259 4666 
L 1259 531 
L 3531 531 
L 3531 0 
L 628 0 
L 628 4666 
z
" transform="scale(0.015625)"/>
      </defs>
      <use xlink:href="#DejaVuSans-4c"/>
      <use xlink:href="#DejaVuSans-30" x="55.712891"/>
      <use xlink:href="#DejaVuSans-4d" x="119.335938"/>
      <use xlink:href="#DejaVuSans-44" x="205.615234"/>
      <use xlink:href="#DejaVuSans-54" x="282.617188"/>
     </g>
    </g>
    <g id="patch_13">
     <path d="M 457.804687 117.730813 
L 477.804687 117.730813 
L 477.804687 110.730813 
L 457.804687 110.730813 
z
" style="fill: #8eba42"/>
    </g>
    <g id="text_25">
     <!-- OTHER -->
     <g transform="translate(485.804687 117.730813)scale(0.1 -0.1)">
      <defs>
       <path id="DejaVuSans-48" d="M 628 4666 
L 1259 4666 
L 1259 2753 
L 3553 2753 
L 3553 4666 
L 4184 4666 
L 4184 0 
L 3553 0 
L 3553 2222 
L 1259 2222 
L 1259 0 
L 628 0 
L 628 4666 
z
" transform="scale(0.015625)"/>
       <path id="DejaVuSans-52" d="M 2841 2188 
Q 3044 2119 3236 1894 
Q 3428 1669 3622 1275 
L 4263 0 
L 3584 0 
L 2988 1197 
Q 2756 1666 2539 1819 
Q 2322 1972 1947 1972 
L 1259 1972 
L 1259 0 
L 628 0 
L 628 4666 
L 2053 4666 
Q 2853 4666 3247 4331 
Q 3641 3997 3641 3322 
Q 3641 2881 3436 2590 
Q 3231 2300 2841 2188 
z
M 1259 4147 
L 1259 2491 
L 2053 2491 
Q 2509 2491 2742 2702 
Q 2975 2913 2975 3322 
Q 2975 3731 2742 3939 
Q 2509 4147 2053 4147 
L 1259 4147 
z
" transform="scale(0.015625)"/>
      </defs>
      <use xlink:href="#DejaVuSans-4f"/>
      <use xlink:href="#DejaVuSans-54" x="78.710938"/>
      <use xlink:href="#DejaVuSans-48" x="139.794922"/>
      <use xlink:href="#DejaVuSans-45" x="214.990234"/>
      <use xlink:href="#DejaVuSans-52" x="278.173828"/>
     </g>
    </g>
    <g id="patch_14">
     <path d="M 457.804687 132.408938 
L 477.804687 132.408938 
L 477.804687 125.408938 
L 457.804687 125.408938 
z
" style="fill: #ffb5b8"/>
    </g>
    <g id="text_26">
     <!-- ETL -->
     <g transform="translate(485.804687 132.408938)scale(0.1 -0.1)">
      <use xlink:href="#DejaVuSans-45"/>
      <use xlink:href="#DejaVuSans-54" x="63.183594"/>
      <use xlink:href="#DejaVuSans-4c" x="124.267578"/>
     </g>
    </g>
    <g id="patch_15">
     <path d="M 457.804687 147.087063 
L 477.804687 147.087063 
L 477.804687 140.087063 
L 457.804687 140.087063 
z
" style="fill: #e24a33"/>
    </g>
    <g id="text_27">
     <!-- APOLLO -->
     <g transform="translate(485.804687 147.087063)scale(0.1 -0.1)">
      <defs>
       <path id="DejaVuSans-50" d="M 1259 4147 
L 1259 2394 
L 2053 2394 
Q 2494 2394 2734 2622 
Q 2975 2850 2975 3272 
Q 2975 3691 2734 3919 
Q 2494 4147 2053 4147 
L 1259 4147 
z
M 628 4666 
L 2053 4666 
Q 2838 4666 3239 4311 
Q 3641 3956 3641 3272 
Q 3641 2581 3239 2228 
Q 2838 1875 2053 1875 
L 1259 1875 
L 1259 0 
L 628 0 
L 628 4666 
z
" transform="scale(0.015625)"/>
      </defs>
      <use xlink:href="#DejaVuSans-41"/>
      <use xlink:href="#DejaVuSans-50" x="68.408203"/>
      <use xlink:href="#DejaVuSans-4f" x="128.710938"/>
      <use xlink:href="#DejaVuSans-4c" x="207.421875"/>
      <use xlink:href="#DejaVuSans-4c" x="263.134766"/>
      <use xlink:href="#DejaVuSans-4f" x="315.222656"/>
     </g>
    </g>
   </g>
  </g>
 </g>
 <defs>
  <clipPath id="p52dfcb68b6">
   <rect x="33.3875" y="27.74175" width="415.417187" height="281.468562"/>
  </clipPath>
 </defs>
</svg>
