<?xml version="1.0" encoding="utf-8" standalone="no"?>
<!DOCTYPE svg PUBLIC "-//W3C//DTD SVG 1.1//EN"
  "http://www.w3.org/Graphics/SVG/1.1/DTD/svg11.dtd">
<svg xmlns:xlink="http://www.w3.org/1999/xlink" width="460.8pt" height="345.6pt" viewBox="0 0 460.8 345.6" xmlns="http://www.w3.org/2000/svg" version="1.1">
 <metadata>
  <rdf:RDF xmlns:dc="http://purl.org/dc/elements/1.1/" xmlns:cc="http://creativecommons.org/ns#" xmlns:rdf="http://www.w3.org/1999/02/22-rdf-syntax-ns#">
   <cc:Work>
    <dc:type rdf:resource="http://purl.org/dc/dcmitype/StillImage"/>
    <dc:date>2022-10-20T10:15:44.875155</dc:date>
    <dc:format>image/svg+xml</dc:format>
    <dc:creator>
     <cc:Agent>
      <dc:title>Matplotlib v3.5.2, https://matplotlib.org/</dc:title>
     </cc:Agent>
    </dc:creator>
   </cc:Work>
  </rdf:RDF>
 </metadata>
 <defs>
  <style type="text/css">*{stroke-linejoin: round; stroke-linecap: butt}</style>
 </defs>
 <g id="figure_1">
  <g id="patch_1">
   <path d="M 0 345.6 
L 460.8 345.6 
L 460.8 0 
L 0 0 
z
" style="fill: #f0f0f0"/>
  </g>
  <g id="axes_1">
   <g id="matplotlib.axis_1"/>
   <g id="matplotlib.axis_2"/>
   <g id="patch_2">
    <path d="M 349.2864 181.44 
C 349.2864 166.795158 346.413359 152.291566 340.830392 138.752663 
C 335.247426 125.213761 327.062231 112.900714 316.739519 102.512594 
L 237.312 181.44 
L 349.2864 181.44 
z
" style="fill: #008fd5"/>
   </g>
   <g id="patch_3">
    <path d="M 316.739519 102.512594 
C 298.874744 84.534621 275.424736 73.143909 250.249702 70.215533 
C 225.074668 67.287156 199.636196 72.991128 178.12182 86.388493 
L 237.312 181.44 
L 316.739519 102.512594 
z
" style="fill: #fc4f30"/>
   </g>
   <g id="patch_4">
    <path d="M 178.12182 86.388493 
C 154.407449 101.155833 137.057233 124.276256 129.505872 151.172774 
C 121.954511 178.069292 124.735506 206.841675 137.298325 231.794056 
L 237.312 181.44 
L 178.12182 86.388493 
z
" style="fill: #e5ae38"/>
   </g>
   <g id="patch_5">
    <path d="M 137.298325 231.794056 
C 142.221349 241.572211 148.551857 250.575749 156.087527 258.516918 
C 163.623197 266.458087 172.282886 273.251378 181.789833 278.679679 
L 237.312 181.44 
L 137.298325 231.794056 
z
" style="fill: #6d904f"/>
   </g>
   <g id="patch_6">
    <path d="M 181.789833 278.679679 
C 202.514125 290.51289 226.488426 295.416479 250.194602 292.670863 
C 273.900778 289.925247 296.119594 279.671636 313.590526 263.414708 
L 237.312 181.44 
L 181.789833 278.679679 
z
" style="fill: #8b8b8b"/>
   </g>
   <g id="patch_7">
    <path d="M 313.590526 263.414708 
C 322.272191 255.336306 329.615662 245.929784 335.345987 235.547334 
C 341.076313 225.164885 345.121072 213.937724 347.328825 202.286213 
L 237.312 181.44 
L 313.590526 263.414708 
z
" style="fill: #810f7c"/>
   </g>
   <g id="patch_8">
    <path d="M 347.328825 202.286213 
C 347.979561 198.851924 348.469133 195.389047 348.795932 191.908961 
C 349.122732 188.428875 349.2864 184.935394 349.2864 181.439997 
L 237.312 181.44 
L 347.328825 202.286213 
z
" style="fill: #008fd5"/>
   </g>
   <g id="text_1">
    <!-- APOLLO -->
    <g transform="translate(351.182232 138.347055)scale(0.14 -0.14)">
     <defs>
      <path id="DejaVuSans-41" d="M 2188 4044 
L 1331 1722 
L 3047 1722 
L 2188 4044 
z
M 1831 4666 
L 2547 4666 
L 4325 0 
L 3669 0 
L 3244 1197 
L 1141 1197 
L 716 0 
L 50 0 
L 1831 4666 
z
" transform="scale(0.015625)"/>
      <path id="DejaVuSans-50" d="M 1259 4147 
L 1259 2394 
L 2053 2394 
Q 2494 2394 2734 2622 
Q 2975 2850 2975 3272 
Q 2975 3691 2734 3919 
Q 2494 4147 2053 4147 
L 1259 4147 
z
M 628 4666 
L 2053 4666 
Q 2838 4666 3239 4311 
Q 3641 3956 3641 3272 
Q 3641 2581 3239 2228 
Q 2838 1875 2053 1875 
L 1259 1875 
L 1259 0 
L 628 0 
L 628 4666 
z
" transform="scale(0.015625)"/>
      <path id="DejaVuSans-4f" d="M 2522 4238 
Q 1834 4238 1429 3725 
Q 1025 3213 1025 2328 
Q 1025 1447 1429 934 
Q 1834 422 2522 422 
Q 3209 422 3611 934 
Q 4013 1447 4013 2328 
Q 4013 3213 3611 3725 
Q 3209 4238 2522 4238 
z
M 2522 4750 
Q 3503 4750 4090 4092 
Q 4678 3434 4678 2328 
Q 4678 1225 4090 567 
Q 3503 -91 2522 -91 
Q 1538 -91 948 565 
Q 359 1222 359 2328 
Q 359 3434 948 4092 
Q 1538 4750 2522 4750 
z
" transform="scale(0.015625)"/>
      <path id="DejaVuSans-4c" d="M 628 4666 
L 1259 4666 
L 1259 531 
L 3531 531 
L 3531 0 
L 628 0 
L 628 4666 
z
" transform="scale(0.015625)"/>
     </defs>
     <use xlink:href="#DejaVuSans-41"/>
     <use xlink:href="#DejaVuSans-50" x="68.408203"/>
     <use xlink:href="#DejaVuSans-4f" x="128.710938"/>
     <use xlink:href="#DejaVuSans-4c" x="207.421875"/>
     <use xlink:href="#DejaVuSans-4c" x="263.134766"/>
     <use xlink:href="#DejaVuSans-4f" x="315.222656"/>
    </g>
   </g>
   <g id="text_2">
    <!-- ETC -->
    <g transform="translate(251.543472 62.956211)scale(0.14 -0.14)">
     <defs>
      <path id="DejaVuSans-45" d="M 628 4666 
L 3578 4666 
L 3578 4134 
L 1259 4134 
L 1259 2753 
L 3481 2753 
L 3481 2222 
L 1259 2222 
L 1259 531 
L 3634 531 
L 3634 0 
L 628 0 
L 628 4666 
z
" transform="scale(0.015625)"/>
      <path id="DejaVuSans-54" d="M -19 4666 
L 3928 4666 
L 3928 4134 
L 2272 4134 
L 2272 0 
L 1638 0 
L 1638 4134 
L -19 4134 
L -19 4666 
z
" transform="scale(0.015625)"/>
      <path id="DejaVuSans-43" d="M 4122 4306 
L 4122 3641 
Q 3803 3938 3442 4084 
Q 3081 4231 2675 4231 
Q 1875 4231 1450 3742 
Q 1025 3253 1025 2328 
Q 1025 1406 1450 917 
Q 1875 428 2675 428 
Q 3081 428 3442 575 
Q 3803 722 4122 1019 
L 4122 359 
Q 3791 134 3420 21 
Q 3050 -91 2638 -91 
Q 1578 -91 968 557 
Q 359 1206 359 2328 
Q 359 3453 968 4101 
Q 1578 4750 2638 4750 
Q 3056 4750 3426 4639 
Q 3797 4528 4122 4306 
z
" transform="scale(0.015625)"/>
     </defs>
     <use xlink:href="#DejaVuSans-45"/>
     <use xlink:href="#DejaVuSans-54" x="63.183594"/>
     <use xlink:href="#DejaVuSans-43" x="118.392578"/>
    </g>
   </g>
   <g id="text_3">
    <!-- ETL -->
    <g transform="translate(93.527446 152.009176)scale(0.14 -0.14)">
     <use xlink:href="#DejaVuSans-45"/>
     <use xlink:href="#DejaVuSans-54" x="63.183594"/>
     <use xlink:href="#DejaVuSans-4c" x="124.267578"/>
    </g>
   </g>
   <g id="text_4">
    <!-- GEM -->
    <g transform="translate(116.191642 270.087734)scale(0.14 -0.14)">
     <defs>
      <path id="DejaVuSans-47" d="M 3809 666 
L 3809 1919 
L 2778 1919 
L 2778 2438 
L 4434 2438 
L 4434 434 
Q 4069 175 3628 42 
Q 3188 -91 2688 -91 
Q 1594 -91 976 548 
Q 359 1188 359 2328 
Q 359 3472 976 4111 
Q 1594 4750 2688 4750 
Q 3144 4750 3555 4637 
Q 3966 4525 4313 4306 
L 4313 3634 
Q 3963 3931 3569 4081 
Q 3175 4231 2741 4231 
Q 1884 4231 1454 3753 
Q 1025 3275 1025 2328 
Q 1025 1384 1454 906 
Q 1884 428 2741 428 
Q 3075 428 3337 486 
Q 3600 544 3809 666 
z
" transform="scale(0.015625)"/>
      <path id="DejaVuSans-4d" d="M 628 4666 
L 1569 4666 
L 2759 1491 
L 3956 4666 
L 4897 4666 
L 4897 0 
L 4281 0 
L 4281 4097 
L 3078 897 
L 2444 897 
L 1241 4097 
L 1241 0 
L 628 0 
L 628 4666 
z
" transform="scale(0.015625)"/>
     </defs>
     <use xlink:href="#DejaVuSans-47"/>
     <use xlink:href="#DejaVuSans-45" x="77.490234"/>
     <use xlink:href="#DejaVuSans-4d" x="140.673828"/>
    </g>
   </g>
   <g id="text_5">
    <!-- L0MDT -->
    <g transform="translate(251.482863 307.657074)scale(0.14 -0.14)">
     <defs>
      <path id="DejaVuSans-30" d="M 2034 4250 
Q 1547 4250 1301 3770 
Q 1056 3291 1056 2328 
Q 1056 1369 1301 889 
Q 1547 409 2034 409 
Q 2525 409 2770 889 
Q 3016 1369 3016 2328 
Q 3016 3291 2770 3770 
Q 2525 4250 2034 4250 
z
M 2034 4750 
Q 2819 4750 3233 4129 
Q 3647 3509 3647 2328 
Q 3647 1150 3233 529 
Q 2819 -91 2034 -91 
Q 1250 -91 836 529 
Q 422 1150 422 2328 
Q 422 3509 836 4129 
Q 1250 4750 2034 4750 
z
" transform="scale(0.015625)"/>
      <path id="DejaVuSans-44" d="M 1259 4147 
L 1259 519 
L 2022 519 
Q 2988 519 3436 956 
Q 3884 1394 3884 2338 
Q 3884 3275 3436 3711 
Q 2988 4147 2022 4147 
L 1259 4147 
z
M 628 4666 
L 1925 4666 
Q 3281 4666 3915 4102 
Q 4550 3538 4550 2338 
Q 4550 1131 3912 565 
Q 3275 0 1925 0 
L 628 0 
L 628 4666 
z
" transform="scale(0.015625)"/>
     </defs>
     <use xlink:href="#DejaVuSans-4c"/>
     <use xlink:href="#DejaVuSans-30" x="55.712891"/>
     <use xlink:href="#DejaVuSans-4d" x="119.335938"/>
     <use xlink:href="#DejaVuSans-44" x="205.615234"/>
     <use xlink:href="#DejaVuSans-54" x="282.617188"/>
    </g>
   </g>
   <g id="text_6">
    <!-- ME0 -->
    <g transform="translate(345.149386 244.821193)scale(0.14 -0.14)">
     <use xlink:href="#DejaVuSans-4d"/>
     <use xlink:href="#DejaVuSans-45" x="86.279297"/>
     <use xlink:href="#DejaVuSans-30" x="149.462891"/>
    </g>
   </g>
   <g id="text_7">
    <!-- OTHER -->
    <g transform="translate(359.944325 196.818982)scale(0.14 -0.14)">
     <defs>
      <path id="DejaVuSans-48" d="M 628 4666 
L 1259 4666 
L 1259 2753 
L 3553 2753 
L 3553 4666 
L 4184 4666 
L 4184 0 
L 3553 0 
L 3553 2222 
L 1259 2222 
L 1259 0 
L 628 0 
L 628 4666 
z
" transform="scale(0.015625)"/>
      <path id="DejaVuSans-52" d="M 2841 2188 
Q 3044 2119 3236 1894 
Q 3428 1669 3622 1275 
L 4263 0 
L 3584 0 
L 2988 1197 
Q 2756 1666 2539 1819 
Q 2322 1972 1947 1972 
L 1259 1972 
L 1259 0 
L 628 0 
L 628 4666 
L 2053 4666 
Q 2853 4666 3247 4331 
Q 3641 3997 3641 3322 
Q 3641 2881 3436 2590 
Q 3231 2300 2841 2188 
z
M 1259 4147 
L 1259 2491 
L 2053 2491 
Q 2509 2491 2742 2702 
Q 2975 2913 2975 3322 
Q 2975 3731 2742 3939 
Q 2509 4147 2053 4147 
L 1259 4147 
z
" transform="scale(0.015625)"/>
     </defs>
     <use xlink:href="#DejaVuSans-4f"/>
     <use xlink:href="#DejaVuSans-54" x="78.710938"/>
     <use xlink:href="#DejaVuSans-48" x="139.794922"/>
     <use xlink:href="#DejaVuSans-45" x="214.990234"/>
     <use xlink:href="#DejaVuSans-52" x="278.173828"/>
    </g>
   </g>
  </g>
 </g>
</svg>
