<svg class="marks" width="994" height="693" viewBox="0 0 994 693" version="1.1" xmlns="http://www.w3.org/2000/svg" xmlns:xlink="http://www.w3.org/1999/xlink"><rect width="994" height="693" style="fill: white;"></rect><g transform="translate(51,10)"><g class="mark-group role-frame root"><g transform="translate(0,0)"><path class="background" d="M0.5,0.5h800v600h-800Z" style="fill: none; stroke: #ddd;"></path><g><g class="mark-group role-axis"><g transform="translate(0.5,0.5)"><path class="background" d="M0,0h0v0h0Z" style="pointer-events: none; fill: none;"></path><g><g class="mark-rule role-axis-grid" style="pointer-events: none;"><line transform="translate(0,600)" x2="800" y2="0" style="fill: none; stroke: #ddd; stroke-width: 1; opacity: 1;"></line><line transform="translate(0,567)" x2="800" y2="0" style="fill: none; stroke: #ddd; stroke-width: 1; opacity: 1;"></line><line transform="translate(0,533)" x2="800" y2="0" style="fill: none; stroke: #ddd; stroke-width: 1; opacity: 1;"></line><line transform="translate(0,500)" x2="800" y2="0" style="fill: none; stroke: #ddd; stroke-width: 1; opacity: 1;"></line><line transform="translate(0,467)" x2="800" y2="0" style="fill: none; stroke: #ddd; stroke-width: 1; opacity: 1;"></line><line transform="translate(0,433)" x2="800" y2="0" style="fill: none; stroke: #ddd; stroke-width: 1; opacity: 1;"></line><line transform="translate(0,400)" x2="800" y2="0" style="fill: none; stroke: #ddd; stroke-width: 1; opacity: 1;"></line><line transform="translate(0,367)" x2="800" y2="0" style="fill: none; stroke: #ddd; stroke-width: 1; opacity: 1;"></line><line transform="translate(0,333)" x2="800" y2="0" style="fill: none; stroke: #ddd; stroke-width: 1; opacity: 1;"></line><line transform="translate(0,300)" x2="800" y2="0" style="fill: none; stroke: #ddd; stroke-width: 1; opacity: 1;"></line><line transform="translate(0,267)" x2="800" y2="0" style="fill: none; stroke: #ddd; stroke-width: 1; opacity: 1;"></line><line transform="translate(0,233)" x2="800" y2="0" style="fill: none; stroke: #ddd; stroke-width: 1; opacity: 1;"></line><line transform="translate(0,200)" x2="800" y2="0" style="fill: none; stroke: #ddd; stroke-width: 1; opacity: 1;"></line><line transform="translate(0,167)" x2="800" y2="0" style="fill: none; stroke: #ddd; stroke-width: 1; opacity: 1;"></line><line transform="translate(0,133)" x2="800" y2="0" style="fill: none; stroke: #ddd; stroke-width: 1; opacity: 1;"></line><line transform="translate(0,100)" x2="800" y2="0" style="fill: none; stroke: #ddd; stroke-width: 1; opacity: 1;"></line><line transform="translate(0,67)" x2="800" y2="0" style="fill: none; stroke: #ddd; stroke-width: 1; opacity: 1;"></line><line transform="translate(0,33)" x2="800" y2="0" style="fill: none; stroke: #ddd; stroke-width: 1; opacity: 1;"></line><line transform="translate(0,0)" x2="800" y2="0" style="fill: none; stroke: #ddd; stroke-width: 1; opacity: 1;"></line></g></g><path class="foreground" d="" style="pointer-events: none; display: none; fill: none;"></path></g></g><g class="mark-group role-axis"><g transform="translate(0.5,600.5)"><path class="background" d="M0,0h0v0h0Z" style="pointer-events: none; fill: none;"></path><g><g class="mark-rule role-axis-tick" style="pointer-events: none;"><line transform="translate(13,0)" x2="0" y2="5" style="fill: none; stroke: #888; stroke-width: 1; opacity: 1;"></line><line transform="translate(41,0)" x2="0" y2="5" style="fill: none; stroke: #888; stroke-width: 1; opacity: 1;"></line><line transform="translate(68,0)" x2="0" y2="5" style="fill: none; stroke: #888; stroke-width: 1; opacity: 1;"></line><line transform="translate(96,0)" x2="0" y2="5" style="fill: none; stroke: #888; stroke-width: 1; opacity: 1;"></line><line transform="translate(124,0)" x2="0" y2="5" style="fill: none; stroke: #888; stroke-width: 1; opacity: 1;"></line><line transform="translate(151,0)" x2="0" y2="5" style="fill: none; stroke: #888; stroke-width: 1; opacity: 1;"></line><line transform="translate(179,0)" x2="0" y2="5" style="fill: none; stroke: #888; stroke-width: 1; opacity: 1;"></line><line transform="translate(206,0)" x2="0" y2="5" style="fill: none; stroke: #888; stroke-width: 1; opacity: 1;"></line><line transform="translate(234,0)" x2="0" y2="5" style="fill: none; stroke: #888; stroke-width: 1; opacity: 1;"></line><line transform="translate(262,0)" x2="0" y2="5" style="fill: none; stroke: #888; stroke-width: 1; opacity: 1;"></line><line transform="translate(289,0)" x2="0" y2="5" style="fill: none; stroke: #888; stroke-width: 1; opacity: 1;"></line><line transform="translate(317,0)" x2="0" y2="5" style="fill: none; stroke: #888; stroke-width: 1; opacity: 1;"></line><line transform="translate(344,0)" x2="0" y2="5" style="fill: none; stroke: #888; stroke-width: 1; opacity: 1;"></line><line transform="translate(372,0)" x2="0" y2="5" style="fill: none; stroke: #888; stroke-width: 1; opacity: 1;"></line><line transform="translate(400,0)" x2="0" y2="5" style="fill: none; stroke: #888; stroke-width: 1; opacity: 1;"></line><line transform="translate(427,0)" x2="0" y2="5" style="fill: none; stroke: #888; stroke-width: 1; opacity: 1;"></line><line transform="translate(455,0)" x2="0" y2="5" style="fill: none; stroke: #888; stroke-width: 1; opacity: 1;"></line><line transform="translate(482,0)" x2="0" y2="5" style="fill: none; stroke: #888; stroke-width: 1; opacity: 1;"></line><line transform="translate(510,0)" x2="0" y2="5" style="fill: none; stroke: #888; stroke-width: 1; opacity: 1;"></line><line transform="translate(537,0)" x2="0" y2="5" style="fill: none; stroke: #888; stroke-width: 1; opacity: 1;"></line><line transform="translate(565,0)" x2="0" y2="5" style="fill: none; stroke: #888; stroke-width: 1; opacity: 1;"></line><line transform="translate(593,0)" x2="0" y2="5" style="fill: none; stroke: #888; stroke-width: 1; opacity: 1;"></line><line transform="translate(620,0)" x2="0" y2="5" style="fill: none; stroke: #888; stroke-width: 1; opacity: 1;"></line><line transform="translate(648,0)" x2="0" y2="5" style="fill: none; stroke: #888; stroke-width: 1; opacity: 1;"></line><line transform="translate(675,0)" x2="0" y2="5" style="fill: none; stroke: #888; stroke-width: 1; opacity: 1;"></line><line transform="translate(703,0)" x2="0" y2="5" style="fill: none; stroke: #888; stroke-width: 1; opacity: 1;"></line><line transform="translate(731,0)" x2="0" y2="5" style="fill: none; stroke: #888; stroke-width: 1; opacity: 1;"></line><line transform="translate(758,0)" x2="0" y2="5" style="fill: none; stroke: #888; stroke-width: 1; opacity: 1;"></line><line transform="translate(786,0)" x2="0" y2="5" style="fill: none; stroke: #888; stroke-width: 1; opacity: 1;"></line></g><g class="mark-text role-axis-label" style="pointer-events: none;"><text text-anchor="end" transform="translate(13.293103448275891,7) rotate(270) translate(0,3)" style="font-family: sans-serif; font-size: 10px; fill: #000; opacity: 1;">2021-01</text><text text-anchor="end" transform="translate(40.879310344827616,7) rotate(270) translate(0,3)" style="font-family: sans-serif; font-size: 10px; fill: #000; opacity: 1;">2021-02</text><text text-anchor="end" transform="translate(68.46551724137933,7) rotate(270) translate(0,3)" style="font-family: sans-serif; font-size: 10px; fill: #000; opacity: 1;">2021-03</text><text text-anchor="end" transform="translate(96.05172413793106,7) rotate(270) translate(0,3)" style="font-family: sans-serif; font-size: 10px; fill: #000; opacity: 1;">2021-04</text><text text-anchor="end" transform="translate(123.63793103448278,7) rotate(270) translate(0,3)" style="font-family: sans-serif; font-size: 10px; fill: #000; opacity: 1;">2021-05</text><text text-anchor="end" transform="translate(151.2241379310345,7) rotate(270) translate(0,3)" style="font-family: sans-serif; font-size: 10px; fill: #000; opacity: 1;">2021-06</text><text text-anchor="end" transform="translate(178.81034482758625,7) rotate(270) translate(0,3)" style="font-family: sans-serif; font-size: 10px; fill: #000; opacity: 1;">2021-07</text><text text-anchor="end" transform="translate(206.39655172413796,7) rotate(270) translate(0,3)" style="font-family: sans-serif; font-size: 10px; fill: #000; opacity: 1;">2021-08</text><text text-anchor="end" transform="translate(233.98275862068968,7) rotate(270) translate(0,3)" style="font-family: sans-serif; font-size: 10px; fill: #000; opacity: 1;">2021-09</text><text text-anchor="end" transform="translate(261.5689655172414,7) rotate(270) translate(0,3)" style="font-family: sans-serif; font-size: 10px; fill: #000; opacity: 1;">2021-10</text><text text-anchor="end" transform="translate(289.1551724137931,7) rotate(270) translate(0,3)" style="font-family: sans-serif; font-size: 10px; fill: #000; opacity: 1;">2021-11</text><text text-anchor="end" transform="translate(316.7413793103448,7) rotate(270) translate(0,3)" style="font-family: sans-serif; font-size: 10px; fill: #000; opacity: 1;">2021-12</text><text text-anchor="end" transform="translate(344.32758620689657,7) rotate(270) translate(0,3)" style="font-family: sans-serif; font-size: 10px; fill: #000; opacity: 1;">2022-01</text><text text-anchor="end" transform="translate(371.91379310344826,7) rotate(270) translate(0,3)" style="font-family: sans-serif; font-size: 10px; fill: #000; opacity: 1;">2022-02</text><text text-anchor="end" transform="translate(399.5,7) rotate(270) translate(0,3)" style="font-family: sans-serif; font-size: 10px; fill: #000; opacity: 1;">2022-03</text><text text-anchor="end" transform="translate(427.0862068965517,7) rotate(270) translate(0,3)" style="font-family: sans-serif; font-size: 10px; fill: #000; opacity: 1;">2022-04</text><text text-anchor="end" transform="translate(454.67241379310343,7) rotate(270) translate(0,3)" style="font-family: sans-serif; font-size: 10px; fill: #000; opacity: 1;">2022-05</text><text text-anchor="end" transform="translate(482.2586206896552,7) rotate(270) translate(0,3)" style="font-family: sans-serif; font-size: 10px; fill: #000; opacity: 1;">2022-06</text><text text-anchor="end" transform="translate(509.84482758620686,7) rotate(270) translate(0,3)" style="font-family: sans-serif; font-size: 10px; fill: #000; opacity: 1;">2022-07</text><text text-anchor="end" transform="translate(537.4310344827585,7) rotate(270) translate(0,3)" style="font-family: sans-serif; font-size: 10px; fill: #000; opacity: 1;">2022-08</text><text text-anchor="end" transform="translate(565.0172413793103,7) rotate(270) translate(0,3)" style="font-family: sans-serif; font-size: 10px; fill: #000; opacity: 1;">2022-09</text><text text-anchor="end" transform="translate(592.603448275862,7) rotate(270) translate(0,3)" style="font-family: sans-serif; font-size: 10px; fill: #000; opacity: 1;">2022-10</text><text text-anchor="end" transform="translate(620.1896551724138,7) rotate(270) translate(0,3)" style="font-family: sans-serif; font-size: 10px; fill: #000; opacity: 1;">2022-11</text><text text-anchor="end" transform="translate(647.7758620689655,7) rotate(270) translate(0,3)" style="font-family: sans-serif; font-size: 10px; fill: #000; opacity: 1;">2022-12</text><text text-anchor="end" transform="translate(675.3620689655173,7) rotate(270) translate(0,3)" style="font-family: sans-serif; font-size: 10px; fill: #000; opacity: 1;">2023-01</text><text text-anchor="end" transform="translate(702.948275862069,7) rotate(270) translate(0,3)" style="font-family: sans-serif; font-size: 10px; fill: #000; opacity: 1;">2023-02</text><text text-anchor="end" transform="translate(730.5344827586206,7) rotate(270) translate(0,3)" style="font-family: sans-serif; font-size: 10px; fill: #000; opacity: 1;">2023-03</text><text text-anchor="end" transform="translate(758.1206896551724,7) rotate(270) translate(0,3)" style="font-family: sans-serif; font-size: 10px; fill: #000; opacity: 1;">2023-04</text><text text-anchor="end" transform="translate(785.7068965517241,7) rotate(270) translate(0,3)" style="font-family: sans-serif; font-size: 10px; fill: #000; opacity: 1;">2023-05</text></g><g class="mark-rule role-axis-domain" style="pointer-events: none;"><line transform="translate(0,0)" x2="800" y2="0" style="fill: none; stroke: #888; stroke-width: 1; opacity: 1;"></line></g><g class="mark-text role-axis-title" style="pointer-events: none;"><text text-anchor="middle" transform="translate(400,76.00000000000001)" style="font-family: sans-serif; font-size: 11px; font-weight: bold; fill: #000; opacity: 1;">Date</text></g></g><path class="foreground" d="" style="pointer-events: none; display: none; fill: none;"></path></g></g><g class="mark-group role-axis"><g transform="translate(0.5,0.5)"><path class="background" d="M0,0h0v0h0Z" style="pointer-events: none; fill: none;"></path><g><g class="mark-rule role-axis-tick" style="pointer-events: none;"><line transform="translate(0,600)" x2="-5" y2="0" style="fill: none; stroke: #888; stroke-width: 1; opacity: 1;"></line><line transform="translate(0,567)" x2="-5" y2="0" style="fill: none; stroke: #888; stroke-width: 1; opacity: 1;"></line><line transform="translate(0,533)" x2="-5" y2="0" style="fill: none; stroke: #888; stroke-width: 1; opacity: 1;"></line><line transform="translate(0,500)" x2="-5" y2="0" style="fill: none; stroke: #888; stroke-width: 1; opacity: 1;"></line><line transform="translate(0,467)" x2="-5" y2="0" style="fill: none; stroke: #888; stroke-width: 1; opacity: 1;"></line><line transform="translate(0,433)" x2="-5" y2="0" style="fill: none; stroke: #888; stroke-width: 1; opacity: 1;"></line><line transform="translate(0,400)" x2="-5" y2="0" style="fill: none; stroke: #888; stroke-width: 1; opacity: 1;"></line><line transform="translate(0,367)" x2="-5" y2="0" style="fill: none; stroke: #888; stroke-width: 1; opacity: 1;"></line><line transform="translate(0,333)" x2="-5" y2="0" style="fill: none; stroke: #888; stroke-width: 1; opacity: 1;"></line><line transform="translate(0,300)" x2="-5" y2="0" style="fill: none; stroke: #888; stroke-width: 1; opacity: 1;"></line><line transform="translate(0,267)" x2="-5" y2="0" style="fill: none; stroke: #888; stroke-width: 1; opacity: 1;"></line><line transform="translate(0,233)" x2="-5" y2="0" style="fill: none; stroke: #888; stroke-width: 1; opacity: 1;"></line><line transform="translate(0,200)" x2="-5" y2="0" style="fill: none; stroke: #888; stroke-width: 1; opacity: 1;"></line><line transform="translate(0,167)" x2="-5" y2="0" style="fill: none; stroke: #888; stroke-width: 1; opacity: 1;"></line><line transform="translate(0,133)" x2="-5" y2="0" style="fill: none; stroke: #888; stroke-width: 1; opacity: 1;"></line><line transform="translate(0,100)" x2="-5" y2="0" style="fill: none; stroke: #888; stroke-width: 1; opacity: 1;"></line><line transform="translate(0,67)" x2="-5" y2="0" style="fill: none; stroke: #888; stroke-width: 1; opacity: 1;"></line><line transform="translate(0,33)" x2="-5" y2="0" style="fill: none; stroke: #888; stroke-width: 1; opacity: 1;"></line><line transform="translate(0,0)" x2="-5" y2="0" style="fill: none; stroke: #888; stroke-width: 1; opacity: 1;"></line></g><g class="mark-text role-axis-label" style="pointer-events: none;"><text text-anchor="end" transform="translate(-7,603)" style="font-family: sans-serif; font-size: 10px; fill: #000; opacity: 1;">0</text><text text-anchor="end" transform="translate(-7,569.6666666666666)" style="font-family: sans-serif; font-size: 10px; fill: #000; opacity: 1;">10</text><text text-anchor="end" transform="translate(-7,536.3333333333333)" style="font-family: sans-serif; font-size: 10px; fill: #000; opacity: 1;">20</text><text text-anchor="end" transform="translate(-7,503)" style="font-family: sans-serif; font-size: 10px; fill: #000; opacity: 1;">30</text><text text-anchor="end" transform="translate(-7,469.6666666666667)" style="font-family: sans-serif; font-size: 10px; fill: #000; opacity: 1;">40</text><text text-anchor="end" transform="translate(-7,436.3333333333333)" style="font-family: sans-serif; font-size: 10px; fill: #000; opacity: 1;">50</text><text text-anchor="end" transform="translate(-7,403.00000000000006)" style="font-family: sans-serif; font-size: 10px; fill: #000; opacity: 1;">60</text><text text-anchor="end" transform="translate(-7,369.6666666666667)" style="font-family: sans-serif; font-size: 10px; fill: #000; opacity: 1;">70</text><text text-anchor="end" transform="translate(-7,336.33333333333337)" style="font-family: sans-serif; font-size: 10px; fill: #000; opacity: 1;">80</text><text text-anchor="end" transform="translate(-7,303)" style="font-family: sans-serif; font-size: 10px; fill: #000; opacity: 1;">90</text><text text-anchor="end" transform="translate(-7,269.66666666666663)" style="font-family: sans-serif; font-size: 10px; fill: #000; opacity: 1;">100</text><text text-anchor="end" transform="translate(-7,236.33333333333331)" style="font-family: sans-serif; font-size: 10px; fill: #000; opacity: 1;">110</text><text text-anchor="end" transform="translate(-7,203.00000000000003)" style="font-family: sans-serif; font-size: 10px; fill: #000; opacity: 1;">120</text><text text-anchor="end" transform="translate(-7,169.66666666666669)" style="font-family: sans-serif; font-size: 10px; fill: #000; opacity: 1;">130</text><text text-anchor="end" transform="translate(-7,136.33333333333331)" style="font-family: sans-serif; font-size: 10px; fill: #000; opacity: 1;">140</text><text text-anchor="end" transform="translate(-7,102.99999999999997)" style="font-family: sans-serif; font-size: 10px; fill: #000; opacity: 1;">150</text><text text-anchor="end" transform="translate(-7,69.6666666666667)" style="font-family: sans-serif; font-size: 10px; fill: #000; opacity: 1;">160</text><text text-anchor="end" transform="translate(-7,36.33333333333335)" style="font-family: sans-serif; font-size: 10px; fill: #000; opacity: 1;">170</text><text text-anchor="end" transform="translate(-7,3)" style="font-family: sans-serif; font-size: 10px; fill: #000; opacity: 1;">180</text></g><g class="mark-rule role-axis-domain" style="pointer-events: none;"><line transform="translate(0,600)" x2="0" y2="-600" style="fill: none; stroke: #888; stroke-width: 1; opacity: 1;"></line></g><g class="mark-text role-axis-title" style="pointer-events: none;"><text text-anchor="middle" transform="translate(-35,300) rotate(-90) translate(0,-2)" style="font-family: sans-serif; font-size: 11px; font-weight: bold; fill: #000; opacity: 1;">Sum of Hours</text></g></g><path class="foreground" d="" style="pointer-events: none; display: none; fill: none;"></path></g></g><g class="mark-rect role-mark marks"><path d="M1.3793103448276156,243.33333333333334h24.82758620689655v10.000000000000028h-24.82758620689655Z" style="fill: #e45756;"></path><path d="M1.3793103448276156,171.66666666666666h24.82758620689655v71.66666666666669h-24.82758620689655Z" style="fill: #4c78a8;"></path><path d="M1.3793103448276156,253.33333333333337h24.82758620689655v198.33333333333331h-24.82758620689655Z" style="fill: #72b7b2;"></path><path d="M1.3793103448276156,503.33333333333337h24.82758620689655v70h-24.82758620689655Z" style="fill: #eeca3b;"></path><path d="M1.3793103448276156,451.6666666666667h24.82758620689655v51.666666666666686h-24.82758620689655Z" style="fill: #54a24b;"></path><path d="M1.3793103448276156,573.3333333333334h24.82758620689655v26.66666666666663h-24.82758620689655Z" style="fill: #ff9da6;"></path><path d="M28.965517241379338,338.3333333333333h24.82758620689655v63.33333333333337h-24.82758620689655Z" style="fill: #72b7b2;"></path><path d="M28.965517241379338,448.3333333333333h24.82758620689655v125.00000000000006h-24.82758620689655Z" style="fill: #eeca3b;"></path><path d="M28.965517241379338,245h24.82758620689655v93.33333333333331h-24.82758620689655Z" style="fill: #4c78a8;"></path><path d="M28.965517241379338,401.6666666666667h24.82758620689655v46.66666666666663h-24.82758620689655Z" style="fill: #54a24b;"></path><path d="M28.965517241379338,573.3333333333334h24.82758620689655v26.66666666666663h-24.82758620689655Z" style="fill: #ff9da6;"></path><path d="M56.55172413793106,253.33333333333337h24.82758620689655v41.66666666666663h-24.82758620689655Z" style="fill: #72b7b2;"></path><path d="M56.55172413793106,398.3333333333333h24.82758620689655v178.33333333333331h-24.82758620689655Z" style="fill: #eeca3b;"></path><path d="M56.55172413793106,163.33333333333334h24.82758620689655v90.00000000000003h-24.82758620689655Z" style="fill: #4c78a8;"></path><path d="M56.55172413793106,295h24.82758620689655v103.33333333333331h-24.82758620689655Z" style="fill: #54a24b;"></path><path d="M56.55172413793106,576.6666666666666h24.82758620689655v23.33333333333337h-24.82758620689655Z" style="fill: #b279a2;"></path><path d="M84.13793103448279,248.33333333333331h24.82758620689655v13.333333333333371h-24.82758620689655Z" style="fill: #e45756;"></path><path d="M84.13793103448279,438.33333333333337h24.82758620689655v116.66666666666663h-24.82758620689655Z" style="fill: #eeca3b;"></path><path d="M84.13793103448279,320h24.82758620689655v118.33333333333337h-24.82758620689655Z" style="fill: #54a24b;"></path><path d="M84.13793103448279,555h24.82758620689655v18.33333333333337h-24.82758620689655Z" style="fill: #b279a2;"></path><path d="M84.13793103448279,261.6666666666667h24.82758620689655v58.333333333333314h-24.82758620689655Z" style="fill: #72b7b2;"></path><path d="M84.13793103448279,170h24.82758620689655v78.33333333333331h-24.82758620689655Z" style="fill: #4c78a8;"></path><path d="M84.13793103448279,573.3333333333334h24.82758620689655v26.66666666666663h-24.82758620689655Z" style="fill: #ff9da6;"></path><path d="M111.7241379310345,450h24.82758620689655v125h-24.82758620689655Z" style="fill: #eeca3b;"></path><path d="M111.7241379310345,260h24.82758620689655v63.333333333333314h-24.82758620689655Z" style="fill: #72b7b2;"></path><path d="M111.7241379310345,323.3333333333333h24.82758620689655v126.66666666666669h-24.82758620689655Z" style="fill: #54a24b;"></path><path d="M111.7241379310345,151.66666666666666h24.82758620689655v108.33333333333334h-24.82758620689655Z" style="fill: #4c78a8;"></path><path d="M111.7241379310345,575h24.82758620689655v25h-24.82758620689655Z" style="fill: #b279a2;"></path><path d="M139.31034482758622,411.6666666666667h24.82758620689655v81.66666666666663h-24.82758620689655Z" style="fill: #eeca3b;"></path><path d="M139.31034482758622,493.3333333333333h24.82758620689655v80.00000000000006h-24.82758620689655Z" style="fill: #b279a2;"></path><path d="M139.31034482758622,241.66666666666669h24.82758620689655v61.66666666666663h-24.82758620689655Z" style="fill: #72b7b2;"></path><path d="M139.31034482758622,0h24.82758620689655v241.66666666666669h-24.82758620689655Z" style="fill: #4c78a8;"></path><path d="M139.31034482758622,303.3333333333333h24.82758620689655v108.33333333333337h-24.82758620689655Z" style="fill: #54a24b;"></path><path d="M139.31034482758622,573.3333333333334h24.82758620689655v26.66666666666663h-24.82758620689655Z" style="fill: #ff9da6;"></path><path d="M166.89655172413796,488.3333333333333h24.82758620689655v53.333333333333314h-24.82758620689655Z" style="fill: #eeca3b;"></path><path d="M166.89655172413796,131.66666666666666h24.82758620689655v138.33333333333334h-24.82758620689655Z" style="fill: #4c78a8;"></path><path d="M166.89655172413796,391.6666666666667h24.82758620689655v96.66666666666663h-24.82758620689655Z" style="fill: #54a24b;"></path><path d="M166.89655172413796,573.3333333333334h24.82758620689655v26.66666666666663h-24.82758620689655Z" style="fill: #ff9da6;"></path><path d="M166.89655172413796,280h24.82758620689655v111.66666666666669h-24.82758620689655Z" style="fill: #72b7b2;"></path><path d="M166.89655172413796,270h24.82758620689655v10h-24.82758620689655Z" style="fill: #e45756;"></path><path d="M166.89655172413796,541.6666666666666h24.82758620689655v31.666666666666742h-24.82758620689655Z" style="fill: #b279a2;"></path><path d="M194.48275862068968,79.99999999999999h24.82758620689655v48.33333333333336h-24.82758620689655Z" style="fill: #4c78a8;"></path><path d="M194.48275862068968,445h24.82758620689655v150h-24.82758620689655Z" style="fill: #eeca3b;"></path><path d="M194.48275862068968,135h24.82758620689655v196.66666666666669h-24.82758620689655Z" style="fill: #72b7b2;"></path><path d="M194.48275862068968,331.6666666666667h24.82758620689655v113.33333333333331h-24.82758620689655Z" style="fill: #54a24b;"></path><path d="M194.48275862068968,595h24.82758620689655v5h-24.82758620689655Z" style="fill: #b279a2;"></path><path d="M194.48275862068968,128.33333333333334h24.82758620689655v6.666666666666657h-24.82758620689655Z" style="fill: #e45756;"></path><path d="M222.0689655172414,566.6666666666666h24.82758620689655v6.6666666666667425h-24.82758620689655Z" style="fill: #b279a2;"></path><path d="M222.0689655172414,175.83333333333331h24.82758620689655v26.666666666666686h-24.82758620689655Z" style="fill: #e45756;"></path><path d="M222.0689655172414,483.33333333333337h24.82758620689655v83.33333333333326h-24.82758620689655Z" style="fill: #eeca3b;"></path><path d="M222.0689655172414,333.33333333333337h24.82758620689655v150h-24.82758620689655Z" style="fill: #54a24b;"></path><path d="M222.0689655172414,202.5h24.82758620689655v130.83333333333337h-24.82758620689655Z" style="fill: #72b7b2;"></path><path d="M222.0689655172414,85.83333333333336h24.82758620689655v89.99999999999996h-24.82758620689655Z" style="fill: #4c78a8;"></path><path d="M222.0689655172414,573.3333333333334h24.82758620689655v26.66666666666663h-24.82758620689655Z" style="fill: #ff9da6;"></path><path d="M249.6551724137931,238.33333333333334h24.82758620689655v40.00000000000003h-24.82758620689655Z" style="fill: #4c78a8;"></path><path d="M249.6551724137931,293.33333333333337h24.82758620689655v79.99999999999994h-24.82758620689655Z" style="fill: #72b7b2;"></path><path d="M249.6551724137931,373.3333333333333h24.82758620689655v66.66666666666674h-24.82758620689655Z" style="fill: #54a24b;"></path><path d="M249.6551724137931,278.33333333333337h24.82758620689655v15h-24.82758620689655Z" style="fill: #e45756;"></path><path d="M249.6551724137931,440.00000000000006h24.82758620689655v159.99999999999994h-24.82758620689655Z" style="fill: #eeca3b;"></path><path d="M277.2413793103448,289.99999999999994h24.82758620689655v193.33333333333343h-24.82758620689655Z" style="fill: #eeca3b;"></path><path d="M277.2413793103448,91.66666666666667h24.82758620689655v24.999999999999986h-24.82758620689655Z" style="fill: #e45756;"></path><path d="M277.2413793103448,200.00000000000003h24.82758620689655v89.99999999999991h-24.82758620689655Z" style="fill: #54a24b;"></path><path d="M277.2413793103448,64.99999999999997h24.82758620689655v26.6666666666667h-24.82758620689655Z" style="fill: #4c78a8;"></path><path d="M277.2413793103448,116.66666666666666h24.82758620689655v83.33333333333337h-24.82758620689655Z" style="fill: #72b7b2;"></path><path d="M277.2413793103448,483.33333333333337h24.82758620689655v9.999999999999943h-24.82758620689655Z" style="fill: #b279a2;"></path><path d="M277.2413793103448,493.3333333333333h24.82758620689655v106.66666666666669h-24.82758620689655Z" style="fill: #ff9da6;"></path><path d="M304.82758620689657,98.33333333333331h24.82758620689655v115h-24.82758620689655Z" style="fill: #54a24b;"></path><path d="M304.82758620689657,213.33333333333331h24.82758620689655v173.33333333333331h-24.82758620689655Z" style="fill: #eeca3b;"></path><path d="M304.82758620689657,23.333333333333318h24.82758620689655v13.333333333333353h-24.82758620689655Z" style="fill: #4c78a8;"></path><path d="M304.82758620689657,76.66666666666666h24.82758620689655v21.666666666666657h-24.82758620689655Z" style="fill: #72b7b2;"></path><path d="M304.82758620689657,36.66666666666667h24.82758620689655v39.999999999999986h-24.82758620689655Z" style="fill: #e45756;"></path><path d="M304.82758620689657,386.66666666666663h24.82758620689655v213.33333333333337h-24.82758620689655Z" style="fill: #ff9da6;"></path><path d="M332.4137931034483,193.33333333333331h24.82758620689655v11.666666666666686h-24.82758620689655Z" style="fill: #e45756;"></path><path d="M332.4137931034483,258.33333333333337h24.82758620689655v56.66666666666663h-24.82758620689655Z" style="fill: #54a24b;"></path><path d="M332.4137931034483,315h24.82758620689655v233.33333333333337h-24.82758620689655Z" style="fill: #eeca3b;"></path><path d="M332.4137931034483,205h24.82758620689655v53.33333333333337h-24.82758620689655Z" style="fill: #72b7b2;"></path><path d="M332.4137931034483,548.3333333333334h24.82758620689655v25h-24.82758620689655Z" style="fill: #b279a2;"></path><path d="M332.4137931034483,183.33333333333334h24.82758620689655v9.999999999999972h-24.82758620689655Z" style="fill: #4c78a8;"></path><path d="M332.4137931034483,573.3333333333334h24.82758620689655v26.66666666666663h-24.82758620689655Z" style="fill: #ff9da6;"></path><path d="M360,510h24.82758620689655v41.66666666666663h-24.82758620689655Z" style="fill: #eeca3b;"></path><path d="M360,160.00000000000003h24.82758620689655v76.66666666666666h-24.82758620689655Z" style="fill: #4c78a8;"></path><path d="M360,383.3333333333333h24.82758620689655v126.66666666666669h-24.82758620689655Z" style="fill: #54a24b;"></path><path d="M360,276.6666666666667h24.82758620689655v106.66666666666663h-24.82758620689655Z" style="fill: #72b7b2;"></path><path d="M360,236.66666666666669h24.82758620689655v40h-24.82758620689655Z" style="fill: #e45756;"></path><path d="M360,551.6666666666666h24.82758620689655v21.666666666666742h-24.82758620689655Z" style="fill: #b279a2;"></path><path d="M360,573.3333333333334h24.82758620689655v26.66666666666663h-24.82758620689655Z" style="fill: #ff9da6;"></path><path d="M387.58620689655174,214.99999999999997h24.82758620689655v150.00000000000009h-24.82758620689655Z" style="fill: #72b7b2;"></path><path d="M387.58620689655174,365.00000000000006h24.82758620689655v144.99999999999994h-24.82758620689655Z" style="fill: #54a24b;"></path><path d="M387.58620689655174,205h24.82758620689655v9.999999999999972h-24.82758620689655Z" style="fill: #e45756;"></path><path d="M387.58620689655174,101.66666666666664h24.82758620689655v103.33333333333336h-24.82758620689655Z" style="fill: #4c78a8;"></path><path d="M387.58620689655174,510h24.82758620689655v65h-24.82758620689655Z" style="fill: #eeca3b;"></path><path d="M387.58620689655174,575h24.82758620689655v25h-24.82758620689655Z" style="fill: #b279a2;"></path><path d="M415.17241379310343,311.66666666666663h24.82758620689655v155.00000000000006h-24.82758620689655Z" style="fill: #72b7b2;"></path><path d="M415.17241379310343,500h24.82758620689655v70h-24.82758620689655Z" style="fill: #eeca3b;"></path><path d="M415.17241379310343,570h24.82758620689655v3.3333333333333712h-24.82758620689655Z" style="fill: #b279a2;"></path><path d="M415.17241379310343,466.6666666666667h24.82758620689655v33.333333333333314h-24.82758620689655Z" style="fill: #54a24b;"></path><path d="M415.17241379310343,573.3333333333334h24.82758620689655v26.66666666666663h-24.82758620689655Z" style="fill: #ff9da6;"></path><path d="M415.17241379310343,278.33333333333337h24.82758620689655v33.33333333333326h-24.82758620689655Z" style="fill: #e45756;"></path><path d="M415.17241379310343,270h24.82758620689655v8.333333333333371h-24.82758620689655Z" style="fill: #4c78a8;"></path><path d="M442.7586206896552,298.3333333333333h24.82758620689655v8.333333333333314h-24.82758620689655Z" style="fill: #e45756;"></path><path d="M442.7586206896552,483.33333333333337h24.82758620689655v88.33333333333326h-24.82758620689655Z" style="fill: #eeca3b;"></path><path d="M442.7586206896552,420h24.82758620689655v63.33333333333337h-24.82758620689655Z" style="fill: #54a24b;"></path><path d="M442.7586206896552,306.66666666666663h24.82758620689655v113.33333333333337h-24.82758620689655Z" style="fill: #72b7b2;"></path><path d="M442.7586206896552,285h24.82758620689655v13.333333333333314h-24.82758620689655Z" style="fill: #4c78a8;"></path><path d="M442.7586206896552,571.6666666666666h24.82758620689655v1.6666666666667425h-24.82758620689655Z" style="fill: #b279a2;"></path><path d="M442.7586206896552,573.3333333333334h24.82758620689655v26.66666666666663h-24.82758620689655Z" style="fill: #ff9da6;"></path><path d="M470.3448275862069,164.16666666666669h24.82758620689655v23.333333333333314h-24.82758620689655Z" style="fill: #e45756;"></path><path d="M470.3448275862069,187.5h24.82758620689655v230.83333333333331h-24.82758620689655Z" style="fill: #72b7b2;"></path><path d="M470.3448275862069,418.3333333333333h24.82758620689655v93.33333333333331h-24.82758620689655Z" style="fill: #54a24b;"></path><path d="M470.3448275862069,511.66666666666663h24.82758620689655v61.66666666666674h-24.82758620689655Z" style="fill: #eeca3b;"></path><path d="M470.3448275862069,125.00000000000003h24.82758620689655v39.16666666666666h-24.82758620689655Z" style="fill: #4c78a8;"></path><path d="M470.3448275862069,573.3333333333334h24.82758620689655v26.66666666666663h-24.82758620689655Z" style="fill: #ff9da6;"></path><path d="M497.9310344827586,558.3333333333334h24.82758620689655v15h-24.82758620689655Z" style="fill: #eeca3b;"></path><path d="M497.9310344827586,573.3333333333334h24.82758620689655v26.66666666666663h-24.82758620689655Z" style="fill: #ff9da6;"></path><path d="M497.9310344827586,316.6666666666667h24.82758620689655v186.66666666666669h-24.82758620689655Z" style="fill: #72b7b2;"></path><path d="M497.9310344827586,503.33333333333337h24.82758620689655v55h-24.82758620689655Z" style="fill: #54a24b;"></path><path d="M497.9310344827586,283.3333333333333h24.82758620689655v33.33333333333337h-24.82758620689655Z" style="fill: #e45756;"></path><path d="M497.9310344827586,280h24.82758620689655v3.3333333333333144h-24.82758620689655Z" style="fill: #4c78a8;"></path><path d="M525.5172413793102,241.66666666666669h24.82758620689655v50h-24.82758620689655Z" style="fill: #e45756;"></path><path d="M525.5172413793102,420h24.82758620689655v128.33333333333337h-24.82758620689655Z" style="fill: #54a24b;"></path><path d="M525.5172413793102,291.6666666666667h24.82758620689655v128.33333333333331h-24.82758620689655Z" style="fill: #72b7b2;"></path><path d="M525.5172413793102,563.3333333333334h24.82758620689655v36.66666666666663h-24.82758620689655Z" style="fill: #b279a2;"></path><path d="M525.5172413793102,235.00000000000003h24.82758620689655v6.666666666666657h-24.82758620689655Z" style="fill: #4c78a8;"></path><path d="M525.5172413793102,548.3333333333334h24.82758620689655v15h-24.82758620689655Z" style="fill: #eeca3b;"></path><path d="M553.1034482758621,271.66666666666663h24.82758620689655v183.33333333333337h-24.82758620689655Z" style="fill: #72b7b2;"></path><path d="M553.1034482758621,573.3333333333334h24.82758620689655v26.66666666666663h-24.82758620689655Z" style="fill: #ff9da6;"></path><path d="M553.1034482758621,540h24.82758620689655v33.33333333333337h-24.82758620689655Z" style="fill: #eeca3b;"></path><path d="M553.1034482758621,455h24.82758620689655v85h-24.82758620689655Z" style="fill: #54a24b;"></path><path d="M553.1034482758621,245h24.82758620689655v13.333333333333371h-24.82758620689655Z" style="fill: #4c78a8;"></path><path d="M553.1034482758621,258.33333333333337h24.82758620689655v13.333333333333258h-24.82758620689655Z" style="fill: #e45756;"></path><path d="M580.6896551724137,260h24.82758620689655v16.666666666666686h-24.82758620689655Z" style="fill: #4c78a8;"></path><path d="M580.6896551724137,493.3333333333333h24.82758620689655v78.33333333333331h-24.82758620689655Z" style="fill: #54a24b;"></path><path d="M580.6896551724137,585h24.82758620689655v15h-24.82758620689655Z" style="fill: #b279a2;"></path><path d="M580.6896551724137,296.6666666666667h24.82758620689655v196.66666666666663h-24.82758620689655Z" style="fill: #72b7b2;"></path><path d="M580.6896551724137,571.6666666666666h24.82758620689655v13.333333333333371h-24.82758620689655Z" style="fill: #eeca3b;"></path><path d="M580.6896551724137,276.6666666666667h24.82758620689655v20h-24.82758620689655Z" style="fill: #e45756;"></path><path d="M608.2758620689656,210h24.82758620689655v211.66666666666663h-24.82758620689655Z" style="fill: #72b7b2;"></path><path d="M608.2758620689656,200.00000000000003h24.82758620689655v9.999999999999972h-24.82758620689655Z" style="fill: #e45756;"></path><path d="M608.2758620689656,181.66666666666669h24.82758620689655v18.333333333333343h-24.82758620689655Z" style="fill: #4c78a8;"></path><path d="M608.2758620689656,421.66666666666663h24.82758620689655v66.66666666666669h-24.82758620689655Z" style="fill: #54a24b;"></path><path d="M608.2758620689656,488.3333333333333h24.82758620689655v5h-24.82758620689655Z" style="fill: #eeca3b;"></path><path d="M608.2758620689656,493.3333333333333h24.82758620689655v106.66666666666669h-24.82758620689655Z" style="fill: #ff9da6;"></path><path d="M635.8620689655172,388.33333333333326h24.82758620689655v146.66666666666674h-24.82758620689655Z" style="fill: #54a24b;"></path><path d="M635.8620689655172,320h24.82758620689655v68.33333333333326h-24.82758620689655Z" style="fill: #72b7b2;"></path><path d="M635.8620689655172,535h24.82758620689655v11.666666666666629h-24.82758620689655Z" style="fill: #eeca3b;"></path><path d="M635.8620689655172,546.6666666666666h24.82758620689655v53.33333333333337h-24.82758620689655Z" style="fill: #ff9da6;"></path><path d="M663.4482758620691,553.3333333333334h24.82758620689655v46.66666666666663h-24.82758620689655Z" style="fill: #ff9da6;"></path><path d="M663.4482758620691,416.66666666666663h24.82758620689655v100.00000000000011h-24.82758620689655Z" style="fill: #54a24b;"></path><path d="M663.4482758620691,223.33333333333334h24.82758620689655v18.333333333333343h-24.82758620689655Z" style="fill: #e45756;"></path><path d="M663.4482758620691,241.66666666666669h24.82758620689655v174.99999999999994h-24.82758620689655Z" style="fill: #72b7b2;"></path><path d="M663.4482758620691,540h24.82758620689655v13.333333333333371h-24.82758620689655Z" style="fill: #b279a2;"></path><path d="M663.4482758620691,516.6666666666667h24.82758620689655v23.333333333333258h-24.82758620689655Z" style="fill: #eeca3b;"></path><path d="M691.0344827586207,311.66666666666663h24.82758620689655v145h-24.82758620689655Z" style="fill: #72b7b2;"></path><path d="M691.0344827586207,456.66666666666663h24.82758620689655v108.33333333333337h-24.82758620689655Z" style="fill: #54a24b;"></path><path d="M691.0344827586207,281.6666666666667h24.82758620689655v3.3333333333333144h-24.82758620689655Z" style="fill: #4c78a8;"></path><path d="M691.0344827586207,578.3333333333334h24.82758620689655v5h-24.82758620689655Z" style="fill: #b279a2;"></path><path d="M691.0344827586207,285h24.82758620689655v26.66666666666663h-24.82758620689655Z" style="fill: #e45756;"></path><path d="M691.0344827586207,565h24.82758620689655v13.333333333333371h-24.82758620689655Z" style="fill: #eeca3b;"></path><path d="M691.0344827586207,583.3333333333334h24.82758620689655v16.66666666666663h-24.82758620689655Z" style="fill: #ff9da6;"></path><path d="M718.6206896551723,380.8333333333333h24.82758620689655v184.16666666666669h-24.82758620689655Z" style="fill: #54a24b;"></path><path d="M718.6206896551723,249.16666666666666h24.82758620689655v131.66666666666666h-24.82758620689655Z" style="fill: #72b7b2;"></path><path d="M718.6206896551723,566.6666666666666h24.82758620689655v33.33333333333337h-24.82758620689655Z" style="fill: #b279a2;"></path><path d="M718.6206896551723,221.66666666666669h24.82758620689655v27.49999999999997h-24.82758620689655Z" style="fill: #e45756;"></path><path d="M718.6206896551723,565h24.82758620689655v1.6666666666666288h-24.82758620689655Z" style="fill: #eeca3b;"></path><path d="M718.6206896551723,218.33333333333337h24.82758620689655v3.3333333333333144h-24.82758620689655Z" style="fill: #4c78a8;"></path><path d="M746.2068965517242,467.5h24.82758620689655v84.16666666666663h-24.82758620689655Z" style="fill: #54a24b;"></path><path d="M746.2068965517242,395h24.82758620689655v11.666666666666686h-24.82758620689655Z" style="fill: #e45756;"></path><path d="M746.2068965517242,551.6666666666666h24.82758620689655v16.66666666666663h-24.82758620689655Z" style="fill: #eeca3b;"></path><path d="M746.2068965517242,406.6666666666667h24.82758620689655v60.833333333333314h-24.82758620689655Z" style="fill: #72b7b2;"></path><path d="M746.2068965517242,568.3333333333333h24.82758620689655v15.000000000000114h-24.82758620689655Z" style="fill: #b279a2;"></path><path d="M746.2068965517242,583.3333333333334h24.82758620689655v16.66666666666663h-24.82758620689655Z" style="fill: #ff9da6;"></path><path d="M746.2068965517242,393.3333333333333h24.82758620689655v1.6666666666666856h-24.82758620689655Z" style="fill: #f58518;"></path><path d="M773.7931034482758,521.6666666666666h24.82758620689655v58.33333333333337h-24.82758620689655Z" style="fill: #54a24b;"></path><path d="M773.7931034482758,459.99999999999994h24.82758620689655v61.666666666666686h-24.82758620689655Z" style="fill: #72b7b2;"></path><path d="M773.7931034482758,438.33333333333337h24.82758620689655v21.666666666666572h-24.82758620689655Z" style="fill: #e45756;"></path><path d="M773.7931034482758,581.6666666666666h24.82758620689655v18.33333333333337h-24.82758620689655Z" style="fill: #b279a2;"></path><path d="M773.7931034482758,436.66666666666674h24.82758620689655v1.6666666666666288h-24.82758620689655Z" style="fill: #f58518;"></path><path d="M773.7931034482758,580h24.82758620689655v1.6666666666666288h-24.82758620689655Z" style="fill: #eeca3b;"></path></g><g class="mark-group role-legend"><g transform="translate(818,0)"><path class="background" d="M0,0h120v118h-120Z" style="pointer-events: none; fill: none;"></path><g><g class="mark-group role-legend-entry"><g transform="translate(0,16)"><path class="background" d="M0,0h0v0h0Z" style="pointer-events: none; fill: none;"></path><g><g class="mark-group role-scope"><g transform="translate(0,0)"><path class="background" d="M0,0h120v11h-120Z" style="pointer-events: none; fill: none; opacity: 1;"></path><g><g class="mark-symbol role-legend-symbol" style="pointer-events: none;"><path transform="translate(6,6)" d="M-5,-5h10v10h-10Z" style="fill: #4c78a8; stroke-width: 1.5; opacity: 1;"></path></g><g class="mark-text role-legend-label" style="pointer-events: none;"><text text-anchor="start" transform="translate(16,9)" style="font-family: sans-serif; font-size: 10px; fill: #000; opacity: 1;">APOLLO</text></g></g><path class="foreground" d="" style="pointer-events: none; display: none; fill: none;"></path></g><g transform="translate(0,13)"><path class="background" d="M0,0h120v11h-120Z" style="pointer-events: none; fill: none; opacity: 1;"></path><g><g class="mark-symbol role-legend-symbol" style="pointer-events: none;"><path transform="translate(6,6)" d="M-5,-5h10v10h-10Z" style="fill: #f58518; stroke-width: 1.5; opacity: 1;"></path></g><g class="mark-text role-legend-label" style="pointer-events: none;"><text text-anchor="start" transform="translate(16,9)" style="font-family: sans-serif; font-size: 10px; fill: #000; opacity: 1;">CMS-PIXEL-DTC</text></g></g><path class="foreground" d="" style="pointer-events: none; display: none; fill: none;"></path></g><g transform="translate(0,26)"><path class="background" d="M0,0h120v11h-120Z" style="pointer-events: none; fill: none; opacity: 1;"></path><g><g class="mark-symbol role-legend-symbol" style="pointer-events: none;"><path transform="translate(6,6)" d="M-5,-5h10v10h-10Z" style="fill: #e45756; stroke-width: 1.5; opacity: 1;"></path></g><g class="mark-text role-legend-label" style="pointer-events: none;"><text text-anchor="start" transform="translate(16,9)" style="font-family: sans-serif; font-size: 10px; fill: #000; opacity: 1;">EDF</text></g></g><path class="foreground" d="" style="pointer-events: none; display: none; fill: none;"></path></g><g transform="translate(0,39)"><path class="background" d="M0,0h120v11h-120Z" style="pointer-events: none; fill: none; opacity: 1;"></path><g><g class="mark-symbol role-legend-symbol" style="pointer-events: none;"><path transform="translate(6,6)" d="M-5,-5h10v10h-10Z" style="fill: #72b7b2; stroke-width: 1.5; opacity: 1;"></path></g><g class="mark-text role-legend-label" style="pointer-events: none;"><text text-anchor="start" transform="translate(16,9)" style="font-family: sans-serif; font-size: 10px; fill: #000; opacity: 1;">ETL</text></g></g><path class="foreground" d="" style="pointer-events: none; display: none; fill: none;"></path></g><g transform="translate(0,52)"><path class="background" d="M0,0h120v11h-120Z" style="pointer-events: none; fill: none; opacity: 1;"></path><g><g class="mark-symbol role-legend-symbol" style="pointer-events: none;"><path transform="translate(6,6)" d="M-5,-5h10v10h-10Z" style="fill: #54a24b; stroke-width: 1.5; opacity: 1;"></path></g><g class="mark-text role-legend-label" style="pointer-events: none;"><text text-anchor="start" transform="translate(16,9)" style="font-family: sans-serif; font-size: 10px; fill: #000; opacity: 1;">GEM</text></g></g><path class="foreground" d="" style="pointer-events: none; display: none; fill: none;"></path></g><g transform="translate(0,65)"><path class="background" d="M0,0h120v11h-120Z" style="pointer-events: none; fill: none; opacity: 1;"></path><g><g class="mark-symbol role-legend-symbol" style="pointer-events: none;"><path transform="translate(6,6)" d="M-5,-5h10v10h-10Z" style="fill: #eeca3b; stroke-width: 1.5; opacity: 1;"></path></g><g class="mark-text role-legend-label" style="pointer-events: none;"><text text-anchor="start" transform="translate(16,9)" style="font-family: sans-serif; font-size: 10px; fill: #000; opacity: 1;">L0MDT</text></g></g><path class="foreground" d="" style="pointer-events: none; display: none; fill: none;"></path></g><g transform="translate(0,78)"><path class="background" d="M0,0h120v11h-120Z" style="pointer-events: none; fill: none; opacity: 1;"></path><g><g class="mark-symbol role-legend-symbol" style="pointer-events: none;"><path transform="translate(6,6)" d="M-5,-5h10v10h-10Z" style="fill: #b279a2; stroke-width: 1.5; opacity: 1;"></path></g><g class="mark-text role-legend-label" style="pointer-events: none;"><text text-anchor="start" transform="translate(16,9)" style="font-family: sans-serif; font-size: 10px; fill: #000; opacity: 1;">OTHER PRJ</text></g></g><path class="foreground" d="" style="pointer-events: none; display: none; fill: none;"></path></g><g transform="translate(0,91)"><path class="background" d="M0,0h120v11h-120Z" style="pointer-events: none; fill: none; opacity: 1;"></path><g><g class="mark-symbol role-legend-symbol" style="pointer-events: none;"><path transform="translate(6,6)" d="M-5,-5h10v10h-10Z" style="fill: #ff9da6; stroke-width: 1.5; opacity: 1;"></path></g><g class="mark-text role-legend-label" style="pointer-events: none;"><text text-anchor="start" transform="translate(16,9)" style="font-family: sans-serif; font-size: 10px; fill: #000; opacity: 1;">VAC/SICK/HOL</text></g></g><path class="foreground" d="" style="pointer-events: none; display: none; fill: none;"></path></g></g></g><path class="foreground" d="" style="pointer-events: none; display: none; fill: none;"></path></g></g><g class="mark-text role-legend-title" style="pointer-events: none;"><text text-anchor="start" transform="translate(0,9)" style="font-family: sans-serif; font-size: 11px; font-weight: bold; fill: #000; opacity: 1;">Project</text></g></g><path class="foreground" d="" style="pointer-events: none; display: none; fill: none;"></path></g></g></g><path class="foreground" d="" style="display: none; fill: none;"></path></g></g></g></svg>