<svg class="marks" width="986" height="693" viewBox="0 0 986 693" version="1.1" xmlns="http://www.w3.org/2000/svg" xmlns:xlink="http://www.w3.org/1999/xlink"><rect width="986" height="693" style="fill: white;"></rect><g transform="translate(51,10)"><g class="mark-group role-frame root"><g transform="translate(0,0)"><path class="background" d="M0.5,0.5h800v600h-800Z" style="fill: none; stroke: #ddd;"></path><g><g class="mark-group role-axis"><g transform="translate(0.5,0.5)"><path class="background" d="M0,0h0v0h0Z" style="pointer-events: none; fill: none;"></path><g><g class="mark-rule role-axis-grid" style="pointer-events: none;"><line transform="translate(0,600)" x2="800" y2="0" style="fill: none; stroke: #ddd; stroke-width: 1; opacity: 1;"></line><line transform="translate(0,545)" x2="800" y2="0" style="fill: none; stroke: #ddd; stroke-width: 1; opacity: 1;"></line><line transform="translate(0,491)" x2="800" y2="0" style="fill: none; stroke: #ddd; stroke-width: 1; opacity: 1;"></line><line transform="translate(0,436)" x2="800" y2="0" style="fill: none; stroke: #ddd; stroke-width: 1; opacity: 1;"></line><line transform="translate(0,382)" x2="800" y2="0" style="fill: none; stroke: #ddd; stroke-width: 1; opacity: 1;"></line><line transform="translate(0,327)" x2="800" y2="0" style="fill: none; stroke: #ddd; stroke-width: 1; opacity: 1;"></line><line transform="translate(0,273)" x2="800" y2="0" style="fill: none; stroke: #ddd; stroke-width: 1; opacity: 1;"></line><line transform="translate(0,218)" x2="800" y2="0" style="fill: none; stroke: #ddd; stroke-width: 1; opacity: 1;"></line><line transform="translate(0,164)" x2="800" y2="0" style="fill: none; stroke: #ddd; stroke-width: 1; opacity: 1;"></line><line transform="translate(0,109)" x2="800" y2="0" style="fill: none; stroke: #ddd; stroke-width: 1; opacity: 1;"></line><line transform="translate(0,55)" x2="800" y2="0" style="fill: none; stroke: #ddd; stroke-width: 1; opacity: 1;"></line><line transform="translate(0,0)" x2="800" y2="0" style="fill: none; stroke: #ddd; stroke-width: 1; opacity: 1;"></line></g></g><path class="foreground" d="" style="pointer-events: none; display: none; fill: none;"></path></g></g><g class="mark-group role-axis"><g transform="translate(0.5,600.5)"><path class="background" d="M0,0h0v0h0Z" style="pointer-events: none; fill: none;"></path><g><g class="mark-rule role-axis-tick" style="pointer-events: none;"><line transform="translate(16,0)" x2="0" y2="5" style="fill: none; stroke: #888; stroke-width: 1; opacity: 1;"></line><line transform="translate(48,0)" x2="0" y2="5" style="fill: none; stroke: #888; stroke-width: 1; opacity: 1;"></line><line transform="translate(80,0)" x2="0" y2="5" style="fill: none; stroke: #888; stroke-width: 1; opacity: 1;"></line><line transform="translate(112,0)" x2="0" y2="5" style="fill: none; stroke: #888; stroke-width: 1; opacity: 1;"></line><line transform="translate(144,0)" x2="0" y2="5" style="fill: none; stroke: #888; stroke-width: 1; opacity: 1;"></line><line transform="translate(176,0)" x2="0" y2="5" style="fill: none; stroke: #888; stroke-width: 1; opacity: 1;"></line><line transform="translate(208,0)" x2="0" y2="5" style="fill: none; stroke: #888; stroke-width: 1; opacity: 1;"></line><line transform="translate(240,0)" x2="0" y2="5" style="fill: none; stroke: #888; stroke-width: 1; opacity: 1;"></line><line transform="translate(272,0)" x2="0" y2="5" style="fill: none; stroke: #888; stroke-width: 1; opacity: 1;"></line><line transform="translate(304,0)" x2="0" y2="5" style="fill: none; stroke: #888; stroke-width: 1; opacity: 1;"></line><line transform="translate(336,0)" x2="0" y2="5" style="fill: none; stroke: #888; stroke-width: 1; opacity: 1;"></line><line transform="translate(368,0)" x2="0" y2="5" style="fill: none; stroke: #888; stroke-width: 1; opacity: 1;"></line><line transform="translate(400,0)" x2="0" y2="5" style="fill: none; stroke: #888; stroke-width: 1; opacity: 1;"></line><line transform="translate(432,0)" x2="0" y2="5" style="fill: none; stroke: #888; stroke-width: 1; opacity: 1;"></line><line transform="translate(464,0)" x2="0" y2="5" style="fill: none; stroke: #888; stroke-width: 1; opacity: 1;"></line><line transform="translate(496,0)" x2="0" y2="5" style="fill: none; stroke: #888; stroke-width: 1; opacity: 1;"></line><line transform="translate(528,0)" x2="0" y2="5" style="fill: none; stroke: #888; stroke-width: 1; opacity: 1;"></line><line transform="translate(560,0)" x2="0" y2="5" style="fill: none; stroke: #888; stroke-width: 1; opacity: 1;"></line><line transform="translate(592,0)" x2="0" y2="5" style="fill: none; stroke: #888; stroke-width: 1; opacity: 1;"></line><line transform="translate(624,0)" x2="0" y2="5" style="fill: none; stroke: #888; stroke-width: 1; opacity: 1;"></line><line transform="translate(656,0)" x2="0" y2="5" style="fill: none; stroke: #888; stroke-width: 1; opacity: 1;"></line><line transform="translate(688,0)" x2="0" y2="5" style="fill: none; stroke: #888; stroke-width: 1; opacity: 1;"></line><line transform="translate(720,0)" x2="0" y2="5" style="fill: none; stroke: #888; stroke-width: 1; opacity: 1;"></line><line transform="translate(752,0)" x2="0" y2="5" style="fill: none; stroke: #888; stroke-width: 1; opacity: 1;"></line><line transform="translate(784,0)" x2="0" y2="5" style="fill: none; stroke: #888; stroke-width: 1; opacity: 1;"></line></g><g class="mark-text role-axis-label" style="pointer-events: none;"><text text-anchor="end" transform="translate(15.500000000000021,7) rotate(270) translate(0,3)" style="font-family: sans-serif; font-size: 10px; fill: #000; opacity: 1;">2021-01</text><text text-anchor="end" transform="translate(47.50000000000002,7) rotate(270) translate(0,3)" style="font-family: sans-serif; font-size: 10px; fill: #000; opacity: 1;">2021-02</text><text text-anchor="end" transform="translate(79.50000000000003,7) rotate(270) translate(0,3)" style="font-family: sans-serif; font-size: 10px; fill: #000; opacity: 1;">2021-03</text><text text-anchor="end" transform="translate(111.50000000000003,7) rotate(270) translate(0,3)" style="font-family: sans-serif; font-size: 10px; fill: #000; opacity: 1;">2021-04</text><text text-anchor="end" transform="translate(143.50000000000003,7) rotate(270) translate(0,3)" style="font-family: sans-serif; font-size: 10px; fill: #000; opacity: 1;">2021-05</text><text text-anchor="end" transform="translate(175.50000000000003,7) rotate(270) translate(0,3)" style="font-family: sans-serif; font-size: 10px; fill: #000; opacity: 1;">2021-06</text><text text-anchor="end" transform="translate(207.50000000000003,7) rotate(270) translate(0,3)" style="font-family: sans-serif; font-size: 10px; fill: #000; opacity: 1;">2021-07</text><text text-anchor="end" transform="translate(239.50000000000003,7) rotate(270) translate(0,3)" style="font-family: sans-serif; font-size: 10px; fill: #000; opacity: 1;">2021-08</text><text text-anchor="end" transform="translate(271.5,7) rotate(270) translate(0,3)" style="font-family: sans-serif; font-size: 10px; fill: #000; opacity: 1;">2021-09</text><text text-anchor="end" transform="translate(303.5,7) rotate(270) translate(0,3)" style="font-family: sans-serif; font-size: 10px; fill: #000; opacity: 1;">2021-10</text><text text-anchor="end" transform="translate(335.5,7) rotate(270) translate(0,3)" style="font-family: sans-serif; font-size: 10px; fill: #000; opacity: 1;">2021-11</text><text text-anchor="end" transform="translate(367.5,7) rotate(270) translate(0,3)" style="font-family: sans-serif; font-size: 10px; fill: #000; opacity: 1;">2021-12</text><text text-anchor="end" transform="translate(399.5,7) rotate(270) translate(0,3)" style="font-family: sans-serif; font-size: 10px; fill: #000; opacity: 1;">2022-01</text><text text-anchor="end" transform="translate(431.5,7) rotate(270) translate(0,3)" style="font-family: sans-serif; font-size: 10px; fill: #000; opacity: 1;">2022-02</text><text text-anchor="end" transform="translate(463.5,7) rotate(270) translate(0,3)" style="font-family: sans-serif; font-size: 10px; fill: #000; opacity: 1;">2022-03</text><text text-anchor="end" transform="translate(495.5,7) rotate(270) translate(0,3)" style="font-family: sans-serif; font-size: 10px; fill: #000; opacity: 1;">2022-04</text><text text-anchor="end" transform="translate(527.5,7) rotate(270) translate(0,3)" style="font-family: sans-serif; font-size: 10px; fill: #000; opacity: 1;">2022-05</text><text text-anchor="end" transform="translate(559.5,7) rotate(270) translate(0,3)" style="font-family: sans-serif; font-size: 10px; fill: #000; opacity: 1;">2022-06</text><text text-anchor="end" transform="translate(591.5,7) rotate(270) translate(0,3)" style="font-family: sans-serif; font-size: 10px; fill: #000; opacity: 1;">2022-07</text><text text-anchor="end" transform="translate(623.5,7) rotate(270) translate(0,3)" style="font-family: sans-serif; font-size: 10px; fill: #000; opacity: 1;">2022-08</text><text text-anchor="end" transform="translate(655.5,7) rotate(270) translate(0,3)" style="font-family: sans-serif; font-size: 10px; fill: #000; opacity: 1;">2022-09</text><text text-anchor="end" transform="translate(687.5,7) rotate(270) translate(0,3)" style="font-family: sans-serif; font-size: 10px; fill: #000; opacity: 1;">2022-10</text><text text-anchor="end" transform="translate(719.5,7) rotate(270) translate(0,3)" style="font-family: sans-serif; font-size: 10px; fill: #000; opacity: 1;">2022-11</text><text text-anchor="end" transform="translate(751.5,7) rotate(270) translate(0,3)" style="font-family: sans-serif; font-size: 10px; fill: #000; opacity: 1;">2022-12</text><text text-anchor="end" transform="translate(783.5,7) rotate(270) translate(0,3)" style="font-family: sans-serif; font-size: 10px; fill: #000; opacity: 1;">2023-01</text></g><g class="mark-rule role-axis-domain" style="pointer-events: none;"><line transform="translate(0,0)" x2="800" y2="0" style="fill: none; stroke: #888; stroke-width: 1; opacity: 1;"></line></g><g class="mark-text role-axis-title" style="pointer-events: none;"><text text-anchor="middle" transform="translate(400,76)" style="font-family: sans-serif; font-size: 11px; font-weight: bold; fill: #000; opacity: 1;">Date</text></g></g><path class="foreground" d="" style="pointer-events: none; display: none; fill: none;"></path></g></g><g class="mark-group role-axis"><g transform="translate(0.5,0.5)"><path class="background" d="M0,0h0v0h0Z" style="pointer-events: none; fill: none;"></path><g><g class="mark-rule role-axis-tick" style="pointer-events: none;"><line transform="translate(0,600)" x2="-5" y2="0" style="fill: none; stroke: #888; stroke-width: 1; opacity: 1;"></line><line transform="translate(0,545)" x2="-5" y2="0" style="fill: none; stroke: #888; stroke-width: 1; opacity: 1;"></line><line transform="translate(0,491)" x2="-5" y2="0" style="fill: none; stroke: #888; stroke-width: 1; opacity: 1;"></line><line transform="translate(0,436)" x2="-5" y2="0" style="fill: none; stroke: #888; stroke-width: 1; opacity: 1;"></line><line transform="translate(0,382)" x2="-5" y2="0" style="fill: none; stroke: #888; stroke-width: 1; opacity: 1;"></line><line transform="translate(0,327)" x2="-5" y2="0" style="fill: none; stroke: #888; stroke-width: 1; opacity: 1;"></line><line transform="translate(0,273)" x2="-5" y2="0" style="fill: none; stroke: #888; stroke-width: 1; opacity: 1;"></line><line transform="translate(0,218)" x2="-5" y2="0" style="fill: none; stroke: #888; stroke-width: 1; opacity: 1;"></line><line transform="translate(0,164)" x2="-5" y2="0" style="fill: none; stroke: #888; stroke-width: 1; opacity: 1;"></line><line transform="translate(0,109)" x2="-5" y2="0" style="fill: none; stroke: #888; stroke-width: 1; opacity: 1;"></line><line transform="translate(0,55)" x2="-5" y2="0" style="fill: none; stroke: #888; stroke-width: 1; opacity: 1;"></line><line transform="translate(0,0)" x2="-5" y2="0" style="fill: none; stroke: #888; stroke-width: 1; opacity: 1;"></line></g><g class="mark-text role-axis-label" style="pointer-events: none;"><text text-anchor="end" transform="translate(-7,603)" style="font-family: sans-serif; font-size: 10px; fill: #000; opacity: 1;">0.0</text><text text-anchor="end" transform="translate(-7,548.4545454545454)" style="font-family: sans-serif; font-size: 10px; fill: #000; opacity: 1;">0.1</text><text text-anchor="end" transform="translate(-7,493.9090909090909)" style="font-family: sans-serif; font-size: 10px; fill: #000; opacity: 1;">0.2</text><text text-anchor="end" transform="translate(-7,439.3636363636364)" style="font-family: sans-serif; font-size: 10px; fill: #000; opacity: 1;">0.3</text><text text-anchor="end" transform="translate(-7,384.8181818181818)" style="font-family: sans-serif; font-size: 10px; fill: #000; opacity: 1;">0.4</text><text text-anchor="end" transform="translate(-7,330.27272727272725)" style="font-family: sans-serif; font-size: 10px; fill: #000; opacity: 1;">0.5</text><text text-anchor="end" transform="translate(-7,275.72727272727275)" style="font-family: sans-serif; font-size: 10px; fill: #000; opacity: 1;">0.6</text><text text-anchor="end" transform="translate(-7,221.18181818181824)" style="font-family: sans-serif; font-size: 10px; fill: #000; opacity: 1;">0.7</text><text text-anchor="end" transform="translate(-7,166.63636363636363)" style="font-family: sans-serif; font-size: 10px; fill: #000; opacity: 1;">0.8</text><text text-anchor="end" transform="translate(-7,112.09090909090912)" style="font-family: sans-serif; font-size: 10px; fill: #000; opacity: 1;">0.9</text><text text-anchor="end" transform="translate(-7,57.54545454545456)" style="font-family: sans-serif; font-size: 10px; fill: #000; opacity: 1;">1.0</text><text text-anchor="end" transform="translate(-7,3)" style="font-family: sans-serif; font-size: 10px; fill: #000; opacity: 1;">1.1</text></g><g class="mark-rule role-axis-domain" style="pointer-events: none;"><line transform="translate(0,600)" x2="0" y2="-600" style="fill: none; stroke: #888; stroke-width: 1; opacity: 1;"></line></g><g class="mark-text role-axis-title" style="pointer-events: none;"><text text-anchor="middle" transform="translate(-35,300) rotate(-90) translate(0,-2)" style="font-family: sans-serif; font-size: 11px; font-weight: bold; fill: #000; opacity: 1;">Sum of Hours</text></g></g><path class="foreground" d="" style="pointer-events: none; display: none; fill: none;"></path></g></g><g class="mark-rect role-mark marks"><path d="M1.6000000000000227,146.14850798056895h28.8v12.49132546842472h-28.8Z" style="fill: #f58518;"></path><path d="M1.6000000000000227,54.5454545454545h28.8v91.60305343511445h-28.8Z" style="fill: #4c78a8;"></path><path d="M1.6000000000000227,158.63983344899367h28.8v243.58084663428184h-28.8Z" style="fill: #e45756;"></path><path d="M1.6000000000000227,479.25052047189456h28.8v87.43927827897289h-28.8Z" style="fill: #54a24b;"></path><path d="M1.6000000000000227,402.2206800832755h28.8v77.02984038861905h-28.8Z" style="fill: #72b7b2;"></path><path d="M1.6000000000000227,566.6897987508675h28.8v33.31020124913255h-28.8Z" style="fill: #b279a2;"></path><path d="M33.60000000000002,197.2812234494478h28.8v96.85641461342396h-28.8Z" style="fill: #e45756;"></path><path d="M33.60000000000002,368.0543755310111h28.8v191.16397621070513h-28.8Z" style="fill: #54a24b;"></path><path d="M33.60000000000002,54.54545454545456h28.8v142.73576890399323h-28.8Z" style="fill: #4c78a8;"></path><path d="M33.60000000000002,294.13763806287176h28.8v73.91673746813933h-28.8Z" style="fill: #72b7b2;"></path><path d="M33.60000000000002,559.2183517417162h28.8v40.78164825828378h-28.8Z" style="fill: #b279a2;"></path><path d="M65.60000000000002,166.96738376127672h28.8v52.04718945176958h-28.8Z" style="fill: #e45756;"></path><path d="M65.60000000000002,348.09160305343505h28.8v222.76197085357398h-28.8Z" style="fill: #54a24b;"></path><path d="M65.60000000000002,54.54545454545436h28.8v112.42192921582236h-28.8Z" style="fill: #4c78a8;"></path><path d="M65.60000000000002,219.0145732130463h28.8v129.07702984038875h-28.8Z" style="fill: #72b7b2;"></path><path d="M65.60000000000002,570.853573907009h28.8v29.146426092990964h-28.8Z" style="fill: #eeca3b;"></path><path d="M97.60000000000002,155.47602004294927h28.8v17.179670722977846h-28.8Z" style="fill: #f58518;"></path><path d="M97.60000000000002,400.286327845383h28.8v146.02720114531127h-28.8Z" style="fill: #54a24b;"></path><path d="M97.60000000000002,247.816750178955h28.8v152.46957766642802h-28.8Z" style="fill: #72b7b2;"></path><path d="M97.60000000000002,546.3135289906943h28.8v19.327129563350127h-28.8Z" style="fill: #eeca3b;"></path><path d="M97.60000000000002,172.65569076592712h28.8v75.16105941302789h-28.8Z" style="fill: #e45756;"></path><path d="M97.60000000000002,54.545454545454696h28.8v100.93056549749457h-28.8Z" style="fill: #4c78a8;"></path><path d="M97.60000000000002,565.6406585540444h28.8v34.35934144595558h-28.8Z" style="fill: #b279a2;"></path><path d="M129.60000000000002,415.44771018455236h28.8v153.79357484620635h-28.8Z" style="fill: #54a24b;"></path><path d="M129.60000000000002,183.7320574162681h28.8v79.97265892002724h-28.8Z" style="fill: #e45756;"></path><path d="M129.60000000000002,263.70471633629535h28.8v151.74299384825702h-28.8Z" style="fill: #72b7b2;"></path><path d="M129.60000000000002,54.545454545454696h28.8v129.1866028708134h-28.8Z" style="fill: #4c78a8;"></path><path d="M129.60000000000002,569.2412850307587h28.8v30.758714969241282h-28.8Z" style="fill: #eeca3b;"></path><path d="M161.60000000000002,437.7160030052592h28.8v72.12622088655144h-28.8Z" style="fill: #54a24b;"></path><path d="M161.60000000000002,509.84222389181065h28.8v66.11570247933884h-28.8Z" style="fill: #eeca3b;"></path><path d="M161.60000000000002,266.4162283996995h28.8v63.110443275732564h-28.8Z" style="fill: #e45756;"></path><path d="M161.60000000000002,54.54545454545456h28.8v211.87077385424493h-28.8Z" style="fill: #4c78a8;"></path><path d="M161.60000000000002,329.52667167543206h28.8v108.18933132982716h-28.8Z" style="fill: #72b7b2;"></path><path d="M161.60000000000002,575.9579263711495h28.8v24.042073628850517h-28.8Z" style="fill: #b279a2;"></path><path d="M193.60000000000002,467.6470588235294h28.8v66.17647058823525h-28.8Z" style="fill: #54a24b;"></path><path d="M193.60000000000002,54.54545454545456h28.8v162.43315508021385h-28.8Z" style="fill: #4c78a8;"></path><path d="M193.60000000000002,359.3582887700535h28.8v108.2887700534759h-28.8Z" style="fill: #72b7b2;"></path><path d="M193.60000000000002,567.9144385026738h28.8v32.08556149732624h-28.8Z" style="fill: #b279a2;"></path><path d="M193.60000000000002,229.0106951871658h28.8v130.3475935828877h-28.8Z" style="fill: #e45756;"></path><path d="M193.60000000000002,216.9786096256684h28.8v12.032085561497382h-28.8Z" style="fill: #f58518;"></path><path d="M193.60000000000002,533.8235294117646h28.8v34.09090909090912h-28.8Z" style="fill: #eeca3b;"></path><path d="M225.60000000000002,54.545454545454696h28.8v48.95104895104895h-28.8Z" style="fill: #4c78a8;"></path><path d="M225.60000000000002,432.1678321678323h28.8v162.58741258741253h-28.8Z" style="fill: #54a24b;"></path><path d="M225.60000000000002,110.48951048951061h28.8v204.5454545454545h-28.8Z" style="fill: #e45756;"></path><path d="M225.60000000000002,315.0349650349651h28.8v117.13286713286715h-28.8Z" style="fill: #72b7b2;"></path><path d="M225.60000000000002,594.7552447552448h28.8v5.244755244755197h-28.8Z" style="fill: #eeca3b;"></path><path d="M225.60000000000002,103.49650349650365h28.8v6.993006993006958h-28.8Z" style="fill: #f58518;"></path><path d="M257.6,564.2910281208153h28.8v7.14179437583698h-28.8Z" style="fill: #eeca3b;"></path><path d="M257.6,149.17423002529387h28.8v28.56717750334772h-28.8Z" style="fill: #f58518;"></path><path d="M257.6,475.01859842285376h28.8v89.27242969796157h-28.8Z" style="fill: #54a24b;"></path><path d="M257.6,316.1136735604821h28.8v158.90492486237167h-28.8Z" style="fill: #72b7b2;"></path><path d="M257.6,177.7414075286416h28.8v138.3722660318405h-28.8Z" style="fill: #e45756;"></path><path d="M257.6,54.54545454545456h28.8v94.6287754798393h-28.8Z" style="fill: #4c78a8;"></path><path d="M257.6,571.4328224966523h28.8v28.567177503347693h-28.8Z" style="fill: #b279a2;"></path><path d="M289.6,54.54545454545456h28.8v60.05004170141784h-28.8Z" style="fill: #4c78a8;"></path><path d="M289.6,137.11426188490407h28.8v120.10008340283565h-28.8Z" style="fill: #e45756;"></path><path d="M289.6,257.2143452877397h28.8v100.08340283569646h-28.8Z" style="fill: #72b7b2;"></path><path d="M289.6,114.5954962468724h28.8v22.518765638031667h-28.8Z" style="fill: #f58518;"></path><path d="M289.6,357.2977481234362h28.8v242.70225187656382h-28.8Z" style="fill: #54a24b;"></path><path d="M321.6,284.1196777905639h28.8v195.05178365937854h-28.8Z" style="fill: #54a24b;"></path><path d="M321.6,80.43728423475265h28.8v25.891829689298078h-28.8Z" style="fill: #f58518;"></path><path d="M321.6,194.36133486766406h28.8v89.75834292289986h-28.8Z" style="fill: #72b7b2;"></path><path d="M321.6,54.54545454545456h28.8v25.891829689298092h-28.8Z" style="fill: #4c78a8;"></path><path d="M321.6,106.32911392405073h28.8v88.03222094361332h-28.8Z" style="fill: #e45756;"></path><path d="M321.6,479.17146144994246h28.8v10.356731875719277h-28.8Z" style="fill: #eeca3b;"></path><path d="M321.6,489.52819332566173h28.8v110.47180667433827h-28.8Z" style="fill: #b279a2;"></path><path d="M353.6,126.10654651470983h28.8v109.72700768619137h-28.8Z" style="fill: #72b7b2;"></path><path d="M353.6,235.8335542009012h28.8v160.6148953087728h-28.8Z" style="fill: #54a24b;"></path><path d="M353.6,54.54545454545456h28.8v12.721971905645432h-28.8Z" style="fill: #4c78a8;"></path><path d="M353.6,105.4333421680361h28.8v20.673204346673728h-28.8Z" style="fill: #e45756;"></path><path d="M353.6,67.2674264511h28.8v38.16591571693611h-28.8Z" style="fill: #f58518;"></path><path d="M353.6,396.448449509674h28.8v203.551550490326h-28.8Z" style="fill: #b279a2;"></path><path d="M385.6,67.63636363636354h28.8v15.272727272727238h-28.8Z" style="fill: #f58518;"></path><path d="M385.6,152.72727272727258h28.8v74.18181818181819h-28.8Z" style="fill: #72b7b2;"></path><path d="M385.6,226.90909090909076h28.8v305.4545454545456h-28.8Z" style="fill: #54a24b;"></path><path d="M385.6,82.90909090909078h28.8v69.8181818181818h-28.8Z" style="fill: #e45756;"></path><path d="M385.6,532.3636363636364h28.8v32.72727272727275h-28.8Z" style="fill: #eeca3b;"></path><path d="M385.6,54.5454545454545h28.8v13.090909090909044h-28.8Z" style="fill: #4c78a8;"></path><path d="M385.6,565.0909090909091h28.8v34.90909090909088h-28.8Z" style="fill: #b279a2;"></path><path d="M417.6,487.5780707841777h28.8v52.047189451769555h-28.8Z" style="fill: #54a24b;"></path><path d="M417.6,54.54545454545436h28.8v95.76682859125609h-28.8Z" style="fill: #4c78a8;"></path><path d="M417.6,329.354614850798h28.8v158.22345593337974h-28.8Z" style="fill: #72b7b2;"></path><path d="M417.6,200.2775850104093h28.8v129.0770298403887h-28.8Z" style="fill: #e45756;"></path><path d="M417.6,150.31228313671045h28.8v49.96530187369885h-28.8Z" style="fill: #f58518;"></path><path d="M417.6,539.6252602359473h28.8v27.064538514920173h-28.8Z" style="fill: #eeca3b;"></path><path d="M417.6,566.6897987508675h28.8v33.31020124913255h-28.8Z" style="fill: #b279a2;"></path><path d="M449.6,179.16917519566522h28.8v167.97110174593615h-28.8Z" style="fill: #e45756;"></path><path d="M449.6,347.14027694160137h28.8v157.1342564720049h-28.8Z" style="fill: #72b7b2;"></path><path d="M449.6,168.33232992173384h28.8v10.836845273931374h-28.8Z" style="fill: #f58518;"></path><path d="M449.6,54.5454545454545h28.8v113.78687537627934h-28.8Z" style="fill: #4c78a8;"></path><path d="M449.6,504.27453341360626h28.8v68.63335340156539h-28.8Z" style="fill: #54a24b;"></path><path d="M449.6,572.9078868151717h28.8v27.09211318482835h-28.8Z" style="fill: #eeca3b;"></path><path d="M481.6,123.41597796143253h28.8v256.19834710743794h-28.8Z" style="fill: #e45756;"></path><path d="M481.6,434.7107438016529h28.8v115.70247933884303h-28.8Z" style="fill: #54a24b;"></path><path d="M481.6,550.4132231404959h28.8v5.509641873278156h-28.8Z" style="fill: #eeca3b;"></path><path d="M481.6,379.61432506887047h28.8v55.09641873278241h-28.8Z" style="fill: #72b7b2;"></path><path d="M481.6,555.9228650137741h28.8v44.07713498622593h-28.8Z" style="fill: #b279a2;"></path><path d="M481.6,68.31955922865018h28.8v55.096418732782354h-28.8Z" style="fill: #f58518;"></path><path d="M481.6,54.54545454545456h28.8v13.774104683195617h-28.8Z" style="fill: #4c78a8;"></path><path d="M513.6,77.15496938294864h28.8v14.13094677343382h-28.8Z" style="fill: #f58518;"></path><path d="M513.6,399.3405558172397h28.8v152.61422515308533h-28.8Z" style="fill: #54a24b;"></path><path d="M513.6,283.4667922750824h28.8v115.87376354215729h-28.8Z" style="fill: #72b7b2;"></path><path d="M513.6,91.28591615638246h28.8v192.18087611869996h-28.8Z" style="fill: #e45756;"></path><path d="M513.6,54.54545454545456h28.8v22.609514837494075h-28.8Z" style="fill: #4c78a8;"></path><path d="M513.6,551.954780970325h28.8v2.8261893546867896h-28.8Z" style="fill: #eeca3b;"></path><path d="M513.6,554.7809703250118h28.8v45.21902967498818h-28.8Z" style="fill: #b279a2;"></path><path d="M545.6,99.52153110047837h28.8v26.794258373205764h-28.8Z" style="fill: #f58518;"></path><path d="M545.6,126.31578947368413h28.8v265.0717703349284h-28.8Z" style="fill: #e45756;"></path><path d="M545.6,391.3875598086125h28.8v107.177033492823h-28.8Z" style="fill: #72b7b2;"></path><path d="M545.6,498.5645933014355h28.8v70.81339712918657h-28.8Z" style="fill: #54a24b;"></path><path d="M545.6,54.5454545454545h28.8v44.97607655502387h-28.8Z" style="fill: #4c78a8;"></path><path d="M545.6,569.377990430622h28.8v30.62200956937795h-28.8Z" style="fill: #b279a2;"></path><path d="M577.6,528.9772727272727h28.8v25.56818181818187h-28.8Z" style="fill: #54a24b;"></path><path d="M577.6,554.5454545454546h28.8v45.45454545454538h-28.8Z" style="fill: #b279a2;"></path><path d="M577.6,117.0454545454546h28.8v318.18181818181813h-28.8Z" style="fill: #e45756;"></path><path d="M577.6,435.22727272727275h28.8v93.75h-28.8Z" style="fill: #72b7b2;"></path><path d="M577.6,60.22727272727284h28.8v56.81818181818176h-28.8Z" style="fill: #f58518;"></path><path d="M577.6,54.54545454545463h28.8v5.681818181818208h-28.8Z" style="fill: #4c78a8;"></path><path d="M609.6,64.50809464508104h28.8v74.71980074719797h-28.8Z" style="fill: #f58518;"></path><path d="M609.6,331.00871731008715h28.8v191.78082191780834h-28.8Z" style="fill: #72b7b2;"></path><path d="M609.6,139.227895392279h28.8v191.78082191780814h-28.8Z" style="fill: #e45756;"></path><path d="M609.6,545.2054794520548h28.8v54.79452054794524h-28.8Z" style="fill: #eeca3b;"></path><path d="M609.6,54.54545454545463h28.8v9.962640099626412h-28.8Z" style="fill: #4c78a8;"></path><path d="M609.6,522.7895392278955h28.8v22.41594022415927h-28.8Z" style="fill: #54a24b;"></path><path d="M641.6,89.30481283422465h28.8v283.42245989304814h-28.8Z" style="fill: #e45756;"></path><path d="M641.6,557.2192513368984h28.8v42.780748663101576h-28.8Z" style="fill: #b279a2;"></path><path d="M641.6,503.7433155080214h28.8v53.47593582887703h-28.8Z" style="fill: #54a24b;"></path><path d="M641.6,372.7272727272728h28.8v131.0160427807486h-28.8Z" style="fill: #72b7b2;"></path><path d="M641.6,54.54545454545456h28.8v21.390374331550802h-28.8Z" style="fill: #4c78a8;"></path><path d="M641.6,75.93582887700536h28.8v13.368983957219285h-28.8Z" style="fill: #f58518;"></path><path d="M673.6,54.5454545454545h28.8v25.974025974025956h-28.8Z" style="fill: #4c78a8;"></path><path d="M673.6,433.7662337662338h28.8v122.0779220779221h-28.8Z" style="fill: #72b7b2;"></path><path d="M673.6,576.6233766233767h28.8v23.376623376623343h-28.8Z" style="fill: #eeca3b;"></path><path d="M673.6,111.68831168831164h28.8v322.07792207792215h-28.8Z" style="fill: #e45756;"></path><path d="M673.6,555.8441558441559h28.8v20.779220779220736h-28.8Z" style="fill: #54a24b;"></path><path d="M673.6,80.51948051948045h28.8v31.16883116883119h-28.8Z" style="fill: #f58518;"></path><path d="M705.6,91.48859109018484h28.8v275.98696124592533h-28.8Z" style="fill: #e45756;"></path><path d="M705.6,78.4498370155742h28.8v13.038754074610637h-28.8Z" style="fill: #f58518;"></path><path d="M705.6,54.545454545454696h28.8v23.904382470119508h-28.8Z" style="fill: #4c78a8;"></path><path d="M705.6,367.4755523361102h28.8v86.92502716407091h-28.8Z" style="fill: #72b7b2;"></path><path d="M705.6,454.4005795001811h28.8v6.519377037305333h-28.8Z" style="fill: #54a24b;"></path><path d="M705.6,460.9199565374864h28.8v139.08004346251357h-28.8Z" style="fill: #b279a2;"></path><path d="M737.6,187.66233766233768h28.8v285.7142857142857h-28.8Z" style="fill: #72b7b2;"></path><path d="M737.6,54.54545454545456h28.8v133.11688311688312h-28.8Z" style="fill: #e45756;"></path><path d="M737.6,473.3766233766234h28.8v22.727272727272748h-28.8Z" style="fill: #54a24b;"></path><path d="M737.6,496.10389610389615h28.8v103.89610389610385h-28.8Z" style="fill: #b279a2;"></path><path d="M769.6,463.6363636363636h28.8v136.36363636363637h-28.8Z" style="fill: #b279a2;"></path><path d="M769.6,213.63636363636365h28.8v227.27272727272728h-28.8Z" style="fill: #72b7b2;"></path><path d="M769.6,54.54545454545456h28.8v45.45454545454541h-28.8Z" style="fill: #f58518;"></path><path d="M769.6,99.99999999999997h28.8v113.63636363636368h-28.8Z" style="fill: #e45756;"></path><path d="M769.6,440.90909090909093h28.8v22.72727272727269h-28.8Z" style="fill: #eeca3b;"></path></g><g class="mark-group role-legend"><g transform="translate(818,0)"><path class="background" d="M0,0h112v105h-112Z" style="pointer-events: none; fill: none;"></path><g><g class="mark-group role-legend-entry"><g transform="translate(0,16)"><path class="background" d="M0,0h0v0h0Z" style="pointer-events: none; fill: none;"></path><g><g class="mark-group role-scope"><g transform="translate(0,0)"><path class="background" d="M0,0h112v11h-112Z" style="pointer-events: none; fill: none; opacity: 1;"></path><g><g class="mark-symbol role-legend-symbol" style="pointer-events: none;"><path transform="translate(6,6)" d="M-5,-5h10v10h-10Z" style="fill: #4c78a8; stroke-width: 1.5; opacity: 1;"></path></g><g class="mark-text role-legend-label" style="pointer-events: none;"><text text-anchor="start" transform="translate(16,9)" style="font-family: sans-serif; font-size: 10px; fill: #000; opacity: 1;">APOLLO</text></g></g><path class="foreground" d="" style="pointer-events: none; display: none; fill: none;"></path></g><g transform="translate(0,13)"><path class="background" d="M0,0h112v11h-112Z" style="pointer-events: none; fill: none; opacity: 1;"></path><g><g class="mark-symbol role-legend-symbol" style="pointer-events: none;"><path transform="translate(6,6)" d="M-5,-5h10v10h-10Z" style="fill: #f58518; stroke-width: 1.5; opacity: 1;"></path></g><g class="mark-text role-legend-label" style="pointer-events: none;"><text text-anchor="start" transform="translate(16,9)" style="font-family: sans-serif; font-size: 10px; fill: #000; opacity: 1;">EDF</text></g></g><path class="foreground" d="" style="pointer-events: none; display: none; fill: none;"></path></g><g transform="translate(0,26)"><path class="background" d="M0,0h112v11h-112Z" style="pointer-events: none; fill: none; opacity: 1;"></path><g><g class="mark-symbol role-legend-symbol" style="pointer-events: none;"><path transform="translate(6,6)" d="M-5,-5h10v10h-10Z" style="fill: #e45756; stroke-width: 1.5; opacity: 1;"></path></g><g class="mark-text role-legend-label" style="pointer-events: none;"><text text-anchor="start" transform="translate(16,9)" style="font-family: sans-serif; font-size: 10px; fill: #000; opacity: 1;">ETL</text></g></g><path class="foreground" d="" style="pointer-events: none; display: none; fill: none;"></path></g><g transform="translate(0,39)"><path class="background" d="M0,0h112v11h-112Z" style="pointer-events: none; fill: none; opacity: 1;"></path><g><g class="mark-symbol role-legend-symbol" style="pointer-events: none;"><path transform="translate(6,6)" d="M-5,-5h10v10h-10Z" style="fill: #72b7b2; stroke-width: 1.5; opacity: 1;"></path></g><g class="mark-text role-legend-label" style="pointer-events: none;"><text text-anchor="start" transform="translate(16,9)" style="font-family: sans-serif; font-size: 10px; fill: #000; opacity: 1;">GEM</text></g></g><path class="foreground" d="" style="pointer-events: none; display: none; fill: none;"></path></g><g transform="translate(0,52)"><path class="background" d="M0,0h112v11h-112Z" style="pointer-events: none; fill: none; opacity: 1;"></path><g><g class="mark-symbol role-legend-symbol" style="pointer-events: none;"><path transform="translate(6,6)" d="M-5,-5h10v10h-10Z" style="fill: #54a24b; stroke-width: 1.5; opacity: 1;"></path></g><g class="mark-text role-legend-label" style="pointer-events: none;"><text text-anchor="start" transform="translate(16,9)" style="font-family: sans-serif; font-size: 10px; fill: #000; opacity: 1;">L0MDT</text></g></g><path class="foreground" d="" style="pointer-events: none; display: none; fill: none;"></path></g><g transform="translate(0,65)"><path class="background" d="M0,0h112v11h-112Z" style="pointer-events: none; fill: none; opacity: 1;"></path><g><g class="mark-symbol role-legend-symbol" style="pointer-events: none;"><path transform="translate(6,6)" d="M-5,-5h10v10h-10Z" style="fill: #eeca3b; stroke-width: 1.5; opacity: 1;"></path></g><g class="mark-text role-legend-label" style="pointer-events: none;"><text text-anchor="start" transform="translate(16,9)" style="font-family: sans-serif; font-size: 10px; fill: #000; opacity: 1;">OTHER PRJ</text></g></g><path class="foreground" d="" style="pointer-events: none; display: none; fill: none;"></path></g><g transform="translate(0,78)"><path class="background" d="M0,0h112v11h-112Z" style="pointer-events: none; fill: none; opacity: 1;"></path><g><g class="mark-symbol role-legend-symbol" style="pointer-events: none;"><path transform="translate(6,6)" d="M-5,-5h10v10h-10Z" style="fill: #b279a2; stroke-width: 1.5; opacity: 1;"></path></g><g class="mark-text role-legend-label" style="pointer-events: none;"><text text-anchor="start" transform="translate(16,9)" style="font-family: sans-serif; font-size: 10px; fill: #000; opacity: 1;">VAC/SICK/HOL</text></g></g><path class="foreground" d="" style="pointer-events: none; display: none; fill: none;"></path></g></g></g><path class="foreground" d="" style="pointer-events: none; display: none; fill: none;"></path></g></g><g class="mark-text role-legend-title" style="pointer-events: none;"><text text-anchor="start" transform="translate(0,9)" style="font-family: sans-serif; font-size: 11px; font-weight: bold; fill: #000; opacity: 1;">Project</text></g></g><path class="foreground" d="" style="pointer-events: none; display: none; fill: none;"></path></g></g></g><path class="foreground" d="" style="display: none; fill: none;"></path></g></g></g></svg>