<?xml version="1.0" encoding="utf-8" standalone="no"?>
<!DOCTYPE svg PUBLIC "-//W3C//DTD SVG 1.1//EN"
  "http://www.w3.org/Graphics/SVG/1.1/DTD/svg11.dtd">
<svg height="360pt" version="1.1" viewBox="0 0 540 360" width="540pt" xmlns="http://www.w3.org/2000/svg" xmlns:xlink="http://www.w3.org/1999/xlink">
 <metadata>
  <rdf:RDF xmlns:cc="http://creativecommons.org/ns#" xmlns:dc="http://purl.org/dc/elements/1.1/" xmlns:rdf="http://www.w3.org/1999/02/22-rdf-syntax-ns#">
   <cc:Work>
    <dc:type rdf:resource="http://purl.org/dc/dcmitype/StillImage"/>
    <dc:date>2022-08-04T21:33:08.030937</dc:date>
    <dc:format>image/svg+xml</dc:format>
    <dc:creator>
     <cc:Agent>
      <dc:title>Matplotlib v3.4.2, https://matplotlib.org/</dc:title>
     </cc:Agent>
    </dc:creator>
   </cc:Work>
  </rdf:RDF>
 </metadata>
 <defs>
  <style type="text/css">*{stroke-linecap:butt;stroke-linejoin:round;}</style>
 </defs>
 <g id="figure_1">
  <g id="patch_1">
   <path d="M 0 360 
L 540 360 
L 540 0 
L 0 0 
z
" style="fill:#ffffff;"/>
  </g>
  <g id="axes_1">
   <g id="patch_2">
    <path d="M 33.703125 307.645938 
L 437.596875 307.645938 
L 437.596875 25.918125 
L 33.703125 25.918125 
z
" style="fill:#ffffff;"/>
   </g>
   <g id="PolyCollection_1">
    <defs>
     <path d="M 33.703125 -75.650631 
L 33.703125 -52.354062 
L 54.960691 -52.354062 
L 76.218257 -52.354062 
L 97.475822 -52.354062 
L 118.733388 -52.354062 
L 139.990954 -52.354062 
L 161.24852 -52.354062 
L 182.506086 -52.354062 
L 203.763651 -52.354062 
L 225.021217 -52.354062 
L 246.278783 -52.354062 
L 267.536349 -52.354062 
L 288.793914 -52.354062 
L 310.05148 -52.354062 
L 331.309046 -52.354062 
L 352.566612 -52.354062 
L 373.824178 -52.354062 
L 395.081743 -52.354062 
L 416.339309 -52.354062 
L 437.596875 -52.354062 
L 437.596875 -52.354062 
L 437.596875 -52.354062 
L 416.339309 -53.960722 
L 395.081743 -82.8806 
L 373.824178 -75.650631 
L 352.566612 -59.048479 
L 331.309046 -113.942692 
L 310.05148 -113.942692 
L 288.793914 -73.508418 
L 267.536349 -133.758164 
L 246.278783 -71.633981 
L 225.021217 -63.868458 
L 203.763651 -72.972864 
L 182.506086 -80.202834 
L 161.24852 -71.633981 
L 139.990954 -97.876093 
L 118.733388 -79.667281 
L 97.475822 -58.245149 
L 76.218257 -90.11057 
L 54.960691 -71.366205 
L 33.703125 -75.650631 
z
" id="mb7f84b0069" style="stroke:#1f77b4;"/>
    </defs>
    <g clip-path="url(#p368e23efe7)">
     <use style="fill:#1f77b4;stroke:#1f77b4;" x="0" xlink:href="#mb7f84b0069" y="360"/>
    </g>
   </g>
   <g id="PolyCollection_2">
    <defs>
     <path d="M 33.703125 -75.650631 
L 33.703125 -75.650631 
L 54.960691 -71.366205 
L 76.218257 -90.11057 
L 97.475822 -58.245149 
L 118.733388 -79.667281 
L 139.990954 -97.876093 
L 161.24852 -71.633981 
L 182.506086 -80.202834 
L 203.763651 -72.972864 
L 225.021217 -63.868458 
L 246.278783 -71.633981 
L 267.536349 -133.758164 
L 288.793914 -73.508418 
L 310.05148 -113.942692 
L 331.309046 -113.942692 
L 352.566612 -59.048479 
L 373.824178 -75.650631 
L 395.081743 -82.8806 
L 416.339309 -53.960722 
L 437.596875 -52.354062 
L 437.596875 -52.354062 
L 437.596875 -52.354062 
L 416.339309 -53.960722 
L 395.081743 -82.8806 
L 373.824178 -77.257291 
L 352.566612 -62.261799 
L 331.309046 -127.599301 
L 310.05148 -129.741514 
L 288.793914 -91.181677 
L 267.536349 -133.758164 
L 246.278783 -71.633981 
L 225.021217 -63.868458 
L 203.763651 -76.989514 
L 182.506086 -81.006164 
L 161.24852 -75.918408 
L 139.990954 -97.876093 
L 118.733388 -80.738387 
L 97.475822 -58.245149 
L 76.218257 -91.181677 
L 54.960691 -71.366205 
L 33.703125 -75.650631 
z
" id="m7326675d90" style="stroke:#ff7f0e;"/>
    </defs>
    <g clip-path="url(#p368e23efe7)">
     <use style="fill:#ff7f0e;stroke:#ff7f0e;" x="0" xlink:href="#m7326675d90" y="360"/>
    </g>
   </g>
   <g id="PolyCollection_3">
    <defs>
     <path d="M 33.703125 -93.591666 
L 33.703125 -75.650631 
L 54.960691 -71.366205 
L 76.218257 -91.181677 
L 97.475822 -58.245149 
L 118.733388 -80.738387 
L 139.990954 -97.876093 
L 161.24852 -75.918408 
L 182.506086 -81.006164 
L 203.763651 -76.989514 
L 225.021217 -63.868458 
L 246.278783 -71.633981 
L 267.536349 -133.758164 
L 288.793914 -91.181677 
L 310.05148 -129.741514 
L 331.309046 -127.599301 
L 352.566612 -62.261799 
L 373.824178 -77.257291 
L 395.081743 -82.8806 
L 416.339309 -53.960722 
L 437.596875 -52.354062 
L 437.596875 -159.464722 
L 437.596875 -159.464722 
L 416.339309 -108.854935 
L 395.081743 -111.264925 
L 373.824178 -117.691565 
L 352.566612 -88.771687 
L 331.309046 -144.737006 
L 310.05148 -160.000275 
L 288.793914 -109.926042 
L 267.536349 -149.289209 
L 246.278783 -111.532702 
L 225.021217 -103.499402 
L 203.763651 -143.6659 
L 182.506086 -111.532702 
L 161.24852 -114.478245 
L 139.990954 -107.783829 
L 118.733388 -128.134854 
L 97.475822 -135.097047 
L 76.218257 -116.620458 
L 54.960691 -91.71723 
L 33.703125 -93.591666 
z
" id="mf00b1e5658" style="stroke:#2ca02c;"/>
    </defs>
    <g clip-path="url(#p368e23efe7)">
     <use style="fill:#2ca02c;stroke:#2ca02c;" x="0" xlink:href="#mf00b1e5658" y="360"/>
    </g>
   </g>
   <g id="PolyCollection_4">
    <defs>
     <path d="M 33.703125 -140.45258 
L 33.703125 -93.591666 
L 54.960691 -91.71723 
L 76.218257 -116.620458 
L 97.475822 -135.097047 
L 118.733388 -128.134854 
L 139.990954 -107.783829 
L 161.24852 -114.478245 
L 182.506086 -111.532702 
L 203.763651 -143.6659 
L 225.021217 -103.499402 
L 246.278783 -111.532702 
L 267.536349 -149.289209 
L 288.793914 -109.926042 
L 310.05148 -160.000275 
L 331.309046 -144.737006 
L 352.566612 -88.771687 
L 373.824178 -117.691565 
L 395.081743 -111.264925 
L 416.339309 -108.854935 
L 437.596875 -159.464722 
L 437.596875 -159.464722 
L 437.596875 -159.464722 
L 416.339309 -124.385981 
L 395.081743 -150.092539 
L 373.824178 -201.773433 
L 352.566612 -158.125839 
L 331.309046 -179.012418 
L 310.05148 -190.259037 
L 288.793914 -275.144235 
L 267.536349 -290.943057 
L 246.278783 -240.33327 
L 225.021217 -227.747768 
L 203.763651 -192.669027 
L 182.506086 -192.40125 
L 161.24852 -149.824763 
L 139.990954 -144.737006 
L 118.733388 -203.647869 
L 97.475822 -214.358935 
L 76.218257 -225.873331 
L 54.960691 -193.20458 
L 33.703125 -140.45258 
z
" id="m9ca06a068d" style="stroke:#d62728;"/>
    </defs>
    <g clip-path="url(#p368e23efe7)">
     <use style="fill:#d62728;stroke:#d62728;" x="0" xlink:href="#m9ca06a068d" y="360"/>
    </g>
   </g>
   <g id="PolyCollection_5">
    <defs>
     <path d="M 33.703125 -140.45258 
L 33.703125 -140.45258 
L 54.960691 -193.20458 
L 76.218257 -225.873331 
L 97.475822 -214.358935 
L 118.733388 -203.647869 
L 139.990954 -144.737006 
L 161.24852 -149.824763 
L 182.506086 -192.40125 
L 203.763651 -192.669027 
L 225.021217 -227.747768 
L 246.278783 -240.33327 
L 267.536349 -290.943057 
L 288.793914 -275.144235 
L 310.05148 -190.259037 
L 331.309046 -179.012418 
L 352.566612 -158.125839 
L 373.824178 -201.773433 
L 395.081743 -150.092539 
L 416.339309 -124.385981 
L 437.596875 -159.464722 
L 437.596875 -159.464722 
L 437.596875 -159.464722 
L 416.339309 -124.385981 
L 395.081743 -150.092539 
L 373.824178 -201.773433 
L 352.566612 -158.125839 
L 331.309046 -179.012418 
L 310.05148 -190.259037 
L 288.793914 -275.144235 
L 267.536349 -290.943057 
L 246.278783 -244.885473 
L 225.021217 -227.747768 
L 203.763651 -192.669027 
L 182.506086 -194.00791 
L 161.24852 -163.749149 
L 139.990954 -178.744641 
L 118.733388 -217.840032 
L 97.475822 -224.802225 
L 76.218257 -239.262164 
L 54.960691 -193.20458 
L 33.703125 -140.45258 
z
" id="m1b15eb528b" style="stroke:#9467bd;"/>
    </defs>
    <g clip-path="url(#p368e23efe7)">
     <use style="fill:#9467bd;stroke:#9467bd;" x="0" xlink:href="#m1b15eb528b" y="360"/>
    </g>
   </g>
   <g id="PolyCollection_6">
    <defs>
     <path d="M 33.703125 -270.859808 
L 33.703125 -140.45258 
L 54.960691 -193.20458 
L 76.218257 -239.262164 
L 97.475822 -224.802225 
L 118.733388 -217.840032 
L 139.990954 -178.744641 
L 161.24852 -163.749149 
L 182.506086 -194.00791 
L 203.763651 -192.669027 
L 225.021217 -227.747768 
L 246.278783 -244.885473 
L 267.536349 -290.943057 
L 288.793914 -275.144235 
L 310.05148 -190.259037 
L 331.309046 -179.012418 
L 352.566612 -158.125839 
L 373.824178 -201.773433 
L 395.081743 -150.092539 
L 416.339309 -124.385981 
L 437.596875 -159.464722 
L 437.596875 -320.130712 
L 437.596875 -320.130712 
L 416.339309 -316.649615 
L 395.081743 -295.49526 
L 373.824178 -307.545209 
L 352.566612 -311.829635 
L 331.309046 -263.094285 
L 310.05148 -264.968722 
L 288.793914 -312.900742 
L 267.536349 -309.151869 
L 246.278783 -302.993006 
L 225.021217 -289.336397 
L 203.763651 -268.449818 
L 182.506086 -295.763037 
L 161.24852 -233.371077 
L 139.990954 -211.145615 
L 118.733388 -257.203199 
L 97.475822 -265.504275 
L 76.218257 -264.700945 
L 54.960691 -244.617697 
L 33.703125 -270.859808 
z
" id="m051b256e24" style="stroke:#8c564b;"/>
    </defs>
    <g clip-path="url(#p368e23efe7)">
     <use style="fill:#8c564b;stroke:#8c564b;" x="0" xlink:href="#m051b256e24" y="360"/>
    </g>
   </g>
   <g id="PolyCollection_7">
    <defs>
     <path d="M 33.703125 -319.862935 
L 33.703125 -270.859808 
L 54.960691 -244.617697 
L 76.218257 -264.700945 
L 97.475822 -265.504275 
L 118.733388 -257.203199 
L 139.990954 -211.145615 
L 161.24852 -233.371077 
L 182.506086 -295.763037 
L 203.763651 -268.449818 
L 225.021217 -289.336397 
L 246.278783 -302.993006 
L 267.536349 -309.151869 
L 288.793914 -312.900742 
L 310.05148 -264.968722 
L 331.309046 -263.094285 
L 352.566612 -311.829635 
L 373.824178 -307.545209 
L 395.081743 -295.49526 
L 416.339309 -316.649615 
L 437.596875 -320.130712 
L 437.596875 -320.130712 
L 437.596875 -320.130712 
L 416.339309 -320.130712 
L 395.081743 -320.130712 
L 373.824178 -320.130712 
L 352.566612 -320.130712 
L 331.309046 -320.130712 
L 310.05148 -320.398488 
L 288.793914 -319.862935 
L 267.536349 -320.398488 
L 246.278783 -320.130712 
L 225.021217 -320.130712 
L 203.763651 -320.398488 
L 182.506086 -320.130712 
L 161.24852 -320.130712 
L 139.990954 -319.862935 
L 118.733388 -320.666265 
L 97.475822 -320.130712 
L 76.218257 -319.862935 
L 54.960691 -320.398488 
L 33.703125 -319.862935 
z
" id="mc19543ddb4" style="stroke:#e377c2;"/>
    </defs>
    <g clip-path="url(#p368e23efe7)">
     <use style="fill:#e377c2;stroke:#e377c2;" x="0" xlink:href="#mc19543ddb4" y="360"/>
    </g>
   </g>
   <g id="matplotlib.axis_1">
    <g id="xtick_1">
     <g id="line2d_1">
      <defs>
       <path d="M 0 0 
L 0 3.5 
" id="m319f20f67c" style="stroke:#000000;stroke-width:0.8;"/>
      </defs>
      <g>
       <use style="stroke:#000000;stroke-width:0.8;" x="33.703125" xlink:href="#m319f20f67c" y="307.645938"/>
      </g>
     </g>
     <g id="text_1">
      <!-- Jan -->
      <g transform="translate(25.995313 322.244375)scale(0.1 -0.1)">
       <defs>
        <path d="M 628 4666 
L 1259 4666 
L 1259 325 
Q 1259 -519 939 -900 
Q 619 -1281 -91 -1281 
L -331 -1281 
L -331 -750 
L -134 -750 
Q 284 -750 456 -515 
Q 628 -281 628 325 
L 628 4666 
z
" id="DejaVuSans-4a" transform="scale(0.015625)"/>
        <path d="M 2194 1759 
Q 1497 1759 1228 1600 
Q 959 1441 959 1056 
Q 959 750 1161 570 
Q 1363 391 1709 391 
Q 2188 391 2477 730 
Q 2766 1069 2766 1631 
L 2766 1759 
L 2194 1759 
z
M 3341 1997 
L 3341 0 
L 2766 0 
L 2766 531 
Q 2569 213 2275 61 
Q 1981 -91 1556 -91 
Q 1019 -91 701 211 
Q 384 513 384 1019 
Q 384 1609 779 1909 
Q 1175 2209 1959 2209 
L 2766 2209 
L 2766 2266 
Q 2766 2663 2505 2880 
Q 2244 3097 1772 3097 
Q 1472 3097 1187 3025 
Q 903 2953 641 2809 
L 641 3341 
Q 956 3463 1253 3523 
Q 1550 3584 1831 3584 
Q 2591 3584 2966 3190 
Q 3341 2797 3341 1997 
z
" id="DejaVuSans-61" transform="scale(0.015625)"/>
        <path d="M 3513 2113 
L 3513 0 
L 2938 0 
L 2938 2094 
Q 2938 2591 2744 2837 
Q 2550 3084 2163 3084 
Q 1697 3084 1428 2787 
Q 1159 2491 1159 1978 
L 1159 0 
L 581 0 
L 581 3500 
L 1159 3500 
L 1159 2956 
Q 1366 3272 1645 3428 
Q 1925 3584 2291 3584 
Q 2894 3584 3203 3211 
Q 3513 2838 3513 2113 
z
" id="DejaVuSans-6e" transform="scale(0.015625)"/>
       </defs>
       <use xlink:href="#DejaVuSans-4a"/>
       <use x="29.492188" xlink:href="#DejaVuSans-61"/>
       <use x="90.771484" xlink:href="#DejaVuSans-6e"/>
      </g>
      <!-- 2021 -->
      <g transform="translate(20.978125 333.442187)scale(0.1 -0.1)">
       <defs>
        <path d="M 1228 531 
L 3431 531 
L 3431 0 
L 469 0 
L 469 531 
Q 828 903 1448 1529 
Q 2069 2156 2228 2338 
Q 2531 2678 2651 2914 
Q 2772 3150 2772 3378 
Q 2772 3750 2511 3984 
Q 2250 4219 1831 4219 
Q 1534 4219 1204 4116 
Q 875 4013 500 3803 
L 500 4441 
Q 881 4594 1212 4672 
Q 1544 4750 1819 4750 
Q 2544 4750 2975 4387 
Q 3406 4025 3406 3419 
Q 3406 3131 3298 2873 
Q 3191 2616 2906 2266 
Q 2828 2175 2409 1742 
Q 1991 1309 1228 531 
z
" id="DejaVuSans-32" transform="scale(0.015625)"/>
        <path d="M 2034 4250 
Q 1547 4250 1301 3770 
Q 1056 3291 1056 2328 
Q 1056 1369 1301 889 
Q 1547 409 2034 409 
Q 2525 409 2770 889 
Q 3016 1369 3016 2328 
Q 3016 3291 2770 3770 
Q 2525 4250 2034 4250 
z
M 2034 4750 
Q 2819 4750 3233 4129 
Q 3647 3509 3647 2328 
Q 3647 1150 3233 529 
Q 2819 -91 2034 -91 
Q 1250 -91 836 529 
Q 422 1150 422 2328 
Q 422 3509 836 4129 
Q 1250 4750 2034 4750 
z
" id="DejaVuSans-30" transform="scale(0.015625)"/>
        <path d="M 794 531 
L 1825 531 
L 1825 4091 
L 703 3866 
L 703 4441 
L 1819 4666 
L 2450 4666 
L 2450 531 
L 3481 531 
L 3481 0 
L 794 0 
L 794 531 
z
" id="DejaVuSans-31" transform="scale(0.015625)"/>
       </defs>
       <use xlink:href="#DejaVuSans-32"/>
       <use x="63.623047" xlink:href="#DejaVuSans-30"/>
       <use x="127.246094" xlink:href="#DejaVuSans-32"/>
       <use x="190.869141" xlink:href="#DejaVuSans-31"/>
      </g>
     </g>
    </g>
    <g id="xtick_2">
     <g id="line2d_2">
      <g>
       <use style="stroke:#000000;stroke-width:0.8;" x="288.793914" xlink:href="#m319f20f67c" y="307.645938"/>
      </g>
     </g>
     <g id="text_2">
      <!-- Jan -->
      <g transform="translate(281.086102 322.244375)scale(0.1 -0.1)">
       <use xlink:href="#DejaVuSans-4a"/>
       <use x="29.492188" xlink:href="#DejaVuSans-61"/>
       <use x="90.771484" xlink:href="#DejaVuSans-6e"/>
      </g>
      <!-- 2022 -->
      <g transform="translate(276.068914 333.442187)scale(0.1 -0.1)">
       <use xlink:href="#DejaVuSans-32"/>
       <use x="63.623047" xlink:href="#DejaVuSans-30"/>
       <use x="127.246094" xlink:href="#DejaVuSans-32"/>
       <use x="190.869141" xlink:href="#DejaVuSans-32"/>
      </g>
     </g>
    </g>
    <g id="xtick_3">
     <g id="line2d_3">
      <defs>
       <path d="M 0 0 
L 0 2 
" id="m119f4a4b6f" style="stroke:#000000;stroke-width:0.6;"/>
      </defs>
      <g>
       <use style="stroke:#000000;stroke-width:0.6;" x="54.960691" xlink:href="#m119f4a4b6f" y="307.645938"/>
      </g>
     </g>
    </g>
    <g id="xtick_4">
     <g id="line2d_4">
      <g>
       <use style="stroke:#000000;stroke-width:0.6;" x="76.218257" xlink:href="#m119f4a4b6f" y="307.645938"/>
      </g>
     </g>
    </g>
    <g id="xtick_5">
     <g id="line2d_5">
      <g>
       <use style="stroke:#000000;stroke-width:0.6;" x="97.475822" xlink:href="#m119f4a4b6f" y="307.645938"/>
      </g>
     </g>
     <g id="text_3">
      <!-- Apr -->
      <g transform="translate(88.825822 320.644375)scale(0.1 -0.1)">
       <defs>
        <path d="M 2188 4044 
L 1331 1722 
L 3047 1722 
L 2188 4044 
z
M 1831 4666 
L 2547 4666 
L 4325 0 
L 3669 0 
L 3244 1197 
L 1141 1197 
L 716 0 
L 50 0 
L 1831 4666 
z
" id="DejaVuSans-41" transform="scale(0.015625)"/>
        <path d="M 1159 525 
L 1159 -1331 
L 581 -1331 
L 581 3500 
L 1159 3500 
L 1159 2969 
Q 1341 3281 1617 3432 
Q 1894 3584 2278 3584 
Q 2916 3584 3314 3078 
Q 3713 2572 3713 1747 
Q 3713 922 3314 415 
Q 2916 -91 2278 -91 
Q 1894 -91 1617 61 
Q 1341 213 1159 525 
z
M 3116 1747 
Q 3116 2381 2855 2742 
Q 2594 3103 2138 3103 
Q 1681 3103 1420 2742 
Q 1159 2381 1159 1747 
Q 1159 1113 1420 752 
Q 1681 391 2138 391 
Q 2594 391 2855 752 
Q 3116 1113 3116 1747 
z
" id="DejaVuSans-70" transform="scale(0.015625)"/>
        <path d="M 2631 2963 
Q 2534 3019 2420 3045 
Q 2306 3072 2169 3072 
Q 1681 3072 1420 2755 
Q 1159 2438 1159 1844 
L 1159 0 
L 581 0 
L 581 3500 
L 1159 3500 
L 1159 2956 
Q 1341 3275 1631 3429 
Q 1922 3584 2338 3584 
Q 2397 3584 2469 3576 
Q 2541 3569 2628 3553 
L 2631 2963 
z
" id="DejaVuSans-72" transform="scale(0.015625)"/>
       </defs>
       <use xlink:href="#DejaVuSans-41"/>
       <use x="68.408203" xlink:href="#DejaVuSans-70"/>
       <use x="131.884766" xlink:href="#DejaVuSans-72"/>
      </g>
     </g>
    </g>
    <g id="xtick_6">
     <g id="line2d_6">
      <g>
       <use style="stroke:#000000;stroke-width:0.6;" x="118.733388" xlink:href="#m119f4a4b6f" y="307.645938"/>
      </g>
     </g>
    </g>
    <g id="xtick_7">
     <g id="line2d_7">
      <g>
       <use style="stroke:#000000;stroke-width:0.6;" x="139.990954" xlink:href="#m119f4a4b6f" y="307.645938"/>
      </g>
     </g>
    </g>
    <g id="xtick_8">
     <g id="line2d_8">
      <g>
       <use style="stroke:#000000;stroke-width:0.6;" x="161.24852" xlink:href="#m119f4a4b6f" y="307.645938"/>
      </g>
     </g>
     <g id="text_4">
      <!-- Jul -->
      <g transform="translate(155.215707 320.644375)scale(0.1 -0.1)">
       <defs>
        <path d="M 544 1381 
L 544 3500 
L 1119 3500 
L 1119 1403 
Q 1119 906 1312 657 
Q 1506 409 1894 409 
Q 2359 409 2629 706 
Q 2900 1003 2900 1516 
L 2900 3500 
L 3475 3500 
L 3475 0 
L 2900 0 
L 2900 538 
Q 2691 219 2414 64 
Q 2138 -91 1772 -91 
Q 1169 -91 856 284 
Q 544 659 544 1381 
z
M 1991 3584 
L 1991 3584 
z
" id="DejaVuSans-75" transform="scale(0.015625)"/>
        <path d="M 603 4863 
L 1178 4863 
L 1178 0 
L 603 0 
L 603 4863 
z
" id="DejaVuSans-6c" transform="scale(0.015625)"/>
       </defs>
       <use xlink:href="#DejaVuSans-4a"/>
       <use x="29.492188" xlink:href="#DejaVuSans-75"/>
       <use x="92.871094" xlink:href="#DejaVuSans-6c"/>
      </g>
     </g>
    </g>
    <g id="xtick_9">
     <g id="line2d_9">
      <g>
       <use style="stroke:#000000;stroke-width:0.6;" x="182.506086" xlink:href="#m119f4a4b6f" y="307.645938"/>
      </g>
     </g>
    </g>
    <g id="xtick_10">
     <g id="line2d_10">
      <g>
       <use style="stroke:#000000;stroke-width:0.6;" x="203.763651" xlink:href="#m119f4a4b6f" y="307.645938"/>
      </g>
     </g>
    </g>
    <g id="xtick_11">
     <g id="line2d_11">
      <g>
       <use style="stroke:#000000;stroke-width:0.6;" x="225.021217" xlink:href="#m119f4a4b6f" y="307.645938"/>
      </g>
     </g>
     <g id="text_5">
      <!-- Oct -->
      <g transform="translate(216.375905 320.644375)scale(0.1 -0.1)">
       <defs>
        <path d="M 2522 4238 
Q 1834 4238 1429 3725 
Q 1025 3213 1025 2328 
Q 1025 1447 1429 934 
Q 1834 422 2522 422 
Q 3209 422 3611 934 
Q 4013 1447 4013 2328 
Q 4013 3213 3611 3725 
Q 3209 4238 2522 4238 
z
M 2522 4750 
Q 3503 4750 4090 4092 
Q 4678 3434 4678 2328 
Q 4678 1225 4090 567 
Q 3503 -91 2522 -91 
Q 1538 -91 948 565 
Q 359 1222 359 2328 
Q 359 3434 948 4092 
Q 1538 4750 2522 4750 
z
" id="DejaVuSans-4f" transform="scale(0.015625)"/>
        <path d="M 3122 3366 
L 3122 2828 
Q 2878 2963 2633 3030 
Q 2388 3097 2138 3097 
Q 1578 3097 1268 2742 
Q 959 2388 959 1747 
Q 959 1106 1268 751 
Q 1578 397 2138 397 
Q 2388 397 2633 464 
Q 2878 531 3122 666 
L 3122 134 
Q 2881 22 2623 -34 
Q 2366 -91 2075 -91 
Q 1284 -91 818 406 
Q 353 903 353 1747 
Q 353 2603 823 3093 
Q 1294 3584 2113 3584 
Q 2378 3584 2631 3529 
Q 2884 3475 3122 3366 
z
" id="DejaVuSans-63" transform="scale(0.015625)"/>
        <path d="M 1172 4494 
L 1172 3500 
L 2356 3500 
L 2356 3053 
L 1172 3053 
L 1172 1153 
Q 1172 725 1289 603 
Q 1406 481 1766 481 
L 2356 481 
L 2356 0 
L 1766 0 
Q 1100 0 847 248 
Q 594 497 594 1153 
L 594 3053 
L 172 3053 
L 172 3500 
L 594 3500 
L 594 4494 
L 1172 4494 
z
" id="DejaVuSans-74" transform="scale(0.015625)"/>
       </defs>
       <use xlink:href="#DejaVuSans-4f"/>
       <use x="78.710938" xlink:href="#DejaVuSans-63"/>
       <use x="133.691406" xlink:href="#DejaVuSans-74"/>
      </g>
     </g>
    </g>
    <g id="xtick_12">
     <g id="line2d_12">
      <g>
       <use style="stroke:#000000;stroke-width:0.6;" x="246.278783" xlink:href="#m119f4a4b6f" y="307.645938"/>
      </g>
     </g>
    </g>
    <g id="xtick_13">
     <g id="line2d_13">
      <g>
       <use style="stroke:#000000;stroke-width:0.6;" x="267.536349" xlink:href="#m119f4a4b6f" y="307.645938"/>
      </g>
     </g>
    </g>
    <g id="xtick_14">
     <g id="line2d_14">
      <g>
       <use style="stroke:#000000;stroke-width:0.6;" x="310.05148" xlink:href="#m119f4a4b6f" y="307.645938"/>
      </g>
     </g>
    </g>
    <g id="xtick_15">
     <g id="line2d_15">
      <g>
       <use style="stroke:#000000;stroke-width:0.6;" x="331.309046" xlink:href="#m119f4a4b6f" y="307.645938"/>
      </g>
     </g>
    </g>
    <g id="xtick_16">
     <g id="line2d_16">
      <g>
       <use style="stroke:#000000;stroke-width:0.6;" x="352.566612" xlink:href="#m119f4a4b6f" y="307.645938"/>
      </g>
     </g>
     <g id="text_6">
      <!-- Apr -->
      <g transform="translate(343.916612 320.644375)scale(0.1 -0.1)">
       <use xlink:href="#DejaVuSans-41"/>
       <use x="68.408203" xlink:href="#DejaVuSans-70"/>
       <use x="131.884766" xlink:href="#DejaVuSans-72"/>
      </g>
     </g>
    </g>
    <g id="xtick_17">
     <g id="line2d_17">
      <g>
       <use style="stroke:#000000;stroke-width:0.6;" x="373.824178" xlink:href="#m119f4a4b6f" y="307.645938"/>
      </g>
     </g>
    </g>
    <g id="xtick_18">
     <g id="line2d_18">
      <g>
       <use style="stroke:#000000;stroke-width:0.6;" x="395.081743" xlink:href="#m119f4a4b6f" y="307.645938"/>
      </g>
     </g>
    </g>
    <g id="xtick_19">
     <g id="line2d_19">
      <g>
       <use style="stroke:#000000;stroke-width:0.6;" x="416.339309" xlink:href="#m119f4a4b6f" y="307.645938"/>
      </g>
     </g>
     <g id="text_7">
      <!-- Jul -->
      <g transform="translate(410.306497 320.644375)scale(0.1 -0.1)">
       <use xlink:href="#DejaVuSans-4a"/>
       <use x="29.492188" xlink:href="#DejaVuSans-75"/>
       <use x="92.871094" xlink:href="#DejaVuSans-6c"/>
      </g>
     </g>
    </g>
    <g id="xtick_20">
     <g id="line2d_20">
      <g>
       <use style="stroke:#000000;stroke-width:0.6;" x="437.596875" xlink:href="#m119f4a4b6f" y="307.645938"/>
      </g>
     </g>
    </g>
    <g id="text_8">
     <!-- Date -->
     <g transform="translate(223.699219 347.120313)scale(0.1 -0.1)">
      <defs>
       <path d="M 1259 4147 
L 1259 519 
L 2022 519 
Q 2988 519 3436 956 
Q 3884 1394 3884 2338 
Q 3884 3275 3436 3711 
Q 2988 4147 2022 4147 
L 1259 4147 
z
M 628 4666 
L 1925 4666 
Q 3281 4666 3915 4102 
Q 4550 3538 4550 2338 
Q 4550 1131 3912 565 
Q 3275 0 1925 0 
L 628 0 
L 628 4666 
z
" id="DejaVuSans-44" transform="scale(0.015625)"/>
       <path d="M 3597 1894 
L 3597 1613 
L 953 1613 
Q 991 1019 1311 708 
Q 1631 397 2203 397 
Q 2534 397 2845 478 
Q 3156 559 3463 722 
L 3463 178 
Q 3153 47 2828 -22 
Q 2503 -91 2169 -91 
Q 1331 -91 842 396 
Q 353 884 353 1716 
Q 353 2575 817 3079 
Q 1281 3584 2069 3584 
Q 2775 3584 3186 3129 
Q 3597 2675 3597 1894 
z
M 3022 2063 
Q 3016 2534 2758 2815 
Q 2500 3097 2075 3097 
Q 1594 3097 1305 2825 
Q 1016 2553 972 2059 
L 3022 2063 
z
" id="DejaVuSans-65" transform="scale(0.015625)"/>
      </defs>
      <use xlink:href="#DejaVuSans-44"/>
      <use x="77.001953" xlink:href="#DejaVuSans-61"/>
      <use x="138.28125" xlink:href="#DejaVuSans-74"/>
      <use x="177.490234" xlink:href="#DejaVuSans-65"/>
     </g>
    </g>
   </g>
   <g id="matplotlib.axis_2">
    <g id="ytick_1">
     <g id="line2d_21">
      <defs>
       <path d="M 0 0 
L -3.5 0 
" id="mb76b85e567" style="stroke:#000000;stroke-width:0.8;"/>
      </defs>
      <g>
       <use style="stroke:#000000;stroke-width:0.8;" x="33.703125" xlink:href="#mb76b85e567" y="307.645938"/>
      </g>
     </g>
     <g id="text_9">
      <!-- 0.0 -->
      <g transform="translate(10.8 311.445156)scale(0.1 -0.1)">
       <defs>
        <path d="M 684 794 
L 1344 794 
L 1344 0 
L 684 0 
L 684 794 
z
" id="DejaVuSans-2e" transform="scale(0.015625)"/>
       </defs>
       <use xlink:href="#DejaVuSans-30"/>
       <use x="63.623047" xlink:href="#DejaVuSans-2e"/>
       <use x="95.410156" xlink:href="#DejaVuSans-30"/>
      </g>
     </g>
    </g>
    <g id="ytick_2">
     <g id="line2d_22">
      <g>
       <use style="stroke:#000000;stroke-width:0.8;" x="33.703125" xlink:href="#mb76b85e567" y="254.090608"/>
      </g>
     </g>
     <g id="text_10">
      <!-- 0.2 -->
      <g transform="translate(10.8 257.889826)scale(0.1 -0.1)">
       <use xlink:href="#DejaVuSans-30"/>
       <use x="63.623047" xlink:href="#DejaVuSans-2e"/>
       <use x="95.410156" xlink:href="#DejaVuSans-32"/>
      </g>
     </g>
    </g>
    <g id="ytick_3">
     <g id="line2d_23">
      <g>
       <use style="stroke:#000000;stroke-width:0.8;" x="33.703125" xlink:href="#mb76b85e567" y="200.535278"/>
      </g>
     </g>
     <g id="text_11">
      <!-- 0.4 -->
      <g transform="translate(10.8 204.334497)scale(0.1 -0.1)">
       <defs>
        <path d="M 2419 4116 
L 825 1625 
L 2419 1625 
L 2419 4116 
z
M 2253 4666 
L 3047 4666 
L 3047 1625 
L 3713 1625 
L 3713 1100 
L 3047 1100 
L 3047 0 
L 2419 0 
L 2419 1100 
L 313 1100 
L 313 1709 
L 2253 4666 
z
" id="DejaVuSans-34" transform="scale(0.015625)"/>
       </defs>
       <use xlink:href="#DejaVuSans-30"/>
       <use x="63.623047" xlink:href="#DejaVuSans-2e"/>
       <use x="95.410156" xlink:href="#DejaVuSans-34"/>
      </g>
     </g>
    </g>
    <g id="ytick_4">
     <g id="line2d_24">
      <g>
       <use style="stroke:#000000;stroke-width:0.8;" x="33.703125" xlink:href="#mb76b85e567" y="146.979948"/>
      </g>
     </g>
     <g id="text_12">
      <!-- 0.6 -->
      <g transform="translate(10.8 150.779167)scale(0.1 -0.1)">
       <defs>
        <path d="M 2113 2584 
Q 1688 2584 1439 2293 
Q 1191 2003 1191 1497 
Q 1191 994 1439 701 
Q 1688 409 2113 409 
Q 2538 409 2786 701 
Q 3034 994 3034 1497 
Q 3034 2003 2786 2293 
Q 2538 2584 2113 2584 
z
M 3366 4563 
L 3366 3988 
Q 3128 4100 2886 4159 
Q 2644 4219 2406 4219 
Q 1781 4219 1451 3797 
Q 1122 3375 1075 2522 
Q 1259 2794 1537 2939 
Q 1816 3084 2150 3084 
Q 2853 3084 3261 2657 
Q 3669 2231 3669 1497 
Q 3669 778 3244 343 
Q 2819 -91 2113 -91 
Q 1303 -91 875 529 
Q 447 1150 447 2328 
Q 447 3434 972 4092 
Q 1497 4750 2381 4750 
Q 2619 4750 2861 4703 
Q 3103 4656 3366 4563 
z
" id="DejaVuSans-36" transform="scale(0.015625)"/>
       </defs>
       <use xlink:href="#DejaVuSans-30"/>
       <use x="63.623047" xlink:href="#DejaVuSans-2e"/>
       <use x="95.410156" xlink:href="#DejaVuSans-36"/>
      </g>
     </g>
    </g>
    <g id="ytick_5">
     <g id="line2d_25">
      <g>
       <use style="stroke:#000000;stroke-width:0.8;" x="33.703125" xlink:href="#mb76b85e567" y="93.424618"/>
      </g>
     </g>
     <g id="text_13">
      <!-- 0.8 -->
      <g transform="translate(10.8 97.223837)scale(0.1 -0.1)">
       <defs>
        <path d="M 2034 2216 
Q 1584 2216 1326 1975 
Q 1069 1734 1069 1313 
Q 1069 891 1326 650 
Q 1584 409 2034 409 
Q 2484 409 2743 651 
Q 3003 894 3003 1313 
Q 3003 1734 2745 1975 
Q 2488 2216 2034 2216 
z
M 1403 2484 
Q 997 2584 770 2862 
Q 544 3141 544 3541 
Q 544 4100 942 4425 
Q 1341 4750 2034 4750 
Q 2731 4750 3128 4425 
Q 3525 4100 3525 3541 
Q 3525 3141 3298 2862 
Q 3072 2584 2669 2484 
Q 3125 2378 3379 2068 
Q 3634 1759 3634 1313 
Q 3634 634 3220 271 
Q 2806 -91 2034 -91 
Q 1263 -91 848 271 
Q 434 634 434 1313 
Q 434 1759 690 2068 
Q 947 2378 1403 2484 
z
M 1172 3481 
Q 1172 3119 1398 2916 
Q 1625 2713 2034 2713 
Q 2441 2713 2670 2916 
Q 2900 3119 2900 3481 
Q 2900 3844 2670 4047 
Q 2441 4250 2034 4250 
Q 1625 4250 1398 4047 
Q 1172 3844 1172 3481 
z
" id="DejaVuSans-38" transform="scale(0.015625)"/>
       </defs>
       <use xlink:href="#DejaVuSans-30"/>
       <use x="63.623047" xlink:href="#DejaVuSans-2e"/>
       <use x="95.410156" xlink:href="#DejaVuSans-38"/>
      </g>
     </g>
    </g>
    <g id="ytick_6">
     <g id="line2d_26">
      <g>
       <use style="stroke:#000000;stroke-width:0.8;" x="33.703125" xlink:href="#mb76b85e567" y="39.869288"/>
      </g>
     </g>
     <g id="text_14">
      <!-- 1.0 -->
      <g transform="translate(10.8 43.668507)scale(0.1 -0.1)">
       <use xlink:href="#DejaVuSans-31"/>
       <use x="63.623047" xlink:href="#DejaVuSans-2e"/>
       <use x="95.410156" xlink:href="#DejaVuSans-30"/>
      </g>
     </g>
    </g>
   </g>
   <g id="line2d_27">
    <path clip-path="url(#p368e23efe7)" d="M 33.703125 284.349369 
L 54.960691 288.633795 
L 76.218257 269.88943 
L 97.475822 301.754851 
L 118.733388 280.332719 
L 139.990954 262.123907 
L 161.24852 288.366019 
L 182.506086 279.797166 
L 203.763651 287.027136 
L 225.021217 296.131542 
L 246.278783 288.366019 
L 267.536349 226.241836 
L 288.793914 286.491582 
L 310.05148 246.057308 
L 331.309046 246.057308 
L 352.566612 300.951521 
L 373.824178 284.349369 
L 395.081743 277.1194 
L 416.339309 306.039278 
L 437.596875 307.645938 
" style="fill:none;stroke:#1f77b4;stroke-linecap:square;stroke-width:1.5;"/>
   </g>
   <g id="line2d_28">
    <path clip-path="url(#p368e23efe7)" d="M 33.703125 284.349369 
L 54.960691 288.633795 
L 76.218257 268.818323 
L 97.475822 301.754851 
L 118.733388 279.261613 
L 139.990954 262.123907 
L 161.24852 284.081592 
L 182.506086 278.993836 
L 203.763651 283.010486 
L 225.021217 296.131542 
L 246.278783 288.366019 
L 267.536349 226.241836 
L 288.793914 268.818323 
L 310.05148 230.258486 
L 331.309046 232.400699 
L 352.566612 297.738201 
L 373.824178 282.742709 
L 395.081743 277.1194 
L 416.339309 306.039278 
L 437.596875 307.645938 
" style="fill:none;stroke:#ff7f0e;stroke-linecap:square;stroke-width:1.5;"/>
   </g>
   <g id="line2d_29">
    <path clip-path="url(#p368e23efe7)" d="M 33.703125 266.408334 
L 54.960691 268.28277 
L 76.218257 243.379542 
L 97.475822 224.902953 
L 118.733388 231.865146 
L 139.990954 252.216171 
L 161.24852 245.521755 
L 182.506086 248.467298 
L 203.763651 216.3341 
L 225.021217 256.500598 
L 246.278783 248.467298 
L 267.536349 210.710791 
L 288.793914 250.073958 
L 310.05148 199.999725 
L 331.309046 215.262994 
L 352.566612 271.228313 
L 373.824178 242.308435 
L 395.081743 248.735075 
L 416.339309 251.145065 
L 437.596875 200.535278 
" style="fill:none;stroke:#2ca02c;stroke-linecap:square;stroke-width:1.5;"/>
   </g>
   <g id="line2d_30">
    <path clip-path="url(#p368e23efe7)" d="M 33.703125 219.54742 
L 54.960691 166.79542 
L 76.218257 134.126669 
L 97.475822 145.641065 
L 118.733388 156.352131 
L 139.990954 215.262994 
L 161.24852 210.175237 
L 182.506086 167.59875 
L 203.763651 167.330973 
L 225.021217 132.252232 
L 246.278783 119.66673 
L 267.536349 69.056943 
L 288.793914 84.855765 
L 310.05148 169.740963 
L 331.309046 180.987582 
L 352.566612 201.874161 
L 373.824178 158.226567 
L 395.081743 209.907461 
L 416.339309 235.614019 
L 437.596875 200.535278 
" style="fill:none;stroke:#d62728;stroke-linecap:square;stroke-width:1.5;"/>
   </g>
   <g id="line2d_31">
    <path clip-path="url(#p368e23efe7)" d="M 33.703125 219.54742 
L 54.960691 166.79542 
L 76.218257 120.737836 
L 97.475822 135.197775 
L 118.733388 142.159968 
L 139.990954 181.255359 
L 161.24852 196.250851 
L 182.506086 165.99209 
L 203.763651 167.330973 
L 225.021217 132.252232 
L 246.278783 115.114527 
L 267.536349 69.056943 
L 288.793914 84.855765 
L 310.05148 169.740963 
L 331.309046 180.987582 
L 352.566612 201.874161 
L 373.824178 158.226567 
L 395.081743 209.907461 
L 416.339309 235.614019 
L 437.596875 200.535278 
" style="fill:none;stroke:#9467bd;stroke-linecap:square;stroke-width:1.5;"/>
   </g>
   <g id="line2d_32">
    <path clip-path="url(#p368e23efe7)" d="M 33.703125 89.140192 
L 54.960691 115.382303 
L 76.218257 95.299055 
L 97.475822 94.495725 
L 118.733388 102.796801 
L 139.990954 148.854385 
L 161.24852 126.628923 
L 182.506086 64.236963 
L 203.763651 91.550182 
L 225.021217 70.663603 
L 246.278783 57.006994 
L 267.536349 50.848131 
L 288.793914 47.099258 
L 310.05148 95.031278 
L 331.309046 96.905715 
L 352.566612 48.170365 
L 373.824178 52.454791 
L 395.081743 64.50474 
L 416.339309 43.350385 
L 437.596875 39.869288 
" style="fill:none;stroke:#8c564b;stroke-linecap:square;stroke-width:1.5;"/>
   </g>
   <g id="line2d_33">
    <path clip-path="url(#p368e23efe7)" d="M 33.703125 40.137065 
L 54.960691 39.601512 
L 76.218257 40.137065 
L 97.475822 39.869288 
L 118.733388 39.333735 
L 139.990954 40.137065 
L 161.24852 39.869288 
L 182.506086 39.869288 
L 203.763651 39.601512 
L 225.021217 39.869288 
L 246.278783 39.869288 
L 267.536349 39.601512 
L 288.793914 40.137065 
L 310.05148 39.601512 
L 331.309046 39.869288 
L 352.566612 39.869288 
L 373.824178 39.869288 
L 395.081743 39.869288 
L 416.339309 39.869288 
L 437.596875 39.869288 
" style="fill:none;stroke:#e377c2;stroke-linecap:square;stroke-width:1.5;"/>
   </g>
   <g id="patch_3">
    <path d="M 33.703125 307.645938 
L 33.703125 25.918125 
" style="fill:none;stroke:#000000;stroke-linecap:square;stroke-linejoin:miter;stroke-width:0.8;"/>
   </g>
   <g id="patch_4">
    <path d="M 437.596875 307.645938 
L 437.596875 25.918125 
" style="fill:none;stroke:#000000;stroke-linecap:square;stroke-linejoin:miter;stroke-width:0.8;"/>
   </g>
   <g id="patch_5">
    <path d="M 33.703125 307.645938 
L 437.596875 307.645938 
" style="fill:none;stroke:#000000;stroke-linecap:square;stroke-linejoin:miter;stroke-width:0.8;"/>
   </g>
   <g id="patch_6">
    <path d="M 33.703125 25.918125 
L 437.596875 25.918125 
" style="fill:none;stroke:#000000;stroke-linecap:square;stroke-linejoin:miter;stroke-width:0.8;"/>
   </g>
   <g id="text_15">
    <!-- EDF Work -->
    <g transform="translate(206.68875 19.918125)scale(0.12 -0.12)">
     <defs>
      <path d="M 628 4666 
L 3578 4666 
L 3578 4134 
L 1259 4134 
L 1259 2753 
L 3481 2753 
L 3481 2222 
L 1259 2222 
L 1259 531 
L 3634 531 
L 3634 0 
L 628 0 
L 628 4666 
z
" id="DejaVuSans-45" transform="scale(0.015625)"/>
      <path d="M 628 4666 
L 3309 4666 
L 3309 4134 
L 1259 4134 
L 1259 2759 
L 3109 2759 
L 3109 2228 
L 1259 2228 
L 1259 0 
L 628 0 
L 628 4666 
z
" id="DejaVuSans-46" transform="scale(0.015625)"/>
      <path id="DejaVuSans-20" transform="scale(0.015625)"/>
      <path d="M 213 4666 
L 850 4666 
L 1831 722 
L 2809 4666 
L 3519 4666 
L 4500 722 
L 5478 4666 
L 6119 4666 
L 4947 0 
L 4153 0 
L 3169 4050 
L 2175 0 
L 1381 0 
L 213 4666 
z
" id="DejaVuSans-57" transform="scale(0.015625)"/>
      <path d="M 1959 3097 
Q 1497 3097 1228 2736 
Q 959 2375 959 1747 
Q 959 1119 1226 758 
Q 1494 397 1959 397 
Q 2419 397 2687 759 
Q 2956 1122 2956 1747 
Q 2956 2369 2687 2733 
Q 2419 3097 1959 3097 
z
M 1959 3584 
Q 2709 3584 3137 3096 
Q 3566 2609 3566 1747 
Q 3566 888 3137 398 
Q 2709 -91 1959 -91 
Q 1206 -91 779 398 
Q 353 888 353 1747 
Q 353 2609 779 3096 
Q 1206 3584 1959 3584 
z
" id="DejaVuSans-6f" transform="scale(0.015625)"/>
      <path d="M 581 4863 
L 1159 4863 
L 1159 1991 
L 2875 3500 
L 3609 3500 
L 1753 1863 
L 3688 0 
L 2938 0 
L 1159 1709 
L 1159 0 
L 581 0 
L 581 4863 
z
" id="DejaVuSans-6b" transform="scale(0.015625)"/>
     </defs>
     <use xlink:href="#DejaVuSans-45"/>
     <use x="63.183594" xlink:href="#DejaVuSans-44"/>
     <use x="140.185547" xlink:href="#DejaVuSans-46"/>
     <use x="197.705078" xlink:href="#DejaVuSans-20"/>
     <use x="229.492188" xlink:href="#DejaVuSans-57"/>
     <use x="322.494141" xlink:href="#DejaVuSans-6f"/>
     <use x="383.675781" xlink:href="#DejaVuSans-72"/>
     <use x="424.789062" xlink:href="#DejaVuSans-6b"/>
    </g>
   </g>
   <g id="legend_1">
    <g id="patch_7">
     <path d="M 444.596875 136.665 
L 527.2 136.665 
Q 529.2 136.665 529.2 134.665 
L 529.2 32.918125 
Q 529.2 30.918125 527.2 30.918125 
L 444.596875 30.918125 
Q 442.596875 30.918125 442.596875 32.918125 
L 442.596875 134.665 
Q 442.596875 136.665 444.596875 136.665 
z
" style="fill:#ffffff;opacity:0.8;stroke:#cccccc;stroke-linejoin:miter;"/>
    </g>
    <g id="patch_8">
     <path d="M 446.596875 42.516563 
L 466.596875 42.516563 
L 466.596875 35.516563 
L 446.596875 35.516563 
z
" style="fill:#1f77b4;stroke:#1f77b4;stroke-linejoin:miter;"/>
    </g>
    <g id="text_16">
     <!-- GEX1 -->
     <g transform="translate(474.596875 42.516563)scale(0.1 -0.1)">
      <defs>
       <path d="M 3809 666 
L 3809 1919 
L 2778 1919 
L 2778 2438 
L 4434 2438 
L 4434 434 
Q 4069 175 3628 42 
Q 3188 -91 2688 -91 
Q 1594 -91 976 548 
Q 359 1188 359 2328 
Q 359 3472 976 4111 
Q 1594 4750 2688 4750 
Q 3144 4750 3555 4637 
Q 3966 4525 4313 4306 
L 4313 3634 
Q 3963 3931 3569 4081 
Q 3175 4231 2741 4231 
Q 1884 4231 1454 3753 
Q 1025 3275 1025 2328 
Q 1025 1384 1454 906 
Q 1884 428 2741 428 
Q 3075 428 3337 486 
Q 3600 544 3809 666 
z
" id="DejaVuSans-47" transform="scale(0.015625)"/>
       <path d="M 403 4666 
L 1081 4666 
L 2241 2931 
L 3406 4666 
L 4084 4666 
L 2584 2425 
L 4184 0 
L 3506 0 
L 2194 1984 
L 872 0 
L 191 0 
L 1856 2491 
L 403 4666 
z
" id="DejaVuSans-58" transform="scale(0.015625)"/>
      </defs>
      <use xlink:href="#DejaVuSans-47"/>
      <use x="77.490234" xlink:href="#DejaVuSans-45"/>
      <use x="140.673828" xlink:href="#DejaVuSans-58"/>
      <use x="209.179688" xlink:href="#DejaVuSans-31"/>
     </g>
    </g>
    <g id="patch_9">
     <path d="M 446.596875 57.194688 
L 466.596875 57.194688 
L 466.596875 50.194688 
L 446.596875 50.194688 
z
" style="fill:#ff7f0e;stroke:#ff7f0e;stroke-linejoin:miter;"/>
    </g>
    <g id="text_17">
     <!-- CSC -->
     <g transform="translate(474.596875 57.194688)scale(0.1 -0.1)">
      <defs>
       <path d="M 4122 4306 
L 4122 3641 
Q 3803 3938 3442 4084 
Q 3081 4231 2675 4231 
Q 1875 4231 1450 3742 
Q 1025 3253 1025 2328 
Q 1025 1406 1450 917 
Q 1875 428 2675 428 
Q 3081 428 3442 575 
Q 3803 722 4122 1019 
L 4122 359 
Q 3791 134 3420 21 
Q 3050 -91 2638 -91 
Q 1578 -91 968 557 
Q 359 1206 359 2328 
Q 359 3453 968 4101 
Q 1578 4750 2638 4750 
Q 3056 4750 3426 4639 
Q 3797 4528 4122 4306 
z
" id="DejaVuSans-43" transform="scale(0.015625)"/>
       <path d="M 3425 4513 
L 3425 3897 
Q 3066 4069 2747 4153 
Q 2428 4238 2131 4238 
Q 1616 4238 1336 4038 
Q 1056 3838 1056 3469 
Q 1056 3159 1242 3001 
Q 1428 2844 1947 2747 
L 2328 2669 
Q 3034 2534 3370 2195 
Q 3706 1856 3706 1288 
Q 3706 609 3251 259 
Q 2797 -91 1919 -91 
Q 1588 -91 1214 -16 
Q 841 59 441 206 
L 441 856 
Q 825 641 1194 531 
Q 1563 422 1919 422 
Q 2459 422 2753 634 
Q 3047 847 3047 1241 
Q 3047 1584 2836 1778 
Q 2625 1972 2144 2069 
L 1759 2144 
Q 1053 2284 737 2584 
Q 422 2884 422 3419 
Q 422 4038 858 4394 
Q 1294 4750 2059 4750 
Q 2388 4750 2728 4690 
Q 3069 4631 3425 4513 
z
" id="DejaVuSans-53" transform="scale(0.015625)"/>
      </defs>
      <use xlink:href="#DejaVuSans-43"/>
      <use x="69.824219" xlink:href="#DejaVuSans-53"/>
      <use x="133.300781" xlink:href="#DejaVuSans-43"/>
     </g>
    </g>
    <g id="patch_10">
     <path d="M 446.596875 71.872813 
L 466.596875 71.872813 
L 466.596875 64.872813 
L 446.596875 64.872813 
z
" style="fill:#2ca02c;stroke:#2ca02c;stroke-linejoin:miter;"/>
    </g>
    <g id="text_18">
     <!-- ME0 -->
     <g transform="translate(474.596875 71.872813)scale(0.1 -0.1)">
      <defs>
       <path d="M 628 4666 
L 1569 4666 
L 2759 1491 
L 3956 4666 
L 4897 4666 
L 4897 0 
L 4281 0 
L 4281 4097 
L 3078 897 
L 2444 897 
L 1241 4097 
L 1241 0 
L 628 0 
L 628 4666 
z
" id="DejaVuSans-4d" transform="scale(0.015625)"/>
      </defs>
      <use xlink:href="#DejaVuSans-4d"/>
      <use x="86.279297" xlink:href="#DejaVuSans-45"/>
      <use x="149.462891" xlink:href="#DejaVuSans-30"/>
     </g>
    </g>
    <g id="patch_11">
     <path d="M 446.596875 86.550938 
L 466.596875 86.550938 
L 466.596875 79.550938 
L 446.596875 79.550938 
z
" style="fill:#d62728;stroke:#d62728;stroke-linejoin:miter;"/>
    </g>
    <g id="text_19">
     <!-- L0MDT -->
     <g transform="translate(474.596875 86.550938)scale(0.1 -0.1)">
      <defs>
       <path d="M 628 4666 
L 1259 4666 
L 1259 531 
L 3531 531 
L 3531 0 
L 628 0 
L 628 4666 
z
" id="DejaVuSans-4c" transform="scale(0.015625)"/>
       <path d="M -19 4666 
L 3928 4666 
L 3928 4134 
L 2272 4134 
L 2272 0 
L 1638 0 
L 1638 4134 
L -19 4134 
L -19 4666 
z
" id="DejaVuSans-54" transform="scale(0.015625)"/>
      </defs>
      <use xlink:href="#DejaVuSans-4c"/>
      <use x="55.712891" xlink:href="#DejaVuSans-30"/>
      <use x="119.335938" xlink:href="#DejaVuSans-4d"/>
      <use x="205.615234" xlink:href="#DejaVuSans-44"/>
      <use x="282.617188" xlink:href="#DejaVuSans-54"/>
     </g>
    </g>
    <g id="patch_12">
     <path d="M 446.596875 101.229063 
L 466.596875 101.229063 
L 466.596875 94.229063 
L 446.596875 94.229063 
z
" style="fill:#9467bd;stroke:#9467bd;stroke-linejoin:miter;"/>
    </g>
    <g id="text_20">
     <!-- EMPHATIC -->
     <g transform="translate(474.596875 101.229063)scale(0.1 -0.1)">
      <defs>
       <path d="M 1259 4147 
L 1259 2394 
L 2053 2394 
Q 2494 2394 2734 2622 
Q 2975 2850 2975 3272 
Q 2975 3691 2734 3919 
Q 2494 4147 2053 4147 
L 1259 4147 
z
M 628 4666 
L 2053 4666 
Q 2838 4666 3239 4311 
Q 3641 3956 3641 3272 
Q 3641 2581 3239 2228 
Q 2838 1875 2053 1875 
L 1259 1875 
L 1259 0 
L 628 0 
L 628 4666 
z
" id="DejaVuSans-50" transform="scale(0.015625)"/>
       <path d="M 628 4666 
L 1259 4666 
L 1259 2753 
L 3553 2753 
L 3553 4666 
L 4184 4666 
L 4184 0 
L 3553 0 
L 3553 2222 
L 1259 2222 
L 1259 0 
L 628 0 
L 628 4666 
z
" id="DejaVuSans-48" transform="scale(0.015625)"/>
       <path d="M 628 4666 
L 1259 4666 
L 1259 0 
L 628 0 
L 628 4666 
z
" id="DejaVuSans-49" transform="scale(0.015625)"/>
      </defs>
      <use xlink:href="#DejaVuSans-45"/>
      <use x="63.183594" xlink:href="#DejaVuSans-4d"/>
      <use x="149.462891" xlink:href="#DejaVuSans-50"/>
      <use x="209.765625" xlink:href="#DejaVuSans-48"/>
      <use x="284.960938" xlink:href="#DejaVuSans-41"/>
      <use x="345.619141" xlink:href="#DejaVuSans-54"/>
      <use x="406.703125" xlink:href="#DejaVuSans-49"/>
      <use x="436.195312" xlink:href="#DejaVuSans-43"/>
     </g>
    </g>
    <g id="patch_13">
     <path d="M 446.596875 115.907188 
L 466.596875 115.907188 
L 466.596875 108.907188 
L 446.596875 108.907188 
z
" style="fill:#8c564b;stroke:#8c564b;stroke-linejoin:miter;"/>
    </g>
    <g id="text_21">
     <!-- ETL -->
     <g transform="translate(474.596875 115.907188)scale(0.1 -0.1)">
      <use xlink:href="#DejaVuSans-45"/>
      <use x="63.183594" xlink:href="#DejaVuSans-54"/>
      <use x="124.267578" xlink:href="#DejaVuSans-4c"/>
     </g>
    </g>
    <g id="patch_14">
     <path d="M 446.596875 130.585313 
L 466.596875 130.585313 
L 466.596875 123.585313 
L 446.596875 123.585313 
z
" style="fill:#e377c2;stroke:#e377c2;stroke-linejoin:miter;"/>
    </g>
    <g id="text_22">
     <!-- APOLLO -->
     <g transform="translate(474.596875 130.585313)scale(0.1 -0.1)">
      <use xlink:href="#DejaVuSans-41"/>
      <use x="68.408203" xlink:href="#DejaVuSans-50"/>
      <use x="128.710938" xlink:href="#DejaVuSans-4f"/>
      <use x="207.421875" xlink:href="#DejaVuSans-4c"/>
      <use x="263.134766" xlink:href="#DejaVuSans-4c"/>
      <use x="315.222656" xlink:href="#DejaVuSans-4f"/>
     </g>
    </g>
   </g>
  </g>
 </g>
 <defs>
  <clipPath id="p368e23efe7">
   <rect height="281.727812" width="403.89375" x="33.703125" y="25.918125"/>
  </clipPath>
 </defs>
</svg>
