<svg class="marks" width="986" height="693" viewBox="0 0 986 693" version="1.1" xmlns="http://www.w3.org/2000/svg" xmlns:xlink="http://www.w3.org/1999/xlink"><rect width="986" height="693" style="fill: white;"></rect><g transform="translate(51,10)"><g class="mark-group role-frame root"><g transform="translate(0,0)"><path class="background" d="M0.5,0.5h800v600h-800Z" style="fill: none; stroke: #ddd;"></path><g><g class="mark-group role-axis"><g transform="translate(0.5,0.5)"><path class="background" d="M0,0h0v0h0Z" style="pointer-events: none; fill: none;"></path><g><g class="mark-rule role-axis-grid" style="pointer-events: none;"><line transform="translate(0,600)" x2="800" y2="0" style="fill: none; stroke: #ddd; stroke-width: 1; opacity: 1;"></line><line transform="translate(0,545)" x2="800" y2="0" style="fill: none; stroke: #ddd; stroke-width: 1; opacity: 1;"></line><line transform="translate(0,491)" x2="800" y2="0" style="fill: none; stroke: #ddd; stroke-width: 1; opacity: 1;"></line><line transform="translate(0,436)" x2="800" y2="0" style="fill: none; stroke: #ddd; stroke-width: 1; opacity: 1;"></line><line transform="translate(0,382)" x2="800" y2="0" style="fill: none; stroke: #ddd; stroke-width: 1; opacity: 1;"></line><line transform="translate(0,327)" x2="800" y2="0" style="fill: none; stroke: #ddd; stroke-width: 1; opacity: 1;"></line><line transform="translate(0,273)" x2="800" y2="0" style="fill: none; stroke: #ddd; stroke-width: 1; opacity: 1;"></line><line transform="translate(0,218)" x2="800" y2="0" style="fill: none; stroke: #ddd; stroke-width: 1; opacity: 1;"></line><line transform="translate(0,164)" x2="800" y2="0" style="fill: none; stroke: #ddd; stroke-width: 1; opacity: 1;"></line><line transform="translate(0,109)" x2="800" y2="0" style="fill: none; stroke: #ddd; stroke-width: 1; opacity: 1;"></line><line transform="translate(0,55)" x2="800" y2="0" style="fill: none; stroke: #ddd; stroke-width: 1; opacity: 1;"></line><line transform="translate(0,0)" x2="800" y2="0" style="fill: none; stroke: #ddd; stroke-width: 1; opacity: 1;"></line></g></g><path class="foreground" d="" style="pointer-events: none; display: none; fill: none;"></path></g></g><g class="mark-group role-axis"><g transform="translate(0.5,600.5)"><path class="background" d="M0,0h0v0h0Z" style="pointer-events: none; fill: none;"></path><g><g class="mark-rule role-axis-tick" style="pointer-events: none;"><line transform="translate(14,0)" x2="0" y2="5" style="fill: none; stroke: #888; stroke-width: 1; opacity: 1;"></line><line transform="translate(44,0)" x2="0" y2="5" style="fill: none; stroke: #888; stroke-width: 1; opacity: 1;"></line><line transform="translate(74,0)" x2="0" y2="5" style="fill: none; stroke: #888; stroke-width: 1; opacity: 1;"></line><line transform="translate(103,0)" x2="0" y2="5" style="fill: none; stroke: #888; stroke-width: 1; opacity: 1;"></line><line transform="translate(133,0)" x2="0" y2="5" style="fill: none; stroke: #888; stroke-width: 1; opacity: 1;"></line><line transform="translate(162,0)" x2="0" y2="5" style="fill: none; stroke: #888; stroke-width: 1; opacity: 1;"></line><line transform="translate(192,0)" x2="0" y2="5" style="fill: none; stroke: #888; stroke-width: 1; opacity: 1;"></line><line transform="translate(222,0)" x2="0" y2="5" style="fill: none; stroke: #888; stroke-width: 1; opacity: 1;"></line><line transform="translate(251,0)" x2="0" y2="5" style="fill: none; stroke: #888; stroke-width: 1; opacity: 1;"></line><line transform="translate(281,0)" x2="0" y2="5" style="fill: none; stroke: #888; stroke-width: 1; opacity: 1;"></line><line transform="translate(311,0)" x2="0" y2="5" style="fill: none; stroke: #888; stroke-width: 1; opacity: 1;"></line><line transform="translate(340,0)" x2="0" y2="5" style="fill: none; stroke: #888; stroke-width: 1; opacity: 1;"></line><line transform="translate(370,0)" x2="0" y2="5" style="fill: none; stroke: #888; stroke-width: 1; opacity: 1;"></line><line transform="translate(400,0)" x2="0" y2="5" style="fill: none; stroke: #888; stroke-width: 1; opacity: 1;"></line><line transform="translate(429,0)" x2="0" y2="5" style="fill: none; stroke: #888; stroke-width: 1; opacity: 1;"></line><line transform="translate(459,0)" x2="0" y2="5" style="fill: none; stroke: #888; stroke-width: 1; opacity: 1;"></line><line transform="translate(488,0)" x2="0" y2="5" style="fill: none; stroke: #888; stroke-width: 1; opacity: 1;"></line><line transform="translate(518,0)" x2="0" y2="5" style="fill: none; stroke: #888; stroke-width: 1; opacity: 1;"></line><line transform="translate(548,0)" x2="0" y2="5" style="fill: none; stroke: #888; stroke-width: 1; opacity: 1;"></line><line transform="translate(577,0)" x2="0" y2="5" style="fill: none; stroke: #888; stroke-width: 1; opacity: 1;"></line><line transform="translate(607,0)" x2="0" y2="5" style="fill: none; stroke: #888; stroke-width: 1; opacity: 1;"></line><line transform="translate(637,0)" x2="0" y2="5" style="fill: none; stroke: #888; stroke-width: 1; opacity: 1;"></line><line transform="translate(666,0)" x2="0" y2="5" style="fill: none; stroke: #888; stroke-width: 1; opacity: 1;"></line><line transform="translate(696,0)" x2="0" y2="5" style="fill: none; stroke: #888; stroke-width: 1; opacity: 1;"></line><line transform="translate(725,0)" x2="0" y2="5" style="fill: none; stroke: #888; stroke-width: 1; opacity: 1;"></line><line transform="translate(755,0)" x2="0" y2="5" style="fill: none; stroke: #888; stroke-width: 1; opacity: 1;"></line><line transform="translate(785,0)" x2="0" y2="5" style="fill: none; stroke: #888; stroke-width: 1; opacity: 1;"></line></g><g class="mark-text role-axis-label" style="pointer-events: none;"><text text-anchor="end" transform="translate(14.314814814814858,7) rotate(270) translate(0,3)" style="font-family: sans-serif; font-size: 10px; fill: #000; opacity: 1;">2021-01</text><text text-anchor="end" transform="translate(43.944444444444485,7) rotate(270) translate(0,3)" style="font-family: sans-serif; font-size: 10px; fill: #000; opacity: 1;">2021-02</text><text text-anchor="end" transform="translate(73.57407407407412,7) rotate(270) translate(0,3)" style="font-family: sans-serif; font-size: 10px; fill: #000; opacity: 1;">2021-03</text><text text-anchor="end" transform="translate(103.20370370370374,7) rotate(270) translate(0,3)" style="font-family: sans-serif; font-size: 10px; fill: #000; opacity: 1;">2021-04</text><text text-anchor="end" transform="translate(132.83333333333337,7) rotate(270) translate(0,3)" style="font-family: sans-serif; font-size: 10px; fill: #000; opacity: 1;">2021-05</text><text text-anchor="end" transform="translate(162.46296296296302,7) rotate(270) translate(0,3)" style="font-family: sans-serif; font-size: 10px; fill: #000; opacity: 1;">2021-06</text><text text-anchor="end" transform="translate(192.09259259259264,7) rotate(270) translate(0,3)" style="font-family: sans-serif; font-size: 10px; fill: #000; opacity: 1;">2021-07</text><text text-anchor="end" transform="translate(221.72222222222229,7) rotate(270) translate(0,3)" style="font-family: sans-serif; font-size: 10px; fill: #000; opacity: 1;">2021-08</text><text text-anchor="end" transform="translate(251.3518518518519,7) rotate(270) translate(0,3)" style="font-family: sans-serif; font-size: 10px; fill: #000; opacity: 1;">2021-09</text><text text-anchor="end" transform="translate(280.9814814814815,7) rotate(270) translate(0,3)" style="font-family: sans-serif; font-size: 10px; fill: #000; opacity: 1;">2021-10</text><text text-anchor="end" transform="translate(310.61111111111114,7) rotate(270) translate(0,3)" style="font-family: sans-serif; font-size: 10px; fill: #000; opacity: 1;">2021-11</text><text text-anchor="end" transform="translate(340.24074074074076,7) rotate(270) translate(0,3)" style="font-family: sans-serif; font-size: 10px; fill: #000; opacity: 1;">2021-12</text><text text-anchor="end" transform="translate(369.8703703703704,7) rotate(270) translate(0,3)" style="font-family: sans-serif; font-size: 10px; fill: #000; opacity: 1;">2022-01</text><text text-anchor="end" transform="translate(399.5,7) rotate(270) translate(0,3)" style="font-family: sans-serif; font-size: 10px; fill: #000; opacity: 1;">2022-02</text><text text-anchor="end" transform="translate(429.1296296296297,7) rotate(270) translate(0,3)" style="font-family: sans-serif; font-size: 10px; fill: #000; opacity: 1;">2022-03</text><text text-anchor="end" transform="translate(458.7592592592593,7) rotate(270) translate(0,3)" style="font-family: sans-serif; font-size: 10px; fill: #000; opacity: 1;">2022-04</text><text text-anchor="end" transform="translate(488.3888888888889,7) rotate(270) translate(0,3)" style="font-family: sans-serif; font-size: 10px; fill: #000; opacity: 1;">2022-05</text><text text-anchor="end" transform="translate(518.0185185185186,7) rotate(270) translate(0,3)" style="font-family: sans-serif; font-size: 10px; fill: #000; opacity: 1;">2022-06</text><text text-anchor="end" transform="translate(547.6481481481483,7) rotate(270) translate(0,3)" style="font-family: sans-serif; font-size: 10px; fill: #000; opacity: 1;">2022-07</text><text text-anchor="end" transform="translate(577.2777777777778,7) rotate(270) translate(0,3)" style="font-family: sans-serif; font-size: 10px; fill: #000; opacity: 1;">2022-08</text><text text-anchor="end" transform="translate(606.9074074074075,7) rotate(270) translate(0,3)" style="font-family: sans-serif; font-size: 10px; fill: #000; opacity: 1;">2022-09</text><text text-anchor="end" transform="translate(636.5370370370371,7) rotate(270) translate(0,3)" style="font-family: sans-serif; font-size: 10px; fill: #000; opacity: 1;">2022-10</text><text text-anchor="end" transform="translate(666.1666666666667,7) rotate(270) translate(0,3)" style="font-family: sans-serif; font-size: 10px; fill: #000; opacity: 1;">2022-11</text><text text-anchor="end" transform="translate(695.7962962962964,7) rotate(270) translate(0,3)" style="font-family: sans-serif; font-size: 10px; fill: #000; opacity: 1;">2022-12</text><text text-anchor="end" transform="translate(725.425925925926,7) rotate(270) translate(0,3)" style="font-family: sans-serif; font-size: 10px; fill: #000; opacity: 1;">2023-01</text><text text-anchor="end" transform="translate(755.0555555555557,7) rotate(270) translate(0,3)" style="font-family: sans-serif; font-size: 10px; fill: #000; opacity: 1;">2023-02</text><text text-anchor="end" transform="translate(784.6851851851852,7) rotate(270) translate(0,3)" style="font-family: sans-serif; font-size: 10px; fill: #000; opacity: 1;">2023-03</text></g><g class="mark-rule role-axis-domain" style="pointer-events: none;"><line transform="translate(0,0)" x2="800" y2="0" style="fill: none; stroke: #888; stroke-width: 1; opacity: 1;"></line></g><g class="mark-text role-axis-title" style="pointer-events: none;"><text text-anchor="middle" transform="translate(400,76)" style="font-family: sans-serif; font-size: 11px; font-weight: bold; fill: #000; opacity: 1;">Date</text></g></g><path class="foreground" d="" style="pointer-events: none; display: none; fill: none;"></path></g></g><g class="mark-group role-axis"><g transform="translate(0.5,0.5)"><path class="background" d="M0,0h0v0h0Z" style="pointer-events: none; fill: none;"></path><g><g class="mark-rule role-axis-tick" style="pointer-events: none;"><line transform="translate(0,600)" x2="-5" y2="0" style="fill: none; stroke: #888; stroke-width: 1; opacity: 1;"></line><line transform="translate(0,545)" x2="-5" y2="0" style="fill: none; stroke: #888; stroke-width: 1; opacity: 1;"></line><line transform="translate(0,491)" x2="-5" y2="0" style="fill: none; stroke: #888; stroke-width: 1; opacity: 1;"></line><line transform="translate(0,436)" x2="-5" y2="0" style="fill: none; stroke: #888; stroke-width: 1; opacity: 1;"></line><line transform="translate(0,382)" x2="-5" y2="0" style="fill: none; stroke: #888; stroke-width: 1; opacity: 1;"></line><line transform="translate(0,327)" x2="-5" y2="0" style="fill: none; stroke: #888; stroke-width: 1; opacity: 1;"></line><line transform="translate(0,273)" x2="-5" y2="0" style="fill: none; stroke: #888; stroke-width: 1; opacity: 1;"></line><line transform="translate(0,218)" x2="-5" y2="0" style="fill: none; stroke: #888; stroke-width: 1; opacity: 1;"></line><line transform="translate(0,164)" x2="-5" y2="0" style="fill: none; stroke: #888; stroke-width: 1; opacity: 1;"></line><line transform="translate(0,109)" x2="-5" y2="0" style="fill: none; stroke: #888; stroke-width: 1; opacity: 1;"></line><line transform="translate(0,55)" x2="-5" y2="0" style="fill: none; stroke: #888; stroke-width: 1; opacity: 1;"></line><line transform="translate(0,0)" x2="-5" y2="0" style="fill: none; stroke: #888; stroke-width: 1; opacity: 1;"></line></g><g class="mark-text role-axis-label" style="pointer-events: none;"><text text-anchor="end" transform="translate(-7,603)" style="font-family: sans-serif; font-size: 10px; fill: #000; opacity: 1;">0.0</text><text text-anchor="end" transform="translate(-7,548.4545454545454)" style="font-family: sans-serif; font-size: 10px; fill: #000; opacity: 1;">0.1</text><text text-anchor="end" transform="translate(-7,493.9090909090909)" style="font-family: sans-serif; font-size: 10px; fill: #000; opacity: 1;">0.2</text><text text-anchor="end" transform="translate(-7,439.3636363636364)" style="font-family: sans-serif; font-size: 10px; fill: #000; opacity: 1;">0.3</text><text text-anchor="end" transform="translate(-7,384.8181818181818)" style="font-family: sans-serif; font-size: 10px; fill: #000; opacity: 1;">0.4</text><text text-anchor="end" transform="translate(-7,330.27272727272725)" style="font-family: sans-serif; font-size: 10px; fill: #000; opacity: 1;">0.5</text><text text-anchor="end" transform="translate(-7,275.72727272727275)" style="font-family: sans-serif; font-size: 10px; fill: #000; opacity: 1;">0.6</text><text text-anchor="end" transform="translate(-7,221.18181818181824)" style="font-family: sans-serif; font-size: 10px; fill: #000; opacity: 1;">0.7</text><text text-anchor="end" transform="translate(-7,166.63636363636363)" style="font-family: sans-serif; font-size: 10px; fill: #000; opacity: 1;">0.8</text><text text-anchor="end" transform="translate(-7,112.09090909090912)" style="font-family: sans-serif; font-size: 10px; fill: #000; opacity: 1;">0.9</text><text text-anchor="end" transform="translate(-7,57.54545454545456)" style="font-family: sans-serif; font-size: 10px; fill: #000; opacity: 1;">1.0</text><text text-anchor="end" transform="translate(-7,3)" style="font-family: sans-serif; font-size: 10px; fill: #000; opacity: 1;">1.1</text></g><g class="mark-rule role-axis-domain" style="pointer-events: none;"><line transform="translate(0,600)" x2="0" y2="-600" style="fill: none; stroke: #888; stroke-width: 1; opacity: 1;"></line></g><g class="mark-text role-axis-title" style="pointer-events: none;"><text text-anchor="middle" transform="translate(-35,300) rotate(-90) translate(0,-2)" style="font-family: sans-serif; font-size: 11px; font-weight: bold; fill: #000; opacity: 1;">Sum of Hours</text></g></g><path class="foreground" d="" style="pointer-events: none; display: none; fill: none;"></path></g></g><g class="mark-rect role-mark marks"><path d="M1.4814814814815236,145.80827732578717h26.666666666666668v12.734347364697584h-26.666666666666668Z" style="fill: #f58518;"></path><path d="M1.4814814814815236,54.545454545454696h26.666666666666668v91.26282278033247h-26.666666666666668Z" style="fill: #4c78a8;"></path><path d="M1.4814814814815236,158.54262469048476h26.666666666666668v252.56455606650147h-26.666666666666668Z" style="fill: #e45756;"></path><path d="M1.4814814814815236,476.9013088079236h26.666666666666668v89.14043155288294h-26.666666666666668Z" style="fill: #54a24b;"></path><path d="M1.4814814814815236,411.1071807569862h26.666666666666668v65.79412805093739h-26.666666666666668Z" style="fill: #72b7b2;"></path><path d="M1.4814814814815236,566.0417403608066h26.666666666666668v33.95825963919344h-26.666666666666668Z" style="fill: #b279a2;"></path><path d="M31.111111111111153,197.95134443021766h26.666666666666668v97.31113956466072h-26.666666666666668Z" style="fill: #e45756;"></path><path d="M31.111111111111153,366.9654289372599h26.666666666666668v192.06145966709352h-26.666666666666668Z" style="fill: #54a24b;"></path><path d="M31.111111111111153,54.54545454545456h26.666666666666668v143.4058898847631h-26.666666666666668Z" style="fill: #4c78a8;"></path><path d="M31.111111111111153,295.2624839948784h26.666666666666668v71.70294494238152h-26.666666666666668Z" style="fill: #72b7b2;"></path><path d="M31.111111111111153,559.0268886043534h26.666666666666668v40.97311139564658h-26.666666666666668Z" style="fill: #b279a2;"></path><path d="M60.74074074074078,166.96738376127672h26.666666666666668v52.04718945176958h-26.666666666666668Z" style="fill: #e45756;"></path><path d="M60.74074074074078,348.09160305343505h26.666666666666668v222.76197085357398h-26.666666666666668Z" style="fill: #54a24b;"></path><path d="M60.74074074074078,54.54545454545436h26.666666666666668v112.42192921582236h-26.666666666666668Z" style="fill: #4c78a8;"></path><path d="M60.74074074074078,219.0145732130463h26.666666666666668v129.07702984038875h-26.666666666666668Z" style="fill: #72b7b2;"></path><path d="M60.74074074074078,570.853573907009h26.666666666666668v29.146426092990964h-26.666666666666668Z" style="fill: #eeca3b;"></path><path d="M90.37037037037041,153.91120507399577h26.666666666666668v16.91331923890067h-26.666666666666668Z" style="fill: #f58518;"></path><path d="M90.37037037037041,394.9260042283298h26.666666666666668v147.99154334038053h-26.666666666666668Z" style="fill: #54a24b;"></path><path d="M90.37037037037041,244.82029598308665h26.666666666666668v150.10570824524316h-26.666666666666668Z" style="fill: #72b7b2;"></path><path d="M90.37037037037041,542.9175475687103h26.666666666666668v23.255813953488428h-26.666666666666668Z" style="fill: #eeca3b;"></path><path d="M90.37037037037041,170.82452431289644h26.666666666666668v73.99577167019021h-26.666666666666668Z" style="fill: #e45756;"></path><path d="M90.37037037037041,54.5454545454545h26.666666666666668v99.36575052854127h-26.666666666666668Z" style="fill: #4c78a8;"></path><path d="M90.37037037037041,566.1733615221988h26.666666666666668v33.826638477801225h-26.666666666666668Z" style="fill: #b279a2;"></path><path d="M120.00000000000004,417.5059141601893h26.666666666666668v152.07840486650895h-26.666666666666668Z" style="fill: #54a24b;"></path><path d="M120.00000000000004,186.34673876309566h26.666666666666668v77.05305846569789h-26.666666666666668Z" style="fill: #e45756;"></path><path d="M120.00000000000004,263.39979722879355h26.666666666666668v154.10611693139577h-26.666666666666668Z" style="fill: #72b7b2;"></path><path d="M120.00000000000004,54.54545454545456h26.666666666666668v131.8012842176411h-26.666666666666668Z" style="fill: #4c78a8;"></path><path d="M120.00000000000004,569.5843190266983h26.666666666666668v30.415680973301733h-26.666666666666668Z" style="fill: #eeca3b;"></path><path d="M149.62962962962968,428.78787878787887h26.666666666666668v74.24242424242419h-26.666666666666668Z" style="fill: #54a24b;"></path><path d="M149.62962962962968,503.03030303030306h26.666666666666668v72.72727272727269h-26.666666666666668Z" style="fill: #eeca3b;"></path><path d="M149.62962962962968,274.2424242424243h26.666666666666668v56.06060606060606h-26.666666666666668Z" style="fill: #e45756;"></path><path d="M149.62962962962968,54.545454545454696h26.666666666666668v219.6969696969696h-26.666666666666668Z" style="fill: #4c78a8;"></path><path d="M149.62962962962968,330.30303030303037h26.666666666666668v98.4848484848485h-26.666666666666668Z" style="fill: #72b7b2;"></path><path d="M149.62962962962968,575.7575757575758h26.666666666666668v24.24242424242425h-26.666666666666668Z" style="fill: #b279a2;"></path><path d="M179.2592592592593,469.9450016175995h26.666666666666668v62.11582012293752h-26.666666666666668Z" style="fill: #54a24b;"></path><path d="M179.2592592592593,54.54545454545456h26.666666666666668v161.11290844386932h-26.666666666666668Z" style="fill: #4c78a8;"></path><path d="M179.2592592592593,357.36007764477523h26.666666666666668v112.58492397282424h-26.666666666666668Z" style="fill: #72b7b2;"></path><path d="M179.2592592592593,568.9420899385312h26.666666666666668v31.05791006146876h-26.666666666666668Z" style="fill: #b279a2;"></path><path d="M179.2592592592593,227.3050792623747h26.666666666666668v130.05499838240053h-26.666666666666668Z" style="fill: #e45756;"></path><path d="M179.2592592592593,215.65836298932388h26.666666666666668v11.646716273050828h-26.666666666666668Z" style="fill: #f58518;"></path><path d="M179.2592592592593,532.060821740537h26.666666666666668v36.881268197994245h-26.666666666666668Z" style="fill: #eeca3b;"></path><path d="M208.88888888888894,54.54545454545463h26.666666666666668v50.699300699300736h-26.666666666666668Z" style="fill: #4c78a8;"></path><path d="M208.88888888888894,437.4125874125875h26.666666666666668v157.34265734265728h-26.666666666666668Z" style="fill: #54a24b;"></path><path d="M208.88888888888894,112.23776223776231h26.666666666666668v206.2937062937063h-26.666666666666668Z" style="fill: #e45756;"></path><path d="M208.88888888888894,318.5314685314686h26.666666666666668v118.88111888111894h-26.666666666666668Z" style="fill: #72b7b2;"></path><path d="M208.88888888888894,594.7552447552448h26.666666666666668v5.244755244755197h-26.666666666666668Z" style="fill: #eeca3b;"></path><path d="M208.88888888888894,105.24475524475537h26.666666666666668v6.993006993006944h-26.666666666666668Z" style="fill: #f58518;"></path><path d="M238.51851851851856,564.6382790629144h26.666666666666668v7.072344187417116h-26.666666666666668Z" style="fill: #eeca3b;"></path><path d="M238.51851851851856,150.02210107558577h26.666666666666668v28.28937674966849h-26.666666666666668Z" style="fill: #f58518;"></path><path d="M238.51851851851856,476.23397672020036h26.666666666666668v88.40430234271406h-26.666666666666668Z" style="fill: #54a24b;"></path><path d="M238.51851851851856,317.10623250331514h26.666666666666668v159.12774421688522h-26.666666666666668Z" style="fill: #72b7b2;"></path><path d="M238.51851851851856,178.31147782525426h26.666666666666668v138.79475467806088h-26.666666666666668Z" style="fill: #e45756;"></path><path d="M238.51851851851856,54.54545454545463h26.666666666666668v95.47664653013113h-26.666666666666668Z" style="fill: #4c78a8;"></path><path d="M238.51851851851856,571.7106232503315h26.666666666666668v28.289376749668463h-26.666666666666668Z" style="fill: #b279a2;"></path><path d="M268.1481481481482,54.54545454545456h26.666666666666668v60.32677000418934h-26.666666666666668Z" style="fill: #4c78a8;"></path><path d="M268.1481481481482,137.49476330121496h26.666666666666668v120.65354000837874h-26.666666666666668Z" style="fill: #e45756;"></path><path d="M268.1481481481482,258.1483033095937h26.666666666666668v100.54461667364887h-26.666666666666668Z" style="fill: #72b7b2;"></path><path d="M268.1481481481482,114.8722245496439h26.666666666666668v22.622538751571057h-26.666666666666668Z" style="fill: #f58518;"></path><path d="M268.1481481481482,358.6929199832426h26.666666666666668v241.30708001675742h-26.666666666666668Z" style="fill: #54a24b;"></path><path d="M297.7777777777778,283.9422259983008h26.666666666666668v197.11129991503822h-26.666666666666668Z" style="fill: #54a24b;"></path><path d="M297.7777777777778,81.73322005097712h26.666666666666668v25.488530161427335h-26.666666666666668Z" style="fill: #f58518;"></path><path d="M297.7777777777778,192.18351741716236h26.666666666666668v91.75870858113842h-26.666666666666668Z" style="fill: #72b7b2;"></path><path d="M297.7777777777778,54.54545454545456h26.666666666666668v27.187765505522563h-26.666666666666668Z" style="fill: #4c78a8;"></path><path d="M297.7777777777778,107.22175021240446h26.666666666666668v84.9617672047579h-26.666666666666668Z" style="fill: #e45756;"></path><path d="M297.7777777777778,481.053525913339h26.666666666666668v10.195412064570917h-26.666666666666668Z" style="fill: #eeca3b;"></path><path d="M297.7777777777778,491.2489379779099h26.666666666666668v108.75106202209008h-26.666666666666668Z" style="fill: #b279a2;"></path><path d="M327.40740740740745,125.4860746190227h26.666666666666668v108.77561744613766h-26.666666666666668Z" style="fill: #72b7b2;"></path><path d="M327.40740740740745,234.26169206516036h26.666666666666668v163.95165528113503h-26.666666666666668Z" style="fill: #54a24b;"></path><path d="M327.40740740740745,54.545454545454696h26.666666666666668v12.611665790856527h-26.666666666666668Z" style="fill: #4c78a8;"></path><path d="M327.40740740740745,104.99211770888088h26.666666666666668v20.49395691014182h-26.666666666666668Z" style="fill: #e45756;"></path><path d="M327.40740740740745,67.15712033631122h26.666666666666668v37.83499737256966h-26.666666666666668Z" style="fill: #f58518;"></path><path d="M327.40740740740745,398.2133473462954h26.666666666666668v201.7866526537046h-26.666666666666668Z" style="fill: #b279a2;"></path><path d="M357.03703703703707,67.63636363636354h26.666666666666668v15.272727272727238h-26.666666666666668Z" style="fill: #f58518;"></path><path d="M357.03703703703707,152.72727272727258h26.666666666666668v74.18181818181819h-26.666666666666668Z" style="fill: #72b7b2;"></path><path d="M357.03703703703707,226.90909090909076h26.666666666666668v305.4545454545456h-26.666666666666668Z" style="fill: #54a24b;"></path><path d="M357.03703703703707,82.90909090909078h26.666666666666668v69.8181818181818h-26.666666666666668Z" style="fill: #e45756;"></path><path d="M357.03703703703707,532.3636363636364h26.666666666666668v32.72727272727275h-26.666666666666668Z" style="fill: #eeca3b;"></path><path d="M357.03703703703707,54.5454545454545h26.666666666666668v13.090909090909044h-26.666666666666668Z" style="fill: #4c78a8;"></path><path d="M357.03703703703707,565.0909090909091h26.666666666666668v34.90909090909088h-26.666666666666668Z" style="fill: #b279a2;"></path><path d="M386.6666666666667,488.4297520661157h26.666666666666668v51.652892561983435h-26.666666666666668Z" style="fill: #54a24b;"></path><path d="M386.6666666666667,54.54545454545476h26.666666666666668v95.04132231404958h-26.666666666666668Z" style="fill: #4c78a8;"></path><path d="M386.6666666666667,331.40495867768607h26.666666666666668v157.02479338842966h-26.666666666666668Z" style="fill: #72b7b2;"></path><path d="M386.6666666666667,199.17355371900845h26.666666666666668v132.23140495867762h-26.666666666666668Z" style="fill: #e45756;"></path><path d="M386.6666666666667,149.58677685950434h26.666666666666668v49.58677685950411h-26.666666666666668Z" style="fill: #f58518;"></path><path d="M386.6666666666667,540.0826446280992h26.666666666666668v26.85950413223145h-26.666666666666668Z" style="fill: #eeca3b;"></path><path d="M386.6666666666667,566.9421487603306h26.666666666666668v33.05785123966939h-26.666666666666668Z" style="fill: #b279a2;"></path><path d="M416.29629629629636,178.59531772575272h26.666666666666668v164.1836424445119h-26.666666666666668Z" style="fill: #e45756;"></path><path d="M416.29629629629636,342.7789601702646h26.666666666666668v158.7108543630282h-26.666666666666668Z" style="fill: #72b7b2;"></path><path d="M416.29629629629636,167.64974156278524h26.666666666666668v10.945576162967484h-26.666666666666668Z" style="fill: #f58518;"></path><path d="M416.29629629629636,54.54545454545476h26.666666666666668v113.10428701733048h-26.666666666666668Z" style="fill: #4c78a8;"></path><path d="M416.29629629629636,501.4898145332928h26.666666666666668v71.1462450592885h-26.666666666666668Z" style="fill: #54a24b;"></path><path d="M416.29629629629636,572.6360595925813h26.666666666666668v27.36394040741868h-26.666666666666668Z" style="fill: #eeca3b;"></path><path d="M445.925925925926,123.41597796143253h26.666666666666668v256.19834710743794h-26.666666666666668Z" style="fill: #e45756;"></path><path d="M445.925925925926,434.7107438016529h26.666666666666668v115.70247933884303h-26.666666666666668Z" style="fill: #54a24b;"></path><path d="M445.925925925926,550.4132231404959h26.666666666666668v5.509641873278156h-26.666666666666668Z" style="fill: #eeca3b;"></path><path d="M445.925925925926,379.61432506887047h26.666666666666668v55.09641873278241h-26.666666666666668Z" style="fill: #72b7b2;"></path><path d="M445.925925925926,555.9228650137741h26.666666666666668v44.07713498622593h-26.666666666666668Z" style="fill: #b279a2;"></path><path d="M445.925925925926,68.31955922865018h26.666666666666668v55.096418732782354h-26.666666666666668Z" style="fill: #f58518;"></path><path d="M445.925925925926,54.54545454545456h26.666666666666668v13.774104683195617h-26.666666666666668Z" style="fill: #4c78a8;"></path><path d="M475.5555555555556,77.6334776334777h26.666666666666668v14.430014430014467h-26.666666666666668Z" style="fill: #f58518;"></path><path d="M475.5555555555556,397.979797979798h26.666666666666668v152.958152958153h-26.666666666666668Z" style="fill: #54a24b;"></path><path d="M475.5555555555556,288.31168831168833h26.666666666666668v109.66810966810965h-26.666666666666668Z" style="fill: #72b7b2;"></path><path d="M475.5555555555556,92.06349206349216h26.666666666666668v196.24819624819617h-26.666666666666668Z" style="fill: #e45756;"></path><path d="M475.5555555555556,54.54545454545456h26.666666666666668v23.088023088023135h-26.666666666666668Z" style="fill: #4c78a8;"></path><path d="M475.5555555555556,550.937950937951h26.666666666666668v2.8860028860028706h-26.666666666666668Z" style="fill: #eeca3b;"></path><path d="M475.5555555555556,553.8239538239538h26.666666666666668v46.17604617604616h-26.666666666666668Z" style="fill: #b279a2;"></path><path d="M505.1851851851852,99.52153110047837h26.666666666666668v26.794258373205764h-26.666666666666668Z" style="fill: #f58518;"></path><path d="M505.1851851851852,126.31578947368413h26.666666666666668v265.0717703349284h-26.666666666666668Z" style="fill: #e45756;"></path><path d="M505.1851851851852,391.3875598086125h26.666666666666668v107.177033492823h-26.666666666666668Z" style="fill: #72b7b2;"></path><path d="M505.1851851851852,498.5645933014355h26.666666666666668v70.81339712918657h-26.666666666666668Z" style="fill: #54a24b;"></path><path d="M505.1851851851852,54.5454545454545h26.666666666666668v44.97607655502387h-26.666666666666668Z" style="fill: #4c78a8;"></path><path d="M505.1851851851852,569.377990430622h26.666666666666668v30.62200956937795h-26.666666666666668Z" style="fill: #b279a2;"></path><path d="M534.8148148148149,528.9772727272727h26.666666666666668v25.56818181818187h-26.666666666666668Z" style="fill: #54a24b;"></path><path d="M534.8148148148149,554.5454545454546h26.666666666666668v45.45454545454538h-26.666666666666668Z" style="fill: #b279a2;"></path><path d="M534.8148148148149,117.0454545454546h26.666666666666668v318.18181818181813h-26.666666666666668Z" style="fill: #e45756;"></path><path d="M534.8148148148149,435.22727272727275h26.666666666666668v93.75h-26.666666666666668Z" style="fill: #72b7b2;"></path><path d="M534.8148148148149,60.22727272727284h26.666666666666668v56.81818181818176h-26.666666666666668Z" style="fill: #f58518;"></path><path d="M534.8148148148149,54.54545454545463h26.666666666666668v5.681818181818208h-26.666666666666668Z" style="fill: #4c78a8;"></path><path d="M564.4444444444445,64.50809464508104h26.666666666666668v74.71980074719797h-26.666666666666668Z" style="fill: #f58518;"></path><path d="M564.4444444444445,331.00871731008715h26.666666666666668v191.78082191780834h-26.666666666666668Z" style="fill: #72b7b2;"></path><path d="M564.4444444444445,139.227895392279h26.666666666666668v191.78082191780814h-26.666666666666668Z" style="fill: #e45756;"></path><path d="M564.4444444444445,545.2054794520548h26.666666666666668v54.79452054794524h-26.666666666666668Z" style="fill: #eeca3b;"></path><path d="M564.4444444444445,54.54545454545463h26.666666666666668v9.962640099626412h-26.666666666666668Z" style="fill: #4c78a8;"></path><path d="M564.4444444444445,522.7895392278955h26.666666666666668v22.41594022415927h-26.666666666666668Z" style="fill: #54a24b;"></path><path d="M594.0740740740741,95.51856594110117h26.666666666666668v281.69014084507046h-26.666666666666668Z" style="fill: #e45756;"></path><path d="M594.0740740740741,559.0268886043534h26.666666666666668v40.97311139564658h-26.666666666666668Z" style="fill: #b279a2;"></path><path d="M594.0740740740741,507.81049935979513h26.666666666666668v51.216389244558286h-26.666666666666668Z" style="fill: #54a24b;"></path><path d="M594.0740740740741,377.2087067861716h26.666666666666668v130.60179257362353h-26.666666666666668Z" style="fill: #72b7b2;"></path><path d="M594.0740740740741,54.54545454545456h26.666666666666668v20.48655569782335h-26.666666666666668Z" style="fill: #4c78a8;"></path><path d="M594.0740740740741,75.03201024327791h26.666666666666668v20.486555697823263h-26.666666666666668Z" style="fill: #f58518;"></path><path d="M623.7037037037037,54.54545454545456h26.666666666666668v26.7379679144385h-26.666666666666668Z" style="fill: #4c78a8;"></path><path d="M623.7037037037037,428.8770053475936h26.666666666666668v125.66844919786104h-26.666666666666668Z" style="fill: #72b7b2;"></path><path d="M623.7037037037037,575.9358288770054h26.666666666666668v24.064171122994594h-26.666666666666668Z" style="fill: #eeca3b;"></path><path d="M623.7037037037037,113.36898395721926h26.666666666666668v315.5080213903743h-26.666666666666668Z" style="fill: #e45756;"></path><path d="M623.7037037037037,554.5454545454546h26.666666666666668v21.390374331550788h-26.666666666666668Z" style="fill: #54a24b;"></path><path d="M623.7037037037037,81.28342245989306h26.666666666666668v32.085561497326196h-26.666666666666668Z" style="fill: #f58518;"></path><path d="M653.3333333333334,91.48859109018484h26.666666666666668v275.98696124592533h-26.666666666666668Z" style="fill: #e45756;"></path><path d="M653.3333333333334,78.4498370155742h26.666666666666668v13.038754074610637h-26.666666666666668Z" style="fill: #f58518;"></path><path d="M653.3333333333334,54.545454545454696h26.666666666666668v23.904382470119508h-26.666666666666668Z" style="fill: #4c78a8;"></path><path d="M653.3333333333334,367.4755523361102h26.666666666666668v86.92502716407091h-26.666666666666668Z" style="fill: #72b7b2;"></path><path d="M653.3333333333334,454.4005795001811h26.666666666666668v6.519377037305333h-26.666666666666668Z" style="fill: #54a24b;"></path><path d="M653.3333333333334,460.9199565374864h26.666666666666668v139.08004346251357h-26.666666666666668Z" style="fill: #b279a2;"></path><path d="M682.962962962963,187.66233766233768h26.666666666666668v285.7142857142857h-26.666666666666668Z" style="fill: #72b7b2;"></path><path d="M682.962962962963,54.54545454545456h26.666666666666668v133.11688311688312h-26.666666666666668Z" style="fill: #e45756;"></path><path d="M682.962962962963,473.3766233766234h26.666666666666668v22.727272727272748h-26.666666666666668Z" style="fill: #54a24b;"></path><path d="M682.962962962963,496.10389610389615h26.666666666666668v103.89610389610385h-26.666666666666668Z" style="fill: #b279a2;"></path><path d="M712.5925925925926,532.4215607401449h26.666666666666668v67.57843925985514h-26.666666666666668Z" style="fill: #b279a2;"></path><path d="M712.5925925925926,334.5132743362832h26.666666666666668v144.81094127111828h-26.666666666666668Z" style="fill: #72b7b2;"></path><path d="M712.5925925925926,54.5454545454545h26.666666666666668v26.548672566371728h-26.666666666666668Z" style="fill: #f58518;"></path><path d="M712.5925925925926,81.09412711182623h26.666666666666668v253.41914722445696h-26.666666666666668Z" style="fill: #e45756;"></path><path d="M712.5925925925926,513.113435237329h26.666666666666668v19.30812550281587h-26.666666666666668Z" style="fill: #eeca3b;"></path><path d="M712.5925925925926,479.32421560740147h26.666666666666668v33.789219629927516h-26.666666666666668Z" style="fill: #54a24b;"></path><path d="M742.2222222222223,105.94954783436452h26.666666666666668v248.45311756306523h-26.666666666666668Z" style="fill: #e45756;"></path><path d="M742.2222222222223,354.40266539742976h26.666666666666668v185.62589243217525h-26.666666666666668Z" style="fill: #72b7b2;"></path><path d="M742.2222222222223,54.5454545454545h26.666666666666668v5.711565920989983h-26.666666666666668Z" style="fill: #4c78a8;"></path><path d="M742.2222222222223,562.8748215135649h26.666666666666668v8.567348881485032h-26.666666666666668Z" style="fill: #eeca3b;"></path><path d="M742.2222222222223,60.25702046644448h26.666666666666668v45.69252736792004h-26.666666666666668Z" style="fill: #f58518;"></path><path d="M742.2222222222223,540.028557829605h26.666666666666668v22.846263683959933h-26.666666666666668Z" style="fill: #54a24b;"></path><path d="M742.2222222222223,571.44217039505h26.666666666666668v28.55782960495003h-26.666666666666668Z" style="fill: #b279a2;"></path><path d="M771.8518518518518,321.31147540983596h26.666666666666668v216.09538002980634h-26.666666666666668Z" style="fill: #72b7b2;"></path><path d="M771.8518518518518,106.70640834575242h26.666666666666668v214.60506706408353h-26.666666666666668Z" style="fill: #e45756;"></path><path d="M771.8518518518518,540.3874813710879h26.666666666666668v59.612518628912085h-26.666666666666668Z" style="fill: #eeca3b;"></path><path d="M771.8518518518518,57.52608047689998h26.666666666666668v49.180327868852444h-26.666666666666668Z" style="fill: #f58518;"></path><path d="M771.8518518518518,537.4068554396423h26.666666666666668v2.9806259314456156h-26.666666666666668Z" style="fill: #54a24b;"></path><path d="M771.8518518518518,54.54545454545436h26.666666666666668v2.9806259314456156h-26.666666666666668Z" style="fill: #4c78a8;"></path></g><g class="mark-group role-legend"><g transform="translate(818,0)"><path class="background" d="M0,0h112v105h-112Z" style="pointer-events: none; fill: none;"></path><g><g class="mark-group role-legend-entry"><g transform="translate(0,16)"><path class="background" d="M0,0h0v0h0Z" style="pointer-events: none; fill: none;"></path><g><g class="mark-group role-scope"><g transform="translate(0,0)"><path class="background" d="M0,0h112v11h-112Z" style="pointer-events: none; fill: none; opacity: 1;"></path><g><g class="mark-symbol role-legend-symbol" style="pointer-events: none;"><path transform="translate(6,6)" d="M-5,-5h10v10h-10Z" style="fill: #4c78a8; stroke-width: 1.5; opacity: 1;"></path></g><g class="mark-text role-legend-label" style="pointer-events: none;"><text text-anchor="start" transform="translate(16,9)" style="font-family: sans-serif; font-size: 10px; fill: #000; opacity: 1;">APOLLO</text></g></g><path class="foreground" d="" style="pointer-events: none; display: none; fill: none;"></path></g><g transform="translate(0,13)"><path class="background" d="M0,0h112v11h-112Z" style="pointer-events: none; fill: none; opacity: 1;"></path><g><g class="mark-symbol role-legend-symbol" style="pointer-events: none;"><path transform="translate(6,6)" d="M-5,-5h10v10h-10Z" style="fill: #f58518; stroke-width: 1.5; opacity: 1;"></path></g><g class="mark-text role-legend-label" style="pointer-events: none;"><text text-anchor="start" transform="translate(16,9)" style="font-family: sans-serif; font-size: 10px; fill: #000; opacity: 1;">EDF</text></g></g><path class="foreground" d="" style="pointer-events: none; display: none; fill: none;"></path></g><g transform="translate(0,26)"><path class="background" d="M0,0h112v11h-112Z" style="pointer-events: none; fill: none; opacity: 1;"></path><g><g class="mark-symbol role-legend-symbol" style="pointer-events: none;"><path transform="translate(6,6)" d="M-5,-5h10v10h-10Z" style="fill: #e45756; stroke-width: 1.5; opacity: 1;"></path></g><g class="mark-text role-legend-label" style="pointer-events: none;"><text text-anchor="start" transform="translate(16,9)" style="font-family: sans-serif; font-size: 10px; fill: #000; opacity: 1;">ETL</text></g></g><path class="foreground" d="" style="pointer-events: none; display: none; fill: none;"></path></g><g transform="translate(0,39)"><path class="background" d="M0,0h112v11h-112Z" style="pointer-events: none; fill: none; opacity: 1;"></path><g><g class="mark-symbol role-legend-symbol" style="pointer-events: none;"><path transform="translate(6,6)" d="M-5,-5h10v10h-10Z" style="fill: #72b7b2; stroke-width: 1.5; opacity: 1;"></path></g><g class="mark-text role-legend-label" style="pointer-events: none;"><text text-anchor="start" transform="translate(16,9)" style="font-family: sans-serif; font-size: 10px; fill: #000; opacity: 1;">GEM</text></g></g><path class="foreground" d="" style="pointer-events: none; display: none; fill: none;"></path></g><g transform="translate(0,52)"><path class="background" d="M0,0h112v11h-112Z" style="pointer-events: none; fill: none; opacity: 1;"></path><g><g class="mark-symbol role-legend-symbol" style="pointer-events: none;"><path transform="translate(6,6)" d="M-5,-5h10v10h-10Z" style="fill: #54a24b; stroke-width: 1.5; opacity: 1;"></path></g><g class="mark-text role-legend-label" style="pointer-events: none;"><text text-anchor="start" transform="translate(16,9)" style="font-family: sans-serif; font-size: 10px; fill: #000; opacity: 1;">L0MDT</text></g></g><path class="foreground" d="" style="pointer-events: none; display: none; fill: none;"></path></g><g transform="translate(0,65)"><path class="background" d="M0,0h112v11h-112Z" style="pointer-events: none; fill: none; opacity: 1;"></path><g><g class="mark-symbol role-legend-symbol" style="pointer-events: none;"><path transform="translate(6,6)" d="M-5,-5h10v10h-10Z" style="fill: #eeca3b; stroke-width: 1.5; opacity: 1;"></path></g><g class="mark-text role-legend-label" style="pointer-events: none;"><text text-anchor="start" transform="translate(16,9)" style="font-family: sans-serif; font-size: 10px; fill: #000; opacity: 1;">OTHER PRJ</text></g></g><path class="foreground" d="" style="pointer-events: none; display: none; fill: none;"></path></g><g transform="translate(0,78)"><path class="background" d="M0,0h112v11h-112Z" style="pointer-events: none; fill: none; opacity: 1;"></path><g><g class="mark-symbol role-legend-symbol" style="pointer-events: none;"><path transform="translate(6,6)" d="M-5,-5h10v10h-10Z" style="fill: #b279a2; stroke-width: 1.5; opacity: 1;"></path></g><g class="mark-text role-legend-label" style="pointer-events: none;"><text text-anchor="start" transform="translate(16,9)" style="font-family: sans-serif; font-size: 10px; fill: #000; opacity: 1;">VAC/SICK/HOL</text></g></g><path class="foreground" d="" style="pointer-events: none; display: none; fill: none;"></path></g></g></g><path class="foreground" d="" style="pointer-events: none; display: none; fill: none;"></path></g></g><g class="mark-text role-legend-title" style="pointer-events: none;"><text text-anchor="start" transform="translate(0,9)" style="font-family: sans-serif; font-size: 11px; font-weight: bold; fill: #000; opacity: 1;">Project</text></g></g><path class="foreground" d="" style="pointer-events: none; display: none; fill: none;"></path></g></g></g><path class="foreground" d="" style="display: none; fill: none;"></path></g></g></g></svg>