<svg class="marks" width="994" height="693" viewBox="0 0 994 693" version="1.1" xmlns="http://www.w3.org/2000/svg" xmlns:xlink="http://www.w3.org/1999/xlink"><rect width="994" height="693" style="fill: white;"></rect><g transform="translate(51,10)"><g class="mark-group role-frame root"><g transform="translate(0,0)"><path class="background" d="M0.5,0.5h800v600h-800Z" style="fill: none; stroke: #ddd;"></path><g><g class="mark-group role-axis"><g transform="translate(0.5,0.5)"><path class="background" d="M0,0h0v0h0Z" style="pointer-events: none; fill: none;"></path><g><g class="mark-rule role-axis-grid" style="pointer-events: none;"><line transform="translate(0,600)" x2="800" y2="0" style="fill: none; stroke: #ddd; stroke-width: 1; opacity: 1;"></line><line transform="translate(0,545)" x2="800" y2="0" style="fill: none; stroke: #ddd; stroke-width: 1; opacity: 1;"></line><line transform="translate(0,491)" x2="800" y2="0" style="fill: none; stroke: #ddd; stroke-width: 1; opacity: 1;"></line><line transform="translate(0,436)" x2="800" y2="0" style="fill: none; stroke: #ddd; stroke-width: 1; opacity: 1;"></line><line transform="translate(0,382)" x2="800" y2="0" style="fill: none; stroke: #ddd; stroke-width: 1; opacity: 1;"></line><line transform="translate(0,327)" x2="800" y2="0" style="fill: none; stroke: #ddd; stroke-width: 1; opacity: 1;"></line><line transform="translate(0,273)" x2="800" y2="0" style="fill: none; stroke: #ddd; stroke-width: 1; opacity: 1;"></line><line transform="translate(0,218)" x2="800" y2="0" style="fill: none; stroke: #ddd; stroke-width: 1; opacity: 1;"></line><line transform="translate(0,164)" x2="800" y2="0" style="fill: none; stroke: #ddd; stroke-width: 1; opacity: 1;"></line><line transform="translate(0,109)" x2="800" y2="0" style="fill: none; stroke: #ddd; stroke-width: 1; opacity: 1;"></line><line transform="translate(0,55)" x2="800" y2="0" style="fill: none; stroke: #ddd; stroke-width: 1; opacity: 1;"></line><line transform="translate(0,0)" x2="800" y2="0" style="fill: none; stroke: #ddd; stroke-width: 1; opacity: 1;"></line></g></g><path class="foreground" d="" style="pointer-events: none; display: none; fill: none;"></path></g></g><g class="mark-group role-axis"><g transform="translate(0.5,600.5)"><path class="background" d="M0,0h0v0h0Z" style="pointer-events: none; fill: none;"></path><g><g class="mark-rule role-axis-tick" style="pointer-events: none;"><line transform="translate(13,0)" x2="0" y2="5" style="fill: none; stroke: #888; stroke-width: 1; opacity: 1;"></line><line transform="translate(39,0)" x2="0" y2="5" style="fill: none; stroke: #888; stroke-width: 1; opacity: 1;"></line><line transform="translate(66,0)" x2="0" y2="5" style="fill: none; stroke: #888; stroke-width: 1; opacity: 1;"></line><line transform="translate(93,0)" x2="0" y2="5" style="fill: none; stroke: #888; stroke-width: 1; opacity: 1;"></line><line transform="translate(119,0)" x2="0" y2="5" style="fill: none; stroke: #888; stroke-width: 1; opacity: 1;"></line><line transform="translate(146,0)" x2="0" y2="5" style="fill: none; stroke: #888; stroke-width: 1; opacity: 1;"></line><line transform="translate(173,0)" x2="0" y2="5" style="fill: none; stroke: #888; stroke-width: 1; opacity: 1;"></line><line transform="translate(200,0)" x2="0" y2="5" style="fill: none; stroke: #888; stroke-width: 1; opacity: 1;"></line><line transform="translate(226,0)" x2="0" y2="5" style="fill: none; stroke: #888; stroke-width: 1; opacity: 1;"></line><line transform="translate(253,0)" x2="0" y2="5" style="fill: none; stroke: #888; stroke-width: 1; opacity: 1;"></line><line transform="translate(280,0)" x2="0" y2="5" style="fill: none; stroke: #888; stroke-width: 1; opacity: 1;"></line><line transform="translate(306,0)" x2="0" y2="5" style="fill: none; stroke: #888; stroke-width: 1; opacity: 1;"></line><line transform="translate(333,0)" x2="0" y2="5" style="fill: none; stroke: #888; stroke-width: 1; opacity: 1;"></line><line transform="translate(360,0)" x2="0" y2="5" style="fill: none; stroke: #888; stroke-width: 1; opacity: 1;"></line><line transform="translate(386,0)" x2="0" y2="5" style="fill: none; stroke: #888; stroke-width: 1; opacity: 1;"></line><line transform="translate(413,0)" x2="0" y2="5" style="fill: none; stroke: #888; stroke-width: 1; opacity: 1;"></line><line transform="translate(440,0)" x2="0" y2="5" style="fill: none; stroke: #888; stroke-width: 1; opacity: 1;"></line><line transform="translate(466,0)" x2="0" y2="5" style="fill: none; stroke: #888; stroke-width: 1; opacity: 1;"></line><line transform="translate(493,0)" x2="0" y2="5" style="fill: none; stroke: #888; stroke-width: 1; opacity: 1;"></line><line transform="translate(520,0)" x2="0" y2="5" style="fill: none; stroke: #888; stroke-width: 1; opacity: 1;"></line><line transform="translate(546,0)" x2="0" y2="5" style="fill: none; stroke: #888; stroke-width: 1; opacity: 1;"></line><line transform="translate(573,0)" x2="0" y2="5" style="fill: none; stroke: #888; stroke-width: 1; opacity: 1;"></line><line transform="translate(600,0)" x2="0" y2="5" style="fill: none; stroke: #888; stroke-width: 1; opacity: 1;"></line><line transform="translate(626,0)" x2="0" y2="5" style="fill: none; stroke: #888; stroke-width: 1; opacity: 1;"></line><line transform="translate(653,0)" x2="0" y2="5" style="fill: none; stroke: #888; stroke-width: 1; opacity: 1;"></line><line transform="translate(680,0)" x2="0" y2="5" style="fill: none; stroke: #888; stroke-width: 1; opacity: 1;"></line><line transform="translate(706,0)" x2="0" y2="5" style="fill: none; stroke: #888; stroke-width: 1; opacity: 1;"></line><line transform="translate(733,0)" x2="0" y2="5" style="fill: none; stroke: #888; stroke-width: 1; opacity: 1;"></line><line transform="translate(760,0)" x2="0" y2="5" style="fill: none; stroke: #888; stroke-width: 1; opacity: 1;"></line><line transform="translate(786,0)" x2="0" y2="5" style="fill: none; stroke: #888; stroke-width: 1; opacity: 1;"></line></g><g class="mark-text role-axis-label" style="pointer-events: none;"><text text-anchor="end" transform="translate(12.833333333333314,7) rotate(270) translate(0,3)" style="font-family: sans-serif; font-size: 10px; fill: #000; opacity: 1;">2021-01</text><text text-anchor="end" transform="translate(39.499999999999986,7) rotate(270) translate(0,3)" style="font-family: sans-serif; font-size: 10px; fill: #000; opacity: 1;">2021-02</text><text text-anchor="end" transform="translate(66.16666666666666,7) rotate(270) translate(0,3)" style="font-family: sans-serif; font-size: 10px; fill: #000; opacity: 1;">2021-03</text><text text-anchor="end" transform="translate(92.83333333333331,7) rotate(270) translate(0,3)" style="font-family: sans-serif; font-size: 10px; fill: #000; opacity: 1;">2021-04</text><text text-anchor="end" transform="translate(119.49999999999999,7) rotate(270) translate(0,3)" style="font-family: sans-serif; font-size: 10px; fill: #000; opacity: 1;">2021-05</text><text text-anchor="end" transform="translate(146.16666666666666,7) rotate(270) translate(0,3)" style="font-family: sans-serif; font-size: 10px; fill: #000; opacity: 1;">2021-06</text><text text-anchor="end" transform="translate(172.83333333333331,7) rotate(270) translate(0,3)" style="font-family: sans-serif; font-size: 10px; fill: #000; opacity: 1;">2021-07</text><text text-anchor="end" transform="translate(199.5,7) rotate(270) translate(0,3)" style="font-family: sans-serif; font-size: 10px; fill: #000; opacity: 1;">2021-08</text><text text-anchor="end" transform="translate(226.16666666666666,7) rotate(270) translate(0,3)" style="font-family: sans-serif; font-size: 10px; fill: #000; opacity: 1;">2021-09</text><text text-anchor="end" transform="translate(252.83333333333331,7) rotate(270) translate(0,3)" style="font-family: sans-serif; font-size: 10px; fill: #000; opacity: 1;">2021-10</text><text text-anchor="end" transform="translate(279.5,7) rotate(270) translate(0,3)" style="font-family: sans-serif; font-size: 10px; fill: #000; opacity: 1;">2021-11</text><text text-anchor="end" transform="translate(306.1666666666667,7) rotate(270) translate(0,3)" style="font-family: sans-serif; font-size: 10px; fill: #000; opacity: 1;">2021-12</text><text text-anchor="end" transform="translate(332.8333333333333,7) rotate(270) translate(0,3)" style="font-family: sans-serif; font-size: 10px; fill: #000; opacity: 1;">2022-01</text><text text-anchor="end" transform="translate(359.5,7) rotate(270) translate(0,3)" style="font-family: sans-serif; font-size: 10px; fill: #000; opacity: 1;">2022-02</text><text text-anchor="end" transform="translate(386.1666666666667,7) rotate(270) translate(0,3)" style="font-family: sans-serif; font-size: 10px; fill: #000; opacity: 1;">2022-03</text><text text-anchor="end" transform="translate(412.8333333333333,7) rotate(270) translate(0,3)" style="font-family: sans-serif; font-size: 10px; fill: #000; opacity: 1;">2022-04</text><text text-anchor="end" transform="translate(439.5,7) rotate(270) translate(0,3)" style="font-family: sans-serif; font-size: 10px; fill: #000; opacity: 1;">2022-05</text><text text-anchor="end" transform="translate(466.1666666666667,7) rotate(270) translate(0,3)" style="font-family: sans-serif; font-size: 10px; fill: #000; opacity: 1;">2022-06</text><text text-anchor="end" transform="translate(492.8333333333333,7) rotate(270) translate(0,3)" style="font-family: sans-serif; font-size: 10px; fill: #000; opacity: 1;">2022-07</text><text text-anchor="end" transform="translate(519.5,7) rotate(270) translate(0,3)" style="font-family: sans-serif; font-size: 10px; fill: #000; opacity: 1;">2022-08</text><text text-anchor="end" transform="translate(546.1666666666667,7) rotate(270) translate(0,3)" style="font-family: sans-serif; font-size: 10px; fill: #000; opacity: 1;">2022-09</text><text text-anchor="end" transform="translate(572.8333333333333,7) rotate(270) translate(0,3)" style="font-family: sans-serif; font-size: 10px; fill: #000; opacity: 1;">2022-10</text><text text-anchor="end" transform="translate(599.5,7) rotate(270) translate(0,3)" style="font-family: sans-serif; font-size: 10px; fill: #000; opacity: 1;">2022-11</text><text text-anchor="end" transform="translate(626.1666666666667,7) rotate(270) translate(0,3)" style="font-family: sans-serif; font-size: 10px; fill: #000; opacity: 1;">2022-12</text><text text-anchor="end" transform="translate(652.8333333333333,7) rotate(270) translate(0,3)" style="font-family: sans-serif; font-size: 10px; fill: #000; opacity: 1;">2023-01</text><text text-anchor="end" transform="translate(679.5,7) rotate(270) translate(0,3)" style="font-family: sans-serif; font-size: 10px; fill: #000; opacity: 1;">2023-02</text><text text-anchor="end" transform="translate(706.1666666666667,7) rotate(270) translate(0,3)" style="font-family: sans-serif; font-size: 10px; fill: #000; opacity: 1;">2023-03</text><text text-anchor="end" transform="translate(732.8333333333333,7) rotate(270) translate(0,3)" style="font-family: sans-serif; font-size: 10px; fill: #000; opacity: 1;">2023-04</text><text text-anchor="end" transform="translate(759.5,7) rotate(270) translate(0,3)" style="font-family: sans-serif; font-size: 10px; fill: #000; opacity: 1;">2023-05</text><text text-anchor="end" transform="translate(786.1666666666667,7) rotate(270) translate(0,3)" style="font-family: sans-serif; font-size: 10px; fill: #000; opacity: 1;">2023-06</text></g><g class="mark-rule role-axis-domain" style="pointer-events: none;"><line transform="translate(0,0)" x2="800" y2="0" style="fill: none; stroke: #888; stroke-width: 1; opacity: 1;"></line></g><g class="mark-text role-axis-title" style="pointer-events: none;"><text text-anchor="middle" transform="translate(400,76)" style="font-family: sans-serif; font-size: 11px; font-weight: bold; fill: #000; opacity: 1;">Date</text></g></g><path class="foreground" d="" style="pointer-events: none; display: none; fill: none;"></path></g></g><g class="mark-group role-axis"><g transform="translate(0.5,0.5)"><path class="background" d="M0,0h0v0h0Z" style="pointer-events: none; fill: none;"></path><g><g class="mark-rule role-axis-tick" style="pointer-events: none;"><line transform="translate(0,600)" x2="-5" y2="0" style="fill: none; stroke: #888; stroke-width: 1; opacity: 1;"></line><line transform="translate(0,545)" x2="-5" y2="0" style="fill: none; stroke: #888; stroke-width: 1; opacity: 1;"></line><line transform="translate(0,491)" x2="-5" y2="0" style="fill: none; stroke: #888; stroke-width: 1; opacity: 1;"></line><line transform="translate(0,436)" x2="-5" y2="0" style="fill: none; stroke: #888; stroke-width: 1; opacity: 1;"></line><line transform="translate(0,382)" x2="-5" y2="0" style="fill: none; stroke: #888; stroke-width: 1; opacity: 1;"></line><line transform="translate(0,327)" x2="-5" y2="0" style="fill: none; stroke: #888; stroke-width: 1; opacity: 1;"></line><line transform="translate(0,273)" x2="-5" y2="0" style="fill: none; stroke: #888; stroke-width: 1; opacity: 1;"></line><line transform="translate(0,218)" x2="-5" y2="0" style="fill: none; stroke: #888; stroke-width: 1; opacity: 1;"></line><line transform="translate(0,164)" x2="-5" y2="0" style="fill: none; stroke: #888; stroke-width: 1; opacity: 1;"></line><line transform="translate(0,109)" x2="-5" y2="0" style="fill: none; stroke: #888; stroke-width: 1; opacity: 1;"></line><line transform="translate(0,55)" x2="-5" y2="0" style="fill: none; stroke: #888; stroke-width: 1; opacity: 1;"></line><line transform="translate(0,0)" x2="-5" y2="0" style="fill: none; stroke: #888; stroke-width: 1; opacity: 1;"></line></g><g class="mark-text role-axis-label" style="pointer-events: none;"><text text-anchor="end" transform="translate(-7,603)" style="font-family: sans-serif; font-size: 10px; fill: #000; opacity: 1;">0.0</text><text text-anchor="end" transform="translate(-7,548.4545454545454)" style="font-family: sans-serif; font-size: 10px; fill: #000; opacity: 1;">0.1</text><text text-anchor="end" transform="translate(-7,493.9090909090909)" style="font-family: sans-serif; font-size: 10px; fill: #000; opacity: 1;">0.2</text><text text-anchor="end" transform="translate(-7,439.3636363636364)" style="font-family: sans-serif; font-size: 10px; fill: #000; opacity: 1;">0.3</text><text text-anchor="end" transform="translate(-7,384.8181818181818)" style="font-family: sans-serif; font-size: 10px; fill: #000; opacity: 1;">0.4</text><text text-anchor="end" transform="translate(-7,330.27272727272725)" style="font-family: sans-serif; font-size: 10px; fill: #000; opacity: 1;">0.5</text><text text-anchor="end" transform="translate(-7,275.72727272727275)" style="font-family: sans-serif; font-size: 10px; fill: #000; opacity: 1;">0.6</text><text text-anchor="end" transform="translate(-7,221.18181818181824)" style="font-family: sans-serif; font-size: 10px; fill: #000; opacity: 1;">0.7</text><text text-anchor="end" transform="translate(-7,166.63636363636363)" style="font-family: sans-serif; font-size: 10px; fill: #000; opacity: 1;">0.8</text><text text-anchor="end" transform="translate(-7,112.09090909090912)" style="font-family: sans-serif; font-size: 10px; fill: #000; opacity: 1;">0.9</text><text text-anchor="end" transform="translate(-7,57.54545454545456)" style="font-family: sans-serif; font-size: 10px; fill: #000; opacity: 1;">1.0</text><text text-anchor="end" transform="translate(-7,3)" style="font-family: sans-serif; font-size: 10px; fill: #000; opacity: 1;">1.1</text></g><g class="mark-rule role-axis-domain" style="pointer-events: none;"><line transform="translate(0,600)" x2="0" y2="-600" style="fill: none; stroke: #888; stroke-width: 1; opacity: 1;"></line></g><g class="mark-text role-axis-title" style="pointer-events: none;"><text text-anchor="middle" transform="translate(-35,300) rotate(-90) translate(0,-2)" style="font-family: sans-serif; font-size: 11px; font-weight: bold; fill: #000; opacity: 1;">Sum of Hours</text></g></g><path class="foreground" d="" style="pointer-events: none; display: none; fill: none;"></path></g></g><g class="mark-rect role-mark marks"><path d="M1.3333333333333144,145.80827732578717h24v12.734347364697584h-24Z" style="fill: #e45756;"></path><path d="M1.3333333333333144,54.545454545454696h24v91.26282278033247h-24Z" style="fill: #4c78a8;"></path><path d="M1.3333333333333144,158.54262469048476h24v252.56455606650147h-24Z" style="fill: #72b7b2;"></path><path d="M1.3333333333333144,476.9013088079236h24v89.14043155288294h-24Z" style="fill: #eeca3b;"></path><path d="M1.3333333333333144,411.1071807569862h24v65.79412805093739h-24Z" style="fill: #54a24b;"></path><path d="M1.3333333333333144,566.0417403608066h24v33.95825963919344h-24Z" style="fill: #ff9da6;"></path><path d="M27.999999999999982,197.95134443021766h24v97.31113956466072h-24Z" style="fill: #72b7b2;"></path><path d="M27.999999999999982,366.9654289372599h24v192.06145966709352h-24Z" style="fill: #eeca3b;"></path><path d="M27.999999999999982,54.54545454545456h24v143.4058898847631h-24Z" style="fill: #4c78a8;"></path><path d="M27.999999999999982,295.2624839948784h24v71.70294494238152h-24Z" style="fill: #54a24b;"></path><path d="M27.999999999999982,559.0268886043534h24v40.97311139564658h-24Z" style="fill: #ff9da6;"></path><path d="M54.66666666666665,166.96738376127672h24v52.04718945176958h-24Z" style="fill: #72b7b2;"></path><path d="M54.66666666666665,348.09160305343505h24v222.76197085357398h-24Z" style="fill: #eeca3b;"></path><path d="M54.66666666666665,54.54545454545436h24v112.42192921582236h-24Z" style="fill: #4c78a8;"></path><path d="M54.66666666666665,219.0145732130463h24v129.07702984038875h-24Z" style="fill: #54a24b;"></path><path d="M54.66666666666665,570.853573907009h24v29.146426092990964h-24Z" style="fill: #b279a2;"></path><path d="M81.33333333333331,153.91120507399577h24v16.91331923890067h-24Z" style="fill: #e45756;"></path><path d="M81.33333333333331,394.9260042283298h24v147.99154334038053h-24Z" style="fill: #eeca3b;"></path><path d="M81.33333333333331,244.82029598308665h24v150.10570824524316h-24Z" style="fill: #54a24b;"></path><path d="M81.33333333333331,542.9175475687103h24v23.255813953488428h-24Z" style="fill: #b279a2;"></path><path d="M81.33333333333331,170.82452431289644h24v73.99577167019021h-24Z" style="fill: #72b7b2;"></path><path d="M81.33333333333331,54.5454545454545h24v99.36575052854127h-24Z" style="fill: #4c78a8;"></path><path d="M81.33333333333331,566.1733615221988h24v33.826638477801225h-24Z" style="fill: #ff9da6;"></path><path d="M107.99999999999999,417.5059141601893h24v152.07840486650895h-24Z" style="fill: #eeca3b;"></path><path d="M107.99999999999999,186.34673876309566h24v77.05305846569789h-24Z" style="fill: #72b7b2;"></path><path d="M107.99999999999999,263.39979722879355h24v154.10611693139577h-24Z" style="fill: #54a24b;"></path><path d="M107.99999999999999,54.54545454545456h24v131.8012842176411h-24Z" style="fill: #4c78a8;"></path><path d="M107.99999999999999,569.5843190266983h24v30.415680973301733h-24Z" style="fill: #b279a2;"></path><path d="M134.66666666666666,428.78787878787887h24v74.24242424242419h-24Z" style="fill: #eeca3b;"></path><path d="M134.66666666666666,503.03030303030306h24v72.72727272727269h-24Z" style="fill: #b279a2;"></path><path d="M134.66666666666666,274.2424242424243h24v56.06060606060606h-24Z" style="fill: #72b7b2;"></path><path d="M134.66666666666666,54.545454545454696h24v219.6969696969696h-24Z" style="fill: #4c78a8;"></path><path d="M134.66666666666666,330.30303030303037h24v98.4848484848485h-24Z" style="fill: #54a24b;"></path><path d="M134.66666666666666,575.7575757575758h24v24.24242424242425h-24Z" style="fill: #ff9da6;"></path><path d="M161.33333333333331,469.9450016175995h24v62.11582012293752h-24Z" style="fill: #eeca3b;"></path><path d="M161.33333333333331,54.54545454545456h24v161.11290844386932h-24Z" style="fill: #4c78a8;"></path><path d="M161.33333333333331,357.36007764477523h24v112.58492397282424h-24Z" style="fill: #54a24b;"></path><path d="M161.33333333333331,568.9420899385312h24v31.05791006146876h-24Z" style="fill: #ff9da6;"></path><path d="M161.33333333333331,227.3050792623747h24v130.05499838240053h-24Z" style="fill: #72b7b2;"></path><path d="M161.33333333333331,215.65836298932388h24v11.646716273050828h-24Z" style="fill: #e45756;"></path><path d="M161.33333333333331,532.060821740537h24v36.881268197994245h-24Z" style="fill: #b279a2;"></path><path d="M188,54.54545454545463h24v50.699300699300736h-24Z" style="fill: #4c78a8;"></path><path d="M188,437.4125874125875h24v157.34265734265728h-24Z" style="fill: #eeca3b;"></path><path d="M188,112.23776223776231h24v206.2937062937063h-24Z" style="fill: #72b7b2;"></path><path d="M188,318.5314685314686h24v118.88111888111894h-24Z" style="fill: #54a24b;"></path><path d="M188,594.7552447552448h24v5.244755244755197h-24Z" style="fill: #b279a2;"></path><path d="M188,105.24475524475537h24v6.993006993006944h-24Z" style="fill: #e45756;"></path><path d="M214.66666666666666,564.6382790629144h24v7.072344187417116h-24Z" style="fill: #b279a2;"></path><path d="M214.66666666666666,150.02210107558577h24v28.28937674966849h-24Z" style="fill: #e45756;"></path><path d="M214.66666666666666,476.23397672020036h24v88.40430234271406h-24Z" style="fill: #eeca3b;"></path><path d="M214.66666666666666,317.10623250331514h24v159.12774421688522h-24Z" style="fill: #54a24b;"></path><path d="M214.66666666666666,178.31147782525426h24v138.79475467806088h-24Z" style="fill: #72b7b2;"></path><path d="M214.66666666666666,54.54545454545463h24v95.47664653013113h-24Z" style="fill: #4c78a8;"></path><path d="M214.66666666666666,571.7106232503315h24v28.289376749668463h-24Z" style="fill: #ff9da6;"></path><path d="M241.33333333333331,54.54545454545456h24v60.32677000418934h-24Z" style="fill: #4c78a8;"></path><path d="M241.33333333333331,137.49476330121496h24v120.65354000837874h-24Z" style="fill: #72b7b2;"></path><path d="M241.33333333333331,258.1483033095937h24v100.54461667364887h-24Z" style="fill: #54a24b;"></path><path d="M241.33333333333331,114.8722245496439h24v22.622538751571057h-24Z" style="fill: #e45756;"></path><path d="M241.33333333333331,358.6929199832426h24v241.30708001675742h-24Z" style="fill: #eeca3b;"></path><path d="M268,283.9422259983008h24v197.11129991503822h-24Z" style="fill: #eeca3b;"></path><path d="M268,81.73322005097712h24v25.488530161427335h-24Z" style="fill: #e45756;"></path><path d="M268,192.18351741716236h24v91.75870858113842h-24Z" style="fill: #54a24b;"></path><path d="M268,54.54545454545456h24v27.187765505522563h-24Z" style="fill: #4c78a8;"></path><path d="M268,107.22175021240446h24v84.9617672047579h-24Z" style="fill: #72b7b2;"></path><path d="M268,481.053525913339h24v10.195412064570917h-24Z" style="fill: #b279a2;"></path><path d="M268,491.2489379779099h24v108.75106202209008h-24Z" style="fill: #ff9da6;"></path><path d="M294.6666666666667,125.4860746190227h24v108.77561744613766h-24Z" style="fill: #54a24b;"></path><path d="M294.6666666666667,234.26169206516036h24v163.95165528113503h-24Z" style="fill: #eeca3b;"></path><path d="M294.6666666666667,54.545454545454696h24v12.611665790856527h-24Z" style="fill: #4c78a8;"></path><path d="M294.6666666666667,104.99211770888088h24v20.49395691014182h-24Z" style="fill: #72b7b2;"></path><path d="M294.6666666666667,67.15712033631122h24v37.83499737256966h-24Z" style="fill: #e45756;"></path><path d="M294.6666666666667,398.2133473462954h24v201.7866526537046h-24Z" style="fill: #ff9da6;"></path><path d="M321.3333333333333,67.63636363636354h24v15.272727272727238h-24Z" style="fill: #e45756;"></path><path d="M321.3333333333333,152.72727272727258h24v74.18181818181819h-24Z" style="fill: #54a24b;"></path><path d="M321.3333333333333,226.90909090909076h24v305.4545454545456h-24Z" style="fill: #eeca3b;"></path><path d="M321.3333333333333,82.90909090909078h24v69.8181818181818h-24Z" style="fill: #72b7b2;"></path><path d="M321.3333333333333,532.3636363636364h24v32.72727272727275h-24Z" style="fill: #b279a2;"></path><path d="M321.3333333333333,54.5454545454545h24v13.090909090909044h-24Z" style="fill: #4c78a8;"></path><path d="M321.3333333333333,565.0909090909091h24v34.90909090909088h-24Z" style="fill: #ff9da6;"></path><path d="M348,488.4297520661157h24v51.652892561983435h-24Z" style="fill: #eeca3b;"></path><path d="M348,54.54545454545476h24v95.04132231404958h-24Z" style="fill: #4c78a8;"></path><path d="M348,331.40495867768607h24v157.02479338842966h-24Z" style="fill: #54a24b;"></path><path d="M348,199.17355371900845h24v132.23140495867762h-24Z" style="fill: #72b7b2;"></path><path d="M348,149.58677685950434h24v49.58677685950411h-24Z" style="fill: #e45756;"></path><path d="M348,540.0826446280992h24v26.85950413223145h-24Z" style="fill: #b279a2;"></path><path d="M348,566.9421487603306h24v33.05785123966939h-24Z" style="fill: #ff9da6;"></path><path d="M374.6666666666667,178.59531772575272h24v164.1836424445119h-24Z" style="fill: #72b7b2;"></path><path d="M374.6666666666667,342.7789601702646h24v158.7108543630282h-24Z" style="fill: #54a24b;"></path><path d="M374.6666666666667,167.64974156278524h24v10.945576162967484h-24Z" style="fill: #e45756;"></path><path d="M374.6666666666667,54.54545454545476h24v113.10428701733048h-24Z" style="fill: #4c78a8;"></path><path d="M374.6666666666667,501.4898145332928h24v71.1462450592885h-24Z" style="fill: #eeca3b;"></path><path d="M374.6666666666667,572.6360595925813h24v27.36394040741868h-24Z" style="fill: #b279a2;"></path><path d="M401.3333333333333,123.41597796143253h24v256.19834710743794h-24Z" style="fill: #72b7b2;"></path><path d="M401.3333333333333,434.7107438016529h24v115.70247933884303h-24Z" style="fill: #eeca3b;"></path><path d="M401.3333333333333,550.4132231404959h24v5.509641873278156h-24Z" style="fill: #b279a2;"></path><path d="M401.3333333333333,379.61432506887047h24v55.09641873278241h-24Z" style="fill: #54a24b;"></path><path d="M401.3333333333333,555.9228650137741h24v44.07713498622593h-24Z" style="fill: #ff9da6;"></path><path d="M401.3333333333333,68.31955922865018h24v55.096418732782354h-24Z" style="fill: #e45756;"></path><path d="M401.3333333333333,54.54545454545456h24v13.774104683195617h-24Z" style="fill: #4c78a8;"></path><path d="M428,77.6334776334777h24v14.430014430014467h-24Z" style="fill: #e45756;"></path><path d="M428,397.979797979798h24v152.958152958153h-24Z" style="fill: #eeca3b;"></path><path d="M428,288.31168831168833h24v109.66810966810965h-24Z" style="fill: #54a24b;"></path><path d="M428,92.06349206349216h24v196.24819624819617h-24Z" style="fill: #72b7b2;"></path><path d="M428,54.54545454545456h24v23.088023088023135h-24Z" style="fill: #4c78a8;"></path><path d="M428,550.937950937951h24v2.8860028860028706h-24Z" style="fill: #b279a2;"></path><path d="M428,553.8239538239538h24v46.17604617604616h-24Z" style="fill: #ff9da6;"></path><path d="M454.6666666666667,99.52153110047837h24v26.794258373205764h-24Z" style="fill: #e45756;"></path><path d="M454.6666666666667,126.31578947368413h24v265.0717703349284h-24Z" style="fill: #72b7b2;"></path><path d="M454.6666666666667,391.3875598086125h24v107.177033492823h-24Z" style="fill: #54a24b;"></path><path d="M454.6666666666667,498.5645933014355h24v70.81339712918657h-24Z" style="fill: #eeca3b;"></path><path d="M454.6666666666667,54.5454545454545h24v44.97607655502387h-24Z" style="fill: #4c78a8;"></path><path d="M454.6666666666667,569.377990430622h24v30.62200956937795h-24Z" style="fill: #ff9da6;"></path><path d="M481.3333333333333,528.9772727272727h24v25.56818181818187h-24Z" style="fill: #eeca3b;"></path><path d="M481.3333333333333,554.5454545454546h24v45.45454545454538h-24Z" style="fill: #ff9da6;"></path><path d="M481.3333333333333,117.0454545454546h24v318.18181818181813h-24Z" style="fill: #72b7b2;"></path><path d="M481.3333333333333,435.22727272727275h24v93.75h-24Z" style="fill: #54a24b;"></path><path d="M481.3333333333333,60.22727272727284h24v56.81818181818176h-24Z" style="fill: #e45756;"></path><path d="M481.3333333333333,54.54545454545463h24v5.681818181818208h-24Z" style="fill: #4c78a8;"></path><path d="M508,64.50809464508104h24v74.71980074719797h-24Z" style="fill: #e45756;"></path><path d="M508,331.00871731008715h24v191.78082191780834h-24Z" style="fill: #54a24b;"></path><path d="M508,139.227895392279h24v191.78082191780814h-24Z" style="fill: #72b7b2;"></path><path d="M508,545.2054794520548h24v54.79452054794524h-24Z" style="fill: #b279a2;"></path><path d="M508,54.54545454545463h24v9.962640099626412h-24Z" style="fill: #4c78a8;"></path><path d="M508,522.7895392278955h24v22.41594022415927h-24Z" style="fill: #eeca3b;"></path><path d="M534.6666666666667,95.51856594110117h24v281.69014084507046h-24Z" style="fill: #72b7b2;"></path><path d="M534.6666666666667,559.0268886043534h24v40.97311139564658h-24Z" style="fill: #ff9da6;"></path><path d="M534.6666666666667,507.81049935979513h24v51.216389244558286h-24Z" style="fill: #eeca3b;"></path><path d="M534.6666666666667,377.2087067861716h24v130.60179257362353h-24Z" style="fill: #54a24b;"></path><path d="M534.6666666666667,54.54545454545456h24v20.48655569782335h-24Z" style="fill: #4c78a8;"></path><path d="M534.6666666666667,75.03201024327791h24v20.486555697823263h-24Z" style="fill: #e45756;"></path><path d="M561.3333333333333,54.54545454545456h24v26.7379679144385h-24Z" style="fill: #4c78a8;"></path><path d="M561.3333333333333,428.8770053475936h24v125.66844919786104h-24Z" style="fill: #54a24b;"></path><path d="M561.3333333333333,575.9358288770054h24v24.064171122994594h-24Z" style="fill: #b279a2;"></path><path d="M561.3333333333333,113.36898395721926h24v315.5080213903743h-24Z" style="fill: #72b7b2;"></path><path d="M561.3333333333333,554.5454545454546h24v21.390374331550788h-24Z" style="fill: #eeca3b;"></path><path d="M561.3333333333333,81.28342245989306h24v32.085561497326196h-24Z" style="fill: #e45756;"></path><path d="M588,91.48859109018484h24v275.98696124592533h-24Z" style="fill: #72b7b2;"></path><path d="M588,78.4498370155742h24v13.038754074610637h-24Z" style="fill: #e45756;"></path><path d="M588,54.545454545454696h24v23.904382470119508h-24Z" style="fill: #4c78a8;"></path><path d="M588,367.4755523361102h24v86.92502716407091h-24Z" style="fill: #54a24b;"></path><path d="M588,454.4005795001811h24v6.519377037305333h-24Z" style="fill: #eeca3b;"></path><path d="M588,460.9199565374864h24v139.08004346251357h-24Z" style="fill: #ff9da6;"></path><path d="M614.6666666666667,187.66233766233768h24v285.7142857142857h-24Z" style="fill: #54a24b;"></path><path d="M614.6666666666667,54.54545454545456h24v133.11688311688312h-24Z" style="fill: #72b7b2;"></path><path d="M614.6666666666667,473.3766233766234h24v22.727272727272748h-24Z" style="fill: #eeca3b;"></path><path d="M614.6666666666667,496.10389610389615h24v103.89610389610385h-24Z" style="fill: #ff9da6;"></path><path d="M641.3333333333333,532.4215607401449h24v67.57843925985514h-24Z" style="fill: #ff9da6;"></path><path d="M641.3333333333333,334.5132743362832h24v144.81094127111828h-24Z" style="fill: #54a24b;"></path><path d="M641.3333333333333,54.5454545454545h24v26.548672566371728h-24Z" style="fill: #e45756;"></path><path d="M641.3333333333333,81.09412711182623h24v253.41914722445696h-24Z" style="fill: #72b7b2;"></path><path d="M641.3333333333333,513.113435237329h24v19.30812550281587h-24Z" style="fill: #b279a2;"></path><path d="M641.3333333333333,479.32421560740147h24v33.789219629927516h-24Z" style="fill: #eeca3b;"></path><path d="M668,105.94954783436452h24v248.45311756306523h-24Z" style="fill: #72b7b2;"></path><path d="M668,354.40266539742976h24v185.62589243217525h-24Z" style="fill: #54a24b;"></path><path d="M668,54.5454545454545h24v5.711565920989983h-24Z" style="fill: #4c78a8;"></path><path d="M668,562.8748215135649h24v8.567348881485032h-24Z" style="fill: #b279a2;"></path><path d="M668,60.25702046644448h24v45.69252736792004h-24Z" style="fill: #e45756;"></path><path d="M668,540.028557829605h24v22.846263683959933h-24Z" style="fill: #eeca3b;"></path><path d="M668,571.44217039505h24v28.55782960495003h-24Z" style="fill: #ff9da6;"></path><path d="M694.6666666666667,286.7804684398571h24v263.19968241365626h-24Z" style="fill: #54a24b;"></path><path d="M694.6666666666667,98.61055974593094h24v188.16990869392615h-24Z" style="fill: #72b7b2;"></path><path d="M694.6666666666667,552.3620484319174h24v47.6379515680826h-24Z" style="fill: #b279a2;"></path><path d="M694.6666666666667,59.30924970226279h24v39.30131004366815h-24Z" style="fill: #e45756;"></path><path d="M694.6666666666667,549.9801508535134h24v2.3818975784040504h-24Z" style="fill: #eeca3b;"></path><path d="M694.6666666666667,54.54545454545456h24v4.763795156808229h-24Z" style="fill: #4c78a8;"></path><path d="M721.3333333333333,250.2932551319649h24v222.14076246334307h-24Z" style="fill: #54a24b;"></path><path d="M721.3333333333333,58.9442815249269h24v30.791788856304954h-24Z" style="fill: #e45756;"></path><path d="M721.3333333333333,472.434017595308h24v43.988269794721305h-24Z" style="fill: #eeca3b;"></path><path d="M721.3333333333333,89.73607038123185h24v160.55718475073306h-24Z" style="fill: #72b7b2;"></path><path d="M721.3333333333333,516.4222873900293h24v39.5894428152493h-24Z" style="fill: #b279a2;"></path><path d="M721.3333333333333,556.0117302052786h24v43.98826979472142h-24Z" style="fill: #ff9da6;"></path><path d="M721.3333333333333,54.54545454545476h24v4.39882697947214h-24Z" style="fill: #f58518;"></path><path d="M748,346.36363636363643h24v144.5454545454545h-24Z" style="fill: #54a24b;"></path><path d="M748,92.72727272727266h24v253.63636363636377h-24Z" style="fill: #72b7b2;"></path><path d="M748,57.27272727272727h24v35.45454545454539h-24Z" style="fill: #e45756;"></path><path d="M748,501.81818181818187h24v70.90909090909088h-24Z" style="fill: #b279a2;"></path><path d="M748,54.54545454545456h24v2.7272727272727124h-24Z" style="fill: #f58518;"></path><path d="M748,490.90909090909093h24v10.909090909090935h-24Z" style="fill: #eeca3b;"></path><path d="M748,572.7272727272727h24v27.272727272727252h-24Z" style="fill: #ff9da6;"></path><path d="M774.6666666666667,132.46753246753252h24v467.5324675324675h-24Z" style="fill: #54a24b;"></path><path d="M774.6666666666667,54.54545454545456h24v77.92207792207796h-24Z" style="fill: #72b7b2;"></path></g><g class="mark-group role-legend"><g transform="translate(818,0)"><path class="background" d="M0,0h120v118h-120Z" style="pointer-events: none; fill: none;"></path><g><g class="mark-group role-legend-entry"><g transform="translate(0,16)"><path class="background" d="M0,0h0v0h0Z" style="pointer-events: none; fill: none;"></path><g><g class="mark-group role-scope"><g transform="translate(0,0)"><path class="background" d="M0,0h120v11h-120Z" style="pointer-events: none; fill: none; opacity: 1;"></path><g><g class="mark-symbol role-legend-symbol" style="pointer-events: none;"><path transform="translate(6,6)" d="M-5,-5h10v10h-10Z" style="fill: #4c78a8; stroke-width: 1.5; opacity: 1;"></path></g><g class="mark-text role-legend-label" style="pointer-events: none;"><text text-anchor="start" transform="translate(16,9)" style="font-family: sans-serif; font-size: 10px; fill: #000; opacity: 1;">APOLLO</text></g></g><path class="foreground" d="" style="pointer-events: none; display: none; fill: none;"></path></g><g transform="translate(0,13)"><path class="background" d="M0,0h120v11h-120Z" style="pointer-events: none; fill: none; opacity: 1;"></path><g><g class="mark-symbol role-legend-symbol" style="pointer-events: none;"><path transform="translate(6,6)" d="M-5,-5h10v10h-10Z" style="fill: #f58518; stroke-width: 1.5; opacity: 1;"></path></g><g class="mark-text role-legend-label" style="pointer-events: none;"><text text-anchor="start" transform="translate(16,9)" style="font-family: sans-serif; font-size: 10px; fill: #000; opacity: 1;">CMS-PIXEL-DTC</text></g></g><path class="foreground" d="" style="pointer-events: none; display: none; fill: none;"></path></g><g transform="translate(0,26)"><path class="background" d="M0,0h120v11h-120Z" style="pointer-events: none; fill: none; opacity: 1;"></path><g><g class="mark-symbol role-legend-symbol" style="pointer-events: none;"><path transform="translate(6,6)" d="M-5,-5h10v10h-10Z" style="fill: #e45756; stroke-width: 1.5; opacity: 1;"></path></g><g class="mark-text role-legend-label" style="pointer-events: none;"><text text-anchor="start" transform="translate(16,9)" style="font-family: sans-serif; font-size: 10px; fill: #000; opacity: 1;">EDF</text></g></g><path class="foreground" d="" style="pointer-events: none; display: none; fill: none;"></path></g><g transform="translate(0,39)"><path class="background" d="M0,0h120v11h-120Z" style="pointer-events: none; fill: none; opacity: 1;"></path><g><g class="mark-symbol role-legend-symbol" style="pointer-events: none;"><path transform="translate(6,6)" d="M-5,-5h10v10h-10Z" style="fill: #72b7b2; stroke-width: 1.5; opacity: 1;"></path></g><g class="mark-text role-legend-label" style="pointer-events: none;"><text text-anchor="start" transform="translate(16,9)" style="font-family: sans-serif; font-size: 10px; fill: #000; opacity: 1;">ETL</text></g></g><path class="foreground" d="" style="pointer-events: none; display: none; fill: none;"></path></g><g transform="translate(0,52)"><path class="background" d="M0,0h120v11h-120Z" style="pointer-events: none; fill: none; opacity: 1;"></path><g><g class="mark-symbol role-legend-symbol" style="pointer-events: none;"><path transform="translate(6,6)" d="M-5,-5h10v10h-10Z" style="fill: #54a24b; stroke-width: 1.5; opacity: 1;"></path></g><g class="mark-text role-legend-label" style="pointer-events: none;"><text text-anchor="start" transform="translate(16,9)" style="font-family: sans-serif; font-size: 10px; fill: #000; opacity: 1;">GEM</text></g></g><path class="foreground" d="" style="pointer-events: none; display: none; fill: none;"></path></g><g transform="translate(0,65)"><path class="background" d="M0,0h120v11h-120Z" style="pointer-events: none; fill: none; opacity: 1;"></path><g><g class="mark-symbol role-legend-symbol" style="pointer-events: none;"><path transform="translate(6,6)" d="M-5,-5h10v10h-10Z" style="fill: #eeca3b; stroke-width: 1.5; opacity: 1;"></path></g><g class="mark-text role-legend-label" style="pointer-events: none;"><text text-anchor="start" transform="translate(16,9)" style="font-family: sans-serif; font-size: 10px; fill: #000; opacity: 1;">L0MDT</text></g></g><path class="foreground" d="" style="pointer-events: none; display: none; fill: none;"></path></g><g transform="translate(0,78)"><path class="background" d="M0,0h120v11h-120Z" style="pointer-events: none; fill: none; opacity: 1;"></path><g><g class="mark-symbol role-legend-symbol" style="pointer-events: none;"><path transform="translate(6,6)" d="M-5,-5h10v10h-10Z" style="fill: #b279a2; stroke-width: 1.5; opacity: 1;"></path></g><g class="mark-text role-legend-label" style="pointer-events: none;"><text text-anchor="start" transform="translate(16,9)" style="font-family: sans-serif; font-size: 10px; fill: #000; opacity: 1;">OTHER PRJ</text></g></g><path class="foreground" d="" style="pointer-events: none; display: none; fill: none;"></path></g><g transform="translate(0,91)"><path class="background" d="M0,0h120v11h-120Z" style="pointer-events: none; fill: none; opacity: 1;"></path><g><g class="mark-symbol role-legend-symbol" style="pointer-events: none;"><path transform="translate(6,6)" d="M-5,-5h10v10h-10Z" style="fill: #ff9da6; stroke-width: 1.5; opacity: 1;"></path></g><g class="mark-text role-legend-label" style="pointer-events: none;"><text text-anchor="start" transform="translate(16,9)" style="font-family: sans-serif; font-size: 10px; fill: #000; opacity: 1;">VAC/SICK/HOL</text></g></g><path class="foreground" d="" style="pointer-events: none; display: none; fill: none;"></path></g></g></g><path class="foreground" d="" style="pointer-events: none; display: none; fill: none;"></path></g></g><g class="mark-text role-legend-title" style="pointer-events: none;"><text text-anchor="start" transform="translate(0,9)" style="font-family: sans-serif; font-size: 11px; font-weight: bold; fill: #000; opacity: 1;">Project</text></g></g><path class="foreground" d="" style="pointer-events: none; display: none; fill: none;"></path></g></g></g><path class="foreground" d="" style="display: none; fill: none;"></path></g></g></g></svg>