<?xml version="1.0" encoding="utf-8" standalone="no"?>
<!DOCTYPE svg PUBLIC "-//W3C//DTD SVG 1.1//EN"
  "http://www.w3.org/Graphics/SVG/1.1/DTD/svg11.dtd">
<svg xmlns:xlink="http://www.w3.org/1999/xlink" width="540pt" height="360pt" viewBox="0 0 540 360" xmlns="http://www.w3.org/2000/svg" version="1.1">
 <metadata>
  <rdf:RDF xmlns:dc="http://purl.org/dc/elements/1.1/" xmlns:cc="http://creativecommons.org/ns#" xmlns:rdf="http://www.w3.org/1999/02/22-rdf-syntax-ns#">
   <cc:Work>
    <dc:type rdf:resource="http://purl.org/dc/dcmitype/StillImage"/>
    <dc:date>2022-08-12T16:28:24.669867</dc:date>
    <dc:format>image/svg+xml</dc:format>
    <dc:creator>
     <cc:Agent>
      <dc:title>Matplotlib v3.5.2, https://matplotlib.org/</dc:title>
     </cc:Agent>
    </dc:creator>
   </cc:Work>
  </rdf:RDF>
 </metadata>
 <defs>
  <style type="text/css">*{stroke-linejoin: round; stroke-linecap: butt}</style>
 </defs>
 <g id="figure_1">
  <g id="patch_1">
   <path d="M 0 360 
L 540 360 
L 540 0 
L 0 0 
z
" style="fill: #f0f0f0"/>
  </g>
  <g id="axes_1">
   <g id="patch_2">
    <path d="M 30.203125 309.210312 
L 437.596875 309.210312 
L 437.596875 27.74175 
L 30.203125 27.74175 
z
" style="fill: #e5e5e5"/>
   </g>
   <g id="matplotlib.axis_1">
    <g id="xtick_1">
     <g id="line2d_1">
      <path d="M 30.203125 309.210312 
L 30.203125 27.74175 
" clip-path="url(#p6548c25fc0)" style="fill: none; stroke: #ffffff"/>
     </g>
     <g id="line2d_2"/>
     <g id="text_1">
      <!-- Jan -->
      <g style="fill: #555555" transform="translate(22.495313 320.30875)scale(0.1 -0.1)">
       <defs>
        <path id="DejaVuSans-4a" d="M 628 4666 
L 1259 4666 
L 1259 325 
Q 1259 -519 939 -900 
Q 619 -1281 -91 -1281 
L -331 -1281 
L -331 -750 
L -134 -750 
Q 284 -750 456 -515 
Q 628 -281 628 325 
L 628 4666 
z
" transform="scale(0.015625)"/>
        <path id="DejaVuSans-61" d="M 2194 1759 
Q 1497 1759 1228 1600 
Q 959 1441 959 1056 
Q 959 750 1161 570 
Q 1363 391 1709 391 
Q 2188 391 2477 730 
Q 2766 1069 2766 1631 
L 2766 1759 
L 2194 1759 
z
M 3341 1997 
L 3341 0 
L 2766 0 
L 2766 531 
Q 2569 213 2275 61 
Q 1981 -91 1556 -91 
Q 1019 -91 701 211 
Q 384 513 384 1019 
Q 384 1609 779 1909 
Q 1175 2209 1959 2209 
L 2766 2209 
L 2766 2266 
Q 2766 2663 2505 2880 
Q 2244 3097 1772 3097 
Q 1472 3097 1187 3025 
Q 903 2953 641 2809 
L 641 3341 
Q 956 3463 1253 3523 
Q 1550 3584 1831 3584 
Q 2591 3584 2966 3190 
Q 3341 2797 3341 1997 
z
" transform="scale(0.015625)"/>
        <path id="DejaVuSans-6e" d="M 3513 2113 
L 3513 0 
L 2938 0 
L 2938 2094 
Q 2938 2591 2744 2837 
Q 2550 3084 2163 3084 
Q 1697 3084 1428 2787 
Q 1159 2491 1159 1978 
L 1159 0 
L 581 0 
L 581 3500 
L 1159 3500 
L 1159 2956 
Q 1366 3272 1645 3428 
Q 1925 3584 2291 3584 
Q 2894 3584 3203 3211 
Q 3513 2838 3513 2113 
z
" transform="scale(0.015625)"/>
       </defs>
       <use xlink:href="#DejaVuSans-4a"/>
       <use xlink:href="#DejaVuSans-61" x="29.492188"/>
       <use xlink:href="#DejaVuSans-6e" x="90.771484"/>
      </g>
      <!-- 2021 -->
      <g style="fill: #555555" transform="translate(17.478125 331.506562)scale(0.1 -0.1)">
       <defs>
        <path id="DejaVuSans-32" d="M 1228 531 
L 3431 531 
L 3431 0 
L 469 0 
L 469 531 
Q 828 903 1448 1529 
Q 2069 2156 2228 2338 
Q 2531 2678 2651 2914 
Q 2772 3150 2772 3378 
Q 2772 3750 2511 3984 
Q 2250 4219 1831 4219 
Q 1534 4219 1204 4116 
Q 875 4013 500 3803 
L 500 4441 
Q 881 4594 1212 4672 
Q 1544 4750 1819 4750 
Q 2544 4750 2975 4387 
Q 3406 4025 3406 3419 
Q 3406 3131 3298 2873 
Q 3191 2616 2906 2266 
Q 2828 2175 2409 1742 
Q 1991 1309 1228 531 
z
" transform="scale(0.015625)"/>
        <path id="DejaVuSans-30" d="M 2034 4250 
Q 1547 4250 1301 3770 
Q 1056 3291 1056 2328 
Q 1056 1369 1301 889 
Q 1547 409 2034 409 
Q 2525 409 2770 889 
Q 3016 1369 3016 2328 
Q 3016 3291 2770 3770 
Q 2525 4250 2034 4250 
z
M 2034 4750 
Q 2819 4750 3233 4129 
Q 3647 3509 3647 2328 
Q 3647 1150 3233 529 
Q 2819 -91 2034 -91 
Q 1250 -91 836 529 
Q 422 1150 422 2328 
Q 422 3509 836 4129 
Q 1250 4750 2034 4750 
z
" transform="scale(0.015625)"/>
        <path id="DejaVuSans-31" d="M 794 531 
L 1825 531 
L 1825 4091 
L 703 3866 
L 703 4441 
L 1819 4666 
L 2450 4666 
L 2450 531 
L 3481 531 
L 3481 0 
L 794 0 
L 794 531 
z
" transform="scale(0.015625)"/>
       </defs>
       <use xlink:href="#DejaVuSans-32"/>
       <use xlink:href="#DejaVuSans-30" x="63.623047"/>
       <use xlink:href="#DejaVuSans-32" x="127.246094"/>
       <use xlink:href="#DejaVuSans-31" x="190.869141"/>
      </g>
     </g>
    </g>
    <g id="xtick_2">
     <g id="line2d_3">
      <path d="M 287.504441 309.210312 
L 287.504441 27.74175 
" clip-path="url(#p6548c25fc0)" style="fill: none; stroke: #ffffff"/>
     </g>
     <g id="line2d_4"/>
     <g id="text_2">
      <!-- Jan -->
      <g style="fill: #555555" transform="translate(279.796628 320.30875)scale(0.1 -0.1)">
       <use xlink:href="#DejaVuSans-4a"/>
       <use xlink:href="#DejaVuSans-61" x="29.492188"/>
       <use xlink:href="#DejaVuSans-6e" x="90.771484"/>
      </g>
      <!-- 2022 -->
      <g style="fill: #555555" transform="translate(274.779441 331.506562)scale(0.1 -0.1)">
       <use xlink:href="#DejaVuSans-32"/>
       <use xlink:href="#DejaVuSans-30" x="63.623047"/>
       <use xlink:href="#DejaVuSans-32" x="127.246094"/>
       <use xlink:href="#DejaVuSans-32" x="190.869141"/>
      </g>
     </g>
    </g>
    <g id="xtick_3">
     <g id="line2d_5"/>
    </g>
    <g id="xtick_4">
     <g id="line2d_6"/>
    </g>
    <g id="xtick_5">
     <g id="line2d_7"/>
     <g id="text_3">
      <!-- Apr -->
      <g style="fill: #555555" transform="translate(85.878454 320.20875)scale(0.1 -0.1)">
       <defs>
        <path id="DejaVuSans-41" d="M 2188 4044 
L 1331 1722 
L 3047 1722 
L 2188 4044 
z
M 1831 4666 
L 2547 4666 
L 4325 0 
L 3669 0 
L 3244 1197 
L 1141 1197 
L 716 0 
L 50 0 
L 1831 4666 
z
" transform="scale(0.015625)"/>
        <path id="DejaVuSans-70" d="M 1159 525 
L 1159 -1331 
L 581 -1331 
L 581 3500 
L 1159 3500 
L 1159 2969 
Q 1341 3281 1617 3432 
Q 1894 3584 2278 3584 
Q 2916 3584 3314 3078 
Q 3713 2572 3713 1747 
Q 3713 922 3314 415 
Q 2916 -91 2278 -91 
Q 1894 -91 1617 61 
Q 1341 213 1159 525 
z
M 3116 1747 
Q 3116 2381 2855 2742 
Q 2594 3103 2138 3103 
Q 1681 3103 1420 2742 
Q 1159 2381 1159 1747 
Q 1159 1113 1420 752 
Q 1681 391 2138 391 
Q 2594 391 2855 752 
Q 3116 1113 3116 1747 
z
" transform="scale(0.015625)"/>
        <path id="DejaVuSans-72" d="M 2631 2963 
Q 2534 3019 2420 3045 
Q 2306 3072 2169 3072 
Q 1681 3072 1420 2755 
Q 1159 2438 1159 1844 
L 1159 0 
L 581 0 
L 581 3500 
L 1159 3500 
L 1159 2956 
Q 1341 3275 1631 3429 
Q 1922 3584 2338 3584 
Q 2397 3584 2469 3576 
Q 2541 3569 2628 3553 
L 2631 2963 
z
" transform="scale(0.015625)"/>
       </defs>
       <use xlink:href="#DejaVuSans-41"/>
       <use xlink:href="#DejaVuSans-70" x="68.408203"/>
       <use xlink:href="#DejaVuSans-72" x="131.884766"/>
      </g>
     </g>
    </g>
    <g id="xtick_6">
     <g id="line2d_8"/>
    </g>
    <g id="xtick_7">
     <g id="line2d_9"/>
    </g>
    <g id="xtick_8">
     <g id="line2d_10"/>
     <g id="text_4">
      <!-- Jul -->
      <g style="fill: #555555" transform="translate(152.82097 320.20875)scale(0.1 -0.1)">
       <defs>
        <path id="DejaVuSans-75" d="M 544 1381 
L 544 3500 
L 1119 3500 
L 1119 1403 
Q 1119 906 1312 657 
Q 1506 409 1894 409 
Q 2359 409 2629 706 
Q 2900 1003 2900 1516 
L 2900 3500 
L 3475 3500 
L 3475 0 
L 2900 0 
L 2900 538 
Q 2691 219 2414 64 
Q 2138 -91 1772 -91 
Q 1169 -91 856 284 
Q 544 659 544 1381 
z
M 1991 3584 
L 1991 3584 
z
" transform="scale(0.015625)"/>
        <path id="DejaVuSans-6c" d="M 603 4863 
L 1178 4863 
L 1178 0 
L 603 0 
L 603 4863 
z
" transform="scale(0.015625)"/>
       </defs>
       <use xlink:href="#DejaVuSans-4a"/>
       <use xlink:href="#DejaVuSans-75" x="29.492188"/>
       <use xlink:href="#DejaVuSans-6c" x="92.871094"/>
      </g>
     </g>
    </g>
    <g id="xtick_9">
     <g id="line2d_11"/>
    </g>
    <g id="xtick_10">
     <g id="line2d_12"/>
    </g>
    <g id="xtick_11">
     <g id="line2d_13"/>
     <g id="text_5">
      <!-- Oct -->
      <g style="fill: #555555" transform="translate(214.533799 320.20875)scale(0.1 -0.1)">
       <defs>
        <path id="DejaVuSans-4f" d="M 2522 4238 
Q 1834 4238 1429 3725 
Q 1025 3213 1025 2328 
Q 1025 1447 1429 934 
Q 1834 422 2522 422 
Q 3209 422 3611 934 
Q 4013 1447 4013 2328 
Q 4013 3213 3611 3725 
Q 3209 4238 2522 4238 
z
M 2522 4750 
Q 3503 4750 4090 4092 
Q 4678 3434 4678 2328 
Q 4678 1225 4090 567 
Q 3503 -91 2522 -91 
Q 1538 -91 948 565 
Q 359 1222 359 2328 
Q 359 3434 948 4092 
Q 1538 4750 2522 4750 
z
" transform="scale(0.015625)"/>
        <path id="DejaVuSans-63" d="M 3122 3366 
L 3122 2828 
Q 2878 2963 2633 3030 
Q 2388 3097 2138 3097 
Q 1578 3097 1268 2742 
Q 959 2388 959 1747 
Q 959 1106 1268 751 
Q 1578 397 2138 397 
Q 2388 397 2633 464 
Q 2878 531 3122 666 
L 3122 134 
Q 2881 22 2623 -34 
Q 2366 -91 2075 -91 
Q 1284 -91 818 406 
Q 353 903 353 1747 
Q 353 2603 823 3093 
Q 1294 3584 2113 3584 
Q 2378 3584 2631 3529 
Q 2884 3475 3122 3366 
z
" transform="scale(0.015625)"/>
        <path id="DejaVuSans-74" d="M 1172 4494 
L 1172 3500 
L 2356 3500 
L 2356 3053 
L 1172 3053 
L 1172 1153 
Q 1172 725 1289 603 
Q 1406 481 1766 481 
L 2356 481 
L 2356 0 
L 1766 0 
Q 1100 0 847 248 
Q 594 497 594 1153 
L 594 3053 
L 172 3053 
L 172 3500 
L 594 3500 
L 594 4494 
L 1172 4494 
z
" transform="scale(0.015625)"/>
       </defs>
       <use xlink:href="#DejaVuSans-4f"/>
       <use xlink:href="#DejaVuSans-63" x="78.710938"/>
       <use xlink:href="#DejaVuSans-74" x="133.691406"/>
      </g>
     </g>
    </g>
    <g id="xtick_12">
     <g id="line2d_14"/>
    </g>
    <g id="xtick_13">
     <g id="line2d_15"/>
    </g>
    <g id="xtick_14">
     <g id="line2d_16"/>
    </g>
    <g id="xtick_15">
     <g id="line2d_17"/>
    </g>
    <g id="xtick_16">
     <g id="line2d_18"/>
     <g id="text_6">
      <!-- Apr -->
      <g style="fill: #555555" transform="translate(343.17977 320.20875)scale(0.1 -0.1)">
       <use xlink:href="#DejaVuSans-41"/>
       <use xlink:href="#DejaVuSans-70" x="68.408203"/>
       <use xlink:href="#DejaVuSans-72" x="131.884766"/>
      </g>
     </g>
    </g>
    <g id="xtick_17">
     <g id="line2d_19"/>
    </g>
    <g id="xtick_18">
     <g id="line2d_20"/>
    </g>
    <g id="xtick_19">
     <g id="line2d_21"/>
     <g id="text_7">
      <!-- Jul -->
      <g style="fill: #555555" transform="translate(410.122286 320.20875)scale(0.1 -0.1)">
       <use xlink:href="#DejaVuSans-4a"/>
       <use xlink:href="#DejaVuSans-75" x="29.492188"/>
       <use xlink:href="#DejaVuSans-6c" x="92.871094"/>
      </g>
     </g>
    </g>
    <g id="xtick_20">
     <g id="line2d_22"/>
    </g>
    <g id="text_8">
     <!-- Date -->
     <g style="fill: #555555" transform="translate(219.559062 346.704375)scale(0.12 -0.12)">
      <defs>
       <path id="DejaVuSans-44" d="M 1259 4147 
L 1259 519 
L 2022 519 
Q 2988 519 3436 956 
Q 3884 1394 3884 2338 
Q 3884 3275 3436 3711 
Q 2988 4147 2022 4147 
L 1259 4147 
z
M 628 4666 
L 1925 4666 
Q 3281 4666 3915 4102 
Q 4550 3538 4550 2338 
Q 4550 1131 3912 565 
Q 3275 0 1925 0 
L 628 0 
L 628 4666 
z
" transform="scale(0.015625)"/>
       <path id="DejaVuSans-65" d="M 3597 1894 
L 3597 1613 
L 953 1613 
Q 991 1019 1311 708 
Q 1631 397 2203 397 
Q 2534 397 2845 478 
Q 3156 559 3463 722 
L 3463 178 
Q 3153 47 2828 -22 
Q 2503 -91 2169 -91 
Q 1331 -91 842 396 
Q 353 884 353 1716 
Q 353 2575 817 3079 
Q 1281 3584 2069 3584 
Q 2775 3584 3186 3129 
Q 3597 2675 3597 1894 
z
M 3022 2063 
Q 3016 2534 2758 2815 
Q 2500 3097 2075 3097 
Q 1594 3097 1305 2825 
Q 1016 2553 972 2059 
L 3022 2063 
z
" transform="scale(0.015625)"/>
      </defs>
      <use xlink:href="#DejaVuSans-44"/>
      <use xlink:href="#DejaVuSans-61" x="77.001953"/>
      <use xlink:href="#DejaVuSans-74" x="138.28125"/>
      <use xlink:href="#DejaVuSans-65" x="177.490234"/>
     </g>
    </g>
   </g>
   <g id="matplotlib.axis_2">
    <g id="ytick_1">
     <g id="line2d_23">
      <path d="M 30.203125 309.210312 
L 437.596875 309.210312 
" clip-path="url(#p6548c25fc0)" style="fill: none; stroke: #ffffff"/>
     </g>
     <g id="line2d_24"/>
     <g id="text_9">
      <!-- 0.0 -->
      <g style="fill: #555555" transform="translate(10.8 313.009531)scale(0.1 -0.1)">
       <defs>
        <path id="DejaVuSans-2e" d="M 684 794 
L 1344 794 
L 1344 0 
L 684 0 
L 684 794 
z
" transform="scale(0.015625)"/>
       </defs>
       <use xlink:href="#DejaVuSans-30"/>
       <use xlink:href="#DejaVuSans-2e" x="63.623047"/>
       <use xlink:href="#DejaVuSans-30" x="95.410156"/>
      </g>
     </g>
    </g>
    <g id="ytick_2">
     <g id="line2d_25">
      <path d="M 30.203125 255.704265 
L 437.596875 255.704265 
" clip-path="url(#p6548c25fc0)" style="fill: none; stroke: #ffffff"/>
     </g>
     <g id="line2d_26"/>
     <g id="text_10">
      <!-- 0.2 -->
      <g style="fill: #555555" transform="translate(10.8 259.503484)scale(0.1 -0.1)">
       <use xlink:href="#DejaVuSans-30"/>
       <use xlink:href="#DejaVuSans-2e" x="63.623047"/>
       <use xlink:href="#DejaVuSans-32" x="95.410156"/>
      </g>
     </g>
    </g>
    <g id="ytick_3">
     <g id="line2d_27">
      <path d="M 30.203125 202.198218 
L 437.596875 202.198218 
" clip-path="url(#p6548c25fc0)" style="fill: none; stroke: #ffffff"/>
     </g>
     <g id="line2d_28"/>
     <g id="text_11">
      <!-- 0.4 -->
      <g style="fill: #555555" transform="translate(10.8 205.997436)scale(0.1 -0.1)">
       <defs>
        <path id="DejaVuSans-34" d="M 2419 4116 
L 825 1625 
L 2419 1625 
L 2419 4116 
z
M 2253 4666 
L 3047 4666 
L 3047 1625 
L 3713 1625 
L 3713 1100 
L 3047 1100 
L 3047 0 
L 2419 0 
L 2419 1100 
L 313 1100 
L 313 1709 
L 2253 4666 
z
" transform="scale(0.015625)"/>
       </defs>
       <use xlink:href="#DejaVuSans-30"/>
       <use xlink:href="#DejaVuSans-2e" x="63.623047"/>
       <use xlink:href="#DejaVuSans-34" x="95.410156"/>
      </g>
     </g>
    </g>
    <g id="ytick_4">
     <g id="line2d_29">
      <path d="M 30.203125 148.69217 
L 437.596875 148.69217 
" clip-path="url(#p6548c25fc0)" style="fill: none; stroke: #ffffff"/>
     </g>
     <g id="line2d_30"/>
     <g id="text_12">
      <!-- 0.6 -->
      <g style="fill: #555555" transform="translate(10.8 152.491389)scale(0.1 -0.1)">
       <defs>
        <path id="DejaVuSans-36" d="M 2113 2584 
Q 1688 2584 1439 2293 
Q 1191 2003 1191 1497 
Q 1191 994 1439 701 
Q 1688 409 2113 409 
Q 2538 409 2786 701 
Q 3034 994 3034 1497 
Q 3034 2003 2786 2293 
Q 2538 2584 2113 2584 
z
M 3366 4563 
L 3366 3988 
Q 3128 4100 2886 4159 
Q 2644 4219 2406 4219 
Q 1781 4219 1451 3797 
Q 1122 3375 1075 2522 
Q 1259 2794 1537 2939 
Q 1816 3084 2150 3084 
Q 2853 3084 3261 2657 
Q 3669 2231 3669 1497 
Q 3669 778 3244 343 
Q 2819 -91 2113 -91 
Q 1303 -91 875 529 
Q 447 1150 447 2328 
Q 447 3434 972 4092 
Q 1497 4750 2381 4750 
Q 2619 4750 2861 4703 
Q 3103 4656 3366 4563 
z
" transform="scale(0.015625)"/>
       </defs>
       <use xlink:href="#DejaVuSans-30"/>
       <use xlink:href="#DejaVuSans-2e" x="63.623047"/>
       <use xlink:href="#DejaVuSans-36" x="95.410156"/>
      </g>
     </g>
    </g>
    <g id="ytick_5">
     <g id="line2d_31">
      <path d="M 30.203125 95.186123 
L 437.596875 95.186123 
" clip-path="url(#p6548c25fc0)" style="fill: none; stroke: #ffffff"/>
     </g>
     <g id="line2d_32"/>
     <g id="text_13">
      <!-- 0.8 -->
      <g style="fill: #555555" transform="translate(10.8 98.985342)scale(0.1 -0.1)">
       <defs>
        <path id="DejaVuSans-38" d="M 2034 2216 
Q 1584 2216 1326 1975 
Q 1069 1734 1069 1313 
Q 1069 891 1326 650 
Q 1584 409 2034 409 
Q 2484 409 2743 651 
Q 3003 894 3003 1313 
Q 3003 1734 2745 1975 
Q 2488 2216 2034 2216 
z
M 1403 2484 
Q 997 2584 770 2862 
Q 544 3141 544 3541 
Q 544 4100 942 4425 
Q 1341 4750 2034 4750 
Q 2731 4750 3128 4425 
Q 3525 4100 3525 3541 
Q 3525 3141 3298 2862 
Q 3072 2584 2669 2484 
Q 3125 2378 3379 2068 
Q 3634 1759 3634 1313 
Q 3634 634 3220 271 
Q 2806 -91 2034 -91 
Q 1263 -91 848 271 
Q 434 634 434 1313 
Q 434 1759 690 2068 
Q 947 2378 1403 2484 
z
M 1172 3481 
Q 1172 3119 1398 2916 
Q 1625 2713 2034 2713 
Q 2441 2713 2670 2916 
Q 2900 3119 2900 3481 
Q 2900 3844 2670 4047 
Q 2441 4250 2034 4250 
Q 1625 4250 1398 4047 
Q 1172 3844 1172 3481 
z
" transform="scale(0.015625)"/>
       </defs>
       <use xlink:href="#DejaVuSans-30"/>
       <use xlink:href="#DejaVuSans-2e" x="63.623047"/>
       <use xlink:href="#DejaVuSans-38" x="95.410156"/>
      </g>
     </g>
    </g>
    <g id="ytick_6">
     <g id="line2d_33">
      <path d="M 30.203125 41.680075 
L 437.596875 41.680075 
" clip-path="url(#p6548c25fc0)" style="fill: none; stroke: #ffffff"/>
     </g>
     <g id="line2d_34"/>
     <g id="text_14">
      <!-- 1.0 -->
      <g style="fill: #555555" transform="translate(10.8 45.479294)scale(0.1 -0.1)">
       <use xlink:href="#DejaVuSans-31"/>
       <use xlink:href="#DejaVuSans-2e" x="63.623047"/>
       <use xlink:href="#DejaVuSans-30" x="95.410156"/>
      </g>
     </g>
    </g>
   </g>
   <g id="PolyCollection_1">
    <defs>
     <path id="m8d22c79663" d="M 30.203125 -59.618185 
L 30.203125 -50.789688 
L 51.644901 -50.789688 
L 73.086678 -50.789688 
L 94.528454 -50.789688 
L 115.97023 -50.789688 
L 137.412007 -50.789688 
L 158.853783 -50.789688 
L 180.295559 -50.789688 
L 201.737336 -50.789688 
L 223.179112 -50.789688 
L 244.620888 -50.789688 
L 266.062664 -50.789688 
L 287.504441 -50.789688 
L 308.946217 -50.789688 
L 330.387993 -50.789688 
L 351.82977 -50.789688 
L 373.271546 -50.789688 
L 394.713322 -50.789688 
L 416.155099 -50.789688 
L 437.596875 -50.789688 
L 437.596875 -50.789688 
L 437.596875 -50.789688 
L 416.155099 -50.789688 
L 394.713322 -67.644092 
L 373.271546 -60.153246 
L 351.82977 -54.00005 
L 330.387993 -80.485544 
L 308.946217 -84.498497 
L 287.504441 -64.96879 
L 266.062664 -84.498497 
L 244.620888 -64.43373 
L 223.179112 -52.127339 
L 201.737336 -62.561018 
L 180.295559 -62.025957 
L 158.853783 -63.631139 
L 137.412007 -71.657046 
L 115.97023 -56.942883 
L 94.528454 -53.19746 
L 73.086678 -69.249274 
L 51.644901 -61.490897 
L 30.203125 -59.618185 
z
" style="stroke: #e24a33; stroke-width: 0.5"/>
    </defs>
    <g clip-path="url(#p6548c25fc0)">
     <use xlink:href="#m8d22c79663" x="0" y="360" style="fill: #e24a33; stroke: #e24a33; stroke-width: 0.5"/>
    </g>
   </g>
   <g id="PolyCollection_2">
    <defs>
     <path id="md266b9af2d" d="M 30.203125 -74.064818 
L 30.203125 -59.618185 
L 51.644901 -61.490897 
L 73.086678 -69.249274 
L 94.528454 -53.19746 
L 115.97023 -56.942883 
L 137.412007 -71.657046 
L 158.853783 -63.631139 
L 180.295559 -62.025957 
L 201.737336 -62.561018 
L 223.179112 -52.127339 
L 244.620888 -64.43373 
L 266.062664 -84.498497 
L 287.504441 -64.96879 
L 308.946217 -84.498497 
L 330.387993 -80.485544 
L 351.82977 -54.00005 
L 373.271546 -60.153246 
L 394.713322 -67.644092 
L 416.155099 -50.789688 
L 437.596875 -50.789688 
L 437.596875 -50.789688 
L 437.596875 -50.789688 
L 416.155099 -52.394869 
L 394.713322 -81.288135 
L 373.271546 -74.064818 
L 351.82977 -57.210413 
L 330.387993 -112.054112 
L 308.946217 -112.321642 
L 287.504441 -71.924576 
L 266.062664 -132.11888 
L 244.620888 -70.051865 
L 223.179112 -62.293488 
L 201.737336 -71.389516 
L 180.295559 -78.612832 
L 158.853783 -70.051865 
L 137.412007 -96.269828 
L 115.97023 -78.077772 
L 94.528454 -56.675353 
L 73.086678 -88.778981 
L 51.644901 -69.516804 
L 30.203125 -74.064818 
z
" style="stroke: #348abd; stroke-width: 0.5"/>
    </defs>
    <g clip-path="url(#p6548c25fc0)">
     <use xlink:href="#md266b9af2d" x="0" y="360" style="fill: #348abd; stroke: #348abd; stroke-width: 0.5"/>
    </g>
   </g>
   <g id="PolyCollection_3">
    <defs>
     <path id="mc387023eca" d="M 30.203125 -74.064818 
L 30.203125 -74.064818 
L 51.644901 -69.516804 
L 73.086678 -88.778981 
L 94.528454 -56.675353 
L 115.97023 -78.077772 
L 137.412007 -96.269828 
L 158.853783 -70.051865 
L 180.295559 -78.612832 
L 201.737336 -71.389516 
L 223.179112 -62.293488 
L 244.620888 -70.051865 
L 266.062664 -132.11888 
L 287.504441 -71.924576 
L 308.946217 -112.321642 
L 330.387993 -112.054112 
L 351.82977 -57.210413 
L 373.271546 -74.064818 
L 394.713322 -81.288135 
L 416.155099 -52.394869 
L 437.596875 -50.789688 
L 437.596875 -59.885716 
L 437.596875 -59.885716 
L 416.155099 -52.394869 
L 394.713322 -81.288135 
L 373.271546 -75.67 
L 351.82977 -60.420776 
L 330.387993 -125.698154 
L 308.946217 -128.105926 
L 287.504441 -89.581572 
L 266.062664 -132.11888 
L 244.620888 -70.051865 
L 223.179112 -62.293488 
L 201.737336 -75.402469 
L 180.295559 -79.415423 
L 158.853783 -74.332348 
L 137.412007 -96.269828 
L 115.97023 -79.147893 
L 94.528454 -56.675353 
L 73.086678 -89.849102 
L 51.644901 -69.516804 
L 30.203125 -74.064818 
z
" style="stroke: #988ed5; stroke-width: 0.5"/>
    </defs>
    <g clip-path="url(#p6548c25fc0)">
     <use xlink:href="#mc387023eca" x="0" y="360" style="fill: #988ed5; stroke: #988ed5; stroke-width: 0.5"/>
    </g>
   </g>
   <g id="PolyCollection_4">
    <defs>
     <path id="mf90b38a00b" d="M 30.203125 -91.989344 
L 30.203125 -74.064818 
L 51.644901 -69.516804 
L 73.086678 -89.849102 
L 94.528454 -56.675353 
L 115.97023 -79.147893 
L 137.412007 -96.269828 
L 158.853783 -74.332348 
L 180.295559 -79.415423 
L 201.737336 -75.402469 
L 223.179112 -62.293488 
L 244.620888 -70.051865 
L 266.062664 -132.11888 
L 287.504441 -89.581572 
L 308.946217 -128.105926 
L 330.387993 -125.698154 
L 351.82977 -60.420776 
L 373.271546 -75.67 
L 394.713322 -81.288135 
L 416.155099 -52.394869 
L 437.596875 -59.885716 
L 437.596875 -152.183647 
L 437.596875 -152.183647 
L 416.155099 -107.238568 
L 394.713322 -109.64634 
L 373.271546 -116.067065 
L 351.82977 -86.90627 
L 330.387993 -142.820089 
L 308.946217 -158.336843 
L 287.504441 -108.308688 
L 266.062664 -147.635633 
L 244.620888 -109.91387 
L 223.179112 -101.887963 
L 201.737336 -142.017498 
L 180.295559 -109.91387 
L 158.853783 -112.856703 
L 137.412007 -106.168447 
L 115.97023 -126.500745 
L 94.528454 -133.456531 
L 73.086678 -115.264475 
L 51.644901 -89.849102 
L 30.203125 -91.989344 
z
" style="stroke: #777777; stroke-width: 0.5"/>
    </defs>
    <g clip-path="url(#p6548c25fc0)">
     <use xlink:href="#mf90b38a00b" x="0" y="360" style="fill: #777777; stroke: #777777; stroke-width: 0.5"/>
    </g>
   </g>
   <g id="PolyCollection_5">
    <defs>
     <path id="m785218ba24" d="M 30.203125 -138.807136 
L 30.203125 -91.989344 
L 51.644901 -89.849102 
L 73.086678 -115.264475 
L 94.528454 -133.456531 
L 115.97023 -126.500745 
L 137.412007 -106.168447 
L 158.853783 -112.856703 
L 180.295559 -109.91387 
L 201.737336 -142.017498 
L 223.179112 -101.887963 
L 244.620888 -109.91387 
L 266.062664 -147.635633 
L 287.504441 -108.308688 
L 308.946217 -158.336843 
L 330.387993 -142.820089 
L 351.82977 -86.90627 
L 373.271546 -116.067065 
L 394.713322 -109.64634 
L 416.155099 -107.238568 
L 437.596875 -152.183647 
L 437.596875 -152.183647 
L 437.596875 -152.183647 
L 416.155099 -122.755321 
L 394.713322 -148.438224 
L 373.271546 -200.07156 
L 351.82977 -156.196601 
L 330.387993 -177.063959 
L 308.946217 -188.56776 
L 287.504441 -273.374845 
L 266.062664 -289.159129 
L 244.620888 -238.595914 
L 223.179112 -226.021993 
L 201.737336 -190.975532 
L 180.295559 -190.708002 
L 158.853783 -148.170694 
L 137.412007 -143.087619 
L 115.97023 -201.944271 
L 94.528454 -212.645481 
L 73.086678 -224.416811 
L 51.644901 -191.243062 
L 30.203125 -138.807136 
z
" style="stroke: #fbc15e; stroke-width: 0.5"/>
    </defs>
    <g clip-path="url(#p6548c25fc0)">
     <use xlink:href="#m785218ba24" x="0" y="360" style="fill: #fbc15e; stroke: #fbc15e; stroke-width: 0.5"/>
    </g>
   </g>
   <g id="PolyCollection_6">
    <defs>
     <path id="m4e3bcaaaac" d="M 30.203125 -138.807136 
L 30.203125 -138.807136 
L 51.644901 -191.243062 
L 73.086678 -224.416811 
L 94.528454 -212.645481 
L 115.97023 -201.944271 
L 137.412007 -143.087619 
L 158.853783 -148.170694 
L 180.295559 -190.708002 
L 201.737336 -190.975532 
L 223.179112 -226.021993 
L 244.620888 -238.595914 
L 266.062664 -289.159129 
L 287.504441 -273.374845 
L 308.946217 -188.56776 
L 330.387993 -177.063959 
L 351.82977 -156.196601 
L 373.271546 -200.07156 
L 394.713322 -148.438224 
L 416.155099 -122.755321 
L 437.596875 -152.183647 
L 437.596875 -152.183647 
L 437.596875 -152.183647 
L 416.155099 -122.755321 
L 394.713322 -148.438224 
L 373.271546 -200.07156 
L 351.82977 -156.196601 
L 330.387993 -177.063959 
L 308.946217 -188.56776 
L 287.504441 -273.374845 
L 266.062664 -289.159129 
L 244.620888 -243.143928 
L 223.179112 -226.021993 
L 201.737336 -190.975532 
L 180.295559 -192.313183 
L 158.853783 -162.082266 
L 137.412007 -177.063959 
L 115.97023 -216.123374 
L 94.528454 -223.07916 
L 73.086678 -237.793323 
L 51.644901 -191.243062 
L 30.203125 -138.807136 
z
" style="stroke: #8eba42; stroke-width: 0.5"/>
    </defs>
    <g clip-path="url(#p6548c25fc0)">
     <use xlink:href="#m4e3bcaaaac" x="0" y="360" style="fill: #8eba42; stroke: #8eba42; stroke-width: 0.5"/>
    </g>
   </g>
   <g id="PolyCollection_7">
    <defs>
     <path id="mc044997437" d="M 30.203125 -269.094361 
L 30.203125 -138.807136 
L 51.644901 -191.243062 
L 73.086678 -237.793323 
L 94.528454 -223.07916 
L 115.97023 -216.123374 
L 137.412007 -177.063959 
L 158.853783 -162.082266 
L 180.295559 -192.313183 
L 201.737336 -190.975532 
L 223.179112 -226.021993 
L 244.620888 -243.143928 
L 266.062664 -289.159129 
L 287.504441 -273.374845 
L 308.946217 -188.56776 
L 330.387993 -177.063959 
L 351.82977 -156.196601 
L 373.271546 -200.07156 
L 394.713322 -148.438224 
L 416.155099 -122.755321 
L 437.596875 -152.183647 
L 437.596875 -299.860338 
L 437.596875 -299.860338 
L 416.155099 -314.842032 
L 394.713322 -293.707143 
L 373.271546 -305.746003 
L 351.82977 -309.758957 
L 330.387993 -261.068454 
L 308.946217 -263.208696 
L 287.504441 -311.096608 
L 266.062664 -307.351185 
L 244.620888 -301.197989 
L 223.179112 -287.553947 
L 201.737336 -266.686589 
L 180.295559 -293.974673 
L 158.853783 -231.640128 
L 137.412007 -209.435118 
L 115.97023 -255.450319 
L 94.528454 -263.743756 
L 73.086678 -263.208696 
L 51.644901 -242.608868 
L 30.203125 -269.094361 
z
" style="stroke: #ffb5b8; stroke-width: 0.5"/>
    </defs>
    <g clip-path="url(#p6548c25fc0)">
     <use xlink:href="#mc044997437" x="0" y="360" style="fill: #ffb5b8; stroke: #ffb5b8; stroke-width: 0.5"/>
    </g>
   </g>
   <g id="PolyCollection_8">
    <defs>
     <path id="mc726730794" d="M 30.203125 -318.052394 
L 30.203125 -269.094361 
L 51.644901 -242.608868 
L 73.086678 -263.208696 
L 94.528454 -263.743756 
L 115.97023 -255.450319 
L 137.412007 -209.435118 
L 158.853783 -231.640128 
L 180.295559 -293.974673 
L 201.737336 -266.686589 
L 223.179112 -287.553947 
L 244.620888 -301.197989 
L 266.062664 -307.351185 
L 287.504441 -311.096608 
L 308.946217 -263.208696 
L 330.387993 -261.068454 
L 351.82977 -309.758957 
L 373.271546 -305.746003 
L 394.713322 -293.707143 
L 416.155099 -314.842032 
L 437.596875 -299.860338 
L 437.596875 -318.319925 
L 437.596875 -318.319925 
L 416.155099 -318.319925 
L 394.713322 -318.319925 
L 373.271546 -318.319925 
L 351.82977 -318.052394 
L 330.387993 -318.052394 
L 308.946217 -318.587455 
L 287.504441 -318.052394 
L 266.062664 -318.587455 
L 244.620888 -318.319925 
L 223.179112 -318.319925 
L 201.737336 -318.587455 
L 180.295559 -318.319925 
L 158.853783 -318.319925 
L 137.412007 -318.052394 
L 115.97023 -318.854985 
L 94.528454 -318.319925 
L 73.086678 -318.319925 
L 51.644901 -318.319925 
L 30.203125 -318.052394 
z
" style="stroke: #e24a33; stroke-width: 0.5"/>
    </defs>
    <g clip-path="url(#p6548c25fc0)">
     <use xlink:href="#mc726730794" x="0" y="360" style="fill: #e24a33; stroke: #e24a33; stroke-width: 0.5"/>
    </g>
   </g>
   <g id="line2d_35">
    <path d="M 30.203125 300.381815 
L 51.644901 298.509103 
L 73.086678 290.750726 
L 94.528454 306.80254 
L 115.97023 303.057117 
L 137.412007 288.342954 
L 158.853783 296.368861 
L 180.295559 297.974043 
L 201.737336 297.438982 
L 223.179112 307.872661 
L 244.620888 295.56627 
L 266.062664 275.501503 
L 287.504441 295.03121 
L 308.946217 275.501503 
L 330.387993 279.514456 
L 351.82977 305.99995 
L 373.271546 299.846754 
L 394.713322 292.355908 
L 416.155099 309.210312 
L 437.596875 309.210312 
" clip-path="url(#p6548c25fc0)" style="fill: none; stroke: #e24a33; stroke-width: 4"/>
   </g>
   <g id="line2d_36">
    <path d="M 30.203125 285.935182 
L 51.644901 290.483196 
L 73.086678 271.221019 
L 94.528454 303.324647 
L 115.97023 281.922228 
L 137.412007 263.730172 
L 158.853783 289.948135 
L 180.295559 281.387168 
L 201.737336 288.610484 
L 223.179112 297.706512 
L 244.620888 289.948135 
L 266.062664 227.88112 
L 287.504441 288.075424 
L 308.946217 247.678358 
L 330.387993 247.945888 
L 351.82977 302.789587 
L 373.271546 285.935182 
L 394.713322 278.711865 
L 416.155099 307.605131 
L 437.596875 309.210312 
" clip-path="url(#p6548c25fc0)" style="fill: none; stroke: #348abd; stroke-width: 4"/>
   </g>
   <g id="line2d_37">
    <path d="M 30.203125 285.935182 
L 51.644901 290.483196 
L 73.086678 270.150898 
L 94.528454 303.324647 
L 115.97023 280.852107 
L 137.412007 263.730172 
L 158.853783 285.667652 
L 180.295559 280.584577 
L 201.737336 284.597531 
L 223.179112 297.706512 
L 244.620888 289.948135 
L 266.062664 227.88112 
L 287.504441 270.418428 
L 308.946217 231.894074 
L 330.387993 234.301846 
L 351.82977 299.579224 
L 373.271546 284.33 
L 394.713322 278.711865 
L 416.155099 307.605131 
L 437.596875 300.114284 
" clip-path="url(#p6548c25fc0)" style="fill: none; stroke: #988ed5; stroke-width: 4"/>
   </g>
   <g id="line2d_38">
    <path d="M 30.203125 268.010656 
L 51.644901 270.150898 
L 73.086678 244.735525 
L 94.528454 226.543469 
L 115.97023 233.499255 
L 137.412007 253.831553 
L 158.853783 247.143297 
L 180.295559 250.08613 
L 201.737336 217.982502 
L 223.179112 258.112037 
L 244.620888 250.08613 
L 266.062664 212.364367 
L 287.504441 251.691312 
L 308.946217 201.663157 
L 330.387993 217.179911 
L 351.82977 273.09373 
L 373.271546 243.932935 
L 394.713322 250.35366 
L 416.155099 252.761432 
L 437.596875 207.816353 
" clip-path="url(#p6548c25fc0)" style="fill: none; stroke: #777777; stroke-width: 4"/>
   </g>
   <g id="line2d_39">
    <path d="M 30.203125 221.192864 
L 51.644901 168.756938 
L 73.086678 135.583189 
L 94.528454 147.354519 
L 115.97023 158.055729 
L 137.412007 216.912381 
L 158.853783 211.829306 
L 180.295559 169.291998 
L 201.737336 169.024468 
L 223.179112 133.978007 
L 244.620888 121.404086 
L 266.062664 70.840871 
L 287.504441 86.625155 
L 308.946217 171.43224 
L 330.387993 182.936041 
L 351.82977 203.803399 
L 373.271546 159.92844 
L 394.713322 211.561776 
L 416.155099 237.244679 
L 437.596875 207.816353 
" clip-path="url(#p6548c25fc0)" style="fill: none; stroke: #fbc15e; stroke-width: 4"/>
   </g>
   <g id="line2d_40">
    <path d="M 30.203125 221.192864 
L 51.644901 168.756938 
L 73.086678 122.206677 
L 94.528454 136.92084 
L 115.97023 143.876626 
L 137.412007 182.936041 
L 158.853783 197.917734 
L 180.295559 167.686817 
L 201.737336 169.024468 
L 223.179112 133.978007 
L 244.620888 116.856072 
L 266.062664 70.840871 
L 287.504441 86.625155 
L 308.946217 171.43224 
L 330.387993 182.936041 
L 351.82977 203.803399 
L 373.271546 159.92844 
L 394.713322 211.561776 
L 416.155099 237.244679 
L 437.596875 207.816353 
" clip-path="url(#p6548c25fc0)" style="fill: none; stroke: #8eba42; stroke-width: 4"/>
   </g>
   <g id="line2d_41">
    <path d="M 30.203125 90.905639 
L 51.644901 117.391132 
L 73.086678 96.791304 
L 94.528454 96.256244 
L 115.97023 104.549681 
L 137.412007 150.564882 
L 158.853783 128.359872 
L 180.295559 66.025327 
L 201.737336 93.313411 
L 223.179112 72.446053 
L 244.620888 58.802011 
L 266.062664 52.648815 
L 287.504441 48.903392 
L 308.946217 96.791304 
L 330.387993 98.931546 
L 351.82977 50.241043 
L 373.271546 54.253997 
L 394.713322 66.292857 
L 416.155099 45.157968 
L 437.596875 60.139662 
" clip-path="url(#p6548c25fc0)" style="fill: none; stroke: #ffb5b8; stroke-width: 4"/>
   </g>
   <g id="line2d_42">
    <path d="M 30.203125 41.947606 
L 51.644901 41.680075 
L 73.086678 41.680075 
L 94.528454 41.680075 
L 115.97023 41.145015 
L 137.412007 41.947606 
L 158.853783 41.680075 
L 180.295559 41.680075 
L 201.737336 41.412545 
L 223.179112 41.680075 
L 244.620888 41.680075 
L 266.062664 41.412545 
L 287.504441 41.947606 
L 308.946217 41.412545 
L 330.387993 41.947606 
L 351.82977 41.947606 
L 373.271546 41.680075 
L 394.713322 41.680075 
L 416.155099 41.680075 
L 437.596875 41.680075 
" clip-path="url(#p6548c25fc0)" style="fill: none; stroke: #e24a33; stroke-width: 4"/>
   </g>
   <g id="patch_3">
    <path d="M 30.203125 309.210312 
L 30.203125 27.74175 
" style="fill: none; stroke: #ffffff; stroke-linejoin: miter; stroke-linecap: square"/>
   </g>
   <g id="patch_4">
    <path d="M 437.596875 309.210312 
L 437.596875 27.74175 
" style="fill: none; stroke: #ffffff; stroke-linejoin: miter; stroke-linecap: square"/>
   </g>
   <g id="patch_5">
    <path d="M 30.203125 309.210312 
L 437.596875 309.210312 
" style="fill: none; stroke: #ffffff; stroke-linejoin: miter; stroke-linecap: square"/>
   </g>
   <g id="patch_6">
    <path d="M 30.203125 27.74175 
L 437.596875 27.74175 
" style="fill: none; stroke: #ffffff; stroke-linejoin: miter; stroke-linecap: square"/>
   </g>
   <g id="text_15">
    <!-- EDF Work -->
    <g transform="translate(199.1465 21.74175)scale(0.144 -0.144)">
     <defs>
      <path id="DejaVuSans-45" d="M 628 4666 
L 3578 4666 
L 3578 4134 
L 1259 4134 
L 1259 2753 
L 3481 2753 
L 3481 2222 
L 1259 2222 
L 1259 531 
L 3634 531 
L 3634 0 
L 628 0 
L 628 4666 
z
" transform="scale(0.015625)"/>
      <path id="DejaVuSans-46" d="M 628 4666 
L 3309 4666 
L 3309 4134 
L 1259 4134 
L 1259 2759 
L 3109 2759 
L 3109 2228 
L 1259 2228 
L 1259 0 
L 628 0 
L 628 4666 
z
" transform="scale(0.015625)"/>
      <path id="DejaVuSans-20" transform="scale(0.015625)"/>
      <path id="DejaVuSans-57" d="M 213 4666 
L 850 4666 
L 1831 722 
L 2809 4666 
L 3519 4666 
L 4500 722 
L 5478 4666 
L 6119 4666 
L 4947 0 
L 4153 0 
L 3169 4050 
L 2175 0 
L 1381 0 
L 213 4666 
z
" transform="scale(0.015625)"/>
      <path id="DejaVuSans-6f" d="M 1959 3097 
Q 1497 3097 1228 2736 
Q 959 2375 959 1747 
Q 959 1119 1226 758 
Q 1494 397 1959 397 
Q 2419 397 2687 759 
Q 2956 1122 2956 1747 
Q 2956 2369 2687 2733 
Q 2419 3097 1959 3097 
z
M 1959 3584 
Q 2709 3584 3137 3096 
Q 3566 2609 3566 1747 
Q 3566 888 3137 398 
Q 2709 -91 1959 -91 
Q 1206 -91 779 398 
Q 353 888 353 1747 
Q 353 2609 779 3096 
Q 1206 3584 1959 3584 
z
" transform="scale(0.015625)"/>
      <path id="DejaVuSans-6b" d="M 581 4863 
L 1159 4863 
L 1159 1991 
L 2875 3500 
L 3609 3500 
L 1753 1863 
L 3688 0 
L 2938 0 
L 1159 1709 
L 1159 0 
L 581 0 
L 581 4863 
z
" transform="scale(0.015625)"/>
     </defs>
     <use xlink:href="#DejaVuSans-45"/>
     <use xlink:href="#DejaVuSans-44" x="63.183594"/>
     <use xlink:href="#DejaVuSans-46" x="140.185547"/>
     <use xlink:href="#DejaVuSans-20" x="197.705078"/>
     <use xlink:href="#DejaVuSans-57" x="229.492188"/>
     <use xlink:href="#DejaVuSans-6f" x="322.494141"/>
     <use xlink:href="#DejaVuSans-72" x="383.675781"/>
     <use xlink:href="#DejaVuSans-6b" x="424.789062"/>
    </g>
   </g>
   <g id="legend_1">
    <g id="patch_7">
     <path d="M 444.596875 153.16675 
L 527.2 153.16675 
Q 529.2 153.16675 529.2 151.16675 
L 529.2 34.74175 
Q 529.2 32.74175 527.2 32.74175 
L 444.596875 32.74175 
Q 442.596875 32.74175 442.596875 34.74175 
L 442.596875 151.16675 
Q 442.596875 153.16675 444.596875 153.16675 
z
" style="fill: #e5e5e5; opacity: 0.8; stroke: #cccccc; stroke-width: 0.5; stroke-linejoin: miter"/>
    </g>
    <g id="patch_8">
     <path d="M 446.596875 44.340188 
L 466.596875 44.340188 
L 466.596875 37.340188 
L 446.596875 37.340188 
z
" style="fill: #e24a33; stroke: #e24a33; stroke-width: 0.5; stroke-linejoin: miter"/>
    </g>
    <g id="text_16">
     <!-- GE11 -->
     <g transform="translate(474.596875 44.340188)scale(0.1 -0.1)">
      <defs>
       <path id="DejaVuSans-47" d="M 3809 666 
L 3809 1919 
L 2778 1919 
L 2778 2438 
L 4434 2438 
L 4434 434 
Q 4069 175 3628 42 
Q 3188 -91 2688 -91 
Q 1594 -91 976 548 
Q 359 1188 359 2328 
Q 359 3472 976 4111 
Q 1594 4750 2688 4750 
Q 3144 4750 3555 4637 
Q 3966 4525 4313 4306 
L 4313 3634 
Q 3963 3931 3569 4081 
Q 3175 4231 2741 4231 
Q 1884 4231 1454 3753 
Q 1025 3275 1025 2328 
Q 1025 1384 1454 906 
Q 1884 428 2741 428 
Q 3075 428 3337 486 
Q 3600 544 3809 666 
z
" transform="scale(0.015625)"/>
      </defs>
      <use xlink:href="#DejaVuSans-47"/>
      <use xlink:href="#DejaVuSans-45" x="77.490234"/>
      <use xlink:href="#DejaVuSans-31" x="140.673828"/>
      <use xlink:href="#DejaVuSans-31" x="204.296875"/>
     </g>
    </g>
    <g id="patch_9">
     <path d="M 446.596875 59.018313 
L 466.596875 59.018313 
L 466.596875 52.018313 
L 446.596875 52.018313 
z
" style="fill: #348abd; stroke: #348abd; stroke-width: 0.5; stroke-linejoin: miter"/>
    </g>
    <g id="text_17">
     <!-- GE21 -->
     <g transform="translate(474.596875 59.018313)scale(0.1 -0.1)">
      <use xlink:href="#DejaVuSans-47"/>
      <use xlink:href="#DejaVuSans-45" x="77.490234"/>
      <use xlink:href="#DejaVuSans-32" x="140.673828"/>
      <use xlink:href="#DejaVuSans-31" x="204.296875"/>
     </g>
    </g>
    <g id="patch_10">
     <path d="M 446.596875 73.696438 
L 466.596875 73.696438 
L 466.596875 66.696438 
L 446.596875 66.696438 
z
" style="fill: #988ed5; stroke: #988ed5; stroke-width: 0.5; stroke-linejoin: miter"/>
    </g>
    <g id="text_18">
     <!-- CSC -->
     <g transform="translate(474.596875 73.696438)scale(0.1 -0.1)">
      <defs>
       <path id="DejaVuSans-43" d="M 4122 4306 
L 4122 3641 
Q 3803 3938 3442 4084 
Q 3081 4231 2675 4231 
Q 1875 4231 1450 3742 
Q 1025 3253 1025 2328 
Q 1025 1406 1450 917 
Q 1875 428 2675 428 
Q 3081 428 3442 575 
Q 3803 722 4122 1019 
L 4122 359 
Q 3791 134 3420 21 
Q 3050 -91 2638 -91 
Q 1578 -91 968 557 
Q 359 1206 359 2328 
Q 359 3453 968 4101 
Q 1578 4750 2638 4750 
Q 3056 4750 3426 4639 
Q 3797 4528 4122 4306 
z
" transform="scale(0.015625)"/>
       <path id="DejaVuSans-53" d="M 3425 4513 
L 3425 3897 
Q 3066 4069 2747 4153 
Q 2428 4238 2131 4238 
Q 1616 4238 1336 4038 
Q 1056 3838 1056 3469 
Q 1056 3159 1242 3001 
Q 1428 2844 1947 2747 
L 2328 2669 
Q 3034 2534 3370 2195 
Q 3706 1856 3706 1288 
Q 3706 609 3251 259 
Q 2797 -91 1919 -91 
Q 1588 -91 1214 -16 
Q 841 59 441 206 
L 441 856 
Q 825 641 1194 531 
Q 1563 422 1919 422 
Q 2459 422 2753 634 
Q 3047 847 3047 1241 
Q 3047 1584 2836 1778 
Q 2625 1972 2144 2069 
L 1759 2144 
Q 1053 2284 737 2584 
Q 422 2884 422 3419 
Q 422 4038 858 4394 
Q 1294 4750 2059 4750 
Q 2388 4750 2728 4690 
Q 3069 4631 3425 4513 
z
" transform="scale(0.015625)"/>
      </defs>
      <use xlink:href="#DejaVuSans-43"/>
      <use xlink:href="#DejaVuSans-53" x="69.824219"/>
      <use xlink:href="#DejaVuSans-43" x="133.300781"/>
     </g>
    </g>
    <g id="patch_11">
     <path d="M 446.596875 88.374563 
L 466.596875 88.374563 
L 466.596875 81.374563 
L 446.596875 81.374563 
z
" style="fill: #777777; stroke: #777777; stroke-width: 0.5; stroke-linejoin: miter"/>
    </g>
    <g id="text_19">
     <!-- ME0 -->
     <g transform="translate(474.596875 88.374563)scale(0.1 -0.1)">
      <defs>
       <path id="DejaVuSans-4d" d="M 628 4666 
L 1569 4666 
L 2759 1491 
L 3956 4666 
L 4897 4666 
L 4897 0 
L 4281 0 
L 4281 4097 
L 3078 897 
L 2444 897 
L 1241 4097 
L 1241 0 
L 628 0 
L 628 4666 
z
" transform="scale(0.015625)"/>
      </defs>
      <use xlink:href="#DejaVuSans-4d"/>
      <use xlink:href="#DejaVuSans-45" x="86.279297"/>
      <use xlink:href="#DejaVuSans-30" x="149.462891"/>
     </g>
    </g>
    <g id="patch_12">
     <path d="M 446.596875 103.052688 
L 466.596875 103.052688 
L 466.596875 96.052688 
L 446.596875 96.052688 
z
" style="fill: #fbc15e; stroke: #fbc15e; stroke-width: 0.5; stroke-linejoin: miter"/>
    </g>
    <g id="text_20">
     <!-- L0MDT -->
     <g transform="translate(474.596875 103.052688)scale(0.1 -0.1)">
      <defs>
       <path id="DejaVuSans-4c" d="M 628 4666 
L 1259 4666 
L 1259 531 
L 3531 531 
L 3531 0 
L 628 0 
L 628 4666 
z
" transform="scale(0.015625)"/>
       <path id="DejaVuSans-54" d="M -19 4666 
L 3928 4666 
L 3928 4134 
L 2272 4134 
L 2272 0 
L 1638 0 
L 1638 4134 
L -19 4134 
L -19 4666 
z
" transform="scale(0.015625)"/>
      </defs>
      <use xlink:href="#DejaVuSans-4c"/>
      <use xlink:href="#DejaVuSans-30" x="55.712891"/>
      <use xlink:href="#DejaVuSans-4d" x="119.335938"/>
      <use xlink:href="#DejaVuSans-44" x="205.615234"/>
      <use xlink:href="#DejaVuSans-54" x="282.617188"/>
     </g>
    </g>
    <g id="patch_13">
     <path d="M 446.596875 117.730813 
L 466.596875 117.730813 
L 466.596875 110.730813 
L 446.596875 110.730813 
z
" style="fill: #8eba42; stroke: #8eba42; stroke-width: 0.5; stroke-linejoin: miter"/>
    </g>
    <g id="text_21">
     <!-- EMPHATIC -->
     <g transform="translate(474.596875 117.730813)scale(0.1 -0.1)">
      <defs>
       <path id="DejaVuSans-50" d="M 1259 4147 
L 1259 2394 
L 2053 2394 
Q 2494 2394 2734 2622 
Q 2975 2850 2975 3272 
Q 2975 3691 2734 3919 
Q 2494 4147 2053 4147 
L 1259 4147 
z
M 628 4666 
L 2053 4666 
Q 2838 4666 3239 4311 
Q 3641 3956 3641 3272 
Q 3641 2581 3239 2228 
Q 2838 1875 2053 1875 
L 1259 1875 
L 1259 0 
L 628 0 
L 628 4666 
z
" transform="scale(0.015625)"/>
       <path id="DejaVuSans-48" d="M 628 4666 
L 1259 4666 
L 1259 2753 
L 3553 2753 
L 3553 4666 
L 4184 4666 
L 4184 0 
L 3553 0 
L 3553 2222 
L 1259 2222 
L 1259 0 
L 628 0 
L 628 4666 
z
" transform="scale(0.015625)"/>
       <path id="DejaVuSans-49" d="M 628 4666 
L 1259 4666 
L 1259 0 
L 628 0 
L 628 4666 
z
" transform="scale(0.015625)"/>
      </defs>
      <use xlink:href="#DejaVuSans-45"/>
      <use xlink:href="#DejaVuSans-4d" x="63.183594"/>
      <use xlink:href="#DejaVuSans-50" x="149.462891"/>
      <use xlink:href="#DejaVuSans-48" x="209.765625"/>
      <use xlink:href="#DejaVuSans-41" x="284.960938"/>
      <use xlink:href="#DejaVuSans-54" x="345.619141"/>
      <use xlink:href="#DejaVuSans-49" x="406.703125"/>
      <use xlink:href="#DejaVuSans-43" x="436.195312"/>
     </g>
    </g>
    <g id="patch_14">
     <path d="M 446.596875 132.408938 
L 466.596875 132.408938 
L 466.596875 125.408938 
L 446.596875 125.408938 
z
" style="fill: #ffb5b8; stroke: #ffb5b8; stroke-width: 0.5; stroke-linejoin: miter"/>
    </g>
    <g id="text_22">
     <!-- ETL -->
     <g transform="translate(474.596875 132.408938)scale(0.1 -0.1)">
      <use xlink:href="#DejaVuSans-45"/>
      <use xlink:href="#DejaVuSans-54" x="63.183594"/>
      <use xlink:href="#DejaVuSans-4c" x="124.267578"/>
     </g>
    </g>
    <g id="patch_15">
     <path d="M 446.596875 147.087063 
L 466.596875 147.087063 
L 466.596875 140.087063 
L 446.596875 140.087063 
z
" style="fill: #e24a33; stroke: #e24a33; stroke-width: 0.5; stroke-linejoin: miter"/>
    </g>
    <g id="text_23">
     <!-- APOLLO -->
     <g transform="translate(474.596875 147.087063)scale(0.1 -0.1)">
      <use xlink:href="#DejaVuSans-41"/>
      <use xlink:href="#DejaVuSans-50" x="68.408203"/>
      <use xlink:href="#DejaVuSans-4f" x="128.710938"/>
      <use xlink:href="#DejaVuSans-4c" x="207.421875"/>
      <use xlink:href="#DejaVuSans-4c" x="263.134766"/>
      <use xlink:href="#DejaVuSans-4f" x="315.222656"/>
     </g>
    </g>
   </g>
  </g>
 </g>
 <defs>
  <clipPath id="p6548c25fc0">
   <rect x="30.203125" y="27.74175" width="407.39375" height="281.468562"/>
  </clipPath>
 </defs>
</svg>
