<svg class="marks" width="986" height="693" viewBox="0 0 986 693" version="1.1" xmlns="http://www.w3.org/2000/svg" xmlns:xlink="http://www.w3.org/1999/xlink"><rect width="986" height="693" style="fill: white;"></rect><g transform="translate(51,10)"><g class="mark-group role-frame root"><g transform="translate(0,0)"><path class="background" d="M0.5,0.5h800v600h-800Z" style="fill: none; stroke: #ddd;"></path><g><g class="mark-group role-axis"><g transform="translate(0.5,0.5)"><path class="background" d="M0,0h0v0h0Z" style="pointer-events: none; fill: none;"></path><g><g class="mark-rule role-axis-grid" style="pointer-events: none;"><line transform="translate(0,600)" x2="800" y2="0" style="fill: none; stroke: #ddd; stroke-width: 1; opacity: 1;"></line><line transform="translate(0,567)" x2="800" y2="0" style="fill: none; stroke: #ddd; stroke-width: 1; opacity: 1;"></line><line transform="translate(0,533)" x2="800" y2="0" style="fill: none; stroke: #ddd; stroke-width: 1; opacity: 1;"></line><line transform="translate(0,500)" x2="800" y2="0" style="fill: none; stroke: #ddd; stroke-width: 1; opacity: 1;"></line><line transform="translate(0,467)" x2="800" y2="0" style="fill: none; stroke: #ddd; stroke-width: 1; opacity: 1;"></line><line transform="translate(0,433)" x2="800" y2="0" style="fill: none; stroke: #ddd; stroke-width: 1; opacity: 1;"></line><line transform="translate(0,400)" x2="800" y2="0" style="fill: none; stroke: #ddd; stroke-width: 1; opacity: 1;"></line><line transform="translate(0,367)" x2="800" y2="0" style="fill: none; stroke: #ddd; stroke-width: 1; opacity: 1;"></line><line transform="translate(0,333)" x2="800" y2="0" style="fill: none; stroke: #ddd; stroke-width: 1; opacity: 1;"></line><line transform="translate(0,300)" x2="800" y2="0" style="fill: none; stroke: #ddd; stroke-width: 1; opacity: 1;"></line><line transform="translate(0,267)" x2="800" y2="0" style="fill: none; stroke: #ddd; stroke-width: 1; opacity: 1;"></line><line transform="translate(0,233)" x2="800" y2="0" style="fill: none; stroke: #ddd; stroke-width: 1; opacity: 1;"></line><line transform="translate(0,200)" x2="800" y2="0" style="fill: none; stroke: #ddd; stroke-width: 1; opacity: 1;"></line><line transform="translate(0,167)" x2="800" y2="0" style="fill: none; stroke: #ddd; stroke-width: 1; opacity: 1;"></line><line transform="translate(0,133)" x2="800" y2="0" style="fill: none; stroke: #ddd; stroke-width: 1; opacity: 1;"></line><line transform="translate(0,100)" x2="800" y2="0" style="fill: none; stroke: #ddd; stroke-width: 1; opacity: 1;"></line><line transform="translate(0,67)" x2="800" y2="0" style="fill: none; stroke: #ddd; stroke-width: 1; opacity: 1;"></line><line transform="translate(0,33)" x2="800" y2="0" style="fill: none; stroke: #ddd; stroke-width: 1; opacity: 1;"></line><line transform="translate(0,0)" x2="800" y2="0" style="fill: none; stroke: #ddd; stroke-width: 1; opacity: 1;"></line></g></g><path class="foreground" d="" style="pointer-events: none; display: none; fill: none;"></path></g></g><g class="mark-group role-axis"><g transform="translate(0.5,600.5)"><path class="background" d="M0,0h0v0h0Z" style="pointer-events: none; fill: none;"></path><g><g class="mark-rule role-axis-tick" style="pointer-events: none;"><line transform="translate(16,0)" x2="0" y2="5" style="fill: none; stroke: #888; stroke-width: 1; opacity: 1;"></line><line transform="translate(48,0)" x2="0" y2="5" style="fill: none; stroke: #888; stroke-width: 1; opacity: 1;"></line><line transform="translate(80,0)" x2="0" y2="5" style="fill: none; stroke: #888; stroke-width: 1; opacity: 1;"></line><line transform="translate(112,0)" x2="0" y2="5" style="fill: none; stroke: #888; stroke-width: 1; opacity: 1;"></line><line transform="translate(144,0)" x2="0" y2="5" style="fill: none; stroke: #888; stroke-width: 1; opacity: 1;"></line><line transform="translate(176,0)" x2="0" y2="5" style="fill: none; stroke: #888; stroke-width: 1; opacity: 1;"></line><line transform="translate(208,0)" x2="0" y2="5" style="fill: none; stroke: #888; stroke-width: 1; opacity: 1;"></line><line transform="translate(240,0)" x2="0" y2="5" style="fill: none; stroke: #888; stroke-width: 1; opacity: 1;"></line><line transform="translate(272,0)" x2="0" y2="5" style="fill: none; stroke: #888; stroke-width: 1; opacity: 1;"></line><line transform="translate(304,0)" x2="0" y2="5" style="fill: none; stroke: #888; stroke-width: 1; opacity: 1;"></line><line transform="translate(336,0)" x2="0" y2="5" style="fill: none; stroke: #888; stroke-width: 1; opacity: 1;"></line><line transform="translate(368,0)" x2="0" y2="5" style="fill: none; stroke: #888; stroke-width: 1; opacity: 1;"></line><line transform="translate(400,0)" x2="0" y2="5" style="fill: none; stroke: #888; stroke-width: 1; opacity: 1;"></line><line transform="translate(432,0)" x2="0" y2="5" style="fill: none; stroke: #888; stroke-width: 1; opacity: 1;"></line><line transform="translate(464,0)" x2="0" y2="5" style="fill: none; stroke: #888; stroke-width: 1; opacity: 1;"></line><line transform="translate(496,0)" x2="0" y2="5" style="fill: none; stroke: #888; stroke-width: 1; opacity: 1;"></line><line transform="translate(528,0)" x2="0" y2="5" style="fill: none; stroke: #888; stroke-width: 1; opacity: 1;"></line><line transform="translate(560,0)" x2="0" y2="5" style="fill: none; stroke: #888; stroke-width: 1; opacity: 1;"></line><line transform="translate(592,0)" x2="0" y2="5" style="fill: none; stroke: #888; stroke-width: 1; opacity: 1;"></line><line transform="translate(624,0)" x2="0" y2="5" style="fill: none; stroke: #888; stroke-width: 1; opacity: 1;"></line><line transform="translate(656,0)" x2="0" y2="5" style="fill: none; stroke: #888; stroke-width: 1; opacity: 1;"></line><line transform="translate(688,0)" x2="0" y2="5" style="fill: none; stroke: #888; stroke-width: 1; opacity: 1;"></line><line transform="translate(720,0)" x2="0" y2="5" style="fill: none; stroke: #888; stroke-width: 1; opacity: 1;"></line><line transform="translate(752,0)" x2="0" y2="5" style="fill: none; stroke: #888; stroke-width: 1; opacity: 1;"></line><line transform="translate(784,0)" x2="0" y2="5" style="fill: none; stroke: #888; stroke-width: 1; opacity: 1;"></line></g><g class="mark-text role-axis-label" style="pointer-events: none;"><text text-anchor="end" transform="translate(15.500000000000021,7) rotate(270) translate(0,3)" style="font-family: sans-serif; font-size: 10px; fill: #000; opacity: 1;">2021-01</text><text text-anchor="end" transform="translate(47.50000000000002,7) rotate(270) translate(0,3)" style="font-family: sans-serif; font-size: 10px; fill: #000; opacity: 1;">2021-02</text><text text-anchor="end" transform="translate(79.50000000000003,7) rotate(270) translate(0,3)" style="font-family: sans-serif; font-size: 10px; fill: #000; opacity: 1;">2021-03</text><text text-anchor="end" transform="translate(111.50000000000003,7) rotate(270) translate(0,3)" style="font-family: sans-serif; font-size: 10px; fill: #000; opacity: 1;">2021-04</text><text text-anchor="end" transform="translate(143.50000000000003,7) rotate(270) translate(0,3)" style="font-family: sans-serif; font-size: 10px; fill: #000; opacity: 1;">2021-05</text><text text-anchor="end" transform="translate(175.50000000000003,7) rotate(270) translate(0,3)" style="font-family: sans-serif; font-size: 10px; fill: #000; opacity: 1;">2021-06</text><text text-anchor="end" transform="translate(207.50000000000003,7) rotate(270) translate(0,3)" style="font-family: sans-serif; font-size: 10px; fill: #000; opacity: 1;">2021-07</text><text text-anchor="end" transform="translate(239.50000000000003,7) rotate(270) translate(0,3)" style="font-family: sans-serif; font-size: 10px; fill: #000; opacity: 1;">2021-08</text><text text-anchor="end" transform="translate(271.5,7) rotate(270) translate(0,3)" style="font-family: sans-serif; font-size: 10px; fill: #000; opacity: 1;">2021-09</text><text text-anchor="end" transform="translate(303.5,7) rotate(270) translate(0,3)" style="font-family: sans-serif; font-size: 10px; fill: #000; opacity: 1;">2021-10</text><text text-anchor="end" transform="translate(335.5,7) rotate(270) translate(0,3)" style="font-family: sans-serif; font-size: 10px; fill: #000; opacity: 1;">2021-11</text><text text-anchor="end" transform="translate(367.5,7) rotate(270) translate(0,3)" style="font-family: sans-serif; font-size: 10px; fill: #000; opacity: 1;">2021-12</text><text text-anchor="end" transform="translate(399.5,7) rotate(270) translate(0,3)" style="font-family: sans-serif; font-size: 10px; fill: #000; opacity: 1;">2022-01</text><text text-anchor="end" transform="translate(431.5,7) rotate(270) translate(0,3)" style="font-family: sans-serif; font-size: 10px; fill: #000; opacity: 1;">2022-02</text><text text-anchor="end" transform="translate(463.5,7) rotate(270) translate(0,3)" style="font-family: sans-serif; font-size: 10px; fill: #000; opacity: 1;">2022-03</text><text text-anchor="end" transform="translate(495.5,7) rotate(270) translate(0,3)" style="font-family: sans-serif; font-size: 10px; fill: #000; opacity: 1;">2022-04</text><text text-anchor="end" transform="translate(527.5,7) rotate(270) translate(0,3)" style="font-family: sans-serif; font-size: 10px; fill: #000; opacity: 1;">2022-05</text><text text-anchor="end" transform="translate(559.5,7) rotate(270) translate(0,3)" style="font-family: sans-serif; font-size: 10px; fill: #000; opacity: 1;">2022-06</text><text text-anchor="end" transform="translate(591.5,7) rotate(270) translate(0,3)" style="font-family: sans-serif; font-size: 10px; fill: #000; opacity: 1;">2022-07</text><text text-anchor="end" transform="translate(623.5,7) rotate(270) translate(0,3)" style="font-family: sans-serif; font-size: 10px; fill: #000; opacity: 1;">2022-08</text><text text-anchor="end" transform="translate(655.5,7) rotate(270) translate(0,3)" style="font-family: sans-serif; font-size: 10px; fill: #000; opacity: 1;">2022-09</text><text text-anchor="end" transform="translate(687.5,7) rotate(270) translate(0,3)" style="font-family: sans-serif; font-size: 10px; fill: #000; opacity: 1;">2022-10</text><text text-anchor="end" transform="translate(719.5,7) rotate(270) translate(0,3)" style="font-family: sans-serif; font-size: 10px; fill: #000; opacity: 1;">2022-11</text><text text-anchor="end" transform="translate(751.5,7) rotate(270) translate(0,3)" style="font-family: sans-serif; font-size: 10px; fill: #000; opacity: 1;">2022-12</text><text text-anchor="end" transform="translate(783.5,7) rotate(270) translate(0,3)" style="font-family: sans-serif; font-size: 10px; fill: #000; opacity: 1;">2023-01</text></g><g class="mark-rule role-axis-domain" style="pointer-events: none;"><line transform="translate(0,0)" x2="800" y2="0" style="fill: none; stroke: #888; stroke-width: 1; opacity: 1;"></line></g><g class="mark-text role-axis-title" style="pointer-events: none;"><text text-anchor="middle" transform="translate(400,76)" style="font-family: sans-serif; font-size: 11px; font-weight: bold; fill: #000; opacity: 1;">Date</text></g></g><path class="foreground" d="" style="pointer-events: none; display: none; fill: none;"></path></g></g><g class="mark-group role-axis"><g transform="translate(0.5,0.5)"><path class="background" d="M0,0h0v0h0Z" style="pointer-events: none; fill: none;"></path><g><g class="mark-rule role-axis-tick" style="pointer-events: none;"><line transform="translate(0,600)" x2="-5" y2="0" style="fill: none; stroke: #888; stroke-width: 1; opacity: 1;"></line><line transform="translate(0,567)" x2="-5" y2="0" style="fill: none; stroke: #888; stroke-width: 1; opacity: 1;"></line><line transform="translate(0,533)" x2="-5" y2="0" style="fill: none; stroke: #888; stroke-width: 1; opacity: 1;"></line><line transform="translate(0,500)" x2="-5" y2="0" style="fill: none; stroke: #888; stroke-width: 1; opacity: 1;"></line><line transform="translate(0,467)" x2="-5" y2="0" style="fill: none; stroke: #888; stroke-width: 1; opacity: 1;"></line><line transform="translate(0,433)" x2="-5" y2="0" style="fill: none; stroke: #888; stroke-width: 1; opacity: 1;"></line><line transform="translate(0,400)" x2="-5" y2="0" style="fill: none; stroke: #888; stroke-width: 1; opacity: 1;"></line><line transform="translate(0,367)" x2="-5" y2="0" style="fill: none; stroke: #888; stroke-width: 1; opacity: 1;"></line><line transform="translate(0,333)" x2="-5" y2="0" style="fill: none; stroke: #888; stroke-width: 1; opacity: 1;"></line><line transform="translate(0,300)" x2="-5" y2="0" style="fill: none; stroke: #888; stroke-width: 1; opacity: 1;"></line><line transform="translate(0,267)" x2="-5" y2="0" style="fill: none; stroke: #888; stroke-width: 1; opacity: 1;"></line><line transform="translate(0,233)" x2="-5" y2="0" style="fill: none; stroke: #888; stroke-width: 1; opacity: 1;"></line><line transform="translate(0,200)" x2="-5" y2="0" style="fill: none; stroke: #888; stroke-width: 1; opacity: 1;"></line><line transform="translate(0,167)" x2="-5" y2="0" style="fill: none; stroke: #888; stroke-width: 1; opacity: 1;"></line><line transform="translate(0,133)" x2="-5" y2="0" style="fill: none; stroke: #888; stroke-width: 1; opacity: 1;"></line><line transform="translate(0,100)" x2="-5" y2="0" style="fill: none; stroke: #888; stroke-width: 1; opacity: 1;"></line><line transform="translate(0,67)" x2="-5" y2="0" style="fill: none; stroke: #888; stroke-width: 1; opacity: 1;"></line><line transform="translate(0,33)" x2="-5" y2="0" style="fill: none; stroke: #888; stroke-width: 1; opacity: 1;"></line><line transform="translate(0,0)" x2="-5" y2="0" style="fill: none; stroke: #888; stroke-width: 1; opacity: 1;"></line></g><g class="mark-text role-axis-label" style="pointer-events: none;"><text text-anchor="end" transform="translate(-7,603)" style="font-family: sans-serif; font-size: 10px; fill: #000; opacity: 1;">0</text><text text-anchor="end" transform="translate(-7,569.6666666666666)" style="font-family: sans-serif; font-size: 10px; fill: #000; opacity: 1;">10</text><text text-anchor="end" transform="translate(-7,536.3333333333333)" style="font-family: sans-serif; font-size: 10px; fill: #000; opacity: 1;">20</text><text text-anchor="end" transform="translate(-7,503)" style="font-family: sans-serif; font-size: 10px; fill: #000; opacity: 1;">30</text><text text-anchor="end" transform="translate(-7,469.6666666666667)" style="font-family: sans-serif; font-size: 10px; fill: #000; opacity: 1;">40</text><text text-anchor="end" transform="translate(-7,436.3333333333333)" style="font-family: sans-serif; font-size: 10px; fill: #000; opacity: 1;">50</text><text text-anchor="end" transform="translate(-7,403.00000000000006)" style="font-family: sans-serif; font-size: 10px; fill: #000; opacity: 1;">60</text><text text-anchor="end" transform="translate(-7,369.6666666666667)" style="font-family: sans-serif; font-size: 10px; fill: #000; opacity: 1;">70</text><text text-anchor="end" transform="translate(-7,336.33333333333337)" style="font-family: sans-serif; font-size: 10px; fill: #000; opacity: 1;">80</text><text text-anchor="end" transform="translate(-7,303)" style="font-family: sans-serif; font-size: 10px; fill: #000; opacity: 1;">90</text><text text-anchor="end" transform="translate(-7,269.66666666666663)" style="font-family: sans-serif; font-size: 10px; fill: #000; opacity: 1;">100</text><text text-anchor="end" transform="translate(-7,236.33333333333331)" style="font-family: sans-serif; font-size: 10px; fill: #000; opacity: 1;">110</text><text text-anchor="end" transform="translate(-7,203.00000000000003)" style="font-family: sans-serif; font-size: 10px; fill: #000; opacity: 1;">120</text><text text-anchor="end" transform="translate(-7,169.66666666666669)" style="font-family: sans-serif; font-size: 10px; fill: #000; opacity: 1;">130</text><text text-anchor="end" transform="translate(-7,136.33333333333331)" style="font-family: sans-serif; font-size: 10px; fill: #000; opacity: 1;">140</text><text text-anchor="end" transform="translate(-7,102.99999999999997)" style="font-family: sans-serif; font-size: 10px; fill: #000; opacity: 1;">150</text><text text-anchor="end" transform="translate(-7,69.6666666666667)" style="font-family: sans-serif; font-size: 10px; fill: #000; opacity: 1;">160</text><text text-anchor="end" transform="translate(-7,36.33333333333335)" style="font-family: sans-serif; font-size: 10px; fill: #000; opacity: 1;">170</text><text text-anchor="end" transform="translate(-7,3)" style="font-family: sans-serif; font-size: 10px; fill: #000; opacity: 1;">180</text></g><g class="mark-rule role-axis-domain" style="pointer-events: none;"><line transform="translate(0,600)" x2="0" y2="-600" style="fill: none; stroke: #888; stroke-width: 1; opacity: 1;"></line></g><g class="mark-text role-axis-title" style="pointer-events: none;"><text text-anchor="middle" transform="translate(-35,300) rotate(-90) translate(0,-2)" style="font-family: sans-serif; font-size: 11px; font-weight: bold; fill: #000; opacity: 1;">Sum of Hours</text></g></g><path class="foreground" d="" style="pointer-events: none; display: none; fill: none;"></path></g></g><g class="mark-rect role-mark marks"><path d="M1.6000000000000227,243.33333333333334h28.8v10.000000000000028h-28.8Z" style="fill: #f58518;"></path><path d="M1.6000000000000227,171.66666666666666h28.8v71.66666666666669h-28.8Z" style="fill: #4c78a8;"></path><path d="M1.6000000000000227,253.33333333333337h28.8v198.33333333333331h-28.8Z" style="fill: #e45756;"></path><path d="M1.6000000000000227,503.33333333333337h28.8v70h-28.8Z" style="fill: #54a24b;"></path><path d="M1.6000000000000227,451.6666666666667h28.8v51.666666666666686h-28.8Z" style="fill: #72b7b2;"></path><path d="M1.6000000000000227,573.3333333333334h28.8v26.66666666666663h-28.8Z" style="fill: #b279a2;"></path><path d="M33.60000000000002,338.3333333333333h28.8v63.33333333333337h-28.8Z" style="fill: #e45756;"></path><path d="M33.60000000000002,448.3333333333333h28.8v125.00000000000006h-28.8Z" style="fill: #54a24b;"></path><path d="M33.60000000000002,245h28.8v93.33333333333331h-28.8Z" style="fill: #4c78a8;"></path><path d="M33.60000000000002,401.6666666666667h28.8v46.66666666666663h-28.8Z" style="fill: #72b7b2;"></path><path d="M33.60000000000002,573.3333333333334h28.8v26.66666666666663h-28.8Z" style="fill: #b279a2;"></path><path d="M65.60000000000002,253.33333333333337h28.8v41.66666666666663h-28.8Z" style="fill: #e45756;"></path><path d="M65.60000000000002,398.3333333333333h28.8v178.33333333333331h-28.8Z" style="fill: #54a24b;"></path><path d="M65.60000000000002,163.33333333333334h28.8v90.00000000000003h-28.8Z" style="fill: #4c78a8;"></path><path d="M65.60000000000002,295h28.8v103.33333333333331h-28.8Z" style="fill: #72b7b2;"></path><path d="M65.60000000000002,576.6666666666666h28.8v23.33333333333337h-28.8Z" style="fill: #eeca3b;"></path><path d="M97.60000000000002,248.33333333333331h28.8v13.333333333333371h-28.8Z" style="fill: #f58518;"></path><path d="M97.60000000000002,438.33333333333337h28.8v116.66666666666663h-28.8Z" style="fill: #54a24b;"></path><path d="M97.60000000000002,320h28.8v118.33333333333337h-28.8Z" style="fill: #72b7b2;"></path><path d="M97.60000000000002,555h28.8v18.33333333333337h-28.8Z" style="fill: #eeca3b;"></path><path d="M97.60000000000002,261.6666666666667h28.8v58.333333333333314h-28.8Z" style="fill: #e45756;"></path><path d="M97.60000000000002,170h28.8v78.33333333333331h-28.8Z" style="fill: #4c78a8;"></path><path d="M97.60000000000002,573.3333333333334h28.8v26.66666666666663h-28.8Z" style="fill: #b279a2;"></path><path d="M129.60000000000002,450h28.8v125h-28.8Z" style="fill: #54a24b;"></path><path d="M129.60000000000002,260h28.8v63.333333333333314h-28.8Z" style="fill: #e45756;"></path><path d="M129.60000000000002,323.3333333333333h28.8v126.66666666666669h-28.8Z" style="fill: #72b7b2;"></path><path d="M129.60000000000002,151.66666666666666h28.8v108.33333333333334h-28.8Z" style="fill: #4c78a8;"></path><path d="M129.60000000000002,575h28.8v25h-28.8Z" style="fill: #eeca3b;"></path><path d="M161.60000000000002,411.6666666666667h28.8v81.66666666666663h-28.8Z" style="fill: #54a24b;"></path><path d="M161.60000000000002,493.3333333333333h28.8v80.00000000000006h-28.8Z" style="fill: #eeca3b;"></path><path d="M161.60000000000002,241.66666666666669h28.8v61.66666666666663h-28.8Z" style="fill: #e45756;"></path><path d="M161.60000000000002,0h28.8v241.66666666666669h-28.8Z" style="fill: #4c78a8;"></path><path d="M161.60000000000002,303.3333333333333h28.8v108.33333333333337h-28.8Z" style="fill: #72b7b2;"></path><path d="M161.60000000000002,573.3333333333334h28.8v26.66666666666663h-28.8Z" style="fill: #b279a2;"></path><path d="M193.60000000000002,488.3333333333333h28.8v53.333333333333314h-28.8Z" style="fill: #54a24b;"></path><path d="M193.60000000000002,131.66666666666666h28.8v138.33333333333334h-28.8Z" style="fill: #4c78a8;"></path><path d="M193.60000000000002,391.6666666666667h28.8v96.66666666666663h-28.8Z" style="fill: #72b7b2;"></path><path d="M193.60000000000002,573.3333333333334h28.8v26.66666666666663h-28.8Z" style="fill: #b279a2;"></path><path d="M193.60000000000002,280h28.8v111.66666666666669h-28.8Z" style="fill: #e45756;"></path><path d="M193.60000000000002,270h28.8v10h-28.8Z" style="fill: #f58518;"></path><path d="M193.60000000000002,541.6666666666666h28.8v31.666666666666742h-28.8Z" style="fill: #eeca3b;"></path><path d="M225.60000000000002,79.99999999999999h28.8v48.33333333333336h-28.8Z" style="fill: #4c78a8;"></path><path d="M225.60000000000002,445h28.8v150h-28.8Z" style="fill: #54a24b;"></path><path d="M225.60000000000002,135h28.8v196.66666666666669h-28.8Z" style="fill: #e45756;"></path><path d="M225.60000000000002,331.6666666666667h28.8v113.33333333333331h-28.8Z" style="fill: #72b7b2;"></path><path d="M225.60000000000002,595h28.8v5h-28.8Z" style="fill: #eeca3b;"></path><path d="M225.60000000000002,128.33333333333334h28.8v6.666666666666657h-28.8Z" style="fill: #f58518;"></path><path d="M257.6,566.6666666666666h28.8v6.6666666666667425h-28.8Z" style="fill: #eeca3b;"></path><path d="M257.6,175.83333333333331h28.8v26.666666666666686h-28.8Z" style="fill: #f58518;"></path><path d="M257.6,483.33333333333337h28.8v83.33333333333326h-28.8Z" style="fill: #54a24b;"></path><path d="M257.6,333.33333333333337h28.8v150h-28.8Z" style="fill: #72b7b2;"></path><path d="M257.6,202.5h28.8v130.83333333333337h-28.8Z" style="fill: #e45756;"></path><path d="M257.6,85.83333333333336h28.8v89.99999999999996h-28.8Z" style="fill: #4c78a8;"></path><path d="M257.6,573.3333333333334h28.8v26.66666666666663h-28.8Z" style="fill: #b279a2;"></path><path d="M289.6,238.33333333333334h28.8v40.00000000000003h-28.8Z" style="fill: #4c78a8;"></path><path d="M289.6,293.33333333333337h28.8v79.99999999999994h-28.8Z" style="fill: #e45756;"></path><path d="M289.6,373.3333333333333h28.8v66.66666666666674h-28.8Z" style="fill: #72b7b2;"></path><path d="M289.6,278.33333333333337h28.8v15h-28.8Z" style="fill: #f58518;"></path><path d="M289.6,440.00000000000006h28.8v159.99999999999994h-28.8Z" style="fill: #54a24b;"></path><path d="M321.6,289.99999999999994h28.8v193.33333333333343h-28.8Z" style="fill: #54a24b;"></path><path d="M321.6,91.66666666666667h28.8v24.999999999999986h-28.8Z" style="fill: #f58518;"></path><path d="M321.6,200.00000000000003h28.8v89.99999999999991h-28.8Z" style="fill: #72b7b2;"></path><path d="M321.6,64.99999999999997h28.8v26.6666666666667h-28.8Z" style="fill: #4c78a8;"></path><path d="M321.6,116.66666666666666h28.8v83.33333333333337h-28.8Z" style="fill: #e45756;"></path><path d="M321.6,483.33333333333337h28.8v9.999999999999943h-28.8Z" style="fill: #eeca3b;"></path><path d="M321.6,493.3333333333333h28.8v106.66666666666669h-28.8Z" style="fill: #b279a2;"></path><path d="M353.6,98.33333333333331h28.8v115h-28.8Z" style="fill: #72b7b2;"></path><path d="M353.6,213.33333333333331h28.8v173.33333333333331h-28.8Z" style="fill: #54a24b;"></path><path d="M353.6,23.333333333333318h28.8v13.333333333333353h-28.8Z" style="fill: #4c78a8;"></path><path d="M353.6,76.66666666666666h28.8v21.666666666666657h-28.8Z" style="fill: #e45756;"></path><path d="M353.6,36.66666666666667h28.8v39.999999999999986h-28.8Z" style="fill: #f58518;"></path><path d="M353.6,386.66666666666663h28.8v213.33333333333337h-28.8Z" style="fill: #b279a2;"></path><path d="M385.6,193.33333333333331h28.8v11.666666666666686h-28.8Z" style="fill: #f58518;"></path><path d="M385.6,258.33333333333337h28.8v56.66666666666663h-28.8Z" style="fill: #72b7b2;"></path><path d="M385.6,315h28.8v233.33333333333337h-28.8Z" style="fill: #54a24b;"></path><path d="M385.6,205h28.8v53.33333333333337h-28.8Z" style="fill: #e45756;"></path><path d="M385.6,548.3333333333334h28.8v25h-28.8Z" style="fill: #eeca3b;"></path><path d="M385.6,183.33333333333334h28.8v9.999999999999972h-28.8Z" style="fill: #4c78a8;"></path><path d="M385.6,573.3333333333334h28.8v26.66666666666663h-28.8Z" style="fill: #b279a2;"></path><path d="M417.6,510h28.8v41.66666666666663h-28.8Z" style="fill: #54a24b;"></path><path d="M417.6,160.00000000000003h28.8v76.66666666666666h-28.8Z" style="fill: #4c78a8;"></path><path d="M417.6,383.3333333333333h28.8v126.66666666666669h-28.8Z" style="fill: #72b7b2;"></path><path d="M417.6,276.6666666666667h28.8v106.66666666666663h-28.8Z" style="fill: #e45756;"></path><path d="M417.6,236.66666666666669h28.8v40h-28.8Z" style="fill: #f58518;"></path><path d="M417.6,551.6666666666666h28.8v21.666666666666742h-28.8Z" style="fill: #eeca3b;"></path><path d="M417.6,573.3333333333334h28.8v26.66666666666663h-28.8Z" style="fill: #b279a2;"></path><path d="M449.6,214.99999999999997h28.8v150.00000000000009h-28.8Z" style="fill: #e45756;"></path><path d="M449.6,365.00000000000006h28.8v144.99999999999994h-28.8Z" style="fill: #72b7b2;"></path><path d="M449.6,205h28.8v9.999999999999972h-28.8Z" style="fill: #f58518;"></path><path d="M449.6,101.66666666666664h28.8v103.33333333333336h-28.8Z" style="fill: #4c78a8;"></path><path d="M449.6,510h28.8v65h-28.8Z" style="fill: #54a24b;"></path><path d="M449.6,575h28.8v25h-28.8Z" style="fill: #eeca3b;"></path><path d="M481.6,311.66666666666663h28.8v155.00000000000006h-28.8Z" style="fill: #e45756;"></path><path d="M481.6,500h28.8v70h-28.8Z" style="fill: #54a24b;"></path><path d="M481.6,570h28.8v3.3333333333333712h-28.8Z" style="fill: #eeca3b;"></path><path d="M481.6,466.6666666666667h28.8v33.333333333333314h-28.8Z" style="fill: #72b7b2;"></path><path d="M481.6,573.3333333333334h28.8v26.66666666666663h-28.8Z" style="fill: #b279a2;"></path><path d="M481.6,278.33333333333337h28.8v33.33333333333326h-28.8Z" style="fill: #f58518;"></path><path d="M481.6,270h28.8v8.333333333333371h-28.8Z" style="fill: #4c78a8;"></path><path d="M513.6,298.3333333333333h28.8v8.333333333333314h-28.8Z" style="fill: #f58518;"></path><path d="M513.6,483.33333333333337h28.8v88.33333333333326h-28.8Z" style="fill: #54a24b;"></path><path d="M513.6,420h28.8v63.33333333333337h-28.8Z" style="fill: #72b7b2;"></path><path d="M513.6,306.66666666666663h28.8v113.33333333333337h-28.8Z" style="fill: #e45756;"></path><path d="M513.6,285h28.8v13.333333333333314h-28.8Z" style="fill: #4c78a8;"></path><path d="M513.6,571.6666666666666h28.8v1.6666666666667425h-28.8Z" style="fill: #eeca3b;"></path><path d="M513.6,573.3333333333334h28.8v26.66666666666663h-28.8Z" style="fill: #b279a2;"></path><path d="M545.6,164.16666666666669h28.8v23.333333333333314h-28.8Z" style="fill: #f58518;"></path><path d="M545.6,187.5h28.8v230.83333333333331h-28.8Z" style="fill: #e45756;"></path><path d="M545.6,418.3333333333333h28.8v93.33333333333331h-28.8Z" style="fill: #72b7b2;"></path><path d="M545.6,511.66666666666663h28.8v61.66666666666674h-28.8Z" style="fill: #54a24b;"></path><path d="M545.6,125.00000000000003h28.8v39.16666666666666h-28.8Z" style="fill: #4c78a8;"></path><path d="M545.6,573.3333333333334h28.8v26.66666666666663h-28.8Z" style="fill: #b279a2;"></path><path d="M577.6,558.3333333333334h28.8v15h-28.8Z" style="fill: #54a24b;"></path><path d="M577.6,573.3333333333334h28.8v26.66666666666663h-28.8Z" style="fill: #b279a2;"></path><path d="M577.6,316.6666666666667h28.8v186.66666666666669h-28.8Z" style="fill: #e45756;"></path><path d="M577.6,503.33333333333337h28.8v55h-28.8Z" style="fill: #72b7b2;"></path><path d="M577.6,283.3333333333333h28.8v33.33333333333337h-28.8Z" style="fill: #f58518;"></path><path d="M577.6,280h28.8v3.3333333333333144h-28.8Z" style="fill: #4c78a8;"></path><path d="M609.6,241.66666666666669h28.8v50h-28.8Z" style="fill: #f58518;"></path><path d="M609.6,420h28.8v128.33333333333337h-28.8Z" style="fill: #72b7b2;"></path><path d="M609.6,291.6666666666667h28.8v128.33333333333331h-28.8Z" style="fill: #e45756;"></path><path d="M609.6,563.3333333333334h28.8v36.66666666666663h-28.8Z" style="fill: #eeca3b;"></path><path d="M609.6,235.00000000000003h28.8v6.666666666666657h-28.8Z" style="fill: #4c78a8;"></path><path d="M609.6,548.3333333333334h28.8v15h-28.8Z" style="fill: #54a24b;"></path><path d="M641.6,271.66666666666663h28.8v183.33333333333337h-28.8Z" style="fill: #e45756;"></path><path d="M641.6,573.3333333333334h28.8v26.66666666666663h-28.8Z" style="fill: #b279a2;"></path><path d="M641.6,540h28.8v33.33333333333337h-28.8Z" style="fill: #54a24b;"></path><path d="M641.6,455h28.8v85h-28.8Z" style="fill: #72b7b2;"></path><path d="M641.6,245h28.8v13.333333333333371h-28.8Z" style="fill: #4c78a8;"></path><path d="M641.6,258.33333333333337h28.8v13.333333333333258h-28.8Z" style="fill: #f58518;"></path><path d="M673.6,260h28.8v16.666666666666686h-28.8Z" style="fill: #4c78a8;"></path><path d="M673.6,493.3333333333333h28.8v78.33333333333331h-28.8Z" style="fill: #72b7b2;"></path><path d="M673.6,585h28.8v15h-28.8Z" style="fill: #eeca3b;"></path><path d="M673.6,296.6666666666667h28.8v196.66666666666663h-28.8Z" style="fill: #e45756;"></path><path d="M673.6,571.6666666666666h28.8v13.333333333333371h-28.8Z" style="fill: #54a24b;"></path><path d="M673.6,276.6666666666667h28.8v20h-28.8Z" style="fill: #f58518;"></path><path d="M705.6,210h28.8v211.66666666666663h-28.8Z" style="fill: #e45756;"></path><path d="M705.6,200.00000000000003h28.8v9.999999999999972h-28.8Z" style="fill: #f58518;"></path><path d="M705.6,181.66666666666669h28.8v18.333333333333343h-28.8Z" style="fill: #4c78a8;"></path><path d="M705.6,421.66666666666663h28.8v66.66666666666669h-28.8Z" style="fill: #72b7b2;"></path><path d="M705.6,488.3333333333333h28.8v5h-28.8Z" style="fill: #54a24b;"></path><path d="M705.6,493.3333333333333h28.8v106.66666666666669h-28.8Z" style="fill: #b279a2;"></path><path d="M737.6,388.33333333333326h28.8v146.66666666666674h-28.8Z" style="fill: #72b7b2;"></path><path d="M737.6,320h28.8v68.33333333333326h-28.8Z" style="fill: #e45756;"></path><path d="M737.6,535h28.8v11.666666666666629h-28.8Z" style="fill: #54a24b;"></path><path d="M737.6,546.6666666666666h28.8v53.33333333333337h-28.8Z" style="fill: #b279a2;"></path><path d="M769.6,573.3333333333334h28.8v26.66666666666663h-28.8Z" style="fill: #b279a2;"></path><path d="M769.6,471.66666666666663h28.8v76.66666666666674h-28.8Z" style="fill: #72b7b2;"></path><path d="M769.6,418.3333333333333h28.8v13.333333333333371h-28.8Z" style="fill: #f58518;"></path><path d="M769.6,431.6666666666667h28.8v39.99999999999994h-28.8Z" style="fill: #e45756;"></path><path d="M769.6,561.6666666666666h28.8v11.666666666666742h-28.8Z" style="fill: #eeca3b;"></path><path d="M769.6,548.3333333333334h28.8v13.333333333333258h-28.8Z" style="fill: #54a24b;"></path></g><g class="mark-group role-legend"><g transform="translate(818,0)"><path class="background" d="M0,0h112v105h-112Z" style="pointer-events: none; fill: none;"></path><g><g class="mark-group role-legend-entry"><g transform="translate(0,16)"><path class="background" d="M0,0h0v0h0Z" style="pointer-events: none; fill: none;"></path><g><g class="mark-group role-scope"><g transform="translate(0,0)"><path class="background" d="M0,0h112v11h-112Z" style="pointer-events: none; fill: none; opacity: 1;"></path><g><g class="mark-symbol role-legend-symbol" style="pointer-events: none;"><path transform="translate(6,6)" d="M-5,-5h10v10h-10Z" style="fill: #4c78a8; stroke-width: 1.5; opacity: 1;"></path></g><g class="mark-text role-legend-label" style="pointer-events: none;"><text text-anchor="start" transform="translate(16,9)" style="font-family: sans-serif; font-size: 10px; fill: #000; opacity: 1;">APOLLO</text></g></g><path class="foreground" d="" style="pointer-events: none; display: none; fill: none;"></path></g><g transform="translate(0,13)"><path class="background" d="M0,0h112v11h-112Z" style="pointer-events: none; fill: none; opacity: 1;"></path><g><g class="mark-symbol role-legend-symbol" style="pointer-events: none;"><path transform="translate(6,6)" d="M-5,-5h10v10h-10Z" style="fill: #f58518; stroke-width: 1.5; opacity: 1;"></path></g><g class="mark-text role-legend-label" style="pointer-events: none;"><text text-anchor="start" transform="translate(16,9)" style="font-family: sans-serif; font-size: 10px; fill: #000; opacity: 1;">EDF</text></g></g><path class="foreground" d="" style="pointer-events: none; display: none; fill: none;"></path></g><g transform="translate(0,26)"><path class="background" d="M0,0h112v11h-112Z" style="pointer-events: none; fill: none; opacity: 1;"></path><g><g class="mark-symbol role-legend-symbol" style="pointer-events: none;"><path transform="translate(6,6)" d="M-5,-5h10v10h-10Z" style="fill: #e45756; stroke-width: 1.5; opacity: 1;"></path></g><g class="mark-text role-legend-label" style="pointer-events: none;"><text text-anchor="start" transform="translate(16,9)" style="font-family: sans-serif; font-size: 10px; fill: #000; opacity: 1;">ETL</text></g></g><path class="foreground" d="" style="pointer-events: none; display: none; fill: none;"></path></g><g transform="translate(0,39)"><path class="background" d="M0,0h112v11h-112Z" style="pointer-events: none; fill: none; opacity: 1;"></path><g><g class="mark-symbol role-legend-symbol" style="pointer-events: none;"><path transform="translate(6,6)" d="M-5,-5h10v10h-10Z" style="fill: #72b7b2; stroke-width: 1.5; opacity: 1;"></path></g><g class="mark-text role-legend-label" style="pointer-events: none;"><text text-anchor="start" transform="translate(16,9)" style="font-family: sans-serif; font-size: 10px; fill: #000; opacity: 1;">GEM</text></g></g><path class="foreground" d="" style="pointer-events: none; display: none; fill: none;"></path></g><g transform="translate(0,52)"><path class="background" d="M0,0h112v11h-112Z" style="pointer-events: none; fill: none; opacity: 1;"></path><g><g class="mark-symbol role-legend-symbol" style="pointer-events: none;"><path transform="translate(6,6)" d="M-5,-5h10v10h-10Z" style="fill: #54a24b; stroke-width: 1.5; opacity: 1;"></path></g><g class="mark-text role-legend-label" style="pointer-events: none;"><text text-anchor="start" transform="translate(16,9)" style="font-family: sans-serif; font-size: 10px; fill: #000; opacity: 1;">L0MDT</text></g></g><path class="foreground" d="" style="pointer-events: none; display: none; fill: none;"></path></g><g transform="translate(0,65)"><path class="background" d="M0,0h112v11h-112Z" style="pointer-events: none; fill: none; opacity: 1;"></path><g><g class="mark-symbol role-legend-symbol" style="pointer-events: none;"><path transform="translate(6,6)" d="M-5,-5h10v10h-10Z" style="fill: #eeca3b; stroke-width: 1.5; opacity: 1;"></path></g><g class="mark-text role-legend-label" style="pointer-events: none;"><text text-anchor="start" transform="translate(16,9)" style="font-family: sans-serif; font-size: 10px; fill: #000; opacity: 1;">OTHER PRJ</text></g></g><path class="foreground" d="" style="pointer-events: none; display: none; fill: none;"></path></g><g transform="translate(0,78)"><path class="background" d="M0,0h112v11h-112Z" style="pointer-events: none; fill: none; opacity: 1;"></path><g><g class="mark-symbol role-legend-symbol" style="pointer-events: none;"><path transform="translate(6,6)" d="M-5,-5h10v10h-10Z" style="fill: #b279a2; stroke-width: 1.5; opacity: 1;"></path></g><g class="mark-text role-legend-label" style="pointer-events: none;"><text text-anchor="start" transform="translate(16,9)" style="font-family: sans-serif; font-size: 10px; fill: #000; opacity: 1;">VAC/SICK/HOL</text></g></g><path class="foreground" d="" style="pointer-events: none; display: none; fill: none;"></path></g></g></g><path class="foreground" d="" style="pointer-events: none; display: none; fill: none;"></path></g></g><g class="mark-text role-legend-title" style="pointer-events: none;"><text text-anchor="start" transform="translate(0,9)" style="font-family: sans-serif; font-size: 11px; font-weight: bold; fill: #000; opacity: 1;">Project</text></g></g><path class="foreground" d="" style="pointer-events: none; display: none; fill: none;"></path></g></g></g><path class="foreground" d="" style="display: none; fill: none;"></path></g></g></g></svg>