<svg class="marks" width="952" height="653" viewBox="0 0 952 653" version="1.1" xmlns="http://www.w3.org/2000/svg" xmlns:xlink="http://www.w3.org/1999/xlink"><rect width="952" height="653" style="fill: white;"></rect><g transform="translate(67,10)"><g class="mark-group role-frame root"><g transform="translate(0,0)"><path class="background" d="M0.5,0.5h800v600h-800Z" style="fill: none; stroke: #ddd;"></path><g><g class="mark-group role-axis"><g transform="translate(0.5,0.5)"><path class="background" d="M0,0h0v0h0Z" style="pointer-events: none; fill: none;"></path><g><g class="mark-rule role-axis-grid" style="pointer-events: none;"><line transform="translate(0,600)" x2="800" y2="0" style="fill: none; stroke: #ddd; stroke-width: 1; opacity: 1;"></line><line transform="translate(0,567)" x2="800" y2="0" style="fill: none; stroke: #ddd; stroke-width: 1; opacity: 1;"></line><line transform="translate(0,533)" x2="800" y2="0" style="fill: none; stroke: #ddd; stroke-width: 1; opacity: 1;"></line><line transform="translate(0,500)" x2="800" y2="0" style="fill: none; stroke: #ddd; stroke-width: 1; opacity: 1;"></line><line transform="translate(0,467)" x2="800" y2="0" style="fill: none; stroke: #ddd; stroke-width: 1; opacity: 1;"></line><line transform="translate(0,433)" x2="800" y2="0" style="fill: none; stroke: #ddd; stroke-width: 1; opacity: 1;"></line><line transform="translate(0,400)" x2="800" y2="0" style="fill: none; stroke: #ddd; stroke-width: 1; opacity: 1;"></line><line transform="translate(0,367)" x2="800" y2="0" style="fill: none; stroke: #ddd; stroke-width: 1; opacity: 1;"></line><line transform="translate(0,333)" x2="800" y2="0" style="fill: none; stroke: #ddd; stroke-width: 1; opacity: 1;"></line><line transform="translate(0,300)" x2="800" y2="0" style="fill: none; stroke: #ddd; stroke-width: 1; opacity: 1;"></line><line transform="translate(0,267)" x2="800" y2="0" style="fill: none; stroke: #ddd; stroke-width: 1; opacity: 1;"></line><line transform="translate(0,233)" x2="800" y2="0" style="fill: none; stroke: #ddd; stroke-width: 1; opacity: 1;"></line><line transform="translate(0,200)" x2="800" y2="0" style="fill: none; stroke: #ddd; stroke-width: 1; opacity: 1;"></line><line transform="translate(0,167)" x2="800" y2="0" style="fill: none; stroke: #ddd; stroke-width: 1; opacity: 1;"></line><line transform="translate(0,133)" x2="800" y2="0" style="fill: none; stroke: #ddd; stroke-width: 1; opacity: 1;"></line><line transform="translate(0,100)" x2="800" y2="0" style="fill: none; stroke: #ddd; stroke-width: 1; opacity: 1;"></line><line transform="translate(0,67)" x2="800" y2="0" style="fill: none; stroke: #ddd; stroke-width: 1; opacity: 1;"></line><line transform="translate(0,33)" x2="800" y2="0" style="fill: none; stroke: #ddd; stroke-width: 1; opacity: 1;"></line><line transform="translate(0,0)" x2="800" y2="0" style="fill: none; stroke: #ddd; stroke-width: 1; opacity: 1;"></line></g></g><path class="foreground" d="" style="pointer-events: none; display: none; fill: none;"></path></g></g><g class="mark-group role-axis"><g transform="translate(0.5,600.5)"><path class="background" d="M0,0h0v0h0Z" style="pointer-events: none; fill: none;"></path><g><g class="mark-rule role-axis-tick" style="pointer-events: none;"><line transform="translate(9,0)" x2="0" y2="5" style="fill: none; stroke: #888; stroke-width: 1; opacity: 1;"></line><line transform="translate(79,0)" x2="0" y2="5" style="fill: none; stroke: #888; stroke-width: 1; opacity: 1;"></line><line transform="translate(149,0)" x2="0" y2="5" style="fill: none; stroke: #888; stroke-width: 1; opacity: 1;"></line><line transform="translate(214,0)" x2="0" y2="5" style="fill: none; stroke: #888; stroke-width: 1; opacity: 1;"></line><line transform="translate(277,0)" x2="0" y2="5" style="fill: none; stroke: #888; stroke-width: 1; opacity: 1;"></line><line transform="translate(336,0)" x2="0" y2="5" style="fill: none; stroke: #888; stroke-width: 1; opacity: 1;"></line><line transform="translate(404,0)" x2="0" y2="5" style="fill: none; stroke: #888; stroke-width: 1; opacity: 1;"></line><line transform="translate(474,0)" x2="0" y2="5" style="fill: none; stroke: #888; stroke-width: 1; opacity: 1;"></line><line transform="translate(542,0)" x2="0" y2="5" style="fill: none; stroke: #888; stroke-width: 1; opacity: 1;"></line><line transform="translate(609,0)" x2="0" y2="5" style="fill: none; stroke: #888; stroke-width: 1; opacity: 1;"></line><line transform="translate(664,0)" x2="0" y2="5" style="fill: none; stroke: #888; stroke-width: 1; opacity: 1;"></line><line transform="translate(731,0)" x2="0" y2="5" style="fill: none; stroke: #888; stroke-width: 1; opacity: 1;"></line></g><g class="mark-text role-axis-label" style="pointer-events: none;"><text text-anchor="end" transform="translate(9.090909090909095,7) rotate(270) translate(0,3)" style="font-family: sans-serif; font-size: 10px; fill: #000; opacity: 1;">1</text><text text-anchor="end" transform="translate(79.22077922077922,7) rotate(270) translate(0,3)" style="font-family: sans-serif; font-size: 10px; fill: #000; opacity: 1;">2</text><text text-anchor="end" transform="translate(149.35064935064935,7) rotate(270) translate(0,3)" style="font-family: sans-serif; font-size: 10px; fill: #000; opacity: 1;">3</text><text text-anchor="end" transform="translate(214.28571428571428,7) rotate(270) translate(0,3)" style="font-family: sans-serif; font-size: 10px; fill: #000; opacity: 1;">4</text><text text-anchor="end" transform="translate(276.6233766233766,7) rotate(270) translate(0,3)" style="font-family: sans-serif; font-size: 10px; fill: #000; opacity: 1;">5</text><text text-anchor="end" transform="translate(336.3636363636364,7) rotate(270) translate(0,3)" style="font-family: sans-serif; font-size: 10px; fill: #000; opacity: 1;">6</text><text text-anchor="end" transform="translate(403.8961038961039,7) rotate(270) translate(0,3)" style="font-family: sans-serif; font-size: 10px; fill: #000; opacity: 1;">7</text><text text-anchor="end" transform="translate(474.02597402597405,7) rotate(270) translate(0,3)" style="font-family: sans-serif; font-size: 10px; fill: #000; opacity: 1;">8</text><text text-anchor="end" transform="translate(541.5584415584416,7) rotate(270) translate(0,3)" style="font-family: sans-serif; font-size: 10px; fill: #000; opacity: 1;">9</text><text text-anchor="end" transform="translate(609.0909090909091,7) rotate(270) translate(0,3)" style="font-family: sans-serif; font-size: 10px; fill: #000; opacity: 1;">10</text><text text-anchor="end" transform="translate(663.6363636363636,7) rotate(270) translate(0,3)" style="font-family: sans-serif; font-size: 10px; fill: #000; opacity: 1;">11</text><text text-anchor="end" transform="translate(731.1688311688312,7) rotate(270) translate(0,3)" style="font-family: sans-serif; font-size: 10px; fill: #000; opacity: 1;">12</text></g><g class="mark-rule role-axis-domain" style="pointer-events: none;"><line transform="translate(0,0)" x2="800" y2="0" style="fill: none; stroke: #888; stroke-width: 1; opacity: 1;"></line></g><g class="mark-text role-axis-title" style="pointer-events: none;"><text text-anchor="middle" transform="translate(400,36)" style="font-family: sans-serif; font-size: 11px; font-weight: bold; fill: #000; opacity: 1;">Date</text></g></g><path class="foreground" d="" style="pointer-events: none; display: none; fill: none;"></path></g></g><g class="mark-group role-axis"><g transform="translate(0.5,0.5)"><path class="background" d="M0,0h0v0h0Z" style="pointer-events: none; fill: none;"></path><g><g class="mark-rule role-axis-tick" style="pointer-events: none;"><line transform="translate(0,600)" x2="-5" y2="0" style="fill: none; stroke: #888; stroke-width: 1; opacity: 1;"></line><line transform="translate(0,567)" x2="-5" y2="0" style="fill: none; stroke: #888; stroke-width: 1; opacity: 1;"></line><line transform="translate(0,533)" x2="-5" y2="0" style="fill: none; stroke: #888; stroke-width: 1; opacity: 1;"></line><line transform="translate(0,500)" x2="-5" y2="0" style="fill: none; stroke: #888; stroke-width: 1; opacity: 1;"></line><line transform="translate(0,467)" x2="-5" y2="0" style="fill: none; stroke: #888; stroke-width: 1; opacity: 1;"></line><line transform="translate(0,433)" x2="-5" y2="0" style="fill: none; stroke: #888; stroke-width: 1; opacity: 1;"></line><line transform="translate(0,400)" x2="-5" y2="0" style="fill: none; stroke: #888; stroke-width: 1; opacity: 1;"></line><line transform="translate(0,367)" x2="-5" y2="0" style="fill: none; stroke: #888; stroke-width: 1; opacity: 1;"></line><line transform="translate(0,333)" x2="-5" y2="0" style="fill: none; stroke: #888; stroke-width: 1; opacity: 1;"></line><line transform="translate(0,300)" x2="-5" y2="0" style="fill: none; stroke: #888; stroke-width: 1; opacity: 1;"></line><line transform="translate(0,267)" x2="-5" y2="0" style="fill: none; stroke: #888; stroke-width: 1; opacity: 1;"></line><line transform="translate(0,233)" x2="-5" y2="0" style="fill: none; stroke: #888; stroke-width: 1; opacity: 1;"></line><line transform="translate(0,200)" x2="-5" y2="0" style="fill: none; stroke: #888; stroke-width: 1; opacity: 1;"></line><line transform="translate(0,167)" x2="-5" y2="0" style="fill: none; stroke: #888; stroke-width: 1; opacity: 1;"></line><line transform="translate(0,133)" x2="-5" y2="0" style="fill: none; stroke: #888; stroke-width: 1; opacity: 1;"></line><line transform="translate(0,100)" x2="-5" y2="0" style="fill: none; stroke: #888; stroke-width: 1; opacity: 1;"></line><line transform="translate(0,67)" x2="-5" y2="0" style="fill: none; stroke: #888; stroke-width: 1; opacity: 1;"></line><line transform="translate(0,33)" x2="-5" y2="0" style="fill: none; stroke: #888; stroke-width: 1; opacity: 1;"></line><line transform="translate(0,0)" x2="-5" y2="0" style="fill: none; stroke: #888; stroke-width: 1; opacity: 1;"></line></g><g class="mark-text role-axis-label" style="pointer-events: none;"><text text-anchor="end" transform="translate(-7,603)" style="font-family: sans-serif; font-size: 10px; fill: #000; opacity: 1;">0</text><text text-anchor="end" transform="translate(-7,569.6666666666666)" style="font-family: sans-serif; font-size: 10px; fill: #000; opacity: 1;">100</text><text text-anchor="end" transform="translate(-7,536.3333333333333)" style="font-family: sans-serif; font-size: 10px; fill: #000; opacity: 1;">200</text><text text-anchor="end" transform="translate(-7,503)" style="font-family: sans-serif; font-size: 10px; fill: #000; opacity: 1;">300</text><text text-anchor="end" transform="translate(-7,469.6666666666667)" style="font-family: sans-serif; font-size: 10px; fill: #000; opacity: 1;">400</text><text text-anchor="end" transform="translate(-7,436.3333333333333)" style="font-family: sans-serif; font-size: 10px; fill: #000; opacity: 1;">500</text><text text-anchor="end" transform="translate(-7,403.00000000000006)" style="font-family: sans-serif; font-size: 10px; fill: #000; opacity: 1;">600</text><text text-anchor="end" transform="translate(-7,369.6666666666667)" style="font-family: sans-serif; font-size: 10px; fill: #000; opacity: 1;">700</text><text text-anchor="end" transform="translate(-7,336.33333333333337)" style="font-family: sans-serif; font-size: 10px; fill: #000; opacity: 1;">800</text><text text-anchor="end" transform="translate(-7,303)" style="font-family: sans-serif; font-size: 10px; fill: #000; opacity: 1;">900</text><text text-anchor="end" transform="translate(-7,269.66666666666663)" style="font-family: sans-serif; font-size: 10px; fill: #000; opacity: 1;">1,000</text><text text-anchor="end" transform="translate(-7,236.33333333333331)" style="font-family: sans-serif; font-size: 10px; fill: #000; opacity: 1;">1,100</text><text text-anchor="end" transform="translate(-7,203.00000000000003)" style="font-family: sans-serif; font-size: 10px; fill: #000; opacity: 1;">1,200</text><text text-anchor="end" transform="translate(-7,169.66666666666669)" style="font-family: sans-serif; font-size: 10px; fill: #000; opacity: 1;">1,300</text><text text-anchor="end" transform="translate(-7,136.33333333333331)" style="font-family: sans-serif; font-size: 10px; fill: #000; opacity: 1;">1,400</text><text text-anchor="end" transform="translate(-7,102.99999999999997)" style="font-family: sans-serif; font-size: 10px; fill: #000; opacity: 1;">1,500</text><text text-anchor="end" transform="translate(-7,69.6666666666667)" style="font-family: sans-serif; font-size: 10px; fill: #000; opacity: 1;">1,600</text><text text-anchor="end" transform="translate(-7,36.33333333333335)" style="font-family: sans-serif; font-size: 10px; fill: #000; opacity: 1;">1,700</text><text text-anchor="end" transform="translate(-7,3)" style="font-family: sans-serif; font-size: 10px; fill: #000; opacity: 1;">1,800</text></g><g class="mark-rule role-axis-domain" style="pointer-events: none;"><line transform="translate(0,600)" x2="0" y2="-600" style="fill: none; stroke: #888; stroke-width: 1; opacity: 1;"></line></g><g class="mark-text role-axis-title" style="pointer-events: none;"><text text-anchor="middle" transform="translate(-51,300) rotate(-90) translate(0,-2)" style="font-family: sans-serif; font-size: 11px; font-weight: bold; fill: #000; opacity: 1;">Sum of Hours</text></g></g><path class="foreground" d="" style="pointer-events: none; display: none; fill: none;"></path></g></g><g class="mark-group role-scope pathgroup"><g transform="translate(0,0)"><path class="background" d="M0,0h800v600h-800Z" style="fill: none;"></path><g><g class="mark-line role-mark marks"><path d="M9.090909090909095,599.3333333333334L11.688311688311693,597L14.28571428571429,594.8333333333334L16.883116883116887,593.3333333333334L24.67532467532468,591.6666666666667L27.272727272727277,589.6666666666666L29.870129870129873,587.6666666666666L32.46753246753247,584.8333333333334L35.06493506493507,582.1666666666666L42.85714285714286,579.5L45.45454545454546,577L48.05194805194806,573.5L50.64935064935065,571L53.24675324675325,568.8333333333334L61.03896103896104,566L63.63636363636364,563.1666666666666L66.23376623376623,560.8333333333334L68.83116883116884,559.3333333333333L71.42857142857143,557.1666666666666L79.22077922077922,555.1666666666666L81.81818181818183,553.1666666666666L84.41558441558442,551.1666666666667L87.01298701298701,550.8333333333333L89.61038961038962,548.5L97.40259740259741,548.1666666666667L100,546.8333333333334L102.5974025974026,545.3333333333333L105.1948051948052,544L107.79220779220779,543L115.58441558441558,540.3333333333334L118.18181818181819,539.1666666666666L120.77922077922078,536.8333333333334L123.37662337662339,534.6666666666666L125.97402597402598,531.3333333333334L133.76623376623377,528.3333333333334L136.36363636363637,527.3333333333333L138.96103896103895,526.8333333333334L141.55844155844156,524.6666666666666L144.15584415584416,522.1666666666667L146.75324675324674,521.6666666666666L149.35064935064935,518.8333333333333L151.94805194805195,516.5L154.54545454545456,513.1666666666666L157.14285714285714,511.16666666666663L159.74025974025975,508.3333333333333L167.53246753246754,506.6666666666667L170.12987012987014,505.3333333333333L172.72727272727272,503.6666666666667L177.92207792207793,501L180.5194805194805,498.83333333333337L183.11688311688312,497L185.71428571428572,494L188.31168831168833,492.00000000000006L190.9090909090909,489.6666666666667L193.5064935064935,487.8333333333333L196.10389610389612,486.5L198.7012987012987,485.8333333333333L201.2987012987013,482.66666666666663L206.4935064935065,481L209.0909090909091,478.33333333333337L211.6883116883117,478L214.28571428571428,475.3333333333333L216.88311688311688,472.6666666666667L222.07792207792207,470.3333333333333L224.67532467532467,467.66666666666663L227.27272727272728,465.99999999999994L229.87012987012986,463.83333333333337L232.46753246753246,461.33333333333337L235.06493506493507,459L237.66233766233768,458.1666666666667L240.25974025974025,455.6666666666667L242.85714285714286,451.83333333333337L245.45454545454547,450.5L250.64935064935065,447.8333333333333L253.24675324675326,445L255.84415584415584,442.16666666666663L268.83116883116884,439.3333333333333L271.42857142857144,436.99999999999994L274.02597402597405,435L276.6233766233766,432.1666666666667L279.2207792207792,430L281.8181818181818,426.8333333333333L284.4155844155844,425.50000000000006L287.012987012987,423.00000000000006L292.2077922077922,422.1666666666667L294.8051948051948,419.83333333333337L297.4025974025974,417.00000000000006L300,415.1666666666667L302.5974025974026,413.8333333333333L307.7922077922078,411.33333333333326L310.38961038961037,409.33333333333337L312.987012987013,406.83333333333337L315.5844155844156,405.83333333333337L318.1818181818182,403.5L320.7792207792208,401L323.3766233766234,398L325.97402597402595,394.6666666666667L328.57142857142856,392.5L333.76623376623377,390.16666666666663L336.3636363636364,387.49999999999994L338.961038961039,383L341.5584415584416,380.33333333333337L344.15584415584414,377.5L349.35064935064935,374.6666666666667L351.94805194805195,371.83333333333337L354.54545454545456,369.1666666666667L357.14285714285717,366.16666666666663L359.7402597402597,363.5L364.93506493506493,360.8333333333333L367.53246753246754,358.49999999999994L370.12987012987014,355.8333333333333L372.72727272727275,353.16666666666663L375.32467532467535,350.50000000000006L380.5194805194805,348.00000000000006L383.1168831168831,345.33333333333337L385.7142857142857,342.3333333333333L388.31168831168833,339.33333333333337L390.90909090909093,336.6666666666667L396.1038961038961,334.1666666666667L398.7012987012987,332.16666666666663L401.2987012987013,330.16666666666663L403.8961038961039,327.50000000000006L406.4935064935065,325.1666666666667L411.68831168831167,322.5L419.4805194805195,320.16666666666663L422.0779220779221,318.1666666666667L427.27272727272725,315.5L429.87012987012986,312.3333333333333L432.46753246753246,309L435.06493506493507,306.1666666666667L437.6623376623377,303.8333333333333L448.05194805194805,301.6666666666667L450.64935064935065,299.33333333333337L453.24675324675326,296.5L458.4415584415584,293.8333333333333L461.038961038961,291.3333333333333L463.6363636363636,288.5L466.23376623376623,286L468.83116883116884,283.3333333333333L474.02597402597405,280.8333333333333L476.6233766233766,278.16666666666663L479.2207792207792,275.16666666666663L481.8181818181818,272.50000000000006L484.4155844155844,270.33333333333337L489.61038961038963,267.8333333333333L492.2077922077922,264.6666666666667L494.8051948051948,262.6666666666667L497.4025974025974,260.16666666666663L500,258.00000000000006L505.1948051948052,255.49999999999997L507.7922077922078,252.49999999999997L510.38961038961037,249.99999999999997L512.987012987013,247.33333333333337L515.5844155844156,245L520.7792207792207,242L523.3766233766233,239.66666666666669L525.974025974026,237.16666666666663L528.5714285714286,236.16666666666669L531.1688311688312,234L536.3636363636364,231.33333333333331L541.5584415584416,231L544.1558441558442,228.66666666666663L546.7532467532468,226.16666666666666L551.9480519480519,223.50000000000003L554.5454545454545,222L557.1428571428571,219.83333333333331L559.7402597402597,217.25L562.3376623376623,214.91666666666669L567.5324675324675,212.58333333333331L570.1298701298701,210.25000000000003L572.7272727272727,207.58333333333334L575.3246753246754,205.08333333333334L577.922077922078,202.41666666666666L583.1168831168831,200.58333333333331L585.7142857142857,198.08333333333331L588.3116883116883,195.25L590.9090909090909,192.58333333333331L593.5064935064935,190.08333333333334L598.7012987012987,187.74999999999997L601.2987012987013,185.41666666666669L603.8961038961039,182.75L606.4935064935065,179.91666666666669L609.0909090909091,177.41666666666669L614.2857142857143,175.25000000000003L616.8831168831168,172.91666666666666L622.077922077922,170.41666666666666L624.6753246753246,168.25L627.2727272727273,165.91666666666669L635.0649350649351,164.58333333333334L637.6623376623377,161.74999999999997L640.2597402597403,159.41666666666669L642.8571428571429,157.08333333333331L648.0519480519481,154.41666666666669L650.6493506493506,151.41666666666669L653.2467532467532,148.91666666666669L655.8441558441558,146.25L658.4415584415584,143.75000000000003L663.6363636363636,141.08333333333334L666.2337662337662,138.41666666666666L668.8311688311688,136.08333333333334L671.4285714285714,133.91666666666669L674.025974025974,132.08333333333334L679.2207792207793,129.91666666666666L681.8181818181819,127.24999999999997L684.4155844155844,124.74999999999999L687.012987012987,121.74999999999999L689.6103896103896,119.41666666666669L694.8051948051948,116.91666666666669L697.4025974025974,114.25L700,112.25000000000003L702.5974025974026,109.41666666666666L705.1948051948052,107.08333333333336L710.3896103896104,104.74999999999999L712.987012987013,102.0833333333333L715.5844155844156,99.41666666666669L718.1818181818181,96.75L720.7792207792207,94.08333333333331L725.974025974026,92.74999999999997L728.5714285714286,90.24999999999999L731.1688311688312,87.5833333333333L733.7662337662338,84.91666666666669L736.3636363636364,82.58333333333331L741.5584415584416,81.91666666666669L744.1558441558442,78.91666666666669L746.7532467532468,76.0833333333333L749.3506493506494,74.25000000000001L751.9480519480519,72.58333333333336L754.5454545454545,70.9166666666667L759.7402597402597,67.91666666666669L762.3376623376623,65.08333333333331L764.9350649350649,63.74999999999997L767.5324675324675,61.08333333333336L770.1298701298701,58.583333333333364L772.7272727272727,56.25L775.3246753246754,55.583333333333364L777.922077922078,51.250000000000014L780.5194805194806,48.583333333333336L783.1168831168831,45.91666666666665L788.3116883116883,43.250000000000036L790.9090909090909,40.58333333333335L793.5064935064935,37.916666666666664L796.1038961038961,35.24999999999998L798.7012987012987,32.583333333333364" style="fill: none; stroke: #4c78a8; stroke-width: 2;"></path></g></g><path class="foreground" d="" style="display: none; fill: none;"></path></g><g transform="translate(0,0)"><path class="background" d="M0,0h800v600h-800Z" style="fill: none;"></path><g><g class="mark-line role-mark marks"><path d="M6.493506493506498,597.5L9.090909090909095,596.1666666666666L11.688311688311693,594L14.28571428571429,592.1666666666666L22.077922077922082,589.8333333333334L24.67532467532468,587.6666666666666L27.272727272727277,585.5L29.870129870129873,582.8333333333333L32.46753246753247,580.6666666666666L40.25974025974026,578L42.85714285714286,575.6666666666666L45.45454545454546,573.6666666666666L48.05194805194806,570.8333333333333L61.03896103896104,569.1666666666666L63.63636363636364,565.1666666666666L66.23376623376623,562.1666666666666L68.83116883116884,560L76.62337662337663,558.3333333333334L79.22077922077922,556L81.81818181818183,552.3333333333334L84.41558441558442,549.8333333333334L87.01298701298701,547.8333333333333L94.80519480519482,545.5L97.40259740259741,542.8333333333334L100,541.3333333333334L102.5974025974026,538.6666666666666L105.1948051948052,536.6666666666667L118.18181818181819,534L120.77922077922078,531.1666666666667L123.37662337662339,529.8333333333334L131.16883116883116,526.3333333333334L133.76623376623377,524.1666666666666L136.36363636363637,521.5L138.96103896103895,518.8333333333333L141.55844155844156,516.8333333333334L146.75324675324674,514.3333333333334L149.35064935064935,511.99999999999994L151.94805194805195,509.16666666666663L154.54545454545456,506.33333333333337L157.14285714285714,505L162.33766233766235,502.5L164.93506493506493,499.8333333333333L167.53246753246754,497.3333333333333L170.12987012987014,494.66666666666663L175.32467532467533,492.1666666666667L177.92207792207793,490.1666666666667L180.5194805194805,488.5L183.11688311688312,486.1666666666667L185.71428571428572,483.16666666666663L190.9090909090909,481.5L193.5064935064935,476.16666666666663L196.10389610389612,478L198.7012987012987,473.8333333333333L203.8961038961039,472L206.4935064935065,469.33333333333337L209.0909090909091,466.6666666666667L211.6883116883117,464.5L214.28571428571428,462.1666666666667L219.4805194805195,459.5L222.07792207792207,458.5L224.67532467532467,455.8333333333333L227.27272727272728,453.8333333333333L248.05194805194805,451.16666666666663L250.64935064935065,448.83333333333326L253.24675324675326,446.6666666666667L255.84415584415584,444L258.44155844155847,441.8333333333333L261.038961038961,439.83333333333337L263.6363636363636,438L266.23376623376623,435.5L268.83116883116884,433.66666666666663L271.42857142857144,431.50000000000006L276.6233766233766,428.83333333333337L279.2207792207792,427.1666666666667L281.8181818181818,425.16666666666663L284.4155844155844,424.5L289.61038961038963,422.83333333333337L292.2077922077922,420.33333333333337L294.8051948051948,419.66666666666663L297.4025974025974,417.5L300,416L305.1948051948052,414.1666666666667L307.7922077922078,412.6666666666667L310.38961038961037,411.6666666666667L312.987012987013,410L315.5844155844156,409.5L320.7792207792208,407.8333333333333L323.3766233766234,406.00000000000006L325.97402597402595,404.5L331.16883116883116,401.8333333333333L333.76623376623377,400.00000000000006L336.3636363636364,397.5L338.961038961039,394.91666666666674L341.5584415584416,392.4166666666667L346.75324675324674,389.75000000000006L349.35064935064935,385.91666666666663L351.94805194805195,383.58333333333337L354.54545454545456,380.9166666666667L357.14285714285717,378.58333333333337L362.3376623376623,376.75L364.93506493506493,375.08333333333337L367.53246753246754,372.3333333333333L370.12987012987014,370.66666666666663L372.72727272727275,367.5L377.9220779220779,365.6666666666667L380.5194805194805,364.1666666666667L383.1168831168831,361.8333333333333L385.7142857142857,359.83333333333337L388.31168831168833,357.8333333333333L393.5064935064935,355.8333333333333L396.1038961038961,354.5L401.2987012987013,352.5L403.8961038961039,351.6666666666667L409.09090909090907,349L414.2857142857143,346.33333333333337L416.8831168831169,343.6666666666667L419.4805194805195,341L424.6753246753247,337.6666666666667L427.27272727272725,335L429.87012987012986,332.16666666666663L432.46753246753246,330.16666666666663L435.06493506493507,329.8333333333333L440.2597402597403,329.5L442.85714285714283,329L445.45454545454544,328.33333333333337L448.05194805194805,326.8333333333333L450.64935064935065,325.83333333333337L455.84415584415586,325.00000000000006L458.4415584415584,323.8333333333333L461.038961038961,322.8333333333333L463.6363636363636,321.50000000000006L466.23376623376623,320.5L471.42857142857144,319.5L476.6233766233766,317.8333333333333L479.2207792207792,316.1666666666667L481.8181818181818,315.16666666666663L487.012987012987,314.5L489.61038961038963,313.5L492.2077922077922,312.49999999999994L494.8051948051948,311.5L497.4025974025974,309.8333333333333L502.5974025974026,307.16666666666663L505.1948051948052,304.50000000000006L507.7922077922078,301.83333333333337L510.38961038961037,299.5L512.987012987013,296.8333333333333L518.1818181818181,295.50000000000006L520.7792207792207,294.6666666666667L523.3766233766233,293L525.974025974026,291.5L528.5714285714286,290.33333333333337L533.7662337662338,288.1666666666667L536.3636363636364,286L538.961038961039,284.00000000000006L541.5584415584416,282.8333333333333L549.3506493506494,280.1666666666667L551.9480519480519,279.1666666666667L554.5454545454545,278.49999999999994L557.1428571428571,275.49999999999994L559.7402597402597,273.8333333333333L564.9350649350649,272.16666666666663L567.5324675324675,269.83333333333337L570.1298701298701,267.8333333333333L572.7272727272727,266.66666666666663L575.3246753246754,264.33333333333337L580.5194805194806,262.8333333333333L583.1168831168831,262L585.7142857142857,261.1666666666667L588.3116883116883,259.8333333333333L590.9090909090909,258.5L596.1038961038961,257.1666666666667L598.7012987012987,255.49999999999997L601.2987012987013,252.83333333333334L603.8961038961039,250.33333333333337L606.4935064935065,248.5L611.6883116883117,246.83333333333334L614.2857142857143,245.16666666666669L616.8831168831168,243.66666666666666L619.4805194805194,240L622.077922077922,237.66666666666666L624.6753246753246,235.16666666666666L629.8701298701299,230.83333333333331L632.4675324675325,233.16666666666669L635.0649350649351,228.66666666666663L637.6623376623377,226.99999999999997L640.2597402597403,225L645.4545454545455,222.66666666666663L648.0519480519481,222L650.6493506493506,220.16666666666666L653.2467532467532,218.49999999999997L655.8441558441558,216.5L661.038961038961,214.50000000000003L663.6363636363636,211.83333333333334L666.2337662337662,209.49999999999997L671.4285714285714,207.5L676.6233766233767,206.00000000000003L681.8181818181819,204.66666666666669L684.4155844155844,202.33333333333331L687.012987012987,199.66666666666663L692.2077922077922,197.66666666666666L694.8051948051948,197.16666666666666L697.4025974025974,195.16666666666666L700,193.33333333333331L702.5974025974026,191L707.7922077922078,188.99999999999997L710.3896103896104,187.16666666666669L712.987012987013,184.5L715.5844155844156,181.83333333333331L718.1818181818181,179.16666666666669L723.3766233766233,177.16666666666666L725.974025974026,174.99999999999997L728.5714285714286,172.66666666666669L731.1688311688312,170.66666666666669L733.7662337662338,168.33333333333334L738.961038961039,165.99999999999997L741.5584415584416,163.66666666666669L744.1558441558442,161.33333333333331L749.3506493506494,158.66666666666669L757.1428571428571,156L759.7402597402597,155.66666666666669L762.3376623376623,154.83333333333334L772.7272727272727,154.00000000000003L785.7142857142857,151.33333333333334L790.9090909090909,148.66666666666666L796.1038961038961,146.33333333333337L798.7012987012987,144.66666666666669" style="fill: none; stroke: #f58518; stroke-width: 2;"></path></g></g><path class="foreground" d="" style="display: none; fill: none;"></path></g><g transform="translate(0,0)"><path class="background" d="M0,0h800v600h-800Z" style="fill: none;"></path><g><g class="mark-line role-mark marks"><path d="M1.2987012987013031,597.3333333333334L3.8961038961039005,595.8333333333334L6.493506493506498,594.8333333333334L9.090909090909095,592.8333333333334L11.688311688311693,590.8333333333334L19.480519480519483,588.8333333333334L22.077922077922082,587.1666666666666L24.67532467532468,585L27.272727272727277,582.6666666666667L29.870129870129873,581.8333333333334L37.66233766233766,579.8333333333333L42.85714285714286,579.5L45.45454545454546,578L48.05194805194806,575.1666666666666L55.84415584415585,573.1666666666666L58.44155844155844,571L61.03896103896104,568.8333333333334L63.63636363636364,567.1666666666666L66.23376623376623,566.1666666666666L74.02597402597402,564.5L76.62337662337663,562.3333333333333L79.22077922077922,560.1666666666667L81.81818181818183,559L84.41558441558442,557.6666666666666L92.20779220779221,556.3333333333333L94.80519480519482,555.1666666666666L97.40259740259741,553L100,551.3333333333334L102.5974025974026,549.8333333333334L110.3896103896104,548.3333333333334L112.98701298701299,547L115.58441558441558,545.8333333333334L118.18181818181819,544.5833333333334L120.77922077922078,543.0833333333334L128.57142857142856,541.4166666666667L131.16883116883116,539.3333333333333L133.76623376623377,537.6666666666666L136.36363636363637,535.8333333333334L138.96103896103895,534.6666666666666" style="fill: none; stroke: #e45756; stroke-width: 2;"></path></g></g><path class="foreground" d="" style="display: none; fill: none;"></path></g></g><g class="mark-group role-legend"><g transform="translate(819,0)"><path class="background" d="M0,0h61v53h-61Z" style="pointer-events: none; fill: none;"></path><g><g class="mark-group role-legend-entry"><g transform="translate(0,16)"><path class="background" d="M0,0h0v0h0Z" style="pointer-events: none; fill: none;"></path><g><g class="mark-group role-scope"><g transform="translate(0,0)"><path class="background" d="M0,0h48v11h-48Z" style="pointer-events: none; fill: none; opacity: 1;"></path><g><g class="mark-symbol role-legend-symbol" style="pointer-events: none;"><path transform="translate(6,6)" d="M-5,0L5,0" style="fill: none; stroke: #4c78a8; stroke-width: 1.5; opacity: 1;"></path></g><g class="mark-text role-legend-label" style="pointer-events: none;"><text text-anchor="start" transform="translate(16,9)" style="font-family: sans-serif; font-size: 10px; fill: #000; opacity: 1;">2021</text></g></g><path class="foreground" d="" style="pointer-events: none; display: none; fill: none;"></path></g><g transform="translate(0,13)"><path class="background" d="M0,0h48v11h-48Z" style="pointer-events: none; fill: none; opacity: 1;"></path><g><g class="mark-symbol role-legend-symbol" style="pointer-events: none;"><path transform="translate(6,6)" d="M-5,0L5,0" style="fill: none; stroke: #f58518; stroke-width: 1.5; opacity: 1;"></path></g><g class="mark-text role-legend-label" style="pointer-events: none;"><text text-anchor="start" transform="translate(16,9)" style="font-family: sans-serif; font-size: 10px; fill: #000; opacity: 1;">2022</text></g></g><path class="foreground" d="" style="pointer-events: none; display: none; fill: none;"></path></g><g transform="translate(0,26)"><path class="background" d="M0,0h48v11h-48Z" style="pointer-events: none; fill: none; opacity: 1;"></path><g><g class="mark-symbol role-legend-symbol" style="pointer-events: none;"><path transform="translate(6,6)" d="M-5,0L5,0" style="fill: none; stroke: #e45756; stroke-width: 1.5; opacity: 1;"></path></g><g class="mark-text role-legend-label" style="pointer-events: none;"><text text-anchor="start" transform="translate(16,9)" style="font-family: sans-serif; font-size: 10px; fill: #000; opacity: 1;">2023</text></g></g><path class="foreground" d="" style="pointer-events: none; display: none; fill: none;"></path></g></g></g><path class="foreground" d="" style="pointer-events: none; display: none; fill: none;"></path></g></g><g class="mark-text role-legend-title" style="pointer-events: none;"><text text-anchor="start" transform="translate(0,9)" style="font-family: sans-serif; font-size: 11px; font-weight: bold; fill: #000; opacity: 1;">Project</text></g></g><path class="foreground" d="" style="pointer-events: none; display: none; fill: none;"></path></g></g></g><path class="foreground" d="" style="display: none; fill: none;"></path></g></g></g></svg>