<svg class="marks" width="994" height="693" viewBox="0 0 994 693" version="1.1" xmlns="http://www.w3.org/2000/svg" xmlns:xlink="http://www.w3.org/1999/xlink"><rect width="994" height="693" style="fill: white;"></rect><g transform="translate(51,10)"><g class="mark-group role-frame root"><g transform="translate(0,0)"><path class="background" d="M0.5,0.5h800v600h-800Z" style="fill: none; stroke: #ddd;"></path><g><g class="mark-group role-axis"><g transform="translate(0.5,0.5)"><path class="background" d="M0,0h0v0h0Z" style="pointer-events: none; fill: none;"></path><g><g class="mark-rule role-axis-grid" style="pointer-events: none;"><line transform="translate(0,600)" x2="800" y2="0" style="fill: none; stroke: #ddd; stroke-width: 1; opacity: 1;"></line><line transform="translate(0,567)" x2="800" y2="0" style="fill: none; stroke: #ddd; stroke-width: 1; opacity: 1;"></line><line transform="translate(0,533)" x2="800" y2="0" style="fill: none; stroke: #ddd; stroke-width: 1; opacity: 1;"></line><line transform="translate(0,500)" x2="800" y2="0" style="fill: none; stroke: #ddd; stroke-width: 1; opacity: 1;"></line><line transform="translate(0,467)" x2="800" y2="0" style="fill: none; stroke: #ddd; stroke-width: 1; opacity: 1;"></line><line transform="translate(0,433)" x2="800" y2="0" style="fill: none; stroke: #ddd; stroke-width: 1; opacity: 1;"></line><line transform="translate(0,400)" x2="800" y2="0" style="fill: none; stroke: #ddd; stroke-width: 1; opacity: 1;"></line><line transform="translate(0,367)" x2="800" y2="0" style="fill: none; stroke: #ddd; stroke-width: 1; opacity: 1;"></line><line transform="translate(0,333)" x2="800" y2="0" style="fill: none; stroke: #ddd; stroke-width: 1; opacity: 1;"></line><line transform="translate(0,300)" x2="800" y2="0" style="fill: none; stroke: #ddd; stroke-width: 1; opacity: 1;"></line><line transform="translate(0,267)" x2="800" y2="0" style="fill: none; stroke: #ddd; stroke-width: 1; opacity: 1;"></line><line transform="translate(0,233)" x2="800" y2="0" style="fill: none; stroke: #ddd; stroke-width: 1; opacity: 1;"></line><line transform="translate(0,200)" x2="800" y2="0" style="fill: none; stroke: #ddd; stroke-width: 1; opacity: 1;"></line><line transform="translate(0,167)" x2="800" y2="0" style="fill: none; stroke: #ddd; stroke-width: 1; opacity: 1;"></line><line transform="translate(0,133)" x2="800" y2="0" style="fill: none; stroke: #ddd; stroke-width: 1; opacity: 1;"></line><line transform="translate(0,100)" x2="800" y2="0" style="fill: none; stroke: #ddd; stroke-width: 1; opacity: 1;"></line><line transform="translate(0,67)" x2="800" y2="0" style="fill: none; stroke: #ddd; stroke-width: 1; opacity: 1;"></line><line transform="translate(0,33)" x2="800" y2="0" style="fill: none; stroke: #ddd; stroke-width: 1; opacity: 1;"></line><line transform="translate(0,0)" x2="800" y2="0" style="fill: none; stroke: #ddd; stroke-width: 1; opacity: 1;"></line></g></g><path class="foreground" d="" style="pointer-events: none; display: none; fill: none;"></path></g></g><g class="mark-group role-axis"><g transform="translate(0.5,600.5)"><path class="background" d="M0,0h0v0h0Z" style="pointer-events: none; fill: none;"></path><g><g class="mark-rule role-axis-tick" style="pointer-events: none;"><line transform="translate(13,0)" x2="0" y2="5" style="fill: none; stroke: #888; stroke-width: 1; opacity: 1;"></line><line transform="translate(39,0)" x2="0" y2="5" style="fill: none; stroke: #888; stroke-width: 1; opacity: 1;"></line><line transform="translate(66,0)" x2="0" y2="5" style="fill: none; stroke: #888; stroke-width: 1; opacity: 1;"></line><line transform="translate(93,0)" x2="0" y2="5" style="fill: none; stroke: #888; stroke-width: 1; opacity: 1;"></line><line transform="translate(119,0)" x2="0" y2="5" style="fill: none; stroke: #888; stroke-width: 1; opacity: 1;"></line><line transform="translate(146,0)" x2="0" y2="5" style="fill: none; stroke: #888; stroke-width: 1; opacity: 1;"></line><line transform="translate(173,0)" x2="0" y2="5" style="fill: none; stroke: #888; stroke-width: 1; opacity: 1;"></line><line transform="translate(200,0)" x2="0" y2="5" style="fill: none; stroke: #888; stroke-width: 1; opacity: 1;"></line><line transform="translate(226,0)" x2="0" y2="5" style="fill: none; stroke: #888; stroke-width: 1; opacity: 1;"></line><line transform="translate(253,0)" x2="0" y2="5" style="fill: none; stroke: #888; stroke-width: 1; opacity: 1;"></line><line transform="translate(280,0)" x2="0" y2="5" style="fill: none; stroke: #888; stroke-width: 1; opacity: 1;"></line><line transform="translate(306,0)" x2="0" y2="5" style="fill: none; stroke: #888; stroke-width: 1; opacity: 1;"></line><line transform="translate(333,0)" x2="0" y2="5" style="fill: none; stroke: #888; stroke-width: 1; opacity: 1;"></line><line transform="translate(360,0)" x2="0" y2="5" style="fill: none; stroke: #888; stroke-width: 1; opacity: 1;"></line><line transform="translate(386,0)" x2="0" y2="5" style="fill: none; stroke: #888; stroke-width: 1; opacity: 1;"></line><line transform="translate(413,0)" x2="0" y2="5" style="fill: none; stroke: #888; stroke-width: 1; opacity: 1;"></line><line transform="translate(440,0)" x2="0" y2="5" style="fill: none; stroke: #888; stroke-width: 1; opacity: 1;"></line><line transform="translate(466,0)" x2="0" y2="5" style="fill: none; stroke: #888; stroke-width: 1; opacity: 1;"></line><line transform="translate(493,0)" x2="0" y2="5" style="fill: none; stroke: #888; stroke-width: 1; opacity: 1;"></line><line transform="translate(520,0)" x2="0" y2="5" style="fill: none; stroke: #888; stroke-width: 1; opacity: 1;"></line><line transform="translate(546,0)" x2="0" y2="5" style="fill: none; stroke: #888; stroke-width: 1; opacity: 1;"></line><line transform="translate(573,0)" x2="0" y2="5" style="fill: none; stroke: #888; stroke-width: 1; opacity: 1;"></line><line transform="translate(600,0)" x2="0" y2="5" style="fill: none; stroke: #888; stroke-width: 1; opacity: 1;"></line><line transform="translate(626,0)" x2="0" y2="5" style="fill: none; stroke: #888; stroke-width: 1; opacity: 1;"></line><line transform="translate(653,0)" x2="0" y2="5" style="fill: none; stroke: #888; stroke-width: 1; opacity: 1;"></line><line transform="translate(680,0)" x2="0" y2="5" style="fill: none; stroke: #888; stroke-width: 1; opacity: 1;"></line><line transform="translate(706,0)" x2="0" y2="5" style="fill: none; stroke: #888; stroke-width: 1; opacity: 1;"></line><line transform="translate(733,0)" x2="0" y2="5" style="fill: none; stroke: #888; stroke-width: 1; opacity: 1;"></line><line transform="translate(760,0)" x2="0" y2="5" style="fill: none; stroke: #888; stroke-width: 1; opacity: 1;"></line><line transform="translate(786,0)" x2="0" y2="5" style="fill: none; stroke: #888; stroke-width: 1; opacity: 1;"></line></g><g class="mark-text role-axis-label" style="pointer-events: none;"><text text-anchor="end" transform="translate(12.833333333333314,7) rotate(270) translate(0,3)" style="font-family: sans-serif; font-size: 10px; fill: #000; opacity: 1;">2021-01</text><text text-anchor="end" transform="translate(39.499999999999986,7) rotate(270) translate(0,3)" style="font-family: sans-serif; font-size: 10px; fill: #000; opacity: 1;">2021-02</text><text text-anchor="end" transform="translate(66.16666666666666,7) rotate(270) translate(0,3)" style="font-family: sans-serif; font-size: 10px; fill: #000; opacity: 1;">2021-03</text><text text-anchor="end" transform="translate(92.83333333333331,7) rotate(270) translate(0,3)" style="font-family: sans-serif; font-size: 10px; fill: #000; opacity: 1;">2021-04</text><text text-anchor="end" transform="translate(119.49999999999999,7) rotate(270) translate(0,3)" style="font-family: sans-serif; font-size: 10px; fill: #000; opacity: 1;">2021-05</text><text text-anchor="end" transform="translate(146.16666666666666,7) rotate(270) translate(0,3)" style="font-family: sans-serif; font-size: 10px; fill: #000; opacity: 1;">2021-06</text><text text-anchor="end" transform="translate(172.83333333333331,7) rotate(270) translate(0,3)" style="font-family: sans-serif; font-size: 10px; fill: #000; opacity: 1;">2021-07</text><text text-anchor="end" transform="translate(199.5,7) rotate(270) translate(0,3)" style="font-family: sans-serif; font-size: 10px; fill: #000; opacity: 1;">2021-08</text><text text-anchor="end" transform="translate(226.16666666666666,7) rotate(270) translate(0,3)" style="font-family: sans-serif; font-size: 10px; fill: #000; opacity: 1;">2021-09</text><text text-anchor="end" transform="translate(252.83333333333331,7) rotate(270) translate(0,3)" style="font-family: sans-serif; font-size: 10px; fill: #000; opacity: 1;">2021-10</text><text text-anchor="end" transform="translate(279.5,7) rotate(270) translate(0,3)" style="font-family: sans-serif; font-size: 10px; fill: #000; opacity: 1;">2021-11</text><text text-anchor="end" transform="translate(306.1666666666667,7) rotate(270) translate(0,3)" style="font-family: sans-serif; font-size: 10px; fill: #000; opacity: 1;">2021-12</text><text text-anchor="end" transform="translate(332.8333333333333,7) rotate(270) translate(0,3)" style="font-family: sans-serif; font-size: 10px; fill: #000; opacity: 1;">2022-01</text><text text-anchor="end" transform="translate(359.5,7) rotate(270) translate(0,3)" style="font-family: sans-serif; font-size: 10px; fill: #000; opacity: 1;">2022-02</text><text text-anchor="end" transform="translate(386.1666666666667,7) rotate(270) translate(0,3)" style="font-family: sans-serif; font-size: 10px; fill: #000; opacity: 1;">2022-03</text><text text-anchor="end" transform="translate(412.8333333333333,7) rotate(270) translate(0,3)" style="font-family: sans-serif; font-size: 10px; fill: #000; opacity: 1;">2022-04</text><text text-anchor="end" transform="translate(439.5,7) rotate(270) translate(0,3)" style="font-family: sans-serif; font-size: 10px; fill: #000; opacity: 1;">2022-05</text><text text-anchor="end" transform="translate(466.1666666666667,7) rotate(270) translate(0,3)" style="font-family: sans-serif; font-size: 10px; fill: #000; opacity: 1;">2022-06</text><text text-anchor="end" transform="translate(492.8333333333333,7) rotate(270) translate(0,3)" style="font-family: sans-serif; font-size: 10px; fill: #000; opacity: 1;">2022-07</text><text text-anchor="end" transform="translate(519.5,7) rotate(270) translate(0,3)" style="font-family: sans-serif; font-size: 10px; fill: #000; opacity: 1;">2022-08</text><text text-anchor="end" transform="translate(546.1666666666667,7) rotate(270) translate(0,3)" style="font-family: sans-serif; font-size: 10px; fill: #000; opacity: 1;">2022-09</text><text text-anchor="end" transform="translate(572.8333333333333,7) rotate(270) translate(0,3)" style="font-family: sans-serif; font-size: 10px; fill: #000; opacity: 1;">2022-10</text><text text-anchor="end" transform="translate(599.5,7) rotate(270) translate(0,3)" style="font-family: sans-serif; font-size: 10px; fill: #000; opacity: 1;">2022-11</text><text text-anchor="end" transform="translate(626.1666666666667,7) rotate(270) translate(0,3)" style="font-family: sans-serif; font-size: 10px; fill: #000; opacity: 1;">2022-12</text><text text-anchor="end" transform="translate(652.8333333333333,7) rotate(270) translate(0,3)" style="font-family: sans-serif; font-size: 10px; fill: #000; opacity: 1;">2023-01</text><text text-anchor="end" transform="translate(679.5,7) rotate(270) translate(0,3)" style="font-family: sans-serif; font-size: 10px; fill: #000; opacity: 1;">2023-02</text><text text-anchor="end" transform="translate(706.1666666666667,7) rotate(270) translate(0,3)" style="font-family: sans-serif; font-size: 10px; fill: #000; opacity: 1;">2023-03</text><text text-anchor="end" transform="translate(732.8333333333333,7) rotate(270) translate(0,3)" style="font-family: sans-serif; font-size: 10px; fill: #000; opacity: 1;">2023-04</text><text text-anchor="end" transform="translate(759.5,7) rotate(270) translate(0,3)" style="font-family: sans-serif; font-size: 10px; fill: #000; opacity: 1;">2023-05</text><text text-anchor="end" transform="translate(786.1666666666667,7) rotate(270) translate(0,3)" style="font-family: sans-serif; font-size: 10px; fill: #000; opacity: 1;">2023-06</text></g><g class="mark-rule role-axis-domain" style="pointer-events: none;"><line transform="translate(0,0)" x2="800" y2="0" style="fill: none; stroke: #888; stroke-width: 1; opacity: 1;"></line></g><g class="mark-text role-axis-title" style="pointer-events: none;"><text text-anchor="middle" transform="translate(400,76)" style="font-family: sans-serif; font-size: 11px; font-weight: bold; fill: #000; opacity: 1;">Date</text></g></g><path class="foreground" d="" style="pointer-events: none; display: none; fill: none;"></path></g></g><g class="mark-group role-axis"><g transform="translate(0.5,0.5)"><path class="background" d="M0,0h0v0h0Z" style="pointer-events: none; fill: none;"></path><g><g class="mark-rule role-axis-tick" style="pointer-events: none;"><line transform="translate(0,600)" x2="-5" y2="0" style="fill: none; stroke: #888; stroke-width: 1; opacity: 1;"></line><line transform="translate(0,567)" x2="-5" y2="0" style="fill: none; stroke: #888; stroke-width: 1; opacity: 1;"></line><line transform="translate(0,533)" x2="-5" y2="0" style="fill: none; stroke: #888; stroke-width: 1; opacity: 1;"></line><line transform="translate(0,500)" x2="-5" y2="0" style="fill: none; stroke: #888; stroke-width: 1; opacity: 1;"></line><line transform="translate(0,467)" x2="-5" y2="0" style="fill: none; stroke: #888; stroke-width: 1; opacity: 1;"></line><line transform="translate(0,433)" x2="-5" y2="0" style="fill: none; stroke: #888; stroke-width: 1; opacity: 1;"></line><line transform="translate(0,400)" x2="-5" y2="0" style="fill: none; stroke: #888; stroke-width: 1; opacity: 1;"></line><line transform="translate(0,367)" x2="-5" y2="0" style="fill: none; stroke: #888; stroke-width: 1; opacity: 1;"></line><line transform="translate(0,333)" x2="-5" y2="0" style="fill: none; stroke: #888; stroke-width: 1; opacity: 1;"></line><line transform="translate(0,300)" x2="-5" y2="0" style="fill: none; stroke: #888; stroke-width: 1; opacity: 1;"></line><line transform="translate(0,267)" x2="-5" y2="0" style="fill: none; stroke: #888; stroke-width: 1; opacity: 1;"></line><line transform="translate(0,233)" x2="-5" y2="0" style="fill: none; stroke: #888; stroke-width: 1; opacity: 1;"></line><line transform="translate(0,200)" x2="-5" y2="0" style="fill: none; stroke: #888; stroke-width: 1; opacity: 1;"></line><line transform="translate(0,167)" x2="-5" y2="0" style="fill: none; stroke: #888; stroke-width: 1; opacity: 1;"></line><line transform="translate(0,133)" x2="-5" y2="0" style="fill: none; stroke: #888; stroke-width: 1; opacity: 1;"></line><line transform="translate(0,100)" x2="-5" y2="0" style="fill: none; stroke: #888; stroke-width: 1; opacity: 1;"></line><line transform="translate(0,67)" x2="-5" y2="0" style="fill: none; stroke: #888; stroke-width: 1; opacity: 1;"></line><line transform="translate(0,33)" x2="-5" y2="0" style="fill: none; stroke: #888; stroke-width: 1; opacity: 1;"></line><line transform="translate(0,0)" x2="-5" y2="0" style="fill: none; stroke: #888; stroke-width: 1; opacity: 1;"></line></g><g class="mark-text role-axis-label" style="pointer-events: none;"><text text-anchor="end" transform="translate(-7,603)" style="font-family: sans-serif; font-size: 10px; fill: #000; opacity: 1;">0</text><text text-anchor="end" transform="translate(-7,569.6666666666666)" style="font-family: sans-serif; font-size: 10px; fill: #000; opacity: 1;">10</text><text text-anchor="end" transform="translate(-7,536.3333333333333)" style="font-family: sans-serif; font-size: 10px; fill: #000; opacity: 1;">20</text><text text-anchor="end" transform="translate(-7,503)" style="font-family: sans-serif; font-size: 10px; fill: #000; opacity: 1;">30</text><text text-anchor="end" transform="translate(-7,469.6666666666667)" style="font-family: sans-serif; font-size: 10px; fill: #000; opacity: 1;">40</text><text text-anchor="end" transform="translate(-7,436.3333333333333)" style="font-family: sans-serif; font-size: 10px; fill: #000; opacity: 1;">50</text><text text-anchor="end" transform="translate(-7,403.00000000000006)" style="font-family: sans-serif; font-size: 10px; fill: #000; opacity: 1;">60</text><text text-anchor="end" transform="translate(-7,369.6666666666667)" style="font-family: sans-serif; font-size: 10px; fill: #000; opacity: 1;">70</text><text text-anchor="end" transform="translate(-7,336.33333333333337)" style="font-family: sans-serif; font-size: 10px; fill: #000; opacity: 1;">80</text><text text-anchor="end" transform="translate(-7,303)" style="font-family: sans-serif; font-size: 10px; fill: #000; opacity: 1;">90</text><text text-anchor="end" transform="translate(-7,269.66666666666663)" style="font-family: sans-serif; font-size: 10px; fill: #000; opacity: 1;">100</text><text text-anchor="end" transform="translate(-7,236.33333333333331)" style="font-family: sans-serif; font-size: 10px; fill: #000; opacity: 1;">110</text><text text-anchor="end" transform="translate(-7,203.00000000000003)" style="font-family: sans-serif; font-size: 10px; fill: #000; opacity: 1;">120</text><text text-anchor="end" transform="translate(-7,169.66666666666669)" style="font-family: sans-serif; font-size: 10px; fill: #000; opacity: 1;">130</text><text text-anchor="end" transform="translate(-7,136.33333333333331)" style="font-family: sans-serif; font-size: 10px; fill: #000; opacity: 1;">140</text><text text-anchor="end" transform="translate(-7,102.99999999999997)" style="font-family: sans-serif; font-size: 10px; fill: #000; opacity: 1;">150</text><text text-anchor="end" transform="translate(-7,69.6666666666667)" style="font-family: sans-serif; font-size: 10px; fill: #000; opacity: 1;">160</text><text text-anchor="end" transform="translate(-7,36.33333333333335)" style="font-family: sans-serif; font-size: 10px; fill: #000; opacity: 1;">170</text><text text-anchor="end" transform="translate(-7,3)" style="font-family: sans-serif; font-size: 10px; fill: #000; opacity: 1;">180</text></g><g class="mark-rule role-axis-domain" style="pointer-events: none;"><line transform="translate(0,600)" x2="0" y2="-600" style="fill: none; stroke: #888; stroke-width: 1; opacity: 1;"></line></g><g class="mark-text role-axis-title" style="pointer-events: none;"><text text-anchor="middle" transform="translate(-35,300) rotate(-90) translate(0,-2)" style="font-family: sans-serif; font-size: 11px; font-weight: bold; fill: #000; opacity: 1;">Sum of Hours</text></g></g><path class="foreground" d="" style="pointer-events: none; display: none; fill: none;"></path></g></g><g class="mark-rect role-mark marks"><path d="M1.3333333333333144,243.33333333333334h24v10.000000000000028h-24Z" style="fill: #e45756;"></path><path d="M1.3333333333333144,171.66666666666666h24v71.66666666666669h-24Z" style="fill: #4c78a8;"></path><path d="M1.3333333333333144,253.33333333333337h24v198.33333333333331h-24Z" style="fill: #72b7b2;"></path><path d="M1.3333333333333144,503.33333333333337h24v70h-24Z" style="fill: #eeca3b;"></path><path d="M1.3333333333333144,451.6666666666667h24v51.666666666666686h-24Z" style="fill: #54a24b;"></path><path d="M1.3333333333333144,573.3333333333334h24v26.66666666666663h-24Z" style="fill: #ff9da6;"></path><path d="M27.999999999999982,338.3333333333333h24v63.33333333333337h-24Z" style="fill: #72b7b2;"></path><path d="M27.999999999999982,448.3333333333333h24v125.00000000000006h-24Z" style="fill: #eeca3b;"></path><path d="M27.999999999999982,245h24v93.33333333333331h-24Z" style="fill: #4c78a8;"></path><path d="M27.999999999999982,401.6666666666667h24v46.66666666666663h-24Z" style="fill: #54a24b;"></path><path d="M27.999999999999982,573.3333333333334h24v26.66666666666663h-24Z" style="fill: #ff9da6;"></path><path d="M54.66666666666665,253.33333333333337h24v41.66666666666663h-24Z" style="fill: #72b7b2;"></path><path d="M54.66666666666665,398.3333333333333h24v178.33333333333331h-24Z" style="fill: #eeca3b;"></path><path d="M54.66666666666665,163.33333333333334h24v90.00000000000003h-24Z" style="fill: #4c78a8;"></path><path d="M54.66666666666665,295h24v103.33333333333331h-24Z" style="fill: #54a24b;"></path><path d="M54.66666666666665,576.6666666666666h24v23.33333333333337h-24Z" style="fill: #b279a2;"></path><path d="M81.33333333333331,248.33333333333331h24v13.333333333333371h-24Z" style="fill: #e45756;"></path><path d="M81.33333333333331,438.33333333333337h24v116.66666666666663h-24Z" style="fill: #eeca3b;"></path><path d="M81.33333333333331,320h24v118.33333333333337h-24Z" style="fill: #54a24b;"></path><path d="M81.33333333333331,555h24v18.33333333333337h-24Z" style="fill: #b279a2;"></path><path d="M81.33333333333331,261.6666666666667h24v58.333333333333314h-24Z" style="fill: #72b7b2;"></path><path d="M81.33333333333331,170h24v78.33333333333331h-24Z" style="fill: #4c78a8;"></path><path d="M81.33333333333331,573.3333333333334h24v26.66666666666663h-24Z" style="fill: #ff9da6;"></path><path d="M107.99999999999999,450h24v125h-24Z" style="fill: #eeca3b;"></path><path d="M107.99999999999999,260h24v63.333333333333314h-24Z" style="fill: #72b7b2;"></path><path d="M107.99999999999999,323.3333333333333h24v126.66666666666669h-24Z" style="fill: #54a24b;"></path><path d="M107.99999999999999,151.66666666666666h24v108.33333333333334h-24Z" style="fill: #4c78a8;"></path><path d="M107.99999999999999,575h24v25h-24Z" style="fill: #b279a2;"></path><path d="M134.66666666666666,411.6666666666667h24v81.66666666666663h-24Z" style="fill: #eeca3b;"></path><path d="M134.66666666666666,493.3333333333333h24v80.00000000000006h-24Z" style="fill: #b279a2;"></path><path d="M134.66666666666666,241.66666666666669h24v61.66666666666663h-24Z" style="fill: #72b7b2;"></path><path d="M134.66666666666666,0h24v241.66666666666669h-24Z" style="fill: #4c78a8;"></path><path d="M134.66666666666666,303.3333333333333h24v108.33333333333337h-24Z" style="fill: #54a24b;"></path><path d="M134.66666666666666,573.3333333333334h24v26.66666666666663h-24Z" style="fill: #ff9da6;"></path><path d="M161.33333333333331,488.3333333333333h24v53.333333333333314h-24Z" style="fill: #eeca3b;"></path><path d="M161.33333333333331,131.66666666666666h24v138.33333333333334h-24Z" style="fill: #4c78a8;"></path><path d="M161.33333333333331,391.6666666666667h24v96.66666666666663h-24Z" style="fill: #54a24b;"></path><path d="M161.33333333333331,573.3333333333334h24v26.66666666666663h-24Z" style="fill: #ff9da6;"></path><path d="M161.33333333333331,280h24v111.66666666666669h-24Z" style="fill: #72b7b2;"></path><path d="M161.33333333333331,270h24v10h-24Z" style="fill: #e45756;"></path><path d="M161.33333333333331,541.6666666666666h24v31.666666666666742h-24Z" style="fill: #b279a2;"></path><path d="M188,79.99999999999999h24v48.33333333333336h-24Z" style="fill: #4c78a8;"></path><path d="M188,445h24v150h-24Z" style="fill: #eeca3b;"></path><path d="M188,135h24v196.66666666666669h-24Z" style="fill: #72b7b2;"></path><path d="M188,331.6666666666667h24v113.33333333333331h-24Z" style="fill: #54a24b;"></path><path d="M188,595h24v5h-24Z" style="fill: #b279a2;"></path><path d="M188,128.33333333333334h24v6.666666666666657h-24Z" style="fill: #e45756;"></path><path d="M214.66666666666666,566.6666666666666h24v6.6666666666667425h-24Z" style="fill: #b279a2;"></path><path d="M214.66666666666666,175.83333333333331h24v26.666666666666686h-24Z" style="fill: #e45756;"></path><path d="M214.66666666666666,483.33333333333337h24v83.33333333333326h-24Z" style="fill: #eeca3b;"></path><path d="M214.66666666666666,333.33333333333337h24v150h-24Z" style="fill: #54a24b;"></path><path d="M214.66666666666666,202.5h24v130.83333333333337h-24Z" style="fill: #72b7b2;"></path><path d="M214.66666666666666,85.83333333333336h24v89.99999999999996h-24Z" style="fill: #4c78a8;"></path><path d="M214.66666666666666,573.3333333333334h24v26.66666666666663h-24Z" style="fill: #ff9da6;"></path><path d="M241.33333333333331,238.33333333333334h24v40.00000000000003h-24Z" style="fill: #4c78a8;"></path><path d="M241.33333333333331,293.33333333333337h24v79.99999999999994h-24Z" style="fill: #72b7b2;"></path><path d="M241.33333333333331,373.3333333333333h24v66.66666666666674h-24Z" style="fill: #54a24b;"></path><path d="M241.33333333333331,278.33333333333337h24v15h-24Z" style="fill: #e45756;"></path><path d="M241.33333333333331,440.00000000000006h24v159.99999999999994h-24Z" style="fill: #eeca3b;"></path><path d="M268,289.99999999999994h24v193.33333333333343h-24Z" style="fill: #eeca3b;"></path><path d="M268,91.66666666666667h24v24.999999999999986h-24Z" style="fill: #e45756;"></path><path d="M268,200.00000000000003h24v89.99999999999991h-24Z" style="fill: #54a24b;"></path><path d="M268,64.99999999999997h24v26.6666666666667h-24Z" style="fill: #4c78a8;"></path><path d="M268,116.66666666666666h24v83.33333333333337h-24Z" style="fill: #72b7b2;"></path><path d="M268,483.33333333333337h24v9.999999999999943h-24Z" style="fill: #b279a2;"></path><path d="M268,493.3333333333333h24v106.66666666666669h-24Z" style="fill: #ff9da6;"></path><path d="M294.6666666666667,98.33333333333331h24v115h-24Z" style="fill: #54a24b;"></path><path d="M294.6666666666667,213.33333333333331h24v173.33333333333331h-24Z" style="fill: #eeca3b;"></path><path d="M294.6666666666667,23.333333333333318h24v13.333333333333353h-24Z" style="fill: #4c78a8;"></path><path d="M294.6666666666667,76.66666666666666h24v21.666666666666657h-24Z" style="fill: #72b7b2;"></path><path d="M294.6666666666667,36.66666666666667h24v39.999999999999986h-24Z" style="fill: #e45756;"></path><path d="M294.6666666666667,386.66666666666663h24v213.33333333333337h-24Z" style="fill: #ff9da6;"></path><path d="M321.3333333333333,193.33333333333331h24v11.666666666666686h-24Z" style="fill: #e45756;"></path><path d="M321.3333333333333,258.33333333333337h24v56.66666666666663h-24Z" style="fill: #54a24b;"></path><path d="M321.3333333333333,315h24v233.33333333333337h-24Z" style="fill: #eeca3b;"></path><path d="M321.3333333333333,205h24v53.33333333333337h-24Z" style="fill: #72b7b2;"></path><path d="M321.3333333333333,548.3333333333334h24v25h-24Z" style="fill: #b279a2;"></path><path d="M321.3333333333333,183.33333333333334h24v9.999999999999972h-24Z" style="fill: #4c78a8;"></path><path d="M321.3333333333333,573.3333333333334h24v26.66666666666663h-24Z" style="fill: #ff9da6;"></path><path d="M348,510h24v41.66666666666663h-24Z" style="fill: #eeca3b;"></path><path d="M348,160.00000000000003h24v76.66666666666666h-24Z" style="fill: #4c78a8;"></path><path d="M348,383.3333333333333h24v126.66666666666669h-24Z" style="fill: #54a24b;"></path><path d="M348,276.6666666666667h24v106.66666666666663h-24Z" style="fill: #72b7b2;"></path><path d="M348,236.66666666666669h24v40h-24Z" style="fill: #e45756;"></path><path d="M348,551.6666666666666h24v21.666666666666742h-24Z" style="fill: #b279a2;"></path><path d="M348,573.3333333333334h24v26.66666666666663h-24Z" style="fill: #ff9da6;"></path><path d="M374.6666666666667,214.99999999999997h24v150.00000000000009h-24Z" style="fill: #72b7b2;"></path><path d="M374.6666666666667,365.00000000000006h24v144.99999999999994h-24Z" style="fill: #54a24b;"></path><path d="M374.6666666666667,205h24v9.999999999999972h-24Z" style="fill: #e45756;"></path><path d="M374.6666666666667,101.66666666666664h24v103.33333333333336h-24Z" style="fill: #4c78a8;"></path><path d="M374.6666666666667,510h24v65h-24Z" style="fill: #eeca3b;"></path><path d="M374.6666666666667,575h24v25h-24Z" style="fill: #b279a2;"></path><path d="M401.3333333333333,311.66666666666663h24v155.00000000000006h-24Z" style="fill: #72b7b2;"></path><path d="M401.3333333333333,500h24v70h-24Z" style="fill: #eeca3b;"></path><path d="M401.3333333333333,570h24v3.3333333333333712h-24Z" style="fill: #b279a2;"></path><path d="M401.3333333333333,466.6666666666667h24v33.333333333333314h-24Z" style="fill: #54a24b;"></path><path d="M401.3333333333333,573.3333333333334h24v26.66666666666663h-24Z" style="fill: #ff9da6;"></path><path d="M401.3333333333333,278.33333333333337h24v33.33333333333326h-24Z" style="fill: #e45756;"></path><path d="M401.3333333333333,270h24v8.333333333333371h-24Z" style="fill: #4c78a8;"></path><path d="M428,298.3333333333333h24v8.333333333333314h-24Z" style="fill: #e45756;"></path><path d="M428,483.33333333333337h24v88.33333333333326h-24Z" style="fill: #eeca3b;"></path><path d="M428,420h24v63.33333333333337h-24Z" style="fill: #54a24b;"></path><path d="M428,306.66666666666663h24v113.33333333333337h-24Z" style="fill: #72b7b2;"></path><path d="M428,285h24v13.333333333333314h-24Z" style="fill: #4c78a8;"></path><path d="M428,571.6666666666666h24v1.6666666666667425h-24Z" style="fill: #b279a2;"></path><path d="M428,573.3333333333334h24v26.66666666666663h-24Z" style="fill: #ff9da6;"></path><path d="M454.6666666666667,164.16666666666669h24v23.333333333333314h-24Z" style="fill: #e45756;"></path><path d="M454.6666666666667,187.5h24v230.83333333333331h-24Z" style="fill: #72b7b2;"></path><path d="M454.6666666666667,418.3333333333333h24v93.33333333333331h-24Z" style="fill: #54a24b;"></path><path d="M454.6666666666667,511.66666666666663h24v61.66666666666674h-24Z" style="fill: #eeca3b;"></path><path d="M454.6666666666667,125.00000000000003h24v39.16666666666666h-24Z" style="fill: #4c78a8;"></path><path d="M454.6666666666667,573.3333333333334h24v26.66666666666663h-24Z" style="fill: #ff9da6;"></path><path d="M481.3333333333333,558.3333333333334h24v15h-24Z" style="fill: #eeca3b;"></path><path d="M481.3333333333333,573.3333333333334h24v26.66666666666663h-24Z" style="fill: #ff9da6;"></path><path d="M481.3333333333333,316.6666666666667h24v186.66666666666669h-24Z" style="fill: #72b7b2;"></path><path d="M481.3333333333333,503.33333333333337h24v55h-24Z" style="fill: #54a24b;"></path><path d="M481.3333333333333,283.3333333333333h24v33.33333333333337h-24Z" style="fill: #e45756;"></path><path d="M481.3333333333333,280h24v3.3333333333333144h-24Z" style="fill: #4c78a8;"></path><path d="M508,241.66666666666669h24v50h-24Z" style="fill: #e45756;"></path><path d="M508,420h24v128.33333333333337h-24Z" style="fill: #54a24b;"></path><path d="M508,291.6666666666667h24v128.33333333333331h-24Z" style="fill: #72b7b2;"></path><path d="M508,563.3333333333334h24v36.66666666666663h-24Z" style="fill: #b279a2;"></path><path d="M508,235.00000000000003h24v6.666666666666657h-24Z" style="fill: #4c78a8;"></path><path d="M508,548.3333333333334h24v15h-24Z" style="fill: #eeca3b;"></path><path d="M534.6666666666667,271.66666666666663h24v183.33333333333337h-24Z" style="fill: #72b7b2;"></path><path d="M534.6666666666667,573.3333333333334h24v26.66666666666663h-24Z" style="fill: #ff9da6;"></path><path d="M534.6666666666667,540h24v33.33333333333337h-24Z" style="fill: #eeca3b;"></path><path d="M534.6666666666667,455h24v85h-24Z" style="fill: #54a24b;"></path><path d="M534.6666666666667,245h24v13.333333333333371h-24Z" style="fill: #4c78a8;"></path><path d="M534.6666666666667,258.33333333333337h24v13.333333333333258h-24Z" style="fill: #e45756;"></path><path d="M561.3333333333333,260h24v16.666666666666686h-24Z" style="fill: #4c78a8;"></path><path d="M561.3333333333333,493.3333333333333h24v78.33333333333331h-24Z" style="fill: #54a24b;"></path><path d="M561.3333333333333,585h24v15h-24Z" style="fill: #b279a2;"></path><path d="M561.3333333333333,296.6666666666667h24v196.66666666666663h-24Z" style="fill: #72b7b2;"></path><path d="M561.3333333333333,571.6666666666666h24v13.333333333333371h-24Z" style="fill: #eeca3b;"></path><path d="M561.3333333333333,276.6666666666667h24v20h-24Z" style="fill: #e45756;"></path><path d="M588,210h24v211.66666666666663h-24Z" style="fill: #72b7b2;"></path><path d="M588,200.00000000000003h24v9.999999999999972h-24Z" style="fill: #e45756;"></path><path d="M588,181.66666666666669h24v18.333333333333343h-24Z" style="fill: #4c78a8;"></path><path d="M588,421.66666666666663h24v66.66666666666669h-24Z" style="fill: #54a24b;"></path><path d="M588,488.3333333333333h24v5h-24Z" style="fill: #eeca3b;"></path><path d="M588,493.3333333333333h24v106.66666666666669h-24Z" style="fill: #ff9da6;"></path><path d="M614.6666666666667,388.33333333333326h24v146.66666666666674h-24Z" style="fill: #54a24b;"></path><path d="M614.6666666666667,320h24v68.33333333333326h-24Z" style="fill: #72b7b2;"></path><path d="M614.6666666666667,535h24v11.666666666666629h-24Z" style="fill: #eeca3b;"></path><path d="M614.6666666666667,546.6666666666666h24v53.33333333333337h-24Z" style="fill: #ff9da6;"></path><path d="M641.3333333333333,553.3333333333334h24v46.66666666666663h-24Z" style="fill: #ff9da6;"></path><path d="M641.3333333333333,416.66666666666663h24v100.00000000000011h-24Z" style="fill: #54a24b;"></path><path d="M641.3333333333333,223.33333333333334h24v18.333333333333343h-24Z" style="fill: #e45756;"></path><path d="M641.3333333333333,241.66666666666669h24v174.99999999999994h-24Z" style="fill: #72b7b2;"></path><path d="M641.3333333333333,540h24v13.333333333333371h-24Z" style="fill: #b279a2;"></path><path d="M641.3333333333333,516.6666666666667h24v23.333333333333258h-24Z" style="fill: #eeca3b;"></path><path d="M668,311.66666666666663h24v145h-24Z" style="fill: #72b7b2;"></path><path d="M668,456.66666666666663h24v108.33333333333337h-24Z" style="fill: #54a24b;"></path><path d="M668,281.6666666666667h24v3.3333333333333144h-24Z" style="fill: #4c78a8;"></path><path d="M668,578.3333333333334h24v5h-24Z" style="fill: #b279a2;"></path><path d="M668,285h24v26.66666666666663h-24Z" style="fill: #e45756;"></path><path d="M668,565h24v13.333333333333371h-24Z" style="fill: #eeca3b;"></path><path d="M668,583.3333333333334h24v16.66666666666663h-24Z" style="fill: #ff9da6;"></path><path d="M694.6666666666667,380.8333333333333h24v184.16666666666669h-24Z" style="fill: #54a24b;"></path><path d="M694.6666666666667,249.16666666666666h24v131.66666666666666h-24Z" style="fill: #72b7b2;"></path><path d="M694.6666666666667,566.6666666666666h24v33.33333333333337h-24Z" style="fill: #b279a2;"></path><path d="M694.6666666666667,221.66666666666669h24v27.49999999999997h-24Z" style="fill: #e45756;"></path><path d="M694.6666666666667,565h24v1.6666666666666288h-24Z" style="fill: #eeca3b;"></path><path d="M694.6666666666667,218.33333333333337h24v3.3333333333333144h-24Z" style="fill: #4c78a8;"></path><path d="M721.3333333333333,467.5h24v84.16666666666663h-24Z" style="fill: #54a24b;"></path><path d="M721.3333333333333,395h24v11.666666666666686h-24Z" style="fill: #e45756;"></path><path d="M721.3333333333333,551.6666666666666h24v16.66666666666663h-24Z" style="fill: #eeca3b;"></path><path d="M721.3333333333333,406.6666666666667h24v60.833333333333314h-24Z" style="fill: #72b7b2;"></path><path d="M721.3333333333333,568.3333333333333h24v15.000000000000114h-24Z" style="fill: #b279a2;"></path><path d="M721.3333333333333,583.3333333333334h24v16.66666666666663h-24Z" style="fill: #ff9da6;"></path><path d="M721.3333333333333,393.3333333333333h24v1.6666666666666856h-24Z" style="fill: #f58518;"></path><path d="M748,445h24v88.33333333333326h-24Z" style="fill: #54a24b;"></path><path d="M748,289.99999999999994h24v155.00000000000006h-24Z" style="fill: #72b7b2;"></path><path d="M748,268.3333333333333h24v21.66666666666663h-24Z" style="fill: #e45756;"></path><path d="M748,540h24v43.33333333333337h-24Z" style="fill: #b279a2;"></path><path d="M748,266.66666666666663h24v1.6666666666666856h-24Z" style="fill: #f58518;"></path><path d="M748,533.3333333333333h24v6.6666666666667425h-24Z" style="fill: #eeca3b;"></path><path d="M748,583.3333333333334h24v16.66666666666663h-24Z" style="fill: #ff9da6;"></path><path d="M774.6666666666667,560h24v40h-24Z" style="fill: #54a24b;"></path><path d="M774.6666666666667,553.3333333333334h24v6.666666666666629h-24Z" style="fill: #72b7b2;"></path></g><g class="mark-group role-legend"><g transform="translate(818,0)"><path class="background" d="M0,0h120v118h-120Z" style="pointer-events: none; fill: none;"></path><g><g class="mark-group role-legend-entry"><g transform="translate(0,16)"><path class="background" d="M0,0h0v0h0Z" style="pointer-events: none; fill: none;"></path><g><g class="mark-group role-scope"><g transform="translate(0,0)"><path class="background" d="M0,0h120v11h-120Z" style="pointer-events: none; fill: none; opacity: 1;"></path><g><g class="mark-symbol role-legend-symbol" style="pointer-events: none;"><path transform="translate(6,6)" d="M-5,-5h10v10h-10Z" style="fill: #4c78a8; stroke-width: 1.5; opacity: 1;"></path></g><g class="mark-text role-legend-label" style="pointer-events: none;"><text text-anchor="start" transform="translate(16,9)" style="font-family: sans-serif; font-size: 10px; fill: #000; opacity: 1;">APOLLO</text></g></g><path class="foreground" d="" style="pointer-events: none; display: none; fill: none;"></path></g><g transform="translate(0,13)"><path class="background" d="M0,0h120v11h-120Z" style="pointer-events: none; fill: none; opacity: 1;"></path><g><g class="mark-symbol role-legend-symbol" style="pointer-events: none;"><path transform="translate(6,6)" d="M-5,-5h10v10h-10Z" style="fill: #f58518; stroke-width: 1.5; opacity: 1;"></path></g><g class="mark-text role-legend-label" style="pointer-events: none;"><text text-anchor="start" transform="translate(16,9)" style="font-family: sans-serif; font-size: 10px; fill: #000; opacity: 1;">CMS-PIXEL-DTC</text></g></g><path class="foreground" d="" style="pointer-events: none; display: none; fill: none;"></path></g><g transform="translate(0,26)"><path class="background" d="M0,0h120v11h-120Z" style="pointer-events: none; fill: none; opacity: 1;"></path><g><g class="mark-symbol role-legend-symbol" style="pointer-events: none;"><path transform="translate(6,6)" d="M-5,-5h10v10h-10Z" style="fill: #e45756; stroke-width: 1.5; opacity: 1;"></path></g><g class="mark-text role-legend-label" style="pointer-events: none;"><text text-anchor="start" transform="translate(16,9)" style="font-family: sans-serif; font-size: 10px; fill: #000; opacity: 1;">EDF</text></g></g><path class="foreground" d="" style="pointer-events: none; display: none; fill: none;"></path></g><g transform="translate(0,39)"><path class="background" d="M0,0h120v11h-120Z" style="pointer-events: none; fill: none; opacity: 1;"></path><g><g class="mark-symbol role-legend-symbol" style="pointer-events: none;"><path transform="translate(6,6)" d="M-5,-5h10v10h-10Z" style="fill: #72b7b2; stroke-width: 1.5; opacity: 1;"></path></g><g class="mark-text role-legend-label" style="pointer-events: none;"><text text-anchor="start" transform="translate(16,9)" style="font-family: sans-serif; font-size: 10px; fill: #000; opacity: 1;">ETL</text></g></g><path class="foreground" d="" style="pointer-events: none; display: none; fill: none;"></path></g><g transform="translate(0,52)"><path class="background" d="M0,0h120v11h-120Z" style="pointer-events: none; fill: none; opacity: 1;"></path><g><g class="mark-symbol role-legend-symbol" style="pointer-events: none;"><path transform="translate(6,6)" d="M-5,-5h10v10h-10Z" style="fill: #54a24b; stroke-width: 1.5; opacity: 1;"></path></g><g class="mark-text role-legend-label" style="pointer-events: none;"><text text-anchor="start" transform="translate(16,9)" style="font-family: sans-serif; font-size: 10px; fill: #000; opacity: 1;">GEM</text></g></g><path class="foreground" d="" style="pointer-events: none; display: none; fill: none;"></path></g><g transform="translate(0,65)"><path class="background" d="M0,0h120v11h-120Z" style="pointer-events: none; fill: none; opacity: 1;"></path><g><g class="mark-symbol role-legend-symbol" style="pointer-events: none;"><path transform="translate(6,6)" d="M-5,-5h10v10h-10Z" style="fill: #eeca3b; stroke-width: 1.5; opacity: 1;"></path></g><g class="mark-text role-legend-label" style="pointer-events: none;"><text text-anchor="start" transform="translate(16,9)" style="font-family: sans-serif; font-size: 10px; fill: #000; opacity: 1;">L0MDT</text></g></g><path class="foreground" d="" style="pointer-events: none; display: none; fill: none;"></path></g><g transform="translate(0,78)"><path class="background" d="M0,0h120v11h-120Z" style="pointer-events: none; fill: none; opacity: 1;"></path><g><g class="mark-symbol role-legend-symbol" style="pointer-events: none;"><path transform="translate(6,6)" d="M-5,-5h10v10h-10Z" style="fill: #b279a2; stroke-width: 1.5; opacity: 1;"></path></g><g class="mark-text role-legend-label" style="pointer-events: none;"><text text-anchor="start" transform="translate(16,9)" style="font-family: sans-serif; font-size: 10px; fill: #000; opacity: 1;">OTHER PRJ</text></g></g><path class="foreground" d="" style="pointer-events: none; display: none; fill: none;"></path></g><g transform="translate(0,91)"><path class="background" d="M0,0h120v11h-120Z" style="pointer-events: none; fill: none; opacity: 1;"></path><g><g class="mark-symbol role-legend-symbol" style="pointer-events: none;"><path transform="translate(6,6)" d="M-5,-5h10v10h-10Z" style="fill: #ff9da6; stroke-width: 1.5; opacity: 1;"></path></g><g class="mark-text role-legend-label" style="pointer-events: none;"><text text-anchor="start" transform="translate(16,9)" style="font-family: sans-serif; font-size: 10px; fill: #000; opacity: 1;">VAC/SICK/HOL</text></g></g><path class="foreground" d="" style="pointer-events: none; display: none; fill: none;"></path></g></g></g><path class="foreground" d="" style="pointer-events: none; display: none; fill: none;"></path></g></g><g class="mark-text role-legend-title" style="pointer-events: none;"><text text-anchor="start" transform="translate(0,9)" style="font-family: sans-serif; font-size: 11px; font-weight: bold; fill: #000; opacity: 1;">Project</text></g></g><path class="foreground" d="" style="pointer-events: none; display: none; fill: none;"></path></g></g></g><path class="foreground" d="" style="display: none; fill: none;"></path></g></g></g></svg>