<svg class="marks" width="952" height="653" viewBox="0 0 952 653" version="1.1" xmlns="http://www.w3.org/2000/svg" xmlns:xlink="http://www.w3.org/1999/xlink"><rect width="952" height="653" style="fill: white;"></rect><g transform="translate(67,10)"><g class="mark-group role-frame root"><g transform="translate(0,0)"><path class="background" d="M0.5,0.5h800v600h-800Z" style="fill: none; stroke: #ddd;"></path><g><g class="mark-group role-axis"><g transform="translate(0.5,0.5)"><path class="background" d="M0,0h0v0h0Z" style="pointer-events: none; fill: none;"></path><g><g class="mark-rule role-axis-grid" style="pointer-events: none;"><line transform="translate(0,600)" x2="800" y2="0" style="fill: none; stroke: #ddd; stroke-width: 1; opacity: 1;"></line><line transform="translate(0,567)" x2="800" y2="0" style="fill: none; stroke: #ddd; stroke-width: 1; opacity: 1;"></line><line transform="translate(0,533)" x2="800" y2="0" style="fill: none; stroke: #ddd; stroke-width: 1; opacity: 1;"></line><line transform="translate(0,500)" x2="800" y2="0" style="fill: none; stroke: #ddd; stroke-width: 1; opacity: 1;"></line><line transform="translate(0,467)" x2="800" y2="0" style="fill: none; stroke: #ddd; stroke-width: 1; opacity: 1;"></line><line transform="translate(0,433)" x2="800" y2="0" style="fill: none; stroke: #ddd; stroke-width: 1; opacity: 1;"></line><line transform="translate(0,400)" x2="800" y2="0" style="fill: none; stroke: #ddd; stroke-width: 1; opacity: 1;"></line><line transform="translate(0,367)" x2="800" y2="0" style="fill: none; stroke: #ddd; stroke-width: 1; opacity: 1;"></line><line transform="translate(0,333)" x2="800" y2="0" style="fill: none; stroke: #ddd; stroke-width: 1; opacity: 1;"></line><line transform="translate(0,300)" x2="800" y2="0" style="fill: none; stroke: #ddd; stroke-width: 1; opacity: 1;"></line><line transform="translate(0,267)" x2="800" y2="0" style="fill: none; stroke: #ddd; stroke-width: 1; opacity: 1;"></line><line transform="translate(0,233)" x2="800" y2="0" style="fill: none; stroke: #ddd; stroke-width: 1; opacity: 1;"></line><line transform="translate(0,200)" x2="800" y2="0" style="fill: none; stroke: #ddd; stroke-width: 1; opacity: 1;"></line><line transform="translate(0,167)" x2="800" y2="0" style="fill: none; stroke: #ddd; stroke-width: 1; opacity: 1;"></line><line transform="translate(0,133)" x2="800" y2="0" style="fill: none; stroke: #ddd; stroke-width: 1; opacity: 1;"></line><line transform="translate(0,100)" x2="800" y2="0" style="fill: none; stroke: #ddd; stroke-width: 1; opacity: 1;"></line><line transform="translate(0,67)" x2="800" y2="0" style="fill: none; stroke: #ddd; stroke-width: 1; opacity: 1;"></line><line transform="translate(0,33)" x2="800" y2="0" style="fill: none; stroke: #ddd; stroke-width: 1; opacity: 1;"></line><line transform="translate(0,0)" x2="800" y2="0" style="fill: none; stroke: #ddd; stroke-width: 1; opacity: 1;"></line></g></g><path class="foreground" d="" style="pointer-events: none; display: none; fill: none;"></path></g></g><g class="mark-group role-axis"><g transform="translate(0.5,600.5)"><path class="background" d="M0,0h0v0h0Z" style="pointer-events: none; fill: none;"></path><g><g class="mark-rule role-axis-tick" style="pointer-events: none;"><line transform="translate(9,0)" x2="0" y2="5" style="fill: none; stroke: #888; stroke-width: 1; opacity: 1;"></line><line transform="translate(77,0)" x2="0" y2="5" style="fill: none; stroke: #888; stroke-width: 1; opacity: 1;"></line><line transform="translate(147,0)" x2="0" y2="5" style="fill: none; stroke: #888; stroke-width: 1; opacity: 1;"></line><line transform="translate(225,0)" x2="0" y2="5" style="fill: none; stroke: #888; stroke-width: 1; opacity: 1;"></line><line transform="translate(293,0)" x2="0" y2="5" style="fill: none; stroke: #888; stroke-width: 1; opacity: 1;"></line><line transform="translate(351,0)" x2="0" y2="5" style="fill: none; stroke: #888; stroke-width: 1; opacity: 1;"></line><line transform="translate(416,0)" x2="0" y2="5" style="fill: none; stroke: #888; stroke-width: 1; opacity: 1;"></line><line transform="translate(484,0)" x2="0" y2="5" style="fill: none; stroke: #888; stroke-width: 1; opacity: 1;"></line><line transform="translate(550,0)" x2="0" y2="5" style="fill: none; stroke: #888; stroke-width: 1; opacity: 1;"></line><line transform="translate(615,0)" x2="0" y2="5" style="fill: none; stroke: #888; stroke-width: 1; opacity: 1;"></line><line transform="translate(668,0)" x2="0" y2="5" style="fill: none; stroke: #888; stroke-width: 1; opacity: 1;"></line><line transform="translate(733,0)" x2="0" y2="5" style="fill: none; stroke: #888; stroke-width: 1; opacity: 1;"></line></g><g class="mark-text role-axis-label" style="pointer-events: none;"><text text-anchor="end" transform="translate(8.805031446540893,7) rotate(270) translate(0,3)" style="font-family: sans-serif; font-size: 10px; fill: #000; opacity: 1;">1</text><text text-anchor="end" transform="translate(76.72955974842768,7) rotate(270) translate(0,3)" style="font-family: sans-serif; font-size: 10px; fill: #000; opacity: 1;">2</text><text text-anchor="end" transform="translate(147.16981132075472,7) rotate(270) translate(0,3)" style="font-family: sans-serif; font-size: 10px; fill: #000; opacity: 1;">3</text><text text-anchor="end" transform="translate(225.15723270440253,7) rotate(270) translate(0,3)" style="font-family: sans-serif; font-size: 10px; fill: #000; opacity: 1;">4</text><text text-anchor="end" transform="translate(293.0817610062893,7) rotate(270) translate(0,3)" style="font-family: sans-serif; font-size: 10px; fill: #000; opacity: 1;">5</text><text text-anchor="end" transform="translate(350.9433962264151,7) rotate(270) translate(0,3)" style="font-family: sans-serif; font-size: 10px; fill: #000; opacity: 1;">6</text><text text-anchor="end" transform="translate(416.3522012578616,7) rotate(270) translate(0,3)" style="font-family: sans-serif; font-size: 10px; fill: #000; opacity: 1;">7</text><text text-anchor="end" transform="translate(484.27672955974845,7) rotate(270) translate(0,3)" style="font-family: sans-serif; font-size: 10px; fill: #000; opacity: 1;">8</text><text text-anchor="end" transform="translate(549.6855345911949,7) rotate(270) translate(0,3)" style="font-family: sans-serif; font-size: 10px; fill: #000; opacity: 1;">9</text><text text-anchor="end" transform="translate(615.0943396226415,7) rotate(270) translate(0,3)" style="font-family: sans-serif; font-size: 10px; fill: #000; opacity: 1;">10</text><text text-anchor="end" transform="translate(667.9245283018868,7) rotate(270) translate(0,3)" style="font-family: sans-serif; font-size: 10px; fill: #000; opacity: 1;">11</text><text text-anchor="end" transform="translate(733.3333333333333,7) rotate(270) translate(0,3)" style="font-family: sans-serif; font-size: 10px; fill: #000; opacity: 1;">12</text></g><g class="mark-rule role-axis-domain" style="pointer-events: none;"><line transform="translate(0,0)" x2="800" y2="0" style="fill: none; stroke: #888; stroke-width: 1; opacity: 1;"></line></g><g class="mark-text role-axis-title" style="pointer-events: none;"><text text-anchor="middle" transform="translate(400,36)" style="font-family: sans-serif; font-size: 11px; font-weight: bold; fill: #000; opacity: 1;">Date</text></g></g><path class="foreground" d="" style="pointer-events: none; display: none; fill: none;"></path></g></g><g class="mark-group role-axis"><g transform="translate(0.5,0.5)"><path class="background" d="M0,0h0v0h0Z" style="pointer-events: none; fill: none;"></path><g><g class="mark-rule role-axis-tick" style="pointer-events: none;"><line transform="translate(0,600)" x2="-5" y2="0" style="fill: none; stroke: #888; stroke-width: 1; opacity: 1;"></line><line transform="translate(0,567)" x2="-5" y2="0" style="fill: none; stroke: #888; stroke-width: 1; opacity: 1;"></line><line transform="translate(0,533)" x2="-5" y2="0" style="fill: none; stroke: #888; stroke-width: 1; opacity: 1;"></line><line transform="translate(0,500)" x2="-5" y2="0" style="fill: none; stroke: #888; stroke-width: 1; opacity: 1;"></line><line transform="translate(0,467)" x2="-5" y2="0" style="fill: none; stroke: #888; stroke-width: 1; opacity: 1;"></line><line transform="translate(0,433)" x2="-5" y2="0" style="fill: none; stroke: #888; stroke-width: 1; opacity: 1;"></line><line transform="translate(0,400)" x2="-5" y2="0" style="fill: none; stroke: #888; stroke-width: 1; opacity: 1;"></line><line transform="translate(0,367)" x2="-5" y2="0" style="fill: none; stroke: #888; stroke-width: 1; opacity: 1;"></line><line transform="translate(0,333)" x2="-5" y2="0" style="fill: none; stroke: #888; stroke-width: 1; opacity: 1;"></line><line transform="translate(0,300)" x2="-5" y2="0" style="fill: none; stroke: #888; stroke-width: 1; opacity: 1;"></line><line transform="translate(0,267)" x2="-5" y2="0" style="fill: none; stroke: #888; stroke-width: 1; opacity: 1;"></line><line transform="translate(0,233)" x2="-5" y2="0" style="fill: none; stroke: #888; stroke-width: 1; opacity: 1;"></line><line transform="translate(0,200)" x2="-5" y2="0" style="fill: none; stroke: #888; stroke-width: 1; opacity: 1;"></line><line transform="translate(0,167)" x2="-5" y2="0" style="fill: none; stroke: #888; stroke-width: 1; opacity: 1;"></line><line transform="translate(0,133)" x2="-5" y2="0" style="fill: none; stroke: #888; stroke-width: 1; opacity: 1;"></line><line transform="translate(0,100)" x2="-5" y2="0" style="fill: none; stroke: #888; stroke-width: 1; opacity: 1;"></line><line transform="translate(0,67)" x2="-5" y2="0" style="fill: none; stroke: #888; stroke-width: 1; opacity: 1;"></line><line transform="translate(0,33)" x2="-5" y2="0" style="fill: none; stroke: #888; stroke-width: 1; opacity: 1;"></line><line transform="translate(0,0)" x2="-5" y2="0" style="fill: none; stroke: #888; stroke-width: 1; opacity: 1;"></line></g><g class="mark-text role-axis-label" style="pointer-events: none;"><text text-anchor="end" transform="translate(-7,603)" style="font-family: sans-serif; font-size: 10px; fill: #000; opacity: 1;">0</text><text text-anchor="end" transform="translate(-7,569.6666666666666)" style="font-family: sans-serif; font-size: 10px; fill: #000; opacity: 1;">100</text><text text-anchor="end" transform="translate(-7,536.3333333333333)" style="font-family: sans-serif; font-size: 10px; fill: #000; opacity: 1;">200</text><text text-anchor="end" transform="translate(-7,503)" style="font-family: sans-serif; font-size: 10px; fill: #000; opacity: 1;">300</text><text text-anchor="end" transform="translate(-7,469.6666666666667)" style="font-family: sans-serif; font-size: 10px; fill: #000; opacity: 1;">400</text><text text-anchor="end" transform="translate(-7,436.3333333333333)" style="font-family: sans-serif; font-size: 10px; fill: #000; opacity: 1;">500</text><text text-anchor="end" transform="translate(-7,403.00000000000006)" style="font-family: sans-serif; font-size: 10px; fill: #000; opacity: 1;">600</text><text text-anchor="end" transform="translate(-7,369.6666666666667)" style="font-family: sans-serif; font-size: 10px; fill: #000; opacity: 1;">700</text><text text-anchor="end" transform="translate(-7,336.33333333333337)" style="font-family: sans-serif; font-size: 10px; fill: #000; opacity: 1;">800</text><text text-anchor="end" transform="translate(-7,303)" style="font-family: sans-serif; font-size: 10px; fill: #000; opacity: 1;">900</text><text text-anchor="end" transform="translate(-7,269.66666666666663)" style="font-family: sans-serif; font-size: 10px; fill: #000; opacity: 1;">1,000</text><text text-anchor="end" transform="translate(-7,236.33333333333331)" style="font-family: sans-serif; font-size: 10px; fill: #000; opacity: 1;">1,100</text><text text-anchor="end" transform="translate(-7,203.00000000000003)" style="font-family: sans-serif; font-size: 10px; fill: #000; opacity: 1;">1,200</text><text text-anchor="end" transform="translate(-7,169.66666666666669)" style="font-family: sans-serif; font-size: 10px; fill: #000; opacity: 1;">1,300</text><text text-anchor="end" transform="translate(-7,136.33333333333331)" style="font-family: sans-serif; font-size: 10px; fill: #000; opacity: 1;">1,400</text><text text-anchor="end" transform="translate(-7,102.99999999999997)" style="font-family: sans-serif; font-size: 10px; fill: #000; opacity: 1;">1,500</text><text text-anchor="end" transform="translate(-7,69.6666666666667)" style="font-family: sans-serif; font-size: 10px; fill: #000; opacity: 1;">1,600</text><text text-anchor="end" transform="translate(-7,36.33333333333335)" style="font-family: sans-serif; font-size: 10px; fill: #000; opacity: 1;">1,700</text><text text-anchor="end" transform="translate(-7,3)" style="font-family: sans-serif; font-size: 10px; fill: #000; opacity: 1;">1,800</text></g><g class="mark-rule role-axis-domain" style="pointer-events: none;"><line transform="translate(0,600)" x2="0" y2="-600" style="fill: none; stroke: #888; stroke-width: 1; opacity: 1;"></line></g><g class="mark-text role-axis-title" style="pointer-events: none;"><text text-anchor="middle" transform="translate(-51,300) rotate(-90) translate(0,-2)" style="font-family: sans-serif; font-size: 11px; font-weight: bold; fill: #000; opacity: 1;">Sum of Hours</text></g></g><path class="foreground" d="" style="pointer-events: none; display: none; fill: none;"></path></g></g><g class="mark-group role-scope pathgroup"><g transform="translate(0,0)"><path class="background" d="M0,0h800v600h-800Z" style="fill: none;"></path><g><g class="mark-line role-mark marks"><path d="M8.805031446540893,599.3333333333334L11.320754716981144,597L13.836477987421395,594.8333333333334L16.352201257861648,593.3333333333334L23.8993710691824,591.6666666666667L26.41509433962265,589.6666666666666L28.930817610062903,587.6666666666666L31.446540880503157,584.8333333333334L33.962264150943405,582.1666666666666L41.50943396226416,579.5L44.025157232704416,577L46.54088050314466,573.5L49.05660377358492,571L51.572327044025165,568.8333333333334L59.11949685534592,566L61.63522012578618,563.1666666666666L64.15094339622642,560.8333333333334L66.66666666666667,559.3333333333333L69.18238993710693,557.1666666666666L76.72955974842768,555.1666666666666L79.24528301886794,553.1666666666666L81.76100628930818,551.1666666666667L84.27672955974843,550.8333333333333L86.7924528301887,548.5L94.33962264150944,548.1666666666667L96.8553459119497,546.8333333333334L99.37106918238995,545.3333333333333L101.88679245283019,544L104.40251572327045,543L111.9496855345912,540.3333333333334L114.46540880503146,539.1666666666666L116.9811320754717,536.8333333333334L119.49685534591195,534.6666666666666L122.01257861635222,531.3333333333334L129.55974842767296,528.3333333333334L132.0754716981132,527.3333333333333L134.59119496855345,526.8333333333334L137.10691823899373,524.6666666666666L139.62264150943398,522.1666666666667L144.65408805031447,521.6666666666666L147.16981132075472,518.8333333333333L149.68553459119497,516.5L152.2012578616352,513.1666666666666L154.7169811320755,511.16666666666663L157.23270440251574,508.3333333333333L169.81132075471697,506.6666666666667L172.32704402515725,505.3333333333333L174.8427672955975,503.6666666666667L182.38993710691824,501L184.9056603773585,498.83333333333337L187.42138364779873,497L189.937106918239,494L192.45283018867926,492.00000000000006L200,489.6666666666667L202.51572327044025,487.8333333333333L205.0314465408805,486.5L207.54716981132077,485.8333333333333L210.06289308176102,482.66666666666663L217.61006289308176,481L220.125786163522,478.33333333333337L222.64150943396226,478L225.15723270440253,475.3333333333333L227.67295597484278,472.6666666666667L235.22012578616352,470.3333333333333L237.73584905660377,467.66666666666663L240.25157232704402,465.99999999999994L242.7672955974843,463.83333333333337L245.28301886792454,461.33333333333337L250.31446540880503,459L252.83018867924528,458.1666666666667L255.34591194968553,455.6666666666667L257.8616352201258,451.83333333333337L260.37735849056605,450.5L267.92452830188677,447.8333333333333L270.44025157232704,445L272.9559748427673,442.16666666666663L285.5345911949685,439.3333333333333L288.0503144654088,436.99999999999994L290.5660377358491,435L293.0817610062893,432.1666666666667L295.5974842767296,430L298.1132075471698,426.8333333333333L300.62893081761007,425.50000000000006L303.1446540880503,423.00000000000006L308.17610062893084,422.1666666666667L310.69182389937106,419.83333333333337L313.20754716981133,417.00000000000006L315.72327044025155,415.1666666666667L318.23899371069183,413.8333333333333L323.2704402515723,411.33333333333326L325.7861635220126,409.33333333333337L328.3018867924528,406.83333333333337L330.8176100628931,405.83333333333337L333.3333333333333,403.5L335.8490566037736,401L338.3647798742138,398L340.8805031446541,394.6666666666667L343.39622641509436,392.5L348.42767295597486,390.16666666666663L350.9433962264151,387.49999999999994L353.45911949685535,383L355.97484276729557,380.33333333333337L358.49056603773585,377.5L363.52201257861634,374.6666666666667L366.0377358490566,371.83333333333337L368.55345911949684,369.1666666666667L371.0691823899371,366.16666666666663L373.58490566037733,363.5L378.6163522012579,360.8333333333333L381.1320754716981,358.49999999999994L383.6477987421384,355.8333333333333L386.1635220125786,353.16666666666663L388.6792452830189,350.50000000000006L393.71069182389937,348.00000000000006L396.22641509433964,345.33333333333337L398.74213836477986,342.3333333333333L401.25786163522014,339.33333333333337L403.77358490566036,336.6666666666667L408.80503144654085,334.1666666666667L411.3207547169811,332.16666666666663L413.8364779874214,330.16666666666663L416.3522012578616,327.50000000000006L418.8679245283019,325.1666666666667L423.8993710691824,322.5L431.44654088050316,320.16666666666663L433.9622641509434,318.1666666666667L438.9937106918239,315.5L441.50943396226415,312.3333333333333L444.0251572327044,309L446.54088050314465,306.1666666666667L449.0566037735849,303.8333333333333L459.1194968553459,301.6666666666667L461.63522012578613,299.33333333333337L464.1509433962264,296.5L469.1823899371069,293.8333333333333L471.6981132075472,291.3333333333333L474.2138364779874,288.5L476.7295597484277,286L479.2452830188679,283.3333333333333L484.27672955974845,280.8333333333333L486.79245283018867,278.16666666666663L489.30817610062894,275.16666666666663L491.82389937106916,272.50000000000006L494.33962264150944,270.33333333333337L499.37106918238993,267.8333333333333L501.88679245283015,264.6666666666667L504.4025157232704,262.6666666666667L506.9182389937107,260.16666666666663L509.4339622641509,258.00000000000006L514.4654088050314,255.49999999999997L516.9811320754717,252.49999999999997L519.496855345912,249.99999999999997L522.0125786163522,247.33333333333337L524.5283018867924,245L529.559748427673,242L532.0754716981132,239.66666666666669L534.5911949685534,237.16666666666663L537.1069182389937,236.16666666666669L539.622641509434,234L544.6540880503145,231.33333333333331L549.6855345911949,231L552.2012578616352,228.66666666666663L554.7169811320755,226.16666666666666L559.7484276729559,223.50000000000003L562.2641509433962,222L564.7798742138365,219.83333333333331L567.2955974842768,217.25L569.8113207547169,214.91666666666669L574.8427672955975,212.58333333333331L577.3584905660377,210.25000000000003L579.874213836478,207.58333333333334L582.3899371069182,205.08333333333334L584.9056603773585,202.41666666666666L589.937106918239,200.58333333333331L592.4528301886793,198.08333333333331L594.9685534591194,195.25L597.4842767295597,192.58333333333331L600,190.08333333333334L605.0314465408804,187.74999999999997L607.5471698113207,185.41666666666669L610.062893081761,182.75L612.5786163522013,179.91666666666669L615.0943396226415,177.41666666666669L620.125786163522,175.25000000000003L622.6415094339623,172.91666666666666L627.6729559748428,170.41666666666666L630.188679245283,168.25L632.7044025157232,165.91666666666669L640.251572327044,164.58333333333334L642.7672955974842,161.74999999999997L645.2830188679245,159.41666666666669L647.7987421383648,157.08333333333331L652.8301886792452,154.41666666666669L655.3459119496855,151.41666666666669L657.8616352201258,148.91666666666669L660.377358490566,146.25L662.8930817610062,143.75000000000003L667.9245283018868,141.08333333333334L670.440251572327,138.41666666666666L672.9559748427673,136.08333333333334L675.4716981132075,133.91666666666669L677.9874213836478,132.08333333333334L683.0188679245283,129.91666666666666L685.5345911949686,127.24999999999997L688.0503144654087,124.74999999999999L690.566037735849,121.74999999999999L693.0817610062893,119.41666666666669L698.1132075471697,116.91666666666669L700.62893081761,114.25L703.1446540880503,112.25000000000003L705.6603773584906,109.41666666666666L708.1761006289308,107.08333333333336L713.2075471698113,104.74999999999999L715.7232704402516,102.0833333333333L718.2389937106918,99.41666666666669L720.7547169811321,96.75L723.2704402515723,94.08333333333331L728.3018867924528,92.74999999999997L730.8176100628931,90.24999999999999L733.3333333333333,87.5833333333333L735.8490566037735,84.91666666666669L738.3647798742138,82.58333333333331L743.3962264150944,81.91666666666669L745.9119496855345,78.91666666666669L748.4276729559748,76.0833333333333L750.9433962264151,74.25000000000001L753.4591194968554,72.58333333333336L755.9748427672956,70.9166666666667L761.0062893081761,67.91666666666669L763.5220125786163,65.08333333333331L766.0377358490566,63.74999999999997L768.5534591194968,61.08333333333336L771.069182389937,58.583333333333364L773.5849056603773,56.25L776.1006289308176,55.583333333333364L778.6163522012579,51.250000000000014L781.132075471698,48.583333333333336L783.6477987421383,45.91666666666665L788.6792452830189,43.250000000000036L791.1949685534591,40.58333333333335L793.7106918238993,37.916666666666664L796.2264150943396,35.24999999999998L798.7421383647799,32.583333333333364" style="fill: none; stroke: #4c78a8; stroke-width: 2;"></path></g></g><path class="foreground" d="" style="display: none; fill: none;"></path></g><g transform="translate(0,0)"><path class="background" d="M0,0h800v600h-800Z" style="fill: none;"></path><g><g class="mark-line role-mark marks"><path d="M6.289308176100641,597.5L8.805031446540893,596.1666666666666L11.320754716981144,594L13.836477987421395,592.1666666666666L21.38364779874215,589.8333333333334L23.8993710691824,587.6666666666666L26.41509433962265,585.5L28.930817610062903,582.8333333333333L31.446540880503157,580.6666666666666L38.99371069182391,578L41.50943396226416,575.6666666666666L44.025157232704416,573.6666666666666L46.54088050314466,570.8333333333333L59.11949685534592,569.1666666666666L61.63522012578618,565.1666666666666L64.15094339622642,562.1666666666666L66.66666666666667,560L74.21383647798743,558.3333333333334L76.72955974842768,556L79.24528301886794,552.3333333333334L81.76100628930818,549.8333333333334L84.27672955974843,547.8333333333333L91.82389937106919,545.5L94.33962264150944,542.8333333333334L96.8553459119497,541.3333333333334L99.37106918238995,538.6666666666666L101.88679245283019,536.6666666666667L114.46540880503146,534L116.9811320754717,531.1666666666667L119.49685534591195,529.8333333333334L127.04402515723271,526.3333333333334L129.55974842767296,524.1666666666666L132.0754716981132,521.5L134.59119496855345,518.8333333333333L137.10691823899373,516.8333333333334L144.65408805031447,514.3333333333334L147.16981132075472,511.99999999999994L149.68553459119497,509.16666666666663L152.2012578616352,506.33333333333337L154.7169811320755,505L164.77987421383648,502.5L167.29559748427673,499.8333333333333L169.81132075471697,497.3333333333333L172.32704402515725,494.66666666666663L179.874213836478,492.1666666666667L182.38993710691824,490.1666666666667L184.9056603773585,488.5L187.42138364779873,486.1666666666667L189.937106918239,483.16666666666663L200,481.5L202.51572327044025,476.16666666666663L205.0314465408805,478L207.54716981132077,473.8333333333333L215.0943396226415,472L217.61006289308176,469.33333333333337L220.125786163522,466.6666666666667L222.64150943396226,464.5L225.15723270440253,462.1666666666667L232.70440251572327,459.5L235.22012578616352,458.5L237.73584905660377,455.8333333333333L240.25157232704402,453.8333333333333L265.40880503144655,451.16666666666663L267.92452830188677,448.83333333333326L270.44025157232704,446.6666666666667L272.9559748427673,444L275.47169811320754,441.8333333333333L277.9874213836478,439.83333333333337L280.50314465408803,438L283.0188679245283,435.5L285.5345911949685,433.66666666666663L288.0503144654088,431.50000000000006L293.0817610062893,428.83333333333337L295.5974842767296,427.1666666666667L298.1132075471698,425.16666666666663L300.62893081761007,424.5L305.66037735849056,422.83333333333337L308.17610062893084,420.33333333333337L310.69182389937106,419.66666666666663L313.20754716981133,417.5L315.72327044025155,416L320.75471698113205,414.1666666666667L323.2704402515723,412.6666666666667L325.7861635220126,411.6666666666667L328.3018867924528,410L330.8176100628931,409.5L335.8490566037736,407.8333333333333L338.3647798742138,406.00000000000006L340.8805031446541,404.5L345.9119496855346,401.8333333333333L348.42767295597486,400.00000000000006L350.9433962264151,397.5L353.45911949685535,394.91666666666674L355.97484276729557,392.4166666666667L361.0062893081761,389.75000000000006L363.52201257861634,385.91666666666663L366.0377358490566,383.58333333333337L368.55345911949684,380.9166666666667L371.0691823899371,378.58333333333337L376.1006289308176,376.75L378.6163522012579,375.08333333333337L381.1320754716981,372.3333333333333L383.6477987421384,370.66666666666663L386.1635220125786,367.5L391.1949685534591,365.6666666666667L393.71069182389937,364.1666666666667L396.22641509433964,361.8333333333333L398.74213836477986,359.83333333333337L401.25786163522014,357.8333333333333L406.28930817610063,355.8333333333333L408.80503144654085,354.5L413.8364779874214,352.5L416.3522012578616,351.6666666666667L421.3836477987421,349L426.4150943396226,346.33333333333337L428.9308176100629,343.6666666666667L431.44654088050316,341L436.47798742138366,337.6666666666667L438.9937106918239,335L441.50943396226415,332.16666666666663L444.0251572327044,330.16666666666663L446.54088050314465,329.8333333333333L451.57232704402514,329.5L454.0880503144654,329L456.60377358490564,328.33333333333337L459.1194968553459,326.8333333333333L461.63522012578613,325.83333333333337L466.6666666666667,325.00000000000006L469.1823899371069,323.8333333333333L471.6981132075472,322.8333333333333L474.2138364779874,321.50000000000006L476.7295597484277,320.5L481.76100628930817,319.5L486.79245283018867,317.8333333333333L489.30817610062894,316.1666666666667L491.82389937106916,315.16666666666663L496.85534591194966,314.5L499.37106918238993,313.5L501.88679245283015,312.49999999999994L504.4025157232704,311.5L506.9182389937107,309.8333333333333L511.9496855345912,307.16666666666663L514.4654088050314,304.50000000000006L516.9811320754717,301.83333333333337L519.496855345912,299.5L522.0125786163522,296.8333333333333L527.0440251572327,295.50000000000006L529.559748427673,294.6666666666667L532.0754716981132,293L534.5911949685534,291.5L537.1069182389937,290.33333333333337L542.1383647798742,288.1666666666667L544.6540880503145,286L547.1698113207547,284.00000000000006L549.6855345911949,282.8333333333333L557.2327044025158,280.1666666666667L559.7484276729559,279.1666666666667L562.2641509433962,278.49999999999994L564.7798742138365,275.49999999999994L567.2955974842768,273.8333333333333L572.3270440251572,272.16666666666663L574.8427672955975,269.83333333333337L577.3584905660377,267.8333333333333L579.874213836478,266.66666666666663L582.3899371069182,264.33333333333337L587.4213836477987,262.8333333333333L589.937106918239,262L592.4528301886793,261.1666666666667L594.9685534591194,259.8333333333333L597.4842767295597,258.5L602.5157232704403,257.1666666666667L605.0314465408804,255.49999999999997L607.5471698113207,252.83333333333334L610.062893081761,250.33333333333337L612.5786163522013,248.5L617.6100628930817,246.83333333333334L620.125786163522,245.16666666666669L622.6415094339623,243.66666666666666L625.1572327044025,240L627.6729559748428,237.66666666666666L630.188679245283,235.16666666666666L635.2201257861635,230.83333333333331L637.7358490566038,233.16666666666669L640.251572327044,228.66666666666663L642.7672955974842,226.99999999999997L645.2830188679245,225L650.3144654088051,222.66666666666663L652.8301886792452,222L655.3459119496855,220.16666666666666L657.8616352201258,218.49999999999997L660.377358490566,216.5L665.4088050314465,214.50000000000003L667.9245283018868,211.83333333333334L670.440251572327,209.49999999999997L675.4716981132075,207.5L680.503144654088,206.00000000000003L685.5345911949686,204.66666666666669L688.0503144654087,202.33333333333331L690.566037735849,199.66666666666663L695.5974842767296,197.66666666666666L698.1132075471697,197.16666666666666L700.62893081761,195.16666666666666L703.1446540880503,193.33333333333331L705.6603773584906,191L710.691823899371,188.99999999999997L713.2075471698113,187.16666666666669L715.7232704402516,184.5L718.2389937106918,181.83333333333331L720.7547169811321,179.16666666666669L725.7861635220125,177.16666666666666L728.3018867924528,174.99999999999997L730.8176100628931,172.66666666666669L733.3333333333333,170.66666666666669L735.8490566037735,168.33333333333334L740.8805031446541,165.99999999999997L743.3962264150944,163.66666666666669L745.9119496855345,161.33333333333331L750.9433962264151,158.66666666666669L758.4905660377358,156L761.0062893081761,155.66666666666669L763.5220125786163,154.83333333333334L773.5849056603773,154.00000000000003L786.1635220125786,151.33333333333334L791.1949685534591,148.66666666666666L796.2264150943396,146.33333333333337L798.7421383647799,144.66666666666669" style="fill: none; stroke: #f58518; stroke-width: 2;"></path></g></g><path class="foreground" d="" style="display: none; fill: none;"></path></g><g transform="translate(0,0)"><path class="background" d="M0,0h800v600h-800Z" style="fill: none;"></path><g><g class="mark-line role-mark marks"><path d="M1.257861635220138,597.3333333333334L3.7735849056603894,595.8333333333334L6.289308176100641,594.8333333333334L8.805031446540893,592.8333333333334L11.320754716981144,590.8333333333334L18.8679245283019,588.8333333333334L21.38364779874215,587.1666666666666L23.8993710691824,585L26.41509433962265,582.6666666666667L28.930817610062903,581.8333333333334L36.47798742138366,579.8333333333333L41.50943396226416,579.5L44.025157232704416,578L46.54088050314466,575.1666666666666L54.08805031446542,573.1666666666666L56.60377358490567,571L59.11949685534592,568.8333333333334L61.63522012578618,567.1666666666666L64.15094339622642,566.1666666666666L71.69811320754718,564.5L74.21383647798743,562.3333333333333L76.72955974842768,560.1666666666667L79.24528301886794,559L81.76100628930818,557.6666666666666L89.30817610062894,556.3333333333333L91.82389937106919,555.1666666666666L94.33962264150944,553L96.8553459119497,551.3333333333334L99.37106918238995,549.8333333333334L106.9182389937107,548.3333333333334L109.43396226415095,547L111.9496855345912,545.8333333333334L114.46540880503146,544.5833333333334L116.9811320754717,543.0833333333334L124.52830188679246,541.4166666666667L127.04402515723271,539.3333333333333L129.55974842767296,537.6666666666666L132.0754716981132,535.8333333333334L134.59119496855345,534.6666666666666L139.62264150943398,534.5L142.13836477987422,532.6666666666666L144.65408805031447,530.5L147.16981132075472,528.3333333333334L149.68553459119497,527L152.2012578616352,525.5L159.74842767295598,524L162.26415094339623,522.3333333333334L164.77987421383648,520.6666666666666L167.29559748427673,519.3333333333333L169.81132075471697,518.3333333333334L177.35849056603774,517.5L179.874213836478,515.8333333333334L182.38993710691824,514L184.9056603773585,513.1666666666666L187.42138364779873,511.5L194.9685534591195,509.5L197.48427672955975,508L200,505L202.51572327044025,503.49999999999994L205.0314465408805,502.1666666666667L207.54716981132077,501.5L212.57861635220127,499.6666666666667L215.0943396226415,497.66666666666663L217.61006289308176,495.6666666666667L220.125786163522,494L222.64150943396226,492.33333333333337L230.18867924528303,490.5L232.70440251572327,488.99999999999994L235.22012578616352,487.1666666666667L237.73584905660377,485.8333333333333L240.25157232704402,484.1666666666667L247.7987421383648,481.3333333333333L250.31446540880503,479.1666666666667L255.34591194968553,477.83333333333337L262.8930817610063,476.16666666666663L265.40880503144655,475.3333333333333L267.92452830188677,473.8333333333333L270.44025157232704,472.1666666666667L272.9559748427673,471.66666666666663" style="fill: none; stroke: #e45756; stroke-width: 2;"></path></g></g><path class="foreground" d="" style="display: none; fill: none;"></path></g></g><g class="mark-group role-legend"><g transform="translate(819,0)"><path class="background" d="M0,0h61v53h-61Z" style="pointer-events: none; fill: none;"></path><g><g class="mark-group role-legend-entry"><g transform="translate(0,16)"><path class="background" d="M0,0h0v0h0Z" style="pointer-events: none; fill: none;"></path><g><g class="mark-group role-scope"><g transform="translate(0,0)"><path class="background" d="M0,0h48v11h-48Z" style="pointer-events: none; fill: none; opacity: 1;"></path><g><g class="mark-symbol role-legend-symbol" style="pointer-events: none;"><path transform="translate(6,6)" d="M-5,0L5,0" style="fill: none; stroke: #4c78a8; stroke-width: 1.5; opacity: 1;"></path></g><g class="mark-text role-legend-label" style="pointer-events: none;"><text text-anchor="start" transform="translate(16,9)" style="font-family: sans-serif; font-size: 10px; fill: #000; opacity: 1;">2021</text></g></g><path class="foreground" d="" style="pointer-events: none; display: none; fill: none;"></path></g><g transform="translate(0,13)"><path class="background" d="M0,0h48v11h-48Z" style="pointer-events: none; fill: none; opacity: 1;"></path><g><g class="mark-symbol role-legend-symbol" style="pointer-events: none;"><path transform="translate(6,6)" d="M-5,0L5,0" style="fill: none; stroke: #f58518; stroke-width: 1.5; opacity: 1;"></path></g><g class="mark-text role-legend-label" style="pointer-events: none;"><text text-anchor="start" transform="translate(16,9)" style="font-family: sans-serif; font-size: 10px; fill: #000; opacity: 1;">2022</text></g></g><path class="foreground" d="" style="pointer-events: none; display: none; fill: none;"></path></g><g transform="translate(0,26)"><path class="background" d="M0,0h48v11h-48Z" style="pointer-events: none; fill: none; opacity: 1;"></path><g><g class="mark-symbol role-legend-symbol" style="pointer-events: none;"><path transform="translate(6,6)" d="M-5,0L5,0" style="fill: none; stroke: #e45756; stroke-width: 1.5; opacity: 1;"></path></g><g class="mark-text role-legend-label" style="pointer-events: none;"><text text-anchor="start" transform="translate(16,9)" style="font-family: sans-serif; font-size: 10px; fill: #000; opacity: 1;">2023</text></g></g><path class="foreground" d="" style="pointer-events: none; display: none; fill: none;"></path></g></g></g><path class="foreground" d="" style="pointer-events: none; display: none; fill: none;"></path></g></g><g class="mark-text role-legend-title" style="pointer-events: none;"><text text-anchor="start" transform="translate(0,9)" style="font-family: sans-serif; font-size: 11px; font-weight: bold; fill: #000; opacity: 1;">Project</text></g></g><path class="foreground" d="" style="pointer-events: none; display: none; fill: none;"></path></g></g></g><path class="foreground" d="" style="display: none; fill: none;"></path></g></g></g></svg>