<svg class="marks" width="638" height="293" viewBox="0 0 638 293" version="1.1" xmlns="http://www.w3.org/2000/svg" xmlns:xlink="http://www.w3.org/1999/xlink"><rect width="638" height="293" style="fill: white;"></rect><g transform="translate(51,10)"><g class="mark-group role-frame root"><g transform="translate(0,0)"><path class="background" d="M0.5,0.5h500v200h-500Z" style="fill: none; stroke: #ddd;"></path><g><g class="mark-group role-axis"><g transform="translate(0.5,0.5)"><path class="background" d="M0,0h0v0h0Z" style="pointer-events: none; fill: none;"></path><g><g class="mark-rule role-axis-grid" style="pointer-events: none;"><line transform="translate(0,200)" x2="500" y2="0" style="fill: none; stroke: #ddd; stroke-width: 1; opacity: 1;"></line><line transform="translate(0,150)" x2="500" y2="0" style="fill: none; stroke: #ddd; stroke-width: 1; opacity: 1;"></line><line transform="translate(0,100)" x2="500" y2="0" style="fill: none; stroke: #ddd; stroke-width: 1; opacity: 1;"></line><line transform="translate(0,50)" x2="500" y2="0" style="fill: none; stroke: #ddd; stroke-width: 1; opacity: 1;"></line><line transform="translate(0,0)" x2="500" y2="0" style="fill: none; stroke: #ddd; stroke-width: 1; opacity: 1;"></line></g></g><path class="foreground" d="" style="pointer-events: none; display: none; fill: none;"></path></g></g><g class="mark-group role-axis"><g transform="translate(0.5,200.5)"><path class="background" d="M0,0h0v0h0Z" style="pointer-events: none; fill: none;"></path><g><g class="mark-rule role-axis-tick" style="pointer-events: none;"><line transform="translate(10,0)" x2="0" y2="5" style="fill: none; stroke: #888; stroke-width: 1; opacity: 1;"></line><line transform="translate(30,0)" x2="0" y2="5" style="fill: none; stroke: #888; stroke-width: 1; opacity: 1;"></line><line transform="translate(50,0)" x2="0" y2="5" style="fill: none; stroke: #888; stroke-width: 1; opacity: 1;"></line><line transform="translate(70,0)" x2="0" y2="5" style="fill: none; stroke: #888; stroke-width: 1; opacity: 1;"></line><line transform="translate(90,0)" x2="0" y2="5" style="fill: none; stroke: #888; stroke-width: 1; opacity: 1;"></line><line transform="translate(110,0)" x2="0" y2="5" style="fill: none; stroke: #888; stroke-width: 1; opacity: 1;"></line><line transform="translate(130,0)" x2="0" y2="5" style="fill: none; stroke: #888; stroke-width: 1; opacity: 1;"></line><line transform="translate(150,0)" x2="0" y2="5" style="fill: none; stroke: #888; stroke-width: 1; opacity: 1;"></line><line transform="translate(170,0)" x2="0" y2="5" style="fill: none; stroke: #888; stroke-width: 1; opacity: 1;"></line><line transform="translate(190,0)" x2="0" y2="5" style="fill: none; stroke: #888; stroke-width: 1; opacity: 1;"></line><line transform="translate(210,0)" x2="0" y2="5" style="fill: none; stroke: #888; stroke-width: 1; opacity: 1;"></line><line transform="translate(230,0)" x2="0" y2="5" style="fill: none; stroke: #888; stroke-width: 1; opacity: 1;"></line><line transform="translate(250,0)" x2="0" y2="5" style="fill: none; stroke: #888; stroke-width: 1; opacity: 1;"></line><line transform="translate(270,0)" x2="0" y2="5" style="fill: none; stroke: #888; stroke-width: 1; opacity: 1;"></line><line transform="translate(290,0)" x2="0" y2="5" style="fill: none; stroke: #888; stroke-width: 1; opacity: 1;"></line><line transform="translate(310,0)" x2="0" y2="5" style="fill: none; stroke: #888; stroke-width: 1; opacity: 1;"></line><line transform="translate(330,0)" x2="0" y2="5" style="fill: none; stroke: #888; stroke-width: 1; opacity: 1;"></line><line transform="translate(350,0)" x2="0" y2="5" style="fill: none; stroke: #888; stroke-width: 1; opacity: 1;"></line><line transform="translate(370,0)" x2="0" y2="5" style="fill: none; stroke: #888; stroke-width: 1; opacity: 1;"></line><line transform="translate(390,0)" x2="0" y2="5" style="fill: none; stroke: #888; stroke-width: 1; opacity: 1;"></line><line transform="translate(410,0)" x2="0" y2="5" style="fill: none; stroke: #888; stroke-width: 1; opacity: 1;"></line><line transform="translate(430,0)" x2="0" y2="5" style="fill: none; stroke: #888; stroke-width: 1; opacity: 1;"></line><line transform="translate(450,0)" x2="0" y2="5" style="fill: none; stroke: #888; stroke-width: 1; opacity: 1;"></line><line transform="translate(470,0)" x2="0" y2="5" style="fill: none; stroke: #888; stroke-width: 1; opacity: 1;"></line><line transform="translate(490,0)" x2="0" y2="5" style="fill: none; stroke: #888; stroke-width: 1; opacity: 1;"></line></g><g class="mark-text role-axis-label" style="pointer-events: none;"><text text-anchor="end" transform="translate(9.5,7) rotate(270) translate(0,3)" style="font-family: sans-serif; font-size: 10px; fill: #000; opacity: 1;">2021-01</text><text text-anchor="end" transform="translate(29.5,7) rotate(270) translate(0,3)" style="font-family: sans-serif; font-size: 10px; fill: #000; opacity: 1;">2021-02</text><text text-anchor="end" transform="translate(49.5,7) rotate(270) translate(0,3)" style="font-family: sans-serif; font-size: 10px; fill: #000; opacity: 1;">2021-03</text><text text-anchor="end" transform="translate(69.5,7) rotate(270) translate(0,3)" style="font-family: sans-serif; font-size: 10px; fill: #000; opacity: 1;">2021-04</text><text text-anchor="end" transform="translate(89.5,7) rotate(270) translate(0,3)" style="font-family: sans-serif; font-size: 10px; fill: #000; opacity: 1;">2021-05</text><text text-anchor="end" transform="translate(109.5,7) rotate(270) translate(0,3)" style="font-family: sans-serif; font-size: 10px; fill: #000; opacity: 1;">2021-06</text><text text-anchor="end" transform="translate(129.5,7) rotate(270) translate(0,3)" style="font-family: sans-serif; font-size: 10px; fill: #000; opacity: 1;">2021-07</text><text text-anchor="end" transform="translate(149.5,7) rotate(270) translate(0,3)" style="font-family: sans-serif; font-size: 10px; fill: #000; opacity: 1;">2021-08</text><text text-anchor="end" transform="translate(169.5,7) rotate(270) translate(0,3)" style="font-family: sans-serif; font-size: 10px; fill: #000; opacity: 1;">2021-09</text><text text-anchor="end" transform="translate(189.5,7) rotate(270) translate(0,3)" style="font-family: sans-serif; font-size: 10px; fill: #000; opacity: 1;">2021-10</text><text text-anchor="end" transform="translate(209.5,7) rotate(270) translate(0,3)" style="font-family: sans-serif; font-size: 10px; fill: #000; opacity: 1;">2021-11</text><text text-anchor="end" transform="translate(229.5,7) rotate(270) translate(0,3)" style="font-family: sans-serif; font-size: 10px; fill: #000; opacity: 1;">2021-12</text><text text-anchor="end" transform="translate(249.5,7) rotate(270) translate(0,3)" style="font-family: sans-serif; font-size: 10px; fill: #000; opacity: 1;">2022-01</text><text text-anchor="end" transform="translate(269.5,7) rotate(270) translate(0,3)" style="font-family: sans-serif; font-size: 10px; fill: #000; opacity: 1;">2022-02</text><text text-anchor="end" transform="translate(289.5,7) rotate(270) translate(0,3)" style="font-family: sans-serif; font-size: 10px; fill: #000; opacity: 1;">2022-03</text><text text-anchor="end" transform="translate(309.5,7) rotate(270) translate(0,3)" style="font-family: sans-serif; font-size: 10px; fill: #000; opacity: 1;">2022-04</text><text text-anchor="end" transform="translate(329.5,7) rotate(270) translate(0,3)" style="font-family: sans-serif; font-size: 10px; fill: #000; opacity: 1;">2022-05</text><text text-anchor="end" transform="translate(349.5,7) rotate(270) translate(0,3)" style="font-family: sans-serif; font-size: 10px; fill: #000; opacity: 1;">2022-06</text><text text-anchor="end" transform="translate(369.5,7) rotate(270) translate(0,3)" style="font-family: sans-serif; font-size: 10px; fill: #000; opacity: 1;">2022-07</text><text text-anchor="end" transform="translate(389.5,7) rotate(270) translate(0,3)" style="font-family: sans-serif; font-size: 10px; fill: #000; opacity: 1;">2022-08</text><text text-anchor="end" transform="translate(409.5,7) rotate(270) translate(0,3)" style="font-family: sans-serif; font-size: 10px; fill: #000; opacity: 1;">2022-09</text><text text-anchor="end" transform="translate(429.5,7) rotate(270) translate(0,3)" style="font-family: sans-serif; font-size: 10px; fill: #000; opacity: 1;">2022-10</text><text text-anchor="end" transform="translate(449.5,7) rotate(270) translate(0,3)" style="font-family: sans-serif; font-size: 10px; fill: #000; opacity: 1;">2022-11</text><text text-anchor="end" transform="translate(469.5,7) rotate(270) translate(0,3)" style="font-family: sans-serif; font-size: 10px; fill: #000; opacity: 1;">2022-12</text><text text-anchor="end" transform="translate(489.5,7) rotate(270) translate(0,3)" style="font-family: sans-serif; font-size: 10px; fill: #000; opacity: 1;">2023-01</text></g><g class="mark-rule role-axis-domain" style="pointer-events: none;"><line transform="translate(0,0)" x2="500" y2="0" style="fill: none; stroke: #888; stroke-width: 1; opacity: 1;"></line></g><g class="mark-text role-axis-title" style="pointer-events: none;"><text text-anchor="middle" transform="translate(250,76)" style="font-family: sans-serif; font-size: 11px; font-weight: bold; fill: #000; opacity: 1;">Date</text></g></g><path class="foreground" d="" style="pointer-events: none; display: none; fill: none;"></path></g></g><g class="mark-group role-axis"><g transform="translate(0.5,0.5)"><path class="background" d="M0,0h0v0h0Z" style="pointer-events: none; fill: none;"></path><g><g class="mark-rule role-axis-tick" style="pointer-events: none;"><line transform="translate(0,200)" x2="-5" y2="0" style="fill: none; stroke: #888; stroke-width: 1; opacity: 1;"></line><line transform="translate(0,150)" x2="-5" y2="0" style="fill: none; stroke: #888; stroke-width: 1; opacity: 1;"></line><line transform="translate(0,100)" x2="-5" y2="0" style="fill: none; stroke: #888; stroke-width: 1; opacity: 1;"></line><line transform="translate(0,50)" x2="-5" y2="0" style="fill: none; stroke: #888; stroke-width: 1; opacity: 1;"></line><line transform="translate(0,0)" x2="-5" y2="0" style="fill: none; stroke: #888; stroke-width: 1; opacity: 1;"></line></g><g class="mark-text role-axis-label" style="pointer-events: none;"><text text-anchor="end" transform="translate(-7,203)" style="font-family: sans-serif; font-size: 10px; fill: #000; opacity: 1;">0</text><text text-anchor="end" transform="translate(-7,153)" style="font-family: sans-serif; font-size: 10px; fill: #000; opacity: 1;">50</text><text text-anchor="end" transform="translate(-7,103)" style="font-family: sans-serif; font-size: 10px; fill: #000; opacity: 1;">100</text><text text-anchor="end" transform="translate(-7,53)" style="font-family: sans-serif; font-size: 10px; fill: #000; opacity: 1;">150</text><text text-anchor="end" transform="translate(-7,3)" style="font-family: sans-serif; font-size: 10px; fill: #000; opacity: 1;">200</text></g><g class="mark-rule role-axis-domain" style="pointer-events: none;"><line transform="translate(0,200)" x2="0" y2="-200" style="fill: none; stroke: #888; stroke-width: 1; opacity: 1;"></line></g><g class="mark-text role-axis-title" style="pointer-events: none;"><text text-anchor="middle" transform="translate(-35,100) rotate(-90) translate(0,-2)" style="font-family: sans-serif; font-size: 11px; font-weight: bold; fill: #000; opacity: 1;">Sum of Hours</text></g></g><path class="foreground" d="" style="pointer-events: none; display: none; fill: none;"></path></g></g><g class="mark-rect role-mark marks"><path d="M1,55.00000000000001h18v21.999999999999993h-18Z" style="fill: #4c78a8;"></path><path d="M21,83.5h18v28h-18Z" style="fill: #4c78a8;"></path><path d="M41,42.99999999999999h18v27.000000000000007h-18Z" style="fill: #4c78a8;"></path><path d="M61,37.000000000000014h18v23.499999999999986h-18Z" style="fill: #4c78a8;"></path><path d="M81,41.5h18v31.5h-18Z" style="fill: #4c78a8;"></path><path d="M101,14.500000000000002h18v70.50000000000001h-18Z" style="fill: #4c78a8;"></path><path d="M121,30.000000000000004h18v40.5h-18Z" style="fill: #4c78a8;"></path><path d="M141,36.00000000000001h18v13.999999999999993h-18Z" style="fill: #4c78a8;"></path><path d="M161,32.74999999999999h18v26.500000000000007h-18Z" style="fill: #4c78a8;"></path><path d="M181,38.99999999999999h18v12.000000000000007h-18Z" style="fill: #4c78a8;"></path><path d="M201,37.5h18v7.499999999999993h-18Z" style="fill: #4c78a8;"></path><path d="M221,22.500000000000007h18v3.9999999999999822h-18Z" style="fill: #4c78a8;"></path><path d="M241,51h18v3h-18Z" style="fill: #4c78a8;"></path><path d="M261,49h18v23h-18Z" style="fill: #4c78a8;"></path><path d="M281,31.000000000000007h18v31.499999999999993h-18Z" style="fill: #4c78a8;"></path><path d="M301,47.50000000000001h18v2.499999999999993h-18Z" style="fill: #4c78a8;"></path><path d="M321,59.5h18v4h-18Z" style="fill: #4c78a8;"></path><path d="M341,48.50000000000001h18v11.749999999999993h-18Z" style="fill: #4c78a8;"></path><path d="M361,49.500000000000014h18v0.9999999999999716h-18Z" style="fill: #4c78a8;"></path><path d="M381,89.5h18v2h-18Z" style="fill: #4c78a8;"></path><path d="M401,74.50000000000001h18v3.9999999999999716h-18Z" style="fill: #4c78a8;"></path><path d="M421,59.00000000000001h18v4.999999999999986h-18Z" style="fill: #4c78a8;"></path><path d="M441,63.5h18v5.5h-18Z" style="fill: #4c78a8;"></path><path d="M1,77h18v25h-18Z" style="fill: #f58518;"></path><path d="M21,111.5h18v17.5h-18Z" style="fill: #f58518;"></path><path d="M41,70h18v26h-18Z" style="fill: #f58518;"></path><path d="M61,60.5h18v48h-18Z" style="fill: #f58518;"></path><path d="M81,73h18v25.500000000000014h-18Z" style="fill: #f58518;"></path><path d="M101,85.00000000000001h18v11.999999999999986h-18Z" style="fill: #f58518;"></path><path d="M121,70.5h18v45h-18Z" style="fill: #f58518;"></path><path d="M141,50h18v10.000000000000007h-18Z" style="fill: #f58518;"></path><path d="M161,59.25h18v30.5h-18Z" style="fill: #f58518;"></path><path d="M181,51h18v56.5h-18Z" style="fill: #f58518;"></path><path d="M201,44.99999999999999h18v43.99999999999999h-18Z" style="fill: #f58518;"></path><path d="M221,26.49999999999999h18v82.00000000000001h-18Z" style="fill: #f58518;"></path><path d="M241,54h18v35.5h-18Z" style="fill: #f58518;"></path><path d="M261,72h18v40.000000000000014h-18Z" style="fill: #f58518;"></path><path d="M281,62.5h18v21h-18Z" style="fill: #f58518;"></path><path d="M301,50h18v71.49999999999999h-18Z" style="fill: #f58518;"></path><path d="M321,63.5h18v54.500000000000014h-18Z" style="fill: #f58518;"></path><path d="M341,60.25h18v24h-18Z" style="fill: #f58518;"></path><path d="M361,50.499999999999986h18v72.50000000000001h-18Z" style="fill: #f58518;"></path><path d="M381,91.5h18v16h-18Z" style="fill: #f58518;"></path><path d="M401,78.49999999999999h18v34.000000000000014h-18Z" style="fill: #f58518;"></path><path d="M421,63.99999999999999h18v42.00000000000001h-18Z" style="fill: #f58518;"></path><path d="M441,69h18v45.999999999999986h-18Z" style="fill: #f58518;"></path><path d="M461,78h18v59h-18Z" style="fill: #f58518;"></path><path d="M1,102h18v58.5h-18Z" style="fill: #e45756;"></path><path d="M21,129h18v19h-18Z" style="fill: #e45756;"></path><path d="M41,96h18v12.5h-18Z" style="fill: #e45756;"></path><path d="M61,108.5h18v17.5h-18Z" style="fill: #e45756;"></path><path d="M81,98.50000000000001h18v19.5h-18Z" style="fill: #e45756;"></path><path d="M101,97h18v21.000000000000014h-18Z" style="fill: #e45756;"></path><path d="M121,115.5h18v32.5h-18Z" style="fill: #e45756;"></path><path d="M141,60.00000000000001h18v58.49999999999999h-18Z" style="fill: #e45756;"></path><path d="M161,89.75h18v38.75h-18Z" style="fill: #e45756;"></path><path d="M181,107.5h18v24h-18Z" style="fill: #e45756;"></path><path d="M201,88.99999999999999h18v25.500000000000014h-18Z" style="fill: #e45756;"></path><path d="M221,108.5h18v6.499999999999986h-18Z" style="fill: #e45756;"></path><path d="M241,89.5h18v16.000000000000014h-18Z" style="fill: #e45756;"></path><path d="M261,112.00000000000001h18v31.000000000000014h-18Z" style="fill: #e45756;"></path><path d="M281,83.5h18v46.5h-18Z" style="fill: #e45756;"></path><path d="M301,121.49999999999999h18v46.500000000000014h-18Z" style="fill: #e45756;"></path><path d="M321,118.00000000000001h18v33.999999999999986h-18Z" style="fill: #e45756;"></path><path d="M341,84.25h18v69.25h-18Z" style="fill: #e45756;"></path><path d="M361,123h18v56h-18Z" style="fill: #e45756;"></path><path d="M381,107.5h18v38.5h-18Z" style="fill: #e45756;"></path><path d="M401,112.5h18v53h-18Z" style="fill: #e45756;"></path><path d="M421,106h18v62h-18Z" style="fill: #e45756;"></path><path d="M441,114.99999999999999h18v63.500000000000014h-18Z" style="fill: #e45756;"></path><path d="M461,137h18v15.5h-18Z" style="fill: #e45756;"></path><path d="M481,195h18v5h-18Z" style="fill: #e45756;"></path><path d="M1,160.5h18v4h-18Z" style="fill: #72b7b2;"></path><path d="M21,148h18v4h-18Z" style="fill: #72b7b2;"></path><path d="M41,108.5h18v9h-18Z" style="fill: #72b7b2;"></path><path d="M61,126h18v1h-18Z" style="fill: #72b7b2;"></path><path d="M81,118.00000000000001h18v2.999999999999986h-18Z" style="fill: #72b7b2;"></path><path d="M101,118.00000000000001h18v13.499999999999986h-18Z" style="fill: #72b7b2;"></path><path d="M121,148h18v6h-18Z" style="fill: #72b7b2;"></path><path d="M141,118.5h18v6.5h-18Z" style="fill: #72b7b2;"></path><path d="M161,128.5h18v6h-18Z" style="fill: #72b7b2;"></path><path d="M181,131.5h18v0.4999999999999716h-18Z" style="fill: #72b7b2;"></path><path d="M201,114.5h18v6h-18Z" style="fill: #72b7b2;"></path><path d="M221,114.99999999999999h18v12.000000000000014h-18Z" style="fill: #72b7b2;"></path><path d="M241,105.50000000000001h18v5.999999999999986h-18Z" style="fill: #72b7b2;"></path><path d="M261,143.00000000000003h18v13.999999999999972h-18Z" style="fill: #72b7b2;"></path><path d="M281,130h18v16.5h-18Z" style="fill: #72b7b2;"></path><path d="M301,168h18v1h-18Z" style="fill: #72b7b2;"></path><path d="M321,152h18v3h-18Z" style="fill: #72b7b2;"></path><path d="M341,153.5h18v8h-18Z" style="fill: #72b7b2;"></path><path d="M381,146h18v5h-18Z" style="fill: #72b7b2;"></path><path d="M401,165.5h18v4h-18Z" style="fill: #72b7b2;"></path><path d="M421,168h18v6.5h-18Z" style="fill: #72b7b2;"></path><path d="M441,178.5h18v2h-18Z" style="fill: #72b7b2;"></path><path d="M461,152.5h18v12h-18Z" style="fill: #72b7b2;"></path><path d="M1,164.5h18v6.5h-18Z" style="fill: #54a24b;"></path><path d="M21,152h18v3h-18Z" style="fill: #54a24b;"></path><path d="M41,117.5h18v9.5h-18Z" style="fill: #54a24b;"></path><path d="M61,127h18v1.5h-18Z" style="fill: #54a24b;"></path><path d="M81,121h18v10.5h-18Z" style="fill: #54a24b;"></path><path d="M101,131.5h18v16h-18Z" style="fill: #54a24b;"></path><path d="M121,154h18v3h-18Z" style="fill: #54a24b;"></path><path d="M141,125h18v9.5h-18Z" style="fill: #54a24b;"></path><path d="M161,134.5h18v4.5h-18Z" style="fill: #54a24b;"></path><path d="M181,131.99999999999997h18v4.000000000000028h-18Z" style="fill: #54a24b;"></path><path d="M201,120.5h18v2.5h-18Z" style="fill: #54a24b;"></path><path d="M221,127h18v17h-18Z" style="fill: #54a24b;"></path><path d="M241,111.5h18v3h-18Z" style="fill: #54a24b;"></path><path d="M261,157h18v11.5h-18Z" style="fill: #54a24b;"></path><path d="M281,146.5h18v17.5h-18Z" style="fill: #54a24b;"></path><path d="M301,169h18v1h-18Z" style="fill: #54a24b;"></path><path d="M321,155h18v4.5h-18Z" style="fill: #54a24b;"></path><path d="M341,161.5h18v6.5h-18Z" style="fill: #54a24b;"></path><path d="M361,179h18v0.5h-18Z" style="fill: #54a24b;"></path><path d="M381,151h18v15.5h-18Z" style="fill: #54a24b;"></path><path d="M401,169.5h18v5h-18Z" style="fill: #54a24b;"></path><path d="M421,174.5h18v7.5h-18Z" style="fill: #54a24b;"></path><path d="M441,180.5h18v5h-18Z" style="fill: #54a24b;"></path><path d="M461,164.5h18v15.5h-18Z" style="fill: #54a24b;"></path><path d="M1,171h18v21h-18Z" style="fill: #eeca3b;"></path><path d="M21,155h18v37.5h-18Z" style="fill: #eeca3b;"></path><path d="M41,127h18v53.5h-18Z" style="fill: #eeca3b;"></path><path d="M61,128.5h18v34h-18Z" style="fill: #eeca3b;"></path><path d="M81,131.5h18v37.5h-18Z" style="fill: #eeca3b;"></path><path d="M101,147.5h18v24h-18Z" style="fill: #eeca3b;"></path><path d="M121,157h18v16.5h-18Z" style="fill: #eeca3b;"></path><path d="M141,134.5h18v46.5h-18Z" style="fill: #eeca3b;"></path><path d="M161,139h18v25h-18Z" style="fill: #eeca3b;"></path><path d="M181,136h18v48.5h-18Z" style="fill: #eeca3b;"></path><path d="M201,123h18v56.5h-18Z" style="fill: #eeca3b;"></path><path d="M221,144h18v50.5h-18Z" style="fill: #eeca3b;"></path><path d="M241,114.5h18v70h-18Z" style="fill: #eeca3b;"></path><path d="M261,168.5h18v12.5h-18Z" style="fill: #eeca3b;"></path><path d="M281,164h18v19h-18Z" style="fill: #eeca3b;"></path><path d="M301,170h18v21h-18Z" style="fill: #eeca3b;"></path><path d="M321,159.5h18v27h-18Z" style="fill: #eeca3b;"></path><path d="M341,168h18v18.5h-18Z" style="fill: #eeca3b;"></path><path d="M361,179.5h18v4.5h-18Z" style="fill: #eeca3b;"></path><path d="M381,166.5h18v4.5h-18Z" style="fill: #eeca3b;"></path><path d="M401,174.5h18v10h-18Z" style="fill: #eeca3b;"></path><path d="M421,182h18v4h-18Z" style="fill: #eeca3b;"></path><path d="M441,185.5h18v1.5h-18Z" style="fill: #eeca3b;"></path><path d="M461,180h18v3.5h-18Z" style="fill: #eeca3b;"></path><path d="M1,192h18v8h-18Z" style="fill: #b279a2;"></path><path d="M21,192.5h18v7.5h-18Z" style="fill: #b279a2;"></path><path d="M41,180.5h18v12.5h-18Z" style="fill: #b279a2;"></path><path d="M61,162.5h18v33h-18Z" style="fill: #b279a2;"></path><path d="M81,169h18v23.5h-18Z" style="fill: #b279a2;"></path><path d="M101,171.5h18v6.5h-18Z" style="fill: #b279a2;"></path><path d="M121,173.5h18v18h-18Z" style="fill: #b279a2;"></path><path d="M141,181h18v17.5h-18Z" style="fill: #b279a2;"></path><path d="M161,164h18v34h-18Z" style="fill: #b279a2;"></path><path d="M181,184.5h18v15.5h-18Z" style="fill: #b279a2;"></path><path d="M201,179.5h18v17.5h-18Z" style="fill: #b279a2;"></path><path d="M221,194.5h18v5.5h-18Z" style="fill: #b279a2;"></path><path d="M241,184.5h18v8h-18Z" style="fill: #b279a2;"></path><path d="M261,181h18v12.5h-18Z" style="fill: #b279a2;"></path><path d="M281,183h18v9.5h-18Z" style="fill: #b279a2;"></path><path d="M301,191h18v8h-18Z" style="fill: #b279a2;"></path><path d="M321,186.5h18v13h-18Z" style="fill: #b279a2;"></path><path d="M341,186.5h18v13.5h-18Z" style="fill: #b279a2;"></path><path d="M361,184h18v16h-18Z" style="fill: #b279a2;"></path><path d="M381,171h18v18h-18Z" style="fill: #b279a2;"></path><path d="M401,184.5h18v15.5h-18Z" style="fill: #b279a2;"></path><path d="M421,186h18v9.5h-18Z" style="fill: #b279a2;"></path><path d="M441,187h18v13h-18Z" style="fill: #b279a2;"></path><path d="M461,183.5h18v16.5h-18Z" style="fill: #b279a2;"></path><path d="M41,193h18v7h-18Z" style="fill: #ff9da6;"></path><path d="M61,195.5h18v4.5h-18Z" style="fill: #ff9da6;"></path><path d="M81,192.5h18v7.5h-18Z" style="fill: #ff9da6;"></path><path d="M101,178h18v22h-18Z" style="fill: #ff9da6;"></path><path d="M121,191.5h18v8.5h-18Z" style="fill: #ff9da6;"></path><path d="M141,198.5h18v1.5h-18Z" style="fill: #ff9da6;"></path><path d="M161,198h18v2h-18Z" style="fill: #ff9da6;"></path><path d="M201,197h18v3h-18Z" style="fill: #ff9da6;"></path><path d="M241,192.5h18v7.5h-18Z" style="fill: #ff9da6;"></path><path d="M261,193.5h18v6.5h-18Z" style="fill: #ff9da6;"></path><path d="M281,192.5h18v7.5h-18Z" style="fill: #ff9da6;"></path><path d="M301,199h18v1h-18Z" style="fill: #ff9da6;"></path><path d="M321,199.5h18v0.5h-18Z" style="fill: #ff9da6;"></path><path d="M381,189h18v11h-18Z" style="fill: #ff9da6;"></path><path d="M421,195.5h18v4.5h-18Z" style="fill: #ff9da6;"></path></g><g class="mark-group role-legend"><g transform="translate(518,0)"><path class="background" d="M0,0h64v118h-64Z" style="pointer-events: none; fill: none;"></path><g><g class="mark-group role-legend-entry"><g transform="translate(0,16)"><path class="background" d="M0,0h0v0h0Z" style="pointer-events: none; fill: none;"></path><g><g class="mark-group role-scope"><g transform="translate(0,0)"><path class="background" d="M0,0h64v11h-64Z" style="pointer-events: none; fill: none; opacity: 1;"></path><g><g class="mark-symbol role-legend-symbol" style="pointer-events: none;"><path transform="translate(6,6)" d="M-5,-5h10v10h-10Z" style="fill: #4c78a8; stroke-width: 1.5; opacity: 1;"></path></g><g class="mark-text role-legend-label" style="pointer-events: none;"><text text-anchor="start" transform="translate(16,9)" style="font-family: sans-serif; font-size: 10px; fill: #000; opacity: 1;">APOLLO</text></g></g><path class="foreground" d="" style="pointer-events: none; display: none; fill: none;"></path></g><g transform="translate(0,13)"><path class="background" d="M0,0h64v11h-64Z" style="pointer-events: none; fill: none; opacity: 1;"></path><g><g class="mark-symbol role-legend-symbol" style="pointer-events: none;"><path transform="translate(6,6)" d="M-5,-5h10v10h-10Z" style="fill: #f58518; stroke-width: 1.5; opacity: 1;"></path></g><g class="mark-text role-legend-label" style="pointer-events: none;"><text text-anchor="start" transform="translate(16,9)" style="font-family: sans-serif; font-size: 10px; fill: #000; opacity: 1;">ETC</text></g></g><path class="foreground" d="" style="pointer-events: none; display: none; fill: none;"></path></g><g transform="translate(0,26)"><path class="background" d="M0,0h64v11h-64Z" style="pointer-events: none; fill: none; opacity: 1;"></path><g><g class="mark-symbol role-legend-symbol" style="pointer-events: none;"><path transform="translate(6,6)" d="M-5,-5h10v10h-10Z" style="fill: #e45756; stroke-width: 1.5; opacity: 1;"></path></g><g class="mark-text role-legend-label" style="pointer-events: none;"><text text-anchor="start" transform="translate(16,9)" style="font-family: sans-serif; font-size: 10px; fill: #000; opacity: 1;">ETL</text></g></g><path class="foreground" d="" style="pointer-events: none; display: none; fill: none;"></path></g><g transform="translate(0,39)"><path class="background" d="M0,0h64v11h-64Z" style="pointer-events: none; fill: none; opacity: 1;"></path><g><g class="mark-symbol role-legend-symbol" style="pointer-events: none;"><path transform="translate(6,6)" d="M-5,-5h10v10h-10Z" style="fill: #72b7b2; stroke-width: 1.5; opacity: 1;"></path></g><g class="mark-text role-legend-label" style="pointer-events: none;"><text text-anchor="start" transform="translate(16,9)" style="font-family: sans-serif; font-size: 10px; fill: #000; opacity: 1;">GE11</text></g></g><path class="foreground" d="" style="pointer-events: none; display: none; fill: none;"></path></g><g transform="translate(0,52)"><path class="background" d="M0,0h64v11h-64Z" style="pointer-events: none; fill: none; opacity: 1;"></path><g><g class="mark-symbol role-legend-symbol" style="pointer-events: none;"><path transform="translate(6,6)" d="M-5,-5h10v10h-10Z" style="fill: #54a24b; stroke-width: 1.5; opacity: 1;"></path></g><g class="mark-text role-legend-label" style="pointer-events: none;"><text text-anchor="start" transform="translate(16,9)" style="font-family: sans-serif; font-size: 10px; fill: #000; opacity: 1;">GE21</text></g></g><path class="foreground" d="" style="pointer-events: none; display: none; fill: none;"></path></g><g transform="translate(0,65)"><path class="background" d="M0,0h64v11h-64Z" style="pointer-events: none; fill: none; opacity: 1;"></path><g><g class="mark-symbol role-legend-symbol" style="pointer-events: none;"><path transform="translate(6,6)" d="M-5,-5h10v10h-10Z" style="fill: #eeca3b; stroke-width: 1.5; opacity: 1;"></path></g><g class="mark-text role-legend-label" style="pointer-events: none;"><text text-anchor="start" transform="translate(16,9)" style="font-family: sans-serif; font-size: 10px; fill: #000; opacity: 1;">L0MDT</text></g></g><path class="foreground" d="" style="pointer-events: none; display: none; fill: none;"></path></g><g transform="translate(0,78)"><path class="background" d="M0,0h64v11h-64Z" style="pointer-events: none; fill: none; opacity: 1;"></path><g><g class="mark-symbol role-legend-symbol" style="pointer-events: none;"><path transform="translate(6,6)" d="M-5,-5h10v10h-10Z" style="fill: #b279a2; stroke-width: 1.5; opacity: 1;"></path></g><g class="mark-text role-legend-label" style="pointer-events: none;"><text text-anchor="start" transform="translate(16,9)" style="font-family: sans-serif; font-size: 10px; fill: #000; opacity: 1;">ME0</text></g></g><path class="foreground" d="" style="pointer-events: none; display: none; fill: none;"></path></g><g transform="translate(0,91)"><path class="background" d="M0,0h64v11h-64Z" style="pointer-events: none; fill: none; opacity: 1;"></path><g><g class="mark-symbol role-legend-symbol" style="pointer-events: none;"><path transform="translate(6,6)" d="M-5,-5h10v10h-10Z" style="fill: #ff9da6; stroke-width: 1.5; opacity: 1;"></path></g><g class="mark-text role-legend-label" style="pointer-events: none;"><text text-anchor="start" transform="translate(16,9)" style="font-family: sans-serif; font-size: 10px; fill: #000; opacity: 1;">OTHER</text></g></g><path class="foreground" d="" style="pointer-events: none; display: none; fill: none;"></path></g></g></g><path class="foreground" d="" style="pointer-events: none; display: none; fill: none;"></path></g></g><g class="mark-text role-legend-title" style="pointer-events: none;"><text text-anchor="start" transform="translate(0,9)" style="font-family: sans-serif; font-size: 11px; font-weight: bold; fill: #000; opacity: 1;">Project</text></g></g><path class="foreground" d="" style="pointer-events: none; display: none; fill: none;"></path></g></g></g><path class="foreground" d="" style="display: none; fill: none;"></path></g></g></g></svg>