<?xml version="1.0" encoding="utf-8" standalone="no"?>
<!DOCTYPE svg PUBLIC "-//W3C//DTD SVG 1.1//EN"
  "http://www.w3.org/Graphics/SVG/1.1/DTD/svg11.dtd">
<svg xmlns:xlink="http://www.w3.org/1999/xlink" width="460.8pt" height="345.6pt" viewBox="0 0 460.8 345.6" xmlns="http://www.w3.org/2000/svg" version="1.1">
 <metadata>
  <rdf:RDF xmlns:dc="http://purl.org/dc/elements/1.1/" xmlns:cc="http://creativecommons.org/ns#" xmlns:rdf="http://www.w3.org/1999/02/22-rdf-syntax-ns#">
   <cc:Work>
    <dc:type rdf:resource="http://purl.org/dc/dcmitype/StillImage"/>
    <dc:date>2022-11-30T16:06:27.892386</dc:date>
    <dc:format>image/svg+xml</dc:format>
    <dc:creator>
     <cc:Agent>
      <dc:title>Matplotlib v3.5.2, https://matplotlib.org/</dc:title>
     </cc:Agent>
    </dc:creator>
   </cc:Work>
  </rdf:RDF>
 </metadata>
 <defs>
  <style type="text/css">*{stroke-linejoin: round; stroke-linecap: butt}</style>
 </defs>
 <g id="figure_1">
  <g id="patch_1">
   <path d="M 0 345.6 
L 460.8 345.6 
L 460.8 0 
L 0 0 
z
" style="fill: #f0f0f0"/>
  </g>
  <g id="axes_1">
   <g id="matplotlib.axis_1"/>
   <g id="matplotlib.axis_2"/>
   <g id="patch_2">
    <path d="M 349.2864 181.44 
C 349.2864 168.014851 346.871991 154.698475 342.158675 142.127903 
C 337.445359 129.557331 330.509511 117.936261 321.68293 107.820625 
L 237.312 181.44 
L 349.2864 181.44 
z
" style="fill: #008fd5"/>
   </g>
   <g id="patch_3">
    <path d="M 321.68293 107.820625 
C 311.985485 96.70694 300.187009 87.618073 286.966827 81.077336 
C 273.746646 74.536599 259.363452 70.671981 244.645392 69.705996 
C 229.927331 68.740012 215.162407 70.691563 201.200744 75.448286 
C 187.239082 80.205008 174.353882 87.673822 163.287042 97.424693 
L 237.312 181.44 
L 321.68293 107.820625 
z
" style="fill: #fc4f30"/>
   </g>
   <g id="patch_4">
    <path d="M 163.287042 97.424693 
C 141.697885 116.44666 128.250227 143.076959 125.758308 171.742571 
C 123.26639 200.408183 131.917076 228.959504 149.900008 251.421497 
L 237.312 181.44 
L 163.287042 97.424693 
z
" style="fill: #e5ae38"/>
   </g>
   <g id="patch_5">
    <path d="M 149.900008 251.421497 
C 156.234061 259.333191 163.613028 266.348438 171.834524 272.27483 
C 180.056021 278.201223 189.044188 282.984078 198.552505 286.492215 
L 237.312 181.44 
L 149.900008 251.421497 
z
" style="fill: #6d904f"/>
   </g>
   <g id="patch_6">
    <path d="M 198.552505 286.492215 
C 218.887304 293.994832 240.969646 295.434216 262.106322 290.634816 
C 283.242998 285.835417 302.538302 275.000617 317.638939 259.451853 
L 237.312 181.44 
L 198.552505 286.492215 
z
" style="fill: #8b8b8b"/>
   </g>
   <g id="patch_7">
    <path d="M 317.638939 259.451853 
C 325.472846 251.385466 332.04722 242.184885 337.14051 232.160162 
C 342.233801 222.135438 345.788143 211.400461 347.68376 200.316991 
L 237.312 181.44 
L 317.638939 259.451853 
z
" style="fill: #810f7c"/>
   </g>
   <g id="patch_8">
    <path d="M 347.68376 200.316991 
C 348.216775 197.200511 348.617554 194.062854 348.88502 190.912455 
C 349.152486 187.762056 349.2864 184.601743 349.2864 181.44001 
L 237.312 181.44 
L 347.68376 200.316991 
z
" style="fill: #008fd5"/>
   </g>
   <g id="text_1">
    <!-- APOLLO -->
    <g transform="translate(352.643343 142.059818)scale(0.14 -0.14)">
     <defs>
      <path id="DejaVuSans-41" d="M 2188 4044 
L 1331 1722 
L 3047 1722 
L 2188 4044 
z
M 1831 4666 
L 2547 4666 
L 4325 0 
L 3669 0 
L 3244 1197 
L 1141 1197 
L 716 0 
L 50 0 
L 1831 4666 
z
" transform="scale(0.015625)"/>
      <path id="DejaVuSans-50" d="M 1259 4147 
L 1259 2394 
L 2053 2394 
Q 2494 2394 2734 2622 
Q 2975 2850 2975 3272 
Q 2975 3691 2734 3919 
Q 2494 4147 2053 4147 
L 1259 4147 
z
M 628 4666 
L 2053 4666 
Q 2838 4666 3239 4311 
Q 3641 3956 3641 3272 
Q 3641 2581 3239 2228 
Q 2838 1875 2053 1875 
L 1259 1875 
L 1259 0 
L 628 0 
L 628 4666 
z
" transform="scale(0.015625)"/>
      <path id="DejaVuSans-4f" d="M 2522 4238 
Q 1834 4238 1429 3725 
Q 1025 3213 1025 2328 
Q 1025 1447 1429 934 
Q 1834 422 2522 422 
Q 3209 422 3611 934 
Q 4013 1447 4013 2328 
Q 4013 3213 3611 3725 
Q 3209 4238 2522 4238 
z
M 2522 4750 
Q 3503 4750 4090 4092 
Q 4678 3434 4678 2328 
Q 4678 1225 4090 567 
Q 3503 -91 2522 -91 
Q 1538 -91 948 565 
Q 359 1222 359 2328 
Q 359 3434 948 4092 
Q 1538 4750 2522 4750 
z
" transform="scale(0.015625)"/>
      <path id="DejaVuSans-4c" d="M 628 4666 
L 1259 4666 
L 1259 531 
L 3531 531 
L 3531 0 
L 628 0 
L 628 4666 
z
" transform="scale(0.015625)"/>
     </defs>
     <use xlink:href="#DejaVuSans-41"/>
     <use xlink:href="#DejaVuSans-50" x="68.408203"/>
     <use xlink:href="#DejaVuSans-4f" x="128.710938"/>
     <use xlink:href="#DejaVuSans-4c" x="207.421875"/>
     <use xlink:href="#DejaVuSans-4c" x="263.134766"/>
     <use xlink:href="#DejaVuSans-4f" x="315.222656"/>
    </g>
   </g>
   <g id="text_2">
    <!-- ETC -->
    <g transform="translate(245.378731 62.395721)scale(0.14 -0.14)">
     <defs>
      <path id="DejaVuSans-45" d="M 628 4666 
L 3578 4666 
L 3578 4134 
L 1259 4134 
L 1259 2753 
L 3481 2753 
L 3481 2222 
L 1259 2222 
L 1259 531 
L 3634 531 
L 3634 0 
L 628 0 
L 628 4666 
z
" transform="scale(0.015625)"/>
      <path id="DejaVuSans-54" d="M -19 4666 
L 3928 4666 
L 3928 4134 
L 2272 4134 
L 2272 0 
L 1638 0 
L 1638 4134 
L -19 4134 
L -19 4666 
z
" transform="scale(0.015625)"/>
      <path id="DejaVuSans-43" d="M 4122 4306 
L 4122 3641 
Q 3803 3938 3442 4084 
Q 3081 4231 2675 4231 
Q 1875 4231 1450 3742 
Q 1025 3253 1025 2328 
Q 1025 1406 1450 917 
Q 1875 428 2675 428 
Q 3081 428 3442 575 
Q 3803 722 4122 1019 
L 4122 359 
Q 3791 134 3420 21 
Q 3050 -91 2638 -91 
Q 1578 -91 968 557 
Q 359 1206 359 2328 
Q 359 3453 968 4101 
Q 1578 4750 2638 4750 
Q 3056 4750 3426 4639 
Q 3797 4528 4122 4306 
z
" transform="scale(0.015625)"/>
     </defs>
     <use xlink:href="#DejaVuSans-45"/>
     <use xlink:href="#DejaVuSans-54" x="63.183594"/>
     <use xlink:href="#DejaVuSans-43" x="118.392578"/>
    </g>
   </g>
   <g id="text_3">
    <!-- ETL -->
    <g transform="translate(89.405127 174.635953)scale(0.14 -0.14)">
     <use xlink:href="#DejaVuSans-45"/>
     <use xlink:href="#DejaVuSans-54" x="63.183594"/>
     <use xlink:href="#DejaVuSans-4c" x="124.267578"/>
    </g>
   </g>
   <g id="text_4">
    <!-- GEM -->
    <g transform="translate(133.513339 285.221438)scale(0.14 -0.14)">
     <defs>
      <path id="DejaVuSans-47" d="M 3809 666 
L 3809 1919 
L 2778 1919 
L 2778 2438 
L 4434 2438 
L 4434 434 
Q 4069 175 3628 42 
Q 3188 -91 2688 -91 
Q 1594 -91 976 548 
Q 359 1188 359 2328 
Q 359 3472 976 4111 
Q 1594 4750 2688 4750 
Q 3144 4750 3555 4637 
Q 3966 4525 4313 4306 
L 4313 3634 
Q 3963 3931 3569 4081 
Q 3175 4231 2741 4231 
Q 1884 4231 1454 3753 
Q 1025 3275 1025 2328 
Q 1025 1384 1454 906 
Q 1884 428 2741 428 
Q 3075 428 3337 486 
Q 3600 544 3809 666 
z
" transform="scale(0.015625)"/>
      <path id="DejaVuSans-4d" d="M 628 4666 
L 1569 4666 
L 2759 1491 
L 3956 4666 
L 4897 4666 
L 4897 0 
L 4281 0 
L 4281 4097 
L 3078 897 
L 2444 897 
L 1241 4097 
L 1241 0 
L 628 0 
L 628 4666 
z
" transform="scale(0.015625)"/>
     </defs>
     <use xlink:href="#DejaVuSans-47"/>
     <use xlink:href="#DejaVuSans-45" x="77.490234"/>
     <use xlink:href="#DejaVuSans-4d" x="140.673828"/>
    </g>
   </g>
   <g id="text_5">
    <!-- L0MDT -->
    <g transform="translate(264.585754 305.417423)scale(0.14 -0.14)">
     <defs>
      <path id="DejaVuSans-30" d="M 2034 4250 
Q 1547 4250 1301 3770 
Q 1056 3291 1056 2328 
Q 1056 1369 1301 889 
Q 1547 409 2034 409 
Q 2525 409 2770 889 
Q 3016 1369 3016 2328 
Q 3016 3291 2770 3770 
Q 2525 4250 2034 4250 
z
M 2034 4750 
Q 2819 4750 3233 4129 
Q 3647 3509 3647 2328 
Q 3647 1150 3233 529 
Q 2819 -91 2034 -91 
Q 1250 -91 836 529 
Q 422 1150 422 2328 
Q 422 3509 836 4129 
Q 1250 4750 2034 4750 
z
" transform="scale(0.015625)"/>
      <path id="DejaVuSans-44" d="M 1259 4147 
L 1259 519 
L 2022 519 
Q 2988 519 3436 956 
Q 3884 1394 3884 2338 
Q 3884 3275 3436 3711 
Q 2988 4147 2022 4147 
L 1259 4147 
z
M 628 4666 
L 1925 4666 
Q 3281 4666 3915 4102 
Q 4550 3538 4550 2338 
Q 4550 1131 3912 565 
Q 3275 0 1925 0 
L 628 0 
L 628 4666 
z
" transform="scale(0.015625)"/>
     </defs>
     <use xlink:href="#DejaVuSans-4c"/>
     <use xlink:href="#DejaVuSans-30" x="55.712891"/>
     <use xlink:href="#DejaVuSans-4d" x="119.335938"/>
     <use xlink:href="#DejaVuSans-44" x="205.615234"/>
     <use xlink:href="#DejaVuSans-54" x="282.617188"/>
    </g>
   </g>
   <g id="text_6">
    <!-- ME0 -->
    <g transform="translate(347.123361 241.095303)scale(0.14 -0.14)">
     <use xlink:href="#DejaVuSans-4d"/>
     <use xlink:href="#DejaVuSans-45" x="86.279297"/>
     <use xlink:href="#DejaVuSans-30" x="149.462891"/>
    </g>
   </g>
   <g id="text_7">
    <!-- OTHER -->
    <g transform="translate(360.042322 195.722826)scale(0.14 -0.14)">
     <defs>
      <path id="DejaVuSans-48" d="M 628 4666 
L 1259 4666 
L 1259 2753 
L 3553 2753 
L 3553 4666 
L 4184 4666 
L 4184 0 
L 3553 0 
L 3553 2222 
L 1259 2222 
L 1259 0 
L 628 0 
L 628 4666 
z
" transform="scale(0.015625)"/>
      <path id="DejaVuSans-52" d="M 2841 2188 
Q 3044 2119 3236 1894 
Q 3428 1669 3622 1275 
L 4263 0 
L 3584 0 
L 2988 1197 
Q 2756 1666 2539 1819 
Q 2322 1972 1947 1972 
L 1259 1972 
L 1259 0 
L 628 0 
L 628 4666 
L 2053 4666 
Q 2853 4666 3247 4331 
Q 3641 3997 3641 3322 
Q 3641 2881 3436 2590 
Q 3231 2300 2841 2188 
z
M 1259 4147 
L 1259 2491 
L 2053 2491 
Q 2509 2491 2742 2702 
Q 2975 2913 2975 3322 
Q 2975 3731 2742 3939 
Q 2509 4147 2053 4147 
L 1259 4147 
z
" transform="scale(0.015625)"/>
     </defs>
     <use xlink:href="#DejaVuSans-4f"/>
     <use xlink:href="#DejaVuSans-54" x="78.710938"/>
     <use xlink:href="#DejaVuSans-48" x="139.794922"/>
     <use xlink:href="#DejaVuSans-45" x="214.990234"/>
     <use xlink:href="#DejaVuSans-52" x="278.173828"/>
    </g>
   </g>
  </g>
 </g>
</svg>
