<svg class="marks" width="810" height="627" viewBox="0 0 810 627" version="1.1" xmlns="http://www.w3.org/2000/svg" xmlns:xlink="http://www.w3.org/1999/xlink"><rect width="810" height="627" style="fill: white;"></rect><g transform="translate(5,22)"><g class="mark-group role-frame root"><g transform="translate(0,0)"><path class="background" d="M0.5,0.5h800v600h-800Z" style="fill: none; stroke: none;"></path><g><g class="mark-arc role-mark layer_0_marks"><path transform="translate(400,300)" d="M68.30117780080073,216.13127235270974A226.6666666666667,226.6666666666667,0,0,0,198.162470921193,-110.04277757392865L0,0Z" style="fill: #e45756;"></path><path transform="translate(400,300)" d="M198.162470921193,-110.04277757392865A226.6666666666667,226.6666666666667,0,0,0,164.8554194328279,-155.56499754573392L0,0Z" style="fill: #f58518;"></path><path transform="translate(400,300)" d="M164.8554194328279,-155.56499754573392A226.6666666666667,226.6666666666667,0,0,0,1.3879330390336672e-14,-226.6666666666667L0,0Z" style="fill: #4c78a8;"></path><path transform="translate(400,300)" d="M-202.7614768323762,101.3191062462139A226.6666666666667,226.6666666666667,0,0,0,68.30117780080073,216.13127235270974L0,0Z" style="fill: #72b7b2;"></path><path transform="translate(400,300)" d="M-4.1637991171010013e-14,-226.6666666666667A226.6666666666667,226.6666666666667,0,0,0,-111.65886854786699,-197.2563683443147L0,0Z" style="fill: #b279a2;"></path><path transform="translate(400,300)" d="M-111.65886854786699,-197.2563683443147A226.6666666666667,226.6666666666667,0,0,0,-149.51510679572655,-170.3614117622893L0,0Z" style="fill: #eeca3b;"></path><path transform="translate(400,300)" d="M-149.51510679572655,-170.3614117622893A226.6666666666667,226.6666666666667,0,0,0,-202.7614768323762,101.3191062462139L0,0Z" style="fill: #54a24b;"></path></g><g class="mark-text role-mark layer_1_marks"><text text-anchor="middle" transform="translate(647.7527976970331,404.6390508085115)" style="font-family: sans-serif; font-size: 20px; fill: #e45756;">ETL</text><text text-anchor="middle" transform="translate(615.212344827556,148.53648757589497)" style="font-family: sans-serif; font-size: 20px; fill: #f58518;">EDF</text><text text-anchor="middle" transform="translate(505.60872596221395,61.13696050291887)" style="font-family: sans-serif; font-size: 20px; fill: #4c78a8;">APOLLO</text><text text-anchor="middle" transform="translate(295.9947341269824,551.5483980436322)" style="font-family: sans-serif; font-size: 20px; fill: #72b7b2;">GEM</text><text text-anchor="middle" transform="translate(332.07813217382505,48.12846030995445)" style="font-family: sans-serif; font-size: 20px; fill: #b279a2;">VAC/SICK/HOL</text><text text-anchor="middle" transform="translate(245.55581955230255,88.6107034903738)" style="font-family: sans-serif; font-size: 20px; fill: #eeca3b;">OTHER PRJ</text><text text-anchor="middle" transform="translate(138.31191125365496,254.71203533580064)" style="font-family: sans-serif; font-size: 20px; fill: #54a24b;">L0MDT</text></g><g class="mark-group role-title"><g transform="translate(400,-17)"><path class="background" d="M0,0h0v0h0Z" style="pointer-events: none; fill: none;"></path><g><g class="mark-text role-title-text" style="pointer-events: none;"><text text-anchor="middle" transform="translate(0,10)" style="font-family: sans-serif; font-size: 13px; font-weight: bold; fill: #000; opacity: 1;">EDF Work</text></g></g><path class="foreground" d="" style="pointer-events: none; display: none; fill: none;"></path></g></g></g><path class="foreground" d="" style="display: none; fill: none;"></path></g></g></g></svg>