<svg class="marks" width="810" height="627" viewBox="0 0 810 627" version="1.1" xmlns="http://www.w3.org/2000/svg" xmlns:xlink="http://www.w3.org/1999/xlink"><rect width="810" height="627" style="fill: white;"></rect><g transform="translate(5,22)"><g class="mark-group role-frame root"><g transform="translate(0,0)"><path class="background" d="M0.5,0.5h800v600h-800Z" style="fill: none; stroke: none;"></path><g><g class="mark-arc role-mark layer_0_marks"><path transform="translate(400,300)" d="M144.28019860149251,-174.81705314211104A226.6666666666667,226.6666666666667,0,0,0,1.3879330390336672e-14,-226.6666666666667L0,0Z" style="fill: #4c78a8;"></path><path transform="translate(400,300)" d="M165.58220845946025,154.79118198226166A226.6666666666667,226.6666666666667,0,0,0,144.28019860149251,-174.81705314211104L0,0Z" style="fill: #f58518;"></path><path transform="translate(400,300)" d="M-143.56324432498099,175.40630734572693A226.6666666666667,226.6666666666667,0,0,0,165.58220845946025,154.79118198226166L0,0Z" style="fill: #e45756;"></path><path transform="translate(400,300)" d="M-183.52922711296384,133.02180487835795A226.6666666666667,226.6666666666667,0,0,0,-143.56324432498099,175.40630734572693L0,0Z" style="fill: #72b7b2;"></path><path transform="translate(400,300)" d="M-215.4426355038122,70.44322951816817A226.6666666666667,226.6666666666667,0,0,0,-183.52922711296384,133.02180487835795L0,0Z" style="fill: #54a24b;"></path><path transform="translate(400,300)" d="M-158.02568517645426,-162.4981864584647A226.6666666666667,226.6666666666667,0,0,0,-215.4426355038122,70.44322951816817L0,0Z" style="fill: #eeca3b;"></path><path transform="translate(400,300)" d="M-36.7628283501724,-223.66553652602263A226.6666666666667,226.6666666666667,0,0,0,-158.02568517645426,-162.4981864584647L0,0Z" style="fill: #b279a2;"></path><path transform="translate(400,300)" d="M-4.1637991171010013e-14,-226.6666666666667A226.6666666666667,226.6666666666667,0,0,0,-36.7628283501724,-223.66553652602263L0,0Z" style="fill: #ff9da6;"></path></g><g class="mark-text role-mark layer_1_marks"><text text-anchor="middle" transform="translate(490.18465894892665,55.04614288404153)" style="font-family: sans-serif; font-size: 20px; fill: #4c78a8;">APOLLO</text><text text-anchor="middle" transform="translate(666.1114967637267,288.8016744628955)" style="font-family: sans-serif; font-size: 20px; fill: #f58518;">ETC</text><text text-anchor="middle" transform="translate(417.7430543485285,572.0757319514432)" style="font-family: sans-serif; font-size: 20px; fill: #e45756;">ETL</text><text text-anchor="middle" transform="translate(205.98404542401462,488.9451297003566)" style="font-family: sans-serif; font-size: 20px; fill: #72b7b2;">GE11</text><text text-anchor="middle" transform="translate(162.4413201218048,427.1486059583035)" style="font-family: sans-serif; font-size: 20px; fill: #54a24b;">GE21</text><text text-anchor="middle" transform="translate(141.08271094697744,242.18034361934642)" style="font-family: sans-serif; font-size: 20px; fill: #eeca3b;">L0MDT</text><text text-anchor="middle" transform="translate(279.9019868033961,67.90846647278809)" style="font-family: sans-serif; font-size: 20px; fill: #b279a2;">ME0</text><text text-anchor="middle" transform="translate(378.30286857075566,40.21748439964449)" style="font-family: sans-serif; font-size: 20px; fill: #ff9da6;">OTHER</text></g><g class="mark-group role-title"><g transform="translate(400,-17)"><path class="background" d="M0,0h0v0h0Z" style="pointer-events: none; fill: none;"></path><g><g class="mark-text role-title-text" style="pointer-events: none;"><text text-anchor="middle" transform="translate(0,10)" style="font-family: sans-serif; font-size: 13px; font-weight: bold; fill: #000; opacity: 1;">Cumulative EDF Work</text></g></g><path class="foreground" d="" style="pointer-events: none; display: none; fill: none;"></path></g></g></g><path class="foreground" d="" style="display: none; fill: none;"></path></g></g></g></svg>