<svg class="marks" width="994" height="693" viewBox="0 0 994 693" version="1.1" xmlns="http://www.w3.org/2000/svg" xmlns:xlink="http://www.w3.org/1999/xlink"><rect width="994" height="693" style="fill: white;"></rect><g transform="translate(51,10)"><g class="mark-group role-frame root"><g transform="translate(0,0)"><path class="background" d="M0.5,0.5h800v600h-800Z" style="fill: none; stroke: #ddd;"></path><g><g class="mark-group role-axis"><g transform="translate(0.5,0.5)"><path class="background" d="M0,0h0v0h0Z" style="pointer-events: none; fill: none;"></path><g><g class="mark-rule role-axis-grid" style="pointer-events: none;"><line transform="translate(0,600)" x2="800" y2="0" style="fill: none; stroke: #ddd; stroke-width: 1; opacity: 1;"></line><line transform="translate(0,567)" x2="800" y2="0" style="fill: none; stroke: #ddd; stroke-width: 1; opacity: 1;"></line><line transform="translate(0,533)" x2="800" y2="0" style="fill: none; stroke: #ddd; stroke-width: 1; opacity: 1;"></line><line transform="translate(0,500)" x2="800" y2="0" style="fill: none; stroke: #ddd; stroke-width: 1; opacity: 1;"></line><line transform="translate(0,467)" x2="800" y2="0" style="fill: none; stroke: #ddd; stroke-width: 1; opacity: 1;"></line><line transform="translate(0,433)" x2="800" y2="0" style="fill: none; stroke: #ddd; stroke-width: 1; opacity: 1;"></line><line transform="translate(0,400)" x2="800" y2="0" style="fill: none; stroke: #ddd; stroke-width: 1; opacity: 1;"></line><line transform="translate(0,367)" x2="800" y2="0" style="fill: none; stroke: #ddd; stroke-width: 1; opacity: 1;"></line><line transform="translate(0,333)" x2="800" y2="0" style="fill: none; stroke: #ddd; stroke-width: 1; opacity: 1;"></line><line transform="translate(0,300)" x2="800" y2="0" style="fill: none; stroke: #ddd; stroke-width: 1; opacity: 1;"></line><line transform="translate(0,267)" x2="800" y2="0" style="fill: none; stroke: #ddd; stroke-width: 1; opacity: 1;"></line><line transform="translate(0,233)" x2="800" y2="0" style="fill: none; stroke: #ddd; stroke-width: 1; opacity: 1;"></line><line transform="translate(0,200)" x2="800" y2="0" style="fill: none; stroke: #ddd; stroke-width: 1; opacity: 1;"></line><line transform="translate(0,167)" x2="800" y2="0" style="fill: none; stroke: #ddd; stroke-width: 1; opacity: 1;"></line><line transform="translate(0,133)" x2="800" y2="0" style="fill: none; stroke: #ddd; stroke-width: 1; opacity: 1;"></line><line transform="translate(0,100)" x2="800" y2="0" style="fill: none; stroke: #ddd; stroke-width: 1; opacity: 1;"></line><line transform="translate(0,67)" x2="800" y2="0" style="fill: none; stroke: #ddd; stroke-width: 1; opacity: 1;"></line><line transform="translate(0,33)" x2="800" y2="0" style="fill: none; stroke: #ddd; stroke-width: 1; opacity: 1;"></line><line transform="translate(0,0)" x2="800" y2="0" style="fill: none; stroke: #ddd; stroke-width: 1; opacity: 1;"></line></g></g><path class="foreground" d="" style="pointer-events: none; display: none; fill: none;"></path></g></g><g class="mark-group role-axis"><g transform="translate(0.5,600.5)"><path class="background" d="M0,0h0v0h0Z" style="pointer-events: none; fill: none;"></path><g><g class="mark-rule role-axis-tick" style="pointer-events: none;"><line transform="translate(12,0)" x2="0" y2="5" style="fill: none; stroke: #888; stroke-width: 1; opacity: 1;"></line><line transform="translate(38,0)" x2="0" y2="5" style="fill: none; stroke: #888; stroke-width: 1; opacity: 1;"></line><line transform="translate(64,0)" x2="0" y2="5" style="fill: none; stroke: #888; stroke-width: 1; opacity: 1;"></line><line transform="translate(90,0)" x2="0" y2="5" style="fill: none; stroke: #888; stroke-width: 1; opacity: 1;"></line><line transform="translate(116,0)" x2="0" y2="5" style="fill: none; stroke: #888; stroke-width: 1; opacity: 1;"></line><line transform="translate(141,0)" x2="0" y2="5" style="fill: none; stroke: #888; stroke-width: 1; opacity: 1;"></line><line transform="translate(167,0)" x2="0" y2="5" style="fill: none; stroke: #888; stroke-width: 1; opacity: 1;"></line><line transform="translate(193,0)" x2="0" y2="5" style="fill: none; stroke: #888; stroke-width: 1; opacity: 1;"></line><line transform="translate(219,0)" x2="0" y2="5" style="fill: none; stroke: #888; stroke-width: 1; opacity: 1;"></line><line transform="translate(245,0)" x2="0" y2="5" style="fill: none; stroke: #888; stroke-width: 1; opacity: 1;"></line><line transform="translate(270,0)" x2="0" y2="5" style="fill: none; stroke: #888; stroke-width: 1; opacity: 1;"></line><line transform="translate(296,0)" x2="0" y2="5" style="fill: none; stroke: #888; stroke-width: 1; opacity: 1;"></line><line transform="translate(322,0)" x2="0" y2="5" style="fill: none; stroke: #888; stroke-width: 1; opacity: 1;"></line><line transform="translate(348,0)" x2="0" y2="5" style="fill: none; stroke: #888; stroke-width: 1; opacity: 1;"></line><line transform="translate(374,0)" x2="0" y2="5" style="fill: none; stroke: #888; stroke-width: 1; opacity: 1;"></line><line transform="translate(400,0)" x2="0" y2="5" style="fill: none; stroke: #888; stroke-width: 1; opacity: 1;"></line><line transform="translate(425,0)" x2="0" y2="5" style="fill: none; stroke: #888; stroke-width: 1; opacity: 1;"></line><line transform="translate(451,0)" x2="0" y2="5" style="fill: none; stroke: #888; stroke-width: 1; opacity: 1;"></line><line transform="translate(477,0)" x2="0" y2="5" style="fill: none; stroke: #888; stroke-width: 1; opacity: 1;"></line><line transform="translate(503,0)" x2="0" y2="5" style="fill: none; stroke: #888; stroke-width: 1; opacity: 1;"></line><line transform="translate(529,0)" x2="0" y2="5" style="fill: none; stroke: #888; stroke-width: 1; opacity: 1;"></line><line transform="translate(554,0)" x2="0" y2="5" style="fill: none; stroke: #888; stroke-width: 1; opacity: 1;"></line><line transform="translate(580,0)" x2="0" y2="5" style="fill: none; stroke: #888; stroke-width: 1; opacity: 1;"></line><line transform="translate(606,0)" x2="0" y2="5" style="fill: none; stroke: #888; stroke-width: 1; opacity: 1;"></line><line transform="translate(632,0)" x2="0" y2="5" style="fill: none; stroke: #888; stroke-width: 1; opacity: 1;"></line><line transform="translate(658,0)" x2="0" y2="5" style="fill: none; stroke: #888; stroke-width: 1; opacity: 1;"></line><line transform="translate(683,0)" x2="0" y2="5" style="fill: none; stroke: #888; stroke-width: 1; opacity: 1;"></line><line transform="translate(709,0)" x2="0" y2="5" style="fill: none; stroke: #888; stroke-width: 1; opacity: 1;"></line><line transform="translate(735,0)" x2="0" y2="5" style="fill: none; stroke: #888; stroke-width: 1; opacity: 1;"></line><line transform="translate(761,0)" x2="0" y2="5" style="fill: none; stroke: #888; stroke-width: 1; opacity: 1;"></line><line transform="translate(787,0)" x2="0" y2="5" style="fill: none; stroke: #888; stroke-width: 1; opacity: 1;"></line></g><g class="mark-text role-axis-label" style="pointer-events: none;"><text text-anchor="end" transform="translate(12.403225806451633,7) rotate(270) translate(0,3)" style="font-family: sans-serif; font-size: 10px; fill: #000; opacity: 1;">2021-01</text><text text-anchor="end" transform="translate(38.20967741935486,7) rotate(270) translate(0,3)" style="font-family: sans-serif; font-size: 10px; fill: #000; opacity: 1;">2021-02</text><text text-anchor="end" transform="translate(64.01612903225808,7) rotate(270) translate(0,3)" style="font-family: sans-serif; font-size: 10px; fill: #000; opacity: 1;">2021-03</text><text text-anchor="end" transform="translate(89.8225806451613,7) rotate(270) translate(0,3)" style="font-family: sans-serif; font-size: 10px; fill: #000; opacity: 1;">2021-04</text><text text-anchor="end" transform="translate(115.62903225806453,7) rotate(270) translate(0,3)" style="font-family: sans-serif; font-size: 10px; fill: #000; opacity: 1;">2021-05</text><text text-anchor="end" transform="translate(141.43548387096777,7) rotate(270) translate(0,3)" style="font-family: sans-serif; font-size: 10px; fill: #000; opacity: 1;">2021-06</text><text text-anchor="end" transform="translate(167.24193548387098,7) rotate(270) translate(0,3)" style="font-family: sans-serif; font-size: 10px; fill: #000; opacity: 1;">2021-07</text><text text-anchor="end" transform="translate(193.0483870967742,7) rotate(270) translate(0,3)" style="font-family: sans-serif; font-size: 10px; fill: #000; opacity: 1;">2021-08</text><text text-anchor="end" transform="translate(218.85483870967744,7) rotate(270) translate(0,3)" style="font-family: sans-serif; font-size: 10px; fill: #000; opacity: 1;">2021-09</text><text text-anchor="end" transform="translate(244.66129032258067,7) rotate(270) translate(0,3)" style="font-family: sans-serif; font-size: 10px; fill: #000; opacity: 1;">2021-10</text><text text-anchor="end" transform="translate(270.4677419354839,7) rotate(270) translate(0,3)" style="font-family: sans-serif; font-size: 10px; fill: #000; opacity: 1;">2021-11</text><text text-anchor="end" transform="translate(296.27419354838713,7) rotate(270) translate(0,3)" style="font-family: sans-serif; font-size: 10px; fill: #000; opacity: 1;">2021-12</text><text text-anchor="end" transform="translate(322.0806451612903,7) rotate(270) translate(0,3)" style="font-family: sans-serif; font-size: 10px; fill: #000; opacity: 1;">2022-01</text><text text-anchor="end" transform="translate(347.88709677419354,7) rotate(270) translate(0,3)" style="font-family: sans-serif; font-size: 10px; fill: #000; opacity: 1;">2022-02</text><text text-anchor="end" transform="translate(373.69354838709677,7) rotate(270) translate(0,3)" style="font-family: sans-serif; font-size: 10px; fill: #000; opacity: 1;">2022-03</text><text text-anchor="end" transform="translate(399.5,7) rotate(270) translate(0,3)" style="font-family: sans-serif; font-size: 10px; fill: #000; opacity: 1;">2022-04</text><text text-anchor="end" transform="translate(425.30645161290323,7) rotate(270) translate(0,3)" style="font-family: sans-serif; font-size: 10px; fill: #000; opacity: 1;">2022-05</text><text text-anchor="end" transform="translate(451.11290322580646,7) rotate(270) translate(0,3)" style="font-family: sans-serif; font-size: 10px; fill: #000; opacity: 1;">2022-06</text><text text-anchor="end" transform="translate(476.9193548387097,7) rotate(270) translate(0,3)" style="font-family: sans-serif; font-size: 10px; fill: #000; opacity: 1;">2022-07</text><text text-anchor="end" transform="translate(502.7258064516129,7) rotate(270) translate(0,3)" style="font-family: sans-serif; font-size: 10px; fill: #000; opacity: 1;">2022-08</text><text text-anchor="end" transform="translate(528.5322580645162,7) rotate(270) translate(0,3)" style="font-family: sans-serif; font-size: 10px; fill: #000; opacity: 1;">2022-09</text><text text-anchor="end" transform="translate(554.3387096774194,7) rotate(270) translate(0,3)" style="font-family: sans-serif; font-size: 10px; fill: #000; opacity: 1;">2022-10</text><text text-anchor="end" transform="translate(580.1451612903226,7) rotate(270) translate(0,3)" style="font-family: sans-serif; font-size: 10px; fill: #000; opacity: 1;">2022-11</text><text text-anchor="end" transform="translate(605.9516129032257,7) rotate(270) translate(0,3)" style="font-family: sans-serif; font-size: 10px; fill: #000; opacity: 1;">2022-12</text><text text-anchor="end" transform="translate(631.7580645161289,7) rotate(270) translate(0,3)" style="font-family: sans-serif; font-size: 10px; fill: #000; opacity: 1;">2023-01</text><text text-anchor="end" transform="translate(657.5645161290323,7) rotate(270) translate(0,3)" style="font-family: sans-serif; font-size: 10px; fill: #000; opacity: 1;">2023-02</text><text text-anchor="end" transform="translate(683.3709677419355,7) rotate(270) translate(0,3)" style="font-family: sans-serif; font-size: 10px; fill: #000; opacity: 1;">2023-03</text><text text-anchor="end" transform="translate(709.1774193548387,7) rotate(270) translate(0,3)" style="font-family: sans-serif; font-size: 10px; fill: #000; opacity: 1;">2023-04</text><text text-anchor="end" transform="translate(734.9838709677418,7) rotate(270) translate(0,3)" style="font-family: sans-serif; font-size: 10px; fill: #000; opacity: 1;">2023-05</text><text text-anchor="end" transform="translate(760.7903225806452,7) rotate(270) translate(0,3)" style="font-family: sans-serif; font-size: 10px; fill: #000; opacity: 1;">2023-06</text><text text-anchor="end" transform="translate(786.5967741935484,7) rotate(270) translate(0,3)" style="font-family: sans-serif; font-size: 10px; fill: #000; opacity: 1;">2023-07</text></g><g class="mark-rule role-axis-domain" style="pointer-events: none;"><line transform="translate(0,0)" x2="800" y2="0" style="fill: none; stroke: #888; stroke-width: 1; opacity: 1;"></line></g><g class="mark-text role-axis-title" style="pointer-events: none;"><text text-anchor="middle" transform="translate(400,76)" style="font-family: sans-serif; font-size: 11px; font-weight: bold; fill: #000; opacity: 1;">Date</text></g></g><path class="foreground" d="" style="pointer-events: none; display: none; fill: none;"></path></g></g><g class="mark-group role-axis"><g transform="translate(0.5,0.5)"><path class="background" d="M0,0h0v0h0Z" style="pointer-events: none; fill: none;"></path><g><g class="mark-rule role-axis-tick" style="pointer-events: none;"><line transform="translate(0,600)" x2="-5" y2="0" style="fill: none; stroke: #888; stroke-width: 1; opacity: 1;"></line><line transform="translate(0,567)" x2="-5" y2="0" style="fill: none; stroke: #888; stroke-width: 1; opacity: 1;"></line><line transform="translate(0,533)" x2="-5" y2="0" style="fill: none; stroke: #888; stroke-width: 1; opacity: 1;"></line><line transform="translate(0,500)" x2="-5" y2="0" style="fill: none; stroke: #888; stroke-width: 1; opacity: 1;"></line><line transform="translate(0,467)" x2="-5" y2="0" style="fill: none; stroke: #888; stroke-width: 1; opacity: 1;"></line><line transform="translate(0,433)" x2="-5" y2="0" style="fill: none; stroke: #888; stroke-width: 1; opacity: 1;"></line><line transform="translate(0,400)" x2="-5" y2="0" style="fill: none; stroke: #888; stroke-width: 1; opacity: 1;"></line><line transform="translate(0,367)" x2="-5" y2="0" style="fill: none; stroke: #888; stroke-width: 1; opacity: 1;"></line><line transform="translate(0,333)" x2="-5" y2="0" style="fill: none; stroke: #888; stroke-width: 1; opacity: 1;"></line><line transform="translate(0,300)" x2="-5" y2="0" style="fill: none; stroke: #888; stroke-width: 1; opacity: 1;"></line><line transform="translate(0,267)" x2="-5" y2="0" style="fill: none; stroke: #888; stroke-width: 1; opacity: 1;"></line><line transform="translate(0,233)" x2="-5" y2="0" style="fill: none; stroke: #888; stroke-width: 1; opacity: 1;"></line><line transform="translate(0,200)" x2="-5" y2="0" style="fill: none; stroke: #888; stroke-width: 1; opacity: 1;"></line><line transform="translate(0,167)" x2="-5" y2="0" style="fill: none; stroke: #888; stroke-width: 1; opacity: 1;"></line><line transform="translate(0,133)" x2="-5" y2="0" style="fill: none; stroke: #888; stroke-width: 1; opacity: 1;"></line><line transform="translate(0,100)" x2="-5" y2="0" style="fill: none; stroke: #888; stroke-width: 1; opacity: 1;"></line><line transform="translate(0,67)" x2="-5" y2="0" style="fill: none; stroke: #888; stroke-width: 1; opacity: 1;"></line><line transform="translate(0,33)" x2="-5" y2="0" style="fill: none; stroke: #888; stroke-width: 1; opacity: 1;"></line><line transform="translate(0,0)" x2="-5" y2="0" style="fill: none; stroke: #888; stroke-width: 1; opacity: 1;"></line></g><g class="mark-text role-axis-label" style="pointer-events: none;"><text text-anchor="end" transform="translate(-7,603)" style="font-family: sans-serif; font-size: 10px; fill: #000; opacity: 1;">0</text><text text-anchor="end" transform="translate(-7,569.6666666666666)" style="font-family: sans-serif; font-size: 10px; fill: #000; opacity: 1;">10</text><text text-anchor="end" transform="translate(-7,536.3333333333333)" style="font-family: sans-serif; font-size: 10px; fill: #000; opacity: 1;">20</text><text text-anchor="end" transform="translate(-7,503)" style="font-family: sans-serif; font-size: 10px; fill: #000; opacity: 1;">30</text><text text-anchor="end" transform="translate(-7,469.6666666666667)" style="font-family: sans-serif; font-size: 10px; fill: #000; opacity: 1;">40</text><text text-anchor="end" transform="translate(-7,436.3333333333333)" style="font-family: sans-serif; font-size: 10px; fill: #000; opacity: 1;">50</text><text text-anchor="end" transform="translate(-7,403.00000000000006)" style="font-family: sans-serif; font-size: 10px; fill: #000; opacity: 1;">60</text><text text-anchor="end" transform="translate(-7,369.6666666666667)" style="font-family: sans-serif; font-size: 10px; fill: #000; opacity: 1;">70</text><text text-anchor="end" transform="translate(-7,336.33333333333337)" style="font-family: sans-serif; font-size: 10px; fill: #000; opacity: 1;">80</text><text text-anchor="end" transform="translate(-7,303)" style="font-family: sans-serif; font-size: 10px; fill: #000; opacity: 1;">90</text><text text-anchor="end" transform="translate(-7,269.66666666666663)" style="font-family: sans-serif; font-size: 10px; fill: #000; opacity: 1;">100</text><text text-anchor="end" transform="translate(-7,236.33333333333331)" style="font-family: sans-serif; font-size: 10px; fill: #000; opacity: 1;">110</text><text text-anchor="end" transform="translate(-7,203.00000000000003)" style="font-family: sans-serif; font-size: 10px; fill: #000; opacity: 1;">120</text><text text-anchor="end" transform="translate(-7,169.66666666666669)" style="font-family: sans-serif; font-size: 10px; fill: #000; opacity: 1;">130</text><text text-anchor="end" transform="translate(-7,136.33333333333331)" style="font-family: sans-serif; font-size: 10px; fill: #000; opacity: 1;">140</text><text text-anchor="end" transform="translate(-7,102.99999999999997)" style="font-family: sans-serif; font-size: 10px; fill: #000; opacity: 1;">150</text><text text-anchor="end" transform="translate(-7,69.6666666666667)" style="font-family: sans-serif; font-size: 10px; fill: #000; opacity: 1;">160</text><text text-anchor="end" transform="translate(-7,36.33333333333335)" style="font-family: sans-serif; font-size: 10px; fill: #000; opacity: 1;">170</text><text text-anchor="end" transform="translate(-7,3)" style="font-family: sans-serif; font-size: 10px; fill: #000; opacity: 1;">180</text></g><g class="mark-rule role-axis-domain" style="pointer-events: none;"><line transform="translate(0,600)" x2="0" y2="-600" style="fill: none; stroke: #888; stroke-width: 1; opacity: 1;"></line></g><g class="mark-text role-axis-title" style="pointer-events: none;"><text text-anchor="middle" transform="translate(-35,300) rotate(-90) translate(0,-2)" style="font-family: sans-serif; font-size: 11px; font-weight: bold; fill: #000; opacity: 1;">Sum of Hours</text></g></g><path class="foreground" d="" style="pointer-events: none; display: none; fill: none;"></path></g></g><g class="mark-rect role-mark marks"><path d="M1.2903225806451815,243.33333333333334h23.225806451612904v10.000000000000028h-23.225806451612904Z" style="fill: #72b7b2;"></path><path d="M1.2903225806451815,171.66666666666666h23.225806451612904v71.66666666666669h-23.225806451612904Z" style="fill: #4c78a8;"></path><path d="M1.2903225806451815,253.33333333333337h23.225806451612904v198.33333333333331h-23.225806451612904Z" style="fill: #54a24b;"></path><path d="M1.2903225806451815,503.33333333333337h23.225806451612904v70h-23.225806451612904Z" style="fill: #b279a2;"></path><path d="M1.2903225806451815,451.6666666666667h23.225806451612904v51.666666666666686h-23.225806451612904Z" style="fill: #eeca3b;"></path><path d="M1.2903225806451815,573.3333333333334h23.225806451612904v26.66666666666663h-23.225806451612904Z" style="fill: #9d755d;"></path><path d="M27.096774193548406,338.3333333333333h23.225806451612904v63.33333333333337h-23.225806451612904Z" style="fill: #54a24b;"></path><path d="M27.096774193548406,448.3333333333333h23.225806451612904v125.00000000000006h-23.225806451612904Z" style="fill: #b279a2;"></path><path d="M27.096774193548406,245h23.225806451612904v93.33333333333331h-23.225806451612904Z" style="fill: #4c78a8;"></path><path d="M27.096774193548406,401.6666666666667h23.225806451612904v46.66666666666663h-23.225806451612904Z" style="fill: #eeca3b;"></path><path d="M27.096774193548406,573.3333333333334h23.225806451612904v26.66666666666663h-23.225806451612904Z" style="fill: #9d755d;"></path><path d="M52.90322580645163,253.33333333333337h23.225806451612904v41.66666666666663h-23.225806451612904Z" style="fill: #54a24b;"></path><path d="M52.90322580645163,398.3333333333333h23.225806451612904v178.33333333333331h-23.225806451612904Z" style="fill: #b279a2;"></path><path d="M52.90322580645163,163.33333333333334h23.225806451612904v90.00000000000003h-23.225806451612904Z" style="fill: #4c78a8;"></path><path d="M52.90322580645163,295h23.225806451612904v103.33333333333331h-23.225806451612904Z" style="fill: #eeca3b;"></path><path d="M52.90322580645163,576.6666666666666h23.225806451612904v23.33333333333337h-23.225806451612904Z" style="fill: #ff9da6;"></path><path d="M78.70967741935485,248.33333333333331h23.225806451612904v13.333333333333371h-23.225806451612904Z" style="fill: #72b7b2;"></path><path d="M78.70967741935485,438.33333333333337h23.225806451612904v116.66666666666663h-23.225806451612904Z" style="fill: #b279a2;"></path><path d="M78.70967741935485,320h23.225806451612904v118.33333333333337h-23.225806451612904Z" style="fill: #eeca3b;"></path><path d="M78.70967741935485,555h23.225806451612904v18.33333333333337h-23.225806451612904Z" style="fill: #ff9da6;"></path><path d="M78.70967741935485,261.6666666666667h23.225806451612904v58.333333333333314h-23.225806451612904Z" style="fill: #54a24b;"></path><path d="M78.70967741935485,170h23.225806451612904v78.33333333333331h-23.225806451612904Z" style="fill: #4c78a8;"></path><path d="M78.70967741935485,573.3333333333334h23.225806451612904v26.66666666666663h-23.225806451612904Z" style="fill: #9d755d;"></path><path d="M104.51612903225808,450h23.225806451612904v125h-23.225806451612904Z" style="fill: #b279a2;"></path><path d="M104.51612903225808,260h23.225806451612904v63.333333333333314h-23.225806451612904Z" style="fill: #54a24b;"></path><path d="M104.51612903225808,323.3333333333333h23.225806451612904v126.66666666666669h-23.225806451612904Z" style="fill: #eeca3b;"></path><path d="M104.51612903225808,151.66666666666666h23.225806451612904v108.33333333333334h-23.225806451612904Z" style="fill: #4c78a8;"></path><path d="M104.51612903225808,575h23.225806451612904v25h-23.225806451612904Z" style="fill: #ff9da6;"></path><path d="M130.3225806451613,411.6666666666667h23.225806451612904v81.66666666666663h-23.225806451612904Z" style="fill: #b279a2;"></path><path d="M130.3225806451613,493.3333333333333h23.225806451612904v80.00000000000006h-23.225806451612904Z" style="fill: #ff9da6;"></path><path d="M130.3225806451613,241.66666666666669h23.225806451612904v61.66666666666663h-23.225806451612904Z" style="fill: #54a24b;"></path><path d="M130.3225806451613,0h23.225806451612904v241.66666666666669h-23.225806451612904Z" style="fill: #4c78a8;"></path><path d="M130.3225806451613,303.3333333333333h23.225806451612904v108.33333333333337h-23.225806451612904Z" style="fill: #eeca3b;"></path><path d="M130.3225806451613,573.3333333333334h23.225806451612904v26.66666666666663h-23.225806451612904Z" style="fill: #9d755d;"></path><path d="M156.1290322580645,488.3333333333333h23.225806451612904v53.333333333333314h-23.225806451612904Z" style="fill: #b279a2;"></path><path d="M156.1290322580645,131.66666666666666h23.225806451612904v138.33333333333334h-23.225806451612904Z" style="fill: #4c78a8;"></path><path d="M156.1290322580645,391.6666666666667h23.225806451612904v96.66666666666663h-23.225806451612904Z" style="fill: #eeca3b;"></path><path d="M156.1290322580645,573.3333333333334h23.225806451612904v26.66666666666663h-23.225806451612904Z" style="fill: #9d755d;"></path><path d="M156.1290322580645,280h23.225806451612904v111.66666666666669h-23.225806451612904Z" style="fill: #54a24b;"></path><path d="M156.1290322580645,270h23.225806451612904v10h-23.225806451612904Z" style="fill: #72b7b2;"></path><path d="M156.1290322580645,541.6666666666666h23.225806451612904v31.666666666666742h-23.225806451612904Z" style="fill: #ff9da6;"></path><path d="M181.93548387096774,79.99999999999999h23.225806451612904v48.33333333333336h-23.225806451612904Z" style="fill: #4c78a8;"></path><path d="M181.93548387096774,445h23.225806451612904v150h-23.225806451612904Z" style="fill: #b279a2;"></path><path d="M181.93548387096774,135h23.225806451612904v196.66666666666669h-23.225806451612904Z" style="fill: #54a24b;"></path><path d="M181.93548387096774,331.6666666666667h23.225806451612904v113.33333333333331h-23.225806451612904Z" style="fill: #eeca3b;"></path><path d="M181.93548387096774,595h23.225806451612904v5h-23.225806451612904Z" style="fill: #ff9da6;"></path><path d="M181.93548387096774,128.33333333333334h23.225806451612904v6.666666666666657h-23.225806451612904Z" style="fill: #72b7b2;"></path><path d="M207.74193548387098,566.6666666666666h23.225806451612904v6.6666666666667425h-23.225806451612904Z" style="fill: #ff9da6;"></path><path d="M207.74193548387098,175.83333333333331h23.225806451612904v26.666666666666686h-23.225806451612904Z" style="fill: #72b7b2;"></path><path d="M207.74193548387098,483.33333333333337h23.225806451612904v83.33333333333326h-23.225806451612904Z" style="fill: #b279a2;"></path><path d="M207.74193548387098,333.33333333333337h23.225806451612904v150h-23.225806451612904Z" style="fill: #eeca3b;"></path><path d="M207.74193548387098,202.5h23.225806451612904v130.83333333333337h-23.225806451612904Z" style="fill: #54a24b;"></path><path d="M207.74193548387098,85.83333333333336h23.225806451612904v89.99999999999996h-23.225806451612904Z" style="fill: #4c78a8;"></path><path d="M207.74193548387098,573.3333333333334h23.225806451612904v26.66666666666663h-23.225806451612904Z" style="fill: #9d755d;"></path><path d="M233.5483870967742,238.33333333333334h23.225806451612904v40.00000000000003h-23.225806451612904Z" style="fill: #4c78a8;"></path><path d="M233.5483870967742,293.33333333333337h23.225806451612904v79.99999999999994h-23.225806451612904Z" style="fill: #54a24b;"></path><path d="M233.5483870967742,373.3333333333333h23.225806451612904v66.66666666666674h-23.225806451612904Z" style="fill: #eeca3b;"></path><path d="M233.5483870967742,278.33333333333337h23.225806451612904v15h-23.225806451612904Z" style="fill: #72b7b2;"></path><path d="M233.5483870967742,440.00000000000006h23.225806451612904v159.99999999999994h-23.225806451612904Z" style="fill: #b279a2;"></path><path d="M259.35483870967744,289.99999999999994h23.225806451612904v193.33333333333343h-23.225806451612904Z" style="fill: #b279a2;"></path><path d="M259.35483870967744,91.66666666666667h23.225806451612904v24.999999999999986h-23.225806451612904Z" style="fill: #72b7b2;"></path><path d="M259.35483870967744,200.00000000000003h23.225806451612904v89.99999999999991h-23.225806451612904Z" style="fill: #eeca3b;"></path><path d="M259.35483870967744,64.99999999999997h23.225806451612904v26.6666666666667h-23.225806451612904Z" style="fill: #4c78a8;"></path><path d="M259.35483870967744,116.66666666666666h23.225806451612904v83.33333333333337h-23.225806451612904Z" style="fill: #54a24b;"></path><path d="M259.35483870967744,483.33333333333337h23.225806451612904v9.999999999999943h-23.225806451612904Z" style="fill: #ff9da6;"></path><path d="M259.35483870967744,493.3333333333333h23.225806451612904v106.66666666666669h-23.225806451612904Z" style="fill: #9d755d;"></path><path d="M285.16129032258067,98.33333333333331h23.225806451612904v115h-23.225806451612904Z" style="fill: #eeca3b;"></path><path d="M285.16129032258067,213.33333333333331h23.225806451612904v173.33333333333331h-23.225806451612904Z" style="fill: #b279a2;"></path><path d="M285.16129032258067,23.333333333333318h23.225806451612904v13.333333333333353h-23.225806451612904Z" style="fill: #4c78a8;"></path><path d="M285.16129032258067,76.66666666666666h23.225806451612904v21.666666666666657h-23.225806451612904Z" style="fill: #54a24b;"></path><path d="M285.16129032258067,36.66666666666667h23.225806451612904v39.999999999999986h-23.225806451612904Z" style="fill: #72b7b2;"></path><path d="M285.16129032258067,386.66666666666663h23.225806451612904v213.33333333333337h-23.225806451612904Z" style="fill: #9d755d;"></path><path d="M310.96774193548384,193.33333333333331h23.225806451612904v11.666666666666686h-23.225806451612904Z" style="fill: #72b7b2;"></path><path d="M310.96774193548384,258.33333333333337h23.225806451612904v56.66666666666663h-23.225806451612904Z" style="fill: #eeca3b;"></path><path d="M310.96774193548384,315h23.225806451612904v233.33333333333337h-23.225806451612904Z" style="fill: #b279a2;"></path><path d="M310.96774193548384,205h23.225806451612904v53.33333333333337h-23.225806451612904Z" style="fill: #54a24b;"></path><path d="M310.96774193548384,548.3333333333334h23.225806451612904v25h-23.225806451612904Z" style="fill: #ff9da6;"></path><path d="M310.96774193548384,183.33333333333334h23.225806451612904v9.999999999999972h-23.225806451612904Z" style="fill: #4c78a8;"></path><path d="M310.96774193548384,573.3333333333334h23.225806451612904v26.66666666666663h-23.225806451612904Z" style="fill: #9d755d;"></path><path d="M336.7741935483871,510h23.225806451612904v41.66666666666663h-23.225806451612904Z" style="fill: #b279a2;"></path><path d="M336.7741935483871,160.00000000000003h23.225806451612904v76.66666666666666h-23.225806451612904Z" style="fill: #4c78a8;"></path><path d="M336.7741935483871,383.3333333333333h23.225806451612904v126.66666666666669h-23.225806451612904Z" style="fill: #eeca3b;"></path><path d="M336.7741935483871,276.6666666666667h23.225806451612904v106.66666666666663h-23.225806451612904Z" style="fill: #54a24b;"></path><path d="M336.7741935483871,236.66666666666669h23.225806451612904v40h-23.225806451612904Z" style="fill: #72b7b2;"></path><path d="M336.7741935483871,551.6666666666666h23.225806451612904v21.666666666666742h-23.225806451612904Z" style="fill: #ff9da6;"></path><path d="M336.7741935483871,573.3333333333334h23.225806451612904v26.66666666666663h-23.225806451612904Z" style="fill: #9d755d;"></path><path d="M362.5806451612903,214.99999999999997h23.225806451612904v150.00000000000009h-23.225806451612904Z" style="fill: #54a24b;"></path><path d="M362.5806451612903,365.00000000000006h23.225806451612904v144.99999999999994h-23.225806451612904Z" style="fill: #eeca3b;"></path><path d="M362.5806451612903,205h23.225806451612904v9.999999999999972h-23.225806451612904Z" style="fill: #72b7b2;"></path><path d="M362.5806451612903,101.66666666666664h23.225806451612904v103.33333333333336h-23.225806451612904Z" style="fill: #4c78a8;"></path><path d="M362.5806451612903,510h23.225806451612904v65h-23.225806451612904Z" style="fill: #b279a2;"></path><path d="M362.5806451612903,575h23.225806451612904v25h-23.225806451612904Z" style="fill: #ff9da6;"></path><path d="M388.38709677419354,311.66666666666663h23.225806451612904v155.00000000000006h-23.225806451612904Z" style="fill: #54a24b;"></path><path d="M388.38709677419354,500h23.225806451612904v70h-23.225806451612904Z" style="fill: #b279a2;"></path><path d="M388.38709677419354,570h23.225806451612904v3.3333333333333712h-23.225806451612904Z" style="fill: #ff9da6;"></path><path d="M388.38709677419354,466.6666666666667h23.225806451612904v33.333333333333314h-23.225806451612904Z" style="fill: #eeca3b;"></path><path d="M388.38709677419354,573.3333333333334h23.225806451612904v26.66666666666663h-23.225806451612904Z" style="fill: #9d755d;"></path><path d="M388.38709677419354,278.33333333333337h23.225806451612904v33.33333333333326h-23.225806451612904Z" style="fill: #72b7b2;"></path><path d="M388.38709677419354,270h23.225806451612904v8.333333333333371h-23.225806451612904Z" style="fill: #4c78a8;"></path><path d="M414.19354838709677,298.3333333333333h23.225806451612904v8.333333333333314h-23.225806451612904Z" style="fill: #72b7b2;"></path><path d="M414.19354838709677,483.33333333333337h23.225806451612904v88.33333333333326h-23.225806451612904Z" style="fill: #b279a2;"></path><path d="M414.19354838709677,420h23.225806451612904v63.33333333333337h-23.225806451612904Z" style="fill: #eeca3b;"></path><path d="M414.19354838709677,306.66666666666663h23.225806451612904v113.33333333333337h-23.225806451612904Z" style="fill: #54a24b;"></path><path d="M414.19354838709677,285h23.225806451612904v13.333333333333314h-23.225806451612904Z" style="fill: #4c78a8;"></path><path d="M414.19354838709677,571.6666666666666h23.225806451612904v1.6666666666667425h-23.225806451612904Z" style="fill: #ff9da6;"></path><path d="M414.19354838709677,573.3333333333334h23.225806451612904v26.66666666666663h-23.225806451612904Z" style="fill: #9d755d;"></path><path d="M440,164.16666666666669h23.225806451612904v23.333333333333314h-23.225806451612904Z" style="fill: #72b7b2;"></path><path d="M440,187.5h23.225806451612904v230.83333333333331h-23.225806451612904Z" style="fill: #54a24b;"></path><path d="M440,418.3333333333333h23.225806451612904v93.33333333333331h-23.225806451612904Z" style="fill: #eeca3b;"></path><path d="M440,511.66666666666663h23.225806451612904v61.66666666666674h-23.225806451612904Z" style="fill: #b279a2;"></path><path d="M440,125.00000000000003h23.225806451612904v39.16666666666666h-23.225806451612904Z" style="fill: #4c78a8;"></path><path d="M440,573.3333333333334h23.225806451612904v26.66666666666663h-23.225806451612904Z" style="fill: #9d755d;"></path><path d="M465.80645161290323,558.3333333333334h23.225806451612904v15h-23.225806451612904Z" style="fill: #b279a2;"></path><path d="M465.80645161290323,573.3333333333334h23.225806451612904v26.66666666666663h-23.225806451612904Z" style="fill: #9d755d;"></path><path d="M465.80645161290323,316.6666666666667h23.225806451612904v186.66666666666669h-23.225806451612904Z" style="fill: #54a24b;"></path><path d="M465.80645161290323,503.33333333333337h23.225806451612904v55h-23.225806451612904Z" style="fill: #eeca3b;"></path><path d="M465.80645161290323,283.3333333333333h23.225806451612904v33.33333333333337h-23.225806451612904Z" style="fill: #72b7b2;"></path><path d="M465.80645161290323,280h23.225806451612904v3.3333333333333144h-23.225806451612904Z" style="fill: #4c78a8;"></path><path d="M491.61290322580646,241.66666666666669h23.225806451612904v50h-23.225806451612904Z" style="fill: #72b7b2;"></path><path d="M491.61290322580646,420h23.225806451612904v128.33333333333337h-23.225806451612904Z" style="fill: #eeca3b;"></path><path d="M491.61290322580646,291.6666666666667h23.225806451612904v128.33333333333331h-23.225806451612904Z" style="fill: #54a24b;"></path><path d="M491.61290322580646,563.3333333333334h23.225806451612904v36.66666666666663h-23.225806451612904Z" style="fill: #ff9da6;"></path><path d="M491.61290322580646,235.00000000000003h23.225806451612904v6.666666666666657h-23.225806451612904Z" style="fill: #4c78a8;"></path><path d="M491.61290322580646,548.3333333333334h23.225806451612904v15h-23.225806451612904Z" style="fill: #b279a2;"></path><path d="M517.4193548387098,271.66666666666663h23.225806451612904v183.33333333333337h-23.225806451612904Z" style="fill: #54a24b;"></path><path d="M517.4193548387098,573.3333333333334h23.225806451612904v26.66666666666663h-23.225806451612904Z" style="fill: #9d755d;"></path><path d="M517.4193548387098,540h23.225806451612904v33.33333333333337h-23.225806451612904Z" style="fill: #b279a2;"></path><path d="M517.4193548387098,455h23.225806451612904v85h-23.225806451612904Z" style="fill: #eeca3b;"></path><path d="M517.4193548387098,245h23.225806451612904v13.333333333333371h-23.225806451612904Z" style="fill: #4c78a8;"></path><path d="M517.4193548387098,258.33333333333337h23.225806451612904v13.333333333333258h-23.225806451612904Z" style="fill: #72b7b2;"></path><path d="M543.2258064516129,260h23.225806451612904v16.666666666666686h-23.225806451612904Z" style="fill: #4c78a8;"></path><path d="M543.2258064516129,493.3333333333333h23.225806451612904v78.33333333333331h-23.225806451612904Z" style="fill: #eeca3b;"></path><path d="M543.2258064516129,585h23.225806451612904v15h-23.225806451612904Z" style="fill: #ff9da6;"></path><path d="M543.2258064516129,296.6666666666667h23.225806451612904v196.66666666666663h-23.225806451612904Z" style="fill: #54a24b;"></path><path d="M543.2258064516129,571.6666666666666h23.225806451612904v13.333333333333371h-23.225806451612904Z" style="fill: #b279a2;"></path><path d="M543.2258064516129,276.6666666666667h23.225806451612904v20h-23.225806451612904Z" style="fill: #72b7b2;"></path><path d="M569.0322580645161,210h23.225806451612904v211.66666666666663h-23.225806451612904Z" style="fill: #54a24b;"></path><path d="M569.0322580645161,200.00000000000003h23.225806451612904v9.999999999999972h-23.225806451612904Z" style="fill: #72b7b2;"></path><path d="M569.0322580645161,181.66666666666669h23.225806451612904v18.333333333333343h-23.225806451612904Z" style="fill: #4c78a8;"></path><path d="M569.0322580645161,421.66666666666663h23.225806451612904v66.66666666666669h-23.225806451612904Z" style="fill: #eeca3b;"></path><path d="M569.0322580645161,488.3333333333333h23.225806451612904v5h-23.225806451612904Z" style="fill: #b279a2;"></path><path d="M569.0322580645161,493.3333333333333h23.225806451612904v106.66666666666669h-23.225806451612904Z" style="fill: #9d755d;"></path><path d="M594.8387096774193,388.33333333333326h23.225806451612904v146.66666666666674h-23.225806451612904Z" style="fill: #eeca3b;"></path><path d="M594.8387096774193,320h23.225806451612904v68.33333333333326h-23.225806451612904Z" style="fill: #54a24b;"></path><path d="M594.8387096774193,535h23.225806451612904v11.666666666666629h-23.225806451612904Z" style="fill: #b279a2;"></path><path d="M594.8387096774193,546.6666666666666h23.225806451612904v53.33333333333337h-23.225806451612904Z" style="fill: #9d755d;"></path><path d="M620.6451612903224,553.3333333333334h23.225806451612904v46.66666666666663h-23.225806451612904Z" style="fill: #9d755d;"></path><path d="M620.6451612903224,416.66666666666663h23.225806451612904v100.00000000000011h-23.225806451612904Z" style="fill: #eeca3b;"></path><path d="M620.6451612903224,223.33333333333334h23.225806451612904v18.333333333333343h-23.225806451612904Z" style="fill: #72b7b2;"></path><path d="M620.6451612903224,241.66666666666669h23.225806451612904v174.99999999999994h-23.225806451612904Z" style="fill: #54a24b;"></path><path d="M620.6451612903224,540h23.225806451612904v13.333333333333371h-23.225806451612904Z" style="fill: #ff9da6;"></path><path d="M620.6451612903224,516.6666666666667h23.225806451612904v23.333333333333258h-23.225806451612904Z" style="fill: #b279a2;"></path><path d="M646.4516129032259,311.66666666666663h23.225806451612904v145h-23.225806451612904Z" style="fill: #54a24b;"></path><path d="M646.4516129032259,456.66666666666663h23.225806451612904v108.33333333333337h-23.225806451612904Z" style="fill: #eeca3b;"></path><path d="M646.4516129032259,281.6666666666667h23.225806451612904v3.3333333333333144h-23.225806451612904Z" style="fill: #4c78a8;"></path><path d="M646.4516129032259,578.3333333333334h23.225806451612904v5h-23.225806451612904Z" style="fill: #ff9da6;"></path><path d="M646.4516129032259,285h23.225806451612904v26.66666666666663h-23.225806451612904Z" style="fill: #72b7b2;"></path><path d="M646.4516129032259,565h23.225806451612904v13.333333333333371h-23.225806451612904Z" style="fill: #b279a2;"></path><path d="M646.4516129032259,583.3333333333334h23.225806451612904v16.66666666666663h-23.225806451612904Z" style="fill: #9d755d;"></path><path d="M672.258064516129,380.8333333333333h23.225806451612904v184.16666666666669h-23.225806451612904Z" style="fill: #eeca3b;"></path><path d="M672.258064516129,249.16666666666666h23.225806451612904v131.66666666666666h-23.225806451612904Z" style="fill: #54a24b;"></path><path d="M672.258064516129,566.6666666666666h23.225806451612904v33.33333333333337h-23.225806451612904Z" style="fill: #ff9da6;"></path><path d="M672.258064516129,221.66666666666669h23.225806451612904v27.49999999999997h-23.225806451612904Z" style="fill: #72b7b2;"></path><path d="M672.258064516129,565h23.225806451612904v1.6666666666666288h-23.225806451612904Z" style="fill: #b279a2;"></path><path d="M672.258064516129,218.33333333333337h23.225806451612904v3.3333333333333144h-23.225806451612904Z" style="fill: #4c78a8;"></path><path d="M698.0645161290322,467.5h23.225806451612904v84.16666666666663h-23.225806451612904Z" style="fill: #eeca3b;"></path><path d="M698.0645161290322,395h23.225806451612904v11.666666666666686h-23.225806451612904Z" style="fill: #72b7b2;"></path><path d="M698.0645161290322,551.6666666666666h23.225806451612904v16.66666666666663h-23.225806451612904Z" style="fill: #b279a2;"></path><path d="M698.0645161290322,406.6666666666667h23.225806451612904v60.833333333333314h-23.225806451612904Z" style="fill: #54a24b;"></path><path d="M698.0645161290322,568.3333333333333h23.225806451612904v15.000000000000114h-23.225806451612904Z" style="fill: #ff9da6;"></path><path d="M698.0645161290322,583.3333333333334h23.225806451612904v16.66666666666663h-23.225806451612904Z" style="fill: #9d755d;"></path><path d="M698.0645161290322,393.3333333333333h23.225806451612904v1.6666666666666856h-23.225806451612904Z" style="fill: #f58518;"></path><path d="M723.8709677419354,445h23.225806451612904v88.33333333333326h-23.225806451612904Z" style="fill: #eeca3b;"></path><path d="M723.8709677419354,289.99999999999994h23.225806451612904v155.00000000000006h-23.225806451612904Z" style="fill: #54a24b;"></path><path d="M723.8709677419354,268.3333333333333h23.225806451612904v21.66666666666663h-23.225806451612904Z" style="fill: #72b7b2;"></path><path d="M723.8709677419354,540h23.225806451612904v43.33333333333337h-23.225806451612904Z" style="fill: #ff9da6;"></path><path d="M723.8709677419354,266.66666666666663h23.225806451612904v1.6666666666666856h-23.225806451612904Z" style="fill: #f58518;"></path><path d="M723.8709677419354,533.3333333333333h23.225806451612904v6.6666666666667425h-23.225806451612904Z" style="fill: #b279a2;"></path><path d="M723.8709677419354,583.3333333333334h23.225806451612904v16.66666666666663h-23.225806451612904Z" style="fill: #9d755d;"></path><path d="M749.6774193548388,410h23.225806451612904v93.33333333333337h-23.225806451612904Z" style="fill: #eeca3b;"></path><path d="M749.6774193548388,291.6666666666667h23.225806451612904v118.33333333333331h-23.225806451612904Z" style="fill: #54a24b;"></path><path d="M749.6774193548388,281.6666666666667h23.225806451612904v10h-23.225806451612904Z" style="fill: #72b7b2;"></path><path d="M749.6774193548388,503.33333333333337h23.225806451612904v76.66666666666663h-23.225806451612904Z" style="fill: #b279a2;"></path><path d="M749.6774193548388,273.33333333333337h23.225806451612904v8.333333333333314h-23.225806451612904Z" style="fill: #e45756;"></path><path d="M749.6774193548388,580h23.225806451612904v3.3333333333333712h-23.225806451612904Z" style="fill: #ff9da6;"></path><path d="M749.6774193548388,583.3333333333334h23.225806451612904v16.66666666666663h-23.225806451612904Z" style="fill: #9d755d;"></path><path d="M775.483870967742,566.6666666666666h23.225806451612904v33.33333333333337h-23.225806451612904Z" style="fill: #9d755d;"></path><path d="M775.483870967742,539.1666666666666h23.225806451612904v27.5h-23.225806451612904Z" style="fill: #54a24b;"></path><path d="M775.483870967742,530.8333333333333h23.225806451612904v8.333333333333371h-23.225806451612904Z" style="fill: #72b7b2;"></path></g><g class="mark-group role-legend"><g transform="translate(818,0)"><path class="background" d="M0,0h120v131h-120Z" style="pointer-events: none; fill: none;"></path><g><g class="mark-group role-legend-entry"><g transform="translate(0,16)"><path class="background" d="M0,0h0v0h0Z" style="pointer-events: none; fill: none;"></path><g><g class="mark-group role-scope"><g transform="translate(0,0)"><path class="background" d="M0,0h120v11h-120Z" style="pointer-events: none; fill: none; opacity: 1;"></path><g><g class="mark-symbol role-legend-symbol" style="pointer-events: none;"><path transform="translate(6,6)" d="M-5,-5h10v10h-10Z" style="fill: #4c78a8; stroke-width: 1.5; opacity: 1;"></path></g><g class="mark-text role-legend-label" style="pointer-events: none;"><text text-anchor="start" transform="translate(16,9)" style="font-family: sans-serif; font-size: 10px; fill: #000; opacity: 1;">APOLLO</text></g></g><path class="foreground" d="" style="pointer-events: none; display: none; fill: none;"></path></g><g transform="translate(0,13)"><path class="background" d="M0,0h120v11h-120Z" style="pointer-events: none; fill: none; opacity: 1;"></path><g><g class="mark-symbol role-legend-symbol" style="pointer-events: none;"><path transform="translate(6,6)" d="M-5,-5h10v10h-10Z" style="fill: #f58518; stroke-width: 1.5; opacity: 1;"></path></g><g class="mark-text role-legend-label" style="pointer-events: none;"><text text-anchor="start" transform="translate(16,9)" style="font-family: sans-serif; font-size: 10px; fill: #000; opacity: 1;">CMS-PIXEL-DTC</text></g></g><path class="foreground" d="" style="pointer-events: none; display: none; fill: none;"></path></g><g transform="translate(0,26)"><path class="background" d="M0,0h120v11h-120Z" style="pointer-events: none; fill: none; opacity: 1;"></path><g><g class="mark-symbol role-legend-symbol" style="pointer-events: none;"><path transform="translate(6,6)" d="M-5,-5h10v10h-10Z" style="fill: #e45756; stroke-width: 1.5; opacity: 1;"></path></g><g class="mark-text role-legend-label" style="pointer-events: none;"><text text-anchor="start" transform="translate(16,9)" style="font-family: sans-serif; font-size: 10px; fill: #000; opacity: 1;">DINESH-MIGDAL</text></g></g><path class="foreground" d="" style="pointer-events: none; display: none; fill: none;"></path></g><g transform="translate(0,39)"><path class="background" d="M0,0h120v11h-120Z" style="pointer-events: none; fill: none; opacity: 1;"></path><g><g class="mark-symbol role-legend-symbol" style="pointer-events: none;"><path transform="translate(6,6)" d="M-5,-5h10v10h-10Z" style="fill: #72b7b2; stroke-width: 1.5; opacity: 1;"></path></g><g class="mark-text role-legend-label" style="pointer-events: none;"><text text-anchor="start" transform="translate(16,9)" style="font-family: sans-serif; font-size: 10px; fill: #000; opacity: 1;">EDF</text></g></g><path class="foreground" d="" style="pointer-events: none; display: none; fill: none;"></path></g><g transform="translate(0,52)"><path class="background" d="M0,0h120v11h-120Z" style="pointer-events: none; fill: none; opacity: 1;"></path><g><g class="mark-symbol role-legend-symbol" style="pointer-events: none;"><path transform="translate(6,6)" d="M-5,-5h10v10h-10Z" style="fill: #54a24b; stroke-width: 1.5; opacity: 1;"></path></g><g class="mark-text role-legend-label" style="pointer-events: none;"><text text-anchor="start" transform="translate(16,9)" style="font-family: sans-serif; font-size: 10px; fill: #000; opacity: 1;">ETL</text></g></g><path class="foreground" d="" style="pointer-events: none; display: none; fill: none;"></path></g><g transform="translate(0,65)"><path class="background" d="M0,0h120v11h-120Z" style="pointer-events: none; fill: none; opacity: 1;"></path><g><g class="mark-symbol role-legend-symbol" style="pointer-events: none;"><path transform="translate(6,6)" d="M-5,-5h10v10h-10Z" style="fill: #eeca3b; stroke-width: 1.5; opacity: 1;"></path></g><g class="mark-text role-legend-label" style="pointer-events: none;"><text text-anchor="start" transform="translate(16,9)" style="font-family: sans-serif; font-size: 10px; fill: #000; opacity: 1;">GEM</text></g></g><path class="foreground" d="" style="pointer-events: none; display: none; fill: none;"></path></g><g transform="translate(0,78)"><path class="background" d="M0,0h120v11h-120Z" style="pointer-events: none; fill: none; opacity: 1;"></path><g><g class="mark-symbol role-legend-symbol" style="pointer-events: none;"><path transform="translate(6,6)" d="M-5,-5h10v10h-10Z" style="fill: #b279a2; stroke-width: 1.5; opacity: 1;"></path></g><g class="mark-text role-legend-label" style="pointer-events: none;"><text text-anchor="start" transform="translate(16,9)" style="font-family: sans-serif; font-size: 10px; fill: #000; opacity: 1;">L0MDT</text></g></g><path class="foreground" d="" style="pointer-events: none; display: none; fill: none;"></path></g><g transform="translate(0,91)"><path class="background" d="M0,0h120v11h-120Z" style="pointer-events: none; fill: none; opacity: 1;"></path><g><g class="mark-symbol role-legend-symbol" style="pointer-events: none;"><path transform="translate(6,6)" d="M-5,-5h10v10h-10Z" style="fill: #ff9da6; stroke-width: 1.5; opacity: 1;"></path></g><g class="mark-text role-legend-label" style="pointer-events: none;"><text text-anchor="start" transform="translate(16,9)" style="font-family: sans-serif; font-size: 10px; fill: #000; opacity: 1;">OTHER PRJ</text></g></g><path class="foreground" d="" style="pointer-events: none; display: none; fill: none;"></path></g><g transform="translate(0,104)"><path class="background" d="M0,0h120v11h-120Z" style="pointer-events: none; fill: none; opacity: 1;"></path><g><g class="mark-symbol role-legend-symbol" style="pointer-events: none;"><path transform="translate(6,6)" d="M-5,-5h10v10h-10Z" style="fill: #9d755d; stroke-width: 1.5; opacity: 1;"></path></g><g class="mark-text role-legend-label" style="pointer-events: none;"><text text-anchor="start" transform="translate(16,9)" style="font-family: sans-serif; font-size: 10px; fill: #000; opacity: 1;">VAC/SICK/HOL</text></g></g><path class="foreground" d="" style="pointer-events: none; display: none; fill: none;"></path></g></g></g><path class="foreground" d="" style="pointer-events: none; display: none; fill: none;"></path></g></g><g class="mark-text role-legend-title" style="pointer-events: none;"><text text-anchor="start" transform="translate(0,9)" style="font-family: sans-serif; font-size: 11px; font-weight: bold; fill: #000; opacity: 1;">Project</text></g></g><path class="foreground" d="" style="pointer-events: none; display: none; fill: none;"></path></g></g></g><path class="foreground" d="" style="display: none; fill: none;"></path></g></g></g></svg>