<svg class="marks" width="994" height="693" viewBox="0 0 994 693" version="1.1" xmlns="http://www.w3.org/2000/svg" xmlns:xlink="http://www.w3.org/1999/xlink"><rect width="994" height="693" style="fill: white;"></rect><g transform="translate(51,10)"><g class="mark-group role-frame root"><g transform="translate(0,0)"><path class="background" d="M0.5,0.5h800v600h-800Z" style="fill: none; stroke: #ddd;"></path><g><g class="mark-group role-axis"><g transform="translate(0.5,0.5)"><path class="background" d="M0,0h0v0h0Z" style="pointer-events: none; fill: none;"></path><g><g class="mark-rule role-axis-grid" style="pointer-events: none;"><line transform="translate(0,600)" x2="800" y2="0" style="fill: none; stroke: #ddd; stroke-width: 1; opacity: 1;"></line><line transform="translate(0,545)" x2="800" y2="0" style="fill: none; stroke: #ddd; stroke-width: 1; opacity: 1;"></line><line transform="translate(0,491)" x2="800" y2="0" style="fill: none; stroke: #ddd; stroke-width: 1; opacity: 1;"></line><line transform="translate(0,436)" x2="800" y2="0" style="fill: none; stroke: #ddd; stroke-width: 1; opacity: 1;"></line><line transform="translate(0,382)" x2="800" y2="0" style="fill: none; stroke: #ddd; stroke-width: 1; opacity: 1;"></line><line transform="translate(0,327)" x2="800" y2="0" style="fill: none; stroke: #ddd; stroke-width: 1; opacity: 1;"></line><line transform="translate(0,273)" x2="800" y2="0" style="fill: none; stroke: #ddd; stroke-width: 1; opacity: 1;"></line><line transform="translate(0,218)" x2="800" y2="0" style="fill: none; stroke: #ddd; stroke-width: 1; opacity: 1;"></line><line transform="translate(0,164)" x2="800" y2="0" style="fill: none; stroke: #ddd; stroke-width: 1; opacity: 1;"></line><line transform="translate(0,109)" x2="800" y2="0" style="fill: none; stroke: #ddd; stroke-width: 1; opacity: 1;"></line><line transform="translate(0,55)" x2="800" y2="0" style="fill: none; stroke: #ddd; stroke-width: 1; opacity: 1;"></line><line transform="translate(0,0)" x2="800" y2="0" style="fill: none; stroke: #ddd; stroke-width: 1; opacity: 1;"></line></g></g><path class="foreground" d="" style="pointer-events: none; display: none; fill: none;"></path></g></g><g class="mark-group role-axis"><g transform="translate(0.5,600.5)"><path class="background" d="M0,0h0v0h0Z" style="pointer-events: none; fill: none;"></path><g><g class="mark-rule role-axis-tick" style="pointer-events: none;"><line transform="translate(13,0)" x2="0" y2="5" style="fill: none; stroke: #888; stroke-width: 1; opacity: 1;"></line><line transform="translate(41,0)" x2="0" y2="5" style="fill: none; stroke: #888; stroke-width: 1; opacity: 1;"></line><line transform="translate(68,0)" x2="0" y2="5" style="fill: none; stroke: #888; stroke-width: 1; opacity: 1;"></line><line transform="translate(96,0)" x2="0" y2="5" style="fill: none; stroke: #888; stroke-width: 1; opacity: 1;"></line><line transform="translate(124,0)" x2="0" y2="5" style="fill: none; stroke: #888; stroke-width: 1; opacity: 1;"></line><line transform="translate(151,0)" x2="0" y2="5" style="fill: none; stroke: #888; stroke-width: 1; opacity: 1;"></line><line transform="translate(179,0)" x2="0" y2="5" style="fill: none; stroke: #888; stroke-width: 1; opacity: 1;"></line><line transform="translate(206,0)" x2="0" y2="5" style="fill: none; stroke: #888; stroke-width: 1; opacity: 1;"></line><line transform="translate(234,0)" x2="0" y2="5" style="fill: none; stroke: #888; stroke-width: 1; opacity: 1;"></line><line transform="translate(262,0)" x2="0" y2="5" style="fill: none; stroke: #888; stroke-width: 1; opacity: 1;"></line><line transform="translate(289,0)" x2="0" y2="5" style="fill: none; stroke: #888; stroke-width: 1; opacity: 1;"></line><line transform="translate(317,0)" x2="0" y2="5" style="fill: none; stroke: #888; stroke-width: 1; opacity: 1;"></line><line transform="translate(344,0)" x2="0" y2="5" style="fill: none; stroke: #888; stroke-width: 1; opacity: 1;"></line><line transform="translate(372,0)" x2="0" y2="5" style="fill: none; stroke: #888; stroke-width: 1; opacity: 1;"></line><line transform="translate(400,0)" x2="0" y2="5" style="fill: none; stroke: #888; stroke-width: 1; opacity: 1;"></line><line transform="translate(427,0)" x2="0" y2="5" style="fill: none; stroke: #888; stroke-width: 1; opacity: 1;"></line><line transform="translate(455,0)" x2="0" y2="5" style="fill: none; stroke: #888; stroke-width: 1; opacity: 1;"></line><line transform="translate(482,0)" x2="0" y2="5" style="fill: none; stroke: #888; stroke-width: 1; opacity: 1;"></line><line transform="translate(510,0)" x2="0" y2="5" style="fill: none; stroke: #888; stroke-width: 1; opacity: 1;"></line><line transform="translate(537,0)" x2="0" y2="5" style="fill: none; stroke: #888; stroke-width: 1; opacity: 1;"></line><line transform="translate(565,0)" x2="0" y2="5" style="fill: none; stroke: #888; stroke-width: 1; opacity: 1;"></line><line transform="translate(593,0)" x2="0" y2="5" style="fill: none; stroke: #888; stroke-width: 1; opacity: 1;"></line><line transform="translate(620,0)" x2="0" y2="5" style="fill: none; stroke: #888; stroke-width: 1; opacity: 1;"></line><line transform="translate(648,0)" x2="0" y2="5" style="fill: none; stroke: #888; stroke-width: 1; opacity: 1;"></line><line transform="translate(675,0)" x2="0" y2="5" style="fill: none; stroke: #888; stroke-width: 1; opacity: 1;"></line><line transform="translate(703,0)" x2="0" y2="5" style="fill: none; stroke: #888; stroke-width: 1; opacity: 1;"></line><line transform="translate(731,0)" x2="0" y2="5" style="fill: none; stroke: #888; stroke-width: 1; opacity: 1;"></line><line transform="translate(758,0)" x2="0" y2="5" style="fill: none; stroke: #888; stroke-width: 1; opacity: 1;"></line><line transform="translate(786,0)" x2="0" y2="5" style="fill: none; stroke: #888; stroke-width: 1; opacity: 1;"></line></g><g class="mark-text role-axis-label" style="pointer-events: none;"><text text-anchor="end" transform="translate(13.293103448275891,7) rotate(270) translate(0,3)" style="font-family: sans-serif; font-size: 10px; fill: #000; opacity: 1;">2021-01</text><text text-anchor="end" transform="translate(40.879310344827616,7) rotate(270) translate(0,3)" style="font-family: sans-serif; font-size: 10px; fill: #000; opacity: 1;">2021-02</text><text text-anchor="end" transform="translate(68.46551724137933,7) rotate(270) translate(0,3)" style="font-family: sans-serif; font-size: 10px; fill: #000; opacity: 1;">2021-03</text><text text-anchor="end" transform="translate(96.05172413793106,7) rotate(270) translate(0,3)" style="font-family: sans-serif; font-size: 10px; fill: #000; opacity: 1;">2021-04</text><text text-anchor="end" transform="translate(123.63793103448278,7) rotate(270) translate(0,3)" style="font-family: sans-serif; font-size: 10px; fill: #000; opacity: 1;">2021-05</text><text text-anchor="end" transform="translate(151.2241379310345,7) rotate(270) translate(0,3)" style="font-family: sans-serif; font-size: 10px; fill: #000; opacity: 1;">2021-06</text><text text-anchor="end" transform="translate(178.81034482758625,7) rotate(270) translate(0,3)" style="font-family: sans-serif; font-size: 10px; fill: #000; opacity: 1;">2021-07</text><text text-anchor="end" transform="translate(206.39655172413796,7) rotate(270) translate(0,3)" style="font-family: sans-serif; font-size: 10px; fill: #000; opacity: 1;">2021-08</text><text text-anchor="end" transform="translate(233.98275862068968,7) rotate(270) translate(0,3)" style="font-family: sans-serif; font-size: 10px; fill: #000; opacity: 1;">2021-09</text><text text-anchor="end" transform="translate(261.5689655172414,7) rotate(270) translate(0,3)" style="font-family: sans-serif; font-size: 10px; fill: #000; opacity: 1;">2021-10</text><text text-anchor="end" transform="translate(289.1551724137931,7) rotate(270) translate(0,3)" style="font-family: sans-serif; font-size: 10px; fill: #000; opacity: 1;">2021-11</text><text text-anchor="end" transform="translate(316.7413793103448,7) rotate(270) translate(0,3)" style="font-family: sans-serif; font-size: 10px; fill: #000; opacity: 1;">2021-12</text><text text-anchor="end" transform="translate(344.32758620689657,7) rotate(270) translate(0,3)" style="font-family: sans-serif; font-size: 10px; fill: #000; opacity: 1;">2022-01</text><text text-anchor="end" transform="translate(371.91379310344826,7) rotate(270) translate(0,3)" style="font-family: sans-serif; font-size: 10px; fill: #000; opacity: 1;">2022-02</text><text text-anchor="end" transform="translate(399.5,7) rotate(270) translate(0,3)" style="font-family: sans-serif; font-size: 10px; fill: #000; opacity: 1;">2022-03</text><text text-anchor="end" transform="translate(427.0862068965517,7) rotate(270) translate(0,3)" style="font-family: sans-serif; font-size: 10px; fill: #000; opacity: 1;">2022-04</text><text text-anchor="end" transform="translate(454.67241379310343,7) rotate(270) translate(0,3)" style="font-family: sans-serif; font-size: 10px; fill: #000; opacity: 1;">2022-05</text><text text-anchor="end" transform="translate(482.2586206896552,7) rotate(270) translate(0,3)" style="font-family: sans-serif; font-size: 10px; fill: #000; opacity: 1;">2022-06</text><text text-anchor="end" transform="translate(509.84482758620686,7) rotate(270) translate(0,3)" style="font-family: sans-serif; font-size: 10px; fill: #000; opacity: 1;">2022-07</text><text text-anchor="end" transform="translate(537.4310344827585,7) rotate(270) translate(0,3)" style="font-family: sans-serif; font-size: 10px; fill: #000; opacity: 1;">2022-08</text><text text-anchor="end" transform="translate(565.0172413793103,7) rotate(270) translate(0,3)" style="font-family: sans-serif; font-size: 10px; fill: #000; opacity: 1;">2022-09</text><text text-anchor="end" transform="translate(592.603448275862,7) rotate(270) translate(0,3)" style="font-family: sans-serif; font-size: 10px; fill: #000; opacity: 1;">2022-10</text><text text-anchor="end" transform="translate(620.1896551724138,7) rotate(270) translate(0,3)" style="font-family: sans-serif; font-size: 10px; fill: #000; opacity: 1;">2022-11</text><text text-anchor="end" transform="translate(647.7758620689655,7) rotate(270) translate(0,3)" style="font-family: sans-serif; font-size: 10px; fill: #000; opacity: 1;">2022-12</text><text text-anchor="end" transform="translate(675.3620689655173,7) rotate(270) translate(0,3)" style="font-family: sans-serif; font-size: 10px; fill: #000; opacity: 1;">2023-01</text><text text-anchor="end" transform="translate(702.948275862069,7) rotate(270) translate(0,3)" style="font-family: sans-serif; font-size: 10px; fill: #000; opacity: 1;">2023-02</text><text text-anchor="end" transform="translate(730.5344827586206,7) rotate(270) translate(0,3)" style="font-family: sans-serif; font-size: 10px; fill: #000; opacity: 1;">2023-03</text><text text-anchor="end" transform="translate(758.1206896551724,7) rotate(270) translate(0,3)" style="font-family: sans-serif; font-size: 10px; fill: #000; opacity: 1;">2023-04</text><text text-anchor="end" transform="translate(785.7068965517241,7) rotate(270) translate(0,3)" style="font-family: sans-serif; font-size: 10px; fill: #000; opacity: 1;">2023-05</text></g><g class="mark-rule role-axis-domain" style="pointer-events: none;"><line transform="translate(0,0)" x2="800" y2="0" style="fill: none; stroke: #888; stroke-width: 1; opacity: 1;"></line></g><g class="mark-text role-axis-title" style="pointer-events: none;"><text text-anchor="middle" transform="translate(400,76.00000000000001)" style="font-family: sans-serif; font-size: 11px; font-weight: bold; fill: #000; opacity: 1;">Date</text></g></g><path class="foreground" d="" style="pointer-events: none; display: none; fill: none;"></path></g></g><g class="mark-group role-axis"><g transform="translate(0.5,0.5)"><path class="background" d="M0,0h0v0h0Z" style="pointer-events: none; fill: none;"></path><g><g class="mark-rule role-axis-tick" style="pointer-events: none;"><line transform="translate(0,600)" x2="-5" y2="0" style="fill: none; stroke: #888; stroke-width: 1; opacity: 1;"></line><line transform="translate(0,545)" x2="-5" y2="0" style="fill: none; stroke: #888; stroke-width: 1; opacity: 1;"></line><line transform="translate(0,491)" x2="-5" y2="0" style="fill: none; stroke: #888; stroke-width: 1; opacity: 1;"></line><line transform="translate(0,436)" x2="-5" y2="0" style="fill: none; stroke: #888; stroke-width: 1; opacity: 1;"></line><line transform="translate(0,382)" x2="-5" y2="0" style="fill: none; stroke: #888; stroke-width: 1; opacity: 1;"></line><line transform="translate(0,327)" x2="-5" y2="0" style="fill: none; stroke: #888; stroke-width: 1; opacity: 1;"></line><line transform="translate(0,273)" x2="-5" y2="0" style="fill: none; stroke: #888; stroke-width: 1; opacity: 1;"></line><line transform="translate(0,218)" x2="-5" y2="0" style="fill: none; stroke: #888; stroke-width: 1; opacity: 1;"></line><line transform="translate(0,164)" x2="-5" y2="0" style="fill: none; stroke: #888; stroke-width: 1; opacity: 1;"></line><line transform="translate(0,109)" x2="-5" y2="0" style="fill: none; stroke: #888; stroke-width: 1; opacity: 1;"></line><line transform="translate(0,55)" x2="-5" y2="0" style="fill: none; stroke: #888; stroke-width: 1; opacity: 1;"></line><line transform="translate(0,0)" x2="-5" y2="0" style="fill: none; stroke: #888; stroke-width: 1; opacity: 1;"></line></g><g class="mark-text role-axis-label" style="pointer-events: none;"><text text-anchor="end" transform="translate(-7,603)" style="font-family: sans-serif; font-size: 10px; fill: #000; opacity: 1;">0.0</text><text text-anchor="end" transform="translate(-7,548.4545454545454)" style="font-family: sans-serif; font-size: 10px; fill: #000; opacity: 1;">0.1</text><text text-anchor="end" transform="translate(-7,493.9090909090909)" style="font-family: sans-serif; font-size: 10px; fill: #000; opacity: 1;">0.2</text><text text-anchor="end" transform="translate(-7,439.3636363636364)" style="font-family: sans-serif; font-size: 10px; fill: #000; opacity: 1;">0.3</text><text text-anchor="end" transform="translate(-7,384.8181818181818)" style="font-family: sans-serif; font-size: 10px; fill: #000; opacity: 1;">0.4</text><text text-anchor="end" transform="translate(-7,330.27272727272725)" style="font-family: sans-serif; font-size: 10px; fill: #000; opacity: 1;">0.5</text><text text-anchor="end" transform="translate(-7,275.72727272727275)" style="font-family: sans-serif; font-size: 10px; fill: #000; opacity: 1;">0.6</text><text text-anchor="end" transform="translate(-7,221.18181818181824)" style="font-family: sans-serif; font-size: 10px; fill: #000; opacity: 1;">0.7</text><text text-anchor="end" transform="translate(-7,166.63636363636363)" style="font-family: sans-serif; font-size: 10px; fill: #000; opacity: 1;">0.8</text><text text-anchor="end" transform="translate(-7,112.09090909090912)" style="font-family: sans-serif; font-size: 10px; fill: #000; opacity: 1;">0.9</text><text text-anchor="end" transform="translate(-7,57.54545454545456)" style="font-family: sans-serif; font-size: 10px; fill: #000; opacity: 1;">1.0</text><text text-anchor="end" transform="translate(-7,3)" style="font-family: sans-serif; font-size: 10px; fill: #000; opacity: 1;">1.1</text></g><g class="mark-rule role-axis-domain" style="pointer-events: none;"><line transform="translate(0,600)" x2="0" y2="-600" style="fill: none; stroke: #888; stroke-width: 1; opacity: 1;"></line></g><g class="mark-text role-axis-title" style="pointer-events: none;"><text text-anchor="middle" transform="translate(-35,300) rotate(-90) translate(0,-2)" style="font-family: sans-serif; font-size: 11px; font-weight: bold; fill: #000; opacity: 1;">Sum of Hours</text></g></g><path class="foreground" d="" style="pointer-events: none; display: none; fill: none;"></path></g></g><g class="mark-rect role-mark marks"><path d="M1.3793103448276156,145.80827732578717h24.82758620689655v12.734347364697584h-24.82758620689655Z" style="fill: #e45756;"></path><path d="M1.3793103448276156,54.545454545454696h24.82758620689655v91.26282278033247h-24.82758620689655Z" style="fill: #4c78a8;"></path><path d="M1.3793103448276156,158.54262469048476h24.82758620689655v252.56455606650147h-24.82758620689655Z" style="fill: #72b7b2;"></path><path d="M1.3793103448276156,476.9013088079236h24.82758620689655v89.14043155288294h-24.82758620689655Z" style="fill: #eeca3b;"></path><path d="M1.3793103448276156,411.1071807569862h24.82758620689655v65.79412805093739h-24.82758620689655Z" style="fill: #54a24b;"></path><path d="M1.3793103448276156,566.0417403608066h24.82758620689655v33.95825963919344h-24.82758620689655Z" style="fill: #ff9da6;"></path><path d="M28.965517241379338,197.95134443021766h24.82758620689655v97.31113956466072h-24.82758620689655Z" style="fill: #72b7b2;"></path><path d="M28.965517241379338,366.9654289372599h24.82758620689655v192.06145966709352h-24.82758620689655Z" style="fill: #eeca3b;"></path><path d="M28.965517241379338,54.54545454545456h24.82758620689655v143.4058898847631h-24.82758620689655Z" style="fill: #4c78a8;"></path><path d="M28.965517241379338,295.2624839948784h24.82758620689655v71.70294494238152h-24.82758620689655Z" style="fill: #54a24b;"></path><path d="M28.965517241379338,559.0268886043534h24.82758620689655v40.97311139564658h-24.82758620689655Z" style="fill: #ff9da6;"></path><path d="M56.55172413793106,166.96738376127672h24.82758620689655v52.04718945176958h-24.82758620689655Z" style="fill: #72b7b2;"></path><path d="M56.55172413793106,348.09160305343505h24.82758620689655v222.76197085357398h-24.82758620689655Z" style="fill: #eeca3b;"></path><path d="M56.55172413793106,54.54545454545436h24.82758620689655v112.42192921582236h-24.82758620689655Z" style="fill: #4c78a8;"></path><path d="M56.55172413793106,219.0145732130463h24.82758620689655v129.07702984038875h-24.82758620689655Z" style="fill: #54a24b;"></path><path d="M56.55172413793106,570.853573907009h24.82758620689655v29.146426092990964h-24.82758620689655Z" style="fill: #b279a2;"></path><path d="M84.13793103448279,153.91120507399577h24.82758620689655v16.91331923890067h-24.82758620689655Z" style="fill: #e45756;"></path><path d="M84.13793103448279,394.9260042283298h24.82758620689655v147.99154334038053h-24.82758620689655Z" style="fill: #eeca3b;"></path><path d="M84.13793103448279,244.82029598308665h24.82758620689655v150.10570824524316h-24.82758620689655Z" style="fill: #54a24b;"></path><path d="M84.13793103448279,542.9175475687103h24.82758620689655v23.255813953488428h-24.82758620689655Z" style="fill: #b279a2;"></path><path d="M84.13793103448279,170.82452431289644h24.82758620689655v73.99577167019021h-24.82758620689655Z" style="fill: #72b7b2;"></path><path d="M84.13793103448279,54.5454545454545h24.82758620689655v99.36575052854127h-24.82758620689655Z" style="fill: #4c78a8;"></path><path d="M84.13793103448279,566.1733615221988h24.82758620689655v33.826638477801225h-24.82758620689655Z" style="fill: #ff9da6;"></path><path d="M111.7241379310345,417.5059141601893h24.82758620689655v152.07840486650895h-24.82758620689655Z" style="fill: #eeca3b;"></path><path d="M111.7241379310345,186.34673876309566h24.82758620689655v77.05305846569789h-24.82758620689655Z" style="fill: #72b7b2;"></path><path d="M111.7241379310345,263.39979722879355h24.82758620689655v154.10611693139577h-24.82758620689655Z" style="fill: #54a24b;"></path><path d="M111.7241379310345,54.54545454545456h24.82758620689655v131.8012842176411h-24.82758620689655Z" style="fill: #4c78a8;"></path><path d="M111.7241379310345,569.5843190266983h24.82758620689655v30.415680973301733h-24.82758620689655Z" style="fill: #b279a2;"></path><path d="M139.31034482758622,428.78787878787887h24.82758620689655v74.24242424242419h-24.82758620689655Z" style="fill: #eeca3b;"></path><path d="M139.31034482758622,503.03030303030306h24.82758620689655v72.72727272727269h-24.82758620689655Z" style="fill: #b279a2;"></path><path d="M139.31034482758622,274.2424242424243h24.82758620689655v56.06060606060606h-24.82758620689655Z" style="fill: #72b7b2;"></path><path d="M139.31034482758622,54.545454545454696h24.82758620689655v219.6969696969696h-24.82758620689655Z" style="fill: #4c78a8;"></path><path d="M139.31034482758622,330.30303030303037h24.82758620689655v98.4848484848485h-24.82758620689655Z" style="fill: #54a24b;"></path><path d="M139.31034482758622,575.7575757575758h24.82758620689655v24.24242424242425h-24.82758620689655Z" style="fill: #ff9da6;"></path><path d="M166.89655172413796,469.9450016175995h24.82758620689655v62.11582012293752h-24.82758620689655Z" style="fill: #eeca3b;"></path><path d="M166.89655172413796,54.54545454545456h24.82758620689655v161.11290844386932h-24.82758620689655Z" style="fill: #4c78a8;"></path><path d="M166.89655172413796,357.36007764477523h24.82758620689655v112.58492397282424h-24.82758620689655Z" style="fill: #54a24b;"></path><path d="M166.89655172413796,568.9420899385312h24.82758620689655v31.05791006146876h-24.82758620689655Z" style="fill: #ff9da6;"></path><path d="M166.89655172413796,227.3050792623747h24.82758620689655v130.05499838240053h-24.82758620689655Z" style="fill: #72b7b2;"></path><path d="M166.89655172413796,215.65836298932388h24.82758620689655v11.646716273050828h-24.82758620689655Z" style="fill: #e45756;"></path><path d="M166.89655172413796,532.060821740537h24.82758620689655v36.881268197994245h-24.82758620689655Z" style="fill: #b279a2;"></path><path d="M194.48275862068968,54.54545454545463h24.82758620689655v50.699300699300736h-24.82758620689655Z" style="fill: #4c78a8;"></path><path d="M194.48275862068968,437.4125874125875h24.82758620689655v157.34265734265728h-24.82758620689655Z" style="fill: #eeca3b;"></path><path d="M194.48275862068968,112.23776223776231h24.82758620689655v206.2937062937063h-24.82758620689655Z" style="fill: #72b7b2;"></path><path d="M194.48275862068968,318.5314685314686h24.82758620689655v118.88111888111894h-24.82758620689655Z" style="fill: #54a24b;"></path><path d="M194.48275862068968,594.7552447552448h24.82758620689655v5.244755244755197h-24.82758620689655Z" style="fill: #b279a2;"></path><path d="M194.48275862068968,105.24475524475537h24.82758620689655v6.993006993006944h-24.82758620689655Z" style="fill: #e45756;"></path><path d="M222.0689655172414,564.6382790629144h24.82758620689655v7.072344187417116h-24.82758620689655Z" style="fill: #b279a2;"></path><path d="M222.0689655172414,150.02210107558577h24.82758620689655v28.28937674966849h-24.82758620689655Z" style="fill: #e45756;"></path><path d="M222.0689655172414,476.23397672020036h24.82758620689655v88.40430234271406h-24.82758620689655Z" style="fill: #eeca3b;"></path><path d="M222.0689655172414,317.10623250331514h24.82758620689655v159.12774421688522h-24.82758620689655Z" style="fill: #54a24b;"></path><path d="M222.0689655172414,178.31147782525426h24.82758620689655v138.79475467806088h-24.82758620689655Z" style="fill: #72b7b2;"></path><path d="M222.0689655172414,54.54545454545463h24.82758620689655v95.47664653013113h-24.82758620689655Z" style="fill: #4c78a8;"></path><path d="M222.0689655172414,571.7106232503315h24.82758620689655v28.289376749668463h-24.82758620689655Z" style="fill: #ff9da6;"></path><path d="M249.6551724137931,54.54545454545456h24.82758620689655v60.32677000418934h-24.82758620689655Z" style="fill: #4c78a8;"></path><path d="M249.6551724137931,137.49476330121496h24.82758620689655v120.65354000837874h-24.82758620689655Z" style="fill: #72b7b2;"></path><path d="M249.6551724137931,258.1483033095937h24.82758620689655v100.54461667364887h-24.82758620689655Z" style="fill: #54a24b;"></path><path d="M249.6551724137931,114.8722245496439h24.82758620689655v22.622538751571057h-24.82758620689655Z" style="fill: #e45756;"></path><path d="M249.6551724137931,358.6929199832426h24.82758620689655v241.30708001675742h-24.82758620689655Z" style="fill: #eeca3b;"></path><path d="M277.2413793103448,283.9422259983008h24.82758620689655v197.11129991503822h-24.82758620689655Z" style="fill: #eeca3b;"></path><path d="M277.2413793103448,81.73322005097712h24.82758620689655v25.488530161427335h-24.82758620689655Z" style="fill: #e45756;"></path><path d="M277.2413793103448,192.18351741716236h24.82758620689655v91.75870858113842h-24.82758620689655Z" style="fill: #54a24b;"></path><path d="M277.2413793103448,54.54545454545456h24.82758620689655v27.187765505522563h-24.82758620689655Z" style="fill: #4c78a8;"></path><path d="M277.2413793103448,107.22175021240446h24.82758620689655v84.9617672047579h-24.82758620689655Z" style="fill: #72b7b2;"></path><path d="M277.2413793103448,481.053525913339h24.82758620689655v10.195412064570917h-24.82758620689655Z" style="fill: #b279a2;"></path><path d="M277.2413793103448,491.2489379779099h24.82758620689655v108.75106202209008h-24.82758620689655Z" style="fill: #ff9da6;"></path><path d="M304.82758620689657,125.4860746190227h24.82758620689655v108.77561744613766h-24.82758620689655Z" style="fill: #54a24b;"></path><path d="M304.82758620689657,234.26169206516036h24.82758620689655v163.95165528113503h-24.82758620689655Z" style="fill: #eeca3b;"></path><path d="M304.82758620689657,54.545454545454696h24.82758620689655v12.611665790856527h-24.82758620689655Z" style="fill: #4c78a8;"></path><path d="M304.82758620689657,104.99211770888088h24.82758620689655v20.49395691014182h-24.82758620689655Z" style="fill: #72b7b2;"></path><path d="M304.82758620689657,67.15712033631122h24.82758620689655v37.83499737256966h-24.82758620689655Z" style="fill: #e45756;"></path><path d="M304.82758620689657,398.2133473462954h24.82758620689655v201.7866526537046h-24.82758620689655Z" style="fill: #ff9da6;"></path><path d="M332.4137931034483,67.63636363636354h24.82758620689655v15.272727272727238h-24.82758620689655Z" style="fill: #e45756;"></path><path d="M332.4137931034483,152.72727272727258h24.82758620689655v74.18181818181819h-24.82758620689655Z" style="fill: #54a24b;"></path><path d="M332.4137931034483,226.90909090909076h24.82758620689655v305.4545454545456h-24.82758620689655Z" style="fill: #eeca3b;"></path><path d="M332.4137931034483,82.90909090909078h24.82758620689655v69.8181818181818h-24.82758620689655Z" style="fill: #72b7b2;"></path><path d="M332.4137931034483,532.3636363636364h24.82758620689655v32.72727272727275h-24.82758620689655Z" style="fill: #b279a2;"></path><path d="M332.4137931034483,54.5454545454545h24.82758620689655v13.090909090909044h-24.82758620689655Z" style="fill: #4c78a8;"></path><path d="M332.4137931034483,565.0909090909091h24.82758620689655v34.90909090909088h-24.82758620689655Z" style="fill: #ff9da6;"></path><path d="M360,488.4297520661157h24.82758620689655v51.652892561983435h-24.82758620689655Z" style="fill: #eeca3b;"></path><path d="M360,54.54545454545476h24.82758620689655v95.04132231404958h-24.82758620689655Z" style="fill: #4c78a8;"></path><path d="M360,331.40495867768607h24.82758620689655v157.02479338842966h-24.82758620689655Z" style="fill: #54a24b;"></path><path d="M360,199.17355371900845h24.82758620689655v132.23140495867762h-24.82758620689655Z" style="fill: #72b7b2;"></path><path d="M360,149.58677685950434h24.82758620689655v49.58677685950411h-24.82758620689655Z" style="fill: #e45756;"></path><path d="M360,540.0826446280992h24.82758620689655v26.85950413223145h-24.82758620689655Z" style="fill: #b279a2;"></path><path d="M360,566.9421487603306h24.82758620689655v33.05785123966939h-24.82758620689655Z" style="fill: #ff9da6;"></path><path d="M387.58620689655174,178.59531772575272h24.82758620689655v164.1836424445119h-24.82758620689655Z" style="fill: #72b7b2;"></path><path d="M387.58620689655174,342.7789601702646h24.82758620689655v158.7108543630282h-24.82758620689655Z" style="fill: #54a24b;"></path><path d="M387.58620689655174,167.64974156278524h24.82758620689655v10.945576162967484h-24.82758620689655Z" style="fill: #e45756;"></path><path d="M387.58620689655174,54.54545454545476h24.82758620689655v113.10428701733048h-24.82758620689655Z" style="fill: #4c78a8;"></path><path d="M387.58620689655174,501.4898145332928h24.82758620689655v71.1462450592885h-24.82758620689655Z" style="fill: #eeca3b;"></path><path d="M387.58620689655174,572.6360595925813h24.82758620689655v27.36394040741868h-24.82758620689655Z" style="fill: #b279a2;"></path><path d="M415.17241379310343,123.41597796143253h24.82758620689655v256.19834710743794h-24.82758620689655Z" style="fill: #72b7b2;"></path><path d="M415.17241379310343,434.7107438016529h24.82758620689655v115.70247933884303h-24.82758620689655Z" style="fill: #eeca3b;"></path><path d="M415.17241379310343,550.4132231404959h24.82758620689655v5.509641873278156h-24.82758620689655Z" style="fill: #b279a2;"></path><path d="M415.17241379310343,379.61432506887047h24.82758620689655v55.09641873278241h-24.82758620689655Z" style="fill: #54a24b;"></path><path d="M415.17241379310343,555.9228650137741h24.82758620689655v44.07713498622593h-24.82758620689655Z" style="fill: #ff9da6;"></path><path d="M415.17241379310343,68.31955922865018h24.82758620689655v55.096418732782354h-24.82758620689655Z" style="fill: #e45756;"></path><path d="M415.17241379310343,54.54545454545456h24.82758620689655v13.774104683195617h-24.82758620689655Z" style="fill: #4c78a8;"></path><path d="M442.7586206896552,77.6334776334777h24.82758620689655v14.430014430014467h-24.82758620689655Z" style="fill: #e45756;"></path><path d="M442.7586206896552,397.979797979798h24.82758620689655v152.958152958153h-24.82758620689655Z" style="fill: #eeca3b;"></path><path d="M442.7586206896552,288.31168831168833h24.82758620689655v109.66810966810965h-24.82758620689655Z" style="fill: #54a24b;"></path><path d="M442.7586206896552,92.06349206349216h24.82758620689655v196.24819624819617h-24.82758620689655Z" style="fill: #72b7b2;"></path><path d="M442.7586206896552,54.54545454545456h24.82758620689655v23.088023088023135h-24.82758620689655Z" style="fill: #4c78a8;"></path><path d="M442.7586206896552,550.937950937951h24.82758620689655v2.8860028860028706h-24.82758620689655Z" style="fill: #b279a2;"></path><path d="M442.7586206896552,553.8239538239538h24.82758620689655v46.17604617604616h-24.82758620689655Z" style="fill: #ff9da6;"></path><path d="M470.3448275862069,99.52153110047837h24.82758620689655v26.794258373205764h-24.82758620689655Z" style="fill: #e45756;"></path><path d="M470.3448275862069,126.31578947368413h24.82758620689655v265.0717703349284h-24.82758620689655Z" style="fill: #72b7b2;"></path><path d="M470.3448275862069,391.3875598086125h24.82758620689655v107.177033492823h-24.82758620689655Z" style="fill: #54a24b;"></path><path d="M470.3448275862069,498.5645933014355h24.82758620689655v70.81339712918657h-24.82758620689655Z" style="fill: #eeca3b;"></path><path d="M470.3448275862069,54.5454545454545h24.82758620689655v44.97607655502387h-24.82758620689655Z" style="fill: #4c78a8;"></path><path d="M470.3448275862069,569.377990430622h24.82758620689655v30.62200956937795h-24.82758620689655Z" style="fill: #ff9da6;"></path><path d="M497.9310344827586,528.9772727272727h24.82758620689655v25.56818181818187h-24.82758620689655Z" style="fill: #eeca3b;"></path><path d="M497.9310344827586,554.5454545454546h24.82758620689655v45.45454545454538h-24.82758620689655Z" style="fill: #ff9da6;"></path><path d="M497.9310344827586,117.0454545454546h24.82758620689655v318.18181818181813h-24.82758620689655Z" style="fill: #72b7b2;"></path><path d="M497.9310344827586,435.22727272727275h24.82758620689655v93.75h-24.82758620689655Z" style="fill: #54a24b;"></path><path d="M497.9310344827586,60.22727272727284h24.82758620689655v56.81818181818176h-24.82758620689655Z" style="fill: #e45756;"></path><path d="M497.9310344827586,54.54545454545463h24.82758620689655v5.681818181818208h-24.82758620689655Z" style="fill: #4c78a8;"></path><path d="M525.5172413793102,64.50809464508104h24.82758620689655v74.71980074719797h-24.82758620689655Z" style="fill: #e45756;"></path><path d="M525.5172413793102,331.00871731008715h24.82758620689655v191.78082191780834h-24.82758620689655Z" style="fill: #54a24b;"></path><path d="M525.5172413793102,139.227895392279h24.82758620689655v191.78082191780814h-24.82758620689655Z" style="fill: #72b7b2;"></path><path d="M525.5172413793102,545.2054794520548h24.82758620689655v54.79452054794524h-24.82758620689655Z" style="fill: #b279a2;"></path><path d="M525.5172413793102,54.54545454545463h24.82758620689655v9.962640099626412h-24.82758620689655Z" style="fill: #4c78a8;"></path><path d="M525.5172413793102,522.7895392278955h24.82758620689655v22.41594022415927h-24.82758620689655Z" style="fill: #eeca3b;"></path><path d="M553.1034482758621,95.51856594110117h24.82758620689655v281.69014084507046h-24.82758620689655Z" style="fill: #72b7b2;"></path><path d="M553.1034482758621,559.0268886043534h24.82758620689655v40.97311139564658h-24.82758620689655Z" style="fill: #ff9da6;"></path><path d="M553.1034482758621,507.81049935979513h24.82758620689655v51.216389244558286h-24.82758620689655Z" style="fill: #eeca3b;"></path><path d="M553.1034482758621,377.2087067861716h24.82758620689655v130.60179257362353h-24.82758620689655Z" style="fill: #54a24b;"></path><path d="M553.1034482758621,54.54545454545456h24.82758620689655v20.48655569782335h-24.82758620689655Z" style="fill: #4c78a8;"></path><path d="M553.1034482758621,75.03201024327791h24.82758620689655v20.486555697823263h-24.82758620689655Z" style="fill: #e45756;"></path><path d="M580.6896551724137,54.54545454545456h24.82758620689655v26.7379679144385h-24.82758620689655Z" style="fill: #4c78a8;"></path><path d="M580.6896551724137,428.8770053475936h24.82758620689655v125.66844919786104h-24.82758620689655Z" style="fill: #54a24b;"></path><path d="M580.6896551724137,575.9358288770054h24.82758620689655v24.064171122994594h-24.82758620689655Z" style="fill: #b279a2;"></path><path d="M580.6896551724137,113.36898395721926h24.82758620689655v315.5080213903743h-24.82758620689655Z" style="fill: #72b7b2;"></path><path d="M580.6896551724137,554.5454545454546h24.82758620689655v21.390374331550788h-24.82758620689655Z" style="fill: #eeca3b;"></path><path d="M580.6896551724137,81.28342245989306h24.82758620689655v32.085561497326196h-24.82758620689655Z" style="fill: #e45756;"></path><path d="M608.2758620689656,91.48859109018484h24.82758620689655v275.98696124592533h-24.82758620689655Z" style="fill: #72b7b2;"></path><path d="M608.2758620689656,78.4498370155742h24.82758620689655v13.038754074610637h-24.82758620689655Z" style="fill: #e45756;"></path><path d="M608.2758620689656,54.545454545454696h24.82758620689655v23.904382470119508h-24.82758620689655Z" style="fill: #4c78a8;"></path><path d="M608.2758620689656,367.4755523361102h24.82758620689655v86.92502716407091h-24.82758620689655Z" style="fill: #54a24b;"></path><path d="M608.2758620689656,454.4005795001811h24.82758620689655v6.519377037305333h-24.82758620689655Z" style="fill: #eeca3b;"></path><path d="M608.2758620689656,460.9199565374864h24.82758620689655v139.08004346251357h-24.82758620689655Z" style="fill: #ff9da6;"></path><path d="M635.8620689655172,187.66233766233768h24.82758620689655v285.7142857142857h-24.82758620689655Z" style="fill: #54a24b;"></path><path d="M635.8620689655172,54.54545454545456h24.82758620689655v133.11688311688312h-24.82758620689655Z" style="fill: #72b7b2;"></path><path d="M635.8620689655172,473.3766233766234h24.82758620689655v22.727272727272748h-24.82758620689655Z" style="fill: #eeca3b;"></path><path d="M635.8620689655172,496.10389610389615h24.82758620689655v103.89610389610385h-24.82758620689655Z" style="fill: #ff9da6;"></path><path d="M663.4482758620691,532.4215607401449h24.82758620689655v67.57843925985514h-24.82758620689655Z" style="fill: #ff9da6;"></path><path d="M663.4482758620691,334.5132743362832h24.82758620689655v144.81094127111828h-24.82758620689655Z" style="fill: #54a24b;"></path><path d="M663.4482758620691,54.5454545454545h24.82758620689655v26.548672566371728h-24.82758620689655Z" style="fill: #e45756;"></path><path d="M663.4482758620691,81.09412711182623h24.82758620689655v253.41914722445696h-24.82758620689655Z" style="fill: #72b7b2;"></path><path d="M663.4482758620691,513.113435237329h24.82758620689655v19.30812550281587h-24.82758620689655Z" style="fill: #b279a2;"></path><path d="M663.4482758620691,479.32421560740147h24.82758620689655v33.789219629927516h-24.82758620689655Z" style="fill: #eeca3b;"></path><path d="M691.0344827586207,105.94954783436452h24.82758620689655v248.45311756306523h-24.82758620689655Z" style="fill: #72b7b2;"></path><path d="M691.0344827586207,354.40266539742976h24.82758620689655v185.62589243217525h-24.82758620689655Z" style="fill: #54a24b;"></path><path d="M691.0344827586207,54.5454545454545h24.82758620689655v5.711565920989983h-24.82758620689655Z" style="fill: #4c78a8;"></path><path d="M691.0344827586207,562.8748215135649h24.82758620689655v8.567348881485032h-24.82758620689655Z" style="fill: #b279a2;"></path><path d="M691.0344827586207,60.25702046644448h24.82758620689655v45.69252736792004h-24.82758620689655Z" style="fill: #e45756;"></path><path d="M691.0344827586207,540.028557829605h24.82758620689655v22.846263683959933h-24.82758620689655Z" style="fill: #eeca3b;"></path><path d="M691.0344827586207,571.44217039505h24.82758620689655v28.55782960495003h-24.82758620689655Z" style="fill: #ff9da6;"></path><path d="M718.6206896551723,286.7804684398571h24.82758620689655v263.19968241365626h-24.82758620689655Z" style="fill: #54a24b;"></path><path d="M718.6206896551723,98.61055974593094h24.82758620689655v188.16990869392615h-24.82758620689655Z" style="fill: #72b7b2;"></path><path d="M718.6206896551723,552.3620484319174h24.82758620689655v47.6379515680826h-24.82758620689655Z" style="fill: #b279a2;"></path><path d="M718.6206896551723,59.30924970226279h24.82758620689655v39.30131004366815h-24.82758620689655Z" style="fill: #e45756;"></path><path d="M718.6206896551723,549.9801508535134h24.82758620689655v2.3818975784040504h-24.82758620689655Z" style="fill: #eeca3b;"></path><path d="M718.6206896551723,54.54545454545456h24.82758620689655v4.763795156808229h-24.82758620689655Z" style="fill: #4c78a8;"></path><path d="M746.2068965517242,250.2932551319649h24.82758620689655v222.14076246334307h-24.82758620689655Z" style="fill: #54a24b;"></path><path d="M746.2068965517242,58.9442815249269h24.82758620689655v30.791788856304954h-24.82758620689655Z" style="fill: #e45756;"></path><path d="M746.2068965517242,472.434017595308h24.82758620689655v43.988269794721305h-24.82758620689655Z" style="fill: #eeca3b;"></path><path d="M746.2068965517242,89.73607038123185h24.82758620689655v160.55718475073306h-24.82758620689655Z" style="fill: #72b7b2;"></path><path d="M746.2068965517242,516.4222873900293h24.82758620689655v39.5894428152493h-24.82758620689655Z" style="fill: #b279a2;"></path><path d="M746.2068965517242,556.0117302052786h24.82758620689655v43.98826979472142h-24.82758620689655Z" style="fill: #ff9da6;"></path><path d="M746.2068965517242,54.54545454545476h24.82758620689655v4.39882697947214h-24.82758620689655Z" style="fill: #f58518;"></path><path d="M773.7931034482758,338.40445269016703h24.82758620689655v194.80519480519473h-24.82758620689655Z" style="fill: #54a24b;"></path><path d="M773.7931034482758,132.46753246753244h24.82758620689655v205.9369202226346h-24.82758620689655Z" style="fill: #72b7b2;"></path><path d="M773.7931034482758,60.11131725417438h24.82758620689655v72.35621521335806h-24.82758620689655Z" style="fill: #e45756;"></path><path d="M773.7931034482758,538.7755102040817h24.82758620689655v61.224489795918316h-24.82758620689655Z" style="fill: #b279a2;"></path><path d="M773.7931034482758,54.54545454545456h24.82758620689655v5.56586270871982h-24.82758620689655Z" style="fill: #f58518;"></path><path d="M773.7931034482758,533.2096474953618h24.82758620689655v5.565862708719919h-24.82758620689655Z" style="fill: #eeca3b;"></path></g><g class="mark-group role-legend"><g transform="translate(818,0)"><path class="background" d="M0,0h120v118h-120Z" style="pointer-events: none; fill: none;"></path><g><g class="mark-group role-legend-entry"><g transform="translate(0,16)"><path class="background" d="M0,0h0v0h0Z" style="pointer-events: none; fill: none;"></path><g><g class="mark-group role-scope"><g transform="translate(0,0)"><path class="background" d="M0,0h120v11h-120Z" style="pointer-events: none; fill: none; opacity: 1;"></path><g><g class="mark-symbol role-legend-symbol" style="pointer-events: none;"><path transform="translate(6,6)" d="M-5,-5h10v10h-10Z" style="fill: #4c78a8; stroke-width: 1.5; opacity: 1;"></path></g><g class="mark-text role-legend-label" style="pointer-events: none;"><text text-anchor="start" transform="translate(16,9)" style="font-family: sans-serif; font-size: 10px; fill: #000; opacity: 1;">APOLLO</text></g></g><path class="foreground" d="" style="pointer-events: none; display: none; fill: none;"></path></g><g transform="translate(0,13)"><path class="background" d="M0,0h120v11h-120Z" style="pointer-events: none; fill: none; opacity: 1;"></path><g><g class="mark-symbol role-legend-symbol" style="pointer-events: none;"><path transform="translate(6,6)" d="M-5,-5h10v10h-10Z" style="fill: #f58518; stroke-width: 1.5; opacity: 1;"></path></g><g class="mark-text role-legend-label" style="pointer-events: none;"><text text-anchor="start" transform="translate(16,9)" style="font-family: sans-serif; font-size: 10px; fill: #000; opacity: 1;">CMS-PIXEL-DTC</text></g></g><path class="foreground" d="" style="pointer-events: none; display: none; fill: none;"></path></g><g transform="translate(0,26)"><path class="background" d="M0,0h120v11h-120Z" style="pointer-events: none; fill: none; opacity: 1;"></path><g><g class="mark-symbol role-legend-symbol" style="pointer-events: none;"><path transform="translate(6,6)" d="M-5,-5h10v10h-10Z" style="fill: #e45756; stroke-width: 1.5; opacity: 1;"></path></g><g class="mark-text role-legend-label" style="pointer-events: none;"><text text-anchor="start" transform="translate(16,9)" style="font-family: sans-serif; font-size: 10px; fill: #000; opacity: 1;">EDF</text></g></g><path class="foreground" d="" style="pointer-events: none; display: none; fill: none;"></path></g><g transform="translate(0,39)"><path class="background" d="M0,0h120v11h-120Z" style="pointer-events: none; fill: none; opacity: 1;"></path><g><g class="mark-symbol role-legend-symbol" style="pointer-events: none;"><path transform="translate(6,6)" d="M-5,-5h10v10h-10Z" style="fill: #72b7b2; stroke-width: 1.5; opacity: 1;"></path></g><g class="mark-text role-legend-label" style="pointer-events: none;"><text text-anchor="start" transform="translate(16,9)" style="font-family: sans-serif; font-size: 10px; fill: #000; opacity: 1;">ETL</text></g></g><path class="foreground" d="" style="pointer-events: none; display: none; fill: none;"></path></g><g transform="translate(0,52)"><path class="background" d="M0,0h120v11h-120Z" style="pointer-events: none; fill: none; opacity: 1;"></path><g><g class="mark-symbol role-legend-symbol" style="pointer-events: none;"><path transform="translate(6,6)" d="M-5,-5h10v10h-10Z" style="fill: #54a24b; stroke-width: 1.5; opacity: 1;"></path></g><g class="mark-text role-legend-label" style="pointer-events: none;"><text text-anchor="start" transform="translate(16,9)" style="font-family: sans-serif; font-size: 10px; fill: #000; opacity: 1;">GEM</text></g></g><path class="foreground" d="" style="pointer-events: none; display: none; fill: none;"></path></g><g transform="translate(0,65)"><path class="background" d="M0,0h120v11h-120Z" style="pointer-events: none; fill: none; opacity: 1;"></path><g><g class="mark-symbol role-legend-symbol" style="pointer-events: none;"><path transform="translate(6,6)" d="M-5,-5h10v10h-10Z" style="fill: #eeca3b; stroke-width: 1.5; opacity: 1;"></path></g><g class="mark-text role-legend-label" style="pointer-events: none;"><text text-anchor="start" transform="translate(16,9)" style="font-family: sans-serif; font-size: 10px; fill: #000; opacity: 1;">L0MDT</text></g></g><path class="foreground" d="" style="pointer-events: none; display: none; fill: none;"></path></g><g transform="translate(0,78)"><path class="background" d="M0,0h120v11h-120Z" style="pointer-events: none; fill: none; opacity: 1;"></path><g><g class="mark-symbol role-legend-symbol" style="pointer-events: none;"><path transform="translate(6,6)" d="M-5,-5h10v10h-10Z" style="fill: #b279a2; stroke-width: 1.5; opacity: 1;"></path></g><g class="mark-text role-legend-label" style="pointer-events: none;"><text text-anchor="start" transform="translate(16,9)" style="font-family: sans-serif; font-size: 10px; fill: #000; opacity: 1;">OTHER PRJ</text></g></g><path class="foreground" d="" style="pointer-events: none; display: none; fill: none;"></path></g><g transform="translate(0,91)"><path class="background" d="M0,0h120v11h-120Z" style="pointer-events: none; fill: none; opacity: 1;"></path><g><g class="mark-symbol role-legend-symbol" style="pointer-events: none;"><path transform="translate(6,6)" d="M-5,-5h10v10h-10Z" style="fill: #ff9da6; stroke-width: 1.5; opacity: 1;"></path></g><g class="mark-text role-legend-label" style="pointer-events: none;"><text text-anchor="start" transform="translate(16,9)" style="font-family: sans-serif; font-size: 10px; fill: #000; opacity: 1;">VAC/SICK/HOL</text></g></g><path class="foreground" d="" style="pointer-events: none; display: none; fill: none;"></path></g></g></g><path class="foreground" d="" style="pointer-events: none; display: none; fill: none;"></path></g></g><g class="mark-text role-legend-title" style="pointer-events: none;"><text text-anchor="start" transform="translate(0,9)" style="font-family: sans-serif; font-size: 11px; font-weight: bold; fill: #000; opacity: 1;">Project</text></g></g><path class="foreground" d="" style="pointer-events: none; display: none; fill: none;"></path></g></g></g><path class="foreground" d="" style="display: none; fill: none;"></path></g></g></g></svg>