<svg class="marks" width="994" height="693" viewBox="0 0 994 693" version="1.1" xmlns="http://www.w3.org/2000/svg" xmlns:xlink="http://www.w3.org/1999/xlink"><rect width="994" height="693" style="fill: white;"></rect><g transform="translate(51,10)"><g class="mark-group role-frame root"><g transform="translate(0,0)"><path class="background" d="M0.5,0.5h800v600h-800Z" style="fill: none; stroke: #ddd;"></path><g><g class="mark-group role-axis"><g transform="translate(0.5,0.5)"><path class="background" d="M0,0h0v0h0Z" style="pointer-events: none; fill: none;"></path><g><g class="mark-rule role-axis-grid" style="pointer-events: none;"><line transform="translate(0,600)" x2="800" y2="0" style="fill: none; stroke: #ddd; stroke-width: 1; opacity: 1;"></line><line transform="translate(0,567)" x2="800" y2="0" style="fill: none; stroke: #ddd; stroke-width: 1; opacity: 1;"></line><line transform="translate(0,533)" x2="800" y2="0" style="fill: none; stroke: #ddd; stroke-width: 1; opacity: 1;"></line><line transform="translate(0,500)" x2="800" y2="0" style="fill: none; stroke: #ddd; stroke-width: 1; opacity: 1;"></line><line transform="translate(0,467)" x2="800" y2="0" style="fill: none; stroke: #ddd; stroke-width: 1; opacity: 1;"></line><line transform="translate(0,433)" x2="800" y2="0" style="fill: none; stroke: #ddd; stroke-width: 1; opacity: 1;"></line><line transform="translate(0,400)" x2="800" y2="0" style="fill: none; stroke: #ddd; stroke-width: 1; opacity: 1;"></line><line transform="translate(0,367)" x2="800" y2="0" style="fill: none; stroke: #ddd; stroke-width: 1; opacity: 1;"></line><line transform="translate(0,333)" x2="800" y2="0" style="fill: none; stroke: #ddd; stroke-width: 1; opacity: 1;"></line><line transform="translate(0,300)" x2="800" y2="0" style="fill: none; stroke: #ddd; stroke-width: 1; opacity: 1;"></line><line transform="translate(0,267)" x2="800" y2="0" style="fill: none; stroke: #ddd; stroke-width: 1; opacity: 1;"></line><line transform="translate(0,233)" x2="800" y2="0" style="fill: none; stroke: #ddd; stroke-width: 1; opacity: 1;"></line><line transform="translate(0,200)" x2="800" y2="0" style="fill: none; stroke: #ddd; stroke-width: 1; opacity: 1;"></line><line transform="translate(0,167)" x2="800" y2="0" style="fill: none; stroke: #ddd; stroke-width: 1; opacity: 1;"></line><line transform="translate(0,133)" x2="800" y2="0" style="fill: none; stroke: #ddd; stroke-width: 1; opacity: 1;"></line><line transform="translate(0,100)" x2="800" y2="0" style="fill: none; stroke: #ddd; stroke-width: 1; opacity: 1;"></line><line transform="translate(0,67)" x2="800" y2="0" style="fill: none; stroke: #ddd; stroke-width: 1; opacity: 1;"></line><line transform="translate(0,33)" x2="800" y2="0" style="fill: none; stroke: #ddd; stroke-width: 1; opacity: 1;"></line><line transform="translate(0,0)" x2="800" y2="0" style="fill: none; stroke: #ddd; stroke-width: 1; opacity: 1;"></line></g></g><path class="foreground" d="" style="pointer-events: none; display: none; fill: none;"></path></g></g><g class="mark-group role-axis"><g transform="translate(0.5,600.5)"><path class="background" d="M0,0h0v0h0Z" style="pointer-events: none; fill: none;"></path><g><g class="mark-rule role-axis-tick" style="pointer-events: none;"><line transform="translate(14,0)" x2="0" y2="5" style="fill: none; stroke: #888; stroke-width: 1; opacity: 1;"></line><line transform="translate(42,0)" x2="0" y2="5" style="fill: none; stroke: #888; stroke-width: 1; opacity: 1;"></line><line transform="translate(71,0)" x2="0" y2="5" style="fill: none; stroke: #888; stroke-width: 1; opacity: 1;"></line><line transform="translate(100,0)" x2="0" y2="5" style="fill: none; stroke: #888; stroke-width: 1; opacity: 1;"></line><line transform="translate(128,0)" x2="0" y2="5" style="fill: none; stroke: #888; stroke-width: 1; opacity: 1;"></line><line transform="translate(157,0)" x2="0" y2="5" style="fill: none; stroke: #888; stroke-width: 1; opacity: 1;"></line><line transform="translate(185,0)" x2="0" y2="5" style="fill: none; stroke: #888; stroke-width: 1; opacity: 1;"></line><line transform="translate(214,0)" x2="0" y2="5" style="fill: none; stroke: #888; stroke-width: 1; opacity: 1;"></line><line transform="translate(242,0)" x2="0" y2="5" style="fill: none; stroke: #888; stroke-width: 1; opacity: 1;"></line><line transform="translate(271,0)" x2="0" y2="5" style="fill: none; stroke: #888; stroke-width: 1; opacity: 1;"></line><line transform="translate(300,0)" x2="0" y2="5" style="fill: none; stroke: #888; stroke-width: 1; opacity: 1;"></line><line transform="translate(328,0)" x2="0" y2="5" style="fill: none; stroke: #888; stroke-width: 1; opacity: 1;"></line><line transform="translate(357,0)" x2="0" y2="5" style="fill: none; stroke: #888; stroke-width: 1; opacity: 1;"></line><line transform="translate(385,0)" x2="0" y2="5" style="fill: none; stroke: #888; stroke-width: 1; opacity: 1;"></line><line transform="translate(414,0)" x2="0" y2="5" style="fill: none; stroke: #888; stroke-width: 1; opacity: 1;"></line><line transform="translate(442,0)" x2="0" y2="5" style="fill: none; stroke: #888; stroke-width: 1; opacity: 1;"></line><line transform="translate(471,0)" x2="0" y2="5" style="fill: none; stroke: #888; stroke-width: 1; opacity: 1;"></line><line transform="translate(500,0)" x2="0" y2="5" style="fill: none; stroke: #888; stroke-width: 1; opacity: 1;"></line><line transform="translate(528,0)" x2="0" y2="5" style="fill: none; stroke: #888; stroke-width: 1; opacity: 1;"></line><line transform="translate(557,0)" x2="0" y2="5" style="fill: none; stroke: #888; stroke-width: 1; opacity: 1;"></line><line transform="translate(585,0)" x2="0" y2="5" style="fill: none; stroke: #888; stroke-width: 1; opacity: 1;"></line><line transform="translate(614,0)" x2="0" y2="5" style="fill: none; stroke: #888; stroke-width: 1; opacity: 1;"></line><line transform="translate(642,0)" x2="0" y2="5" style="fill: none; stroke: #888; stroke-width: 1; opacity: 1;"></line><line transform="translate(671,0)" x2="0" y2="5" style="fill: none; stroke: #888; stroke-width: 1; opacity: 1;"></line><line transform="translate(700,0)" x2="0" y2="5" style="fill: none; stroke: #888; stroke-width: 1; opacity: 1;"></line><line transform="translate(728,0)" x2="0" y2="5" style="fill: none; stroke: #888; stroke-width: 1; opacity: 1;"></line><line transform="translate(757,0)" x2="0" y2="5" style="fill: none; stroke: #888; stroke-width: 1; opacity: 1;"></line><line transform="translate(785,0)" x2="0" y2="5" style="fill: none; stroke: #888; stroke-width: 1; opacity: 1;"></line></g><g class="mark-text role-axis-label" style="pointer-events: none;"><text text-anchor="end" transform="translate(13.785714285714302,7) rotate(270) translate(0,3)" style="font-family: sans-serif; font-size: 10px; fill: #000; opacity: 1;">2021-01</text><text text-anchor="end" transform="translate(42.357142857142875,7) rotate(270) translate(0,3)" style="font-family: sans-serif; font-size: 10px; fill: #000; opacity: 1;">2021-02</text><text text-anchor="end" transform="translate(70.92857142857144,7) rotate(270) translate(0,3)" style="font-family: sans-serif; font-size: 10px; fill: #000; opacity: 1;">2021-03</text><text text-anchor="end" transform="translate(99.50000000000003,7) rotate(270) translate(0,3)" style="font-family: sans-serif; font-size: 10px; fill: #000; opacity: 1;">2021-04</text><text text-anchor="end" transform="translate(128.07142857142858,7) rotate(270) translate(0,3)" style="font-family: sans-serif; font-size: 10px; fill: #000; opacity: 1;">2021-05</text><text text-anchor="end" transform="translate(156.64285714285717,7) rotate(270) translate(0,3)" style="font-family: sans-serif; font-size: 10px; fill: #000; opacity: 1;">2021-06</text><text text-anchor="end" transform="translate(185.21428571428575,7) rotate(270) translate(0,3)" style="font-family: sans-serif; font-size: 10px; fill: #000; opacity: 1;">2021-07</text><text text-anchor="end" transform="translate(213.7857142857143,7) rotate(270) translate(0,3)" style="font-family: sans-serif; font-size: 10px; fill: #000; opacity: 1;">2021-08</text><text text-anchor="end" transform="translate(242.3571428571429,7) rotate(270) translate(0,3)" style="font-family: sans-serif; font-size: 10px; fill: #000; opacity: 1;">2021-09</text><text text-anchor="end" transform="translate(270.92857142857144,7) rotate(270) translate(0,3)" style="font-family: sans-serif; font-size: 10px; fill: #000; opacity: 1;">2021-10</text><text text-anchor="end" transform="translate(299.5,7) rotate(270) translate(0,3)" style="font-family: sans-serif; font-size: 10px; fill: #000; opacity: 1;">2021-11</text><text text-anchor="end" transform="translate(328.07142857142856,7) rotate(270) translate(0,3)" style="font-family: sans-serif; font-size: 10px; fill: #000; opacity: 1;">2021-12</text><text text-anchor="end" transform="translate(356.64285714285717,7) rotate(270) translate(0,3)" style="font-family: sans-serif; font-size: 10px; fill: #000; opacity: 1;">2022-01</text><text text-anchor="end" transform="translate(385.2142857142857,7) rotate(270) translate(0,3)" style="font-family: sans-serif; font-size: 10px; fill: #000; opacity: 1;">2022-02</text><text text-anchor="end" transform="translate(413.7857142857143,7) rotate(270) translate(0,3)" style="font-family: sans-serif; font-size: 10px; fill: #000; opacity: 1;">2022-03</text><text text-anchor="end" transform="translate(442.3571428571429,7) rotate(270) translate(0,3)" style="font-family: sans-serif; font-size: 10px; fill: #000; opacity: 1;">2022-04</text><text text-anchor="end" transform="translate(470.92857142857144,7) rotate(270) translate(0,3)" style="font-family: sans-serif; font-size: 10px; fill: #000; opacity: 1;">2022-05</text><text text-anchor="end" transform="translate(499.5,7) rotate(270) translate(0,3)" style="font-family: sans-serif; font-size: 10px; fill: #000; opacity: 1;">2022-06</text><text text-anchor="end" transform="translate(528.0714285714287,7) rotate(270) translate(0,3)" style="font-family: sans-serif; font-size: 10px; fill: #000; opacity: 1;">2022-07</text><text text-anchor="end" transform="translate(556.6428571428572,7) rotate(270) translate(0,3)" style="font-family: sans-serif; font-size: 10px; fill: #000; opacity: 1;">2022-08</text><text text-anchor="end" transform="translate(585.2142857142858,7) rotate(270) translate(0,3)" style="font-family: sans-serif; font-size: 10px; fill: #000; opacity: 1;">2022-09</text><text text-anchor="end" transform="translate(613.7857142857143,7) rotate(270) translate(0,3)" style="font-family: sans-serif; font-size: 10px; fill: #000; opacity: 1;">2022-10</text><text text-anchor="end" transform="translate(642.3571428571429,7) rotate(270) translate(0,3)" style="font-family: sans-serif; font-size: 10px; fill: #000; opacity: 1;">2022-11</text><text text-anchor="end" transform="translate(670.9285714285716,7) rotate(270) translate(0,3)" style="font-family: sans-serif; font-size: 10px; fill: #000; opacity: 1;">2022-12</text><text text-anchor="end" transform="translate(699.5000000000001,7) rotate(270) translate(0,3)" style="font-family: sans-serif; font-size: 10px; fill: #000; opacity: 1;">2023-01</text><text text-anchor="end" transform="translate(728.0714285714287,7) rotate(270) translate(0,3)" style="font-family: sans-serif; font-size: 10px; fill: #000; opacity: 1;">2023-02</text><text text-anchor="end" transform="translate(756.6428571428572,7) rotate(270) translate(0,3)" style="font-family: sans-serif; font-size: 10px; fill: #000; opacity: 1;">2023-03</text><text text-anchor="end" transform="translate(785.2142857142858,7) rotate(270) translate(0,3)" style="font-family: sans-serif; font-size: 10px; fill: #000; opacity: 1;">2023-04</text></g><g class="mark-rule role-axis-domain" style="pointer-events: none;"><line transform="translate(0,0)" x2="800" y2="0" style="fill: none; stroke: #888; stroke-width: 1; opacity: 1;"></line></g><g class="mark-text role-axis-title" style="pointer-events: none;"><text text-anchor="middle" transform="translate(400,76)" style="font-family: sans-serif; font-size: 11px; font-weight: bold; fill: #000; opacity: 1;">Date</text></g></g><path class="foreground" d="" style="pointer-events: none; display: none; fill: none;"></path></g></g><g class="mark-group role-axis"><g transform="translate(0.5,0.5)"><path class="background" d="M0,0h0v0h0Z" style="pointer-events: none; fill: none;"></path><g><g class="mark-rule role-axis-tick" style="pointer-events: none;"><line transform="translate(0,600)" x2="-5" y2="0" style="fill: none; stroke: #888; stroke-width: 1; opacity: 1;"></line><line transform="translate(0,567)" x2="-5" y2="0" style="fill: none; stroke: #888; stroke-width: 1; opacity: 1;"></line><line transform="translate(0,533)" x2="-5" y2="0" style="fill: none; stroke: #888; stroke-width: 1; opacity: 1;"></line><line transform="translate(0,500)" x2="-5" y2="0" style="fill: none; stroke: #888; stroke-width: 1; opacity: 1;"></line><line transform="translate(0,467)" x2="-5" y2="0" style="fill: none; stroke: #888; stroke-width: 1; opacity: 1;"></line><line transform="translate(0,433)" x2="-5" y2="0" style="fill: none; stroke: #888; stroke-width: 1; opacity: 1;"></line><line transform="translate(0,400)" x2="-5" y2="0" style="fill: none; stroke: #888; stroke-width: 1; opacity: 1;"></line><line transform="translate(0,367)" x2="-5" y2="0" style="fill: none; stroke: #888; stroke-width: 1; opacity: 1;"></line><line transform="translate(0,333)" x2="-5" y2="0" style="fill: none; stroke: #888; stroke-width: 1; opacity: 1;"></line><line transform="translate(0,300)" x2="-5" y2="0" style="fill: none; stroke: #888; stroke-width: 1; opacity: 1;"></line><line transform="translate(0,267)" x2="-5" y2="0" style="fill: none; stroke: #888; stroke-width: 1; opacity: 1;"></line><line transform="translate(0,233)" x2="-5" y2="0" style="fill: none; stroke: #888; stroke-width: 1; opacity: 1;"></line><line transform="translate(0,200)" x2="-5" y2="0" style="fill: none; stroke: #888; stroke-width: 1; opacity: 1;"></line><line transform="translate(0,167)" x2="-5" y2="0" style="fill: none; stroke: #888; stroke-width: 1; opacity: 1;"></line><line transform="translate(0,133)" x2="-5" y2="0" style="fill: none; stroke: #888; stroke-width: 1; opacity: 1;"></line><line transform="translate(0,100)" x2="-5" y2="0" style="fill: none; stroke: #888; stroke-width: 1; opacity: 1;"></line><line transform="translate(0,67)" x2="-5" y2="0" style="fill: none; stroke: #888; stroke-width: 1; opacity: 1;"></line><line transform="translate(0,33)" x2="-5" y2="0" style="fill: none; stroke: #888; stroke-width: 1; opacity: 1;"></line><line transform="translate(0,0)" x2="-5" y2="0" style="fill: none; stroke: #888; stroke-width: 1; opacity: 1;"></line></g><g class="mark-text role-axis-label" style="pointer-events: none;"><text text-anchor="end" transform="translate(-7,603)" style="font-family: sans-serif; font-size: 10px; fill: #000; opacity: 1;">0</text><text text-anchor="end" transform="translate(-7,569.6666666666666)" style="font-family: sans-serif; font-size: 10px; fill: #000; opacity: 1;">10</text><text text-anchor="end" transform="translate(-7,536.3333333333333)" style="font-family: sans-serif; font-size: 10px; fill: #000; opacity: 1;">20</text><text text-anchor="end" transform="translate(-7,503)" style="font-family: sans-serif; font-size: 10px; fill: #000; opacity: 1;">30</text><text text-anchor="end" transform="translate(-7,469.6666666666667)" style="font-family: sans-serif; font-size: 10px; fill: #000; opacity: 1;">40</text><text text-anchor="end" transform="translate(-7,436.3333333333333)" style="font-family: sans-serif; font-size: 10px; fill: #000; opacity: 1;">50</text><text text-anchor="end" transform="translate(-7,403.00000000000006)" style="font-family: sans-serif; font-size: 10px; fill: #000; opacity: 1;">60</text><text text-anchor="end" transform="translate(-7,369.6666666666667)" style="font-family: sans-serif; font-size: 10px; fill: #000; opacity: 1;">70</text><text text-anchor="end" transform="translate(-7,336.33333333333337)" style="font-family: sans-serif; font-size: 10px; fill: #000; opacity: 1;">80</text><text text-anchor="end" transform="translate(-7,303)" style="font-family: sans-serif; font-size: 10px; fill: #000; opacity: 1;">90</text><text text-anchor="end" transform="translate(-7,269.66666666666663)" style="font-family: sans-serif; font-size: 10px; fill: #000; opacity: 1;">100</text><text text-anchor="end" transform="translate(-7,236.33333333333331)" style="font-family: sans-serif; font-size: 10px; fill: #000; opacity: 1;">110</text><text text-anchor="end" transform="translate(-7,203.00000000000003)" style="font-family: sans-serif; font-size: 10px; fill: #000; opacity: 1;">120</text><text text-anchor="end" transform="translate(-7,169.66666666666669)" style="font-family: sans-serif; font-size: 10px; fill: #000; opacity: 1;">130</text><text text-anchor="end" transform="translate(-7,136.33333333333331)" style="font-family: sans-serif; font-size: 10px; fill: #000; opacity: 1;">140</text><text text-anchor="end" transform="translate(-7,102.99999999999997)" style="font-family: sans-serif; font-size: 10px; fill: #000; opacity: 1;">150</text><text text-anchor="end" transform="translate(-7,69.6666666666667)" style="font-family: sans-serif; font-size: 10px; fill: #000; opacity: 1;">160</text><text text-anchor="end" transform="translate(-7,36.33333333333335)" style="font-family: sans-serif; font-size: 10px; fill: #000; opacity: 1;">170</text><text text-anchor="end" transform="translate(-7,3)" style="font-family: sans-serif; font-size: 10px; fill: #000; opacity: 1;">180</text></g><g class="mark-rule role-axis-domain" style="pointer-events: none;"><line transform="translate(0,600)" x2="0" y2="-600" style="fill: none; stroke: #888; stroke-width: 1; opacity: 1;"></line></g><g class="mark-text role-axis-title" style="pointer-events: none;"><text text-anchor="middle" transform="translate(-35,300) rotate(-90) translate(0,-2)" style="font-family: sans-serif; font-size: 11px; font-weight: bold; fill: #000; opacity: 1;">Sum of Hours</text></g></g><path class="foreground" d="" style="pointer-events: none; display: none; fill: none;"></path></g></g><g class="mark-rect role-mark marks"><path d="M1.4285714285714448,243.33333333333334h25.714285714285715v10.000000000000028h-25.714285714285715Z" style="fill: #e45756;"></path><path d="M1.4285714285714448,171.66666666666666h25.714285714285715v71.66666666666669h-25.714285714285715Z" style="fill: #4c78a8;"></path><path d="M1.4285714285714448,253.33333333333337h25.714285714285715v198.33333333333331h-25.714285714285715Z" style="fill: #72b7b2;"></path><path d="M1.4285714285714448,503.33333333333337h25.714285714285715v70h-25.714285714285715Z" style="fill: #eeca3b;"></path><path d="M1.4285714285714448,451.6666666666667h25.714285714285715v51.666666666666686h-25.714285714285715Z" style="fill: #54a24b;"></path><path d="M1.4285714285714448,573.3333333333334h25.714285714285715v26.66666666666663h-25.714285714285715Z" style="fill: #9d755d;"></path><path d="M30.000000000000018,338.3333333333333h25.714285714285715v63.33333333333337h-25.714285714285715Z" style="fill: #72b7b2;"></path><path d="M30.000000000000018,448.3333333333333h25.714285714285715v125.00000000000006h-25.714285714285715Z" style="fill: #eeca3b;"></path><path d="M30.000000000000018,245h25.714285714285715v93.33333333333331h-25.714285714285715Z" style="fill: #4c78a8;"></path><path d="M30.000000000000018,401.6666666666667h25.714285714285715v46.66666666666663h-25.714285714285715Z" style="fill: #54a24b;"></path><path d="M30.000000000000018,573.3333333333334h25.714285714285715v26.66666666666663h-25.714285714285715Z" style="fill: #9d755d;"></path><path d="M58.57142857142859,253.33333333333337h25.714285714285715v41.66666666666663h-25.714285714285715Z" style="fill: #72b7b2;"></path><path d="M58.57142857142859,398.3333333333333h25.714285714285715v178.33333333333331h-25.714285714285715Z" style="fill: #eeca3b;"></path><path d="M58.57142857142859,163.33333333333334h25.714285714285715v90.00000000000003h-25.714285714285715Z" style="fill: #4c78a8;"></path><path d="M58.57142857142859,295h25.714285714285715v103.33333333333331h-25.714285714285715Z" style="fill: #54a24b;"></path><path d="M58.57142857142859,576.6666666666666h25.714285714285715v23.33333333333337h-25.714285714285715Z" style="fill: #b279a2;"></path><path d="M87.14285714285717,248.33333333333331h25.714285714285715v13.333333333333371h-25.714285714285715Z" style="fill: #e45756;"></path><path d="M87.14285714285717,438.33333333333337h25.714285714285715v116.66666666666663h-25.714285714285715Z" style="fill: #eeca3b;"></path><path d="M87.14285714285717,320h25.714285714285715v118.33333333333337h-25.714285714285715Z" style="fill: #54a24b;"></path><path d="M87.14285714285717,555h25.714285714285715v18.33333333333337h-25.714285714285715Z" style="fill: #b279a2;"></path><path d="M87.14285714285717,261.6666666666667h25.714285714285715v58.333333333333314h-25.714285714285715Z" style="fill: #72b7b2;"></path><path d="M87.14285714285717,170h25.714285714285715v78.33333333333331h-25.714285714285715Z" style="fill: #4c78a8;"></path><path d="M87.14285714285717,573.3333333333334h25.714285714285715v26.66666666666663h-25.714285714285715Z" style="fill: #9d755d;"></path><path d="M115.71428571428574,450h25.714285714285715v125h-25.714285714285715Z" style="fill: #eeca3b;"></path><path d="M115.71428571428574,260h25.714285714285715v63.333333333333314h-25.714285714285715Z" style="fill: #72b7b2;"></path><path d="M115.71428571428574,323.3333333333333h25.714285714285715v126.66666666666669h-25.714285714285715Z" style="fill: #54a24b;"></path><path d="M115.71428571428574,151.66666666666666h25.714285714285715v108.33333333333334h-25.714285714285715Z" style="fill: #4c78a8;"></path><path d="M115.71428571428574,575h25.714285714285715v25h-25.714285714285715Z" style="fill: #b279a2;"></path><path d="M144.2857142857143,411.6666666666667h25.714285714285715v81.66666666666663h-25.714285714285715Z" style="fill: #eeca3b;"></path><path d="M144.2857142857143,493.3333333333333h25.714285714285715v80.00000000000006h-25.714285714285715Z" style="fill: #b279a2;"></path><path d="M144.2857142857143,241.66666666666669h25.714285714285715v61.66666666666663h-25.714285714285715Z" style="fill: #72b7b2;"></path><path d="M144.2857142857143,0h25.714285714285715v241.66666666666669h-25.714285714285715Z" style="fill: #4c78a8;"></path><path d="M144.2857142857143,303.3333333333333h25.714285714285715v108.33333333333337h-25.714285714285715Z" style="fill: #54a24b;"></path><path d="M144.2857142857143,573.3333333333334h25.714285714285715v26.66666666666663h-25.714285714285715Z" style="fill: #9d755d;"></path><path d="M172.8571428571429,488.3333333333333h25.714285714285715v53.333333333333314h-25.714285714285715Z" style="fill: #eeca3b;"></path><path d="M172.8571428571429,131.66666666666666h25.714285714285715v138.33333333333334h-25.714285714285715Z" style="fill: #4c78a8;"></path><path d="M172.8571428571429,391.6666666666667h25.714285714285715v96.66666666666663h-25.714285714285715Z" style="fill: #54a24b;"></path><path d="M172.8571428571429,573.3333333333334h25.714285714285715v26.66666666666663h-25.714285714285715Z" style="fill: #9d755d;"></path><path d="M172.8571428571429,280h25.714285714285715v111.66666666666669h-25.714285714285715Z" style="fill: #72b7b2;"></path><path d="M172.8571428571429,270h25.714285714285715v10h-25.714285714285715Z" style="fill: #e45756;"></path><path d="M172.8571428571429,541.6666666666666h25.714285714285715v31.666666666666742h-25.714285714285715Z" style="fill: #b279a2;"></path><path d="M201.42857142857144,79.99999999999999h25.714285714285715v48.33333333333336h-25.714285714285715Z" style="fill: #4c78a8;"></path><path d="M201.42857142857144,445h25.714285714285715v150h-25.714285714285715Z" style="fill: #eeca3b;"></path><path d="M201.42857142857144,135h25.714285714285715v196.66666666666669h-25.714285714285715Z" style="fill: #72b7b2;"></path><path d="M201.42857142857144,331.6666666666667h25.714285714285715v113.33333333333331h-25.714285714285715Z" style="fill: #54a24b;"></path><path d="M201.42857142857144,595h25.714285714285715v5h-25.714285714285715Z" style="fill: #b279a2;"></path><path d="M201.42857142857144,128.33333333333334h25.714285714285715v6.666666666666657h-25.714285714285715Z" style="fill: #e45756;"></path><path d="M230.00000000000003,566.6666666666666h25.714285714285715v6.6666666666667425h-25.714285714285715Z" style="fill: #b279a2;"></path><path d="M230.00000000000003,175.83333333333331h25.714285714285715v26.666666666666686h-25.714285714285715Z" style="fill: #e45756;"></path><path d="M230.00000000000003,483.33333333333337h25.714285714285715v83.33333333333326h-25.714285714285715Z" style="fill: #eeca3b;"></path><path d="M230.00000000000003,333.33333333333337h25.714285714285715v150h-25.714285714285715Z" style="fill: #54a24b;"></path><path d="M230.00000000000003,202.5h25.714285714285715v130.83333333333337h-25.714285714285715Z" style="fill: #72b7b2;"></path><path d="M230.00000000000003,85.83333333333336h25.714285714285715v89.99999999999996h-25.714285714285715Z" style="fill: #4c78a8;"></path><path d="M230.00000000000003,573.3333333333334h25.714285714285715v26.66666666666663h-25.714285714285715Z" style="fill: #9d755d;"></path><path d="M258.5714285714286,238.33333333333334h25.714285714285715v40.00000000000003h-25.714285714285715Z" style="fill: #4c78a8;"></path><path d="M258.5714285714286,293.33333333333337h25.714285714285715v79.99999999999994h-25.714285714285715Z" style="fill: #72b7b2;"></path><path d="M258.5714285714286,373.3333333333333h25.714285714285715v66.66666666666674h-25.714285714285715Z" style="fill: #54a24b;"></path><path d="M258.5714285714286,278.33333333333337h25.714285714285715v15h-25.714285714285715Z" style="fill: #e45756;"></path><path d="M258.5714285714286,440.00000000000006h25.714285714285715v159.99999999999994h-25.714285714285715Z" style="fill: #eeca3b;"></path><path d="M287.14285714285717,289.99999999999994h25.714285714285715v193.33333333333343h-25.714285714285715Z" style="fill: #eeca3b;"></path><path d="M287.14285714285717,91.66666666666667h25.714285714285715v24.999999999999986h-25.714285714285715Z" style="fill: #e45756;"></path><path d="M287.14285714285717,200.00000000000003h25.714285714285715v89.99999999999991h-25.714285714285715Z" style="fill: #54a24b;"></path><path d="M287.14285714285717,64.99999999999997h25.714285714285715v26.6666666666667h-25.714285714285715Z" style="fill: #4c78a8;"></path><path d="M287.14285714285717,116.66666666666666h25.714285714285715v83.33333333333337h-25.714285714285715Z" style="fill: #72b7b2;"></path><path d="M287.14285714285717,483.33333333333337h25.714285714285715v9.999999999999943h-25.714285714285715Z" style="fill: #b279a2;"></path><path d="M287.14285714285717,493.3333333333333h25.714285714285715v106.66666666666669h-25.714285714285715Z" style="fill: #9d755d;"></path><path d="M315.7142857142857,98.33333333333331h25.714285714285715v115h-25.714285714285715Z" style="fill: #54a24b;"></path><path d="M315.7142857142857,213.33333333333331h25.714285714285715v173.33333333333331h-25.714285714285715Z" style="fill: #eeca3b;"></path><path d="M315.7142857142857,23.333333333333318h25.714285714285715v13.333333333333353h-25.714285714285715Z" style="fill: #4c78a8;"></path><path d="M315.7142857142857,76.66666666666666h25.714285714285715v21.666666666666657h-25.714285714285715Z" style="fill: #72b7b2;"></path><path d="M315.7142857142857,36.66666666666667h25.714285714285715v39.999999999999986h-25.714285714285715Z" style="fill: #e45756;"></path><path d="M315.7142857142857,386.66666666666663h25.714285714285715v213.33333333333337h-25.714285714285715Z" style="fill: #9d755d;"></path><path d="M344.28571428571433,193.33333333333331h25.714285714285715v11.666666666666686h-25.714285714285715Z" style="fill: #e45756;"></path><path d="M344.28571428571433,258.33333333333337h25.714285714285715v56.66666666666663h-25.714285714285715Z" style="fill: #54a24b;"></path><path d="M344.28571428571433,315h25.714285714285715v233.33333333333337h-25.714285714285715Z" style="fill: #eeca3b;"></path><path d="M344.28571428571433,205h25.714285714285715v53.33333333333337h-25.714285714285715Z" style="fill: #72b7b2;"></path><path d="M344.28571428571433,548.3333333333334h25.714285714285715v25h-25.714285714285715Z" style="fill: #b279a2;"></path><path d="M344.28571428571433,183.33333333333334h25.714285714285715v9.999999999999972h-25.714285714285715Z" style="fill: #4c78a8;"></path><path d="M344.28571428571433,573.3333333333334h25.714285714285715v26.66666666666663h-25.714285714285715Z" style="fill: #9d755d;"></path><path d="M372.8571428571429,510h25.714285714285715v41.66666666666663h-25.714285714285715Z" style="fill: #eeca3b;"></path><path d="M372.8571428571429,160.00000000000003h25.714285714285715v76.66666666666666h-25.714285714285715Z" style="fill: #4c78a8;"></path><path d="M372.8571428571429,383.3333333333333h25.714285714285715v126.66666666666669h-25.714285714285715Z" style="fill: #54a24b;"></path><path d="M372.8571428571429,276.6666666666667h25.714285714285715v106.66666666666663h-25.714285714285715Z" style="fill: #72b7b2;"></path><path d="M372.8571428571429,236.66666666666669h25.714285714285715v40h-25.714285714285715Z" style="fill: #e45756;"></path><path d="M372.8571428571429,551.6666666666666h25.714285714285715v21.666666666666742h-25.714285714285715Z" style="fill: #b279a2;"></path><path d="M372.8571428571429,573.3333333333334h25.714285714285715v26.66666666666663h-25.714285714285715Z" style="fill: #9d755d;"></path><path d="M401.42857142857144,214.99999999999997h25.714285714285715v150.00000000000009h-25.714285714285715Z" style="fill: #72b7b2;"></path><path d="M401.42857142857144,365.00000000000006h25.714285714285715v144.99999999999994h-25.714285714285715Z" style="fill: #54a24b;"></path><path d="M401.42857142857144,205h25.714285714285715v9.999999999999972h-25.714285714285715Z" style="fill: #e45756;"></path><path d="M401.42857142857144,101.66666666666664h25.714285714285715v103.33333333333336h-25.714285714285715Z" style="fill: #4c78a8;"></path><path d="M401.42857142857144,510h25.714285714285715v65h-25.714285714285715Z" style="fill: #eeca3b;"></path><path d="M401.42857142857144,575h25.714285714285715v25h-25.714285714285715Z" style="fill: #b279a2;"></path><path d="M430.00000000000006,311.66666666666663h25.714285714285715v155.00000000000006h-25.714285714285715Z" style="fill: #72b7b2;"></path><path d="M430.00000000000006,500h25.714285714285715v70h-25.714285714285715Z" style="fill: #eeca3b;"></path><path d="M430.00000000000006,570h25.714285714285715v3.3333333333333712h-25.714285714285715Z" style="fill: #b279a2;"></path><path d="M430.00000000000006,466.6666666666667h25.714285714285715v33.333333333333314h-25.714285714285715Z" style="fill: #54a24b;"></path><path d="M430.00000000000006,573.3333333333334h25.714285714285715v26.66666666666663h-25.714285714285715Z" style="fill: #9d755d;"></path><path d="M430.00000000000006,278.33333333333337h25.714285714285715v33.33333333333326h-25.714285714285715Z" style="fill: #e45756;"></path><path d="M430.00000000000006,270h25.714285714285715v8.333333333333371h-25.714285714285715Z" style="fill: #4c78a8;"></path><path d="M458.5714285714286,298.3333333333333h25.714285714285715v8.333333333333314h-25.714285714285715Z" style="fill: #e45756;"></path><path d="M458.5714285714286,483.33333333333337h25.714285714285715v88.33333333333326h-25.714285714285715Z" style="fill: #eeca3b;"></path><path d="M458.5714285714286,420h25.714285714285715v63.33333333333337h-25.714285714285715Z" style="fill: #54a24b;"></path><path d="M458.5714285714286,306.66666666666663h25.714285714285715v113.33333333333337h-25.714285714285715Z" style="fill: #72b7b2;"></path><path d="M458.5714285714286,285h25.714285714285715v13.333333333333314h-25.714285714285715Z" style="fill: #4c78a8;"></path><path d="M458.5714285714286,571.6666666666666h25.714285714285715v1.6666666666667425h-25.714285714285715Z" style="fill: #b279a2;"></path><path d="M458.5714285714286,573.3333333333334h25.714285714285715v26.66666666666663h-25.714285714285715Z" style="fill: #9d755d;"></path><path d="M487.14285714285717,164.16666666666669h25.714285714285715v23.333333333333314h-25.714285714285715Z" style="fill: #e45756;"></path><path d="M487.14285714285717,187.5h25.714285714285715v230.83333333333331h-25.714285714285715Z" style="fill: #72b7b2;"></path><path d="M487.14285714285717,418.3333333333333h25.714285714285715v93.33333333333331h-25.714285714285715Z" style="fill: #54a24b;"></path><path d="M487.14285714285717,511.66666666666663h25.714285714285715v61.66666666666674h-25.714285714285715Z" style="fill: #eeca3b;"></path><path d="M487.14285714285717,125.00000000000003h25.714285714285715v39.16666666666666h-25.714285714285715Z" style="fill: #4c78a8;"></path><path d="M487.14285714285717,573.3333333333334h25.714285714285715v26.66666666666663h-25.714285714285715Z" style="fill: #9d755d;"></path><path d="M515.7142857142858,558.3333333333334h25.714285714285715v15h-25.714285714285715Z" style="fill: #eeca3b;"></path><path d="M515.7142857142858,573.3333333333334h25.714285714285715v26.66666666666663h-25.714285714285715Z" style="fill: #9d755d;"></path><path d="M515.7142857142858,316.6666666666667h25.714285714285715v186.66666666666669h-25.714285714285715Z" style="fill: #72b7b2;"></path><path d="M515.7142857142858,503.33333333333337h25.714285714285715v55h-25.714285714285715Z" style="fill: #54a24b;"></path><path d="M515.7142857142858,283.3333333333333h25.714285714285715v33.33333333333337h-25.714285714285715Z" style="fill: #e45756;"></path><path d="M515.7142857142858,280h25.714285714285715v3.3333333333333144h-25.714285714285715Z" style="fill: #4c78a8;"></path><path d="M544.2857142857143,241.66666666666669h25.714285714285715v50h-25.714285714285715Z" style="fill: #e45756;"></path><path d="M544.2857142857143,420h25.714285714285715v128.33333333333337h-25.714285714285715Z" style="fill: #54a24b;"></path><path d="M544.2857142857143,291.6666666666667h25.714285714285715v128.33333333333331h-25.714285714285715Z" style="fill: #72b7b2;"></path><path d="M544.2857142857143,563.3333333333334h25.714285714285715v36.66666666666663h-25.714285714285715Z" style="fill: #b279a2;"></path><path d="M544.2857142857143,235.00000000000003h25.714285714285715v6.666666666666657h-25.714285714285715Z" style="fill: #4c78a8;"></path><path d="M544.2857142857143,548.3333333333334h25.714285714285715v15h-25.714285714285715Z" style="fill: #eeca3b;"></path><path d="M572.8571428571429,271.66666666666663h25.714285714285715v183.33333333333337h-25.714285714285715Z" style="fill: #72b7b2;"></path><path d="M572.8571428571429,573.3333333333334h25.714285714285715v26.66666666666663h-25.714285714285715Z" style="fill: #9d755d;"></path><path d="M572.8571428571429,540h25.714285714285715v33.33333333333337h-25.714285714285715Z" style="fill: #eeca3b;"></path><path d="M572.8571428571429,455h25.714285714285715v85h-25.714285714285715Z" style="fill: #54a24b;"></path><path d="M572.8571428571429,245h25.714285714285715v13.333333333333371h-25.714285714285715Z" style="fill: #4c78a8;"></path><path d="M572.8571428571429,258.33333333333337h25.714285714285715v13.333333333333258h-25.714285714285715Z" style="fill: #e45756;"></path><path d="M601.4285714285714,260h25.714285714285715v16.666666666666686h-25.714285714285715Z" style="fill: #4c78a8;"></path><path d="M601.4285714285714,493.3333333333333h25.714285714285715v78.33333333333331h-25.714285714285715Z" style="fill: #54a24b;"></path><path d="M601.4285714285714,585h25.714285714285715v15h-25.714285714285715Z" style="fill: #b279a2;"></path><path d="M601.4285714285714,296.6666666666667h25.714285714285715v196.66666666666663h-25.714285714285715Z" style="fill: #72b7b2;"></path><path d="M601.4285714285714,571.6666666666666h25.714285714285715v13.333333333333371h-25.714285714285715Z" style="fill: #eeca3b;"></path><path d="M601.4285714285714,276.6666666666667h25.714285714285715v20h-25.714285714285715Z" style="fill: #e45756;"></path><path d="M630,210h25.714285714285715v211.66666666666663h-25.714285714285715Z" style="fill: #72b7b2;"></path><path d="M630,200.00000000000003h25.714285714285715v9.999999999999972h-25.714285714285715Z" style="fill: #e45756;"></path><path d="M630,181.66666666666669h25.714285714285715v18.333333333333343h-25.714285714285715Z" style="fill: #4c78a8;"></path><path d="M630,421.66666666666663h25.714285714285715v66.66666666666669h-25.714285714285715Z" style="fill: #54a24b;"></path><path d="M630,488.3333333333333h25.714285714285715v5h-25.714285714285715Z" style="fill: #eeca3b;"></path><path d="M630,493.3333333333333h25.714285714285715v106.66666666666669h-25.714285714285715Z" style="fill: #9d755d;"></path><path d="M658.5714285714287,388.33333333333326h25.714285714285715v146.66666666666674h-25.714285714285715Z" style="fill: #54a24b;"></path><path d="M658.5714285714287,320h25.714285714285715v68.33333333333326h-25.714285714285715Z" style="fill: #72b7b2;"></path><path d="M658.5714285714287,535h25.714285714285715v11.666666666666629h-25.714285714285715Z" style="fill: #eeca3b;"></path><path d="M658.5714285714287,546.6666666666666h25.714285714285715v53.33333333333337h-25.714285714285715Z" style="fill: #9d755d;"></path><path d="M687.1428571428572,553.3333333333334h25.714285714285715v46.66666666666663h-25.714285714285715Z" style="fill: #9d755d;"></path><path d="M687.1428571428572,416.66666666666663h25.714285714285715v100.00000000000011h-25.714285714285715Z" style="fill: #54a24b;"></path><path d="M687.1428571428572,223.33333333333334h25.714285714285715v18.333333333333343h-25.714285714285715Z" style="fill: #e45756;"></path><path d="M687.1428571428572,241.66666666666669h25.714285714285715v174.99999999999994h-25.714285714285715Z" style="fill: #72b7b2;"></path><path d="M687.1428571428572,540h25.714285714285715v13.333333333333371h-25.714285714285715Z" style="fill: #b279a2;"></path><path d="M687.1428571428572,516.6666666666667h25.714285714285715v23.333333333333258h-25.714285714285715Z" style="fill: #eeca3b;"></path><path d="M715.7142857142858,311.66666666666663h25.714285714285715v145h-25.714285714285715Z" style="fill: #72b7b2;"></path><path d="M715.7142857142858,456.66666666666663h25.714285714285715v108.33333333333337h-25.714285714285715Z" style="fill: #54a24b;"></path><path d="M715.7142857142858,281.6666666666667h25.714285714285715v3.3333333333333144h-25.714285714285715Z" style="fill: #4c78a8;"></path><path d="M715.7142857142858,578.3333333333334h25.714285714285715v5h-25.714285714285715Z" style="fill: #b279a2;"></path><path d="M715.7142857142858,285h25.714285714285715v26.66666666666663h-25.714285714285715Z" style="fill: #e45756;"></path><path d="M715.7142857142858,565h25.714285714285715v13.333333333333371h-25.714285714285715Z" style="fill: #eeca3b;"></path><path d="M715.7142857142858,583.3333333333334h25.714285714285715v16.66666666666663h-25.714285714285715Z" style="fill: #9d755d;"></path><path d="M744.2857142857143,380.8333333333333h25.714285714285715v184.16666666666669h-25.714285714285715Z" style="fill: #54a24b;"></path><path d="M744.2857142857143,249.16666666666666h25.714285714285715v131.66666666666666h-25.714285714285715Z" style="fill: #72b7b2;"></path><path d="M744.2857142857143,566.6666666666666h25.714285714285715v33.33333333333337h-25.714285714285715Z" style="fill: #b279a2;"></path><path d="M744.2857142857143,221.66666666666669h25.714285714285715v27.49999999999997h-25.714285714285715Z" style="fill: #e45756;"></path><path d="M744.2857142857143,565h25.714285714285715v1.6666666666666288h-25.714285714285715Z" style="fill: #eeca3b;"></path><path d="M744.2857142857143,218.33333333333337h25.714285714285715v3.3333333333333144h-25.714285714285715Z" style="fill: #4c78a8;"></path><path d="M772.8571428571429,467.5h25.714285714285715v84.16666666666663h-25.714285714285715Z" style="fill: #54a24b;"></path><path d="M772.8571428571429,395h25.714285714285715v11.666666666666686h-25.714285714285715Z" style="fill: #e45756;"></path><path d="M772.8571428571429,551.6666666666666h25.714285714285715v16.66666666666663h-25.714285714285715Z" style="fill: #eeca3b;"></path><path d="M772.8571428571429,406.6666666666667h25.714285714285715v60.833333333333314h-25.714285714285715Z" style="fill: #72b7b2;"></path><path d="M772.8571428571429,568.3333333333333h25.714285714285715v11.666666666666742h-25.714285714285715Z" style="fill: #b279a2;"></path><path d="M772.8571428571429,583.3333333333334h25.714285714285715v16.66666666666663h-25.714285714285715Z" style="fill: #9d755d;"></path><path d="M772.8571428571429,580h25.714285714285715v3.3333333333333712h-25.714285714285715Z" style="fill: #ff9da6;"></path><path d="M772.8571428571429,393.3333333333333h25.714285714285715v1.6666666666666856h-25.714285714285715Z" style="fill: #f58518;"></path></g><g class="mark-group role-legend"><g transform="translate(818,0)"><path class="background" d="M0,0h120v131h-120Z" style="pointer-events: none; fill: none;"></path><g><g class="mark-group role-legend-entry"><g transform="translate(0,16)"><path class="background" d="M0,0h0v0h0Z" style="pointer-events: none; fill: none;"></path><g><g class="mark-group role-scope"><g transform="translate(0,0)"><path class="background" d="M0,0h120v11h-120Z" style="pointer-events: none; fill: none; opacity: 1;"></path><g><g class="mark-symbol role-legend-symbol" style="pointer-events: none;"><path transform="translate(6,6)" d="M-5,-5h10v10h-10Z" style="fill: #4c78a8; stroke-width: 1.5; opacity: 1;"></path></g><g class="mark-text role-legend-label" style="pointer-events: none;"><text text-anchor="start" transform="translate(16,9)" style="font-family: sans-serif; font-size: 10px; fill: #000; opacity: 1;">APOLLO</text></g></g><path class="foreground" d="" style="pointer-events: none; display: none; fill: none;"></path></g><g transform="translate(0,13)"><path class="background" d="M0,0h120v11h-120Z" style="pointer-events: none; fill: none; opacity: 1;"></path><g><g class="mark-symbol role-legend-symbol" style="pointer-events: none;"><path transform="translate(6,6)" d="M-5,-5h10v10h-10Z" style="fill: #f58518; stroke-width: 1.5; opacity: 1;"></path></g><g class="mark-text role-legend-label" style="pointer-events: none;"><text text-anchor="start" transform="translate(16,9)" style="font-family: sans-serif; font-size: 10px; fill: #000; opacity: 1;">CMS-PIXEL-DTC</text></g></g><path class="foreground" d="" style="pointer-events: none; display: none; fill: none;"></path></g><g transform="translate(0,26)"><path class="background" d="M0,0h120v11h-120Z" style="pointer-events: none; fill: none; opacity: 1;"></path><g><g class="mark-symbol role-legend-symbol" style="pointer-events: none;"><path transform="translate(6,6)" d="M-5,-5h10v10h-10Z" style="fill: #e45756; stroke-width: 1.5; opacity: 1;"></path></g><g class="mark-text role-legend-label" style="pointer-events: none;"><text text-anchor="start" transform="translate(16,9)" style="font-family: sans-serif; font-size: 10px; fill: #000; opacity: 1;">EDF</text></g></g><path class="foreground" d="" style="pointer-events: none; display: none; fill: none;"></path></g><g transform="translate(0,39)"><path class="background" d="M0,0h120v11h-120Z" style="pointer-events: none; fill: none; opacity: 1;"></path><g><g class="mark-symbol role-legend-symbol" style="pointer-events: none;"><path transform="translate(6,6)" d="M-5,-5h10v10h-10Z" style="fill: #72b7b2; stroke-width: 1.5; opacity: 1;"></path></g><g class="mark-text role-legend-label" style="pointer-events: none;"><text text-anchor="start" transform="translate(16,9)" style="font-family: sans-serif; font-size: 10px; fill: #000; opacity: 1;">ETL</text></g></g><path class="foreground" d="" style="pointer-events: none; display: none; fill: none;"></path></g><g transform="translate(0,52)"><path class="background" d="M0,0h120v11h-120Z" style="pointer-events: none; fill: none; opacity: 1;"></path><g><g class="mark-symbol role-legend-symbol" style="pointer-events: none;"><path transform="translate(6,6)" d="M-5,-5h10v10h-10Z" style="fill: #54a24b; stroke-width: 1.5; opacity: 1;"></path></g><g class="mark-text role-legend-label" style="pointer-events: none;"><text text-anchor="start" transform="translate(16,9)" style="font-family: sans-serif; font-size: 10px; fill: #000; opacity: 1;">GEM</text></g></g><path class="foreground" d="" style="pointer-events: none; display: none; fill: none;"></path></g><g transform="translate(0,65)"><path class="background" d="M0,0h120v11h-120Z" style="pointer-events: none; fill: none; opacity: 1;"></path><g><g class="mark-symbol role-legend-symbol" style="pointer-events: none;"><path transform="translate(6,6)" d="M-5,-5h10v10h-10Z" style="fill: #eeca3b; stroke-width: 1.5; opacity: 1;"></path></g><g class="mark-text role-legend-label" style="pointer-events: none;"><text text-anchor="start" transform="translate(16,9)" style="font-family: sans-serif; font-size: 10px; fill: #000; opacity: 1;">L0MDT</text></g></g><path class="foreground" d="" style="pointer-events: none; display: none; fill: none;"></path></g><g transform="translate(0,78)"><path class="background" d="M0,0h120v11h-120Z" style="pointer-events: none; fill: none; opacity: 1;"></path><g><g class="mark-symbol role-legend-symbol" style="pointer-events: none;"><path transform="translate(6,6)" d="M-5,-5h10v10h-10Z" style="fill: #b279a2; stroke-width: 1.5; opacity: 1;"></path></g><g class="mark-text role-legend-label" style="pointer-events: none;"><text text-anchor="start" transform="translate(16,9)" style="font-family: sans-serif; font-size: 10px; fill: #000; opacity: 1;">OTHER PRJ</text></g></g><path class="foreground" d="" style="pointer-events: none; display: none; fill: none;"></path></g><g transform="translate(0,91)"><path class="background" d="M0,0h120v11h-120Z" style="pointer-events: none; fill: none; opacity: 1;"></path><g><g class="mark-symbol role-legend-symbol" style="pointer-events: none;"><path transform="translate(6,6)" d="M-5,-5h10v10h-10Z" style="fill: #ff9da6; stroke-width: 1.5; opacity: 1;"></path></g><g class="mark-text role-legend-label" style="pointer-events: none;"><text text-anchor="start" transform="translate(16,9)" style="font-family: sans-serif; font-size: 10px; fill: #000; opacity: 1;">ROBLYER-DDOSI</text></g></g><path class="foreground" d="" style="pointer-events: none; display: none; fill: none;"></path></g><g transform="translate(0,104)"><path class="background" d="M0,0h120v11h-120Z" style="pointer-events: none; fill: none; opacity: 1;"></path><g><g class="mark-symbol role-legend-symbol" style="pointer-events: none;"><path transform="translate(6,6)" d="M-5,-5h10v10h-10Z" style="fill: #9d755d; stroke-width: 1.5; opacity: 1;"></path></g><g class="mark-text role-legend-label" style="pointer-events: none;"><text text-anchor="start" transform="translate(16,9)" style="font-family: sans-serif; font-size: 10px; fill: #000; opacity: 1;">VAC/SICK/HOL</text></g></g><path class="foreground" d="" style="pointer-events: none; display: none; fill: none;"></path></g></g></g><path class="foreground" d="" style="pointer-events: none; display: none; fill: none;"></path></g></g><g class="mark-text role-legend-title" style="pointer-events: none;"><text text-anchor="start" transform="translate(0,9)" style="font-family: sans-serif; font-size: 11px; font-weight: bold; fill: #000; opacity: 1;">Project</text></g></g><path class="foreground" d="" style="pointer-events: none; display: none; fill: none;"></path></g></g></g><path class="foreground" d="" style="display: none; fill: none;"></path></g></g></g></svg>