<svg class="marks" width="952" height="653" viewBox="0 0 952 653" version="1.1" xmlns="http://www.w3.org/2000/svg" xmlns:xlink="http://www.w3.org/1999/xlink"><rect width="952" height="653" style="fill: white;"></rect><g transform="translate(67,10)"><g class="mark-group role-frame root"><g transform="translate(0,0)"><path class="background" d="M0.5,0.5h800v600h-800Z" style="fill: none; stroke: #ddd;"></path><g><g class="mark-group role-axis"><g transform="translate(0.5,0.5)"><path class="background" d="M0,0h0v0h0Z" style="pointer-events: none; fill: none;"></path><g><g class="mark-rule role-axis-grid" style="pointer-events: none;"><line transform="translate(0,600)" x2="800" y2="0" style="fill: none; stroke: #ddd; stroke-width: 1; opacity: 1;"></line><line transform="translate(0,567)" x2="800" y2="0" style="fill: none; stroke: #ddd; stroke-width: 1; opacity: 1;"></line><line transform="translate(0,533)" x2="800" y2="0" style="fill: none; stroke: #ddd; stroke-width: 1; opacity: 1;"></line><line transform="translate(0,500)" x2="800" y2="0" style="fill: none; stroke: #ddd; stroke-width: 1; opacity: 1;"></line><line transform="translate(0,467)" x2="800" y2="0" style="fill: none; stroke: #ddd; stroke-width: 1; opacity: 1;"></line><line transform="translate(0,433)" x2="800" y2="0" style="fill: none; stroke: #ddd; stroke-width: 1; opacity: 1;"></line><line transform="translate(0,400)" x2="800" y2="0" style="fill: none; stroke: #ddd; stroke-width: 1; opacity: 1;"></line><line transform="translate(0,367)" x2="800" y2="0" style="fill: none; stroke: #ddd; stroke-width: 1; opacity: 1;"></line><line transform="translate(0,333)" x2="800" y2="0" style="fill: none; stroke: #ddd; stroke-width: 1; opacity: 1;"></line><line transform="translate(0,300)" x2="800" y2="0" style="fill: none; stroke: #ddd; stroke-width: 1; opacity: 1;"></line><line transform="translate(0,267)" x2="800" y2="0" style="fill: none; stroke: #ddd; stroke-width: 1; opacity: 1;"></line><line transform="translate(0,233)" x2="800" y2="0" style="fill: none; stroke: #ddd; stroke-width: 1; opacity: 1;"></line><line transform="translate(0,200)" x2="800" y2="0" style="fill: none; stroke: #ddd; stroke-width: 1; opacity: 1;"></line><line transform="translate(0,167)" x2="800" y2="0" style="fill: none; stroke: #ddd; stroke-width: 1; opacity: 1;"></line><line transform="translate(0,133)" x2="800" y2="0" style="fill: none; stroke: #ddd; stroke-width: 1; opacity: 1;"></line><line transform="translate(0,100)" x2="800" y2="0" style="fill: none; stroke: #ddd; stroke-width: 1; opacity: 1;"></line><line transform="translate(0,67)" x2="800" y2="0" style="fill: none; stroke: #ddd; stroke-width: 1; opacity: 1;"></line><line transform="translate(0,33)" x2="800" y2="0" style="fill: none; stroke: #ddd; stroke-width: 1; opacity: 1;"></line><line transform="translate(0,0)" x2="800" y2="0" style="fill: none; stroke: #ddd; stroke-width: 1; opacity: 1;"></line></g></g><path class="foreground" d="" style="pointer-events: none; display: none; fill: none;"></path></g></g><g class="mark-group role-axis"><g transform="translate(0.5,600.5)"><path class="background" d="M0,0h0v0h0Z" style="pointer-events: none; fill: none;"></path><g><g class="mark-rule role-axis-tick" style="pointer-events: none;"><line transform="translate(9,0)" x2="0" y2="5" style="fill: none; stroke: #888; stroke-width: 1; opacity: 1;"></line><line transform="translate(75,0)" x2="0" y2="5" style="fill: none; stroke: #888; stroke-width: 1; opacity: 1;"></line><line transform="translate(144,0)" x2="0" y2="5" style="fill: none; stroke: #888; stroke-width: 1; opacity: 1;"></line><line transform="translate(220,0)" x2="0" y2="5" style="fill: none; stroke: #888; stroke-width: 1; opacity: 1;"></line><line transform="translate(291,0)" x2="0" y2="5" style="fill: none; stroke: #888; stroke-width: 1; opacity: 1;"></line><line transform="translate(360,0)" x2="0" y2="5" style="fill: none; stroke: #888; stroke-width: 1; opacity: 1;"></line><line transform="translate(426,0)" x2="0" y2="5" style="fill: none; stroke: #888; stroke-width: 1; opacity: 1;"></line><line transform="translate(492,0)" x2="0" y2="5" style="fill: none; stroke: #888; stroke-width: 1; opacity: 1;"></line><line transform="translate(556,0)" x2="0" y2="5" style="fill: none; stroke: #888; stroke-width: 1; opacity: 1;"></line><line transform="translate(620,0)" x2="0" y2="5" style="fill: none; stroke: #888; stroke-width: 1; opacity: 1;"></line><line transform="translate(671,0)" x2="0" y2="5" style="fill: none; stroke: #888; stroke-width: 1; opacity: 1;"></line><line transform="translate(735,0)" x2="0" y2="5" style="fill: none; stroke: #888; stroke-width: 1; opacity: 1;"></line></g><g class="mark-text role-axis-label" style="pointer-events: none;"><text text-anchor="end" transform="translate(8.588957055214742,7) rotate(270) translate(0,3)" style="font-family: sans-serif; font-size: 10px; fill: #000; opacity: 1;">1</text><text text-anchor="end" transform="translate(74.84662576687118,7) rotate(270) translate(0,3)" style="font-family: sans-serif; font-size: 10px; fill: #000; opacity: 1;">2</text><text text-anchor="end" transform="translate(143.558282208589,7) rotate(270) translate(0,3)" style="font-family: sans-serif; font-size: 10px; fill: #000; opacity: 1;">3</text><text text-anchor="end" transform="translate(219.63190184049083,7) rotate(270) translate(0,3)" style="font-family: sans-serif; font-size: 10px; fill: #000; opacity: 1;">4</text><text text-anchor="end" transform="translate(290.79754601226995,7) rotate(270) translate(0,3)" style="font-family: sans-serif; font-size: 10px; fill: #000; opacity: 1;">5</text><text text-anchor="end" transform="translate(359.50920245398777,7) rotate(270) translate(0,3)" style="font-family: sans-serif; font-size: 10px; fill: #000; opacity: 1;">6</text><text text-anchor="end" transform="translate(425.7668711656442,7) rotate(270) translate(0,3)" style="font-family: sans-serif; font-size: 10px; fill: #000; opacity: 1;">7</text><text text-anchor="end" transform="translate(492.02453987730064,7) rotate(270) translate(0,3)" style="font-family: sans-serif; font-size: 10px; fill: #000; opacity: 1;">8</text><text text-anchor="end" transform="translate(555.8282208588957,7) rotate(270) translate(0,3)" style="font-family: sans-serif; font-size: 10px; fill: #000; opacity: 1;">9</text><text text-anchor="end" transform="translate(619.6319018404909,7) rotate(270) translate(0,3)" style="font-family: sans-serif; font-size: 10px; fill: #000; opacity: 1;">10</text><text text-anchor="end" transform="translate(671.1656441717791,7) rotate(270) translate(0,3)" style="font-family: sans-serif; font-size: 10px; fill: #000; opacity: 1;">11</text><text text-anchor="end" transform="translate(734.9693251533743,7) rotate(270) translate(0,3)" style="font-family: sans-serif; font-size: 10px; fill: #000; opacity: 1;">12</text></g><g class="mark-rule role-axis-domain" style="pointer-events: none;"><line transform="translate(0,0)" x2="800" y2="0" style="fill: none; stroke: #888; stroke-width: 1; opacity: 1;"></line></g><g class="mark-text role-axis-title" style="pointer-events: none;"><text text-anchor="middle" transform="translate(400,36)" style="font-family: sans-serif; font-size: 11px; font-weight: bold; fill: #000; opacity: 1;">Date</text></g></g><path class="foreground" d="" style="pointer-events: none; display: none; fill: none;"></path></g></g><g class="mark-group role-axis"><g transform="translate(0.5,0.5)"><path class="background" d="M0,0h0v0h0Z" style="pointer-events: none; fill: none;"></path><g><g class="mark-rule role-axis-tick" style="pointer-events: none;"><line transform="translate(0,600)" x2="-5" y2="0" style="fill: none; stroke: #888; stroke-width: 1; opacity: 1;"></line><line transform="translate(0,567)" x2="-5" y2="0" style="fill: none; stroke: #888; stroke-width: 1; opacity: 1;"></line><line transform="translate(0,533)" x2="-5" y2="0" style="fill: none; stroke: #888; stroke-width: 1; opacity: 1;"></line><line transform="translate(0,500)" x2="-5" y2="0" style="fill: none; stroke: #888; stroke-width: 1; opacity: 1;"></line><line transform="translate(0,467)" x2="-5" y2="0" style="fill: none; stroke: #888; stroke-width: 1; opacity: 1;"></line><line transform="translate(0,433)" x2="-5" y2="0" style="fill: none; stroke: #888; stroke-width: 1; opacity: 1;"></line><line transform="translate(0,400)" x2="-5" y2="0" style="fill: none; stroke: #888; stroke-width: 1; opacity: 1;"></line><line transform="translate(0,367)" x2="-5" y2="0" style="fill: none; stroke: #888; stroke-width: 1; opacity: 1;"></line><line transform="translate(0,333)" x2="-5" y2="0" style="fill: none; stroke: #888; stroke-width: 1; opacity: 1;"></line><line transform="translate(0,300)" x2="-5" y2="0" style="fill: none; stroke: #888; stroke-width: 1; opacity: 1;"></line><line transform="translate(0,267)" x2="-5" y2="0" style="fill: none; stroke: #888; stroke-width: 1; opacity: 1;"></line><line transform="translate(0,233)" x2="-5" y2="0" style="fill: none; stroke: #888; stroke-width: 1; opacity: 1;"></line><line transform="translate(0,200)" x2="-5" y2="0" style="fill: none; stroke: #888; stroke-width: 1; opacity: 1;"></line><line transform="translate(0,167)" x2="-5" y2="0" style="fill: none; stroke: #888; stroke-width: 1; opacity: 1;"></line><line transform="translate(0,133)" x2="-5" y2="0" style="fill: none; stroke: #888; stroke-width: 1; opacity: 1;"></line><line transform="translate(0,100)" x2="-5" y2="0" style="fill: none; stroke: #888; stroke-width: 1; opacity: 1;"></line><line transform="translate(0,67)" x2="-5" y2="0" style="fill: none; stroke: #888; stroke-width: 1; opacity: 1;"></line><line transform="translate(0,33)" x2="-5" y2="0" style="fill: none; stroke: #888; stroke-width: 1; opacity: 1;"></line><line transform="translate(0,0)" x2="-5" y2="0" style="fill: none; stroke: #888; stroke-width: 1; opacity: 1;"></line></g><g class="mark-text role-axis-label" style="pointer-events: none;"><text text-anchor="end" transform="translate(-7,603)" style="font-family: sans-serif; font-size: 10px; fill: #000; opacity: 1;">0</text><text text-anchor="end" transform="translate(-7,569.6666666666666)" style="font-family: sans-serif; font-size: 10px; fill: #000; opacity: 1;">100</text><text text-anchor="end" transform="translate(-7,536.3333333333333)" style="font-family: sans-serif; font-size: 10px; fill: #000; opacity: 1;">200</text><text text-anchor="end" transform="translate(-7,503)" style="font-family: sans-serif; font-size: 10px; fill: #000; opacity: 1;">300</text><text text-anchor="end" transform="translate(-7,469.6666666666667)" style="font-family: sans-serif; font-size: 10px; fill: #000; opacity: 1;">400</text><text text-anchor="end" transform="translate(-7,436.3333333333333)" style="font-family: sans-serif; font-size: 10px; fill: #000; opacity: 1;">500</text><text text-anchor="end" transform="translate(-7,403.00000000000006)" style="font-family: sans-serif; font-size: 10px; fill: #000; opacity: 1;">600</text><text text-anchor="end" transform="translate(-7,369.6666666666667)" style="font-family: sans-serif; font-size: 10px; fill: #000; opacity: 1;">700</text><text text-anchor="end" transform="translate(-7,336.33333333333337)" style="font-family: sans-serif; font-size: 10px; fill: #000; opacity: 1;">800</text><text text-anchor="end" transform="translate(-7,303)" style="font-family: sans-serif; font-size: 10px; fill: #000; opacity: 1;">900</text><text text-anchor="end" transform="translate(-7,269.66666666666663)" style="font-family: sans-serif; font-size: 10px; fill: #000; opacity: 1;">1,000</text><text text-anchor="end" transform="translate(-7,236.33333333333331)" style="font-family: sans-serif; font-size: 10px; fill: #000; opacity: 1;">1,100</text><text text-anchor="end" transform="translate(-7,203.00000000000003)" style="font-family: sans-serif; font-size: 10px; fill: #000; opacity: 1;">1,200</text><text text-anchor="end" transform="translate(-7,169.66666666666669)" style="font-family: sans-serif; font-size: 10px; fill: #000; opacity: 1;">1,300</text><text text-anchor="end" transform="translate(-7,136.33333333333331)" style="font-family: sans-serif; font-size: 10px; fill: #000; opacity: 1;">1,400</text><text text-anchor="end" transform="translate(-7,102.99999999999997)" style="font-family: sans-serif; font-size: 10px; fill: #000; opacity: 1;">1,500</text><text text-anchor="end" transform="translate(-7,69.6666666666667)" style="font-family: sans-serif; font-size: 10px; fill: #000; opacity: 1;">1,600</text><text text-anchor="end" transform="translate(-7,36.33333333333335)" style="font-family: sans-serif; font-size: 10px; fill: #000; opacity: 1;">1,700</text><text text-anchor="end" transform="translate(-7,3)" style="font-family: sans-serif; font-size: 10px; fill: #000; opacity: 1;">1,800</text></g><g class="mark-rule role-axis-domain" style="pointer-events: none;"><line transform="translate(0,600)" x2="0" y2="-600" style="fill: none; stroke: #888; stroke-width: 1; opacity: 1;"></line></g><g class="mark-text role-axis-title" style="pointer-events: none;"><text text-anchor="middle" transform="translate(-51,300) rotate(-90) translate(0,-2)" style="font-family: sans-serif; font-size: 11px; font-weight: bold; fill: #000; opacity: 1;">Sum of Hours</text></g></g><path class="foreground" d="" style="pointer-events: none; display: none; fill: none;"></path></g></g><g class="mark-group role-scope pathgroup"><g transform="translate(0,0)"><path class="background" d="M0,0h800v600h-800Z" style="fill: none;"></path><g><g class="mark-line role-mark marks"><path d="M8.588957055214742,599.3333333333334L11.042944785276092,597L13.496932515337441,594.8333333333334L15.950920245398791,593.3333333333334L23.31288343558284,591.6666666666667L25.76687116564419,589.6666666666666L28.22085889570554,587.6666666666666L30.67484662576689,584.8333333333334L33.12883435582824,582.1666666666666L40.49079754601229,579.5L42.94478527607364,577L45.39877300613499,573.5L47.85276073619634,571L50.30674846625769,568.8333333333334L57.66871165644174,566L60.122699386503086,563.1666666666666L62.576687116564436,560.8333333333334L65.03067484662579,559.3333333333333L67.48466257668713,557.1666666666666L74.84662576687118,555.1666666666666L77.30061349693253,553.1666666666666L79.75460122699388,551.1666666666667L82.20858895705524,550.8333333333333L84.66257668711658,548.5L92.02453987730064,548.1666666666667L94.47852760736198,546.8333333333334L96.93251533742333,545.3333333333333L99.38650306748468,544L101.84049079754604,543L109.20245398773008,540.3333333333334L111.65644171779144,539.1666666666666L114.11042944785278,536.8333333333334L116.56441717791412,534.6666666666666L119.01840490797548,531.3333333333334L126.38036809815952,528.3333333333334L128.83435582822088,527.3333333333333L131.28834355828224,526.8333333333334L133.74233128834356,524.6666666666666L136.19631901840492,522.1666666666667L141.10429447852763,521.6666666666666L143.558282208589,518.8333333333333L146.01226993865032,516.5L148.46625766871168,513.1666666666666L150.92024539877303,511.16666666666663L153.37423312883436,508.3333333333333L165.64417177914112,506.6666666666667L168.09815950920247,505.3333333333333L170.55214723926383,503.6666666666667L177.91411042944787,501L180.36809815950923,498.83333333333337L182.8220858895706,497L185.27607361963192,494L187.73006134969327,492.00000000000006L195.09202453987731,489.6666666666667L197.54601226993867,487.8333333333333L200.00000000000003,486.5L202.45398773006139,485.8333333333333L204.9079754601227,482.66666666666663L212.26993865030676,481L214.7239263803681,478.33333333333337L217.17791411042947,478L219.63190184049083,475.3333333333333L222.08588957055218,472.6666666666667L229.44785276073623,470.3333333333333L231.90184049079755,467.66666666666663L234.3558282208589,465.99999999999994L236.80981595092027,463.83333333333337L239.26380368098162,461.33333333333337L244.1717791411043,459L246.62576687116567,458.1666666666667L249.07975460122702,455.6666666666667L251.53374233128835,451.83333333333337L253.9877300613497,450.5L261.3496932515338,447.8333333333333L263.8036809815951,445L266.25766871165644,442.16666666666663L278.5276073619632,439.3333333333333L280.9815950920246,436.99999999999994L283.4355828220859,435L290.79754601226995,432.1666666666667L293.25153374233133,430L295.70552147239266,426.8333333333333L298.159509202454,425.50000000000006L300.6134969325154,423.00000000000006L307.9754601226994,422.1666666666667L310.42944785276075,419.83333333333337L312.88343558282213,417.00000000000006L315.33742331288346,415.1666666666667L317.7914110429448,413.8333333333333L325.1533742331289,411.33333333333326L327.6073619631902,409.33333333333337L330.06134969325154,406.83333333333337L332.51533742331293,405.83333333333337L339.87730061349697,403.5L342.3312883435583,401L344.7852760736196,398L347.239263803681,394.6666666666667L349.69325153374234,392.5L357.0552147239264,390.16666666666663L359.50920245398777,387.49999999999994L361.9631901840491,383L364.4171779141105,380.33333333333337L366.8711656441718,377.5L374.23312883435585,374.6666666666667L376.6871165644172,371.83333333333337L379.14110429447857,369.1666666666667L381.5950920245399,366.16666666666663L384.0490797546012,363.5L388.95705521472394,360.8333333333333L391.4110429447853,358.49999999999994L393.86503067484665,355.8333333333333L396.319018404908,353.16666666666663L398.77300613496936,350.50000000000006L403.6809815950921,348.00000000000006L406.1349693251534,345.33333333333337L408.58895705521473,342.3333333333333L411.0429447852761,339.33333333333337L413.49693251533745,336.6666666666667L418.40490797546016,334.1666666666667L420.8588957055215,332.16666666666663L423.3128834355828,330.16666666666663L425.7668711656442,327.50000000000006L428.22085889570553,325.1666666666667L433.12883435582825,322.5L440.4907975460123,320.16666666666663L442.9447852760737,318.1666666666667L447.85276073619633,315.5L450.3067484662577,312.3333333333333L452.76073619631904,309L455.2147239263804,306.1666666666667L457.66871165644176,303.8333333333333L467.4846625766871,301.6666666666667L469.9386503067485,299.33333333333337L472.39263803680984,296.5L477.30061349693256,293.8333333333333L479.7546012269939,291.3333333333333L482.20858895705527,288.5L484.6625766871166,286L487.1165644171779,283.3333333333333L492.02453987730064,280.8333333333333L494.47852760736197,278.16666666666663L496.93251533742335,275.16666666666663L499.3865030674847,272.50000000000006L501.840490797546,270.33333333333337L506.7484662576687,267.8333333333333L509.2024539877301,264.6666666666667L511.65644171779144,262.6666666666667L514.1104294478528,260.16666666666663L516.564417177914,258.00000000000006L521.4723926380368,255.49999999999997L523.9263803680981,252.49999999999997L526.3803680981596,249.99999999999997L528.8343558282209,247.33333333333337L531.2883435582821,245L536.1963190184049,242L538.6503067484664,239.66666666666669L541.1042944785277,237.16666666666663L543.5582822085889,236.16666666666669L546.0122699386504,234L550.920245398773,231.33333333333331L555.8282208588957,231L558.282208588957,228.66666666666663L560.7361963190185,226.16666666666666L565.6441717791411,223.50000000000003L568.0981595092026,222L570.5521472392638,219.83333333333331L573.0061349693251,217.25L575.4601226993866,214.91666666666669L580.3680981595091,212.58333333333331L582.8220858895706,210.25000000000003L585.2760736196319,207.58333333333334L587.7300613496932,205.08333333333334L590.1840490797547,202.41666666666666L595.0920245398772,200.58333333333331L597.5460122699387,198.08333333333331L600,195.25L602.4539877300613,192.58333333333331L604.9079754601228,190.08333333333334L609.8159509202453,187.74999999999997L612.2699386503068,185.41666666666669L614.7239263803681,182.75L617.1779141104296,179.91666666666669L619.6319018404909,177.41666666666669L624.5398773006136,175.25000000000003L626.9938650306749,172.91666666666666L631.9018404907977,170.41666666666666L634.3558282208589,168.25L636.8098159509202,165.91666666666669L644.1717791411043,164.58333333333334L646.6257668711658,161.74999999999997L649.079754601227,159.41666666666669L651.5337423312883,157.08333333333331L656.4417177914111,154.41666666666669L658.8957055214723,151.41666666666669L661.3496932515338,148.91666666666669L663.8036809815951,146.25L666.2576687116564,143.75000000000003L671.1656441717791,141.08333333333334L673.6196319018404,138.41666666666666L676.0736196319019,136.08333333333334L678.5276073619632,133.91666666666669L680.9815950920245,132.08333333333334L685.8895705521472,129.91666666666666L688.3435582822085,127.24999999999997L690.79754601227,124.74999999999999L693.2515337423313,121.74999999999999L695.7055214723928,119.41666666666669L700.6134969325153,116.91666666666669L703.0674846625768,114.25L705.5214723926381,112.25000000000003L707.9754601226994,109.41666666666666L710.4294478527609,107.08333333333336L715.3374233128834,104.74999999999999L717.7914110429449,102.0833333333333L720.2453987730062,99.41666666666669L722.6993865030674,96.75L725.153374233129,94.08333333333331L730.0613496932515,92.74999999999997L732.515337423313,90.24999999999999L734.9693251533743,87.5833333333333L737.4233128834355,84.91666666666669L739.877300613497,82.58333333333331L744.7852760736196,81.91666666666669L747.2392638036811,78.91666666666669L749.6932515337423,76.0833333333333L752.1472392638036,74.25000000000001L754.6012269938651,72.58333333333336L757.0552147239264,70.9166666666667L761.9631901840492,67.91666666666669L764.4171779141104,65.08333333333331L766.8711656441717,63.74999999999997L769.3251533742332,61.08333333333336L771.7791411042945,58.583333333333364L774.233128834356,56.25L776.6871165644172,55.583333333333364L779.1411042944785,51.250000000000014L781.59509202454,48.583333333333336L784.0490797546013,45.91666666666665L788.957055214724,43.250000000000036L791.4110429447853,40.58333333333335L793.8650306748466,37.916666666666664L796.3190184049081,35.24999999999998L798.7730061349694,32.583333333333364" style="fill: none; stroke: #4c78a8; stroke-width: 2;"></path></g></g><path class="foreground" d="" style="display: none; fill: none;"></path></g><g transform="translate(0,0)"><path class="background" d="M0,0h800v600h-800Z" style="fill: none;"></path><g><g class="mark-line role-mark marks"><path d="M6.134969325153392,597.5L8.588957055214742,596.1666666666666L11.042944785276092,594L13.496932515337441,592.1666666666666L20.85889570552149,589.8333333333334L23.31288343558284,587.6666666666666L25.76687116564419,585.5L28.22085889570554,582.8333333333333L30.67484662576689,580.6666666666666L38.03680981595094,578L40.49079754601229,575.6666666666666L42.94478527607364,573.6666666666666L45.39877300613499,570.8333333333333L57.66871165644174,569.1666666666666L60.122699386503086,565.1666666666666L62.576687116564436,562.1666666666666L65.03067484662579,560L72.39263803680984,558.3333333333334L74.84662576687118,556L77.30061349693253,552.3333333333334L79.75460122699388,549.8333333333334L82.20858895705524,547.8333333333333L89.57055214723928,545.5L92.02453987730064,542.8333333333334L94.47852760736198,541.3333333333334L96.93251533742333,538.6666666666666L99.38650306748468,536.6666666666667L111.65644171779144,534L114.11042944785278,531.1666666666667L116.56441717791412,529.8333333333334L123.92638036809818,526.3333333333334L126.38036809815952,524.1666666666666L128.83435582822088,521.5L131.28834355828224,518.8333333333333L133.74233128834356,516.8333333333334L141.10429447852763,514.3333333333334L143.558282208589,511.99999999999994L146.01226993865032,509.16666666666663L148.46625766871168,506.33333333333337L150.92024539877303,505L160.73619631901843,502.5L163.1901840490798,499.8333333333333L165.64417177914112,497.3333333333333L168.09815950920247,494.66666666666663L175.46012269938652,492.1666666666667L177.91411042944787,490.1666666666667L180.36809815950923,488.5L182.8220858895706,486.1666666666667L185.27607361963192,483.16666666666663L195.09202453987731,481.5L197.54601226993867,476.16666666666663L200.00000000000003,478L202.45398773006139,473.8333333333333L209.81595092024543,472L212.26993865030676,469.33333333333337L214.7239263803681,466.6666666666667L217.17791411042947,464.5L219.63190184049083,462.1666666666667L226.99386503067487,459.5L229.44785276073623,458.5L231.90184049079755,455.8333333333333L234.3558282208589,453.8333333333333L258.8957055214724,451.16666666666663L261.3496932515338,448.83333333333326L263.8036809815951,446.6666666666667L266.25766871165644,444L268.7116564417178,441.8333333333333L271.16564417177915,439.83333333333337L273.61963190184053,438L276.07361963190186,435.5L278.5276073619632,433.66666666666663L280.9815950920246,431.50000000000006L290.79754601226995,428.83333333333337L293.25153374233133,427.1666666666667L295.70552147239266,425.16666666666663L298.159509202454,424.5L305.52147239263803,422.83333333333337L307.9754601226994,420.33333333333337L310.42944785276075,419.66666666666663L312.88343558282213,417.5L315.33742331288346,416L322.6993865030675,414.1666666666667L325.1533742331289,412.6666666666667L327.6073619631902,411.6666666666667L330.06134969325154,410L332.51533742331293,409.5L342.3312883435583,407.8333333333333L344.7852760736196,406.00000000000006L347.239263803681,404.5L354.60122699386505,401.8333333333333L357.0552147239264,400.00000000000006L359.50920245398777,397.5L361.9631901840491,394.91666666666674L364.4171779141105,392.4166666666667L371.7791411042945,389.75000000000006L374.23312883435585,385.91666666666663L376.6871165644172,383.58333333333337L379.14110429447857,380.9166666666667L381.5950920245399,378.58333333333337L386.5030674846626,376.75L388.95705521472394,375.08333333333337L391.4110429447853,372.3333333333333L393.86503067484665,370.66666666666663L396.319018404908,367.5L401.2269938650307,365.6666666666667L403.6809815950921,364.1666666666667L406.1349693251534,361.8333333333333L408.58895705521473,359.83333333333337L411.0429447852761,357.8333333333333L415.9509202453988,355.8333333333333L418.40490797546016,354.5L423.3128834355828,352.5L425.7668711656442,351.6666666666667L430.6748466257669,349L435.5828220858896,346.33333333333337L438.03680981595096,343.6666666666667L440.4907975460123,341L445.398773006135,337.6666666666667L447.85276073619633,335L450.3067484662577,332.16666666666663L452.76073619631904,330.16666666666663L455.2147239263804,329.8333333333333L460.1226993865031,329.5L462.5766871165644,329L465.0306748466258,328.33333333333337L467.4846625766871,326.8333333333333L469.9386503067485,325.83333333333337L474.84662576687117,325.00000000000006L477.30061349693256,323.8333333333333L479.7546012269939,322.8333333333333L482.20858895705527,321.50000000000006L484.6625766871166,320.5L489.5705521472393,319.5L494.47852760736197,317.8333333333333L496.93251533742335,316.1666666666667L499.3865030674847,315.16666666666663L504.2944785276074,314.5L506.7484662576687,313.5L509.2024539877301,312.49999999999994L511.65644171779144,311.5L514.1104294478528,309.8333333333333L519.0184049079755,307.16666666666663L521.4723926380368,304.50000000000006L523.9263803680981,301.83333333333337L526.3803680981596,299.5L528.8343558282209,296.8333333333333L533.7423312883436,295.50000000000006L536.1963190184049,294.6666666666667L538.6503067484664,293L541.1042944785277,291.5L543.5582822085889,290.33333333333337L548.4662576687117,288.1666666666667L550.920245398773,286L553.3742331288345,284.00000000000006L555.8282208588957,282.8333333333333L563.1901840490798,280.1666666666667L565.6441717791411,279.1666666666667L568.0981595092026,278.49999999999994L570.5521472392638,275.49999999999994L573.0061349693251,273.8333333333333L577.9141104294479,272.16666666666663L580.3680981595091,269.83333333333337L582.8220858895706,267.8333333333333L585.2760736196319,266.66666666666663L587.7300613496932,264.33333333333337L592.638036809816,262.8333333333333L595.0920245398772,262L597.5460122699387,261.1666666666667L600,259.8333333333333L602.4539877300613,258.5L607.361963190184,257.1666666666667L609.8159509202453,255.49999999999997L612.2699386503068,252.83333333333334L614.7239263803681,250.33333333333337L617.1779141104296,248.5L622.0858895705521,246.83333333333334L624.5398773006136,245.16666666666669L626.9938650306749,243.66666666666666L629.4478527607362,240L631.9018404907977,237.66666666666666L634.3558282208589,235.16666666666666L639.2638036809817,230.83333333333331L641.717791411043,233.16666666666669L644.1717791411043,228.66666666666663L646.6257668711658,226.99999999999997L649.079754601227,225L653.9877300613498,222.66666666666663L656.4417177914111,222L658.8957055214723,220.16666666666666L661.3496932515338,218.49999999999997L663.8036809815951,216.5L668.7116564417179,214.50000000000003L671.1656441717791,211.83333333333334L673.6196319018404,209.49999999999997L678.5276073619632,207.5L683.435582822086,206.00000000000003L688.3435582822085,204.66666666666669L690.79754601227,202.33333333333331L693.2515337423313,199.66666666666663L698.159509202454,197.66666666666666L700.6134969325153,197.16666666666666L703.0674846625768,195.16666666666666L705.5214723926381,193.33333333333331L707.9754601226994,191L712.8834355828221,188.99999999999997L715.3374233128834,187.16666666666669L717.7914110429449,184.5L720.2453987730062,181.83333333333331L722.6993865030674,179.16666666666669L727.6073619631902,177.16666666666666L730.0613496932515,174.99999999999997L732.515337423313,172.66666666666669L734.9693251533743,170.66666666666669L737.4233128834355,168.33333333333334L742.3312883435583,165.99999999999997L744.7852760736196,163.66666666666669L747.2392638036811,161.33333333333331L752.1472392638036,158.66666666666669L759.5092024539877,156L761.9631901840492,155.66666666666669L764.4171779141104,154.83333333333334L774.233128834356,154.00000000000003L786.5030674846626,151.33333333333334L791.4110429447853,148.66666666666666L796.3190184049081,146.33333333333337L798.7730061349694,144.66666666666669" style="fill: none; stroke: #f58518; stroke-width: 2;"></path></g></g><path class="foreground" d="" style="display: none; fill: none;"></path></g><g transform="translate(0,0)"><path class="background" d="M0,0h800v600h-800Z" style="fill: none;"></path><g><g class="mark-line role-mark marks"><path d="M1.2269938650306926,597.3333333333334L3.6809815950920424,595.8333333333334L6.134969325153392,594.8333333333334L8.588957055214742,592.8333333333334L11.042944785276092,590.8333333333334L18.40490797546014,588.8333333333334L20.85889570552149,587.1666666666666L23.31288343558284,585L25.76687116564419,582.6666666666667L28.22085889570554,581.8333333333334L35.58282208588959,579.8333333333333L40.49079754601229,579.5L42.94478527607364,578L45.39877300613499,575.1666666666666L52.76073619631904,573.1666666666666L55.21472392638039,571L57.66871165644174,568.8333333333334L60.122699386503086,567.1666666666666L62.576687116564436,566.1666666666666L69.93865030674849,564.5L72.39263803680984,562.3333333333333L74.84662576687118,560.1666666666667L77.30061349693253,559L79.75460122699388,557.6666666666666L87.11656441717793,556.3333333333333L89.57055214723928,555.1666666666666L92.02453987730064,553L94.47852760736198,551.3333333333334L96.93251533742333,549.8333333333334L104.29447852760738,548.3333333333334L106.74846625766872,547L109.20245398773008,545.8333333333334L111.65644171779144,544.5833333333334L114.11042944785278,543.0833333333334L121.47239263803684,541.4166666666667L123.92638036809818,539.3333333333333L126.38036809815952,537.6666666666666L128.83435582822088,535.8333333333334L131.28834355828224,534.6666666666666L136.19631901840492,534.5L138.65030674846628,532.6666666666666L141.10429447852763,530.5L143.558282208589,528.3333333333334L146.01226993865032,527L148.46625766871168,525.5L155.82822085889572,524L158.28220858895708,522.3333333333334L160.73619631901843,520.6666666666666L163.1901840490798,519.3333333333333L165.64417177914112,518.3333333333334L173.00613496932516,517.5L175.46012269938652,515.8333333333334L177.91411042944787,514L180.36809815950923,513.1666666666666L182.8220858895706,511.5L190.18404907975463,509.5L192.63803680981596,508L195.09202453987731,505L197.54601226993867,503.49999999999994L200.00000000000003,502.1666666666667L202.45398773006139,501.5L207.36196319018407,499.6666666666667L209.81595092024543,497.66666666666663L212.26993865030676,495.6666666666667L214.7239263803681,494L217.17791411042947,492.33333333333337L224.5398773006135,490.5L226.99386503067487,488.99999999999994L229.44785276073623,487.1666666666667L231.90184049079755,485.8333333333333L234.3558282208589,484.1666666666667L241.71779141104298,481.3333333333333L244.1717791411043,479.1666666666667L249.07975460122702,477.83333333333337L256.44171779141107,476.16666666666663L258.8957055214724,475.3333333333333L261.3496932515338,473.8333333333333L263.8036809815951,472.1666666666667L266.25766871165644,471.66666666666663L285.8895705521473,471.50000000000006L288.3435582822086,471.3333333333333L293.25153374233133,469.5L295.70552147239266,468.3333333333333L303.0674846625767,466.5L305.52147239263803,465.16666666666663L307.9754601226994,463.5L310.42944785276075,462.1666666666667L312.88343558282213,461L320.2453987730062,459.3333333333333L322.6993865030675,457.83333333333337L325.1533742331289,456L327.6073619631902,454.6666666666667L330.06134969325154,453.6666666666667L334.96932515337426,451.3333333333333L337.4233128834356,448.3333333333333L339.87730061349697,446.3333333333333L342.3312883435583,445L344.7852760736196,444L352.1472392638037,442.3333333333333L354.60122699386505,441L357.0552147239264,438.33333333333337L359.50920245398777,435.6666666666667L361.9631901840491,434.33333333333337L369.32515337423314,433.66666666666663" style="fill: none; stroke: #e45756; stroke-width: 2;"></path></g></g><path class="foreground" d="" style="display: none; fill: none;"></path></g></g><g class="mark-group role-legend"><g transform="translate(819,0)"><path class="background" d="M0,0h61v53h-61Z" style="pointer-events: none; fill: none;"></path><g><g class="mark-group role-legend-entry"><g transform="translate(0,16)"><path class="background" d="M0,0h0v0h0Z" style="pointer-events: none; fill: none;"></path><g><g class="mark-group role-scope"><g transform="translate(0,0)"><path class="background" d="M0,0h48v11h-48Z" style="pointer-events: none; fill: none; opacity: 1;"></path><g><g class="mark-symbol role-legend-symbol" style="pointer-events: none;"><path transform="translate(6,6)" d="M-5,0L5,0" style="fill: none; stroke: #4c78a8; stroke-width: 1.5; opacity: 1;"></path></g><g class="mark-text role-legend-label" style="pointer-events: none;"><text text-anchor="start" transform="translate(16,9)" style="font-family: sans-serif; font-size: 10px; fill: #000; opacity: 1;">2021</text></g></g><path class="foreground" d="" style="pointer-events: none; display: none; fill: none;"></path></g><g transform="translate(0,13)"><path class="background" d="M0,0h48v11h-48Z" style="pointer-events: none; fill: none; opacity: 1;"></path><g><g class="mark-symbol role-legend-symbol" style="pointer-events: none;"><path transform="translate(6,6)" d="M-5,0L5,0" style="fill: none; stroke: #f58518; stroke-width: 1.5; opacity: 1;"></path></g><g class="mark-text role-legend-label" style="pointer-events: none;"><text text-anchor="start" transform="translate(16,9)" style="font-family: sans-serif; font-size: 10px; fill: #000; opacity: 1;">2022</text></g></g><path class="foreground" d="" style="pointer-events: none; display: none; fill: none;"></path></g><g transform="translate(0,26)"><path class="background" d="M0,0h48v11h-48Z" style="pointer-events: none; fill: none; opacity: 1;"></path><g><g class="mark-symbol role-legend-symbol" style="pointer-events: none;"><path transform="translate(6,6)" d="M-5,0L5,0" style="fill: none; stroke: #e45756; stroke-width: 1.5; opacity: 1;"></path></g><g class="mark-text role-legend-label" style="pointer-events: none;"><text text-anchor="start" transform="translate(16,9)" style="font-family: sans-serif; font-size: 10px; fill: #000; opacity: 1;">2023</text></g></g><path class="foreground" d="" style="pointer-events: none; display: none; fill: none;"></path></g></g></g><path class="foreground" d="" style="pointer-events: none; display: none; fill: none;"></path></g></g><g class="mark-text role-legend-title" style="pointer-events: none;"><text text-anchor="start" transform="translate(0,9)" style="font-family: sans-serif; font-size: 11px; font-weight: bold; fill: #000; opacity: 1;">Project</text></g></g><path class="foreground" d="" style="pointer-events: none; display: none; fill: none;"></path></g></g></g><path class="foreground" d="" style="display: none; fill: none;"></path></g></g></g></svg>