<svg class="marks" width="938" height="693" viewBox="0 0 938 693" version="1.1" xmlns="http://www.w3.org/2000/svg" xmlns:xlink="http://www.w3.org/1999/xlink"><rect width="938" height="693" style="fill: white;"></rect><g transform="translate(51,10)"><g class="mark-group role-frame root"><g transform="translate(0,0)"><path class="background" d="M0.5,0.5h800v600h-800Z" style="fill: none; stroke: #ddd;"></path><g><g class="mark-group role-axis"><g transform="translate(0.5,0.5)"><path class="background" d="M0,0h0v0h0Z" style="pointer-events: none; fill: none;"></path><g><g class="mark-rule role-axis-grid" style="pointer-events: none;"><line transform="translate(0,600)" x2="800" y2="0" style="fill: none; stroke: #ddd; stroke-width: 1; opacity: 1;"></line><line transform="translate(0,545)" x2="800" y2="0" style="fill: none; stroke: #ddd; stroke-width: 1; opacity: 1;"></line><line transform="translate(0,491)" x2="800" y2="0" style="fill: none; stroke: #ddd; stroke-width: 1; opacity: 1;"></line><line transform="translate(0,436)" x2="800" y2="0" style="fill: none; stroke: #ddd; stroke-width: 1; opacity: 1;"></line><line transform="translate(0,382)" x2="800" y2="0" style="fill: none; stroke: #ddd; stroke-width: 1; opacity: 1;"></line><line transform="translate(0,327)" x2="800" y2="0" style="fill: none; stroke: #ddd; stroke-width: 1; opacity: 1;"></line><line transform="translate(0,273)" x2="800" y2="0" style="fill: none; stroke: #ddd; stroke-width: 1; opacity: 1;"></line><line transform="translate(0,218)" x2="800" y2="0" style="fill: none; stroke: #ddd; stroke-width: 1; opacity: 1;"></line><line transform="translate(0,164)" x2="800" y2="0" style="fill: none; stroke: #ddd; stroke-width: 1; opacity: 1;"></line><line transform="translate(0,109)" x2="800" y2="0" style="fill: none; stroke: #ddd; stroke-width: 1; opacity: 1;"></line><line transform="translate(0,55)" x2="800" y2="0" style="fill: none; stroke: #ddd; stroke-width: 1; opacity: 1;"></line><line transform="translate(0,0)" x2="800" y2="0" style="fill: none; stroke: #ddd; stroke-width: 1; opacity: 1;"></line></g></g><path class="foreground" d="" style="pointer-events: none; display: none; fill: none;"></path></g></g><g class="mark-group role-axis"><g transform="translate(0.5,600.5)"><path class="background" d="M0,0h0v0h0Z" style="pointer-events: none; fill: none;"></path><g><g class="mark-rule role-axis-tick" style="pointer-events: none;"><line transform="translate(16,0)" x2="0" y2="5" style="fill: none; stroke: #888; stroke-width: 1; opacity: 1;"></line><line transform="translate(48,0)" x2="0" y2="5" style="fill: none; stroke: #888; stroke-width: 1; opacity: 1;"></line><line transform="translate(80,0)" x2="0" y2="5" style="fill: none; stroke: #888; stroke-width: 1; opacity: 1;"></line><line transform="translate(112,0)" x2="0" y2="5" style="fill: none; stroke: #888; stroke-width: 1; opacity: 1;"></line><line transform="translate(144,0)" x2="0" y2="5" style="fill: none; stroke: #888; stroke-width: 1; opacity: 1;"></line><line transform="translate(176,0)" x2="0" y2="5" style="fill: none; stroke: #888; stroke-width: 1; opacity: 1;"></line><line transform="translate(208,0)" x2="0" y2="5" style="fill: none; stroke: #888; stroke-width: 1; opacity: 1;"></line><line transform="translate(240,0)" x2="0" y2="5" style="fill: none; stroke: #888; stroke-width: 1; opacity: 1;"></line><line transform="translate(272,0)" x2="0" y2="5" style="fill: none; stroke: #888; stroke-width: 1; opacity: 1;"></line><line transform="translate(304,0)" x2="0" y2="5" style="fill: none; stroke: #888; stroke-width: 1; opacity: 1;"></line><line transform="translate(336,0)" x2="0" y2="5" style="fill: none; stroke: #888; stroke-width: 1; opacity: 1;"></line><line transform="translate(368,0)" x2="0" y2="5" style="fill: none; stroke: #888; stroke-width: 1; opacity: 1;"></line><line transform="translate(400,0)" x2="0" y2="5" style="fill: none; stroke: #888; stroke-width: 1; opacity: 1;"></line><line transform="translate(432,0)" x2="0" y2="5" style="fill: none; stroke: #888; stroke-width: 1; opacity: 1;"></line><line transform="translate(464,0)" x2="0" y2="5" style="fill: none; stroke: #888; stroke-width: 1; opacity: 1;"></line><line transform="translate(496,0)" x2="0" y2="5" style="fill: none; stroke: #888; stroke-width: 1; opacity: 1;"></line><line transform="translate(528,0)" x2="0" y2="5" style="fill: none; stroke: #888; stroke-width: 1; opacity: 1;"></line><line transform="translate(560,0)" x2="0" y2="5" style="fill: none; stroke: #888; stroke-width: 1; opacity: 1;"></line><line transform="translate(592,0)" x2="0" y2="5" style="fill: none; stroke: #888; stroke-width: 1; opacity: 1;"></line><line transform="translate(624,0)" x2="0" y2="5" style="fill: none; stroke: #888; stroke-width: 1; opacity: 1;"></line><line transform="translate(656,0)" x2="0" y2="5" style="fill: none; stroke: #888; stroke-width: 1; opacity: 1;"></line><line transform="translate(688,0)" x2="0" y2="5" style="fill: none; stroke: #888; stroke-width: 1; opacity: 1;"></line><line transform="translate(720,0)" x2="0" y2="5" style="fill: none; stroke: #888; stroke-width: 1; opacity: 1;"></line><line transform="translate(752,0)" x2="0" y2="5" style="fill: none; stroke: #888; stroke-width: 1; opacity: 1;"></line><line transform="translate(784,0)" x2="0" y2="5" style="fill: none; stroke: #888; stroke-width: 1; opacity: 1;"></line></g><g class="mark-text role-axis-label" style="pointer-events: none;"><text text-anchor="end" transform="translate(15.500000000000021,7) rotate(270) translate(0,3)" style="font-family: sans-serif; font-size: 10px; fill: #000; opacity: 1;">2021-01</text><text text-anchor="end" transform="translate(47.50000000000002,7) rotate(270) translate(0,3)" style="font-family: sans-serif; font-size: 10px; fill: #000; opacity: 1;">2021-02</text><text text-anchor="end" transform="translate(79.50000000000003,7) rotate(270) translate(0,3)" style="font-family: sans-serif; font-size: 10px; fill: #000; opacity: 1;">2021-03</text><text text-anchor="end" transform="translate(111.50000000000003,7) rotate(270) translate(0,3)" style="font-family: sans-serif; font-size: 10px; fill: #000; opacity: 1;">2021-04</text><text text-anchor="end" transform="translate(143.50000000000003,7) rotate(270) translate(0,3)" style="font-family: sans-serif; font-size: 10px; fill: #000; opacity: 1;">2021-05</text><text text-anchor="end" transform="translate(175.50000000000003,7) rotate(270) translate(0,3)" style="font-family: sans-serif; font-size: 10px; fill: #000; opacity: 1;">2021-06</text><text text-anchor="end" transform="translate(207.50000000000003,7) rotate(270) translate(0,3)" style="font-family: sans-serif; font-size: 10px; fill: #000; opacity: 1;">2021-07</text><text text-anchor="end" transform="translate(239.50000000000003,7) rotate(270) translate(0,3)" style="font-family: sans-serif; font-size: 10px; fill: #000; opacity: 1;">2021-08</text><text text-anchor="end" transform="translate(271.5,7) rotate(270) translate(0,3)" style="font-family: sans-serif; font-size: 10px; fill: #000; opacity: 1;">2021-09</text><text text-anchor="end" transform="translate(303.5,7) rotate(270) translate(0,3)" style="font-family: sans-serif; font-size: 10px; fill: #000; opacity: 1;">2021-10</text><text text-anchor="end" transform="translate(335.5,7) rotate(270) translate(0,3)" style="font-family: sans-serif; font-size: 10px; fill: #000; opacity: 1;">2021-11</text><text text-anchor="end" transform="translate(367.5,7) rotate(270) translate(0,3)" style="font-family: sans-serif; font-size: 10px; fill: #000; opacity: 1;">2021-12</text><text text-anchor="end" transform="translate(399.5,7) rotate(270) translate(0,3)" style="font-family: sans-serif; font-size: 10px; fill: #000; opacity: 1;">2022-01</text><text text-anchor="end" transform="translate(431.5,7) rotate(270) translate(0,3)" style="font-family: sans-serif; font-size: 10px; fill: #000; opacity: 1;">2022-02</text><text text-anchor="end" transform="translate(463.5,7) rotate(270) translate(0,3)" style="font-family: sans-serif; font-size: 10px; fill: #000; opacity: 1;">2022-03</text><text text-anchor="end" transform="translate(495.5,7) rotate(270) translate(0,3)" style="font-family: sans-serif; font-size: 10px; fill: #000; opacity: 1;">2022-04</text><text text-anchor="end" transform="translate(527.5,7) rotate(270) translate(0,3)" style="font-family: sans-serif; font-size: 10px; fill: #000; opacity: 1;">2022-05</text><text text-anchor="end" transform="translate(559.5,7) rotate(270) translate(0,3)" style="font-family: sans-serif; font-size: 10px; fill: #000; opacity: 1;">2022-06</text><text text-anchor="end" transform="translate(591.5,7) rotate(270) translate(0,3)" style="font-family: sans-serif; font-size: 10px; fill: #000; opacity: 1;">2022-07</text><text text-anchor="end" transform="translate(623.5,7) rotate(270) translate(0,3)" style="font-family: sans-serif; font-size: 10px; fill: #000; opacity: 1;">2022-08</text><text text-anchor="end" transform="translate(655.5,7) rotate(270) translate(0,3)" style="font-family: sans-serif; font-size: 10px; fill: #000; opacity: 1;">2022-09</text><text text-anchor="end" transform="translate(687.5,7) rotate(270) translate(0,3)" style="font-family: sans-serif; font-size: 10px; fill: #000; opacity: 1;">2022-10</text><text text-anchor="end" transform="translate(719.5,7) rotate(270) translate(0,3)" style="font-family: sans-serif; font-size: 10px; fill: #000; opacity: 1;">2022-11</text><text text-anchor="end" transform="translate(751.5,7) rotate(270) translate(0,3)" style="font-family: sans-serif; font-size: 10px; fill: #000; opacity: 1;">2022-12</text><text text-anchor="end" transform="translate(783.5,7) rotate(270) translate(0,3)" style="font-family: sans-serif; font-size: 10px; fill: #000; opacity: 1;">2023-01</text></g><g class="mark-rule role-axis-domain" style="pointer-events: none;"><line transform="translate(0,0)" x2="800" y2="0" style="fill: none; stroke: #888; stroke-width: 1; opacity: 1;"></line></g><g class="mark-text role-axis-title" style="pointer-events: none;"><text text-anchor="middle" transform="translate(400,76)" style="font-family: sans-serif; font-size: 11px; font-weight: bold; fill: #000; opacity: 1;">Date</text></g></g><path class="foreground" d="" style="pointer-events: none; display: none; fill: none;"></path></g></g><g class="mark-group role-axis"><g transform="translate(0.5,0.5)"><path class="background" d="M0,0h0v0h0Z" style="pointer-events: none; fill: none;"></path><g><g class="mark-rule role-axis-tick" style="pointer-events: none;"><line transform="translate(0,600)" x2="-5" y2="0" style="fill: none; stroke: #888; stroke-width: 1; opacity: 1;"></line><line transform="translate(0,545)" x2="-5" y2="0" style="fill: none; stroke: #888; stroke-width: 1; opacity: 1;"></line><line transform="translate(0,491)" x2="-5" y2="0" style="fill: none; stroke: #888; stroke-width: 1; opacity: 1;"></line><line transform="translate(0,436)" x2="-5" y2="0" style="fill: none; stroke: #888; stroke-width: 1; opacity: 1;"></line><line transform="translate(0,382)" x2="-5" y2="0" style="fill: none; stroke: #888; stroke-width: 1; opacity: 1;"></line><line transform="translate(0,327)" x2="-5" y2="0" style="fill: none; stroke: #888; stroke-width: 1; opacity: 1;"></line><line transform="translate(0,273)" x2="-5" y2="0" style="fill: none; stroke: #888; stroke-width: 1; opacity: 1;"></line><line transform="translate(0,218)" x2="-5" y2="0" style="fill: none; stroke: #888; stroke-width: 1; opacity: 1;"></line><line transform="translate(0,164)" x2="-5" y2="0" style="fill: none; stroke: #888; stroke-width: 1; opacity: 1;"></line><line transform="translate(0,109)" x2="-5" y2="0" style="fill: none; stroke: #888; stroke-width: 1; opacity: 1;"></line><line transform="translate(0,55)" x2="-5" y2="0" style="fill: none; stroke: #888; stroke-width: 1; opacity: 1;"></line><line transform="translate(0,0)" x2="-5" y2="0" style="fill: none; stroke: #888; stroke-width: 1; opacity: 1;"></line></g><g class="mark-text role-axis-label" style="pointer-events: none;"><text text-anchor="end" transform="translate(-7,603)" style="font-family: sans-serif; font-size: 10px; fill: #000; opacity: 1;">0.0</text><text text-anchor="end" transform="translate(-7,548.4545454545454)" style="font-family: sans-serif; font-size: 10px; fill: #000; opacity: 1;">0.1</text><text text-anchor="end" transform="translate(-7,493.9090909090909)" style="font-family: sans-serif; font-size: 10px; fill: #000; opacity: 1;">0.2</text><text text-anchor="end" transform="translate(-7,439.3636363636364)" style="font-family: sans-serif; font-size: 10px; fill: #000; opacity: 1;">0.3</text><text text-anchor="end" transform="translate(-7,384.8181818181818)" style="font-family: sans-serif; font-size: 10px; fill: #000; opacity: 1;">0.4</text><text text-anchor="end" transform="translate(-7,330.27272727272725)" style="font-family: sans-serif; font-size: 10px; fill: #000; opacity: 1;">0.5</text><text text-anchor="end" transform="translate(-7,275.72727272727275)" style="font-family: sans-serif; font-size: 10px; fill: #000; opacity: 1;">0.6</text><text text-anchor="end" transform="translate(-7,221.18181818181824)" style="font-family: sans-serif; font-size: 10px; fill: #000; opacity: 1;">0.7</text><text text-anchor="end" transform="translate(-7,166.63636363636363)" style="font-family: sans-serif; font-size: 10px; fill: #000; opacity: 1;">0.8</text><text text-anchor="end" transform="translate(-7,112.09090909090912)" style="font-family: sans-serif; font-size: 10px; fill: #000; opacity: 1;">0.9</text><text text-anchor="end" transform="translate(-7,57.54545454545456)" style="font-family: sans-serif; font-size: 10px; fill: #000; opacity: 1;">1.0</text><text text-anchor="end" transform="translate(-7,3)" style="font-family: sans-serif; font-size: 10px; fill: #000; opacity: 1;">1.1</text></g><g class="mark-rule role-axis-domain" style="pointer-events: none;"><line transform="translate(0,600)" x2="0" y2="-600" style="fill: none; stroke: #888; stroke-width: 1; opacity: 1;"></line></g><g class="mark-text role-axis-title" style="pointer-events: none;"><text text-anchor="middle" transform="translate(-35,300) rotate(-90) translate(0,-2)" style="font-family: sans-serif; font-size: 11px; font-weight: bold; fill: #000; opacity: 1;">Sum of Hours</text></g></g><path class="foreground" d="" style="pointer-events: none; display: none; fill: none;"></path></g></g><g class="mark-rect role-mark marks"><path d="M1.6000000000000227,54.54545454545456h28.8v82.7586206896552h-28.8Z" style="fill: #4c78a8;"></path><path d="M33.60000000000002,54.54545454545456h28.8v131.09637143971912h-28.8Z" style="fill: #4c78a8;"></path><path d="M65.60000000000002,54.54545454545463h28.8v93.8042848870874h-28.8Z" style="fill: #4c78a8;"></path><path d="M97.60000000000002,54.5454545454545h28.8v78.63915225878418h-28.8Z" style="fill: #4c78a8;"></path><path d="M129.60000000000002,54.54545454545456h28.8v108.40263837109265h-28.8Z" style="fill: #4c78a8;"></path><path d="M161.60000000000002,54.54545454545456h28.8v207.30213183043372h-28.8Z" style="fill: #4c78a8;"></path><path d="M193.60000000000002,54.54545454545456h28.8v129.94652406417117h-28.8Z" style="fill: #4c78a8;"></path><path d="M225.60000000000002,54.54545454545463h28.8v46.56319290465633h-28.8Z" style="fill: #4c78a8;"></path><path d="M257.6,54.54545454545456h28.8v86.42478597635551h-28.8Z" style="fill: #4c78a8;"></path><path d="M289.6,54.54545454545456h28.8v40.65499717673626h-28.8Z" style="fill: #4c78a8;"></path><path d="M321.6,54.54545454545456h28.8v25.174825174825187h-28.8Z" style="fill: #4c78a8;"></path><path d="M353.6,54.54545454545456h28.8v12.291933418693986h-28.8Z" style="fill: #4c78a8;"></path><path d="M385.6,54.54545454545463h28.8v10.982306284319705h-28.8Z" style="fill: #4c78a8;"></path><path d="M417.6,54.54545454545456h28.8v83.08248043347379h-28.8Z" style="fill: #4c78a8;"></path><path d="M449.6,54.54545454545456h28.8v101.66756320602474h-28.8Z" style="fill: #4c78a8;"></path><path d="M481.6,54.54545454545456h28.8v8.94187779433684h-28.8Z" style="fill: #4c78a8;"></path><path d="M513.6,54.54545454545463h28.8v15.528955030734437h-28.8Z" style="fill: #4c78a8;"></path><path d="M545.6,54.54545454545456h28.8v42.304230423042284h-28.8Z" style="fill: #4c78a8;"></path><path d="M577.6,54.54545454545456h28.8v3.6242826940502013h-28.8Z" style="fill: #4c78a8;"></path><path d="M609.6,54.54545454545456h28.8v9.872480460715735h-28.8Z" style="fill: #4c78a8;"></path><path d="M641.6,54.54545454545456h28.8v17.385005432814182h-28.8Z" style="fill: #4c78a8;"></path><path d="M673.6,54.54545454545456h28.8v19.342359767891693h-28.8Z" style="fill: #4c78a8;"></path><path d="M705.6,54.54545454545456h28.8v21.97802197802197h-28.8Z" style="fill: #4c78a8;"></path><path d="M1.6000000000000227,137.30407523510976h28.8v94.0438871473354h-28.8Z" style="fill: #f58518;"></path><path d="M33.60000000000002,185.64182598517368h28.8v81.9352321498244h-28.8Z" style="fill: #f58518;"></path><path d="M65.60000000000002,148.34973943254204h28.8v90.33005211349158h-28.8Z" style="fill: #f58518;"></path><path d="M97.60000000000002,133.18460680423868h28.8v160.62465142219742h-28.8Z" style="fill: #f58518;"></path><path d="M129.60000000000002,162.9480929165472h28.8v87.75451677659882h-28.8Z" style="fill: #f58518;"></path><path d="M161.60000000000002,261.8475863758883h28.8v35.285469247733374h-28.8Z" style="fill: #f58518;"></path><path d="M193.60000000000002,184.49197860962573h28.8v144.3850267379679h-28.8Z" style="fill: #f58518;"></path><path d="M225.60000000000002,101.10864745011096h28.8v33.259423503325934h-28.8Z" style="fill: #f58518;"></path><path d="M257.6,140.97024052181007h28.8v99.4700366897676h-28.8Z" style="fill: #f58518;"></path><path d="M289.6,95.20045172219082h28.8v191.41727837380014h-28.8Z" style="fill: #f58518;"></path><path d="M321.6,79.72027972027975h28.8v147.69230769230762h-28.8Z" style="fill: #f58518;"></path><path d="M353.6,66.83738796414855h28.8v251.98463508322658h-28.8Z" style="fill: #f58518;"></path><path d="M385.6,65.52776082977434h28.8v129.95729103111645h-28.8Z" style="fill: #f58518;"></path><path d="M417.6,137.62793497892835h28.8v144.4912703190849h-28.8Z" style="fill: #f58518;"></path><path d="M449.6,156.2130177514793h28.8v67.77837547068313h-28.8Z" style="fill: #f58518;"></path><path d="M481.6,63.4873323397914h28.8v255.7377049180327h-28.8Z" style="fill: #f58518;"></path><path d="M513.6,70.07440957618907h28.8v211.58201229375607h-28.8Z" style="fill: #f58518;"></path><path d="M545.6,96.84968496849685h28.8v86.4086408640864h-28.8Z" style="fill: #f58518;"></path><path d="M577.6,58.16973723950476h28.8v262.7604953186348h-28.8Z" style="fill: #f58518;"></path><path d="M609.6,64.4179350061703h28.8v78.97984368572605h-28.8Z" style="fill: #f58518;"></path><path d="M641.6,71.93045997826874h28.8v147.7725461789207h-28.8Z" style="fill: #f58518;"></path><path d="M673.6,73.88781431334625h28.8v162.4758220502901h-28.8Z" style="fill: #f58518;"></path><path d="M705.6,76.52347652347653h28.8v183.81618381618387h-28.8Z" style="fill: #f58518;"></path><path d="M737.6,54.54545454545456h28.8v263.7853949329359h-28.8Z" style="fill: #f58518;"></path><path d="M1.6000000000000227,231.34796238244516h28.8v220.06269592476488h-28.8Z" style="fill: #e45756;"></path><path d="M33.60000000000002,267.5770581349981h28.8v88.95825204838076h-28.8Z" style="fill: #e45756;"></path><path d="M65.60000000000002,238.6797915460336h28.8v43.427909669947866h-28.8Z" style="fill: #e45756;"></path><path d="M97.60000000000002,293.8092582264361h28.8v58.56107083100949h-28.8Z" style="fill: #e45756;"></path><path d="M129.60000000000002,250.70260969314603h28.8v67.10639518210496h-28.8Z" style="fill: #e45756;"></path><path d="M161.60000000000002,297.13305562362166h28.8v61.74957118353342h-28.8Z" style="fill: #e45756;"></path><path d="M193.60000000000002,328.87700534759364h28.8v104.27807486631008h-28.8Z" style="fill: #e45756;"></path><path d="M225.60000000000002,134.3680709534369h28.8v194.56762749445673h-28.8Z" style="fill: #e45756;"></path><path d="M257.6,240.44027721157767h28.8v126.37586628618021h-28.8Z" style="fill: #e45756;"></path><path d="M289.6,286.61773009599096h28.8v81.30999435347263h-28.8Z" style="fill: #e45756;"></path><path d="M321.6,227.41258741258738h28.8v85.59440559440557h-28.8Z" style="fill: #e45756;"></path><path d="M353.6,318.8220230473751h28.8v19.974391805377763h-28.8Z" style="fill: #e45756;"></path><path d="M385.6,195.4850518608908h28.8v58.572300183038465h-28.8Z" style="fill: #e45756;"></path><path d="M417.6,282.11920529801324h28.8v111.98073449729077h-28.8Z" style="fill: #e45756;"></path><path d="M449.6,223.99139322216243h28.8v150.08068854222702h-28.8Z" style="fill: #e45756;"></path><path d="M481.6,319.2250372578241h28.8v166.3189269746647h-28.8Z" style="fill: #e45756;"></path><path d="M513.6,281.6564218699451h28.8v131.99611776124226h-28.8Z" style="fill: #e45756;"></path><path d="M545.6,183.25832583258324h28.8v249.32493249324926h-28.8Z" style="fill: #e45756;"></path><path d="M577.6,320.93023255813955h28.8v202.95983086680758h-28.8Z" style="fill: #e45756;"></path><path d="M609.6,143.39777869189635h28.8v190.0452488687783h-28.8Z" style="fill: #e45756;"></path><path d="M641.6,219.70300615718944h28.8v230.3513219847881h-28.8Z" style="fill: #e45756;"></path><path d="M673.6,236.36363636363635h28.8v239.84526112185685h-28.8Z" style="fill: #e45756;"></path><path d="M705.6,260.3396603396604h28.8v253.74625374625367h-28.8Z" style="fill: #e45756;"></path><path d="M737.6,318.33084947839046h28.8v69.29955290611025h-28.8Z" style="fill: #e45756;"></path><path d="M769.6,54.54545454545456h28.8v545.4545454545455h-28.8Z" style="fill: #e45756;"></path><path d="M1.6000000000000227,451.41065830721004h28.8v15.047021943573668h-28.8Z" style="fill: #72b7b2;"></path><path d="M33.60000000000002,356.53531018337884h28.8v18.728053062817025h-28.8Z" style="fill: #72b7b2;"></path><path d="M65.60000000000002,282.1077012159815h28.8v31.26809496236251h-28.8Z" style="fill: #72b7b2;"></path><path d="M97.60000000000002,352.3703290574456h28.8v3.346346904629172h-28.8Z" style="fill: #72b7b2;"></path><path d="M129.60000000000002,317.809004875251h28.8v10.324060797246887h-28.8Z" style="fill: #72b7b2;"></path><path d="M161.60000000000002,358.8826268071551h28.8v39.69615290370007h-28.8Z" style="fill: #72b7b2;"></path><path d="M193.60000000000002,433.1550802139037h28.8v19.251336898395778h-28.8Z" style="fill: #72b7b2;"></path><path d="M225.60000000000002,328.9356984478936h28.8v21.61862527716187h-28.8Z" style="fill: #72b7b2;"></path><path d="M257.6,366.8161434977579h28.8v19.56787607011819h-28.8Z" style="fill: #72b7b2;"></path><path d="M289.6,367.9277244494636h28.8v1.6939582156973643h-28.8Z" style="fill: #72b7b2;"></path><path d="M321.6,313.00699300699296h28.8v20.139860139860218h-28.8Z" style="fill: #72b7b2;"></path><path d="M353.6,338.7964148527529h28.8v36.875800256082016h-28.8Z" style="fill: #72b7b2;"></path><path d="M385.6,254.05735204392926h28.8v21.96461256863944h-28.8Z" style="fill: #72b7b2;"></path><path d="M417.6,394.099939795304h28.8v50.57194461167978h-28.8Z" style="fill: #72b7b2;"></path><path d="M449.6,374.07208176438945h28.8v53.25443786982248h-28.8Z" style="fill: #72b7b2;"></path><path d="M481.6,485.5439642324888h28.8v3.576751117734716h-28.8Z" style="fill: #72b7b2;"></path><path d="M513.6,413.6525396311874h28.8v11.646716273050743h-28.8Z" style="fill: #72b7b2;"></path><path d="M545.6,432.5832583258325h28.8v28.80288028802886h-28.8Z" style="fill: #72b7b2;"></path><path d="M609.6,333.44302756067464h28.8v24.681201151789423h-28.8Z" style="fill: #72b7b2;"></path><path d="M641.6,450.0543281419775h28.8v17.385005432814182h-28.8Z" style="fill: #72b7b2;"></path><path d="M673.6,476.2088974854932h28.8v25.145067698259197h-28.8Z" style="fill: #72b7b2;"></path><path d="M705.6,514.085914085914h28.8v7.992007992007984h-28.8Z" style="fill: #72b7b2;"></path><path d="M737.6,387.6304023845007h28.8v53.65126676602085h-28.8Z" style="fill: #72b7b2;"></path><path d="M1.6000000000000227,466.4576802507837h28.8v24.451410658307168h-28.8Z" style="fill: #54a24b;"></path><path d="M33.60000000000002,375.26336324619587h28.8v14.046039797112769h-28.8Z" style="fill: #54a24b;"></path><path d="M65.60000000000002,313.375796178344h28.8v33.005211349160334h-28.8Z" style="fill: #54a24b;"></path><path d="M97.60000000000002,355.71667596207476h28.8v5.019520356943701h-28.8Z" style="fill: #54a24b;"></path><path d="M129.60000000000002,328.1330656724979h28.8v36.134212790364245h-28.8Z" style="fill: #54a24b;"></path><path d="M161.60000000000002,398.57877971085514h28.8v47.04729233031122h-28.8Z" style="fill: #54a24b;"></path><path d="M193.60000000000002,452.4064171122995h28.8v9.625668449197804h-28.8Z" style="fill: #54a24b;"></path><path d="M225.60000000000002,350.5543237250555h28.8v31.596452328159614h-28.8Z" style="fill: #54a24b;"></path><path d="M257.6,386.38401956787607h28.8v14.675907052588684h-28.8Z" style="fill: #54a24b;"></path><path d="M289.6,369.62168266516096h28.8v13.551665725578744h-28.8Z" style="fill: #54a24b;"></path><path d="M321.6,333.1468531468532h28.8v8.391608391608372h-28.8Z" style="fill: #54a24b;"></path><path d="M353.6,375.6722151088349h28.8v52.24071702944934h-28.8Z" style="fill: #54a24b;"></path><path d="M385.6,276.0219646125687h28.8v10.98230628431969h-28.8Z" style="fill: #54a24b;"></path><path d="M417.6,444.6718844069838h28.8v41.54124021673687h-28.8Z" style="fill: #54a24b;"></path><path d="M449.6,427.32651963421193h28.8v56.48197955890265h-28.8Z" style="fill: #54a24b;"></path><path d="M481.6,489.1207153502235h28.8v3.576751117734773h-28.8Z" style="fill: #54a24b;"></path><path d="M513.6,425.2992559042381h28.8v17.470074409576227h-28.8Z" style="fill: #54a24b;"></path><path d="M545.6,461.38613861386136h28.8v23.402340234023427h-28.8Z" style="fill: #54a24b;"></path><path d="M577.6,523.8900634249471h28.8v1.81214134702509h-28.8Z" style="fill: #54a24b;"></path><path d="M609.6,358.12422871246406h28.8v76.51172357054702h-28.8Z" style="fill: #54a24b;"></path><path d="M641.6,467.4393335747917h28.8v21.731256791017813h-28.8Z" style="fill: #54a24b;"></path><path d="M673.6,501.3539651837524h28.8v29.013539651837505h-28.8Z" style="fill: #54a24b;"></path><path d="M705.6,522.077922077922h28.8v19.980019980020074h-28.8Z" style="fill: #54a24b;"></path><path d="M737.6,441.28166915052157h28.8v69.2995529061103h-28.8Z" style="fill: #54a24b;"></path><path d="M1.6000000000000227,490.9090909090909h28.8v78.99686520376179h-28.8Z" style="fill: #eeca3b;"></path><path d="M33.60000000000002,389.30940304330863h28.8v175.57549746390941h-28.8Z" style="fill: #eeca3b;"></path><path d="M65.60000000000002,346.3810075275043h28.8v185.8714533873769h-28.8Z" style="fill: #eeca3b;"></path><path d="M97.60000000000002,360.73619631901846h28.8v113.7757947573898h-28.8Z" style="fill: #eeca3b;"></path><path d="M129.60000000000002,364.2672784628621h28.8v129.05075996558645h-28.8Z" style="fill: #eeca3b;"></path><path d="M161.60000000000002,445.62607204116637h28.8v70.57093849546686h-28.8Z" style="fill: #eeca3b;"></path><path d="M193.60000000000002,462.0320855614973h28.8v52.94117647058829h-28.8Z" style="fill: #eeca3b;"></path><path d="M225.60000000000002,382.1507760532151h28.8v154.65631929046555h-28.8Z" style="fill: #eeca3b;"></path><path d="M257.6,401.05992662046475h28.8v81.53281695882595h-28.8Z" style="fill: #eeca3b;"></path><path d="M289.6,383.1733483907397h28.8v164.31394692264251h-28.8Z" style="fill: #eeca3b;"></path><path d="M321.6,341.53846153846155h28.8v189.65034965034965h-28.8Z" style="fill: #eeca3b;"></path><path d="M353.6,427.91293213828425h28.8v155.1856594110115h-28.8Z" style="fill: #eeca3b;"></path><path d="M385.6,287.0042708968884h28.8v256.2538133007932h-28.8Z" style="fill: #eeca3b;"></path><path d="M417.6,486.21312462372066h28.8v45.153521974713954h-28.8Z" style="fill: #eeca3b;"></path><path d="M449.6,483.8084991931146h28.8v61.323292092522934h-28.8Z" style="fill: #eeca3b;"></path><path d="M481.6,492.6974664679583h28.8v75.11177347242926h-28.8Z" style="fill: #eeca3b;"></path><path d="M513.6,442.76933031381435h28.8v104.82044645745708h-28.8Z" style="fill: #eeca3b;"></path><path d="M545.6,484.7884788478848h28.8v66.60666066606655h-28.8Z" style="fill: #eeca3b;"></path><path d="M577.6,525.7022047719722h28.8v16.309272123225583h-28.8Z" style="fill: #eeca3b;"></path><path d="M609.6,434.6359522830111h28.8v22.213081036610504h-28.8Z" style="fill: #eeca3b;"></path><path d="M641.6,489.1705903658095h28.8v43.46251358203551h-28.8Z" style="fill: #eeca3b;"></path><path d="M673.6,530.3675048355899h28.8v15.473887814313457h-28.8Z" style="fill: #eeca3b;"></path><path d="M705.6,542.0579420579421h28.8v5.994005994005988h-28.8Z" style="fill: #eeca3b;"></path><path d="M737.6,510.5812220566319h28.8v15.648286140089454h-28.8Z" style="fill: #eeca3b;"></path><path d="M1.6000000000000227,569.9059561128527h28.8v30.094043887147336h-28.8Z" style="fill: #b279a2;"></path><path d="M33.60000000000002,564.884900507218h28.8v35.11509949278195h-28.8Z" style="fill: #b279a2;"></path><path d="M65.60000000000002,532.2524609148812h28.8v43.427909669947894h-28.8Z" style="fill: #b279a2;"></path><path d="M97.60000000000002,474.51199107640826h28.8v110.4294478527608h-28.8Z" style="fill: #b279a2;"></path><path d="M129.60000000000002,493.3180384284486h28.8v80.87180957843412h-28.8Z" style="fill: #b279a2;"></path><path d="M161.60000000000002,516.1970105366332h28.8v19.112962509188833h-28.8Z" style="fill: #b279a2;"></path><path d="M193.60000000000002,514.9732620320856h28.8v57.75401069518716h-28.8Z" style="fill: #b279a2;"></path><path d="M225.60000000000002,536.8070953436807h28.8v58.20399113082044h-28.8Z" style="fill: #b279a2;"></path><path d="M257.6,482.5927435792907h28.8v110.88463106400326h-28.8Z" style="fill: #b279a2;"></path><path d="M289.6,547.4872953133822h28.8v52.51270468661778h-28.8Z" style="fill: #b279a2;"></path><path d="M321.6,531.1888111888112h28.8v58.74125874125866h-28.8Z" style="fill: #b279a2;"></path><path d="M353.6,583.0985915492957h28.8v16.901408450704253h-28.8Z" style="fill: #b279a2;"></path><path d="M385.6,543.2580841976816h28.8v29.286150091519175h-28.8Z" style="fill: #b279a2;"></path><path d="M417.6,531.3666465984346h28.8v45.15352197471407h-28.8Z" style="fill: #b279a2;"></path><path d="M449.6,545.1317912856375h28.8v30.661646046261353h-28.8Z" style="fill: #b279a2;"></path><path d="M481.6,567.8092399403876h28.8v28.614008941877728h-28.8Z" style="fill: #b279a2;"></path><path d="M513.6,547.5897767712714h28.8v50.46910384988678h-28.8Z" style="fill: #b279a2;"></path><path d="M545.6,551.3951395139513h28.8v48.604860486048665h-28.8Z" style="fill: #b279a2;"></path><path d="M577.6,542.0114768951978h28.8v57.9885231048022h-28.8Z" style="fill: #b279a2;"></path><path d="M609.6,456.8490333196216h28.8v88.85232414644173h-28.8Z" style="fill: #b279a2;"></path><path d="M641.6,532.633103947845h28.8v67.36689605215497h-28.8Z" style="fill: #b279a2;"></path><path d="M673.6,545.8413926499034h28.8v36.75048355899412h-28.8Z" style="fill: #b279a2;"></path><path d="M705.6,548.0519480519481h28.8v51.9480519480519h-28.8Z" style="fill: #b279a2;"></path><path d="M737.6,526.2295081967213h28.8v73.77049180327867h-28.8Z" style="fill: #b279a2;"></path><path d="M65.60000000000002,575.6803705848291h28.8v24.31962941517088h-28.8Z" style="fill: #ff9da6;"></path><path d="M97.60000000000002,584.9414389291691h28.8v15.058561070830933h-28.8Z" style="fill: #ff9da6;"></path><path d="M129.60000000000002,574.1898480068827h28.8v25.8101519931173h-28.8Z" style="fill: #ff9da6;"></path><path d="M161.60000000000002,535.3099730458221h28.8v64.69002695417794h-28.8Z" style="fill: #ff9da6;"></path><path d="M193.60000000000002,572.7272727272727h28.8v27.272727272727252h-28.8Z" style="fill: #ff9da6;"></path><path d="M225.60000000000002,595.0110864745011h28.8v4.988913525498901h-28.8Z" style="fill: #ff9da6;"></path><path d="M257.6,593.477374643294h28.8v6.522625356706044h-28.8Z" style="fill: #ff9da6;"></path><path d="M321.6,589.9300699300699h28.8v10.069930069930138h-28.8Z" style="fill: #ff9da6;"></path><path d="M385.6,572.5442342892007h28.8v27.455765710799255h-28.8Z" style="fill: #ff9da6;"></path><path d="M417.6,576.5201685731487h28.8v23.47983142685132h-28.8Z" style="fill: #ff9da6;"></path><path d="M449.6,575.7934373318989h28.8v24.206562668101128h-28.8Z" style="fill: #ff9da6;"></path><path d="M481.6,596.4232488822653h28.8v3.576751117734716h-28.8Z" style="fill: #ff9da6;"></path><path d="M513.6,598.0588806211582h28.8v1.9411193788417904h-28.8Z" style="fill: #ff9da6;"></path><path d="M609.6,545.7013574660633h28.8v54.298642533936686h-28.8Z" style="fill: #ff9da6;"></path><path d="M673.6,582.5918762088975h28.8v17.408123791102526h-28.8Z" style="fill: #ff9da6;"></path></g><g class="mark-group role-legend"><g transform="translate(818,0)"><path class="background" d="M0,0h64v118h-64Z" style="pointer-events: none; fill: none;"></path><g><g class="mark-group role-legend-entry"><g transform="translate(0,16)"><path class="background" d="M0,0h0v0h0Z" style="pointer-events: none; fill: none;"></path><g><g class="mark-group role-scope"><g transform="translate(0,0)"><path class="background" d="M0,0h64v11h-64Z" style="pointer-events: none; fill: none; opacity: 1;"></path><g><g class="mark-symbol role-legend-symbol" style="pointer-events: none;"><path transform="translate(6,6)" d="M-5,-5h10v10h-10Z" style="fill: #4c78a8; stroke-width: 1.5; opacity: 1;"></path></g><g class="mark-text role-legend-label" style="pointer-events: none;"><text text-anchor="start" transform="translate(16,9)" style="font-family: sans-serif; font-size: 10px; fill: #000; opacity: 1;">APOLLO</text></g></g><path class="foreground" d="" style="pointer-events: none; display: none; fill: none;"></path></g><g transform="translate(0,13)"><path class="background" d="M0,0h64v11h-64Z" style="pointer-events: none; fill: none; opacity: 1;"></path><g><g class="mark-symbol role-legend-symbol" style="pointer-events: none;"><path transform="translate(6,6)" d="M-5,-5h10v10h-10Z" style="fill: #f58518; stroke-width: 1.5; opacity: 1;"></path></g><g class="mark-text role-legend-label" style="pointer-events: none;"><text text-anchor="start" transform="translate(16,9)" style="font-family: sans-serif; font-size: 10px; fill: #000; opacity: 1;">ETC</text></g></g><path class="foreground" d="" style="pointer-events: none; display: none; fill: none;"></path></g><g transform="translate(0,26)"><path class="background" d="M0,0h64v11h-64Z" style="pointer-events: none; fill: none; opacity: 1;"></path><g><g class="mark-symbol role-legend-symbol" style="pointer-events: none;"><path transform="translate(6,6)" d="M-5,-5h10v10h-10Z" style="fill: #e45756; stroke-width: 1.5; opacity: 1;"></path></g><g class="mark-text role-legend-label" style="pointer-events: none;"><text text-anchor="start" transform="translate(16,9)" style="font-family: sans-serif; font-size: 10px; fill: #000; opacity: 1;">ETL</text></g></g><path class="foreground" d="" style="pointer-events: none; display: none; fill: none;"></path></g><g transform="translate(0,39)"><path class="background" d="M0,0h64v11h-64Z" style="pointer-events: none; fill: none; opacity: 1;"></path><g><g class="mark-symbol role-legend-symbol" style="pointer-events: none;"><path transform="translate(6,6)" d="M-5,-5h10v10h-10Z" style="fill: #72b7b2; stroke-width: 1.5; opacity: 1;"></path></g><g class="mark-text role-legend-label" style="pointer-events: none;"><text text-anchor="start" transform="translate(16,9)" style="font-family: sans-serif; font-size: 10px; fill: #000; opacity: 1;">GE11</text></g></g><path class="foreground" d="" style="pointer-events: none; display: none; fill: none;"></path></g><g transform="translate(0,52)"><path class="background" d="M0,0h64v11h-64Z" style="pointer-events: none; fill: none; opacity: 1;"></path><g><g class="mark-symbol role-legend-symbol" style="pointer-events: none;"><path transform="translate(6,6)" d="M-5,-5h10v10h-10Z" style="fill: #54a24b; stroke-width: 1.5; opacity: 1;"></path></g><g class="mark-text role-legend-label" style="pointer-events: none;"><text text-anchor="start" transform="translate(16,9)" style="font-family: sans-serif; font-size: 10px; fill: #000; opacity: 1;">GE21</text></g></g><path class="foreground" d="" style="pointer-events: none; display: none; fill: none;"></path></g><g transform="translate(0,65)"><path class="background" d="M0,0h64v11h-64Z" style="pointer-events: none; fill: none; opacity: 1;"></path><g><g class="mark-symbol role-legend-symbol" style="pointer-events: none;"><path transform="translate(6,6)" d="M-5,-5h10v10h-10Z" style="fill: #eeca3b; stroke-width: 1.5; opacity: 1;"></path></g><g class="mark-text role-legend-label" style="pointer-events: none;"><text text-anchor="start" transform="translate(16,9)" style="font-family: sans-serif; font-size: 10px; fill: #000; opacity: 1;">L0MDT</text></g></g><path class="foreground" d="" style="pointer-events: none; display: none; fill: none;"></path></g><g transform="translate(0,78)"><path class="background" d="M0,0h64v11h-64Z" style="pointer-events: none; fill: none; opacity: 1;"></path><g><g class="mark-symbol role-legend-symbol" style="pointer-events: none;"><path transform="translate(6,6)" d="M-5,-5h10v10h-10Z" style="fill: #b279a2; stroke-width: 1.5; opacity: 1;"></path></g><g class="mark-text role-legend-label" style="pointer-events: none;"><text text-anchor="start" transform="translate(16,9)" style="font-family: sans-serif; font-size: 10px; fill: #000; opacity: 1;">ME0</text></g></g><path class="foreground" d="" style="pointer-events: none; display: none; fill: none;"></path></g><g transform="translate(0,91)"><path class="background" d="M0,0h64v11h-64Z" style="pointer-events: none; fill: none; opacity: 1;"></path><g><g class="mark-symbol role-legend-symbol" style="pointer-events: none;"><path transform="translate(6,6)" d="M-5,-5h10v10h-10Z" style="fill: #ff9da6; stroke-width: 1.5; opacity: 1;"></path></g><g class="mark-text role-legend-label" style="pointer-events: none;"><text text-anchor="start" transform="translate(16,9)" style="font-family: sans-serif; font-size: 10px; fill: #000; opacity: 1;">OTHER</text></g></g><path class="foreground" d="" style="pointer-events: none; display: none; fill: none;"></path></g></g></g><path class="foreground" d="" style="pointer-events: none; display: none; fill: none;"></path></g></g><g class="mark-text role-legend-title" style="pointer-events: none;"><text text-anchor="start" transform="translate(0,9)" style="font-family: sans-serif; font-size: 11px; font-weight: bold; fill: #000; opacity: 1;">Project</text></g></g><path class="foreground" d="" style="pointer-events: none; display: none; fill: none;"></path></g></g></g><path class="foreground" d="" style="display: none; fill: none;"></path></g></g></g></svg>