<svg class="marks" width="810" height="627" viewBox="0 0 810 627" version="1.1" xmlns="http://www.w3.org/2000/svg" xmlns:xlink="http://www.w3.org/1999/xlink"><rect width="810" height="627" style="fill: white;"></rect><g transform="translate(5,22)"><g class="mark-group role-frame root"><g transform="translate(0,0)"><path class="background" d="M0.5,0.5h800v600h-800Z" style="fill: none; stroke: none;"></path><g><g class="mark-arc role-mark layer_0_marks"><path transform="translate(400,300)" d="M61.842125280862064,218.06725870364852A226.6666666666667,226.6666666666667,0,0,0,191.37657660883042,-121.46103779921472L0,0Z" style="fill: #72b7b2;"></path><path transform="translate(400,300)" d="M-212.8782190317906,77.85012292624069A226.6666666666667,226.6666666666667,0,0,0,61.842125280862064,218.06725870364852L0,0Z" style="fill: #54a24b;"></path><path transform="translate(400,300)" d="M-147.8373920491034,-171.81933328324112A226.6666666666667,226.6666666666667,0,0,0,-212.8782190317906,77.85012292624069L0,0Z" style="fill: #eeca3b;"></path><path transform="translate(400,300)" d="M152.8521952116229,-167.3737858709234A226.6666666666667,226.6666666666667,0,0,0,1.3879330390336672e-14,-226.6666666666667L0,0Z" style="fill: #4c78a8;"></path><path transform="translate(400,300)" d="M-4.1637991171010013e-14,-226.6666666666667A226.6666666666667,226.6666666666667,0,0,0,-107.6546441393582,-199.46993601293892L0,0Z" style="fill: #9d755d;"></path><path transform="translate(400,300)" d="M191.37657660883042,-121.46103779921472A226.6666666666667,226.6666666666667,0,0,0,153.00440016435252,-167.23465941043585L0,0Z" style="fill: #e45756;"></path><path transform="translate(400,300)" d="M-108.01740111102697,-199.27372841144242A226.6666666666667,226.6666666666667,0,0,0,-147.8373920491034,-171.81933328324112L0,0Z" style="fill: #b279a2;"></path><path transform="translate(400,300)" d="M-107.6546441393582,-199.46993601293892A226.6666666666667,226.6666666666667,0,0,0,-108.01740111102697,-199.27372841144242L0,0Z" style="fill: #ff9da6;"></path><path transform="translate(400,300)" d="M153.00440016435252,-167.23465941043585A226.6666666666667,226.6666666666667,0,0,0,152.8521952116229,-167.3737858709234L0,0Z" style="fill: #f58518;"></path></g><g class="mark-text role-mark layer_1_marks"><text text-anchor="middle" transform="translate(649.1502340745237,401.0540476346017)" style="font-family: sans-serif; font-size: 20px; fill: #72b7b2;">ETL</text><text text-anchor="middle" transform="translate(278.7710753433343,543.5177023670017)" style="font-family: sans-serif; font-size: 20px; fill: #54a24b;">GEM</text><text text-anchor="middle" transform="translate(141.94593694209658,238.77491799619196)" style="font-family: sans-serif; font-size: 20px; fill: #eeca3b;">L0MDT</text><text text-anchor="middle" transform="translate(496.4408836873196,57.383292868882194)" style="font-family: sans-serif; font-size: 20px; fill: #4c78a8;">APOLLO</text><text text-anchor="middle" transform="translate(334.68419924676925,47.45608248679417)" style="font-family: sans-serif; font-size: 20px; fill: #9d755d;">VAC/SICK/HOL</text><text text-anchor="middle" transform="translate(604.358631773064,134.68549176747354)" style="font-family: sans-serif; font-size: 20px; fill: #e45756;">EDF</text><text text-anchor="middle" transform="translate(248.63319489793764,86.45683471283971)" style="font-family: sans-serif; font-size: 20px; fill: #b279a2;">OTHER PRJ</text><text text-anchor="middle" transform="translate(273.1340385292466,71.44480621565327)" style="font-family: sans-serif; font-size: 20px; fill: #ff9da6;">ROBLYER-DDOSI</text><text text-anchor="middle" transform="translate(579.9156629520793,109.17148241267247)" style="font-family: sans-serif; font-size: 20px; fill: #f58518;">CMS-PIXEL-DTC</text></g><g class="mark-group role-title"><g transform="translate(400,-17)"><path class="background" d="M0,0h0v0h0Z" style="pointer-events: none; fill: none;"></path><g><g class="mark-text role-title-text" style="pointer-events: none;"><text text-anchor="middle" transform="translate(0,10)" style="font-family: sans-serif; font-size: 13px; font-weight: bold; fill: #000; opacity: 1;">EDF Work</text></g></g><path class="foreground" d="" style="pointer-events: none; display: none; fill: none;"></path></g></g></g><path class="foreground" d="" style="display: none; fill: none;"></path></g></g></g></svg>