<svg class="marks" width="950" height="917" viewBox="0 0 950 917" version="1.1" xmlns="http://www.w3.org/2000/svg" xmlns:xlink="http://www.w3.org/1999/xlink"><rect width="950" height="917" style="fill: white;"></rect><g transform="translate(77,158)"><g class="mark-group role-frame root"><g transform="translate(0,0)"><path class="background" d="M0.5,0.5h800v600h-800Z" style="fill: none; stroke: #ddd;"></path><g><g class="mark-arc role-mark layer_0_marks"><path transform="translate(400,300)" d="M258.1810958549193,-311.3162867328471A404.44444444444446,404.44444444444446,0,0,0,2.476507971609092e-14,-404.44444444444446L0,0Z" style="fill: #4c78a8;"></path><path transform="translate(400,300)" d="M297.5345081045737,273.9498587861375A404.44444444444446,404.44444444444446,0,0,0,258.1810958549193,-311.3162867328471L0,0Z" style="fill: #f58518;"></path><path transform="translate(400,300)" d="M-254.05250250967097,314.6945099784058A404.44444444444446,404.44444444444446,0,0,0,297.5345081045737,273.9498587861375L0,0Z" style="fill: #e45756;"></path><path transform="translate(400,300)" d="M-326.0833775864286,239.25914716850838A404.44444444444446,404.44444444444446,0,0,0,-254.05250250967097,314.6945099784058L0,0Z" style="fill: #72b7b2;"></path><path transform="translate(400,300)" d="M-383.8141651859805,127.52252838053425A404.44444444444446,404.44444444444446,0,0,0,-326.0833775864286,239.25914716850838L0,0Z" style="fill: #54a24b;"></path><path transform="translate(400,300)" d="M-282.2354840456537,-289.6867967089471A404.44444444444446,404.44444444444446,0,0,0,-383.8141651859805,127.52252838053425L0,0Z" style="fill: #eeca3b;"></path><path transform="translate(400,300)" d="M-65.82015139962071,-399.05264854616155A404.44444444444446,404.44444444444446,0,0,0,-282.2354840456537,-289.6867967089471L0,0Z" style="fill: #b279a2;"></path><path transform="translate(400,300)" d="M-7.429523914827276e-14,-404.44444444444446A404.44444444444446,404.44444444444446,0,0,0,-65.82015139962071,-399.05264854616155L0,0Z" style="fill: #ff9da6;"></path></g><g class="mark-text role-mark layer_1_marks"><text text-anchor="middle" transform="translate(550.8042401761003,-112.07767859865464)" style="font-family: sans-serif; font-size: 20px; fill: #4c78a8;">APOLLO</text><text text-anchor="middle" transform="translate(843.4431176232385,276.1827964068815)" style="font-family: sans-serif; font-size: 20px; fill: #f58518;">ETC</text><text text-anchor="middle" transform="translate(432.7410358586154,749.2368314664698)" style="font-family: sans-serif; font-size: 20px; fill: #e45756;">ETL</text><text text-anchor="middle" transform="translate(78.56056497313102,612.9324906345663)" style="font-family: sans-serif; font-size: 20px; fill: #72b7b2;">GE11</text><text text-anchor="middle" transform="translate(5.144331384620045,510.0094732110059)" style="font-family: sans-serif; font-size: 20px; fill: #54a24b;">GE21</text><text text-anchor="middle" transform="translate(-31.829597371793568,200.86169569920997)" style="font-family: sans-serif; font-size: 20px; fill: #eeca3b;">L0MDT</text><text text-anchor="middle" transform="translate(199.54193342515518,-90.67042710870942)" style="font-family: sans-serif; font-size: 20px; fill: #b279a2;">ME0</text><text text-anchor="middle" transform="translate(363.7139437932618,-136.96070516750393)" style="font-family: sans-serif; font-size: 20px; fill: #ff9da6;">OTHER</text></g></g><path class="foreground" d="" style="display: none; fill: none;"></path></g></g></g></svg>