<svg class="marks" width="952" height="653" viewBox="0 0 952 653" version="1.1" xmlns="http://www.w3.org/2000/svg" xmlns:xlink="http://www.w3.org/1999/xlink"><rect width="952" height="653" style="fill: white;"></rect><g transform="translate(67,10)"><g class="mark-group role-frame root"><g transform="translate(0,0)"><path class="background" d="M0.5,0.5h800v600h-800Z" style="fill: none; stroke: #ddd;"></path><g><g class="mark-group role-axis"><g transform="translate(0.5,0.5)"><path class="background" d="M0,0h0v0h0Z" style="pointer-events: none; fill: none;"></path><g><g class="mark-rule role-axis-grid" style="pointer-events: none;"><line transform="translate(0,600)" x2="800" y2="0" style="fill: none; stroke: #ddd; stroke-width: 1; opacity: 1;"></line><line transform="translate(0,567)" x2="800" y2="0" style="fill: none; stroke: #ddd; stroke-width: 1; opacity: 1;"></line><line transform="translate(0,533)" x2="800" y2="0" style="fill: none; stroke: #ddd; stroke-width: 1; opacity: 1;"></line><line transform="translate(0,500)" x2="800" y2="0" style="fill: none; stroke: #ddd; stroke-width: 1; opacity: 1;"></line><line transform="translate(0,467)" x2="800" y2="0" style="fill: none; stroke: #ddd; stroke-width: 1; opacity: 1;"></line><line transform="translate(0,433)" x2="800" y2="0" style="fill: none; stroke: #ddd; stroke-width: 1; opacity: 1;"></line><line transform="translate(0,400)" x2="800" y2="0" style="fill: none; stroke: #ddd; stroke-width: 1; opacity: 1;"></line><line transform="translate(0,367)" x2="800" y2="0" style="fill: none; stroke: #ddd; stroke-width: 1; opacity: 1;"></line><line transform="translate(0,333)" x2="800" y2="0" style="fill: none; stroke: #ddd; stroke-width: 1; opacity: 1;"></line><line transform="translate(0,300)" x2="800" y2="0" style="fill: none; stroke: #ddd; stroke-width: 1; opacity: 1;"></line><line transform="translate(0,267)" x2="800" y2="0" style="fill: none; stroke: #ddd; stroke-width: 1; opacity: 1;"></line><line transform="translate(0,233)" x2="800" y2="0" style="fill: none; stroke: #ddd; stroke-width: 1; opacity: 1;"></line><line transform="translate(0,200)" x2="800" y2="0" style="fill: none; stroke: #ddd; stroke-width: 1; opacity: 1;"></line><line transform="translate(0,167)" x2="800" y2="0" style="fill: none; stroke: #ddd; stroke-width: 1; opacity: 1;"></line><line transform="translate(0,133)" x2="800" y2="0" style="fill: none; stroke: #ddd; stroke-width: 1; opacity: 1;"></line><line transform="translate(0,100)" x2="800" y2="0" style="fill: none; stroke: #ddd; stroke-width: 1; opacity: 1;"></line><line transform="translate(0,67)" x2="800" y2="0" style="fill: none; stroke: #ddd; stroke-width: 1; opacity: 1;"></line><line transform="translate(0,33)" x2="800" y2="0" style="fill: none; stroke: #ddd; stroke-width: 1; opacity: 1;"></line><line transform="translate(0,0)" x2="800" y2="0" style="fill: none; stroke: #ddd; stroke-width: 1; opacity: 1;"></line></g></g><path class="foreground" d="" style="pointer-events: none; display: none; fill: none;"></path></g></g><g class="mark-group role-axis"><g transform="translate(0.5,600.5)"><path class="background" d="M0,0h0v0h0Z" style="pointer-events: none; fill: none;"></path><g><g class="mark-rule role-axis-tick" style="pointer-events: none;"><line transform="translate(9,0)" x2="0" y2="5" style="fill: none; stroke: #888; stroke-width: 1; opacity: 1;"></line><line transform="translate(76,0)" x2="0" y2="5" style="fill: none; stroke: #888; stroke-width: 1; opacity: 1;"></line><line transform="translate(145,0)" x2="0" y2="5" style="fill: none; stroke: #888; stroke-width: 1; opacity: 1;"></line><line transform="translate(222,0)" x2="0" y2="5" style="fill: none; stroke: #888; stroke-width: 1; opacity: 1;"></line><line transform="translate(294,0)" x2="0" y2="5" style="fill: none; stroke: #888; stroke-width: 1; opacity: 1;"></line><line transform="translate(357,0)" x2="0" y2="5" style="fill: none; stroke: #888; stroke-width: 1; opacity: 1;"></line><line transform="translate(421,0)" x2="0" y2="5" style="fill: none; stroke: #888; stroke-width: 1; opacity: 1;"></line><line transform="translate(488,0)" x2="0" y2="5" style="fill: none; stroke: #888; stroke-width: 1; opacity: 1;"></line><line transform="translate(553,0)" x2="0" y2="5" style="fill: none; stroke: #888; stroke-width: 1; opacity: 1;"></line><line transform="translate(617,0)" x2="0" y2="5" style="fill: none; stroke: #888; stroke-width: 1; opacity: 1;"></line><line transform="translate(670,0)" x2="0" y2="5" style="fill: none; stroke: #888; stroke-width: 1; opacity: 1;"></line><line transform="translate(734,0)" x2="0" y2="5" style="fill: none; stroke: #888; stroke-width: 1; opacity: 1;"></line></g><g class="mark-text role-axis-label" style="pointer-events: none;"><text text-anchor="end" transform="translate(8.695652173913095,7) rotate(270) translate(0,3)" style="font-family: sans-serif; font-size: 10px; fill: #000; opacity: 1;">1</text><text text-anchor="end" transform="translate(75.77639751552799,7) rotate(270) translate(0,3)" style="font-family: sans-serif; font-size: 10px; fill: #000; opacity: 1;">2</text><text text-anchor="end" transform="translate(145.34161490683235,7) rotate(270) translate(0,3)" style="font-family: sans-serif; font-size: 10px; fill: #000; opacity: 1;">3</text><text text-anchor="end" transform="translate(222.360248447205,7) rotate(270) translate(0,3)" style="font-family: sans-serif; font-size: 10px; fill: #000; opacity: 1;">4</text><text text-anchor="end" transform="translate(294.4099378881988,7) rotate(270) translate(0,3)" style="font-family: sans-serif; font-size: 10px; fill: #000; opacity: 1;">5</text><text text-anchor="end" transform="translate(356.5217391304348,7) rotate(270) translate(0,3)" style="font-family: sans-serif; font-size: 10px; fill: #000; opacity: 1;">6</text><text text-anchor="end" transform="translate(421.11801242236027,7) rotate(270) translate(0,3)" style="font-family: sans-serif; font-size: 10px; fill: #000; opacity: 1;">7</text><text text-anchor="end" transform="translate(488.19875776397515,7) rotate(270) translate(0,3)" style="font-family: sans-serif; font-size: 10px; fill: #000; opacity: 1;">8</text><text text-anchor="end" transform="translate(552.7950310559006,7) rotate(270) translate(0,3)" style="font-family: sans-serif; font-size: 10px; fill: #000; opacity: 1;">9</text><text text-anchor="end" transform="translate(617.391304347826,7) rotate(270) translate(0,3)" style="font-family: sans-serif; font-size: 10px; fill: #000; opacity: 1;">10</text><text text-anchor="end" transform="translate(669.5652173913043,7) rotate(270) translate(0,3)" style="font-family: sans-serif; font-size: 10px; fill: #000; opacity: 1;">11</text><text text-anchor="end" transform="translate(734.1614906832299,7) rotate(270) translate(0,3)" style="font-family: sans-serif; font-size: 10px; fill: #000; opacity: 1;">12</text></g><g class="mark-rule role-axis-domain" style="pointer-events: none;"><line transform="translate(0,0)" x2="800" y2="0" style="fill: none; stroke: #888; stroke-width: 1; opacity: 1;"></line></g><g class="mark-text role-axis-title" style="pointer-events: none;"><text text-anchor="middle" transform="translate(400,36)" style="font-family: sans-serif; font-size: 11px; font-weight: bold; fill: #000; opacity: 1;">Date</text></g></g><path class="foreground" d="" style="pointer-events: none; display: none; fill: none;"></path></g></g><g class="mark-group role-axis"><g transform="translate(0.5,0.5)"><path class="background" d="M0,0h0v0h0Z" style="pointer-events: none; fill: none;"></path><g><g class="mark-rule role-axis-tick" style="pointer-events: none;"><line transform="translate(0,600)" x2="-5" y2="0" style="fill: none; stroke: #888; stroke-width: 1; opacity: 1;"></line><line transform="translate(0,567)" x2="-5" y2="0" style="fill: none; stroke: #888; stroke-width: 1; opacity: 1;"></line><line transform="translate(0,533)" x2="-5" y2="0" style="fill: none; stroke: #888; stroke-width: 1; opacity: 1;"></line><line transform="translate(0,500)" x2="-5" y2="0" style="fill: none; stroke: #888; stroke-width: 1; opacity: 1;"></line><line transform="translate(0,467)" x2="-5" y2="0" style="fill: none; stroke: #888; stroke-width: 1; opacity: 1;"></line><line transform="translate(0,433)" x2="-5" y2="0" style="fill: none; stroke: #888; stroke-width: 1; opacity: 1;"></line><line transform="translate(0,400)" x2="-5" y2="0" style="fill: none; stroke: #888; stroke-width: 1; opacity: 1;"></line><line transform="translate(0,367)" x2="-5" y2="0" style="fill: none; stroke: #888; stroke-width: 1; opacity: 1;"></line><line transform="translate(0,333)" x2="-5" y2="0" style="fill: none; stroke: #888; stroke-width: 1; opacity: 1;"></line><line transform="translate(0,300)" x2="-5" y2="0" style="fill: none; stroke: #888; stroke-width: 1; opacity: 1;"></line><line transform="translate(0,267)" x2="-5" y2="0" style="fill: none; stroke: #888; stroke-width: 1; opacity: 1;"></line><line transform="translate(0,233)" x2="-5" y2="0" style="fill: none; stroke: #888; stroke-width: 1; opacity: 1;"></line><line transform="translate(0,200)" x2="-5" y2="0" style="fill: none; stroke: #888; stroke-width: 1; opacity: 1;"></line><line transform="translate(0,167)" x2="-5" y2="0" style="fill: none; stroke: #888; stroke-width: 1; opacity: 1;"></line><line transform="translate(0,133)" x2="-5" y2="0" style="fill: none; stroke: #888; stroke-width: 1; opacity: 1;"></line><line transform="translate(0,100)" x2="-5" y2="0" style="fill: none; stroke: #888; stroke-width: 1; opacity: 1;"></line><line transform="translate(0,67)" x2="-5" y2="0" style="fill: none; stroke: #888; stroke-width: 1; opacity: 1;"></line><line transform="translate(0,33)" x2="-5" y2="0" style="fill: none; stroke: #888; stroke-width: 1; opacity: 1;"></line><line transform="translate(0,0)" x2="-5" y2="0" style="fill: none; stroke: #888; stroke-width: 1; opacity: 1;"></line></g><g class="mark-text role-axis-label" style="pointer-events: none;"><text text-anchor="end" transform="translate(-7,603)" style="font-family: sans-serif; font-size: 10px; fill: #000; opacity: 1;">0</text><text text-anchor="end" transform="translate(-7,569.6666666666666)" style="font-family: sans-serif; font-size: 10px; fill: #000; opacity: 1;">100</text><text text-anchor="end" transform="translate(-7,536.3333333333333)" style="font-family: sans-serif; font-size: 10px; fill: #000; opacity: 1;">200</text><text text-anchor="end" transform="translate(-7,503)" style="font-family: sans-serif; font-size: 10px; fill: #000; opacity: 1;">300</text><text text-anchor="end" transform="translate(-7,469.6666666666667)" style="font-family: sans-serif; font-size: 10px; fill: #000; opacity: 1;">400</text><text text-anchor="end" transform="translate(-7,436.3333333333333)" style="font-family: sans-serif; font-size: 10px; fill: #000; opacity: 1;">500</text><text text-anchor="end" transform="translate(-7,403.00000000000006)" style="font-family: sans-serif; font-size: 10px; fill: #000; opacity: 1;">600</text><text text-anchor="end" transform="translate(-7,369.6666666666667)" style="font-family: sans-serif; font-size: 10px; fill: #000; opacity: 1;">700</text><text text-anchor="end" transform="translate(-7,336.33333333333337)" style="font-family: sans-serif; font-size: 10px; fill: #000; opacity: 1;">800</text><text text-anchor="end" transform="translate(-7,303)" style="font-family: sans-serif; font-size: 10px; fill: #000; opacity: 1;">900</text><text text-anchor="end" transform="translate(-7,269.66666666666663)" style="font-family: sans-serif; font-size: 10px; fill: #000; opacity: 1;">1,000</text><text text-anchor="end" transform="translate(-7,236.33333333333331)" style="font-family: sans-serif; font-size: 10px; fill: #000; opacity: 1;">1,100</text><text text-anchor="end" transform="translate(-7,203.00000000000003)" style="font-family: sans-serif; font-size: 10px; fill: #000; opacity: 1;">1,200</text><text text-anchor="end" transform="translate(-7,169.66666666666669)" style="font-family: sans-serif; font-size: 10px; fill: #000; opacity: 1;">1,300</text><text text-anchor="end" transform="translate(-7,136.33333333333331)" style="font-family: sans-serif; font-size: 10px; fill: #000; opacity: 1;">1,400</text><text text-anchor="end" transform="translate(-7,102.99999999999997)" style="font-family: sans-serif; font-size: 10px; fill: #000; opacity: 1;">1,500</text><text text-anchor="end" transform="translate(-7,69.6666666666667)" style="font-family: sans-serif; font-size: 10px; fill: #000; opacity: 1;">1,600</text><text text-anchor="end" transform="translate(-7,36.33333333333335)" style="font-family: sans-serif; font-size: 10px; fill: #000; opacity: 1;">1,700</text><text text-anchor="end" transform="translate(-7,3)" style="font-family: sans-serif; font-size: 10px; fill: #000; opacity: 1;">1,800</text></g><g class="mark-rule role-axis-domain" style="pointer-events: none;"><line transform="translate(0,600)" x2="0" y2="-600" style="fill: none; stroke: #888; stroke-width: 1; opacity: 1;"></line></g><g class="mark-text role-axis-title" style="pointer-events: none;"><text text-anchor="middle" transform="translate(-51,300) rotate(-90) translate(0,-2)" style="font-family: sans-serif; font-size: 11px; font-weight: bold; fill: #000; opacity: 1;">Sum of Hours</text></g></g><path class="foreground" d="" style="pointer-events: none; display: none; fill: none;"></path></g></g><g class="mark-group role-scope pathgroup"><g transform="translate(0,0)"><path class="background" d="M0,0h800v600h-800Z" style="fill: none;"></path><g><g class="mark-line role-mark marks"><path d="M8.695652173913095,599.3333333333334L11.180124223602535,597L13.664596273291975,594.8333333333334L16.149068322981417,593.3333333333334L23.60248447204974,591.6666666666667L26.08695652173918,589.6666666666666L28.57142857142862,587.6666666666666L31.055900621118063,584.8333333333334L33.5403726708075,582.1666666666666L40.993788819875824,579.5L43.47826086956527,577L45.962732919254705,573.5L48.44720496894415,571L50.931677018633586,568.8333333333334L58.38509316770191,566L60.869565217391354,563.1666666666666L63.35403726708079,560.8333333333334L65.83850931677023,559.3333333333333L68.32298136645967,557.1666666666666L75.77639751552799,555.1666666666666L78.26086956521743,553.1666666666666L80.74534161490688,551.1666666666667L83.22981366459632,550.8333333333333L85.71428571428577,548.5L93.16770186335408,548.1666666666667L95.65217391304353,546.8333333333334L98.13664596273296,545.3333333333333L100.6211180124224,544L103.10559006211184,543L110.55900621118016,540.3333333333334L113.0434782608696,539.1666666666666L115.52795031055905,536.8333333333334L118.0124223602485,534.6666666666666L120.49689440993794,531.3333333333334L127.95031055900625,528.3333333333334L130.43478260869568,527.3333333333333L132.91925465838514,526.8333333333334L135.40372670807457,524.6666666666666L137.888198757764,522.1666666666667L142.8571428571429,521.6666666666666L145.34161490683235,518.8333333333333L147.82608695652178,516.5L150.3105590062112,513.1666666666666L152.79503105590067,511.16666666666663L155.2795031055901,508.3333333333333L167.7018633540373,506.6666666666667L170.18633540372676,505.3333333333333L172.6708074534162,503.6666666666667L180.1242236024845,501L182.60869565217396,498.83333333333337L185.0931677018634,497L187.57763975155282,494L190.06211180124228,492.00000000000006L197.5155279503106,489.6666666666667L200.00000000000003,487.8333333333333L202.4844720496895,486.5L204.96894409937892,485.8333333333333L207.45341614906835,482.66666666666663L214.9068322981367,481L217.39130434782612,478.33333333333337L219.87577639751555,478L222.360248447205,475.3333333333333L224.84472049689444,472.6666666666667L232.29813664596276,470.3333333333333L234.78260869565221,467.66666666666663L237.26708074534164,465.99999999999994L239.7515527950311,463.83333333333337L242.23602484472053,461.33333333333337L247.20496894409942,459L249.68944099378885,458.1666666666667L252.17391304347828,455.6666666666667L254.65838509316774,451.83333333333337L257.14285714285717,450.5L264.5962732919255,447.8333333333333L267.08074534161494,445L269.5652173913044,442.16666666666663L281.9875776397516,439.3333333333333L284.472049689441,436.99999999999994L286.95652173913044,435L294.4099378881988,432.1666666666667L296.8944099378882,430L299.37888198757764,426.8333333333333L301.86335403726713,425.50000000000006L304.34782608695656,423.00000000000006L311.80124223602485,422.1666666666667L314.28571428571433,419.83333333333337L316.77018633540376,417.00000000000006L319.2546583850932,415.1666666666667L321.7391304347826,413.8333333333333L329.19254658385097,411.33333333333326L331.6770186335404,409.33333333333337L334.16149068322983,406.83333333333337L336.64596273291926,405.83333333333337L339.13043478260875,403.5L341.6149068322982,401L344.0993788819876,398L346.58385093167703,394.6666666666667L349.06832298136646,392.5L354.0372670807454,390.16666666666663L356.5217391304348,387.49999999999994L359.00621118012424,383L361.49068322981367,380.33333333333337L363.97515527950316,377.5L368.944099378882,374.6666666666667L371.42857142857144,371.83333333333337L373.9130434782609,369.1666666666667L376.3975155279503,366.16666666666663L378.8819875776398,363.5L383.85093167701865,360.8333333333333L386.3354037267081,358.49999999999994L388.8198757763975,355.8333333333333L391.304347826087,353.16666666666663L393.7888198757764,350.50000000000006L398.7577639751553,348.00000000000006L401.2422360248447,345.33333333333337L403.7267080745342,342.3333333333333L406.21118012422363,339.33333333333337L408.69565217391306,336.6666666666667L413.6645962732919,334.1666666666667L416.1490683229814,332.16666666666663L418.63354037267084,330.16666666666663L421.11801242236027,327.50000000000006L423.6024844720497,325.1666666666667L428.5714285714286,322.5L436.0248447204969,320.16666666666663L438.50931677018633,318.1666666666667L443.47826086956525,315.5L445.9627329192547,312.3333333333333L448.4472049689441,309L450.93167701863354,306.1666666666667L453.416149068323,303.8333333333333L463.35403726708074,301.6666666666667L465.8385093167702,299.33333333333337L468.32298136645966,296.5L473.2919254658385,293.8333333333333L475.77639751552795,291.3333333333333L478.26086956521743,288.5L480.74534161490686,286L483.2298136645963,283.3333333333333L488.19875776397515,280.8333333333333L490.6832298136646,278.16666666666663L493.16770186335407,275.16666666666663L495.6521739130435,272.50000000000006L498.1366459627329,270.33333333333337L503.1055900621118,267.8333333333333L505.5900621118013,264.6666666666667L508.0745341614907,262.6666666666667L510.55900621118013,260.16666666666663L513.0434782608695,258.00000000000006L518.0124223602484,255.49999999999997L520.4968944099378,252.49999999999997L522.9813664596275,249.99999999999997L525.4658385093169,247.33333333333337L527.9503105590063,245L532.9192546583852,242L535.4037267080746,239.66666666666669L537.888198757764,237.16666666666663L540.3726708074535,236.16666666666669L542.8571428571429,234L547.8260869565217,231.33333333333331L552.7950310559006,231L555.27950310559,228.66666666666663L557.7639751552795,226.16666666666666L562.7329192546583,223.50000000000003L565.2173913043478,222L567.7018633540372,219.83333333333331L570.1863354037266,217.25L572.670807453416,214.91666666666669L577.6397515527951,212.58333333333331L580.1242236024846,210.25000000000003L582.608695652174,207.58333333333334L585.0931677018634,205.08333333333334L587.5776397515529,202.41666666666666L592.5465838509317,200.58333333333331L595.0310559006211,198.08333333333331L597.5155279503106,195.25L600,192.58333333333331L602.4844720496894,190.08333333333334L607.4534161490683,187.74999999999997L609.9378881987577,185.41666666666669L612.4223602484471,182.75L614.9068322981366,179.91666666666669L617.391304347826,177.41666666666669L622.3602484472049,175.25000000000003L624.8447204968945,172.91666666666666L629.8136645962734,170.41666666666666L632.2981366459628,168.25L634.7826086956522,165.91666666666669L642.2360248447205,164.58333333333334L644.72049689441,161.74999999999997L647.2049689440994,159.41666666666669L649.6894409937888,157.08333333333331L654.6583850931677,154.41666666666669L657.1428571428571,151.41666666666669L659.6273291925465,148.91666666666669L662.111801242236,146.25L664.5962732919254,143.75000000000003L669.5652173913043,141.08333333333334L672.0496894409937,138.41666666666666L674.5341614906831,136.08333333333334L677.0186335403728,133.91666666666669L679.5031055900622,132.08333333333334L684.4720496894411,129.91666666666666L686.9565217391305,127.24999999999997L689.4409937888199,124.74999999999999L691.9254658385094,121.74999999999999L694.4099378881988,119.41666666666669L699.3788819875776,116.91666666666669L701.8633540372671,114.25L704.3478260869565,112.25000000000003L706.8322981366459,109.41666666666666L709.3167701863354,107.08333333333336L714.2857142857142,104.74999999999999L716.7701863354037,102.0833333333333L719.2546583850931,99.41666666666669L721.7391304347825,96.75L724.2236024844719,94.08333333333331L729.192546583851,92.74999999999997L731.6770186335405,90.24999999999999L734.1614906832299,87.5833333333333L736.6459627329193,84.91666666666669L739.1304347826087,82.58333333333331L744.0993788819876,81.91666666666669L746.583850931677,78.91666666666669L749.0683229813665,76.0833333333333L751.5527950310559,74.25000000000001L754.0372670807453,72.58333333333336L756.5217391304348,70.9166666666667L761.4906832298136,67.91666666666669L763.975155279503,65.08333333333331L766.4596273291925,63.74999999999997L768.9440993788819,61.08333333333336L771.4285714285713,58.583333333333364L773.9130434782608,56.25L776.3975155279502,55.583333333333364L778.8819875776398,51.250000000000014L781.3664596273293,48.583333333333336L783.8509316770187,45.91666666666665L788.8198757763976,43.250000000000036L791.304347826087,40.58333333333335L793.7888198757764,37.916666666666664L796.2732919254659,35.24999999999998L798.7577639751553,32.583333333333364" style="fill: none; stroke: #4c78a8; stroke-width: 2;"></path></g></g><path class="foreground" d="" style="display: none; fill: none;"></path></g><g transform="translate(0,0)"><path class="background" d="M0,0h800v600h-800Z" style="fill: none;"></path><g><g class="mark-line role-mark marks"><path d="M6.211180124223653,597.5L8.695652173913095,596.1666666666666L11.180124223602535,594L13.664596273291975,592.1666666666666L21.118012422360298,589.8333333333334L23.60248447204974,587.6666666666666L26.08695652173918,585.5L28.57142857142862,582.8333333333333L31.055900621118063,580.6666666666666L38.50931677018638,578L40.993788819875824,575.6666666666666L43.47826086956527,573.6666666666666L45.962732919254705,570.8333333333333L58.38509316770191,569.1666666666666L60.869565217391354,565.1666666666666L63.35403726708079,562.1666666666666L65.83850931677023,560L73.29192546583856,558.3333333333334L75.77639751552799,556L78.26086956521743,552.3333333333334L80.74534161490688,549.8333333333334L83.22981366459632,547.8333333333333L90.68322981366464,545.5L93.16770186335408,542.8333333333334L95.65217391304353,541.3333333333334L98.13664596273296,538.6666666666666L100.6211180124224,536.6666666666667L113.0434782608696,534L115.52795031055905,531.1666666666667L118.0124223602485,529.8333333333334L125.46583850931681,526.3333333333334L127.95031055900625,524.1666666666666L130.43478260869568,521.5L132.91925465838514,518.8333333333333L135.40372670807457,516.8333333333334L142.8571428571429,514.3333333333334L145.34161490683235,511.99999999999994L147.82608695652178,509.16666666666663L150.3105590062112,506.33333333333337L152.79503105590067,505L162.7329192546584,502.5L165.21739130434787,499.8333333333333L167.7018633540373,497.3333333333333L170.18633540372676,494.66666666666663L177.63975155279508,492.1666666666667L180.1242236024845,490.1666666666667L182.60869565217396,488.5L185.0931677018634,486.1666666666667L187.57763975155282,483.16666666666663L197.5155279503106,481.5L200.00000000000003,476.16666666666663L202.4844720496895,478L204.96894409937892,473.8333333333333L212.42236024844723,472L214.9068322981367,469.33333333333337L217.39130434782612,466.6666666666667L219.87577639751555,464.5L222.360248447205,462.1666666666667L229.81366459627333,459.5L232.29813664596276,458.5L234.78260869565221,455.8333333333333L237.26708074534164,453.8333333333333L262.1118012422361,451.16666666666663L264.5962732919255,448.83333333333326L267.08074534161494,446.6666666666667L269.5652173913044,444L272.0496894409938,441.8333333333333L274.53416149068323,439.83333333333337L277.0186335403727,438L279.50310559006215,435.5L281.9875776397516,433.66666666666663L284.472049689441,431.50000000000006L294.4099378881988,428.83333333333337L296.8944099378882,427.1666666666667L299.37888198757764,425.16666666666663L301.86335403726713,424.5L309.3167701863354,422.83333333333337L311.80124223602485,420.33333333333337L314.28571428571433,419.66666666666663L316.77018633540376,417.5L319.2546583850932,416L326.70807453416154,414.1666666666667L329.19254658385097,412.6666666666667L331.6770186335404,411.6666666666667L334.16149068322983,410L336.64596273291926,409.5L341.6149068322982,407.8333333333333L344.0993788819876,406.00000000000006L346.58385093167703,404.5L351.55279503105595,401.8333333333333L354.0372670807454,400.00000000000006L356.5217391304348,397.5L359.00621118012424,394.91666666666674L361.49068322981367,392.4166666666667L366.4596273291926,389.75000000000006L368.944099378882,385.91666666666663L371.42857142857144,383.58333333333337L373.9130434782609,380.9166666666667L376.3975155279503,378.58333333333337L381.3664596273292,376.75L383.85093167701865,375.08333333333337L386.3354037267081,372.3333333333333L388.8198757763975,370.66666666666663L391.304347826087,367.5L396.27329192546586,365.6666666666667L398.7577639751553,364.1666666666667L401.2422360248447,361.8333333333333L403.7267080745342,359.83333333333337L406.21118012422363,357.8333333333333L411.1801242236025,355.8333333333333L413.6645962732919,354.5L418.63354037267084,352.5L421.11801242236027,351.6666666666667L426.0869565217391,349L431.05590062111804,346.33333333333337L433.54037267080747,343.6666666666667L436.0248447204969,341L440.9937888198758,337.6666666666667L443.47826086956525,335L445.9627329192547,332.16666666666663L448.4472049689441,330.16666666666663L450.93167701863354,329.8333333333333L455.90062111801245,329.5L458.3850931677019,329L460.8695652173913,328.33333333333337L463.35403726708074,326.8333333333333L465.8385093167702,325.83333333333337L470.8074534161491,325.00000000000006L473.2919254658385,323.8333333333333L475.77639751552795,322.8333333333333L478.26086956521743,321.50000000000006L480.74534161490686,320.5L485.7142857142857,319.5L490.6832298136646,317.8333333333333L493.16770186335407,316.1666666666667L495.6521739130435,315.16666666666663L500.62111801242236,314.5L503.1055900621118,313.5L505.5900621118013,312.49999999999994L508.0745341614907,311.5L510.55900621118013,309.8333333333333L515.5279503105589,307.16666666666663L518.0124223602484,304.50000000000006L520.4968944099378,301.83333333333337L522.9813664596275,299.5L525.4658385093169,296.8333333333333L530.4347826086957,295.50000000000006L532.9192546583852,294.6666666666667L535.4037267080746,293L537.888198757764,291.5L540.3726708074535,290.33333333333337L545.3416149068323,288.1666666666667L547.8260869565217,286L550.3105590062112,284.00000000000006L552.7950310559006,282.8333333333333L560.2484472049689,280.1666666666667L562.7329192546583,279.1666666666667L565.2173913043478,278.49999999999994L567.7018633540372,275.49999999999994L570.1863354037266,273.8333333333333L575.1552795031057,272.16666666666663L577.6397515527951,269.83333333333337L580.1242236024846,267.8333333333333L582.608695652174,266.66666666666663L585.0931677018634,264.33333333333337L590.0621118012423,262.8333333333333L592.5465838509317,262L595.0310559006211,261.1666666666667L597.5155279503106,259.8333333333333L600,258.5L604.9689440993789,257.1666666666667L607.4534161490683,255.49999999999997L609.9378881987577,252.83333333333334L612.4223602484471,250.33333333333337L614.9068322981366,248.5L619.8757763975154,246.83333333333334L622.3602484472049,245.16666666666669L624.8447204968945,243.66666666666666L627.329192546584,240L629.8136645962734,237.66666666666666L632.2981366459628,235.16666666666666L637.2670807453417,230.83333333333331L639.7515527950311,233.16666666666669L642.2360248447205,228.66666666666663L644.72049689441,226.99999999999997L647.2049689440994,225L652.1739130434783,222.66666666666663L654.6583850931677,222L657.1428571428571,220.16666666666666L659.6273291925465,218.49999999999997L662.111801242236,216.5L667.0807453416148,214.50000000000003L669.5652173913043,211.83333333333334L672.0496894409937,209.49999999999997L677.0186335403728,207.5L681.9875776397516,206.00000000000003L686.9565217391305,204.66666666666669L689.4409937888199,202.33333333333331L691.9254658385094,199.66666666666663L696.8944099378882,197.66666666666666L699.3788819875776,197.16666666666666L701.8633540372671,195.16666666666666L704.3478260869565,193.33333333333331L706.8322981366459,191L711.8012422360248,188.99999999999997L714.2857142857142,187.16666666666669L716.7701863354037,184.5L719.2546583850931,181.83333333333331L721.7391304347825,179.16666666666669L726.7080745341616,177.16666666666666L729.192546583851,174.99999999999997L731.6770186335405,172.66666666666669L734.1614906832299,170.66666666666669L736.6459627329193,168.33333333333334L741.6149068322982,165.99999999999997L744.0993788819876,163.66666666666669L746.583850931677,161.33333333333331L751.5527950310559,158.66666666666669L759.0062111801242,156L761.4906832298136,155.66666666666669L763.975155279503,154.83333333333334L773.9130434782608,154.00000000000003L786.3354037267081,151.33333333333334L791.304347826087,148.66666666666666L796.2732919254659,146.33333333333337L798.7577639751553,144.66666666666669" style="fill: none; stroke: #f58518; stroke-width: 2;"></path></g></g><path class="foreground" d="" style="display: none; fill: none;"></path></g><g transform="translate(0,0)"><path class="background" d="M0,0h800v600h-800Z" style="fill: none;"></path><g><g class="mark-line role-mark marks"><path d="M1.2422360248447717,597.3333333333334L3.7267080745342125,595.8333333333334L6.211180124223653,594.8333333333334L8.695652173913095,592.8333333333334L11.180124223602535,590.8333333333334L18.633540372670858,588.8333333333334L21.118012422360298,587.1666666666666L23.60248447204974,585L26.08695652173918,582.6666666666667L28.57142857142862,581.8333333333334L36.024844720496944,579.8333333333333L40.993788819875824,579.5L43.47826086956527,578L45.962732919254705,575.1666666666666L53.41614906832303,573.1666666666666L55.90062111801247,571L58.38509316770191,568.8333333333334L60.869565217391354,567.1666666666666L63.35403726708079,566.1666666666666L70.80745341614912,564.5L73.29192546583856,562.3333333333333L75.77639751552799,560.1666666666667L78.26086956521743,559L80.74534161490688,557.6666666666666L88.1987577639752,556.3333333333333L90.68322981366464,555.1666666666666L93.16770186335408,553L95.65217391304353,551.3333333333334L98.13664596273296,549.8333333333334L105.59006211180129,548.3333333333334L108.07453416149073,547L110.55900621118016,545.8333333333334L113.0434782608696,544.5833333333334L115.52795031055905,543.0833333333334L122.98136645962737,541.4166666666667L125.46583850931681,539.3333333333333L127.95031055900625,537.6666666666666L130.43478260869568,535.8333333333334L132.91925465838514,534.6666666666666L137.888198757764,534.5L140.37267080745346,532.6666666666666L142.8571428571429,530.5L145.34161490683235,528.3333333333334L147.82608695652178,527L150.3105590062112,525.5L157.76397515527955,524L160.24844720496898,522.3333333333334L162.7329192546584,520.6666666666666L165.21739130434787,519.3333333333333L167.7018633540373,518.3333333333334L175.15527950310562,517.5L177.63975155279508,515.8333333333334L180.1242236024845,514L182.60869565217396,513.1666666666666L185.0931677018634,511.5L192.5465838509317,509.5L195.03105590062114,508L197.5155279503106,505L200.00000000000003,503.49999999999994L202.4844720496895,502.1666666666667L204.96894409937892,501.5L209.9378881987578,499.6666666666667L212.42236024844723,497.66666666666663L214.9068322981367,495.6666666666667L217.39130434782612,494L219.87577639751555,492.33333333333337L227.3291925465839,490.5L229.81366459627333,488.99999999999994L232.29813664596276,487.1666666666667L234.78260869565221,485.8333333333333L237.26708074534164,484.1666666666667L244.72049689440996,481.3333333333333L247.20496894409942,479.1666666666667L252.17391304347828,477.83333333333337L259.6273291925466,476.16666666666663L262.1118012422361,475.3333333333333L264.5962732919255,473.8333333333333L267.08074534161494,472.1666666666667L269.5652173913044,471.66666666666663L289.4409937888199,471.50000000000006L291.92546583850935,471.3333333333333L296.8944099378882,469.5L299.37888198757764,468.3333333333333L306.832298136646,466.5L309.3167701863354,465.16666666666663L311.80124223602485,463.5L314.28571428571433,462.1666666666667L316.77018633540376,461L324.22360248447205,459.3333333333333L326.70807453416154,457.83333333333337L329.19254658385097,456L331.6770186335404,455.33333333333337" style="fill: none; stroke: #e45756; stroke-width: 2;"></path></g></g><path class="foreground" d="" style="display: none; fill: none;"></path></g></g><g class="mark-group role-legend"><g transform="translate(819,0)"><path class="background" d="M0,0h61v53h-61Z" style="pointer-events: none; fill: none;"></path><g><g class="mark-group role-legend-entry"><g transform="translate(0,16)"><path class="background" d="M0,0h0v0h0Z" style="pointer-events: none; fill: none;"></path><g><g class="mark-group role-scope"><g transform="translate(0,0)"><path class="background" d="M0,0h48v11h-48Z" style="pointer-events: none; fill: none; opacity: 1;"></path><g><g class="mark-symbol role-legend-symbol" style="pointer-events: none;"><path transform="translate(6,6)" d="M-5,0L5,0" style="fill: none; stroke: #4c78a8; stroke-width: 1.5; opacity: 1;"></path></g><g class="mark-text role-legend-label" style="pointer-events: none;"><text text-anchor="start" transform="translate(16,9)" style="font-family: sans-serif; font-size: 10px; fill: #000; opacity: 1;">2021</text></g></g><path class="foreground" d="" style="pointer-events: none; display: none; fill: none;"></path></g><g transform="translate(0,13)"><path class="background" d="M0,0h48v11h-48Z" style="pointer-events: none; fill: none; opacity: 1;"></path><g><g class="mark-symbol role-legend-symbol" style="pointer-events: none;"><path transform="translate(6,6)" d="M-5,0L5,0" style="fill: none; stroke: #f58518; stroke-width: 1.5; opacity: 1;"></path></g><g class="mark-text role-legend-label" style="pointer-events: none;"><text text-anchor="start" transform="translate(16,9)" style="font-family: sans-serif; font-size: 10px; fill: #000; opacity: 1;">2022</text></g></g><path class="foreground" d="" style="pointer-events: none; display: none; fill: none;"></path></g><g transform="translate(0,26)"><path class="background" d="M0,0h48v11h-48Z" style="pointer-events: none; fill: none; opacity: 1;"></path><g><g class="mark-symbol role-legend-symbol" style="pointer-events: none;"><path transform="translate(6,6)" d="M-5,0L5,0" style="fill: none; stroke: #e45756; stroke-width: 1.5; opacity: 1;"></path></g><g class="mark-text role-legend-label" style="pointer-events: none;"><text text-anchor="start" transform="translate(16,9)" style="font-family: sans-serif; font-size: 10px; fill: #000; opacity: 1;">2023</text></g></g><path class="foreground" d="" style="pointer-events: none; display: none; fill: none;"></path></g></g></g><path class="foreground" d="" style="pointer-events: none; display: none; fill: none;"></path></g></g><g class="mark-text role-legend-title" style="pointer-events: none;"><text text-anchor="start" transform="translate(0,9)" style="font-family: sans-serif; font-size: 11px; font-weight: bold; fill: #000; opacity: 1;">Project</text></g></g><path class="foreground" d="" style="pointer-events: none; display: none; fill: none;"></path></g></g></g><path class="foreground" d="" style="display: none; fill: none;"></path></g></g></g></svg>