<svg class="marks" width="810" height="627" viewBox="0 0 810 627" version="1.1" xmlns="http://www.w3.org/2000/svg" xmlns:xlink="http://www.w3.org/1999/xlink"><rect width="810" height="627" style="fill: white;"></rect><g transform="translate(5,22)"><g class="mark-group role-frame root"><g transform="translate(0,0)"><path class="background" d="M0.5,0.5h800v600h-800Z" style="fill: none; stroke: none;"></path><g><g class="mark-arc role-mark layer_0_marks"><path transform="translate(400,300)" d="M58.77304951657256,218.914381501765A226.6666666666667,226.6666666666667,0,0,0,188.27919130447776,-126.20904840584788L0,0Z" style="fill: #54a24b;"></path><path transform="translate(400,300)" d="M-215.71591105702606,69.60189289534462A226.6666666666667,226.6666666666667,0,0,0,58.77304951657256,218.914381501765L0,0Z" style="fill: #eeca3b;"></path><path transform="translate(400,300)" d="M-148.18198183542722,-171.52223773348726A226.6666666666667,226.6666666666667,0,0,0,-215.71591105702606,69.60189289534462L0,0Z" style="fill: #b279a2;"></path><path transform="translate(400,300)" d="M147.65773468456342,-171.97375138549742A226.6666666666667,226.6666666666667,0,0,0,1.3879330390336672e-14,-226.6666666666667L0,0Z" style="fill: #4c78a8;"></path><path transform="translate(400,300)" d="M-4.1637991171010013e-14,-226.6666666666667A226.6666666666667,226.6666666666667,0,0,0,-105.30358982372147,-200.72102966060936L0,0Z" style="fill: #9d755d;"></path><path transform="translate(400,300)" d="M188.27919130447776,-126.20904840584788A226.6666666666667,226.6666666666667,0,0,0,148.406236822587,-171.3282424176937L0,0Z" style="fill: #72b7b2;"></path><path transform="translate(400,300)" d="M-105.30358982372147,-200.72102966060936A226.6666666666667,226.6666666666667,0,0,0,-148.18198183542722,-171.52223773348726L0,0Z" style="fill: #ff9da6;"></path><path transform="translate(400,300)" d="M148.406236822587,-171.3282424176937A226.6666666666667,226.6666666666667,0,0,0,147.9574732595656,-171.71593951763109L0,0Z" style="fill: #e45756;"></path><path transform="translate(400,300)" d="M147.9574732595656,-171.71593951763109A226.6666666666667,226.6666666666667,0,0,0,147.65773468456342,-171.97375138549742L0,0Z" style="fill: #f58518;"></path></g><g class="mark-text role-mark layer_1_marks"><text text-anchor="middle" transform="translate(649.6675932439518,399.6867332917725)" style="font-family: sans-serif; font-size: 20px; fill: #54a24b;">ETL</text><text text-anchor="middle" transform="translate(272.575035931178,540.2519789525172)" style="font-family: sans-serif; font-size: 20px; fill: #eeca3b;">GEM</text><text text-anchor="middle" transform="translate(143.21489682589157,234.07975320555676)" style="font-family: sans-serif; font-size: 20px; fill: #b279a2;">L0MDT</text><text text-anchor="middle" transform="translate(492.62440730400766,55.93634753788703)" style="font-family: sans-serif; font-size: 20px; fill: #4c78a8;">APOLLO</text><text text-anchor="middle" transform="translate(336.2042019872201,47.07683134369046)" style="font-family: sans-serif; font-size: 20px; fill: #9d755d;">VAC/SICK/HOL</text><text text-anchor="middle" transform="translate(599.8206974650694,129.41347736680376)" style="font-family: sans-serif; font-size: 20px; fill: #72b7b2;">EDF</text><text text-anchor="middle" transform="translate(249.90486927878842,85.58547496842789)" style="font-family: sans-serif; font-size: 20px; fill: #ff9da6;">OTHER PRJ</text><text text-anchor="middle" transform="translate(574.3317433357967,104.20913207825032)" style="font-family: sans-serif; font-size: 20px; fill: #e45756;">DINESH-MIGDAL</text><text text-anchor="middle" transform="translate(573.891364920895,103.82951670172207)" style="font-family: sans-serif; font-size: 20px; fill: #f58518;">CMS-PIXEL-DTC</text></g><g class="mark-group role-title"><g transform="translate(400,-17)"><path class="background" d="M0,0h0v0h0Z" style="pointer-events: none; fill: none;"></path><g><g class="mark-text role-title-text" style="pointer-events: none;"><text text-anchor="middle" transform="translate(0,10)" style="font-family: sans-serif; font-size: 13px; font-weight: bold; fill: #000; opacity: 1;">EDF Work</text></g></g><path class="foreground" d="" style="pointer-events: none; display: none; fill: none;"></path></g></g></g><path class="foreground" d="" style="display: none; fill: none;"></path></g></g></g></svg>