<svg class="marks" width="986" height="693" viewBox="0 0 986 693" version="1.1" xmlns="http://www.w3.org/2000/svg" xmlns:xlink="http://www.w3.org/1999/xlink"><rect width="986" height="693" style="fill: white;"></rect><g transform="translate(51,10)"><g class="mark-group role-frame root"><g transform="translate(0,0)"><path class="background" d="M0.5,0.5h800v600h-800Z" style="fill: none; stroke: #ddd;"></path><g><g class="mark-group role-axis"><g transform="translate(0.5,0.5)"><path class="background" d="M0,0h0v0h0Z" style="pointer-events: none; fill: none;"></path><g><g class="mark-rule role-axis-grid" style="pointer-events: none;"><line transform="translate(0,600)" x2="800" y2="0" style="fill: none; stroke: #ddd; stroke-width: 1; opacity: 1;"></line><line transform="translate(0,545)" x2="800" y2="0" style="fill: none; stroke: #ddd; stroke-width: 1; opacity: 1;"></line><line transform="translate(0,491)" x2="800" y2="0" style="fill: none; stroke: #ddd; stroke-width: 1; opacity: 1;"></line><line transform="translate(0,436)" x2="800" y2="0" style="fill: none; stroke: #ddd; stroke-width: 1; opacity: 1;"></line><line transform="translate(0,382)" x2="800" y2="0" style="fill: none; stroke: #ddd; stroke-width: 1; opacity: 1;"></line><line transform="translate(0,327)" x2="800" y2="0" style="fill: none; stroke: #ddd; stroke-width: 1; opacity: 1;"></line><line transform="translate(0,273)" x2="800" y2="0" style="fill: none; stroke: #ddd; stroke-width: 1; opacity: 1;"></line><line transform="translate(0,218)" x2="800" y2="0" style="fill: none; stroke: #ddd; stroke-width: 1; opacity: 1;"></line><line transform="translate(0,164)" x2="800" y2="0" style="fill: none; stroke: #ddd; stroke-width: 1; opacity: 1;"></line><line transform="translate(0,109)" x2="800" y2="0" style="fill: none; stroke: #ddd; stroke-width: 1; opacity: 1;"></line><line transform="translate(0,55)" x2="800" y2="0" style="fill: none; stroke: #ddd; stroke-width: 1; opacity: 1;"></line><line transform="translate(0,0)" x2="800" y2="0" style="fill: none; stroke: #ddd; stroke-width: 1; opacity: 1;"></line></g></g><path class="foreground" d="" style="pointer-events: none; display: none; fill: none;"></path></g></g><g class="mark-group role-axis"><g transform="translate(0.5,600.5)"><path class="background" d="M0,0h0v0h0Z" style="pointer-events: none; fill: none;"></path><g><g class="mark-rule role-axis-tick" style="pointer-events: none;"><line transform="translate(15,0)" x2="0" y2="5" style="fill: none; stroke: #888; stroke-width: 1; opacity: 1;"></line><line transform="translate(46,0)" x2="0" y2="5" style="fill: none; stroke: #888; stroke-width: 1; opacity: 1;"></line><line transform="translate(76,0)" x2="0" y2="5" style="fill: none; stroke: #888; stroke-width: 1; opacity: 1;"></line><line transform="translate(107,0)" x2="0" y2="5" style="fill: none; stroke: #888; stroke-width: 1; opacity: 1;"></line><line transform="translate(138,0)" x2="0" y2="5" style="fill: none; stroke: #888; stroke-width: 1; opacity: 1;"></line><line transform="translate(169,0)" x2="0" y2="5" style="fill: none; stroke: #888; stroke-width: 1; opacity: 1;"></line><line transform="translate(200,0)" x2="0" y2="5" style="fill: none; stroke: #888; stroke-width: 1; opacity: 1;"></line><line transform="translate(230,0)" x2="0" y2="5" style="fill: none; stroke: #888; stroke-width: 1; opacity: 1;"></line><line transform="translate(261,0)" x2="0" y2="5" style="fill: none; stroke: #888; stroke-width: 1; opacity: 1;"></line><line transform="translate(292,0)" x2="0" y2="5" style="fill: none; stroke: #888; stroke-width: 1; opacity: 1;"></line><line transform="translate(323,0)" x2="0" y2="5" style="fill: none; stroke: #888; stroke-width: 1; opacity: 1;"></line><line transform="translate(353,0)" x2="0" y2="5" style="fill: none; stroke: #888; stroke-width: 1; opacity: 1;"></line><line transform="translate(384,0)" x2="0" y2="5" style="fill: none; stroke: #888; stroke-width: 1; opacity: 1;"></line><line transform="translate(415,0)" x2="0" y2="5" style="fill: none; stroke: #888; stroke-width: 1; opacity: 1;"></line><line transform="translate(446,0)" x2="0" y2="5" style="fill: none; stroke: #888; stroke-width: 1; opacity: 1;"></line><line transform="translate(476,0)" x2="0" y2="5" style="fill: none; stroke: #888; stroke-width: 1; opacity: 1;"></line><line transform="translate(507,0)" x2="0" y2="5" style="fill: none; stroke: #888; stroke-width: 1; opacity: 1;"></line><line transform="translate(538,0)" x2="0" y2="5" style="fill: none; stroke: #888; stroke-width: 1; opacity: 1;"></line><line transform="translate(569,0)" x2="0" y2="5" style="fill: none; stroke: #888; stroke-width: 1; opacity: 1;"></line><line transform="translate(600,0)" x2="0" y2="5" style="fill: none; stroke: #888; stroke-width: 1; opacity: 1;"></line><line transform="translate(630,0)" x2="0" y2="5" style="fill: none; stroke: #888; stroke-width: 1; opacity: 1;"></line><line transform="translate(661,0)" x2="0" y2="5" style="fill: none; stroke: #888; stroke-width: 1; opacity: 1;"></line><line transform="translate(692,0)" x2="0" y2="5" style="fill: none; stroke: #888; stroke-width: 1; opacity: 1;"></line><line transform="translate(723,0)" x2="0" y2="5" style="fill: none; stroke: #888; stroke-width: 1; opacity: 1;"></line><line transform="translate(753,0)" x2="0" y2="5" style="fill: none; stroke: #888; stroke-width: 1; opacity: 1;"></line><line transform="translate(784,0)" x2="0" y2="5" style="fill: none; stroke: #888; stroke-width: 1; opacity: 1;"></line></g><g class="mark-text role-axis-label" style="pointer-events: none;"><text text-anchor="end" transform="translate(14.884615384615394,7) rotate(270) translate(0,3)" style="font-family: sans-serif; font-size: 10px; fill: #000; opacity: 1;">2021-01</text><text text-anchor="end" transform="translate(45.65384615384617,7) rotate(270) translate(0,3)" style="font-family: sans-serif; font-size: 10px; fill: #000; opacity: 1;">2021-02</text><text text-anchor="end" transform="translate(76.42307692307693,7) rotate(270) translate(0,3)" style="font-family: sans-serif; font-size: 10px; fill: #000; opacity: 1;">2021-03</text><text text-anchor="end" transform="translate(107.19230769230771,7) rotate(270) translate(0,3)" style="font-family: sans-serif; font-size: 10px; fill: #000; opacity: 1;">2021-04</text><text text-anchor="end" transform="translate(137.96153846153848,7) rotate(270) translate(0,3)" style="font-family: sans-serif; font-size: 10px; fill: #000; opacity: 1;">2021-05</text><text text-anchor="end" transform="translate(168.73076923076923,7) rotate(270) translate(0,3)" style="font-family: sans-serif; font-size: 10px; fill: #000; opacity: 1;">2021-06</text><text text-anchor="end" transform="translate(199.5,7) rotate(270) translate(0,3)" style="font-family: sans-serif; font-size: 10px; fill: #000; opacity: 1;">2021-07</text><text text-anchor="end" transform="translate(230.26923076923077,7) rotate(270) translate(0,3)" style="font-family: sans-serif; font-size: 10px; fill: #000; opacity: 1;">2021-08</text><text text-anchor="end" transform="translate(261.03846153846155,7) rotate(270) translate(0,3)" style="font-family: sans-serif; font-size: 10px; fill: #000; opacity: 1;">2021-09</text><text text-anchor="end" transform="translate(291.8076923076923,7) rotate(270) translate(0,3)" style="font-family: sans-serif; font-size: 10px; fill: #000; opacity: 1;">2021-10</text><text text-anchor="end" transform="translate(322.5769230769231,7) rotate(270) translate(0,3)" style="font-family: sans-serif; font-size: 10px; fill: #000; opacity: 1;">2021-11</text><text text-anchor="end" transform="translate(353.34615384615387,7) rotate(270) translate(0,3)" style="font-family: sans-serif; font-size: 10px; fill: #000; opacity: 1;">2021-12</text><text text-anchor="end" transform="translate(384.11538461538464,7) rotate(270) translate(0,3)" style="font-family: sans-serif; font-size: 10px; fill: #000; opacity: 1;">2022-01</text><text text-anchor="end" transform="translate(414.8846153846154,7) rotate(270) translate(0,3)" style="font-family: sans-serif; font-size: 10px; fill: #000; opacity: 1;">2022-02</text><text text-anchor="end" transform="translate(445.6538461538462,7) rotate(270) translate(0,3)" style="font-family: sans-serif; font-size: 10px; fill: #000; opacity: 1;">2022-03</text><text text-anchor="end" transform="translate(476.42307692307696,7) rotate(270) translate(0,3)" style="font-family: sans-serif; font-size: 10px; fill: #000; opacity: 1;">2022-04</text><text text-anchor="end" transform="translate(507.19230769230774,7) rotate(270) translate(0,3)" style="font-family: sans-serif; font-size: 10px; fill: #000; opacity: 1;">2022-05</text><text text-anchor="end" transform="translate(537.9615384615385,7) rotate(270) translate(0,3)" style="font-family: sans-serif; font-size: 10px; fill: #000; opacity: 1;">2022-06</text><text text-anchor="end" transform="translate(568.7307692307692,7) rotate(270) translate(0,3)" style="font-family: sans-serif; font-size: 10px; fill: #000; opacity: 1;">2022-07</text><text text-anchor="end" transform="translate(599.5,7) rotate(270) translate(0,3)" style="font-family: sans-serif; font-size: 10px; fill: #000; opacity: 1;">2022-08</text><text text-anchor="end" transform="translate(630.2692307692307,7) rotate(270) translate(0,3)" style="font-family: sans-serif; font-size: 10px; fill: #000; opacity: 1;">2022-09</text><text text-anchor="end" transform="translate(661.0384615384615,7) rotate(270) translate(0,3)" style="font-family: sans-serif; font-size: 10px; fill: #000; opacity: 1;">2022-10</text><text text-anchor="end" transform="translate(691.8076923076923,7) rotate(270) translate(0,3)" style="font-family: sans-serif; font-size: 10px; fill: #000; opacity: 1;">2022-11</text><text text-anchor="end" transform="translate(722.5769230769231,7) rotate(270) translate(0,3)" style="font-family: sans-serif; font-size: 10px; fill: #000; opacity: 1;">2022-12</text><text text-anchor="end" transform="translate(753.3461538461538,7) rotate(270) translate(0,3)" style="font-family: sans-serif; font-size: 10px; fill: #000; opacity: 1;">2023-01</text><text text-anchor="end" transform="translate(784.1153846153846,7) rotate(270) translate(0,3)" style="font-family: sans-serif; font-size: 10px; fill: #000; opacity: 1;">2023-02</text></g><g class="mark-rule role-axis-domain" style="pointer-events: none;"><line transform="translate(0,0)" x2="800" y2="0" style="fill: none; stroke: #888; stroke-width: 1; opacity: 1;"></line></g><g class="mark-text role-axis-title" style="pointer-events: none;"><text text-anchor="middle" transform="translate(400,76)" style="font-family: sans-serif; font-size: 11px; font-weight: bold; fill: #000; opacity: 1;">Date</text></g></g><path class="foreground" d="" style="pointer-events: none; display: none; fill: none;"></path></g></g><g class="mark-group role-axis"><g transform="translate(0.5,0.5)"><path class="background" d="M0,0h0v0h0Z" style="pointer-events: none; fill: none;"></path><g><g class="mark-rule role-axis-tick" style="pointer-events: none;"><line transform="translate(0,600)" x2="-5" y2="0" style="fill: none; stroke: #888; stroke-width: 1; opacity: 1;"></line><line transform="translate(0,545)" x2="-5" y2="0" style="fill: none; stroke: #888; stroke-width: 1; opacity: 1;"></line><line transform="translate(0,491)" x2="-5" y2="0" style="fill: none; stroke: #888; stroke-width: 1; opacity: 1;"></line><line transform="translate(0,436)" x2="-5" y2="0" style="fill: none; stroke: #888; stroke-width: 1; opacity: 1;"></line><line transform="translate(0,382)" x2="-5" y2="0" style="fill: none; stroke: #888; stroke-width: 1; opacity: 1;"></line><line transform="translate(0,327)" x2="-5" y2="0" style="fill: none; stroke: #888; stroke-width: 1; opacity: 1;"></line><line transform="translate(0,273)" x2="-5" y2="0" style="fill: none; stroke: #888; stroke-width: 1; opacity: 1;"></line><line transform="translate(0,218)" x2="-5" y2="0" style="fill: none; stroke: #888; stroke-width: 1; opacity: 1;"></line><line transform="translate(0,164)" x2="-5" y2="0" style="fill: none; stroke: #888; stroke-width: 1; opacity: 1;"></line><line transform="translate(0,109)" x2="-5" y2="0" style="fill: none; stroke: #888; stroke-width: 1; opacity: 1;"></line><line transform="translate(0,55)" x2="-5" y2="0" style="fill: none; stroke: #888; stroke-width: 1; opacity: 1;"></line><line transform="translate(0,0)" x2="-5" y2="0" style="fill: none; stroke: #888; stroke-width: 1; opacity: 1;"></line></g><g class="mark-text role-axis-label" style="pointer-events: none;"><text text-anchor="end" transform="translate(-7,603)" style="font-family: sans-serif; font-size: 10px; fill: #000; opacity: 1;">0.0</text><text text-anchor="end" transform="translate(-7,548.4545454545454)" style="font-family: sans-serif; font-size: 10px; fill: #000; opacity: 1;">0.1</text><text text-anchor="end" transform="translate(-7,493.9090909090909)" style="font-family: sans-serif; font-size: 10px; fill: #000; opacity: 1;">0.2</text><text text-anchor="end" transform="translate(-7,439.3636363636364)" style="font-family: sans-serif; font-size: 10px; fill: #000; opacity: 1;">0.3</text><text text-anchor="end" transform="translate(-7,384.8181818181818)" style="font-family: sans-serif; font-size: 10px; fill: #000; opacity: 1;">0.4</text><text text-anchor="end" transform="translate(-7,330.27272727272725)" style="font-family: sans-serif; font-size: 10px; fill: #000; opacity: 1;">0.5</text><text text-anchor="end" transform="translate(-7,275.72727272727275)" style="font-family: sans-serif; font-size: 10px; fill: #000; opacity: 1;">0.6</text><text text-anchor="end" transform="translate(-7,221.18181818181824)" style="font-family: sans-serif; font-size: 10px; fill: #000; opacity: 1;">0.7</text><text text-anchor="end" transform="translate(-7,166.63636363636363)" style="font-family: sans-serif; font-size: 10px; fill: #000; opacity: 1;">0.8</text><text text-anchor="end" transform="translate(-7,112.09090909090912)" style="font-family: sans-serif; font-size: 10px; fill: #000; opacity: 1;">0.9</text><text text-anchor="end" transform="translate(-7,57.54545454545456)" style="font-family: sans-serif; font-size: 10px; fill: #000; opacity: 1;">1.0</text><text text-anchor="end" transform="translate(-7,3)" style="font-family: sans-serif; font-size: 10px; fill: #000; opacity: 1;">1.1</text></g><g class="mark-rule role-axis-domain" style="pointer-events: none;"><line transform="translate(0,600)" x2="0" y2="-600" style="fill: none; stroke: #888; stroke-width: 1; opacity: 1;"></line></g><g class="mark-text role-axis-title" style="pointer-events: none;"><text text-anchor="middle" transform="translate(-35,300) rotate(-90) translate(0,-2)" style="font-family: sans-serif; font-size: 11px; font-weight: bold; fill: #000; opacity: 1;">Sum of Hours</text></g></g><path class="foreground" d="" style="pointer-events: none; display: none; fill: none;"></path></g></g><g class="mark-rect role-mark marks"><path d="M1.5384615384615472,145.80827732578717h27.692307692307693v12.734347364697584h-27.692307692307693Z" style="fill: #f58518;"></path><path d="M1.5384615384615472,54.545454545454696h27.692307692307693v91.26282278033247h-27.692307692307693Z" style="fill: #4c78a8;"></path><path d="M1.5384615384615472,158.54262469048476h27.692307692307693v252.56455606650147h-27.692307692307693Z" style="fill: #e45756;"></path><path d="M1.5384615384615472,476.9013088079236h27.692307692307693v89.14043155288294h-27.692307692307693Z" style="fill: #54a24b;"></path><path d="M1.5384615384615472,411.1071807569862h27.692307692307693v65.79412805093739h-27.692307692307693Z" style="fill: #72b7b2;"></path><path d="M1.5384615384615472,566.0417403608066h27.692307692307693v33.95825963919344h-27.692307692307693Z" style="fill: #b279a2;"></path><path d="M32.30769230769232,197.95134443021766h27.692307692307693v97.31113956466072h-27.692307692307693Z" style="fill: #e45756;"></path><path d="M32.30769230769232,366.9654289372599h27.692307692307693v192.06145966709352h-27.692307692307693Z" style="fill: #54a24b;"></path><path d="M32.30769230769232,54.54545454545456h27.692307692307693v143.4058898847631h-27.692307692307693Z" style="fill: #4c78a8;"></path><path d="M32.30769230769232,295.2624839948784h27.692307692307693v71.70294494238152h-27.692307692307693Z" style="fill: #72b7b2;"></path><path d="M32.30769230769232,559.0268886043534h27.692307692307693v40.97311139564658h-27.692307692307693Z" style="fill: #b279a2;"></path><path d="M63.07692307692309,166.96738376127672h27.692307692307693v52.04718945176958h-27.692307692307693Z" style="fill: #e45756;"></path><path d="M63.07692307692309,348.09160305343505h27.692307692307693v222.76197085357398h-27.692307692307693Z" style="fill: #54a24b;"></path><path d="M63.07692307692309,54.54545454545436h27.692307692307693v112.42192921582236h-27.692307692307693Z" style="fill: #4c78a8;"></path><path d="M63.07692307692309,219.0145732130463h27.692307692307693v129.07702984038875h-27.692307692307693Z" style="fill: #72b7b2;"></path><path d="M63.07692307692309,570.853573907009h27.692307692307693v29.146426092990964h-27.692307692307693Z" style="fill: #eeca3b;"></path><path d="M93.84615384615385,153.91120507399577h27.692307692307693v16.91331923890067h-27.692307692307693Z" style="fill: #f58518;"></path><path d="M93.84615384615385,394.9260042283298h27.692307692307693v147.99154334038053h-27.692307692307693Z" style="fill: #54a24b;"></path><path d="M93.84615384615385,244.82029598308665h27.692307692307693v150.10570824524316h-27.692307692307693Z" style="fill: #72b7b2;"></path><path d="M93.84615384615385,542.9175475687103h27.692307692307693v23.255813953488428h-27.692307692307693Z" style="fill: #eeca3b;"></path><path d="M93.84615384615385,170.82452431289644h27.692307692307693v73.99577167019021h-27.692307692307693Z" style="fill: #e45756;"></path><path d="M93.84615384615385,54.5454545454545h27.692307692307693v99.36575052854127h-27.692307692307693Z" style="fill: #4c78a8;"></path><path d="M93.84615384615385,566.1733615221988h27.692307692307693v33.826638477801225h-27.692307692307693Z" style="fill: #b279a2;"></path><path d="M124.61538461538463,417.5059141601893h27.692307692307693v152.07840486650895h-27.692307692307693Z" style="fill: #54a24b;"></path><path d="M124.61538461538463,186.34673876309566h27.692307692307693v77.05305846569789h-27.692307692307693Z" style="fill: #e45756;"></path><path d="M124.61538461538463,263.39979722879355h27.692307692307693v154.10611693139577h-27.692307692307693Z" style="fill: #72b7b2;"></path><path d="M124.61538461538463,54.54545454545456h27.692307692307693v131.8012842176411h-27.692307692307693Z" style="fill: #4c78a8;"></path><path d="M124.61538461538463,569.5843190266983h27.692307692307693v30.415680973301733h-27.692307692307693Z" style="fill: #eeca3b;"></path><path d="M155.3846153846154,428.78787878787887h27.692307692307693v74.24242424242419h-27.692307692307693Z" style="fill: #54a24b;"></path><path d="M155.3846153846154,503.03030303030306h27.692307692307693v72.72727272727269h-27.692307692307693Z" style="fill: #eeca3b;"></path><path d="M155.3846153846154,274.2424242424243h27.692307692307693v56.06060606060606h-27.692307692307693Z" style="fill: #e45756;"></path><path d="M155.3846153846154,54.545454545454696h27.692307692307693v219.6969696969696h-27.692307692307693Z" style="fill: #4c78a8;"></path><path d="M155.3846153846154,330.30303030303037h27.692307692307693v98.4848484848485h-27.692307692307693Z" style="fill: #72b7b2;"></path><path d="M155.3846153846154,575.7575757575758h27.692307692307693v24.24242424242425h-27.692307692307693Z" style="fill: #b279a2;"></path><path d="M186.15384615384616,469.9450016175995h27.692307692307693v62.11582012293752h-27.692307692307693Z" style="fill: #54a24b;"></path><path d="M186.15384615384616,54.54545454545456h27.692307692307693v161.11290844386932h-27.692307692307693Z" style="fill: #4c78a8;"></path><path d="M186.15384615384616,357.36007764477523h27.692307692307693v112.58492397282424h-27.692307692307693Z" style="fill: #72b7b2;"></path><path d="M186.15384615384616,568.9420899385312h27.692307692307693v31.05791006146876h-27.692307692307693Z" style="fill: #b279a2;"></path><path d="M186.15384615384616,227.3050792623747h27.692307692307693v130.05499838240053h-27.692307692307693Z" style="fill: #e45756;"></path><path d="M186.15384615384616,215.65836298932388h27.692307692307693v11.646716273050828h-27.692307692307693Z" style="fill: #f58518;"></path><path d="M186.15384615384616,532.060821740537h27.692307692307693v36.881268197994245h-27.692307692307693Z" style="fill: #eeca3b;"></path><path d="M216.92307692307693,54.54545454545463h27.692307692307693v50.699300699300736h-27.692307692307693Z" style="fill: #4c78a8;"></path><path d="M216.92307692307693,437.4125874125875h27.692307692307693v157.34265734265728h-27.692307692307693Z" style="fill: #54a24b;"></path><path d="M216.92307692307693,112.23776223776231h27.692307692307693v206.2937062937063h-27.692307692307693Z" style="fill: #e45756;"></path><path d="M216.92307692307693,318.5314685314686h27.692307692307693v118.88111888111894h-27.692307692307693Z" style="fill: #72b7b2;"></path><path d="M216.92307692307693,594.7552447552448h27.692307692307693v5.244755244755197h-27.692307692307693Z" style="fill: #eeca3b;"></path><path d="M216.92307692307693,105.24475524475537h27.692307692307693v6.993006993006944h-27.692307692307693Z" style="fill: #f58518;"></path><path d="M247.6923076923077,564.6382790629144h27.692307692307693v7.072344187417116h-27.692307692307693Z" style="fill: #eeca3b;"></path><path d="M247.6923076923077,150.02210107558577h27.692307692307693v28.28937674966849h-27.692307692307693Z" style="fill: #f58518;"></path><path d="M247.6923076923077,476.23397672020036h27.692307692307693v88.40430234271406h-27.692307692307693Z" style="fill: #54a24b;"></path><path d="M247.6923076923077,317.10623250331514h27.692307692307693v159.12774421688522h-27.692307692307693Z" style="fill: #72b7b2;"></path><path d="M247.6923076923077,178.31147782525426h27.692307692307693v138.79475467806088h-27.692307692307693Z" style="fill: #e45756;"></path><path d="M247.6923076923077,54.54545454545463h27.692307692307693v95.47664653013113h-27.692307692307693Z" style="fill: #4c78a8;"></path><path d="M247.6923076923077,571.7106232503315h27.692307692307693v28.289376749668463h-27.692307692307693Z" style="fill: #b279a2;"></path><path d="M278.46153846153845,54.54545454545456h27.692307692307693v60.32677000418934h-27.692307692307693Z" style="fill: #4c78a8;"></path><path d="M278.46153846153845,137.49476330121496h27.692307692307693v120.65354000837874h-27.692307692307693Z" style="fill: #e45756;"></path><path d="M278.46153846153845,258.1483033095937h27.692307692307693v100.54461667364887h-27.692307692307693Z" style="fill: #72b7b2;"></path><path d="M278.46153846153845,114.8722245496439h27.692307692307693v22.622538751571057h-27.692307692307693Z" style="fill: #f58518;"></path><path d="M278.46153846153845,358.6929199832426h27.692307692307693v241.30708001675742h-27.692307692307693Z" style="fill: #54a24b;"></path><path d="M309.2307692307692,283.9422259983008h27.692307692307693v197.11129991503822h-27.692307692307693Z" style="fill: #54a24b;"></path><path d="M309.2307692307692,81.73322005097712h27.692307692307693v25.488530161427335h-27.692307692307693Z" style="fill: #f58518;"></path><path d="M309.2307692307692,192.18351741716236h27.692307692307693v91.75870858113842h-27.692307692307693Z" style="fill: #72b7b2;"></path><path d="M309.2307692307692,54.54545454545456h27.692307692307693v27.187765505522563h-27.692307692307693Z" style="fill: #4c78a8;"></path><path d="M309.2307692307692,107.22175021240446h27.692307692307693v84.9617672047579h-27.692307692307693Z" style="fill: #e45756;"></path><path d="M309.2307692307692,481.053525913339h27.692307692307693v10.195412064570917h-27.692307692307693Z" style="fill: #eeca3b;"></path><path d="M309.2307692307692,491.2489379779099h27.692307692307693v108.75106202209008h-27.692307692307693Z" style="fill: #b279a2;"></path><path d="M340,125.4860746190227h27.692307692307693v108.77561744613766h-27.692307692307693Z" style="fill: #72b7b2;"></path><path d="M340,234.26169206516036h27.692307692307693v163.95165528113503h-27.692307692307693Z" style="fill: #54a24b;"></path><path d="M340,54.545454545454696h27.692307692307693v12.611665790856527h-27.692307692307693Z" style="fill: #4c78a8;"></path><path d="M340,104.99211770888088h27.692307692307693v20.49395691014182h-27.692307692307693Z" style="fill: #e45756;"></path><path d="M340,67.15712033631122h27.692307692307693v37.83499737256966h-27.692307692307693Z" style="fill: #f58518;"></path><path d="M340,398.2133473462954h27.692307692307693v201.7866526537046h-27.692307692307693Z" style="fill: #b279a2;"></path><path d="M370.7692307692308,67.63636363636354h27.692307692307693v15.272727272727238h-27.692307692307693Z" style="fill: #f58518;"></path><path d="M370.7692307692308,152.72727272727258h27.692307692307693v74.18181818181819h-27.692307692307693Z" style="fill: #72b7b2;"></path><path d="M370.7692307692308,226.90909090909076h27.692307692307693v305.4545454545456h-27.692307692307693Z" style="fill: #54a24b;"></path><path d="M370.7692307692308,82.90909090909078h27.692307692307693v69.8181818181818h-27.692307692307693Z" style="fill: #e45756;"></path><path d="M370.7692307692308,532.3636363636364h27.692307692307693v32.72727272727275h-27.692307692307693Z" style="fill: #eeca3b;"></path><path d="M370.7692307692308,54.5454545454545h27.692307692307693v13.090909090909044h-27.692307692307693Z" style="fill: #4c78a8;"></path><path d="M370.7692307692308,565.0909090909091h27.692307692307693v34.90909090909088h-27.692307692307693Z" style="fill: #b279a2;"></path><path d="M401.53846153846155,488.4297520661157h27.692307692307693v51.652892561983435h-27.692307692307693Z" style="fill: #54a24b;"></path><path d="M401.53846153846155,54.54545454545476h27.692307692307693v95.04132231404958h-27.692307692307693Z" style="fill: #4c78a8;"></path><path d="M401.53846153846155,331.40495867768607h27.692307692307693v157.02479338842966h-27.692307692307693Z" style="fill: #72b7b2;"></path><path d="M401.53846153846155,199.17355371900845h27.692307692307693v132.23140495867762h-27.692307692307693Z" style="fill: #e45756;"></path><path d="M401.53846153846155,149.58677685950434h27.692307692307693v49.58677685950411h-27.692307692307693Z" style="fill: #f58518;"></path><path d="M401.53846153846155,540.0826446280992h27.692307692307693v26.85950413223145h-27.692307692307693Z" style="fill: #eeca3b;"></path><path d="M401.53846153846155,566.9421487603306h27.692307692307693v33.05785123966939h-27.692307692307693Z" style="fill: #b279a2;"></path><path d="M432.3076923076923,178.59531772575272h27.692307692307693v164.1836424445119h-27.692307692307693Z" style="fill: #e45756;"></path><path d="M432.3076923076923,342.7789601702646h27.692307692307693v158.7108543630282h-27.692307692307693Z" style="fill: #72b7b2;"></path><path d="M432.3076923076923,167.64974156278524h27.692307692307693v10.945576162967484h-27.692307692307693Z" style="fill: #f58518;"></path><path d="M432.3076923076923,54.54545454545476h27.692307692307693v113.10428701733048h-27.692307692307693Z" style="fill: #4c78a8;"></path><path d="M432.3076923076923,501.4898145332928h27.692307692307693v71.1462450592885h-27.692307692307693Z" style="fill: #54a24b;"></path><path d="M432.3076923076923,572.6360595925813h27.692307692307693v27.36394040741868h-27.692307692307693Z" style="fill: #eeca3b;"></path><path d="M463.0769230769231,123.41597796143253h27.692307692307693v256.19834710743794h-27.692307692307693Z" style="fill: #e45756;"></path><path d="M463.0769230769231,434.7107438016529h27.692307692307693v115.70247933884303h-27.692307692307693Z" style="fill: #54a24b;"></path><path d="M463.0769230769231,550.4132231404959h27.692307692307693v5.509641873278156h-27.692307692307693Z" style="fill: #eeca3b;"></path><path d="M463.0769230769231,379.61432506887047h27.692307692307693v55.09641873278241h-27.692307692307693Z" style="fill: #72b7b2;"></path><path d="M463.0769230769231,555.9228650137741h27.692307692307693v44.07713498622593h-27.692307692307693Z" style="fill: #b279a2;"></path><path d="M463.0769230769231,68.31955922865018h27.692307692307693v55.096418732782354h-27.692307692307693Z" style="fill: #f58518;"></path><path d="M463.0769230769231,54.54545454545456h27.692307692307693v13.774104683195617h-27.692307692307693Z" style="fill: #4c78a8;"></path><path d="M493.84615384615387,77.6334776334777h27.692307692307693v14.430014430014467h-27.692307692307693Z" style="fill: #f58518;"></path><path d="M493.84615384615387,397.979797979798h27.692307692307693v152.958152958153h-27.692307692307693Z" style="fill: #54a24b;"></path><path d="M493.84615384615387,288.31168831168833h27.692307692307693v109.66810966810965h-27.692307692307693Z" style="fill: #72b7b2;"></path><path d="M493.84615384615387,92.06349206349216h27.692307692307693v196.24819624819617h-27.692307692307693Z" style="fill: #e45756;"></path><path d="M493.84615384615387,54.54545454545456h27.692307692307693v23.088023088023135h-27.692307692307693Z" style="fill: #4c78a8;"></path><path d="M493.84615384615387,550.937950937951h27.692307692307693v2.8860028860028706h-27.692307692307693Z" style="fill: #eeca3b;"></path><path d="M493.84615384615387,553.8239538239538h27.692307692307693v46.17604617604616h-27.692307692307693Z" style="fill: #b279a2;"></path><path d="M524.6153846153846,99.52153110047837h27.692307692307693v26.794258373205764h-27.692307692307693Z" style="fill: #f58518;"></path><path d="M524.6153846153846,126.31578947368413h27.692307692307693v265.0717703349284h-27.692307692307693Z" style="fill: #e45756;"></path><path d="M524.6153846153846,391.3875598086125h27.692307692307693v107.177033492823h-27.692307692307693Z" style="fill: #72b7b2;"></path><path d="M524.6153846153846,498.5645933014355h27.692307692307693v70.81339712918657h-27.692307692307693Z" style="fill: #54a24b;"></path><path d="M524.6153846153846,54.5454545454545h27.692307692307693v44.97607655502387h-27.692307692307693Z" style="fill: #4c78a8;"></path><path d="M524.6153846153846,569.377990430622h27.692307692307693v30.62200956937795h-27.692307692307693Z" style="fill: #b279a2;"></path><path d="M555.3846153846154,528.9772727272727h27.692307692307693v25.56818181818187h-27.692307692307693Z" style="fill: #54a24b;"></path><path d="M555.3846153846154,554.5454545454546h27.692307692307693v45.45454545454538h-27.692307692307693Z" style="fill: #b279a2;"></path><path d="M555.3846153846154,117.0454545454546h27.692307692307693v318.18181818181813h-27.692307692307693Z" style="fill: #e45756;"></path><path d="M555.3846153846154,435.22727272727275h27.692307692307693v93.75h-27.692307692307693Z" style="fill: #72b7b2;"></path><path d="M555.3846153846154,60.22727272727284h27.692307692307693v56.81818181818176h-27.692307692307693Z" style="fill: #f58518;"></path><path d="M555.3846153846154,54.54545454545463h27.692307692307693v5.681818181818208h-27.692307692307693Z" style="fill: #4c78a8;"></path><path d="M586.1538461538462,64.50809464508104h27.692307692307693v74.71980074719797h-27.692307692307693Z" style="fill: #f58518;"></path><path d="M586.1538461538462,331.00871731008715h27.692307692307693v191.78082191780834h-27.692307692307693Z" style="fill: #72b7b2;"></path><path d="M586.1538461538462,139.227895392279h27.692307692307693v191.78082191780814h-27.692307692307693Z" style="fill: #e45756;"></path><path d="M586.1538461538462,545.2054794520548h27.692307692307693v54.79452054794524h-27.692307692307693Z" style="fill: #eeca3b;"></path><path d="M586.1538461538462,54.54545454545463h27.692307692307693v9.962640099626412h-27.692307692307693Z" style="fill: #4c78a8;"></path><path d="M586.1538461538462,522.7895392278955h27.692307692307693v22.41594022415927h-27.692307692307693Z" style="fill: #54a24b;"></path><path d="M616.9230769230769,95.51856594110117h27.692307692307693v281.69014084507046h-27.692307692307693Z" style="fill: #e45756;"></path><path d="M616.9230769230769,559.0268886043534h27.692307692307693v40.97311139564658h-27.692307692307693Z" style="fill: #b279a2;"></path><path d="M616.9230769230769,507.81049935979513h27.692307692307693v51.216389244558286h-27.692307692307693Z" style="fill: #54a24b;"></path><path d="M616.9230769230769,377.2087067861716h27.692307692307693v130.60179257362353h-27.692307692307693Z" style="fill: #72b7b2;"></path><path d="M616.9230769230769,54.54545454545456h27.692307692307693v20.48655569782335h-27.692307692307693Z" style="fill: #4c78a8;"></path><path d="M616.9230769230769,75.03201024327791h27.692307692307693v20.486555697823263h-27.692307692307693Z" style="fill: #f58518;"></path><path d="M647.6923076923077,54.54545454545456h27.692307692307693v26.7379679144385h-27.692307692307693Z" style="fill: #4c78a8;"></path><path d="M647.6923076923077,428.8770053475936h27.692307692307693v125.66844919786104h-27.692307692307693Z" style="fill: #72b7b2;"></path><path d="M647.6923076923077,575.9358288770054h27.692307692307693v24.064171122994594h-27.692307692307693Z" style="fill: #eeca3b;"></path><path d="M647.6923076923077,113.36898395721926h27.692307692307693v315.5080213903743h-27.692307692307693Z" style="fill: #e45756;"></path><path d="M647.6923076923077,554.5454545454546h27.692307692307693v21.390374331550788h-27.692307692307693Z" style="fill: #54a24b;"></path><path d="M647.6923076923077,81.28342245989306h27.692307692307693v32.085561497326196h-27.692307692307693Z" style="fill: #f58518;"></path><path d="M678.4615384615385,91.48859109018484h27.692307692307693v275.98696124592533h-27.692307692307693Z" style="fill: #e45756;"></path><path d="M678.4615384615385,78.4498370155742h27.692307692307693v13.038754074610637h-27.692307692307693Z" style="fill: #f58518;"></path><path d="M678.4615384615385,54.545454545454696h27.692307692307693v23.904382470119508h-27.692307692307693Z" style="fill: #4c78a8;"></path><path d="M678.4615384615385,367.4755523361102h27.692307692307693v86.92502716407091h-27.692307692307693Z" style="fill: #72b7b2;"></path><path d="M678.4615384615385,454.4005795001811h27.692307692307693v6.519377037305333h-27.692307692307693Z" style="fill: #54a24b;"></path><path d="M678.4615384615385,460.9199565374864h27.692307692307693v139.08004346251357h-27.692307692307693Z" style="fill: #b279a2;"></path><path d="M709.2307692307693,187.66233766233768h27.692307692307693v285.7142857142857h-27.692307692307693Z" style="fill: #72b7b2;"></path><path d="M709.2307692307693,54.54545454545456h27.692307692307693v133.11688311688312h-27.692307692307693Z" style="fill: #e45756;"></path><path d="M709.2307692307693,473.3766233766234h27.692307692307693v22.727272727272748h-27.692307692307693Z" style="fill: #54a24b;"></path><path d="M709.2307692307693,496.10389610389615h27.692307692307693v103.89610389610385h-27.692307692307693Z" style="fill: #b279a2;"></path><path d="M740,532.4215607401449h27.692307692307693v67.57843925985514h-27.692307692307693Z" style="fill: #b279a2;"></path><path d="M740,334.5132743362832h27.692307692307693v144.81094127111828h-27.692307692307693Z" style="fill: #72b7b2;"></path><path d="M740,54.5454545454545h27.692307692307693v26.548672566371728h-27.692307692307693Z" style="fill: #f58518;"></path><path d="M740,81.09412711182623h27.692307692307693v253.41914722445696h-27.692307692307693Z" style="fill: #e45756;"></path><path d="M740,513.113435237329h27.692307692307693v19.30812550281587h-27.692307692307693Z" style="fill: #eeca3b;"></path><path d="M740,479.32421560740147h27.692307692307693v33.789219629927516h-27.692307692307693Z" style="fill: #54a24b;"></path><path d="M770.7692307692308,113.33696243875897h27.692307692307693v248.23081110506257h-27.692307692307693Z" style="fill: #e45756;"></path><path d="M770.7692307692308,361.56777354382154h27.692307692307693v176.37452367991284h-27.692307692307693Z" style="fill: #72b7b2;"></path><path d="M770.7692307692308,54.545454545454696h27.692307692307693v6.532389765922694h-27.692307692307693Z" style="fill: #4c78a8;"></path><path d="M770.7692307692308,557.5394665215024h27.692307692307693v9.798584648884116h-27.692307692307693Z" style="fill: #eeca3b;"></path><path d="M770.7692307692308,61.07784431137739h27.692307692307693v52.25911812738158h-27.692307692307693Z" style="fill: #f58518;"></path><path d="M770.7692307692308,537.9422972237344h27.692307692307693v19.597169297768005h-27.692307692307693Z" style="fill: #54a24b;"></path><path d="M770.7692307692308,567.3380511703865h27.692307692307693v32.66194882961349h-27.692307692307693Z" style="fill: #b279a2;"></path></g><g class="mark-group role-legend"><g transform="translate(818,0)"><path class="background" d="M0,0h112v105h-112Z" style="pointer-events: none; fill: none;"></path><g><g class="mark-group role-legend-entry"><g transform="translate(0,16)"><path class="background" d="M0,0h0v0h0Z" style="pointer-events: none; fill: none;"></path><g><g class="mark-group role-scope"><g transform="translate(0,0)"><path class="background" d="M0,0h112v11h-112Z" style="pointer-events: none; fill: none; opacity: 1;"></path><g><g class="mark-symbol role-legend-symbol" style="pointer-events: none;"><path transform="translate(6,6)" d="M-5,-5h10v10h-10Z" style="fill: #4c78a8; stroke-width: 1.5; opacity: 1;"></path></g><g class="mark-text role-legend-label" style="pointer-events: none;"><text text-anchor="start" transform="translate(16,9)" style="font-family: sans-serif; font-size: 10px; fill: #000; opacity: 1;">APOLLO</text></g></g><path class="foreground" d="" style="pointer-events: none; display: none; fill: none;"></path></g><g transform="translate(0,13)"><path class="background" d="M0,0h112v11h-112Z" style="pointer-events: none; fill: none; opacity: 1;"></path><g><g class="mark-symbol role-legend-symbol" style="pointer-events: none;"><path transform="translate(6,6)" d="M-5,-5h10v10h-10Z" style="fill: #f58518; stroke-width: 1.5; opacity: 1;"></path></g><g class="mark-text role-legend-label" style="pointer-events: none;"><text text-anchor="start" transform="translate(16,9)" style="font-family: sans-serif; font-size: 10px; fill: #000; opacity: 1;">EDF</text></g></g><path class="foreground" d="" style="pointer-events: none; display: none; fill: none;"></path></g><g transform="translate(0,26)"><path class="background" d="M0,0h112v11h-112Z" style="pointer-events: none; fill: none; opacity: 1;"></path><g><g class="mark-symbol role-legend-symbol" style="pointer-events: none;"><path transform="translate(6,6)" d="M-5,-5h10v10h-10Z" style="fill: #e45756; stroke-width: 1.5; opacity: 1;"></path></g><g class="mark-text role-legend-label" style="pointer-events: none;"><text text-anchor="start" transform="translate(16,9)" style="font-family: sans-serif; font-size: 10px; fill: #000; opacity: 1;">ETL</text></g></g><path class="foreground" d="" style="pointer-events: none; display: none; fill: none;"></path></g><g transform="translate(0,39)"><path class="background" d="M0,0h112v11h-112Z" style="pointer-events: none; fill: none; opacity: 1;"></path><g><g class="mark-symbol role-legend-symbol" style="pointer-events: none;"><path transform="translate(6,6)" d="M-5,-5h10v10h-10Z" style="fill: #72b7b2; stroke-width: 1.5; opacity: 1;"></path></g><g class="mark-text role-legend-label" style="pointer-events: none;"><text text-anchor="start" transform="translate(16,9)" style="font-family: sans-serif; font-size: 10px; fill: #000; opacity: 1;">GEM</text></g></g><path class="foreground" d="" style="pointer-events: none; display: none; fill: none;"></path></g><g transform="translate(0,52)"><path class="background" d="M0,0h112v11h-112Z" style="pointer-events: none; fill: none; opacity: 1;"></path><g><g class="mark-symbol role-legend-symbol" style="pointer-events: none;"><path transform="translate(6,6)" d="M-5,-5h10v10h-10Z" style="fill: #54a24b; stroke-width: 1.5; opacity: 1;"></path></g><g class="mark-text role-legend-label" style="pointer-events: none;"><text text-anchor="start" transform="translate(16,9)" style="font-family: sans-serif; font-size: 10px; fill: #000; opacity: 1;">L0MDT</text></g></g><path class="foreground" d="" style="pointer-events: none; display: none; fill: none;"></path></g><g transform="translate(0,65)"><path class="background" d="M0,0h112v11h-112Z" style="pointer-events: none; fill: none; opacity: 1;"></path><g><g class="mark-symbol role-legend-symbol" style="pointer-events: none;"><path transform="translate(6,6)" d="M-5,-5h10v10h-10Z" style="fill: #eeca3b; stroke-width: 1.5; opacity: 1;"></path></g><g class="mark-text role-legend-label" style="pointer-events: none;"><text text-anchor="start" transform="translate(16,9)" style="font-family: sans-serif; font-size: 10px; fill: #000; opacity: 1;">OTHER PRJ</text></g></g><path class="foreground" d="" style="pointer-events: none; display: none; fill: none;"></path></g><g transform="translate(0,78)"><path class="background" d="M0,0h112v11h-112Z" style="pointer-events: none; fill: none; opacity: 1;"></path><g><g class="mark-symbol role-legend-symbol" style="pointer-events: none;"><path transform="translate(6,6)" d="M-5,-5h10v10h-10Z" style="fill: #b279a2; stroke-width: 1.5; opacity: 1;"></path></g><g class="mark-text role-legend-label" style="pointer-events: none;"><text text-anchor="start" transform="translate(16,9)" style="font-family: sans-serif; font-size: 10px; fill: #000; opacity: 1;">VAC/SICK/HOL</text></g></g><path class="foreground" d="" style="pointer-events: none; display: none; fill: none;"></path></g></g></g><path class="foreground" d="" style="pointer-events: none; display: none; fill: none;"></path></g></g><g class="mark-text role-legend-title" style="pointer-events: none;"><text text-anchor="start" transform="translate(0,9)" style="font-family: sans-serif; font-size: 11px; font-weight: bold; fill: #000; opacity: 1;">Project</text></g></g><path class="foreground" d="" style="pointer-events: none; display: none; fill: none;"></path></g></g></g><path class="foreground" d="" style="display: none; fill: none;"></path></g></g></g></svg>