<svg class="marks" width="952" height="653" viewBox="0 0 952 653" version="1.1" xmlns="http://www.w3.org/2000/svg" xmlns:xlink="http://www.w3.org/1999/xlink"><rect width="952" height="653" style="fill: white;"></rect><g transform="translate(67,10)"><g class="mark-group role-frame root"><g transform="translate(0,0)"><path class="background" d="M0.5,0.5h800v600h-800Z" style="fill: none; stroke: #ddd;"></path><g><g class="mark-group role-axis"><g transform="translate(0.5,0.5)"><path class="background" d="M0,0h0v0h0Z" style="pointer-events: none; fill: none;"></path><g><g class="mark-rule role-axis-grid" style="pointer-events: none;"><line transform="translate(0,600)" x2="800" y2="0" style="fill: none; stroke: #ddd; stroke-width: 1; opacity: 1;"></line><line transform="translate(0,567)" x2="800" y2="0" style="fill: none; stroke: #ddd; stroke-width: 1; opacity: 1;"></line><line transform="translate(0,533)" x2="800" y2="0" style="fill: none; stroke: #ddd; stroke-width: 1; opacity: 1;"></line><line transform="translate(0,500)" x2="800" y2="0" style="fill: none; stroke: #ddd; stroke-width: 1; opacity: 1;"></line><line transform="translate(0,467)" x2="800" y2="0" style="fill: none; stroke: #ddd; stroke-width: 1; opacity: 1;"></line><line transform="translate(0,433)" x2="800" y2="0" style="fill: none; stroke: #ddd; stroke-width: 1; opacity: 1;"></line><line transform="translate(0,400)" x2="800" y2="0" style="fill: none; stroke: #ddd; stroke-width: 1; opacity: 1;"></line><line transform="translate(0,367)" x2="800" y2="0" style="fill: none; stroke: #ddd; stroke-width: 1; opacity: 1;"></line><line transform="translate(0,333)" x2="800" y2="0" style="fill: none; stroke: #ddd; stroke-width: 1; opacity: 1;"></line><line transform="translate(0,300)" x2="800" y2="0" style="fill: none; stroke: #ddd; stroke-width: 1; opacity: 1;"></line><line transform="translate(0,267)" x2="800" y2="0" style="fill: none; stroke: #ddd; stroke-width: 1; opacity: 1;"></line><line transform="translate(0,233)" x2="800" y2="0" style="fill: none; stroke: #ddd; stroke-width: 1; opacity: 1;"></line><line transform="translate(0,200)" x2="800" y2="0" style="fill: none; stroke: #ddd; stroke-width: 1; opacity: 1;"></line><line transform="translate(0,167)" x2="800" y2="0" style="fill: none; stroke: #ddd; stroke-width: 1; opacity: 1;"></line><line transform="translate(0,133)" x2="800" y2="0" style="fill: none; stroke: #ddd; stroke-width: 1; opacity: 1;"></line><line transform="translate(0,100)" x2="800" y2="0" style="fill: none; stroke: #ddd; stroke-width: 1; opacity: 1;"></line><line transform="translate(0,67)" x2="800" y2="0" style="fill: none; stroke: #ddd; stroke-width: 1; opacity: 1;"></line><line transform="translate(0,33)" x2="800" y2="0" style="fill: none; stroke: #ddd; stroke-width: 1; opacity: 1;"></line><line transform="translate(0,0)" x2="800" y2="0" style="fill: none; stroke: #ddd; stroke-width: 1; opacity: 1;"></line></g></g><path class="foreground" d="" style="pointer-events: none; display: none; fill: none;"></path></g></g><g class="mark-group role-axis"><g transform="translate(0.5,600.5)"><path class="background" d="M0,0h0v0h0Z" style="pointer-events: none; fill: none;"></path><g><g class="mark-rule role-axis-tick" style="pointer-events: none;"><line transform="translate(9,0)" x2="0" y2="5" style="fill: none; stroke: #888; stroke-width: 1; opacity: 1;"></line><line transform="translate(71,0)" x2="0" y2="5" style="fill: none; stroke: #888; stroke-width: 1; opacity: 1;"></line><line transform="translate(132,0)" x2="0" y2="5" style="fill: none; stroke: #888; stroke-width: 1; opacity: 1;"></line><line transform="translate(199,0)" x2="0" y2="5" style="fill: none; stroke: #888; stroke-width: 1; opacity: 1;"></line><line transform="translate(263,0)" x2="0" y2="5" style="fill: none; stroke: #888; stroke-width: 1; opacity: 1;"></line><line transform="translate(324,0)" x2="0" y2="5" style="fill: none; stroke: #888; stroke-width: 1; opacity: 1;"></line><line transform="translate(393,0)" x2="0" y2="5" style="fill: none; stroke: #888; stroke-width: 1; opacity: 1;"></line><line transform="translate(465,0)" x2="0" y2="5" style="fill: none; stroke: #888; stroke-width: 1; opacity: 1;"></line><line transform="translate(535,0)" x2="0" y2="5" style="fill: none; stroke: #888; stroke-width: 1; opacity: 1;"></line><line transform="translate(604,0)" x2="0" y2="5" style="fill: none; stroke: #888; stroke-width: 1; opacity: 1;"></line><line transform="translate(660,0)" x2="0" y2="5" style="fill: none; stroke: #888; stroke-width: 1; opacity: 1;"></line><line transform="translate(729,0)" x2="0" y2="5" style="fill: none; stroke: #888; stroke-width: 1; opacity: 1;"></line></g><g class="mark-text role-axis-label" style="pointer-events: none;"><text text-anchor="end" transform="translate(9.333333333333371,7) rotate(270) translate(0,3)" style="font-family: sans-serif; font-size: 10px; fill: #000; opacity: 1;">1</text><text text-anchor="end" transform="translate(70.6666666666667,7) rotate(270) translate(0,3)" style="font-family: sans-serif; font-size: 10px; fill: #000; opacity: 1;">2</text><text text-anchor="end" transform="translate(132.00000000000003,7) rotate(270) translate(0,3)" style="font-family: sans-serif; font-size: 10px; fill: #000; opacity: 1;">3</text><text text-anchor="end" transform="translate(198.66666666666669,7) rotate(270) translate(0,3)" style="font-family: sans-serif; font-size: 10px; fill: #000; opacity: 1;">4</text><text text-anchor="end" transform="translate(262.6666666666667,7) rotate(270) translate(0,3)" style="font-family: sans-serif; font-size: 10px; fill: #000; opacity: 1;">5</text><text text-anchor="end" transform="translate(324,7) rotate(270) translate(0,3)" style="font-family: sans-serif; font-size: 10px; fill: #000; opacity: 1;">6</text><text text-anchor="end" transform="translate(393.33333333333337,7) rotate(270) translate(0,3)" style="font-family: sans-serif; font-size: 10px; fill: #000; opacity: 1;">7</text><text text-anchor="end" transform="translate(465.33333333333337,7) rotate(270) translate(0,3)" style="font-family: sans-serif; font-size: 10px; fill: #000; opacity: 1;">8</text><text text-anchor="end" transform="translate(534.6666666666666,7) rotate(270) translate(0,3)" style="font-family: sans-serif; font-size: 10px; fill: #000; opacity: 1;">9</text><text text-anchor="end" transform="translate(604,7) rotate(270) translate(0,3)" style="font-family: sans-serif; font-size: 10px; fill: #000; opacity: 1;">10</text><text text-anchor="end" transform="translate(660,7) rotate(270) translate(0,3)" style="font-family: sans-serif; font-size: 10px; fill: #000; opacity: 1;">11</text><text text-anchor="end" transform="translate(729.3333333333334,7) rotate(270) translate(0,3)" style="font-family: sans-serif; font-size: 10px; fill: #000; opacity: 1;">12</text></g><g class="mark-rule role-axis-domain" style="pointer-events: none;"><line transform="translate(0,0)" x2="800" y2="0" style="fill: none; stroke: #888; stroke-width: 1; opacity: 1;"></line></g><g class="mark-text role-axis-title" style="pointer-events: none;"><text text-anchor="middle" transform="translate(400,36)" style="font-family: sans-serif; font-size: 11px; font-weight: bold; fill: #000; opacity: 1;">Date</text></g></g><path class="foreground" d="" style="pointer-events: none; display: none; fill: none;"></path></g></g><g class="mark-group role-axis"><g transform="translate(0.5,0.5)"><path class="background" d="M0,0h0v0h0Z" style="pointer-events: none; fill: none;"></path><g><g class="mark-rule role-axis-tick" style="pointer-events: none;"><line transform="translate(0,600)" x2="-5" y2="0" style="fill: none; stroke: #888; stroke-width: 1; opacity: 1;"></line><line transform="translate(0,567)" x2="-5" y2="0" style="fill: none; stroke: #888; stroke-width: 1; opacity: 1;"></line><line transform="translate(0,533)" x2="-5" y2="0" style="fill: none; stroke: #888; stroke-width: 1; opacity: 1;"></line><line transform="translate(0,500)" x2="-5" y2="0" style="fill: none; stroke: #888; stroke-width: 1; opacity: 1;"></line><line transform="translate(0,467)" x2="-5" y2="0" style="fill: none; stroke: #888; stroke-width: 1; opacity: 1;"></line><line transform="translate(0,433)" x2="-5" y2="0" style="fill: none; stroke: #888; stroke-width: 1; opacity: 1;"></line><line transform="translate(0,400)" x2="-5" y2="0" style="fill: none; stroke: #888; stroke-width: 1; opacity: 1;"></line><line transform="translate(0,367)" x2="-5" y2="0" style="fill: none; stroke: #888; stroke-width: 1; opacity: 1;"></line><line transform="translate(0,333)" x2="-5" y2="0" style="fill: none; stroke: #888; stroke-width: 1; opacity: 1;"></line><line transform="translate(0,300)" x2="-5" y2="0" style="fill: none; stroke: #888; stroke-width: 1; opacity: 1;"></line><line transform="translate(0,267)" x2="-5" y2="0" style="fill: none; stroke: #888; stroke-width: 1; opacity: 1;"></line><line transform="translate(0,233)" x2="-5" y2="0" style="fill: none; stroke: #888; stroke-width: 1; opacity: 1;"></line><line transform="translate(0,200)" x2="-5" y2="0" style="fill: none; stroke: #888; stroke-width: 1; opacity: 1;"></line><line transform="translate(0,167)" x2="-5" y2="0" style="fill: none; stroke: #888; stroke-width: 1; opacity: 1;"></line><line transform="translate(0,133)" x2="-5" y2="0" style="fill: none; stroke: #888; stroke-width: 1; opacity: 1;"></line><line transform="translate(0,100)" x2="-5" y2="0" style="fill: none; stroke: #888; stroke-width: 1; opacity: 1;"></line><line transform="translate(0,67)" x2="-5" y2="0" style="fill: none; stroke: #888; stroke-width: 1; opacity: 1;"></line><line transform="translate(0,33)" x2="-5" y2="0" style="fill: none; stroke: #888; stroke-width: 1; opacity: 1;"></line><line transform="translate(0,0)" x2="-5" y2="0" style="fill: none; stroke: #888; stroke-width: 1; opacity: 1;"></line></g><g class="mark-text role-axis-label" style="pointer-events: none;"><text text-anchor="end" transform="translate(-7,603)" style="font-family: sans-serif; font-size: 10px; fill: #000; opacity: 1;">0</text><text text-anchor="end" transform="translate(-7,569.6666666666666)" style="font-family: sans-serif; font-size: 10px; fill: #000; opacity: 1;">100</text><text text-anchor="end" transform="translate(-7,536.3333333333333)" style="font-family: sans-serif; font-size: 10px; fill: #000; opacity: 1;">200</text><text text-anchor="end" transform="translate(-7,503)" style="font-family: sans-serif; font-size: 10px; fill: #000; opacity: 1;">300</text><text text-anchor="end" transform="translate(-7,469.6666666666667)" style="font-family: sans-serif; font-size: 10px; fill: #000; opacity: 1;">400</text><text text-anchor="end" transform="translate(-7,436.3333333333333)" style="font-family: sans-serif; font-size: 10px; fill: #000; opacity: 1;">500</text><text text-anchor="end" transform="translate(-7,403.00000000000006)" style="font-family: sans-serif; font-size: 10px; fill: #000; opacity: 1;">600</text><text text-anchor="end" transform="translate(-7,369.6666666666667)" style="font-family: sans-serif; font-size: 10px; fill: #000; opacity: 1;">700</text><text text-anchor="end" transform="translate(-7,336.33333333333337)" style="font-family: sans-serif; font-size: 10px; fill: #000; opacity: 1;">800</text><text text-anchor="end" transform="translate(-7,303)" style="font-family: sans-serif; font-size: 10px; fill: #000; opacity: 1;">900</text><text text-anchor="end" transform="translate(-7,269.66666666666663)" style="font-family: sans-serif; font-size: 10px; fill: #000; opacity: 1;">1,000</text><text text-anchor="end" transform="translate(-7,236.33333333333331)" style="font-family: sans-serif; font-size: 10px; fill: #000; opacity: 1;">1,100</text><text text-anchor="end" transform="translate(-7,203.00000000000003)" style="font-family: sans-serif; font-size: 10px; fill: #000; opacity: 1;">1,200</text><text text-anchor="end" transform="translate(-7,169.66666666666669)" style="font-family: sans-serif; font-size: 10px; fill: #000; opacity: 1;">1,300</text><text text-anchor="end" transform="translate(-7,136.33333333333331)" style="font-family: sans-serif; font-size: 10px; fill: #000; opacity: 1;">1,400</text><text text-anchor="end" transform="translate(-7,102.99999999999997)" style="font-family: sans-serif; font-size: 10px; fill: #000; opacity: 1;">1,500</text><text text-anchor="end" transform="translate(-7,69.6666666666667)" style="font-family: sans-serif; font-size: 10px; fill: #000; opacity: 1;">1,600</text><text text-anchor="end" transform="translate(-7,36.33333333333335)" style="font-family: sans-serif; font-size: 10px; fill: #000; opacity: 1;">1,700</text><text text-anchor="end" transform="translate(-7,3)" style="font-family: sans-serif; font-size: 10px; fill: #000; opacity: 1;">1,800</text></g><g class="mark-rule role-axis-domain" style="pointer-events: none;"><line transform="translate(0,600)" x2="0" y2="-600" style="fill: none; stroke: #888; stroke-width: 1; opacity: 1;"></line></g><g class="mark-text role-axis-title" style="pointer-events: none;"><text text-anchor="middle" transform="translate(-51,300) rotate(-90) translate(0,-2)" style="font-family: sans-serif; font-size: 11px; font-weight: bold; fill: #000; opacity: 1;">Sum of Hours</text></g></g><path class="foreground" d="" style="pointer-events: none; display: none; fill: none;"></path></g></g><g class="mark-group role-scope pathgroup"><g transform="translate(0,0)"><path class="background" d="M0,0h800v600h-800Z" style="fill: none;"></path><g><g class="mark-line role-mark marks"><path d="M9.333333333333371,599.3333333333334L12.000000000000037,597L14.666666666666703,594.8333333333334L17.33333333333337,593.3333333333334L25.33333333333337,591.6666666666667L28.000000000000036,589.6666666666666L30.666666666666703,587.6666666666666L33.33333333333337,584.8333333333334L36.000000000000036,582.1666666666666L41.33333333333337,579.5L44.000000000000036,577L46.6666666666667,573.5L49.33333333333337,571L52.000000000000036,568.8333333333334L54.6666666666667,566L57.33333333333337,563.1666666666666L60.000000000000036,560.8333333333334L62.6666666666667,559.3333333333333L65.33333333333337,557.1666666666666L70.6666666666667,555.1666666666666L73.33333333333337,553.1666666666666L76.00000000000003,551.1666666666667L78.6666666666667,550.8333333333333L81.33333333333337,548.5L86.6666666666667,548.1666666666667L89.33333333333337,546.8333333333334L92.00000000000003,545.3333333333333L94.6666666666667,544L97.33333333333337,543L100.00000000000003,540.3333333333334L102.6666666666667,539.1666666666666L105.33333333333337,536.8333333333334L108.00000000000003,534.6666666666666L110.6666666666667,531.3333333333334L116.00000000000003,528.3333333333334L118.6666666666667,527.3333333333333L121.33333333333337,526.8333333333334L124.00000000000003,524.6666666666666L126.6666666666667,522.1666666666667L129.33333333333337,521.6666666666666L132.00000000000003,518.8333333333333L134.66666666666669,516.5L137.33333333333337,513.1666666666666L140.00000000000003,511.16666666666663L142.66666666666669,508.3333333333333L150.66666666666669,506.6666666666667L153.33333333333337,505.3333333333333L156.00000000000003,503.6666666666667L161.33333333333337,501L164.00000000000003,498.83333333333337L166.66666666666669,497L169.33333333333337,494L172.00000000000003,492.00000000000006L174.66666666666669,489.6666666666667L177.33333333333337,487.8333333333333L180.00000000000003,486.5L182.66666666666669,485.8333333333333L185.33333333333337,482.66666666666663L190.66666666666669,481L193.33333333333337,478.33333333333337L196.00000000000003,478L198.66666666666669,475.3333333333333L201.33333333333337,472.6666666666667L206.66666666666669,470.3333333333333L209.33333333333337,467.66666666666663L212.00000000000003,465.99999999999994L214.66666666666669,463.83333333333337L217.33333333333337,461.33333333333337L220.00000000000003,459L222.66666666666669,458.1666666666667L225.33333333333337,455.6666666666667L228.00000000000003,451.83333333333337L230.66666666666669,450.5L236.00000000000003,447.8333333333333L238.66666666666669,445L241.33333333333337,442.16666666666663L254.66666666666669,439.3333333333333L257.33333333333337,436.99999999999994L260,435L262.6666666666667,432.1666666666667L265.33333333333337,430L268,426.8333333333333L270.6666666666667,425.50000000000006L273.33333333333337,423.00000000000006L278.6666666666667,422.1666666666667L281.33333333333337,419.83333333333337L284,417.00000000000006L286.6666666666667,415.1666666666667L289.33333333333337,413.8333333333333L294.6666666666667,411.33333333333326L297.33333333333337,409.33333333333337L300,406.83333333333337L302.6666666666667,405.83333333333337L305.33333333333337,403.5L308,401L310.6666666666667,398L313.33333333333337,394.6666666666667L316,392.5L321.33333333333337,390.16666666666663L324,387.49999999999994L326.6666666666667,383L329.33333333333337,380.33333333333337L332,377.5L337.33333333333337,374.6666666666667L340,371.83333333333337L342.6666666666667,369.1666666666667L345.33333333333337,366.16666666666663L348,363.5L353.33333333333337,360.8333333333333L356,358.49999999999994L358.6666666666667,355.8333333333333L361.33333333333337,353.16666666666663L364,350.50000000000006L369.33333333333337,348.00000000000006L372,345.33333333333337L374.6666666666667,342.3333333333333L377.33333333333337,339.33333333333337L380,336.6666666666667L385.33333333333337,334.1666666666667L388,332.16666666666663L390.6666666666667,330.16666666666663L393.33333333333337,327.50000000000006L396,325.1666666666667L401.33333333333337,322.5L409.33333333333337,320.16666666666663L412,318.1666666666667L417.33333333333337,315.5L420,312.3333333333333L422.6666666666667,309L425.33333333333337,306.1666666666667L428,303.8333333333333L438.6666666666667,301.6666666666667L441.33333333333337,299.33333333333337L444,296.5L449.33333333333337,293.8333333333333L452,291.3333333333333L454.6666666666667,288.5L457.33333333333337,286L460,283.3333333333333L465.33333333333337,280.8333333333333L468,278.16666666666663L470.6666666666667,275.16666666666663L473.33333333333337,272.50000000000006L476,270.33333333333337L481.33333333333337,267.8333333333333L484,264.6666666666667L486.6666666666667,262.6666666666667L489.33333333333337,260.16666666666663L492,258.00000000000006L497.33333333333337,255.49999999999997L500,252.49999999999997L502.6666666666667,249.99999999999997L505.33333333333337,247.33333333333337L508,245L513.3333333333334,242L516,239.66666666666669L518.6666666666666,237.16666666666663L521.3333333333334,236.16666666666669L524,234L529.3333333333334,231.33333333333331L534.6666666666666,231L537.3333333333334,228.66666666666663L540,226.16666666666666L545.3333333333334,223.50000000000003L548,222L550.6666666666666,219.83333333333331L553.3333333333334,217.25L556,214.91666666666669L561.3333333333334,212.58333333333331L564,210.25000000000003L566.6666666666666,207.58333333333334L569.3333333333334,205.08333333333334L572,202.41666666666666L577.3333333333334,200.58333333333331L580,198.08333333333331L582.6666666666666,195.25L585.3333333333334,192.58333333333331L588,190.08333333333334L593.3333333333334,187.74999999999997L596,185.41666666666669L598.6666666666666,182.75L601.3333333333334,179.91666666666669L604,177.41666666666669L609.3333333333334,175.25000000000003L612,172.91666666666666L617.3333333333334,170.41666666666666L620,168.25L622.6666666666666,165.91666666666669L630.6666666666666,164.58333333333334L633.3333333333334,161.74999999999997L636,159.41666666666669L638.6666666666666,157.08333333333331L644,154.41666666666669L646.6666666666666,151.41666666666669L649.3333333333334,148.91666666666669L652,146.25L654.6666666666666,143.75000000000003L660,141.08333333333334L662.6666666666666,138.41666666666666L665.3333333333334,136.08333333333334L668,133.91666666666669L670.6666666666666,132.08333333333334L676,129.91666666666666L678.6666666666666,127.24999999999997L681.3333333333334,124.74999999999999L684,121.74999999999999L686.6666666666666,119.41666666666669L692,116.91666666666669L694.6666666666666,114.25L697.3333333333334,112.25000000000003L700,109.41666666666666L702.6666666666666,107.08333333333336L708,104.74999999999999L710.6666666666666,102.0833333333333L713.3333333333334,99.41666666666669L716,96.75L718.6666666666666,94.08333333333331L724,92.74999999999997L726.6666666666666,90.24999999999999L729.3333333333334,87.5833333333333L732,84.91666666666669L734.6666666666666,82.58333333333331L740,81.91666666666669L742.6666666666666,78.91666666666669L745.3333333333334,76.0833333333333L748,74.25000000000001L750.6666666666666,72.58333333333336L753.3333333333334,70.9166666666667L758.6666666666666,67.91666666666669L761.3333333333334,65.08333333333331L764,63.74999999999997L766.6666666666666,61.08333333333336L769.3333333333334,58.583333333333364L772,56.25L774.6666666666666,55.583333333333364L777.3333333333334,51.250000000000014L780,48.583333333333336L782.6666666666666,45.91666666666665L788,43.250000000000036L790.6666666666666,40.58333333333335L793.3333333333334,37.916666666666664L796,35.24999999999998L798.6666666666666,32.583333333333364" style="fill: none; stroke: #4c78a8; stroke-width: 2;"></path></g></g><path class="foreground" d="" style="display: none; fill: none;"></path></g><g transform="translate(0,0)"><path class="background" d="M0,0h800v600h-800Z" style="fill: none;"></path><g><g class="mark-line role-mark marks"><path d="M6.666666666666704,597.5L9.333333333333371,596.1666666666666L12.000000000000037,594L14.666666666666703,592.1666666666666L22.666666666666703,589.8333333333334L25.33333333333337,587.6666666666666L28.000000000000036,585.5L30.666666666666703,582.8333333333333L33.33333333333337,580.6666666666666L38.6666666666667,578L41.33333333333337,575.6666666666666L44.000000000000036,573.6666666666666L46.6666666666667,570.8333333333333L54.6666666666667,569.1666666666666L57.33333333333337,565.1666666666666L60.000000000000036,562.1666666666666L62.6666666666667,560L68.00000000000003,558.3333333333334L70.6666666666667,556L73.33333333333337,552.3333333333334L76.00000000000003,549.8333333333334L78.6666666666667,547.8333333333333L84.00000000000003,545.5L86.6666666666667,542.8333333333334L89.33333333333337,541.3333333333334L92.00000000000003,538.6666666666666L94.6666666666667,536.6666666666667L102.6666666666667,534L105.33333333333337,531.1666666666667L108.00000000000003,529.8333333333334L113.33333333333337,526.3333333333334L116.00000000000003,524.1666666666666L118.6666666666667,521.5L121.33333333333337,518.8333333333333L124.00000000000003,516.8333333333334L129.33333333333337,514.3333333333334L132.00000000000003,511.99999999999994L134.66666666666669,509.16666666666663L137.33333333333337,506.33333333333337L140.00000000000003,505L145.33333333333337,502.5L148.00000000000003,499.8333333333333L150.66666666666669,497.3333333333333L153.33333333333337,494.66666666666663L158.66666666666669,492.1666666666667L161.33333333333337,490.1666666666667L164.00000000000003,488.5L166.66666666666669,486.1666666666667L169.33333333333337,483.16666666666663L174.66666666666669,481.5L177.33333333333337,476.16666666666663L180.00000000000003,478L182.66666666666669,473.8333333333333L188.00000000000003,472L190.66666666666669,469.33333333333337L193.33333333333337,466.6666666666667L196.00000000000003,464.5L198.66666666666669,462.1666666666667L204.00000000000003,459.5L206.66666666666669,458.5L209.33333333333337,455.8333333333333L212.00000000000003,453.8333333333333L233.33333333333337,451.16666666666663L236.00000000000003,448.83333333333326L238.66666666666669,446.6666666666667L241.33333333333337,444L244.00000000000003,441.8333333333333L246.66666666666669,439.83333333333337L249.33333333333337,438L252.00000000000003,435.5L254.66666666666669,433.66666666666663L257.33333333333337,431.50000000000006L262.6666666666667,428.83333333333337L265.33333333333337,427.1666666666667L268,425.16666666666663L270.6666666666667,424.5L276,422.83333333333337L278.6666666666667,420.33333333333337L281.33333333333337,419.66666666666663L284,417.5L286.6666666666667,416L292,414.1666666666667L294.6666666666667,412.6666666666667L297.33333333333337,411.6666666666667L300,410L302.6666666666667,409.5L308,407.8333333333333L310.6666666666667,406.00000000000006L313.33333333333337,404.5L318.6666666666667,401.8333333333333L321.33333333333337,400.00000000000006L324,397.5L326.6666666666667,394.91666666666674L329.33333333333337,392.4166666666667L334.6666666666667,389.75000000000006L337.33333333333337,385.91666666666663L340,383.58333333333337L342.6666666666667,380.9166666666667L345.33333333333337,378.58333333333337L350.6666666666667,376.75L353.33333333333337,375.08333333333337L356,372.3333333333333L358.6666666666667,370.66666666666663L361.33333333333337,367.5L366.6666666666667,365.6666666666667L369.33333333333337,364.1666666666667L372,361.8333333333333L374.6666666666667,359.83333333333337L377.33333333333337,357.8333333333333L382.6666666666667,355.8333333333333L385.33333333333337,354.5L390.6666666666667,352.5L393.33333333333337,351.6666666666667L398.6666666666667,349L404,346.33333333333337L406.6666666666667,343.6666666666667L409.33333333333337,341L414.6666666666667,337.6666666666667L417.33333333333337,335L420,332.16666666666663L422.6666666666667,330.16666666666663L425.33333333333337,329.8333333333333L430.6666666666667,329.5L433.33333333333337,329L436,328.33333333333337L438.6666666666667,326.8333333333333L441.33333333333337,325.83333333333337L446.6666666666667,325.00000000000006L449.33333333333337,323.8333333333333L452,322.8333333333333L454.6666666666667,321.50000000000006L457.33333333333337,320.5L462.6666666666667,319.5L468,317.8333333333333L470.6666666666667,316.1666666666667L473.33333333333337,315.16666666666663L478.6666666666667,314.5L481.33333333333337,313.5L484,312.49999999999994L486.6666666666667,311.5L489.33333333333337,309.8333333333333L494.6666666666667,307.16666666666663L497.33333333333337,304.50000000000006L500,301.83333333333337L502.6666666666667,299.5L505.33333333333337,296.8333333333333L510.6666666666667,295.50000000000006L513.3333333333334,294.6666666666667L516,293L518.6666666666666,291.5L521.3333333333334,290.33333333333337L526.6666666666666,288.1666666666667L529.3333333333334,286L532,284.00000000000006L534.6666666666666,282.8333333333333L542.6666666666666,280.1666666666667L545.3333333333334,279.1666666666667L548,278.49999999999994L550.6666666666666,275.49999999999994L553.3333333333334,273.8333333333333L558.6666666666666,272.16666666666663L561.3333333333334,269.83333333333337L564,267.8333333333333L566.6666666666666,266.66666666666663L569.3333333333334,264.33333333333337L574.6666666666666,262.8333333333333L577.3333333333334,262L580,261.1666666666667L582.6666666666666,259.8333333333333L585.3333333333334,258.5L590.6666666666666,257.1666666666667L593.3333333333334,255.49999999999997L596,252.83333333333334L598.6666666666666,250.33333333333337L601.3333333333334,248.5L606.6666666666666,246.83333333333334L609.3333333333334,245.16666666666669L612,243.66666666666666L614.6666666666666,240L617.3333333333334,237.66666666666666L620,235.16666666666666L625.3333333333334,230.83333333333331L628,233.16666666666669L630.6666666666666,228.66666666666663L633.3333333333334,226.99999999999997L636,225L641.3333333333334,222.66666666666663L644,222L646.6666666666666,220.16666666666666L649.3333333333334,218.49999999999997L652,216.5L657.3333333333334,214.50000000000003L660,211.83333333333334L662.6666666666666,209.49999999999997L668,207.5L673.3333333333334,206.00000000000003L678.6666666666666,204.66666666666669L681.3333333333334,202.33333333333331L684,199.66666666666663L689.3333333333334,197.66666666666666L692,197.16666666666666L694.6666666666666,195.16666666666666L697.3333333333334,193.33333333333331L700,191L705.3333333333334,188.99999999999997L708,187.16666666666669L710.6666666666666,184.5L713.3333333333334,181.83333333333331L716,179.16666666666669L721.3333333333334,177.16666666666666L724,174.99999999999997L726.6666666666666,172.66666666666669L729.3333333333334,170.66666666666669L732,168.33333333333334L737.3333333333334,165.99999999999997L740,163.66666666666669L742.6666666666666,161.33333333333331L748,158.66666666666669L756,156L758.6666666666666,155.66666666666669L761.3333333333334,154.83333333333334L772,154.00000000000003L785.3333333333334,151.33333333333334L790.6666666666666,148.66666666666666L796,146.33333333333337L798.6666666666666,144.66666666666669" style="fill: none; stroke: #f58518; stroke-width: 2;"></path></g></g><path class="foreground" d="" style="display: none; fill: none;"></path></g><g transform="translate(0,0)"><path class="background" d="M0,0h800v600h-800Z" style="fill: none;"></path><g><g class="mark-line role-mark marks"><path d="M1.3333333333333712,597.3333333333334L4.000000000000037,595.8333333333334L6.666666666666704,594.8333333333334L9.333333333333371,592.8333333333334L12.000000000000037,590.8333333333334L20.000000000000036,588.8333333333334L22.666666666666703,587.1666666666666L25.33333333333337,585L28.000000000000036,582.6666666666667L30.666666666666703,581.8333333333334" style="fill: none; stroke: #e45756; stroke-width: 2;"></path></g></g><path class="foreground" d="" style="display: none; fill: none;"></path></g></g><g class="mark-group role-legend"><g transform="translate(819,0)"><path class="background" d="M0,0h61v53h-61Z" style="pointer-events: none; fill: none;"></path><g><g class="mark-group role-legend-entry"><g transform="translate(0,16)"><path class="background" d="M0,0h0v0h0Z" style="pointer-events: none; fill: none;"></path><g><g class="mark-group role-scope"><g transform="translate(0,0)"><path class="background" d="M0,0h48v11h-48Z" style="pointer-events: none; fill: none; opacity: 1;"></path><g><g class="mark-symbol role-legend-symbol" style="pointer-events: none;"><path transform="translate(6,6)" d="M-5,0L5,0" style="fill: none; stroke: #4c78a8; stroke-width: 1.5; opacity: 1;"></path></g><g class="mark-text role-legend-label" style="pointer-events: none;"><text text-anchor="start" transform="translate(16,9)" style="font-family: sans-serif; font-size: 10px; fill: #000; opacity: 1;">2021</text></g></g><path class="foreground" d="" style="pointer-events: none; display: none; fill: none;"></path></g><g transform="translate(0,13)"><path class="background" d="M0,0h48v11h-48Z" style="pointer-events: none; fill: none; opacity: 1;"></path><g><g class="mark-symbol role-legend-symbol" style="pointer-events: none;"><path transform="translate(6,6)" d="M-5,0L5,0" style="fill: none; stroke: #f58518; stroke-width: 1.5; opacity: 1;"></path></g><g class="mark-text role-legend-label" style="pointer-events: none;"><text text-anchor="start" transform="translate(16,9)" style="font-family: sans-serif; font-size: 10px; fill: #000; opacity: 1;">2022</text></g></g><path class="foreground" d="" style="pointer-events: none; display: none; fill: none;"></path></g><g transform="translate(0,26)"><path class="background" d="M0,0h48v11h-48Z" style="pointer-events: none; fill: none; opacity: 1;"></path><g><g class="mark-symbol role-legend-symbol" style="pointer-events: none;"><path transform="translate(6,6)" d="M-5,0L5,0" style="fill: none; stroke: #e45756; stroke-width: 1.5; opacity: 1;"></path></g><g class="mark-text role-legend-label" style="pointer-events: none;"><text text-anchor="start" transform="translate(16,9)" style="font-family: sans-serif; font-size: 10px; fill: #000; opacity: 1;">2023</text></g></g><path class="foreground" d="" style="pointer-events: none; display: none; fill: none;"></path></g></g></g><path class="foreground" d="" style="pointer-events: none; display: none; fill: none;"></path></g></g><g class="mark-text role-legend-title" style="pointer-events: none;"><text text-anchor="start" transform="translate(0,9)" style="font-family: sans-serif; font-size: 11px; font-weight: bold; fill: #000; opacity: 1;">Project</text></g></g><path class="foreground" d="" style="pointer-events: none; display: none; fill: none;"></path></g></g></g><path class="foreground" d="" style="display: none; fill: none;"></path></g></g></g></svg>