<svg class="marks" width="952" height="653" viewBox="0 0 952 653" version="1.1" xmlns="http://www.w3.org/2000/svg" xmlns:xlink="http://www.w3.org/1999/xlink"><rect width="952" height="653" style="fill: white;"></rect><g transform="translate(67,10)"><g class="mark-group role-frame root"><g transform="translate(0,0)"><path class="background" d="M0.5,0.5h800v600h-800Z" style="fill: none; stroke: #ddd;"></path><g><g class="mark-group role-axis"><g transform="translate(0.5,0.5)"><path class="background" d="M0,0h0v0h0Z" style="pointer-events: none; fill: none;"></path><g><g class="mark-rule role-axis-grid" style="pointer-events: none;"><line transform="translate(0,600)" x2="800" y2="0" style="fill: none; stroke: #ddd; stroke-width: 1; opacity: 1;"></line><line transform="translate(0,567)" x2="800" y2="0" style="fill: none; stroke: #ddd; stroke-width: 1; opacity: 1;"></line><line transform="translate(0,533)" x2="800" y2="0" style="fill: none; stroke: #ddd; stroke-width: 1; opacity: 1;"></line><line transform="translate(0,500)" x2="800" y2="0" style="fill: none; stroke: #ddd; stroke-width: 1; opacity: 1;"></line><line transform="translate(0,467)" x2="800" y2="0" style="fill: none; stroke: #ddd; stroke-width: 1; opacity: 1;"></line><line transform="translate(0,433)" x2="800" y2="0" style="fill: none; stroke: #ddd; stroke-width: 1; opacity: 1;"></line><line transform="translate(0,400)" x2="800" y2="0" style="fill: none; stroke: #ddd; stroke-width: 1; opacity: 1;"></line><line transform="translate(0,367)" x2="800" y2="0" style="fill: none; stroke: #ddd; stroke-width: 1; opacity: 1;"></line><line transform="translate(0,333)" x2="800" y2="0" style="fill: none; stroke: #ddd; stroke-width: 1; opacity: 1;"></line><line transform="translate(0,300)" x2="800" y2="0" style="fill: none; stroke: #ddd; stroke-width: 1; opacity: 1;"></line><line transform="translate(0,267)" x2="800" y2="0" style="fill: none; stroke: #ddd; stroke-width: 1; opacity: 1;"></line><line transform="translate(0,233)" x2="800" y2="0" style="fill: none; stroke: #ddd; stroke-width: 1; opacity: 1;"></line><line transform="translate(0,200)" x2="800" y2="0" style="fill: none; stroke: #ddd; stroke-width: 1; opacity: 1;"></line><line transform="translate(0,167)" x2="800" y2="0" style="fill: none; stroke: #ddd; stroke-width: 1; opacity: 1;"></line><line transform="translate(0,133)" x2="800" y2="0" style="fill: none; stroke: #ddd; stroke-width: 1; opacity: 1;"></line><line transform="translate(0,100)" x2="800" y2="0" style="fill: none; stroke: #ddd; stroke-width: 1; opacity: 1;"></line><line transform="translate(0,67)" x2="800" y2="0" style="fill: none; stroke: #ddd; stroke-width: 1; opacity: 1;"></line><line transform="translate(0,33)" x2="800" y2="0" style="fill: none; stroke: #ddd; stroke-width: 1; opacity: 1;"></line><line transform="translate(0,0)" x2="800" y2="0" style="fill: none; stroke: #ddd; stroke-width: 1; opacity: 1;"></line></g></g><path class="foreground" d="" style="pointer-events: none; display: none; fill: none;"></path></g></g><g class="mark-group role-axis"><g transform="translate(0.5,600.5)"><path class="background" d="M0,0h0v0h0Z" style="pointer-events: none; fill: none;"></path><g><g class="mark-rule role-axis-tick" style="pointer-events: none;"><line transform="translate(9,0)" x2="0" y2="5" style="fill: none; stroke: #888; stroke-width: 1; opacity: 1;"></line><line transform="translate(74,0)" x2="0" y2="5" style="fill: none; stroke: #888; stroke-width: 1; opacity: 1;"></line><line transform="translate(142,0)" x2="0" y2="5" style="fill: none; stroke: #888; stroke-width: 1; opacity: 1;"></line><line transform="translate(218,0)" x2="0" y2="5" style="fill: none; stroke: #888; stroke-width: 1; opacity: 1;"></line><line transform="translate(288,0)" x2="0" y2="5" style="fill: none; stroke: #888; stroke-width: 1; opacity: 1;"></line><line transform="translate(356,0)" x2="0" y2="5" style="fill: none; stroke: #888; stroke-width: 1; opacity: 1;"></line><line transform="translate(427,0)" x2="0" y2="5" style="fill: none; stroke: #888; stroke-width: 1; opacity: 1;"></line><line transform="translate(495,0)" x2="0" y2="5" style="fill: none; stroke: #888; stroke-width: 1; opacity: 1;"></line><line transform="translate(558,0)" x2="0" y2="5" style="fill: none; stroke: #888; stroke-width: 1; opacity: 1;"></line><line transform="translate(621,0)" x2="0" y2="5" style="fill: none; stroke: #888; stroke-width: 1; opacity: 1;"></line><line transform="translate(672,0)" x2="0" y2="5" style="fill: none; stroke: #888; stroke-width: 1; opacity: 1;"></line><line transform="translate(736,0)" x2="0" y2="5" style="fill: none; stroke: #888; stroke-width: 1; opacity: 1;"></line></g><g class="mark-text role-axis-label" style="pointer-events: none;"><text text-anchor="end" transform="translate(8.510638297872331,7) rotate(270) translate(0,3)" style="font-family: sans-serif; font-size: 10px; fill: #000; opacity: 1;">1</text><text text-anchor="end" transform="translate(74.1641337386018,7) rotate(270) translate(0,3)" style="font-family: sans-serif; font-size: 10px; fill: #000; opacity: 1;">2</text><text text-anchor="end" transform="translate(142.24924012158053,7) rotate(270) translate(0,3)" style="font-family: sans-serif; font-size: 10px; fill: #000; opacity: 1;">3</text><text text-anchor="end" transform="translate(217.62917933130697,7) rotate(270) translate(0,3)" style="font-family: sans-serif; font-size: 10px; fill: #000; opacity: 1;">4</text><text text-anchor="end" transform="translate(288.14589665653494,7) rotate(270) translate(0,3)" style="font-family: sans-serif; font-size: 10px; fill: #000; opacity: 1;">5</text><text text-anchor="end" transform="translate(356.23100303951367,7) rotate(270) translate(0,3)" style="font-family: sans-serif; font-size: 10px; fill: #000; opacity: 1;">6</text><text text-anchor="end" transform="translate(426.7477203647416,7) rotate(270) translate(0,3)" style="font-family: sans-serif; font-size: 10px; fill: #000; opacity: 1;">7</text><text text-anchor="end" transform="translate(494.83282674772033,7) rotate(270) translate(0,3)" style="font-family: sans-serif; font-size: 10px; fill: #000; opacity: 1;">8</text><text text-anchor="end" transform="translate(558.0547112462007,7) rotate(270) translate(0,3)" style="font-family: sans-serif; font-size: 10px; fill: #000; opacity: 1;">9</text><text text-anchor="end" transform="translate(621.2765957446809,7) rotate(270) translate(0,3)" style="font-family: sans-serif; font-size: 10px; fill: #000; opacity: 1;">10</text><text text-anchor="end" transform="translate(672.3404255319149,7) rotate(270) translate(0,3)" style="font-family: sans-serif; font-size: 10px; fill: #000; opacity: 1;">11</text><text text-anchor="end" transform="translate(735.5623100303951,7) rotate(270) translate(0,3)" style="font-family: sans-serif; font-size: 10px; fill: #000; opacity: 1;">12</text></g><g class="mark-rule role-axis-domain" style="pointer-events: none;"><line transform="translate(0,0)" x2="800" y2="0" style="fill: none; stroke: #888; stroke-width: 1; opacity: 1;"></line></g><g class="mark-text role-axis-title" style="pointer-events: none;"><text text-anchor="middle" transform="translate(400,36)" style="font-family: sans-serif; font-size: 11px; font-weight: bold; fill: #000; opacity: 1;">Date</text></g></g><path class="foreground" d="" style="pointer-events: none; display: none; fill: none;"></path></g></g><g class="mark-group role-axis"><g transform="translate(0.5,0.5)"><path class="background" d="M0,0h0v0h0Z" style="pointer-events: none; fill: none;"></path><g><g class="mark-rule role-axis-tick" style="pointer-events: none;"><line transform="translate(0,600)" x2="-5" y2="0" style="fill: none; stroke: #888; stroke-width: 1; opacity: 1;"></line><line transform="translate(0,567)" x2="-5" y2="0" style="fill: none; stroke: #888; stroke-width: 1; opacity: 1;"></line><line transform="translate(0,533)" x2="-5" y2="0" style="fill: none; stroke: #888; stroke-width: 1; opacity: 1;"></line><line transform="translate(0,500)" x2="-5" y2="0" style="fill: none; stroke: #888; stroke-width: 1; opacity: 1;"></line><line transform="translate(0,467)" x2="-5" y2="0" style="fill: none; stroke: #888; stroke-width: 1; opacity: 1;"></line><line transform="translate(0,433)" x2="-5" y2="0" style="fill: none; stroke: #888; stroke-width: 1; opacity: 1;"></line><line transform="translate(0,400)" x2="-5" y2="0" style="fill: none; stroke: #888; stroke-width: 1; opacity: 1;"></line><line transform="translate(0,367)" x2="-5" y2="0" style="fill: none; stroke: #888; stroke-width: 1; opacity: 1;"></line><line transform="translate(0,333)" x2="-5" y2="0" style="fill: none; stroke: #888; stroke-width: 1; opacity: 1;"></line><line transform="translate(0,300)" x2="-5" y2="0" style="fill: none; stroke: #888; stroke-width: 1; opacity: 1;"></line><line transform="translate(0,267)" x2="-5" y2="0" style="fill: none; stroke: #888; stroke-width: 1; opacity: 1;"></line><line transform="translate(0,233)" x2="-5" y2="0" style="fill: none; stroke: #888; stroke-width: 1; opacity: 1;"></line><line transform="translate(0,200)" x2="-5" y2="0" style="fill: none; stroke: #888; stroke-width: 1; opacity: 1;"></line><line transform="translate(0,167)" x2="-5" y2="0" style="fill: none; stroke: #888; stroke-width: 1; opacity: 1;"></line><line transform="translate(0,133)" x2="-5" y2="0" style="fill: none; stroke: #888; stroke-width: 1; opacity: 1;"></line><line transform="translate(0,100)" x2="-5" y2="0" style="fill: none; stroke: #888; stroke-width: 1; opacity: 1;"></line><line transform="translate(0,67)" x2="-5" y2="0" style="fill: none; stroke: #888; stroke-width: 1; opacity: 1;"></line><line transform="translate(0,33)" x2="-5" y2="0" style="fill: none; stroke: #888; stroke-width: 1; opacity: 1;"></line><line transform="translate(0,0)" x2="-5" y2="0" style="fill: none; stroke: #888; stroke-width: 1; opacity: 1;"></line></g><g class="mark-text role-axis-label" style="pointer-events: none;"><text text-anchor="end" transform="translate(-7,603)" style="font-family: sans-serif; font-size: 10px; fill: #000; opacity: 1;">0</text><text text-anchor="end" transform="translate(-7,569.6666666666666)" style="font-family: sans-serif; font-size: 10px; fill: #000; opacity: 1;">100</text><text text-anchor="end" transform="translate(-7,536.3333333333333)" style="font-family: sans-serif; font-size: 10px; fill: #000; opacity: 1;">200</text><text text-anchor="end" transform="translate(-7,503)" style="font-family: sans-serif; font-size: 10px; fill: #000; opacity: 1;">300</text><text text-anchor="end" transform="translate(-7,469.6666666666667)" style="font-family: sans-serif; font-size: 10px; fill: #000; opacity: 1;">400</text><text text-anchor="end" transform="translate(-7,436.3333333333333)" style="font-family: sans-serif; font-size: 10px; fill: #000; opacity: 1;">500</text><text text-anchor="end" transform="translate(-7,403.00000000000006)" style="font-family: sans-serif; font-size: 10px; fill: #000; opacity: 1;">600</text><text text-anchor="end" transform="translate(-7,369.6666666666667)" style="font-family: sans-serif; font-size: 10px; fill: #000; opacity: 1;">700</text><text text-anchor="end" transform="translate(-7,336.33333333333337)" style="font-family: sans-serif; font-size: 10px; fill: #000; opacity: 1;">800</text><text text-anchor="end" transform="translate(-7,303)" style="font-family: sans-serif; font-size: 10px; fill: #000; opacity: 1;">900</text><text text-anchor="end" transform="translate(-7,269.66666666666663)" style="font-family: sans-serif; font-size: 10px; fill: #000; opacity: 1;">1,000</text><text text-anchor="end" transform="translate(-7,236.33333333333331)" style="font-family: sans-serif; font-size: 10px; fill: #000; opacity: 1;">1,100</text><text text-anchor="end" transform="translate(-7,203.00000000000003)" style="font-family: sans-serif; font-size: 10px; fill: #000; opacity: 1;">1,200</text><text text-anchor="end" transform="translate(-7,169.66666666666669)" style="font-family: sans-serif; font-size: 10px; fill: #000; opacity: 1;">1,300</text><text text-anchor="end" transform="translate(-7,136.33333333333331)" style="font-family: sans-serif; font-size: 10px; fill: #000; opacity: 1;">1,400</text><text text-anchor="end" transform="translate(-7,102.99999999999997)" style="font-family: sans-serif; font-size: 10px; fill: #000; opacity: 1;">1,500</text><text text-anchor="end" transform="translate(-7,69.6666666666667)" style="font-family: sans-serif; font-size: 10px; fill: #000; opacity: 1;">1,600</text><text text-anchor="end" transform="translate(-7,36.33333333333335)" style="font-family: sans-serif; font-size: 10px; fill: #000; opacity: 1;">1,700</text><text text-anchor="end" transform="translate(-7,3)" style="font-family: sans-serif; font-size: 10px; fill: #000; opacity: 1;">1,800</text></g><g class="mark-rule role-axis-domain" style="pointer-events: none;"><line transform="translate(0,600)" x2="0" y2="-600" style="fill: none; stroke: #888; stroke-width: 1; opacity: 1;"></line></g><g class="mark-text role-axis-title" style="pointer-events: none;"><text text-anchor="middle" transform="translate(-51,300) rotate(-90) translate(0,-2)" style="font-family: sans-serif; font-size: 11px; font-weight: bold; fill: #000; opacity: 1;">Sum of Hours</text></g></g><path class="foreground" d="" style="pointer-events: none; display: none; fill: none;"></path></g></g><g class="mark-group role-scope pathgroup"><g transform="translate(0,0)"><path class="background" d="M0,0h800v600h-800Z" style="fill: none;"></path><g><g class="mark-line role-mark marks"><path d="M8.510638297872331,599.3333333333334L10.942249240121571,597L13.37386018237081,594.8333333333334L15.805471124620052,593.3333333333334L23.10030395136777,591.6666666666667L25.53191489361701,589.6666666666666L27.96352583586625,587.6666666666666L30.395136778115493,584.8333333333334L32.826747720364736,582.1666666666666L40.12158054711245,579.5L42.553191489361694,577L44.98480243161093,573.5L47.41641337386017,571L49.84802431610941,568.8333333333334L57.14285714285713,566L59.574468085106375,563.1666666666666L62.00607902735561,560.8333333333334L64.43768996960486,559.3333333333333L66.8693009118541,557.1666666666666L74.1641337386018,555.1666666666666L76.59574468085106,553.1666666666666L79.02735562310029,551.1666666666667L81.45896656534953,550.8333333333333L83.89057750759878,548.5L91.18541033434649,548.1666666666667L93.61702127659574,546.8333333333334L96.04863221884497,545.3333333333333L98.48024316109421,544L100.91185410334346,543L108.20668693009117,540.3333333333334L110.63829787234042,539.1666666666666L113.06990881458965,536.8333333333334L115.50151975683889,534.6666666666666L117.93313069908814,531.3333333333334L125.22796352583585,528.3333333333334L127.6595744680851,527.3333333333333L130.09118541033433,526.8333333333334L132.52279635258358,524.6666666666666L134.9544072948328,522.1666666666667L139.8176291793313,521.6666666666666L142.24924012158053,518.8333333333333L144.68085106382978,516.5L147.112462006079,513.1666666666666L149.54407294832825,511.16666666666663L151.9756838905775,508.3333333333333L164.1337386018237,506.6666666666667L166.56534954407294,505.3333333333333L168.99696048632217,503.6666666666667L176.2917933130699,501L178.72340425531914,498.83333333333337L181.15501519756836,497L183.5866261398176,494L186.01823708206686,492.00000000000006L193.31306990881458,489.6666666666667L195.7446808510638,487.8333333333333L198.17629179331306,486.5L200.6079027355623,485.8333333333333L203.03951367781153,482.66666666666663L210.33434650455925,481L212.7659574468085,478.33333333333337L215.19756838905772,478L217.62917933130697,475.3333333333333L220.06079027355622,472.6666666666667L227.35562310030394,470.3333333333333L229.78723404255317,467.66666666666663L232.21884498480242,465.99999999999994L234.65045592705167,463.83333333333337L237.0820668693009,461.33333333333337L241.94528875379936,459L244.3768996960486,458.1666666666667L246.80851063829786,455.6666666666667L249.24012158054708,451.83333333333337L251.67173252279633,450.5L258.96656534954406,447.8333333333333L261.3981762917933,445L263.82978723404256,442.16666666666663L275.9878419452887,439.3333333333333L278.419452887538,436.99999999999994L280.8510638297872,435L288.14589665653494,432.1666666666667L290.57750759878417,430L293.0091185410334,426.8333333333333L295.44072948328267,425.50000000000006L297.8723404255319,423.00000000000006L305.1671732522796,422.1666666666667L307.59878419452883,419.83333333333337L310.0303951367781,417.00000000000006L312.46200607902733,415.1666666666667L314.89361702127655,413.8333333333333L322.1884498480243,411.33333333333326L324.62006079027356,409.33333333333337L327.0516717325228,406.83333333333337L329.483282674772,405.83333333333337L336.7781155015197,403.5L339.209726443769,401L341.6413373860182,398L344.07294832826744,394.6666666666667L346.50455927051667,392.5L353.7993920972644,390.16666666666663L356.23100303951367,387.49999999999994L358.6626139817629,383L361.0942249240121,380.33333333333337L363.5258358662614,377.5L370.8206686930091,374.6666666666667L373.25227963525833,371.83333333333337L375.68389057750755,369.1666666666667L378.11550151975683,366.16666666666663L380.54711246200606,363.5L387.8419452887538,360.8333333333333L390.273556231003,358.49999999999994L392.7051671732523,355.8333333333333L395.1367781155015,353.16666666666663L397.5683890577507,350.50000000000006L404.86322188449844,348.00000000000006L407.29483282674767,345.33333333333337L409.72644376899694,342.3333333333333L412.15805471124617,339.33333333333337L414.5896656534954,336.6666666666667L419.4528875379939,334.1666666666667L421.8844984802431,332.16666666666663L424.3161094224924,330.16666666666663L426.7477203647416,327.50000000000006L429.17933130699083,325.1666666666667L436.47416413373855,322.5L443.7689969604863,320.16666666666663L446.20060790273556,318.1666666666667L451.063829787234,315.5L453.4954407294833,312.3333333333333L455.9270516717325,309L458.3586626139817,306.1666666666667L460.790273556231,303.8333333333333L470.51671732522794,301.6666666666667L472.94832826747717,299.33333333333337L475.3799392097264,296.5L480.2431610942249,293.8333333333333L482.6747720364741,291.3333333333333L485.1063829787234,288.5L487.5379939209726,286L489.96960486322183,283.3333333333333L494.83282674772033,280.8333333333333L497.26443768996955,278.16666666666663L499.69604863221883,275.16666666666663L502.12765957446805,272.50000000000006L504.5592705167173,270.33333333333337L509.4224924012158,267.8333333333333L511.854103343465,264.6666666666667L514.2857142857142,262.6666666666667L516.7173252279636,260.16666666666663L519.1489361702127,258.00000000000006L524.0121580547111,255.49999999999997L526.4437689969604,252.49999999999997L528.8753799392098,249.99999999999997L531.3069908814589,247.33333333333337L533.7386018237082,245L538.6018237082067,242L541.033434650456,239.66666666666669L543.4650455927051,237.16666666666663L545.8966565349544,236.16666666666669L548.3282674772036,234L553.191489361702,231.33333333333331L558.0547112462007,231L560.4863221884498,228.66666666666663L562.9179331306991,226.16666666666666L567.7811550151976,223.50000000000003L570.2127659574467,222L572.644376899696,219.83333333333331L575.0759878419453,217.25L577.5075987841944,214.91666666666669L582.3708206686929,212.58333333333331L584.8024316109422,210.25000000000003L587.2340425531916,207.58333333333334L589.6656534954407,205.08333333333334L592.09726443769,202.41666666666666L596.9604863221884,200.58333333333331L599.3920972644376,198.08333333333331L601.8237082066869,195.25L604.2553191489362,192.58333333333331L606.6869300911853,190.08333333333334L611.5501519756838,187.74999999999997L613.9817629179331,185.41666666666669L616.4133738601824,182.75L618.8449848024316,179.91666666666669L621.2765957446809,177.41666666666669L626.1398176291793,175.25000000000003L628.5714285714284,172.91666666666666L633.4346504559271,170.41666666666666L635.8662613981762,168.25L638.2978723404256,165.91666666666669L645.5927051671731,164.58333333333334L648.0243161094224,161.74999999999997L650.4559270516718,159.41666666666669L652.8875379939209,157.08333333333331L657.7507598784193,154.41666666666669L660.1823708206687,151.41666666666669L662.613981762918,148.91666666666669L665.0455927051671,146.25L667.4772036474164,143.75000000000003L672.3404255319149,141.08333333333334L674.772036474164,138.41666666666666L677.2036474164133,136.08333333333334L679.6352583586627,133.91666666666669L682.0668693009118,132.08333333333334L686.9300911854102,129.91666666666666L689.3617021276596,127.24999999999997L691.7933130699087,124.74999999999999L694.224924012158,121.74999999999999L696.6565349544073,119.41666666666669L701.5197568389058,116.91666666666669L703.9513677811549,114.25L706.3829787234042,112.25000000000003L708.8145896656536,109.41666666666666L711.2462006079027,107.08333333333336L716.1094224924011,104.74999999999999L718.5410334346504,102.0833333333333L720.9726443768996,99.41666666666669L723.4042553191489,96.75L725.8358662613982,94.08333333333331L730.6990881458967,92.74999999999997L733.1306990881458,90.24999999999999L735.5623100303951,87.5833333333333L737.9939209726444,84.91666666666669L740.4255319148936,82.58333333333331L745.288753799392,81.91666666666669L747.7203647416413,78.91666666666669L750.1519756838904,76.0833333333333L752.5835866261398,74.25000000000001L755.0151975683891,72.58333333333336L757.4468085106382,70.9166666666667L762.3100303951367,67.91666666666669L764.741641337386,65.08333333333331L767.1732522796351,63.74999999999997L769.6048632218844,61.08333333333336L772.0364741641338,58.583333333333364L774.4680851063829,56.25L776.8996960486322,55.583333333333364L779.3313069908813,51.250000000000014L781.7629179331307,48.583333333333336L784.19452887538,45.91666666666665L789.0577507598784,43.250000000000036L791.4893617021276,40.58333333333335L793.9209726443769,37.916666666666664L796.352583586626,35.24999999999998L798.7841945288753,32.583333333333364" style="fill: none; stroke: #4c78a8; stroke-width: 2;"></path></g></g><path class="foreground" d="" style="display: none; fill: none;"></path></g><g transform="translate(0,0)"><path class="background" d="M0,0h800v600h-800Z" style="fill: none;"></path><g><g class="mark-line role-mark marks"><path d="M6.079027355623091,597.5L8.510638297872331,596.1666666666666L10.942249240121571,594L13.37386018237081,592.1666666666666L20.66869300911853,589.8333333333334L23.10030395136777,587.6666666666666L25.53191489361701,585.5L27.96352583586625,582.8333333333333L30.395136778115493,580.6666666666666L37.68996960486321,578L40.12158054711245,575.6666666666666L42.553191489361694,573.6666666666666L44.98480243161093,570.8333333333333L57.14285714285713,569.1666666666666L59.574468085106375,565.1666666666666L62.00607902735561,562.1666666666666L64.43768996960486,560L71.73252279635257,558.3333333333334L74.1641337386018,556L76.59574468085106,552.3333333333334L79.02735562310029,549.8333333333334L81.45896656534953,547.8333333333333L88.75379939209725,545.5L91.18541033434649,542.8333333333334L93.61702127659574,541.3333333333334L96.04863221884497,538.6666666666666L98.48024316109421,536.6666666666667L110.63829787234042,534L113.06990881458965,531.1666666666667L115.50151975683889,529.8333333333334L122.79635258358661,526.3333333333334L125.22796352583585,524.1666666666666L127.6595744680851,521.5L130.09118541033433,518.8333333333333L132.52279635258358,516.8333333333334L139.8176291793313,514.3333333333334L142.24924012158053,511.99999999999994L144.68085106382978,509.16666666666663L147.112462006079,506.33333333333337L149.54407294832825,505L159.27051671732522,502.5L161.70212765957444,499.8333333333333L164.1337386018237,497.3333333333333L166.56534954407294,494.66666666666663L173.86018237082064,492.1666666666667L176.2917933130699,490.1666666666667L178.72340425531914,488.5L181.15501519756836,486.1666666666667L183.5866261398176,483.16666666666663L193.31306990881458,481.5L195.7446808510638,476.16666666666663L198.17629179331306,478L200.6079027355623,473.8333333333333L207.90273556231,472L210.33434650455925,469.33333333333337L212.7659574468085,466.6666666666667L215.19756838905772,464.5L217.62917933130697,462.1666666666667L224.9240121580547,459.5L227.35562310030394,458.5L229.78723404255317,455.8333333333333L232.21884498480242,453.8333333333333L256.5349544072948,451.16666666666663L258.96656534954406,448.83333333333326L261.3981762917933,446.6666666666667L263.82978723404256,444L266.2613981762918,441.8333333333333L268.693009118541,439.83333333333337L271.1246200607903,438L273.5562310030395,435.5L275.9878419452887,433.66666666666663L278.419452887538,431.50000000000006L288.14589665653494,428.83333333333337L290.57750759878417,427.1666666666667L293.0091185410334,425.16666666666663L295.44072948328267,424.5L302.7355623100304,422.83333333333337L305.1671732522796,420.33333333333337L307.59878419452883,419.66666666666663L310.0303951367781,417.5L312.46200607902733,416L319.75683890577506,414.1666666666667L322.1884498480243,412.6666666666667L324.62006079027356,411.6666666666667L327.0516717325228,410L329.483282674772,409.5L339.209726443769,407.8333333333333L341.6413373860182,406.00000000000006L344.07294832826744,404.5L351.36778115501517,401.8333333333333L353.7993920972644,400.00000000000006L356.23100303951367,397.5L358.6626139817629,394.91666666666674L361.0942249240121,392.4166666666667L368.38905775075983,389.75000000000006L370.8206686930091,385.91666666666663L373.25227963525833,383.58333333333337L375.68389057750755,380.9166666666667L378.11550151975683,378.58333333333337L385.41033434650456,376.75L387.8419452887538,375.08333333333337L390.273556231003,372.3333333333333L392.7051671732523,370.66666666666663L395.1367781155015,367.5L402.4316109422492,365.6666666666667L404.86322188449844,364.1666666666667L407.29483282674767,361.8333333333333L409.72644376899694,359.83333333333337L412.15805471124617,357.8333333333333L417.02127659574467,355.8333333333333L419.4528875379939,354.5L424.3161094224924,352.5L426.7477203647416,351.6666666666667L434.04255319148933,349L438.90577507598783,346.33333333333337L441.33738601823705,343.6666666666667L443.7689969604863,341L448.6322188449848,337.6666666666667L451.063829787234,335L453.4954407294833,332.16666666666663L455.9270516717325,330.16666666666663L458.3586626139817,329.8333333333333L463.2218844984802,329.5L465.65349544072944,329L468.0851063829787,328.33333333333337L470.51671732522794,326.8333333333333L472.94832826747717,325.83333333333337L477.81155015197567,325.00000000000006L480.2431610942249,323.8333333333333L482.6747720364741,322.8333333333333L485.1063829787234,321.50000000000006L487.5379939209726,320.5L492.4012158054711,319.5L497.26443768996955,317.8333333333333L499.69604863221883,316.1666666666667L502.12765957446805,315.16666666666663L506.99088145896656,314.5L509.4224924012158,313.5L511.854103343465,312.49999999999994L514.2857142857142,311.5L516.7173252279636,309.8333333333333L521.580547112462,307.16666666666663L524.0121580547111,304.50000000000006L526.4437689969604,301.83333333333337L528.8753799392098,299.5L531.3069908814589,296.8333333333333L536.1702127659573,295.50000000000006L538.6018237082067,294.6666666666667L541.033434650456,293L543.4650455927051,291.5L545.8966565349544,290.33333333333337L550.7598784194529,288.1666666666667L553.191489361702,286L555.6231003039513,284.00000000000006L558.0547112462007,282.8333333333333L565.3495440729482,280.1666666666667L567.7811550151976,279.1666666666667L570.2127659574467,278.49999999999994L572.644376899696,275.49999999999994L575.0759878419453,273.8333333333333L579.9392097264438,272.16666666666663L582.3708206686929,269.83333333333337L584.8024316109422,267.8333333333333L587.2340425531916,266.66666666666663L589.6656534954407,264.33333333333337L594.5288753799391,262.8333333333333L596.9604863221884,262L599.3920972644376,261.1666666666667L601.8237082066869,259.8333333333333L604.2553191489362,258.5L609.1185410334347,257.1666666666667L611.5501519756838,255.49999999999997L613.9817629179331,252.83333333333334L616.4133738601824,250.33333333333337L618.8449848024316,248.5L623.70820668693,246.83333333333334L626.1398176291793,245.16666666666669L628.5714285714284,243.66666666666666L631.0030395136778,240L633.4346504559271,237.66666666666666L635.8662613981762,235.16666666666666L640.7294832826747,230.83333333333331L643.161094224924,233.16666666666669L645.5927051671731,228.66666666666663L648.0243161094224,226.99999999999997L650.4559270516718,225L655.3191489361702,222.66666666666663L657.7507598784193,222L660.1823708206687,220.16666666666666L662.613981762918,218.49999999999997L665.0455927051671,216.5L669.9088145896656,214.50000000000003L672.3404255319149,211.83333333333334L674.772036474164,209.49999999999997L679.6352583586627,207.5L684.4984802431611,206.00000000000003L689.3617021276596,204.66666666666669L691.7933130699087,202.33333333333331L694.224924012158,199.66666666666663L699.0881458966564,197.66666666666666L701.5197568389058,197.16666666666666L703.9513677811549,195.16666666666666L706.3829787234042,193.33333333333331L708.8145896656536,191L713.677811550152,188.99999999999997L716.1094224924011,187.16666666666669L718.5410334346504,184.5L720.9726443768996,181.83333333333331L723.4042553191489,179.16666666666669L728.2674772036473,177.16666666666666L730.6990881458967,174.99999999999997L733.1306990881458,172.66666666666669L735.5623100303951,170.66666666666669L737.9939209726444,168.33333333333334L742.8571428571429,165.99999999999997L745.288753799392,163.66666666666669L747.7203647416413,161.33333333333331L752.5835866261398,158.66666666666669L759.8784194528876,156L762.3100303951367,155.66666666666669L764.741641337386,154.83333333333334L774.4680851063829,154.00000000000003L786.6261398176291,151.33333333333334L791.4893617021276,148.66666666666666L796.352583586626,146.33333333333337L798.7841945288753,144.66666666666669" style="fill: none; stroke: #f58518; stroke-width: 2;"></path></g></g><path class="foreground" d="" style="display: none; fill: none;"></path></g><g transform="translate(0,0)"><path class="background" d="M0,0h800v600h-800Z" style="fill: none;"></path><g><g class="mark-line role-mark marks"><path d="M1.215805471124611,597.3333333333334L3.647416413373851,595.8333333333334L6.079027355623091,594.8333333333334L8.510638297872331,592.8333333333334L10.942249240121571,590.8333333333334L18.23708206686929,588.8333333333334L20.66869300911853,587.1666666666666L23.10030395136777,585L25.53191489361701,582.6666666666667L27.96352583586625,581.8333333333334L35.25835866261397,579.8333333333333L40.12158054711245,579.5L42.553191489361694,578L44.98480243161093,575.1666666666666L52.27963525835865,573.1666666666666L54.71124620060789,571L57.14285714285713,568.8333333333334L59.574468085106375,567.1666666666666L62.00607902735561,566.1666666666666L69.30091185410333,564.5L71.73252279635257,562.3333333333333L74.1641337386018,560.1666666666667L76.59574468085106,559L79.02735562310029,557.6666666666666L86.32218844984801,556.3333333333333L88.75379939209725,555.1666666666666L91.18541033434649,553L93.61702127659574,551.3333333333334L96.04863221884497,549.8333333333334L103.3434650455927,548.3333333333334L105.77507598784193,547L108.20668693009117,545.8333333333334L110.63829787234042,544.5833333333334L113.06990881458965,543.0833333333334L120.36474164133737,541.4166666666667L122.79635258358661,539.3333333333333L125.22796352583585,537.6666666666666L127.6595744680851,535.8333333333334L130.09118541033433,534.6666666666666L134.9544072948328,534.5L137.38601823708206,532.6666666666666L139.8176291793313,530.5L142.24924012158053,528.3333333333334L144.68085106382978,527L147.112462006079,525.5L154.40729483282672,524L156.83890577507597,522.3333333333334L159.27051671732522,520.6666666666666L161.70212765957444,519.3333333333333L164.1337386018237,518.3333333333334L171.42857142857142,517.5L173.86018237082064,515.8333333333334L176.2917933130699,514L178.72340425531914,513.1666666666666L181.15501519756836,511.5L188.44984802431608,509.5L190.88145896656533,508L193.31306990881458,505L195.7446808510638,503.49999999999994L198.17629179331306,502.1666666666667L200.6079027355623,501.5L205.47112462006078,499.6666666666667L207.90273556231,497.66666666666663L210.33434650455925,495.6666666666667L212.7659574468085,494L215.19756838905772,492.33333333333337L222.49240121580544,490.5L224.9240121580547,488.99999999999994L227.35562310030394,487.1666666666667L229.78723404255317,485.8333333333333L232.21884498480242,484.1666666666667L239.51367781155014,481.3333333333333L241.94528875379936,479.1666666666667L246.80851063829786,477.83333333333337L254.10334346504558,476.16666666666663L256.5349544072948,475.3333333333333L258.96656534954406,473.8333333333333L261.3981762917933,472.1666666666667L263.82978723404256,471.66666666666663L283.28267477203644,471.50000000000006L285.71428571428567,471.3333333333333L290.57750759878417,469.5L293.0091185410334,468.3333333333333L300.3039513677811,466.5L302.7355623100304,465.16666666666663L305.1671732522796,463.5L307.59878419452883,462.1666666666667L310.0303951367781,461L317.32522796352583,459.3333333333333L319.75683890577506,457.83333333333337L322.1884498480243,456L324.62006079027356,454.6666666666667L327.0516717325228,453.6666666666667L331.9148936170213,451.3333333333333L334.3465045592705,448.3333333333333L336.7781155015197,446.3333333333333L339.209726443769,445L341.6413373860182,444L348.93617021276594,442.3333333333333L351.36778115501517,441L353.7993920972644,438.33333333333337L356.23100303951367,435.6666666666667L358.6626139817629,434.33333333333337L365.9574468085106,432.66666666666663L368.38905775075983,431.6666666666667L370.8206686930091,429.6666666666667L373.25227963525833,428.6666666666667L375.68389057750755,427.3333333333333L382.9787234042553,426L385.41033434650456,424.8333333333333L387.8419452887538,422L390.273556231003,419.16666666666663L392.7051671732523,417.83333333333337L400,415.8333333333333L402.4316109422492,414.1666666666667L404.86322188449844,412.6666666666667L407.29483282674767,410.66666666666663L409.72644376899694,410L419.4528875379939,409L421.8844984802431,407.16666666666663L424.3161094224924,405.6666666666667L431.6109422492401,404L434.04255319148933,402.33333333333337L436.47416413373855,400.5833333333333L438.90577507598783,399.41666666666663L441.33738601823705,398.75" style="fill: none; stroke: #e45756; stroke-width: 2;"></path></g></g><path class="foreground" d="" style="display: none; fill: none;"></path></g></g><g class="mark-group role-legend"><g transform="translate(819,0)"><path class="background" d="M0,0h61v53h-61Z" style="pointer-events: none; fill: none;"></path><g><g class="mark-group role-legend-entry"><g transform="translate(0,16)"><path class="background" d="M0,0h0v0h0Z" style="pointer-events: none; fill: none;"></path><g><g class="mark-group role-scope"><g transform="translate(0,0)"><path class="background" d="M0,0h48v11h-48Z" style="pointer-events: none; fill: none; opacity: 1;"></path><g><g class="mark-symbol role-legend-symbol" style="pointer-events: none;"><path transform="translate(6,6)" d="M-5,0L5,0" style="fill: none; stroke: #4c78a8; stroke-width: 1.5; opacity: 1;"></path></g><g class="mark-text role-legend-label" style="pointer-events: none;"><text text-anchor="start" transform="translate(16,9)" style="font-family: sans-serif; font-size: 10px; fill: #000; opacity: 1;">2021</text></g></g><path class="foreground" d="" style="pointer-events: none; display: none; fill: none;"></path></g><g transform="translate(0,13)"><path class="background" d="M0,0h48v11h-48Z" style="pointer-events: none; fill: none; opacity: 1;"></path><g><g class="mark-symbol role-legend-symbol" style="pointer-events: none;"><path transform="translate(6,6)" d="M-5,0L5,0" style="fill: none; stroke: #f58518; stroke-width: 1.5; opacity: 1;"></path></g><g class="mark-text role-legend-label" style="pointer-events: none;"><text text-anchor="start" transform="translate(16,9)" style="font-family: sans-serif; font-size: 10px; fill: #000; opacity: 1;">2022</text></g></g><path class="foreground" d="" style="pointer-events: none; display: none; fill: none;"></path></g><g transform="translate(0,26)"><path class="background" d="M0,0h48v11h-48Z" style="pointer-events: none; fill: none; opacity: 1;"></path><g><g class="mark-symbol role-legend-symbol" style="pointer-events: none;"><path transform="translate(6,6)" d="M-5,0L5,0" style="fill: none; stroke: #e45756; stroke-width: 1.5; opacity: 1;"></path></g><g class="mark-text role-legend-label" style="pointer-events: none;"><text text-anchor="start" transform="translate(16,9)" style="font-family: sans-serif; font-size: 10px; fill: #000; opacity: 1;">2023</text></g></g><path class="foreground" d="" style="pointer-events: none; display: none; fill: none;"></path></g></g></g><path class="foreground" d="" style="pointer-events: none; display: none; fill: none;"></path></g></g><g class="mark-text role-legend-title" style="pointer-events: none;"><text text-anchor="start" transform="translate(0,9)" style="font-family: sans-serif; font-size: 11px; font-weight: bold; fill: #000; opacity: 1;">Project</text></g></g><path class="foreground" d="" style="pointer-events: none; display: none; fill: none;"></path></g></g></g><path class="foreground" d="" style="display: none; fill: none;"></path></g></g></g></svg>