<svg class="marks" width="810" height="627" viewBox="0 0 810 627" version="1.1" xmlns="http://www.w3.org/2000/svg" xmlns:xlink="http://www.w3.org/1999/xlink"><rect width="810" height="627" style="fill: white;"></rect><g transform="translate(5,22)"><g class="mark-group role-frame root"><g transform="translate(0,0)"><path class="background" d="M0.5,0.5h800v600h-800Z" style="fill: none; stroke: none;"></path><g><g class="mark-arc role-mark layer_0_marks"><path transform="translate(400,300)" d="M60.606822288168836,218.41380650020298A226.6666666666667,226.6666666666667,0,0,0,191.19338009254065,-121.74920610240984L0,0Z" style="fill: #72b7b2;"></path><path transform="translate(400,300)" d="M-214.10529719953254,74.40900139685819A226.6666666666667,226.6666666666667,0,0,0,60.606822288168836,218.41380650020298L0,0Z" style="fill: #54a24b;"></path><path transform="translate(400,300)" d="M-147.82474962361212,-171.83021031382748A226.6666666666667,226.6666666666667,0,0,0,-214.10529719953254,74.40900139685819L0,0Z" style="fill: #eeca3b;"></path><path transform="translate(400,300)" d="M151.1109634819793,-168.94749034337775A226.6666666666667,226.6666666666667,0,0,0,1.3879330390336672e-14,-226.6666666666667L0,0Z" style="fill: #4c78a8;"></path><path transform="translate(400,300)" d="M-4.1637991171010013e-14,-226.6666666666667A226.6666666666667,226.6666666666667,0,0,0,-106.27090445956529,-200.21057075769937L0,0Z" style="fill: #ff9da6;"></path><path transform="translate(400,300)" d="M191.19338009254065,-121.74920610240984A226.6666666666667,226.6666666666667,0,0,0,151.41381911354145,-168.6761191136124L0,0Z" style="fill: #e45756;"></path><path transform="translate(400,300)" d="M-106.27090445956529,-200.21057075769937A226.6666666666667,226.6666666666667,0,0,0,-147.82474962361212,-171.83021031382748L0,0Z" style="fill: #b279a2;"></path><path transform="translate(400,300)" d="M151.41381911354145,-168.6761191136124A226.6666666666667,226.6666666666667,0,0,0,151.1109634819793,-168.94749034337775L0,0Z" style="fill: #f58518;"></path></g><g class="mark-text role-mark layer_1_marks"><text text-anchor="middle" transform="translate(648.9522800411053,401.5712999464077)" style="font-family: sans-serif; font-size: 20px; fill: #72b7b2;">ETL</text><text text-anchor="middle" transform="translate(276.1919589217701,542.1835728315635)" style="font-family: sans-serif; font-size: 20px; fill: #54a24b;">GEM</text><text text-anchor="middle" transform="translate(142.49862554382776,236.68800057498498)" style="font-family: sans-serif; font-size: 20px; fill: #eeca3b;">L0MDT</text><text text-anchor="middle" transform="translate(495.15244843338957,56.88732937033842)" style="font-family: sans-serif; font-size: 20px; fill: #4c78a8;">APOLLO</text><text text-anchor="middle" transform="translate(335.57969397109605,47.231502531213266)" style="font-family: sans-serif; font-size: 20px; fill: #ff9da6;">VAC/SICK/HOL</text><text text-anchor="middle" transform="translate(603.4153268430632,133.56648841817062)" style="font-family: sans-serif; font-size: 20px; fill: #e45756;">EDF</text><text text-anchor="middle" transform="translate(249.60254929864075,85.79164881039745)" style="font-family: sans-serif; font-size: 20px; fill: #b279a2;">OTHER PRJ</text><text text-anchor="middle" transform="translate(577.9558260637695,107.39779688766649)" style="font-family: sans-serif; font-size: 20px; fill: #f58518;">CMS-PIXEL-DTC</text></g><g class="mark-group role-title"><g transform="translate(400,-17)"><path class="background" d="M0,0h0v0h0Z" style="pointer-events: none; fill: none;"></path><g><g class="mark-text role-title-text" style="pointer-events: none;"><text text-anchor="middle" transform="translate(0,10)" style="font-family: sans-serif; font-size: 13px; font-weight: bold; fill: #000; opacity: 1;">EDF Work</text></g></g><path class="foreground" d="" style="pointer-events: none; display: none; fill: none;"></path></g></g></g><path class="foreground" d="" style="display: none; fill: none;"></path></g></g></g></svg>