<?xml version="1.0" encoding="utf-8" standalone="no"?>
<!DOCTYPE svg PUBLIC "-//W3C//DTD SVG 1.1//EN"
  "http://www.w3.org/Graphics/SVG/1.1/DTD/svg11.dtd">
<svg height="360pt" version="1.1" viewBox="0 0 540 360" width="540pt" xmlns="http://www.w3.org/2000/svg" xmlns:xlink="http://www.w3.org/1999/xlink">
 <metadata>
  <rdf:RDF xmlns:cc="http://creativecommons.org/ns#" xmlns:dc="http://purl.org/dc/elements/1.1/" xmlns:rdf="http://www.w3.org/1999/02/22-rdf-syntax-ns#">
   <cc:Work>
    <dc:type rdf:resource="http://purl.org/dc/dcmitype/StillImage"/>
    <dc:date>2022-08-06T16:40:00.172904</dc:date>
    <dc:format>image/svg+xml</dc:format>
    <dc:creator>
     <cc:Agent>
      <dc:title>Matplotlib v3.4.2, https://matplotlib.org/</dc:title>
     </cc:Agent>
    </dc:creator>
   </cc:Work>
  </rdf:RDF>
 </metadata>
 <defs>
  <style type="text/css">*{stroke-linecap:butt;stroke-linejoin:round;}</style>
 </defs>
 <g id="figure_1">
  <g id="patch_1">
   <path d="M 0 360 
L 540 360 
L 540 0 
L 0 0 
z
" style="fill:#ffffff;"/>
  </g>
  <g id="axes_1">
   <g id="patch_2">
    <path d="M 33.703125 305.710312 
L 437.596875 305.710312 
L 437.596875 27.74175 
L 33.703125 27.74175 
z
" style="fill:#e5e5e5;"/>
   </g>
   <g id="matplotlib.axis_1">
    <g id="xtick_1">
     <g id="line2d_1">
      <path clip-path="url(#pe7d14e49d4)" d="M 33.703125 305.710312 
L 33.703125 27.74175 
" style="fill:none;stroke:#ffffff;stroke-linecap:square;stroke-width:0.8;"/>
     </g>
     <g id="line2d_2">
      <defs>
       <path d="M 0 0 
L 0 3.5 
" id="m8a075b91a0" style="stroke:#555555;stroke-width:0.8;"/>
      </defs>
      <g>
       <use style="fill:#555555;stroke:#555555;stroke-width:0.8;" x="33.703125" xlink:href="#m8a075b91a0" y="305.710312"/>
      </g>
     </g>
     <g id="text_1">
      <!-- Jan -->
      <g style="fill:#555555;" transform="translate(25.995313 320.30875)scale(0.1 -0.1)">
       <defs>
        <path d="M 628 4666 
L 1259 4666 
L 1259 325 
Q 1259 -519 939 -900 
Q 619 -1281 -91 -1281 
L -331 -1281 
L -331 -750 
L -134 -750 
Q 284 -750 456 -515 
Q 628 -281 628 325 
L 628 4666 
z
" id="DejaVuSans-4a" transform="scale(0.015625)"/>
        <path d="M 2194 1759 
Q 1497 1759 1228 1600 
Q 959 1441 959 1056 
Q 959 750 1161 570 
Q 1363 391 1709 391 
Q 2188 391 2477 730 
Q 2766 1069 2766 1631 
L 2766 1759 
L 2194 1759 
z
M 3341 1997 
L 3341 0 
L 2766 0 
L 2766 531 
Q 2569 213 2275 61 
Q 1981 -91 1556 -91 
Q 1019 -91 701 211 
Q 384 513 384 1019 
Q 384 1609 779 1909 
Q 1175 2209 1959 2209 
L 2766 2209 
L 2766 2266 
Q 2766 2663 2505 2880 
Q 2244 3097 1772 3097 
Q 1472 3097 1187 3025 
Q 903 2953 641 2809 
L 641 3341 
Q 956 3463 1253 3523 
Q 1550 3584 1831 3584 
Q 2591 3584 2966 3190 
Q 3341 2797 3341 1997 
z
" id="DejaVuSans-61" transform="scale(0.015625)"/>
        <path d="M 3513 2113 
L 3513 0 
L 2938 0 
L 2938 2094 
Q 2938 2591 2744 2837 
Q 2550 3084 2163 3084 
Q 1697 3084 1428 2787 
Q 1159 2491 1159 1978 
L 1159 0 
L 581 0 
L 581 3500 
L 1159 3500 
L 1159 2956 
Q 1366 3272 1645 3428 
Q 1925 3584 2291 3584 
Q 2894 3584 3203 3211 
Q 3513 2838 3513 2113 
z
" id="DejaVuSans-6e" transform="scale(0.015625)"/>
       </defs>
       <use xlink:href="#DejaVuSans-4a"/>
       <use x="29.492188" xlink:href="#DejaVuSans-61"/>
       <use x="90.771484" xlink:href="#DejaVuSans-6e"/>
      </g>
      <!-- 2021 -->
      <g style="fill:#555555;" transform="translate(20.978125 331.506563)scale(0.1 -0.1)">
       <defs>
        <path d="M 1228 531 
L 3431 531 
L 3431 0 
L 469 0 
L 469 531 
Q 828 903 1448 1529 
Q 2069 2156 2228 2338 
Q 2531 2678 2651 2914 
Q 2772 3150 2772 3378 
Q 2772 3750 2511 3984 
Q 2250 4219 1831 4219 
Q 1534 4219 1204 4116 
Q 875 4013 500 3803 
L 500 4441 
Q 881 4594 1212 4672 
Q 1544 4750 1819 4750 
Q 2544 4750 2975 4387 
Q 3406 4025 3406 3419 
Q 3406 3131 3298 2873 
Q 3191 2616 2906 2266 
Q 2828 2175 2409 1742 
Q 1991 1309 1228 531 
z
" id="DejaVuSans-32" transform="scale(0.015625)"/>
        <path d="M 2034 4250 
Q 1547 4250 1301 3770 
Q 1056 3291 1056 2328 
Q 1056 1369 1301 889 
Q 1547 409 2034 409 
Q 2525 409 2770 889 
Q 3016 1369 3016 2328 
Q 3016 3291 2770 3770 
Q 2525 4250 2034 4250 
z
M 2034 4750 
Q 2819 4750 3233 4129 
Q 3647 3509 3647 2328 
Q 3647 1150 3233 529 
Q 2819 -91 2034 -91 
Q 1250 -91 836 529 
Q 422 1150 422 2328 
Q 422 3509 836 4129 
Q 1250 4750 2034 4750 
z
" id="DejaVuSans-30" transform="scale(0.015625)"/>
        <path d="M 794 531 
L 1825 531 
L 1825 4091 
L 703 3866 
L 703 4441 
L 1819 4666 
L 2450 4666 
L 2450 531 
L 3481 531 
L 3481 0 
L 794 0 
L 794 531 
z
" id="DejaVuSans-31" transform="scale(0.015625)"/>
       </defs>
       <use xlink:href="#DejaVuSans-32"/>
       <use x="63.623047" xlink:href="#DejaVuSans-30"/>
       <use x="127.246094" xlink:href="#DejaVuSans-32"/>
       <use x="190.869141" xlink:href="#DejaVuSans-31"/>
      </g>
     </g>
    </g>
    <g id="xtick_2">
     <g id="line2d_3">
      <path clip-path="url(#pe7d14e49d4)" d="M 288.793914 305.710312 
L 288.793914 27.74175 
" style="fill:none;stroke:#ffffff;stroke-linecap:square;stroke-width:0.8;"/>
     </g>
     <g id="line2d_4">
      <g>
       <use style="fill:#555555;stroke:#555555;stroke-width:0.8;" x="288.793914" xlink:href="#m8a075b91a0" y="305.710312"/>
      </g>
     </g>
     <g id="text_2">
      <!-- Jan -->
      <g style="fill:#555555;" transform="translate(281.086102 320.30875)scale(0.1 -0.1)">
       <use xlink:href="#DejaVuSans-4a"/>
       <use x="29.492188" xlink:href="#DejaVuSans-61"/>
       <use x="90.771484" xlink:href="#DejaVuSans-6e"/>
      </g>
      <!-- 2022 -->
      <g style="fill:#555555;" transform="translate(276.068914 331.506563)scale(0.1 -0.1)">
       <use xlink:href="#DejaVuSans-32"/>
       <use x="63.623047" xlink:href="#DejaVuSans-30"/>
       <use x="127.246094" xlink:href="#DejaVuSans-32"/>
       <use x="190.869141" xlink:href="#DejaVuSans-32"/>
      </g>
     </g>
    </g>
    <g id="xtick_3">
     <g id="line2d_5">
      <defs>
       <path d="M 0 0 
L 0 2 
" id="me88a7207f6" style="stroke:#555555;stroke-width:0.6;"/>
      </defs>
      <g>
       <use style="fill:#555555;stroke:#555555;stroke-width:0.6;" x="54.960691" xlink:href="#me88a7207f6" y="305.710312"/>
      </g>
     </g>
    </g>
    <g id="xtick_4">
     <g id="line2d_6">
      <g>
       <use style="fill:#555555;stroke:#555555;stroke-width:0.6;" x="76.218257" xlink:href="#me88a7207f6" y="305.710312"/>
      </g>
     </g>
    </g>
    <g id="xtick_5">
     <g id="line2d_7">
      <g>
       <use style="fill:#555555;stroke:#555555;stroke-width:0.6;" x="97.475822" xlink:href="#me88a7207f6" y="305.710312"/>
      </g>
     </g>
     <g id="text_3">
      <!-- Apr -->
      <g style="fill:#555555;" transform="translate(88.825822 318.70875)scale(0.1 -0.1)">
       <defs>
        <path d="M 2188 4044 
L 1331 1722 
L 3047 1722 
L 2188 4044 
z
M 1831 4666 
L 2547 4666 
L 4325 0 
L 3669 0 
L 3244 1197 
L 1141 1197 
L 716 0 
L 50 0 
L 1831 4666 
z
" id="DejaVuSans-41" transform="scale(0.015625)"/>
        <path d="M 1159 525 
L 1159 -1331 
L 581 -1331 
L 581 3500 
L 1159 3500 
L 1159 2969 
Q 1341 3281 1617 3432 
Q 1894 3584 2278 3584 
Q 2916 3584 3314 3078 
Q 3713 2572 3713 1747 
Q 3713 922 3314 415 
Q 2916 -91 2278 -91 
Q 1894 -91 1617 61 
Q 1341 213 1159 525 
z
M 3116 1747 
Q 3116 2381 2855 2742 
Q 2594 3103 2138 3103 
Q 1681 3103 1420 2742 
Q 1159 2381 1159 1747 
Q 1159 1113 1420 752 
Q 1681 391 2138 391 
Q 2594 391 2855 752 
Q 3116 1113 3116 1747 
z
" id="DejaVuSans-70" transform="scale(0.015625)"/>
        <path d="M 2631 2963 
Q 2534 3019 2420 3045 
Q 2306 3072 2169 3072 
Q 1681 3072 1420 2755 
Q 1159 2438 1159 1844 
L 1159 0 
L 581 0 
L 581 3500 
L 1159 3500 
L 1159 2956 
Q 1341 3275 1631 3429 
Q 1922 3584 2338 3584 
Q 2397 3584 2469 3576 
Q 2541 3569 2628 3553 
L 2631 2963 
z
" id="DejaVuSans-72" transform="scale(0.015625)"/>
       </defs>
       <use xlink:href="#DejaVuSans-41"/>
       <use x="68.408203" xlink:href="#DejaVuSans-70"/>
       <use x="131.884766" xlink:href="#DejaVuSans-72"/>
      </g>
     </g>
    </g>
    <g id="xtick_6">
     <g id="line2d_8">
      <g>
       <use style="fill:#555555;stroke:#555555;stroke-width:0.6;" x="118.733388" xlink:href="#me88a7207f6" y="305.710312"/>
      </g>
     </g>
    </g>
    <g id="xtick_7">
     <g id="line2d_9">
      <g>
       <use style="fill:#555555;stroke:#555555;stroke-width:0.6;" x="139.990954" xlink:href="#me88a7207f6" y="305.710312"/>
      </g>
     </g>
    </g>
    <g id="xtick_8">
     <g id="line2d_10">
      <g>
       <use style="fill:#555555;stroke:#555555;stroke-width:0.6;" x="161.24852" xlink:href="#me88a7207f6" y="305.710312"/>
      </g>
     </g>
     <g id="text_4">
      <!-- Jul -->
      <g style="fill:#555555;" transform="translate(155.215707 318.70875)scale(0.1 -0.1)">
       <defs>
        <path d="M 544 1381 
L 544 3500 
L 1119 3500 
L 1119 1403 
Q 1119 906 1312 657 
Q 1506 409 1894 409 
Q 2359 409 2629 706 
Q 2900 1003 2900 1516 
L 2900 3500 
L 3475 3500 
L 3475 0 
L 2900 0 
L 2900 538 
Q 2691 219 2414 64 
Q 2138 -91 1772 -91 
Q 1169 -91 856 284 
Q 544 659 544 1381 
z
M 1991 3584 
L 1991 3584 
z
" id="DejaVuSans-75" transform="scale(0.015625)"/>
        <path d="M 603 4863 
L 1178 4863 
L 1178 0 
L 603 0 
L 603 4863 
z
" id="DejaVuSans-6c" transform="scale(0.015625)"/>
       </defs>
       <use xlink:href="#DejaVuSans-4a"/>
       <use x="29.492188" xlink:href="#DejaVuSans-75"/>
       <use x="92.871094" xlink:href="#DejaVuSans-6c"/>
      </g>
     </g>
    </g>
    <g id="xtick_9">
     <g id="line2d_11">
      <g>
       <use style="fill:#555555;stroke:#555555;stroke-width:0.6;" x="182.506086" xlink:href="#me88a7207f6" y="305.710312"/>
      </g>
     </g>
    </g>
    <g id="xtick_10">
     <g id="line2d_12">
      <g>
       <use style="fill:#555555;stroke:#555555;stroke-width:0.6;" x="203.763651" xlink:href="#me88a7207f6" y="305.710312"/>
      </g>
     </g>
    </g>
    <g id="xtick_11">
     <g id="line2d_13">
      <g>
       <use style="fill:#555555;stroke:#555555;stroke-width:0.6;" x="225.021217" xlink:href="#me88a7207f6" y="305.710312"/>
      </g>
     </g>
     <g id="text_5">
      <!-- Oct -->
      <g style="fill:#555555;" transform="translate(216.375905 318.70875)scale(0.1 -0.1)">
       <defs>
        <path d="M 2522 4238 
Q 1834 4238 1429 3725 
Q 1025 3213 1025 2328 
Q 1025 1447 1429 934 
Q 1834 422 2522 422 
Q 3209 422 3611 934 
Q 4013 1447 4013 2328 
Q 4013 3213 3611 3725 
Q 3209 4238 2522 4238 
z
M 2522 4750 
Q 3503 4750 4090 4092 
Q 4678 3434 4678 2328 
Q 4678 1225 4090 567 
Q 3503 -91 2522 -91 
Q 1538 -91 948 565 
Q 359 1222 359 2328 
Q 359 3434 948 4092 
Q 1538 4750 2522 4750 
z
" id="DejaVuSans-4f" transform="scale(0.015625)"/>
        <path d="M 3122 3366 
L 3122 2828 
Q 2878 2963 2633 3030 
Q 2388 3097 2138 3097 
Q 1578 3097 1268 2742 
Q 959 2388 959 1747 
Q 959 1106 1268 751 
Q 1578 397 2138 397 
Q 2388 397 2633 464 
Q 2878 531 3122 666 
L 3122 134 
Q 2881 22 2623 -34 
Q 2366 -91 2075 -91 
Q 1284 -91 818 406 
Q 353 903 353 1747 
Q 353 2603 823 3093 
Q 1294 3584 2113 3584 
Q 2378 3584 2631 3529 
Q 2884 3475 3122 3366 
z
" id="DejaVuSans-63" transform="scale(0.015625)"/>
        <path d="M 1172 4494 
L 1172 3500 
L 2356 3500 
L 2356 3053 
L 1172 3053 
L 1172 1153 
Q 1172 725 1289 603 
Q 1406 481 1766 481 
L 2356 481 
L 2356 0 
L 1766 0 
Q 1100 0 847 248 
Q 594 497 594 1153 
L 594 3053 
L 172 3053 
L 172 3500 
L 594 3500 
L 594 4494 
L 1172 4494 
z
" id="DejaVuSans-74" transform="scale(0.015625)"/>
       </defs>
       <use xlink:href="#DejaVuSans-4f"/>
       <use x="78.710938" xlink:href="#DejaVuSans-63"/>
       <use x="133.691406" xlink:href="#DejaVuSans-74"/>
      </g>
     </g>
    </g>
    <g id="xtick_12">
     <g id="line2d_14">
      <g>
       <use style="fill:#555555;stroke:#555555;stroke-width:0.6;" x="246.278783" xlink:href="#me88a7207f6" y="305.710312"/>
      </g>
     </g>
    </g>
    <g id="xtick_13">
     <g id="line2d_15">
      <g>
       <use style="fill:#555555;stroke:#555555;stroke-width:0.6;" x="267.536349" xlink:href="#me88a7207f6" y="305.710312"/>
      </g>
     </g>
    </g>
    <g id="xtick_14">
     <g id="line2d_16">
      <g>
       <use style="fill:#555555;stroke:#555555;stroke-width:0.6;" x="310.05148" xlink:href="#me88a7207f6" y="305.710312"/>
      </g>
     </g>
    </g>
    <g id="xtick_15">
     <g id="line2d_17">
      <g>
       <use style="fill:#555555;stroke:#555555;stroke-width:0.6;" x="331.309046" xlink:href="#me88a7207f6" y="305.710312"/>
      </g>
     </g>
    </g>
    <g id="xtick_16">
     <g id="line2d_18">
      <g>
       <use style="fill:#555555;stroke:#555555;stroke-width:0.6;" x="352.566612" xlink:href="#me88a7207f6" y="305.710312"/>
      </g>
     </g>
     <g id="text_6">
      <!-- Apr -->
      <g style="fill:#555555;" transform="translate(343.916612 318.70875)scale(0.1 -0.1)">
       <use xlink:href="#DejaVuSans-41"/>
       <use x="68.408203" xlink:href="#DejaVuSans-70"/>
       <use x="131.884766" xlink:href="#DejaVuSans-72"/>
      </g>
     </g>
    </g>
    <g id="xtick_17">
     <g id="line2d_19">
      <g>
       <use style="fill:#555555;stroke:#555555;stroke-width:0.6;" x="373.824178" xlink:href="#me88a7207f6" y="305.710312"/>
      </g>
     </g>
    </g>
    <g id="xtick_18">
     <g id="line2d_20">
      <g>
       <use style="fill:#555555;stroke:#555555;stroke-width:0.6;" x="395.081743" xlink:href="#me88a7207f6" y="305.710312"/>
      </g>
     </g>
    </g>
    <g id="xtick_19">
     <g id="line2d_21">
      <g>
       <use style="fill:#555555;stroke:#555555;stroke-width:0.6;" x="416.339309" xlink:href="#me88a7207f6" y="305.710312"/>
      </g>
     </g>
     <g id="text_7">
      <!-- Jul -->
      <g style="fill:#555555;" transform="translate(410.306497 318.70875)scale(0.1 -0.1)">
       <use xlink:href="#DejaVuSans-4a"/>
       <use x="29.492188" xlink:href="#DejaVuSans-75"/>
       <use x="92.871094" xlink:href="#DejaVuSans-6c"/>
      </g>
     </g>
    </g>
    <g id="xtick_20">
     <g id="line2d_22">
      <g>
       <use style="fill:#555555;stroke:#555555;stroke-width:0.6;" x="437.596875" xlink:href="#me88a7207f6" y="305.710312"/>
      </g>
     </g>
    </g>
    <g id="text_8">
     <!-- Date -->
     <g style="fill:#555555;" transform="translate(221.309063 346.704375)scale(0.12 -0.12)">
      <defs>
       <path d="M 1259 4147 
L 1259 519 
L 2022 519 
Q 2988 519 3436 956 
Q 3884 1394 3884 2338 
Q 3884 3275 3436 3711 
Q 2988 4147 2022 4147 
L 1259 4147 
z
M 628 4666 
L 1925 4666 
Q 3281 4666 3915 4102 
Q 4550 3538 4550 2338 
Q 4550 1131 3912 565 
Q 3275 0 1925 0 
L 628 0 
L 628 4666 
z
" id="DejaVuSans-44" transform="scale(0.015625)"/>
       <path d="M 3597 1894 
L 3597 1613 
L 953 1613 
Q 991 1019 1311 708 
Q 1631 397 2203 397 
Q 2534 397 2845 478 
Q 3156 559 3463 722 
L 3463 178 
Q 3153 47 2828 -22 
Q 2503 -91 2169 -91 
Q 1331 -91 842 396 
Q 353 884 353 1716 
Q 353 2575 817 3079 
Q 1281 3584 2069 3584 
Q 2775 3584 3186 3129 
Q 3597 2675 3597 1894 
z
M 3022 2063 
Q 3016 2534 2758 2815 
Q 2500 3097 2075 3097 
Q 1594 3097 1305 2825 
Q 1016 2553 972 2059 
L 3022 2063 
z
" id="DejaVuSans-65" transform="scale(0.015625)"/>
      </defs>
      <use xlink:href="#DejaVuSans-44"/>
      <use x="77.001953" xlink:href="#DejaVuSans-61"/>
      <use x="138.28125" xlink:href="#DejaVuSans-74"/>
      <use x="177.490234" xlink:href="#DejaVuSans-65"/>
     </g>
    </g>
   </g>
   <g id="matplotlib.axis_2">
    <g id="ytick_1">
     <g id="line2d_23">
      <path clip-path="url(#pe7d14e49d4)" d="M 33.703125 305.710312 
L 437.596875 305.710312 
" style="fill:none;stroke:#ffffff;stroke-linecap:square;stroke-width:0.8;"/>
     </g>
     <g id="line2d_24">
      <defs>
       <path d="M 0 0 
L -3.5 0 
" id="mf837f79aa8" style="stroke:#555555;stroke-width:0.8;"/>
      </defs>
      <g>
       <use style="fill:#555555;stroke:#555555;stroke-width:0.8;" x="33.703125" xlink:href="#mf837f79aa8" y="305.710312"/>
      </g>
     </g>
     <g id="text_9">
      <!-- 0.0 -->
      <g style="fill:#555555;" transform="translate(10.8 309.509531)scale(0.1 -0.1)">
       <defs>
        <path d="M 684 794 
L 1344 794 
L 1344 0 
L 684 0 
L 684 794 
z
" id="DejaVuSans-2e" transform="scale(0.015625)"/>
       </defs>
       <use xlink:href="#DejaVuSans-30"/>
       <use x="63.623047" xlink:href="#DejaVuSans-2e"/>
       <use x="95.410156" xlink:href="#DejaVuSans-30"/>
      </g>
     </g>
    </g>
    <g id="ytick_2">
     <g id="line2d_25">
      <path clip-path="url(#pe7d14e49d4)" d="M 33.703125 252.869601 
L 437.596875 252.869601 
" style="fill:none;stroke:#ffffff;stroke-linecap:square;stroke-width:0.8;"/>
     </g>
     <g id="line2d_26">
      <g>
       <use style="fill:#555555;stroke:#555555;stroke-width:0.8;" x="33.703125" xlink:href="#mf837f79aa8" y="252.869601"/>
      </g>
     </g>
     <g id="text_10">
      <!-- 0.2 -->
      <g style="fill:#555555;" transform="translate(10.8 256.66882)scale(0.1 -0.1)">
       <use xlink:href="#DejaVuSans-30"/>
       <use x="63.623047" xlink:href="#DejaVuSans-2e"/>
       <use x="95.410156" xlink:href="#DejaVuSans-32"/>
      </g>
     </g>
    </g>
    <g id="ytick_3">
     <g id="line2d_27">
      <path clip-path="url(#pe7d14e49d4)" d="M 33.703125 200.02889 
L 437.596875 200.02889 
" style="fill:none;stroke:#ffffff;stroke-linecap:square;stroke-width:0.8;"/>
     </g>
     <g id="line2d_28">
      <g>
       <use style="fill:#555555;stroke:#555555;stroke-width:0.8;" x="33.703125" xlink:href="#mf837f79aa8" y="200.02889"/>
      </g>
     </g>
     <g id="text_11">
      <!-- 0.4 -->
      <g style="fill:#555555;" transform="translate(10.8 203.828108)scale(0.1 -0.1)">
       <defs>
        <path d="M 2419 4116 
L 825 1625 
L 2419 1625 
L 2419 4116 
z
M 2253 4666 
L 3047 4666 
L 3047 1625 
L 3713 1625 
L 3713 1100 
L 3047 1100 
L 3047 0 
L 2419 0 
L 2419 1100 
L 313 1100 
L 313 1709 
L 2253 4666 
z
" id="DejaVuSans-34" transform="scale(0.015625)"/>
       </defs>
       <use xlink:href="#DejaVuSans-30"/>
       <use x="63.623047" xlink:href="#DejaVuSans-2e"/>
       <use x="95.410156" xlink:href="#DejaVuSans-34"/>
      </g>
     </g>
    </g>
    <g id="ytick_4">
     <g id="line2d_29">
      <path clip-path="url(#pe7d14e49d4)" d="M 33.703125 147.188178 
L 437.596875 147.188178 
" style="fill:none;stroke:#ffffff;stroke-linecap:square;stroke-width:0.8;"/>
     </g>
     <g id="line2d_30">
      <g>
       <use style="fill:#555555;stroke:#555555;stroke-width:0.8;" x="33.703125" xlink:href="#mf837f79aa8" y="147.188178"/>
      </g>
     </g>
     <g id="text_12">
      <!-- 0.6 -->
      <g style="fill:#555555;" transform="translate(10.8 150.987397)scale(0.1 -0.1)">
       <defs>
        <path d="M 2113 2584 
Q 1688 2584 1439 2293 
Q 1191 2003 1191 1497 
Q 1191 994 1439 701 
Q 1688 409 2113 409 
Q 2538 409 2786 701 
Q 3034 994 3034 1497 
Q 3034 2003 2786 2293 
Q 2538 2584 2113 2584 
z
M 3366 4563 
L 3366 3988 
Q 3128 4100 2886 4159 
Q 2644 4219 2406 4219 
Q 1781 4219 1451 3797 
Q 1122 3375 1075 2522 
Q 1259 2794 1537 2939 
Q 1816 3084 2150 3084 
Q 2853 3084 3261 2657 
Q 3669 2231 3669 1497 
Q 3669 778 3244 343 
Q 2819 -91 2113 -91 
Q 1303 -91 875 529 
Q 447 1150 447 2328 
Q 447 3434 972 4092 
Q 1497 4750 2381 4750 
Q 2619 4750 2861 4703 
Q 3103 4656 3366 4563 
z
" id="DejaVuSans-36" transform="scale(0.015625)"/>
       </defs>
       <use xlink:href="#DejaVuSans-30"/>
       <use x="63.623047" xlink:href="#DejaVuSans-2e"/>
       <use x="95.410156" xlink:href="#DejaVuSans-36"/>
      </g>
     </g>
    </g>
    <g id="ytick_5">
     <g id="line2d_31">
      <path clip-path="url(#pe7d14e49d4)" d="M 33.703125 94.347467 
L 437.596875 94.347467 
" style="fill:none;stroke:#ffffff;stroke-linecap:square;stroke-width:0.8;"/>
     </g>
     <g id="line2d_32">
      <g>
       <use style="fill:#555555;stroke:#555555;stroke-width:0.8;" x="33.703125" xlink:href="#mf837f79aa8" y="94.347467"/>
      </g>
     </g>
     <g id="text_13">
      <!-- 0.8 -->
      <g style="fill:#555555;" transform="translate(10.8 98.146686)scale(0.1 -0.1)">
       <defs>
        <path d="M 2034 2216 
Q 1584 2216 1326 1975 
Q 1069 1734 1069 1313 
Q 1069 891 1326 650 
Q 1584 409 2034 409 
Q 2484 409 2743 651 
Q 3003 894 3003 1313 
Q 3003 1734 2745 1975 
Q 2488 2216 2034 2216 
z
M 1403 2484 
Q 997 2584 770 2862 
Q 544 3141 544 3541 
Q 544 4100 942 4425 
Q 1341 4750 2034 4750 
Q 2731 4750 3128 4425 
Q 3525 4100 3525 3541 
Q 3525 3141 3298 2862 
Q 3072 2584 2669 2484 
Q 3125 2378 3379 2068 
Q 3634 1759 3634 1313 
Q 3634 634 3220 271 
Q 2806 -91 2034 -91 
Q 1263 -91 848 271 
Q 434 634 434 1313 
Q 434 1759 690 2068 
Q 947 2378 1403 2484 
z
M 1172 3481 
Q 1172 3119 1398 2916 
Q 1625 2713 2034 2713 
Q 2441 2713 2670 2916 
Q 2900 3119 2900 3481 
Q 2900 3844 2670 4047 
Q 2441 4250 2034 4250 
Q 1625 4250 1398 4047 
Q 1172 3844 1172 3481 
z
" id="DejaVuSans-38" transform="scale(0.015625)"/>
       </defs>
       <use xlink:href="#DejaVuSans-30"/>
       <use x="63.623047" xlink:href="#DejaVuSans-2e"/>
       <use x="95.410156" xlink:href="#DejaVuSans-38"/>
      </g>
     </g>
    </g>
    <g id="ytick_6">
     <g id="line2d_33">
      <path clip-path="url(#pe7d14e49d4)" d="M 33.703125 41.506755 
L 437.596875 41.506755 
" style="fill:none;stroke:#ffffff;stroke-linecap:square;stroke-width:0.8;"/>
     </g>
     <g id="line2d_34">
      <g>
       <use style="fill:#555555;stroke:#555555;stroke-width:0.8;" x="33.703125" xlink:href="#mf837f79aa8" y="41.506755"/>
      </g>
     </g>
     <g id="text_14">
      <!-- 1.0 -->
      <g style="fill:#555555;" transform="translate(10.8 45.305974)scale(0.1 -0.1)">
       <use xlink:href="#DejaVuSans-31"/>
       <use x="63.623047" xlink:href="#DejaVuSans-2e"/>
       <use x="95.410156" xlink:href="#DejaVuSans-30"/>
      </g>
     </g>
    </g>
   </g>
   <g id="PolyCollection_1">
    <defs>
     <path d="M 33.703125 -63.008405 
L 33.703125 -54.289687 
L 54.960691 -54.289687 
L 76.218257 -54.289687 
L 97.475822 -54.289687 
L 118.733388 -54.289687 
L 139.990954 -54.289687 
L 161.24852 -54.289687 
L 182.506086 -54.289687 
L 203.763651 -54.289687 
L 225.021217 -54.289687 
L 246.278783 -54.289687 
L 267.536349 -54.289687 
L 288.793914 -54.289687 
L 310.05148 -54.289687 
L 331.309046 -54.289687 
L 352.566612 -54.289687 
L 373.824178 -54.289687 
L 395.081743 -54.289687 
L 416.339309 -54.289687 
L 437.596875 -54.289687 
L 437.596875 -54.289687 
L 437.596875 -54.289687 
L 416.339309 -54.289687 
L 395.081743 -70.934512 
L 373.824178 -63.536812 
L 352.566612 -57.46013 
L 331.309046 -83.616282 
L 310.05148 -87.579336 
L 288.793914 -68.292476 
L 267.536349 -87.579336 
L 246.278783 -67.764069 
L 225.021217 -55.610705 
L 203.763651 -65.914644 
L 182.506086 -65.386237 
L 161.24852 -66.971458 
L 139.990954 -74.897565 
L 118.733388 -60.366369 
L 97.475822 -56.66752 
L 76.218257 -72.519733 
L 54.960691 -64.85783 
L 33.703125 -63.008405 
z
" id="md2b2c4050a" style="stroke:#e24a33;stroke-width:0.5;"/>
    </defs>
    <g clip-path="url(#pe7d14e49d4)">
     <use style="fill:#e24a33;stroke:#e24a33;stroke-width:0.5;" x="0" xlink:href="#md2b2c4050a" y="360"/>
    </g>
   </g>
   <g id="PolyCollection_2">
    <defs>
     <path d="M 33.703125 -77.275397 
L 33.703125 -63.008405 
L 54.960691 -64.85783 
L 76.218257 -72.519733 
L 97.475822 -56.66752 
L 118.733388 -60.366369 
L 139.990954 -74.897565 
L 161.24852 -66.971458 
L 182.506086 -65.386237 
L 203.763651 -65.914644 
L 225.021217 -55.610705 
L 246.278783 -67.764069 
L 267.536349 -87.579336 
L 288.793914 -68.292476 
L 310.05148 -87.579336 
L 331.309046 -83.616282 
L 352.566612 -57.46013 
L 373.824178 -63.536812 
L 395.081743 -70.934512 
L 416.339309 -54.289687 
L 437.596875 -54.289687 
L 437.596875 -54.289687 
L 437.596875 -54.289687 
L 416.339309 -55.874909 
L 395.081743 -84.408893 
L 373.824178 -77.275397 
L 352.566612 -60.630573 
L 331.309046 -114.792302 
L 310.05148 -115.056506 
L 288.793914 -75.161769 
L 267.536349 -134.607569 
L 246.278783 -73.312344 
L 225.021217 -65.65044 
L 203.763651 -74.633361 
L 182.506086 -81.766857 
L 161.24852 -73.312344 
L 139.990954 -99.204292 
L 118.733388 -81.23845 
L 97.475822 -60.102166 
L 76.218257 -91.806593 
L 54.960691 -72.783937 
L 33.703125 -77.275397 
z
" id="mab28ddc8c9" style="stroke:#348abd;stroke-width:0.5;"/>
    </defs>
    <g clip-path="url(#pe7d14e49d4)">
     <use style="fill:#348abd;stroke:#348abd;stroke-width:0.5;" x="0" xlink:href="#mab28ddc8c9" y="360"/>
    </g>
   </g>
   <g id="PolyCollection_3">
    <defs>
     <path d="M 33.703125 -77.275397 
L 33.703125 -77.275397 
L 54.960691 -72.783937 
L 76.218257 -91.806593 
L 97.475822 -60.102166 
L 118.733388 -81.23845 
L 139.990954 -99.204292 
L 161.24852 -73.312344 
L 182.506086 -81.766857 
L 203.763651 -74.633361 
L 225.021217 -65.65044 
L 246.278783 -73.312344 
L 267.536349 -134.607569 
L 288.793914 -75.161769 
L 310.05148 -115.056506 
L 331.309046 -114.792302 
L 352.566612 -60.630573 
L 373.824178 -77.275397 
L 395.081743 -84.408893 
L 416.339309 -55.874909 
L 437.596875 -54.289687 
L 437.596875 -54.289687 
L 437.596875 -54.289687 
L 416.339309 -55.874909 
L 395.081743 -84.408893 
L 373.824178 -78.860618 
L 352.566612 -63.801016 
L 331.309046 -128.266684 
L 310.05148 -130.644516 
L 288.793914 -92.599203 
L 267.536349 -134.607569 
L 246.278783 -73.312344 
L 225.021217 -65.65044 
L 203.763651 -78.596415 
L 182.506086 -82.559468 
L 161.24852 -77.539601 
L 139.990954 -99.204292 
L 118.733388 -82.295265 
L 97.475822 -60.102166 
L 76.218257 -92.863407 
L 54.960691 -72.783937 
L 33.703125 -77.275397 
z
" id="m6baf3a015d" style="stroke:#988ed5;stroke-width:0.5;"/>
    </defs>
    <g clip-path="url(#pe7d14e49d4)">
     <use style="fill:#988ed5;stroke:#988ed5;stroke-width:0.5;" x="0" xlink:href="#m6baf3a015d" y="360"/>
    </g>
   </g>
   <g id="PolyCollection_4">
    <defs>
     <path d="M 33.703125 -94.977035 
L 33.703125 -77.275397 
L 54.960691 -72.783937 
L 76.218257 -92.863407 
L 97.475822 -60.102166 
L 118.733388 -82.295265 
L 139.990954 -99.204292 
L 161.24852 -77.539601 
L 182.506086 -82.559468 
L 203.763651 -78.596415 
L 225.021217 -65.65044 
L 246.278783 -73.312344 
L 267.536349 -134.607569 
L 288.793914 -92.599203 
L 310.05148 -130.644516 
L 331.309046 -128.266684 
L 352.566612 -63.801016 
L 373.824178 -78.860618 
L 395.081743 -84.408893 
L 416.339309 -55.874909 
L 437.596875 -54.289687 
L 437.596875 -159.97111 
L 437.596875 -159.97111 
L 416.339309 -110.036638 
L 395.081743 -112.41447 
L 373.824178 -118.755355 
L 352.566612 -89.957168 
L 331.309046 -145.175711 
L 310.05148 -160.499517 
L 288.793914 -111.093452 
L 267.536349 -149.931375 
L 246.278783 -112.678674 
L 225.021217 -104.752567 
L 203.763651 -144.3831 
L 182.506086 -112.678674 
L 161.24852 -115.584913 
L 139.990954 -108.979824 
L 118.733388 -129.059294 
L 97.475822 -135.928587 
L 76.218257 -117.962745 
L 54.960691 -92.863407 
L 33.703125 -94.977035 
z
" id="mdeedd375fd" style="stroke:#777777;stroke-width:0.5;"/>
    </defs>
    <g clip-path="url(#pe7d14e49d4)">
     <use style="fill:#777777;stroke:#777777;stroke-width:0.5;" x="0" xlink:href="#mdeedd375fd" y="360"/>
    </g>
   </g>
   <g id="PolyCollection_5">
    <defs>
     <path d="M 33.703125 -141.212658 
L 33.703125 -94.977035 
L 54.960691 -92.863407 
L 76.218257 -117.962745 
L 97.475822 -135.928587 
L 118.733388 -129.059294 
L 139.990954 -108.979824 
L 161.24852 -115.584913 
L 182.506086 -112.678674 
L 203.763651 -144.3831 
L 225.021217 -104.752567 
L 246.278783 -112.678674 
L 267.536349 -149.931375 
L 288.793914 -111.093452 
L 310.05148 -160.499517 
L 331.309046 -145.175711 
L 352.566612 -89.957168 
L 373.824178 -118.755355 
L 395.081743 -112.41447 
L 416.339309 -110.036638 
L 437.596875 -159.97111 
L 437.596875 -159.97111 
L 437.596875 -159.97111 
L 416.339309 -125.360444 
L 395.081743 -150.723986 
L 373.824178 -201.715272 
L 352.566612 -158.385889 
L 331.309046 -178.993766 
L 310.05148 -190.354519 
L 288.793914 -274.107047 
L 267.536349 -289.695057 
L 246.278783 -239.760585 
L 225.021217 -227.343017 
L 203.763651 -192.732351 
L 182.506086 -192.468148 
L 161.24852 -150.459782 
L 139.990954 -145.439915 
L 118.733388 -203.564697 
L 97.475822 -214.13284 
L 76.218257 -225.757796 
L 54.960691 -192.996555 
L 33.703125 -141.212658 
z
" id="m78ad60d6ec" style="stroke:#fbc15e;stroke-width:0.5;"/>
    </defs>
    <g clip-path="url(#pe7d14e49d4)">
     <use style="fill:#fbc15e;stroke:#fbc15e;stroke-width:0.5;" x="0" xlink:href="#m78ad60d6ec" y="360"/>
    </g>
   </g>
   <g id="PolyCollection_6">
    <defs>
     <path d="M 33.703125 -141.212658 
L 33.703125 -141.212658 
L 54.960691 -192.996555 
L 76.218257 -225.757796 
L 97.475822 -214.13284 
L 118.733388 -203.564697 
L 139.990954 -145.439915 
L 161.24852 -150.459782 
L 182.506086 -192.468148 
L 203.763651 -192.732351 
L 225.021217 -227.343017 
L 246.278783 -239.760585 
L 267.536349 -289.695057 
L 288.793914 -274.107047 
L 310.05148 -190.354519 
L 331.309046 -178.993766 
L 352.566612 -158.385889 
L 373.824178 -201.715272 
L 395.081743 -150.723986 
L 416.339309 -125.360444 
L 437.596875 -159.97111 
L 437.596875 -159.97111 
L 437.596875 -159.97111 
L 416.339309 -125.360444 
L 395.081743 -150.723986 
L 373.824178 -201.715272 
L 352.566612 -158.385889 
L 331.309046 -178.993766 
L 310.05148 -190.354519 
L 288.793914 -274.107047 
L 267.536349 -289.695057 
L 246.278783 -244.252045 
L 225.021217 -227.343017 
L 203.763651 -192.732351 
L 182.506086 -194.053369 
L 161.24852 -164.198367 
L 139.990954 -178.993766 
L 118.733388 -217.567486 
L 97.475822 -224.436778 
L 76.218257 -238.967974 
L 54.960691 -192.996555 
L 33.703125 -141.212658 
z
" id="mf8c1b48e34" style="stroke:#8eba42;stroke-width:0.5;"/>
    </defs>
    <g clip-path="url(#pe7d14e49d4)">
     <use style="fill:#8eba42;stroke:#8eba42;stroke-width:0.5;" x="0" xlink:href="#mf8c1b48e34" y="360"/>
    </g>
   </g>
   <g id="PolyCollection_7">
    <defs>
     <path d="M 33.703125 -269.87979 
L 33.703125 -141.212658 
L 54.960691 -192.996555 
L 76.218257 -238.967974 
L 97.475822 -224.436778 
L 118.733388 -217.567486 
L 139.990954 -178.993766 
L 161.24852 -164.198367 
L 182.506086 -194.053369 
L 203.763651 -192.732351 
L 225.021217 -227.343017 
L 246.278783 -244.252045 
L 267.536349 -289.695057 
L 288.793914 -274.107047 
L 310.05148 -190.354519 
L 331.309046 -178.993766 
L 352.566612 -158.385889 
L 373.824178 -201.715272 
L 395.081743 -150.723986 
L 416.339309 -125.360444 
L 437.596875 -159.97111 
L 437.596875 -318.493245 
L 437.596875 -318.493245 
L 416.339309 -315.058598 
L 395.081743 -294.186517 
L 373.824178 -306.075677 
L 352.566612 -310.038731 
L 331.309046 -261.953683 
L 310.05148 -264.067312 
L 288.793914 -311.359749 
L 267.536349 -307.660899 
L 246.278783 -301.584217 
L 225.021217 -288.109836 
L 203.763651 -267.501958 
L 182.506086 -294.450721 
L 161.24852 -232.891292 
L 139.990954 -210.962397 
L 118.733388 -256.405409 
L 97.475822 -264.595719 
L 76.218257 -264.067312 
L 54.960691 -243.723638 
L 33.703125 -269.87979 
z
" id="m19e04a64ed" style="stroke:#ffb5b8;stroke-width:0.5;"/>
    </defs>
    <g clip-path="url(#pe7d14e49d4)">
     <use style="fill:#ffb5b8;stroke:#ffb5b8;stroke-width:0.5;" x="0" xlink:href="#m19e04a64ed" y="360"/>
    </g>
   </g>
   <g id="PolyCollection_8">
    <defs>
     <path d="M 33.703125 -318.229041 
L 33.703125 -269.87979 
L 54.960691 -243.723638 
L 76.218257 -264.067312 
L 97.475822 -264.595719 
L 118.733388 -256.405409 
L 139.990954 -210.962397 
L 161.24852 -232.891292 
L 182.506086 -294.450721 
L 203.763651 -267.501958 
L 225.021217 -288.109836 
L 246.278783 -301.584217 
L 267.536349 -307.660899 
L 288.793914 -311.359749 
L 310.05148 -264.067312 
L 331.309046 -261.953683 
L 352.566612 -310.038731 
L 373.824178 -306.075677 
L 395.081743 -294.186517 
L 416.339309 -315.058598 
L 437.596875 -318.493245 
L 437.596875 -318.493245 
L 437.596875 -318.493245 
L 416.339309 -318.493245 
L 395.081743 -318.493245 
L 373.824178 -318.493245 
L 352.566612 -318.229041 
L 331.309046 -318.229041 
L 310.05148 -318.757448 
L 288.793914 -318.229041 
L 267.536349 -318.757448 
L 246.278783 -318.493245 
L 225.021217 -318.493245 
L 203.763651 -318.757448 
L 182.506086 -318.493245 
L 161.24852 -318.493245 
L 139.990954 -318.229041 
L 118.733388 -319.021652 
L 97.475822 -318.493245 
L 76.218257 -318.493245 
L 54.960691 -318.493245 
L 33.703125 -318.229041 
z
" id="mdbcbeafbb6" style="stroke:#e24a33;stroke-width:0.5;"/>
    </defs>
    <g clip-path="url(#pe7d14e49d4)">
     <use style="fill:#e24a33;stroke:#e24a33;stroke-width:0.5;" x="0" xlink:href="#mdbcbeafbb6" y="360"/>
    </g>
   </g>
   <g id="line2d_35">
    <path clip-path="url(#pe7d14e49d4)" d="M 33.703125 296.991595 
L 54.960691 295.14217 
L 76.218257 287.480267 
L 97.475822 303.33248 
L 118.733388 299.633631 
L 139.990954 285.102435 
L 161.24852 293.028542 
L 182.506086 294.613763 
L 203.763651 294.085356 
L 225.021217 304.389295 
L 246.278783 292.235931 
L 267.536349 272.420664 
L 288.793914 291.707524 
L 310.05148 272.420664 
L 331.309046 276.383718 
L 352.566612 302.53987 
L 373.824178 296.463188 
L 395.081743 289.065488 
L 416.339309 305.710312 
L 437.596875 305.710312 
" style="fill:none;stroke:#e24a33;stroke-linecap:square;stroke-width:1.5;"/>
   </g>
   <g id="line2d_36">
    <path clip-path="url(#pe7d14e49d4)" d="M 33.703125 282.724603 
L 54.960691 287.216063 
L 76.218257 268.193407 
L 97.475822 299.897834 
L 118.733388 278.76155 
L 139.990954 260.795708 
L 161.24852 286.687656 
L 182.506086 278.233143 
L 203.763651 285.366639 
L 225.021217 294.34956 
L 246.278783 286.687656 
L 267.536349 225.392431 
L 288.793914 284.838231 
L 310.05148 244.943494 
L 331.309046 245.207698 
L 352.566612 299.369427 
L 373.824178 282.724603 
L 395.081743 275.591107 
L 416.339309 304.125091 
L 437.596875 305.710312 
" style="fill:none;stroke:#348abd;stroke-linecap:square;stroke-width:1.5;"/>
   </g>
   <g id="line2d_37">
    <path clip-path="url(#pe7d14e49d4)" d="M 33.703125 282.724603 
L 54.960691 287.216063 
L 76.218257 267.136593 
L 97.475822 299.897834 
L 118.733388 277.704735 
L 139.990954 260.795708 
L 161.24852 282.460399 
L 182.506086 277.440532 
L 203.763651 281.403585 
L 225.021217 294.34956 
L 246.278783 286.687656 
L 267.536349 225.392431 
L 288.793914 267.400797 
L 310.05148 229.355484 
L 331.309046 231.733316 
L 352.566612 296.198984 
L 373.824178 281.139382 
L 395.081743 275.591107 
L 416.339309 304.125091 
L 437.596875 305.710312 
" style="fill:none;stroke:#988ed5;stroke-linecap:square;stroke-width:1.5;"/>
   </g>
   <g id="line2d_38">
    <path clip-path="url(#pe7d14e49d4)" d="M 33.703125 265.022965 
L 54.960691 267.136593 
L 76.218257 242.037255 
L 97.475822 224.071413 
L 118.733388 230.940706 
L 139.990954 251.020176 
L 161.24852 244.415087 
L 182.506086 247.321326 
L 203.763651 215.6169 
L 225.021217 255.247433 
L 246.278783 247.321326 
L 267.536349 210.068625 
L 288.793914 248.906548 
L 310.05148 199.500483 
L 331.309046 214.824289 
L 352.566612 270.042832 
L 373.824178 241.244645 
L 395.081743 247.58553 
L 416.339309 249.963362 
L 437.596875 200.02889 
" style="fill:none;stroke:#777777;stroke-linecap:square;stroke-width:1.5;"/>
   </g>
   <g id="line2d_39">
    <path clip-path="url(#pe7d14e49d4)" d="M 33.703125 218.787342 
L 54.960691 167.003445 
L 76.218257 134.242204 
L 97.475822 145.86716 
L 118.733388 156.435303 
L 139.990954 214.560085 
L 161.24852 209.540218 
L 182.506086 167.531852 
L 203.763651 167.267649 
L 225.021217 132.656983 
L 246.278783 120.239415 
L 267.536349 70.304943 
L 288.793914 85.892953 
L 310.05148 169.645481 
L 331.309046 181.006234 
L 352.566612 201.614111 
L 373.824178 158.284728 
L 395.081743 209.276014 
L 416.339309 234.639556 
L 437.596875 200.02889 
" style="fill:none;stroke:#fbc15e;stroke-linecap:square;stroke-width:1.5;"/>
   </g>
   <g id="line2d_40">
    <path clip-path="url(#pe7d14e49d4)" d="M 33.703125 218.787342 
L 54.960691 167.003445 
L 76.218257 121.032026 
L 97.475822 135.563222 
L 118.733388 142.432514 
L 139.990954 181.006234 
L 161.24852 195.801633 
L 182.506086 165.946631 
L 203.763651 167.267649 
L 225.021217 132.656983 
L 246.278783 115.747955 
L 267.536349 70.304943 
L 288.793914 85.892953 
L 310.05148 169.645481 
L 331.309046 181.006234 
L 352.566612 201.614111 
L 373.824178 158.284728 
L 395.081743 209.276014 
L 416.339309 234.639556 
L 437.596875 200.02889 
" style="fill:none;stroke:#8eba42;stroke-linecap:square;stroke-width:1.5;"/>
   </g>
   <g id="line2d_41">
    <path clip-path="url(#pe7d14e49d4)" d="M 33.703125 90.12021 
L 54.960691 116.276362 
L 76.218257 95.932688 
L 97.475822 95.404281 
L 118.733388 103.594591 
L 139.990954 149.037603 
L 161.24852 127.108708 
L 182.506086 65.549279 
L 203.763651 92.498042 
L 225.021217 71.890164 
L 246.278783 58.415783 
L 267.536349 52.339101 
L 288.793914 48.640251 
L 310.05148 95.932688 
L 331.309046 98.046317 
L 352.566612 49.961269 
L 373.824178 53.924323 
L 395.081743 65.813483 
L 416.339309 44.941402 
L 437.596875 41.506755 
" style="fill:none;stroke:#ffb5b8;stroke-linecap:square;stroke-width:1.5;"/>
   </g>
   <g id="line2d_42">
    <path clip-path="url(#pe7d14e49d4)" d="M 33.703125 41.770959 
L 54.960691 41.506755 
L 76.218257 41.506755 
L 97.475822 41.506755 
L 118.733388 40.978348 
L 139.990954 41.770959 
L 161.24852 41.506755 
L 182.506086 41.506755 
L 203.763651 41.242552 
L 225.021217 41.506755 
L 246.278783 41.506755 
L 267.536349 41.242552 
L 288.793914 41.770959 
L 310.05148 41.242552 
L 331.309046 41.770959 
L 352.566612 41.770959 
L 373.824178 41.506755 
L 395.081743 41.506755 
L 416.339309 41.506755 
L 437.596875 41.506755 
" style="fill:none;stroke:#e24a33;stroke-linecap:square;stroke-width:1.5;"/>
   </g>
   <g id="patch_3">
    <path d="M 33.703125 305.710312 
L 33.703125 27.74175 
" style="fill:none;stroke:#ffffff;stroke-linecap:square;stroke-linejoin:miter;"/>
   </g>
   <g id="patch_4">
    <path d="M 437.596875 305.710312 
L 437.596875 27.74175 
" style="fill:none;stroke:#ffffff;stroke-linecap:square;stroke-linejoin:miter;"/>
   </g>
   <g id="patch_5">
    <path d="M 33.703125 305.710312 
L 437.596875 305.710312 
" style="fill:none;stroke:#ffffff;stroke-linecap:square;stroke-linejoin:miter;"/>
   </g>
   <g id="patch_6">
    <path d="M 33.703125 27.74175 
L 437.596875 27.74175 
" style="fill:none;stroke:#ffffff;stroke-linecap:square;stroke-linejoin:miter;"/>
   </g>
   <g id="text_15">
    <!-- EDF Work -->
    <g transform="translate(200.8965 21.74175)scale(0.144 -0.144)">
     <defs>
      <path d="M 628 4666 
L 3578 4666 
L 3578 4134 
L 1259 4134 
L 1259 2753 
L 3481 2753 
L 3481 2222 
L 1259 2222 
L 1259 531 
L 3634 531 
L 3634 0 
L 628 0 
L 628 4666 
z
" id="DejaVuSans-45" transform="scale(0.015625)"/>
      <path d="M 628 4666 
L 3309 4666 
L 3309 4134 
L 1259 4134 
L 1259 2759 
L 3109 2759 
L 3109 2228 
L 1259 2228 
L 1259 0 
L 628 0 
L 628 4666 
z
" id="DejaVuSans-46" transform="scale(0.015625)"/>
      <path id="DejaVuSans-20" transform="scale(0.015625)"/>
      <path d="M 213 4666 
L 850 4666 
L 1831 722 
L 2809 4666 
L 3519 4666 
L 4500 722 
L 5478 4666 
L 6119 4666 
L 4947 0 
L 4153 0 
L 3169 4050 
L 2175 0 
L 1381 0 
L 213 4666 
z
" id="DejaVuSans-57" transform="scale(0.015625)"/>
      <path d="M 1959 3097 
Q 1497 3097 1228 2736 
Q 959 2375 959 1747 
Q 959 1119 1226 758 
Q 1494 397 1959 397 
Q 2419 397 2687 759 
Q 2956 1122 2956 1747 
Q 2956 2369 2687 2733 
Q 2419 3097 1959 3097 
z
M 1959 3584 
Q 2709 3584 3137 3096 
Q 3566 2609 3566 1747 
Q 3566 888 3137 398 
Q 2709 -91 1959 -91 
Q 1206 -91 779 398 
Q 353 888 353 1747 
Q 353 2609 779 3096 
Q 1206 3584 1959 3584 
z
" id="DejaVuSans-6f" transform="scale(0.015625)"/>
      <path d="M 581 4863 
L 1159 4863 
L 1159 1991 
L 2875 3500 
L 3609 3500 
L 1753 1863 
L 3688 0 
L 2938 0 
L 1159 1709 
L 1159 0 
L 581 0 
L 581 4863 
z
" id="DejaVuSans-6b" transform="scale(0.015625)"/>
     </defs>
     <use xlink:href="#DejaVuSans-45"/>
     <use x="63.183594" xlink:href="#DejaVuSans-44"/>
     <use x="140.185547" xlink:href="#DejaVuSans-46"/>
     <use x="197.705078" xlink:href="#DejaVuSans-20"/>
     <use x="229.492188" xlink:href="#DejaVuSans-57"/>
     <use x="322.494141" xlink:href="#DejaVuSans-6f"/>
     <use x="383.675781" xlink:href="#DejaVuSans-72"/>
     <use x="424.789062" xlink:href="#DejaVuSans-6b"/>
    </g>
   </g>
   <g id="legend_1">
    <g id="patch_7">
     <path d="M 444.596875 153.16675 
L 527.2 153.16675 
Q 529.2 153.16675 529.2 151.16675 
L 529.2 34.74175 
Q 529.2 32.74175 527.2 32.74175 
L 444.596875 32.74175 
Q 442.596875 32.74175 442.596875 34.74175 
L 442.596875 151.16675 
Q 442.596875 153.16675 444.596875 153.16675 
z
" style="fill:#e5e5e5;opacity:0.8;stroke:#cccccc;stroke-linejoin:miter;stroke-width:0.5;"/>
    </g>
    <g id="patch_8">
     <path d="M 446.596875 44.340188 
L 466.596875 44.340188 
L 466.596875 37.340188 
L 446.596875 37.340188 
z
" style="fill:#e24a33;stroke:#e24a33;stroke-linejoin:miter;stroke-width:0.5;"/>
    </g>
    <g id="text_16">
     <!-- GE11 -->
     <g transform="translate(474.596875 44.340188)scale(0.1 -0.1)">
      <defs>
       <path d="M 3809 666 
L 3809 1919 
L 2778 1919 
L 2778 2438 
L 4434 2438 
L 4434 434 
Q 4069 175 3628 42 
Q 3188 -91 2688 -91 
Q 1594 -91 976 548 
Q 359 1188 359 2328 
Q 359 3472 976 4111 
Q 1594 4750 2688 4750 
Q 3144 4750 3555 4637 
Q 3966 4525 4313 4306 
L 4313 3634 
Q 3963 3931 3569 4081 
Q 3175 4231 2741 4231 
Q 1884 4231 1454 3753 
Q 1025 3275 1025 2328 
Q 1025 1384 1454 906 
Q 1884 428 2741 428 
Q 3075 428 3337 486 
Q 3600 544 3809 666 
z
" id="DejaVuSans-47" transform="scale(0.015625)"/>
      </defs>
      <use xlink:href="#DejaVuSans-47"/>
      <use x="77.490234" xlink:href="#DejaVuSans-45"/>
      <use x="140.673828" xlink:href="#DejaVuSans-31"/>
      <use x="204.296875" xlink:href="#DejaVuSans-31"/>
     </g>
    </g>
    <g id="patch_9">
     <path d="M 446.596875 59.018313 
L 466.596875 59.018313 
L 466.596875 52.018313 
L 446.596875 52.018313 
z
" style="fill:#348abd;stroke:#348abd;stroke-linejoin:miter;stroke-width:0.5;"/>
    </g>
    <g id="text_17">
     <!-- GE21 -->
     <g transform="translate(474.596875 59.018313)scale(0.1 -0.1)">
      <use xlink:href="#DejaVuSans-47"/>
      <use x="77.490234" xlink:href="#DejaVuSans-45"/>
      <use x="140.673828" xlink:href="#DejaVuSans-32"/>
      <use x="204.296875" xlink:href="#DejaVuSans-31"/>
     </g>
    </g>
    <g id="patch_10">
     <path d="M 446.596875 73.696438 
L 466.596875 73.696438 
L 466.596875 66.696438 
L 446.596875 66.696438 
z
" style="fill:#988ed5;stroke:#988ed5;stroke-linejoin:miter;stroke-width:0.5;"/>
    </g>
    <g id="text_18">
     <!-- CSC -->
     <g transform="translate(474.596875 73.696438)scale(0.1 -0.1)">
      <defs>
       <path d="M 4122 4306 
L 4122 3641 
Q 3803 3938 3442 4084 
Q 3081 4231 2675 4231 
Q 1875 4231 1450 3742 
Q 1025 3253 1025 2328 
Q 1025 1406 1450 917 
Q 1875 428 2675 428 
Q 3081 428 3442 575 
Q 3803 722 4122 1019 
L 4122 359 
Q 3791 134 3420 21 
Q 3050 -91 2638 -91 
Q 1578 -91 968 557 
Q 359 1206 359 2328 
Q 359 3453 968 4101 
Q 1578 4750 2638 4750 
Q 3056 4750 3426 4639 
Q 3797 4528 4122 4306 
z
" id="DejaVuSans-43" transform="scale(0.015625)"/>
       <path d="M 3425 4513 
L 3425 3897 
Q 3066 4069 2747 4153 
Q 2428 4238 2131 4238 
Q 1616 4238 1336 4038 
Q 1056 3838 1056 3469 
Q 1056 3159 1242 3001 
Q 1428 2844 1947 2747 
L 2328 2669 
Q 3034 2534 3370 2195 
Q 3706 1856 3706 1288 
Q 3706 609 3251 259 
Q 2797 -91 1919 -91 
Q 1588 -91 1214 -16 
Q 841 59 441 206 
L 441 856 
Q 825 641 1194 531 
Q 1563 422 1919 422 
Q 2459 422 2753 634 
Q 3047 847 3047 1241 
Q 3047 1584 2836 1778 
Q 2625 1972 2144 2069 
L 1759 2144 
Q 1053 2284 737 2584 
Q 422 2884 422 3419 
Q 422 4038 858 4394 
Q 1294 4750 2059 4750 
Q 2388 4750 2728 4690 
Q 3069 4631 3425 4513 
z
" id="DejaVuSans-53" transform="scale(0.015625)"/>
      </defs>
      <use xlink:href="#DejaVuSans-43"/>
      <use x="69.824219" xlink:href="#DejaVuSans-53"/>
      <use x="133.300781" xlink:href="#DejaVuSans-43"/>
     </g>
    </g>
    <g id="patch_11">
     <path d="M 446.596875 88.374563 
L 466.596875 88.374563 
L 466.596875 81.374563 
L 446.596875 81.374563 
z
" style="fill:#777777;stroke:#777777;stroke-linejoin:miter;stroke-width:0.5;"/>
    </g>
    <g id="text_19">
     <!-- ME0 -->
     <g transform="translate(474.596875 88.374563)scale(0.1 -0.1)">
      <defs>
       <path d="M 628 4666 
L 1569 4666 
L 2759 1491 
L 3956 4666 
L 4897 4666 
L 4897 0 
L 4281 0 
L 4281 4097 
L 3078 897 
L 2444 897 
L 1241 4097 
L 1241 0 
L 628 0 
L 628 4666 
z
" id="DejaVuSans-4d" transform="scale(0.015625)"/>
      </defs>
      <use xlink:href="#DejaVuSans-4d"/>
      <use x="86.279297" xlink:href="#DejaVuSans-45"/>
      <use x="149.462891" xlink:href="#DejaVuSans-30"/>
     </g>
    </g>
    <g id="patch_12">
     <path d="M 446.596875 103.052688 
L 466.596875 103.052688 
L 466.596875 96.052688 
L 446.596875 96.052688 
z
" style="fill:#fbc15e;stroke:#fbc15e;stroke-linejoin:miter;stroke-width:0.5;"/>
    </g>
    <g id="text_20">
     <!-- L0MDT -->
     <g transform="translate(474.596875 103.052688)scale(0.1 -0.1)">
      <defs>
       <path d="M 628 4666 
L 1259 4666 
L 1259 531 
L 3531 531 
L 3531 0 
L 628 0 
L 628 4666 
z
" id="DejaVuSans-4c" transform="scale(0.015625)"/>
       <path d="M -19 4666 
L 3928 4666 
L 3928 4134 
L 2272 4134 
L 2272 0 
L 1638 0 
L 1638 4134 
L -19 4134 
L -19 4666 
z
" id="DejaVuSans-54" transform="scale(0.015625)"/>
      </defs>
      <use xlink:href="#DejaVuSans-4c"/>
      <use x="55.712891" xlink:href="#DejaVuSans-30"/>
      <use x="119.335938" xlink:href="#DejaVuSans-4d"/>
      <use x="205.615234" xlink:href="#DejaVuSans-44"/>
      <use x="282.617188" xlink:href="#DejaVuSans-54"/>
     </g>
    </g>
    <g id="patch_13">
     <path d="M 446.596875 117.730813 
L 466.596875 117.730813 
L 466.596875 110.730813 
L 446.596875 110.730813 
z
" style="fill:#8eba42;stroke:#8eba42;stroke-linejoin:miter;stroke-width:0.5;"/>
    </g>
    <g id="text_21">
     <!-- EMPHATIC -->
     <g transform="translate(474.596875 117.730813)scale(0.1 -0.1)">
      <defs>
       <path d="M 1259 4147 
L 1259 2394 
L 2053 2394 
Q 2494 2394 2734 2622 
Q 2975 2850 2975 3272 
Q 2975 3691 2734 3919 
Q 2494 4147 2053 4147 
L 1259 4147 
z
M 628 4666 
L 2053 4666 
Q 2838 4666 3239 4311 
Q 3641 3956 3641 3272 
Q 3641 2581 3239 2228 
Q 2838 1875 2053 1875 
L 1259 1875 
L 1259 0 
L 628 0 
L 628 4666 
z
" id="DejaVuSans-50" transform="scale(0.015625)"/>
       <path d="M 628 4666 
L 1259 4666 
L 1259 2753 
L 3553 2753 
L 3553 4666 
L 4184 4666 
L 4184 0 
L 3553 0 
L 3553 2222 
L 1259 2222 
L 1259 0 
L 628 0 
L 628 4666 
z
" id="DejaVuSans-48" transform="scale(0.015625)"/>
       <path d="M 628 4666 
L 1259 4666 
L 1259 0 
L 628 0 
L 628 4666 
z
" id="DejaVuSans-49" transform="scale(0.015625)"/>
      </defs>
      <use xlink:href="#DejaVuSans-45"/>
      <use x="63.183594" xlink:href="#DejaVuSans-4d"/>
      <use x="149.462891" xlink:href="#DejaVuSans-50"/>
      <use x="209.765625" xlink:href="#DejaVuSans-48"/>
      <use x="284.960938" xlink:href="#DejaVuSans-41"/>
      <use x="345.619141" xlink:href="#DejaVuSans-54"/>
      <use x="406.703125" xlink:href="#DejaVuSans-49"/>
      <use x="436.195312" xlink:href="#DejaVuSans-43"/>
     </g>
    </g>
    <g id="patch_14">
     <path d="M 446.596875 132.408938 
L 466.596875 132.408938 
L 466.596875 125.408938 
L 446.596875 125.408938 
z
" style="fill:#ffb5b8;stroke:#ffb5b8;stroke-linejoin:miter;stroke-width:0.5;"/>
    </g>
    <g id="text_22">
     <!-- ETL -->
     <g transform="translate(474.596875 132.408938)scale(0.1 -0.1)">
      <use xlink:href="#DejaVuSans-45"/>
      <use x="63.183594" xlink:href="#DejaVuSans-54"/>
      <use x="124.267578" xlink:href="#DejaVuSans-4c"/>
     </g>
    </g>
    <g id="patch_15">
     <path d="M 446.596875 147.087063 
L 466.596875 147.087063 
L 466.596875 140.087063 
L 446.596875 140.087063 
z
" style="fill:#e24a33;stroke:#e24a33;stroke-linejoin:miter;stroke-width:0.5;"/>
    </g>
    <g id="text_23">
     <!-- APOLLO -->
     <g transform="translate(474.596875 147.087063)scale(0.1 -0.1)">
      <use xlink:href="#DejaVuSans-41"/>
      <use x="68.408203" xlink:href="#DejaVuSans-50"/>
      <use x="128.710938" xlink:href="#DejaVuSans-4f"/>
      <use x="207.421875" xlink:href="#DejaVuSans-4c"/>
      <use x="263.134766" xlink:href="#DejaVuSans-4c"/>
      <use x="315.222656" xlink:href="#DejaVuSans-4f"/>
     </g>
    </g>
   </g>
  </g>
 </g>
 <defs>
  <clipPath id="pe7d14e49d4">
   <rect height="277.968562" width="403.89375" x="33.703125" y="27.74175"/>
  </clipPath>
 </defs>
</svg>
