<svg class="marks" width="810" height="627" viewBox="0 0 810 627" version="1.1" xmlns="http://www.w3.org/2000/svg" xmlns:xlink="http://www.w3.org/1999/xlink"><rect width="810" height="627" style="fill: white;"></rect><g transform="translate(5,22)"><g class="mark-group role-frame root"><g transform="translate(0,0)"><path class="background" d="M0.5,0.5h800v600h-800Z" style="fill: none; stroke: none;"></path><g><g class="mark-arc role-mark layer_0_marks"><path transform="translate(400,300)" d="M56.73617052921534,219.45109872465346A226.6666666666667,226.6666666666667,0,0,0,193.41063126395065,-118.1952007987546L0,0Z" style="fill: #e45756;"></path><path transform="translate(400,300)" d="M-211.1603938260018,82.39578785972991A226.6666666666667,226.6666666666667,0,0,0,56.73617052921534,219.45109872465346L0,0Z" style="fill: #72b7b2;"></path><path transform="translate(400,300)" d="M-147.87327353880823,-171.78845348478632A226.6666666666667,226.6666666666667,0,0,0,-211.1603938260018,82.39578785972991L0,0Z" style="fill: #54a24b;"></path><path transform="translate(400,300)" d="M155.79781309821763,-164.63541299365286A226.6666666666667,226.6666666666667,0,0,0,1.3879330390336672e-14,-226.6666666666667L0,0Z" style="fill: #4c78a8;"></path><path transform="translate(400,300)" d="M-4.1637991171010013e-14,-226.6666666666667A226.6666666666667,226.6666666666667,0,0,0,-108.28485760483257,-199.12851978377915L0,0Z" style="fill: #b279a2;"></path><path transform="translate(400,300)" d="M193.41063126395065,-118.1952007987546A226.6666666666667,226.6666666666667,0,0,0,155.79781309821763,-164.63541299365286L0,0Z" style="fill: #f58518;"></path><path transform="translate(400,300)" d="M-108.28485760483257,-199.12851978377915A226.6666666666667,226.6666666666667,0,0,0,-147.87327353880823,-171.78845348478632L0,0Z" style="fill: #eeca3b;"></path></g><g class="mark-text role-mark layer_1_marks"><text text-anchor="middle" transform="translate(647.1837541478044,406.05649802241186)" style="font-family: sans-serif; font-size: 20px; fill: #e45756;">ETL</text><text text-anchor="middle" transform="translate(278.5454376372853,543.4024018252397)" style="font-family: sans-serif; font-size: 20px; fill: #72b7b2;">GEM</text><text text-anchor="middle" transform="translate(141.23342682211506,241.57196482209451)" style="font-family: sans-serif; font-size: 20px; fill: #54a24b;">L0MDT</text><text text-anchor="middle" transform="translate(498.6427530689497,58.248676334334505)" style="font-family: sans-serif; font-size: 20px; fill: #4c78a8;">APOLLO</text><text text-anchor="middle" transform="translate(334.27550445258044,47.559674593633986)" style="font-family: sans-serif; font-size: 20px; fill: #b279a2;">VAC/SICK/HOL</text><text text-anchor="middle" transform="translate(607.2252263525593,138.16431644539452)" style="font-family: sans-serif; font-size: 20px; fill: #f58518;">EDF</text><text text-anchor="middle" transform="translate(248.46293020785666,86.57432331214702)" style="font-family: sans-serif; font-size: 20px; fill: #eeca3b;">OTHER PRJ</text></g><g class="mark-group role-title"><g transform="translate(400,-17)"><path class="background" d="M0,0h0v0h0Z" style="pointer-events: none; fill: none;"></path><g><g class="mark-text role-title-text" style="pointer-events: none;"><text text-anchor="middle" transform="translate(0,10)" style="font-family: sans-serif; font-size: 13px; font-weight: bold; fill: #000; opacity: 1;">EDF Work</text></g></g><path class="foreground" d="" style="pointer-events: none; display: none; fill: none;"></path></g></g></g><path class="foreground" d="" style="display: none; fill: none;"></path></g></g></g></svg>