<svg class="marks" width="810" height="627" viewBox="0 0 810 627" version="1.1" xmlns="http://www.w3.org/2000/svg" xmlns:xlink="http://www.w3.org/1999/xlink"><rect width="810" height="627" style="fill: white;"></rect><g transform="translate(5,22)"><g class="mark-group role-frame root"><g transform="translate(0,0)"><path class="background" d="M0.5,0.5h800v600h-800Z" style="fill: none; stroke: none;"></path><g><g class="mark-arc role-mark layer_0_marks"><path transform="translate(400,300)" d="M60.491339540178956,218.44581849605768A226.6666666666667,226.6666666666667,0,0,0,188.93473845501433,-125.22556601075166L0,0Z" style="fill: #72b7b2;"></path><path transform="translate(400,300)" d="M-214.8428354510034,72.25187771366826A226.6666666666667,226.6666666666667,0,0,0,60.491339540178956,218.44581849605768L0,0Z" style="fill: #54a24b;"></path><path transform="translate(400,300)" d="M-149.3774444615686,-170.482130629309A226.6666666666667,226.6666666666667,0,0,0,-214.8428354510034,72.25187771366826L0,0Z" style="fill: #eeca3b;"></path><path transform="translate(400,300)" d="M148.8512471550915,-170.9417561573288A226.6666666666667,226.6666666666667,0,0,0,1.3879330390336672e-14,-226.6666666666667L0,0Z" style="fill: #4c78a8;"></path><path transform="translate(400,300)" d="M-4.1637991171010013e-14,-226.6666666666667A226.6666666666667,226.6666666666667,0,0,0,-106.25391264561058,-200.21958901485326L0,0Z" style="fill: #ff9da6;"></path><path transform="translate(400,300)" d="M188.93473845501433,-125.22556601075166A226.6666666666667,226.6666666666667,0,0,0,149.1521048225411,-170.6793115898453L0,0Z" style="fill: #e45756;"></path><path transform="translate(400,300)" d="M-106.25391264561058,-200.21958901485326A226.6666666666667,226.6666666666667,0,0,0,-149.3774444615686,-170.482130629309L0,0Z" style="fill: #b279a2;"></path><path transform="translate(400,300)" d="M149.1521048225411,-170.6793115898453A226.6666666666667,226.6666666666667,0,0,0,148.8512471550915,-170.9417561573288L0,0Z" style="fill: #f58518;"></path></g><g class="mark-text role-mark layer_1_marks"><text text-anchor="middle" transform="translate(649.7911853970003,399.35670735984945)" style="font-family: sans-serif; font-size: 20px; fill: #72b7b2;">ETL</text><text text-anchor="middle" transform="translate(274.9435385489604,541.5249298067102)" style="font-family: sans-serif; font-size: 20px; fill: #54a24b;">GEM</text><text text-anchor="middle" transform="translate(142.53282460980557,236.56107210140704)" style="font-family: sans-serif; font-size: 20px; fill: #eeca3b;">L0MDT</text><text text-anchor="middle" transform="translate(493.49418395193,56.26023809118061)" style="font-family: sans-serif; font-size: 20px; fill: #4c78a8;">APOLLO</text><text text-anchor="middle" transform="translate(335.5906745860162,47.22876915926946)" style="font-family: sans-serif; font-size: 20px; fill: #ff9da6;">VAC/SICK/HOL</text><text text-anchor="middle" transform="translate(600.6639123973193,130.37225340934293)" style="font-family: sans-serif; font-size: 20px; fill: #e45756;">EDF</text><text text-anchor="middle" transform="translate(248.6145788632052,86.4696709373705)" style="font-family: sans-serif; font-size: 20px; fill: #b279a2;">OTHER PRJ</text><text text-anchor="middle" transform="translate(575.296157377647,105.04635280806087)" style="font-family: sans-serif; font-size: 20px; fill: #f58518;">CMS-PIXEL-DTC</text></g><g class="mark-group role-title"><g transform="translate(400,-17)"><path class="background" d="M0,0h0v0h0Z" style="pointer-events: none; fill: none;"></path><g><g class="mark-text role-title-text" style="pointer-events: none;"><text text-anchor="middle" transform="translate(0,10)" style="font-family: sans-serif; font-size: 13px; font-weight: bold; fill: #000; opacity: 1;">EDF Work</text></g></g><path class="foreground" d="" style="pointer-events: none; display: none; fill: none;"></path></g></g></g><path class="foreground" d="" style="display: none; fill: none;"></path></g></g></g></svg>