<?xml version="1.0" encoding="utf-8" standalone="no"?>
<!DOCTYPE svg PUBLIC "-//W3C//DTD SVG 1.1//EN"
  "http://www.w3.org/Graphics/SVG/1.1/DTD/svg11.dtd">
<svg xmlns:xlink="http://www.w3.org/1999/xlink" width="540pt" height="360pt" viewBox="0 0 540 360" xmlns="http://www.w3.org/2000/svg" version="1.1">
 <metadata>
  <rdf:RDF xmlns:dc="http://purl.org/dc/elements/1.1/" xmlns:cc="http://creativecommons.org/ns#" xmlns:rdf="http://www.w3.org/1999/02/22-rdf-syntax-ns#">
   <cc:Work>
    <dc:type rdf:resource="http://purl.org/dc/dcmitype/StillImage"/>
    <dc:date>2022-10-03T09:55:30.990151</dc:date>
    <dc:format>image/svg+xml</dc:format>
    <dc:creator>
     <cc:Agent>
      <dc:title>Matplotlib v3.5.2, https://matplotlib.org/</dc:title>
     </cc:Agent>
    </dc:creator>
   </cc:Work>
  </rdf:RDF>
 </metadata>
 <defs>
  <style type="text/css">*{stroke-linejoin: round; stroke-linecap: butt}</style>
 </defs>
 <g id="figure_1">
  <g id="patch_1">
   <path d="M 0 360 
L 540 360 
L 540 0 
L 0 0 
z
" style="fill: #f0f0f0"/>
  </g>
  <g id="axes_1">
   <g id="patch_2">
    <path d="M 33.3875 288.5425 
L 529.2 288.5425 
L 529.2 27.74175 
L 33.3875 27.74175 
z
" style="fill: #e5e5e5"/>
   </g>
   <g id="matplotlib.axis_1">
    <g id="xtick_1">
     <g id="line2d_1">
      <path d="M 45.19256 288.5425 
L 45.19256 27.74175 
" clip-path="url(#p2f64a0c703)" style="fill: none; stroke: #ffffff"/>
     </g>
     <g id="line2d_2"/>
     <g id="text_1">
      <!-- 2021/01 -->
      <g style="fill: #555555" transform="translate(47.951935 333.58625)rotate(-90)scale(0.1 -0.1)">
       <defs>
        <path id="DejaVuSans-32" d="M 1228 531 
L 3431 531 
L 3431 0 
L 469 0 
L 469 531 
Q 828 903 1448 1529 
Q 2069 2156 2228 2338 
Q 2531 2678 2651 2914 
Q 2772 3150 2772 3378 
Q 2772 3750 2511 3984 
Q 2250 4219 1831 4219 
Q 1534 4219 1204 4116 
Q 875 4013 500 3803 
L 500 4441 
Q 881 4594 1212 4672 
Q 1544 4750 1819 4750 
Q 2544 4750 2975 4387 
Q 3406 4025 3406 3419 
Q 3406 3131 3298 2873 
Q 3191 2616 2906 2266 
Q 2828 2175 2409 1742 
Q 1991 1309 1228 531 
z
" transform="scale(0.015625)"/>
        <path id="DejaVuSans-30" d="M 2034 4250 
Q 1547 4250 1301 3770 
Q 1056 3291 1056 2328 
Q 1056 1369 1301 889 
Q 1547 409 2034 409 
Q 2525 409 2770 889 
Q 3016 1369 3016 2328 
Q 3016 3291 2770 3770 
Q 2525 4250 2034 4250 
z
M 2034 4750 
Q 2819 4750 3233 4129 
Q 3647 3509 3647 2328 
Q 3647 1150 3233 529 
Q 2819 -91 2034 -91 
Q 1250 -91 836 529 
Q 422 1150 422 2328 
Q 422 3509 836 4129 
Q 1250 4750 2034 4750 
z
" transform="scale(0.015625)"/>
        <path id="DejaVuSans-31" d="M 794 531 
L 1825 531 
L 1825 4091 
L 703 3866 
L 703 4441 
L 1819 4666 
L 2450 4666 
L 2450 531 
L 3481 531 
L 3481 0 
L 794 0 
L 794 531 
z
" transform="scale(0.015625)"/>
        <path id="DejaVuSans-2f" d="M 1625 4666 
L 2156 4666 
L 531 -594 
L 0 -594 
L 1625 4666 
z
" transform="scale(0.015625)"/>
       </defs>
       <use xlink:href="#DejaVuSans-32"/>
       <use xlink:href="#DejaVuSans-30" x="63.623047"/>
       <use xlink:href="#DejaVuSans-32" x="127.246094"/>
       <use xlink:href="#DejaVuSans-31" x="190.869141"/>
       <use xlink:href="#DejaVuSans-2f" x="254.492188"/>
       <use xlink:href="#DejaVuSans-30" x="288.183594"/>
       <use xlink:href="#DejaVuSans-31" x="351.806641"/>
      </g>
     </g>
    </g>
    <g id="xtick_2">
     <g id="line2d_3">
      <path d="M 68.802679 288.5425 
L 68.802679 27.74175 
" clip-path="url(#p2f64a0c703)" style="fill: none; stroke: #ffffff"/>
     </g>
     <g id="line2d_4"/>
     <g id="text_2">
      <!-- 2021/02 -->
      <g style="fill: #555555" transform="translate(71.562054 333.58625)rotate(-90)scale(0.1 -0.1)">
       <use xlink:href="#DejaVuSans-32"/>
       <use xlink:href="#DejaVuSans-30" x="63.623047"/>
       <use xlink:href="#DejaVuSans-32" x="127.246094"/>
       <use xlink:href="#DejaVuSans-31" x="190.869141"/>
       <use xlink:href="#DejaVuSans-2f" x="254.492188"/>
       <use xlink:href="#DejaVuSans-30" x="288.183594"/>
       <use xlink:href="#DejaVuSans-32" x="351.806641"/>
      </g>
     </g>
    </g>
    <g id="xtick_3">
     <g id="line2d_5">
      <path d="M 92.412798 288.5425 
L 92.412798 27.74175 
" clip-path="url(#p2f64a0c703)" style="fill: none; stroke: #ffffff"/>
     </g>
     <g id="line2d_6"/>
     <g id="text_3">
      <!-- 2021/03 -->
      <g style="fill: #555555" transform="translate(95.172173 333.58625)rotate(-90)scale(0.1 -0.1)">
       <defs>
        <path id="DejaVuSans-33" d="M 2597 2516 
Q 3050 2419 3304 2112 
Q 3559 1806 3559 1356 
Q 3559 666 3084 287 
Q 2609 -91 1734 -91 
Q 1441 -91 1130 -33 
Q 819 25 488 141 
L 488 750 
Q 750 597 1062 519 
Q 1375 441 1716 441 
Q 2309 441 2620 675 
Q 2931 909 2931 1356 
Q 2931 1769 2642 2001 
Q 2353 2234 1838 2234 
L 1294 2234 
L 1294 2753 
L 1863 2753 
Q 2328 2753 2575 2939 
Q 2822 3125 2822 3475 
Q 2822 3834 2567 4026 
Q 2313 4219 1838 4219 
Q 1578 4219 1281 4162 
Q 984 4106 628 3988 
L 628 4550 
Q 988 4650 1302 4700 
Q 1616 4750 1894 4750 
Q 2613 4750 3031 4423 
Q 3450 4097 3450 3541 
Q 3450 3153 3228 2886 
Q 3006 2619 2597 2516 
z
" transform="scale(0.015625)"/>
       </defs>
       <use xlink:href="#DejaVuSans-32"/>
       <use xlink:href="#DejaVuSans-30" x="63.623047"/>
       <use xlink:href="#DejaVuSans-32" x="127.246094"/>
       <use xlink:href="#DejaVuSans-31" x="190.869141"/>
       <use xlink:href="#DejaVuSans-2f" x="254.492188"/>
       <use xlink:href="#DejaVuSans-30" x="288.183594"/>
       <use xlink:href="#DejaVuSans-33" x="351.806641"/>
      </g>
     </g>
    </g>
    <g id="xtick_4">
     <g id="line2d_7">
      <path d="M 116.022917 288.5425 
L 116.022917 27.74175 
" clip-path="url(#p2f64a0c703)" style="fill: none; stroke: #ffffff"/>
     </g>
     <g id="line2d_8"/>
     <g id="text_4">
      <!-- 2021/04 -->
      <g style="fill: #555555" transform="translate(118.782292 333.58625)rotate(-90)scale(0.1 -0.1)">
       <defs>
        <path id="DejaVuSans-34" d="M 2419 4116 
L 825 1625 
L 2419 1625 
L 2419 4116 
z
M 2253 4666 
L 3047 4666 
L 3047 1625 
L 3713 1625 
L 3713 1100 
L 3047 1100 
L 3047 0 
L 2419 0 
L 2419 1100 
L 313 1100 
L 313 1709 
L 2253 4666 
z
" transform="scale(0.015625)"/>
       </defs>
       <use xlink:href="#DejaVuSans-32"/>
       <use xlink:href="#DejaVuSans-30" x="63.623047"/>
       <use xlink:href="#DejaVuSans-32" x="127.246094"/>
       <use xlink:href="#DejaVuSans-31" x="190.869141"/>
       <use xlink:href="#DejaVuSans-2f" x="254.492188"/>
       <use xlink:href="#DejaVuSans-30" x="288.183594"/>
       <use xlink:href="#DejaVuSans-34" x="351.806641"/>
      </g>
     </g>
    </g>
    <g id="xtick_5">
     <g id="line2d_9">
      <path d="M 139.633036 288.5425 
L 139.633036 27.74175 
" clip-path="url(#p2f64a0c703)" style="fill: none; stroke: #ffffff"/>
     </g>
     <g id="line2d_10"/>
     <g id="text_5">
      <!-- 2021/05 -->
      <g style="fill: #555555" transform="translate(142.392411 333.58625)rotate(-90)scale(0.1 -0.1)">
       <defs>
        <path id="DejaVuSans-35" d="M 691 4666 
L 3169 4666 
L 3169 4134 
L 1269 4134 
L 1269 2991 
Q 1406 3038 1543 3061 
Q 1681 3084 1819 3084 
Q 2600 3084 3056 2656 
Q 3513 2228 3513 1497 
Q 3513 744 3044 326 
Q 2575 -91 1722 -91 
Q 1428 -91 1123 -41 
Q 819 9 494 109 
L 494 744 
Q 775 591 1075 516 
Q 1375 441 1709 441 
Q 2250 441 2565 725 
Q 2881 1009 2881 1497 
Q 2881 1984 2565 2268 
Q 2250 2553 1709 2553 
Q 1456 2553 1204 2497 
Q 953 2441 691 2322 
L 691 4666 
z
" transform="scale(0.015625)"/>
       </defs>
       <use xlink:href="#DejaVuSans-32"/>
       <use xlink:href="#DejaVuSans-30" x="63.623047"/>
       <use xlink:href="#DejaVuSans-32" x="127.246094"/>
       <use xlink:href="#DejaVuSans-31" x="190.869141"/>
       <use xlink:href="#DejaVuSans-2f" x="254.492188"/>
       <use xlink:href="#DejaVuSans-30" x="288.183594"/>
       <use xlink:href="#DejaVuSans-35" x="351.806641"/>
      </g>
     </g>
    </g>
    <g id="xtick_6">
     <g id="line2d_11">
      <path d="M 163.243155 288.5425 
L 163.243155 27.74175 
" clip-path="url(#p2f64a0c703)" style="fill: none; stroke: #ffffff"/>
     </g>
     <g id="line2d_12"/>
     <g id="text_6">
      <!-- 2021/06 -->
      <g style="fill: #555555" transform="translate(166.00253 333.58625)rotate(-90)scale(0.1 -0.1)">
       <defs>
        <path id="DejaVuSans-36" d="M 2113 2584 
Q 1688 2584 1439 2293 
Q 1191 2003 1191 1497 
Q 1191 994 1439 701 
Q 1688 409 2113 409 
Q 2538 409 2786 701 
Q 3034 994 3034 1497 
Q 3034 2003 2786 2293 
Q 2538 2584 2113 2584 
z
M 3366 4563 
L 3366 3988 
Q 3128 4100 2886 4159 
Q 2644 4219 2406 4219 
Q 1781 4219 1451 3797 
Q 1122 3375 1075 2522 
Q 1259 2794 1537 2939 
Q 1816 3084 2150 3084 
Q 2853 3084 3261 2657 
Q 3669 2231 3669 1497 
Q 3669 778 3244 343 
Q 2819 -91 2113 -91 
Q 1303 -91 875 529 
Q 447 1150 447 2328 
Q 447 3434 972 4092 
Q 1497 4750 2381 4750 
Q 2619 4750 2861 4703 
Q 3103 4656 3366 4563 
z
" transform="scale(0.015625)"/>
       </defs>
       <use xlink:href="#DejaVuSans-32"/>
       <use xlink:href="#DejaVuSans-30" x="63.623047"/>
       <use xlink:href="#DejaVuSans-32" x="127.246094"/>
       <use xlink:href="#DejaVuSans-31" x="190.869141"/>
       <use xlink:href="#DejaVuSans-2f" x="254.492188"/>
       <use xlink:href="#DejaVuSans-30" x="288.183594"/>
       <use xlink:href="#DejaVuSans-36" x="351.806641"/>
      </g>
     </g>
    </g>
    <g id="xtick_7">
     <g id="line2d_13">
      <path d="M 186.853274 288.5425 
L 186.853274 27.74175 
" clip-path="url(#p2f64a0c703)" style="fill: none; stroke: #ffffff"/>
     </g>
     <g id="line2d_14"/>
     <g id="text_7">
      <!-- 2021/07 -->
      <g style="fill: #555555" transform="translate(189.612649 333.58625)rotate(-90)scale(0.1 -0.1)">
       <defs>
        <path id="DejaVuSans-37" d="M 525 4666 
L 3525 4666 
L 3525 4397 
L 1831 0 
L 1172 0 
L 2766 4134 
L 525 4134 
L 525 4666 
z
" transform="scale(0.015625)"/>
       </defs>
       <use xlink:href="#DejaVuSans-32"/>
       <use xlink:href="#DejaVuSans-30" x="63.623047"/>
       <use xlink:href="#DejaVuSans-32" x="127.246094"/>
       <use xlink:href="#DejaVuSans-31" x="190.869141"/>
       <use xlink:href="#DejaVuSans-2f" x="254.492188"/>
       <use xlink:href="#DejaVuSans-30" x="288.183594"/>
       <use xlink:href="#DejaVuSans-37" x="351.806641"/>
      </g>
     </g>
    </g>
    <g id="xtick_8">
     <g id="line2d_15">
      <path d="M 210.463393 288.5425 
L 210.463393 27.74175 
" clip-path="url(#p2f64a0c703)" style="fill: none; stroke: #ffffff"/>
     </g>
     <g id="line2d_16"/>
     <g id="text_8">
      <!-- 2021/08 -->
      <g style="fill: #555555" transform="translate(213.222768 333.58625)rotate(-90)scale(0.1 -0.1)">
       <defs>
        <path id="DejaVuSans-38" d="M 2034 2216 
Q 1584 2216 1326 1975 
Q 1069 1734 1069 1313 
Q 1069 891 1326 650 
Q 1584 409 2034 409 
Q 2484 409 2743 651 
Q 3003 894 3003 1313 
Q 3003 1734 2745 1975 
Q 2488 2216 2034 2216 
z
M 1403 2484 
Q 997 2584 770 2862 
Q 544 3141 544 3541 
Q 544 4100 942 4425 
Q 1341 4750 2034 4750 
Q 2731 4750 3128 4425 
Q 3525 4100 3525 3541 
Q 3525 3141 3298 2862 
Q 3072 2584 2669 2484 
Q 3125 2378 3379 2068 
Q 3634 1759 3634 1313 
Q 3634 634 3220 271 
Q 2806 -91 2034 -91 
Q 1263 -91 848 271 
Q 434 634 434 1313 
Q 434 1759 690 2068 
Q 947 2378 1403 2484 
z
M 1172 3481 
Q 1172 3119 1398 2916 
Q 1625 2713 2034 2713 
Q 2441 2713 2670 2916 
Q 2900 3119 2900 3481 
Q 2900 3844 2670 4047 
Q 2441 4250 2034 4250 
Q 1625 4250 1398 4047 
Q 1172 3844 1172 3481 
z
" transform="scale(0.015625)"/>
       </defs>
       <use xlink:href="#DejaVuSans-32"/>
       <use xlink:href="#DejaVuSans-30" x="63.623047"/>
       <use xlink:href="#DejaVuSans-32" x="127.246094"/>
       <use xlink:href="#DejaVuSans-31" x="190.869141"/>
       <use xlink:href="#DejaVuSans-2f" x="254.492188"/>
       <use xlink:href="#DejaVuSans-30" x="288.183594"/>
       <use xlink:href="#DejaVuSans-38" x="351.806641"/>
      </g>
     </g>
    </g>
    <g id="xtick_9">
     <g id="line2d_17">
      <path d="M 234.073512 288.5425 
L 234.073512 27.74175 
" clip-path="url(#p2f64a0c703)" style="fill: none; stroke: #ffffff"/>
     </g>
     <g id="line2d_18"/>
     <g id="text_9">
      <!-- 2021/09 -->
      <g style="fill: #555555" transform="translate(236.832887 333.58625)rotate(-90)scale(0.1 -0.1)">
       <defs>
        <path id="DejaVuSans-39" d="M 703 97 
L 703 672 
Q 941 559 1184 500 
Q 1428 441 1663 441 
Q 2288 441 2617 861 
Q 2947 1281 2994 2138 
Q 2813 1869 2534 1725 
Q 2256 1581 1919 1581 
Q 1219 1581 811 2004 
Q 403 2428 403 3163 
Q 403 3881 828 4315 
Q 1253 4750 1959 4750 
Q 2769 4750 3195 4129 
Q 3622 3509 3622 2328 
Q 3622 1225 3098 567 
Q 2575 -91 1691 -91 
Q 1453 -91 1209 -44 
Q 966 3 703 97 
z
M 1959 2075 
Q 2384 2075 2632 2365 
Q 2881 2656 2881 3163 
Q 2881 3666 2632 3958 
Q 2384 4250 1959 4250 
Q 1534 4250 1286 3958 
Q 1038 3666 1038 3163 
Q 1038 2656 1286 2365 
Q 1534 2075 1959 2075 
z
" transform="scale(0.015625)"/>
       </defs>
       <use xlink:href="#DejaVuSans-32"/>
       <use xlink:href="#DejaVuSans-30" x="63.623047"/>
       <use xlink:href="#DejaVuSans-32" x="127.246094"/>
       <use xlink:href="#DejaVuSans-31" x="190.869141"/>
       <use xlink:href="#DejaVuSans-2f" x="254.492188"/>
       <use xlink:href="#DejaVuSans-30" x="288.183594"/>
       <use xlink:href="#DejaVuSans-39" x="351.806641"/>
      </g>
     </g>
    </g>
    <g id="xtick_10">
     <g id="line2d_19">
      <path d="M 257.683631 288.5425 
L 257.683631 27.74175 
" clip-path="url(#p2f64a0c703)" style="fill: none; stroke: #ffffff"/>
     </g>
     <g id="line2d_20"/>
     <g id="text_10">
      <!-- 2021/10 -->
      <g style="fill: #555555" transform="translate(260.443006 333.58625)rotate(-90)scale(0.1 -0.1)">
       <use xlink:href="#DejaVuSans-32"/>
       <use xlink:href="#DejaVuSans-30" x="63.623047"/>
       <use xlink:href="#DejaVuSans-32" x="127.246094"/>
       <use xlink:href="#DejaVuSans-31" x="190.869141"/>
       <use xlink:href="#DejaVuSans-2f" x="254.492188"/>
       <use xlink:href="#DejaVuSans-31" x="288.183594"/>
       <use xlink:href="#DejaVuSans-30" x="351.806641"/>
      </g>
     </g>
    </g>
    <g id="xtick_11">
     <g id="line2d_21">
      <path d="M 281.29375 288.5425 
L 281.29375 27.74175 
" clip-path="url(#p2f64a0c703)" style="fill: none; stroke: #ffffff"/>
     </g>
     <g id="line2d_22"/>
     <g id="text_11">
      <!-- 2021/11 -->
      <g style="fill: #555555" transform="translate(284.053125 333.58625)rotate(-90)scale(0.1 -0.1)">
       <use xlink:href="#DejaVuSans-32"/>
       <use xlink:href="#DejaVuSans-30" x="63.623047"/>
       <use xlink:href="#DejaVuSans-32" x="127.246094"/>
       <use xlink:href="#DejaVuSans-31" x="190.869141"/>
       <use xlink:href="#DejaVuSans-2f" x="254.492188"/>
       <use xlink:href="#DejaVuSans-31" x="288.183594"/>
       <use xlink:href="#DejaVuSans-31" x="351.806641"/>
      </g>
     </g>
    </g>
    <g id="xtick_12">
     <g id="line2d_23">
      <path d="M 304.903869 288.5425 
L 304.903869 27.74175 
" clip-path="url(#p2f64a0c703)" style="fill: none; stroke: #ffffff"/>
     </g>
     <g id="line2d_24"/>
     <g id="text_12">
      <!-- 2021/12 -->
      <g style="fill: #555555" transform="translate(307.663244 333.58625)rotate(-90)scale(0.1 -0.1)">
       <use xlink:href="#DejaVuSans-32"/>
       <use xlink:href="#DejaVuSans-30" x="63.623047"/>
       <use xlink:href="#DejaVuSans-32" x="127.246094"/>
       <use xlink:href="#DejaVuSans-31" x="190.869141"/>
       <use xlink:href="#DejaVuSans-2f" x="254.492188"/>
       <use xlink:href="#DejaVuSans-31" x="288.183594"/>
       <use xlink:href="#DejaVuSans-32" x="351.806641"/>
      </g>
     </g>
    </g>
    <g id="xtick_13">
     <g id="line2d_25">
      <path d="M 328.513988 288.5425 
L 328.513988 27.74175 
" clip-path="url(#p2f64a0c703)" style="fill: none; stroke: #ffffff"/>
     </g>
     <g id="line2d_26"/>
     <g id="text_13">
      <!-- 2022/01 -->
      <g style="fill: #555555" transform="translate(331.273363 333.58625)rotate(-90)scale(0.1 -0.1)">
       <use xlink:href="#DejaVuSans-32"/>
       <use xlink:href="#DejaVuSans-30" x="63.623047"/>
       <use xlink:href="#DejaVuSans-32" x="127.246094"/>
       <use xlink:href="#DejaVuSans-32" x="190.869141"/>
       <use xlink:href="#DejaVuSans-2f" x="254.492188"/>
       <use xlink:href="#DejaVuSans-30" x="288.183594"/>
       <use xlink:href="#DejaVuSans-31" x="351.806641"/>
      </g>
     </g>
    </g>
    <g id="xtick_14">
     <g id="line2d_27">
      <path d="M 352.124107 288.5425 
L 352.124107 27.74175 
" clip-path="url(#p2f64a0c703)" style="fill: none; stroke: #ffffff"/>
     </g>
     <g id="line2d_28"/>
     <g id="text_14">
      <!-- 2022/02 -->
      <g style="fill: #555555" transform="translate(354.883482 333.58625)rotate(-90)scale(0.1 -0.1)">
       <use xlink:href="#DejaVuSans-32"/>
       <use xlink:href="#DejaVuSans-30" x="63.623047"/>
       <use xlink:href="#DejaVuSans-32" x="127.246094"/>
       <use xlink:href="#DejaVuSans-32" x="190.869141"/>
       <use xlink:href="#DejaVuSans-2f" x="254.492188"/>
       <use xlink:href="#DejaVuSans-30" x="288.183594"/>
       <use xlink:href="#DejaVuSans-32" x="351.806641"/>
      </g>
     </g>
    </g>
    <g id="xtick_15">
     <g id="line2d_29">
      <path d="M 375.734226 288.5425 
L 375.734226 27.74175 
" clip-path="url(#p2f64a0c703)" style="fill: none; stroke: #ffffff"/>
     </g>
     <g id="line2d_30"/>
     <g id="text_15">
      <!-- 2022/03 -->
      <g style="fill: #555555" transform="translate(378.493601 333.58625)rotate(-90)scale(0.1 -0.1)">
       <use xlink:href="#DejaVuSans-32"/>
       <use xlink:href="#DejaVuSans-30" x="63.623047"/>
       <use xlink:href="#DejaVuSans-32" x="127.246094"/>
       <use xlink:href="#DejaVuSans-32" x="190.869141"/>
       <use xlink:href="#DejaVuSans-2f" x="254.492188"/>
       <use xlink:href="#DejaVuSans-30" x="288.183594"/>
       <use xlink:href="#DejaVuSans-33" x="351.806641"/>
      </g>
     </g>
    </g>
    <g id="xtick_16">
     <g id="line2d_31">
      <path d="M 399.344345 288.5425 
L 399.344345 27.74175 
" clip-path="url(#p2f64a0c703)" style="fill: none; stroke: #ffffff"/>
     </g>
     <g id="line2d_32"/>
     <g id="text_16">
      <!-- 2022/04 -->
      <g style="fill: #555555" transform="translate(402.10372 333.58625)rotate(-90)scale(0.1 -0.1)">
       <use xlink:href="#DejaVuSans-32"/>
       <use xlink:href="#DejaVuSans-30" x="63.623047"/>
       <use xlink:href="#DejaVuSans-32" x="127.246094"/>
       <use xlink:href="#DejaVuSans-32" x="190.869141"/>
       <use xlink:href="#DejaVuSans-2f" x="254.492188"/>
       <use xlink:href="#DejaVuSans-30" x="288.183594"/>
       <use xlink:href="#DejaVuSans-34" x="351.806641"/>
      </g>
     </g>
    </g>
    <g id="xtick_17">
     <g id="line2d_33">
      <path d="M 422.954464 288.5425 
L 422.954464 27.74175 
" clip-path="url(#p2f64a0c703)" style="fill: none; stroke: #ffffff"/>
     </g>
     <g id="line2d_34"/>
     <g id="text_17">
      <!-- 2022/05 -->
      <g style="fill: #555555" transform="translate(425.713839 333.58625)rotate(-90)scale(0.1 -0.1)">
       <use xlink:href="#DejaVuSans-32"/>
       <use xlink:href="#DejaVuSans-30" x="63.623047"/>
       <use xlink:href="#DejaVuSans-32" x="127.246094"/>
       <use xlink:href="#DejaVuSans-32" x="190.869141"/>
       <use xlink:href="#DejaVuSans-2f" x="254.492188"/>
       <use xlink:href="#DejaVuSans-30" x="288.183594"/>
       <use xlink:href="#DejaVuSans-35" x="351.806641"/>
      </g>
     </g>
    </g>
    <g id="xtick_18">
     <g id="line2d_35">
      <path d="M 446.564583 288.5425 
L 446.564583 27.74175 
" clip-path="url(#p2f64a0c703)" style="fill: none; stroke: #ffffff"/>
     </g>
     <g id="line2d_36"/>
     <g id="text_18">
      <!-- 2022/06 -->
      <g style="fill: #555555" transform="translate(449.323958 333.58625)rotate(-90)scale(0.1 -0.1)">
       <use xlink:href="#DejaVuSans-32"/>
       <use xlink:href="#DejaVuSans-30" x="63.623047"/>
       <use xlink:href="#DejaVuSans-32" x="127.246094"/>
       <use xlink:href="#DejaVuSans-32" x="190.869141"/>
       <use xlink:href="#DejaVuSans-2f" x="254.492188"/>
       <use xlink:href="#DejaVuSans-30" x="288.183594"/>
       <use xlink:href="#DejaVuSans-36" x="351.806641"/>
      </g>
     </g>
    </g>
    <g id="xtick_19">
     <g id="line2d_37">
      <path d="M 470.174702 288.5425 
L 470.174702 27.74175 
" clip-path="url(#p2f64a0c703)" style="fill: none; stroke: #ffffff"/>
     </g>
     <g id="line2d_38"/>
     <g id="text_19">
      <!-- 2022/07 -->
      <g style="fill: #555555" transform="translate(472.934077 333.58625)rotate(-90)scale(0.1 -0.1)">
       <use xlink:href="#DejaVuSans-32"/>
       <use xlink:href="#DejaVuSans-30" x="63.623047"/>
       <use xlink:href="#DejaVuSans-32" x="127.246094"/>
       <use xlink:href="#DejaVuSans-32" x="190.869141"/>
       <use xlink:href="#DejaVuSans-2f" x="254.492188"/>
       <use xlink:href="#DejaVuSans-30" x="288.183594"/>
       <use xlink:href="#DejaVuSans-37" x="351.806641"/>
      </g>
     </g>
    </g>
    <g id="xtick_20">
     <g id="line2d_39">
      <path d="M 493.784821 288.5425 
L 493.784821 27.74175 
" clip-path="url(#p2f64a0c703)" style="fill: none; stroke: #ffffff"/>
     </g>
     <g id="line2d_40"/>
     <g id="text_20">
      <!-- 2022/08 -->
      <g style="fill: #555555" transform="translate(496.544196 333.58625)rotate(-90)scale(0.1 -0.1)">
       <use xlink:href="#DejaVuSans-32"/>
       <use xlink:href="#DejaVuSans-30" x="63.623047"/>
       <use xlink:href="#DejaVuSans-32" x="127.246094"/>
       <use xlink:href="#DejaVuSans-32" x="190.869141"/>
       <use xlink:href="#DejaVuSans-2f" x="254.492188"/>
       <use xlink:href="#DejaVuSans-30" x="288.183594"/>
       <use xlink:href="#DejaVuSans-38" x="351.806641"/>
      </g>
     </g>
    </g>
    <g id="xtick_21">
     <g id="line2d_41">
      <path d="M 517.39494 288.5425 
L 517.39494 27.74175 
" clip-path="url(#p2f64a0c703)" style="fill: none; stroke: #ffffff"/>
     </g>
     <g id="line2d_42"/>
     <g id="text_21">
      <!-- 2022/09 -->
      <g style="fill: #555555" transform="translate(520.154315 333.58625)rotate(-90)scale(0.1 -0.1)">
       <use xlink:href="#DejaVuSans-32"/>
       <use xlink:href="#DejaVuSans-30" x="63.623047"/>
       <use xlink:href="#DejaVuSans-32" x="127.246094"/>
       <use xlink:href="#DejaVuSans-32" x="190.869141"/>
       <use xlink:href="#DejaVuSans-2f" x="254.492188"/>
       <use xlink:href="#DejaVuSans-30" x="288.183594"/>
       <use xlink:href="#DejaVuSans-39" x="351.806641"/>
      </g>
     </g>
    </g>
    <g id="text_22">
     <!-- Date -->
     <g style="fill: #555555" transform="translate(266.952812 346.704375)scale(0.12 -0.12)">
      <defs>
       <path id="DejaVuSans-44" d="M 1259 4147 
L 1259 519 
L 2022 519 
Q 2988 519 3436 956 
Q 3884 1394 3884 2338 
Q 3884 3275 3436 3711 
Q 2988 4147 2022 4147 
L 1259 4147 
z
M 628 4666 
L 1925 4666 
Q 3281 4666 3915 4102 
Q 4550 3538 4550 2338 
Q 4550 1131 3912 565 
Q 3275 0 1925 0 
L 628 0 
L 628 4666 
z
" transform="scale(0.015625)"/>
       <path id="DejaVuSans-61" d="M 2194 1759 
Q 1497 1759 1228 1600 
Q 959 1441 959 1056 
Q 959 750 1161 570 
Q 1363 391 1709 391 
Q 2188 391 2477 730 
Q 2766 1069 2766 1631 
L 2766 1759 
L 2194 1759 
z
M 3341 1997 
L 3341 0 
L 2766 0 
L 2766 531 
Q 2569 213 2275 61 
Q 1981 -91 1556 -91 
Q 1019 -91 701 211 
Q 384 513 384 1019 
Q 384 1609 779 1909 
Q 1175 2209 1959 2209 
L 2766 2209 
L 2766 2266 
Q 2766 2663 2505 2880 
Q 2244 3097 1772 3097 
Q 1472 3097 1187 3025 
Q 903 2953 641 2809 
L 641 3341 
Q 956 3463 1253 3523 
Q 1550 3584 1831 3584 
Q 2591 3584 2966 3190 
Q 3341 2797 3341 1997 
z
" transform="scale(0.015625)"/>
       <path id="DejaVuSans-74" d="M 1172 4494 
L 1172 3500 
L 2356 3500 
L 2356 3053 
L 1172 3053 
L 1172 1153 
Q 1172 725 1289 603 
Q 1406 481 1766 481 
L 2356 481 
L 2356 0 
L 1766 0 
Q 1100 0 847 248 
Q 594 497 594 1153 
L 594 3053 
L 172 3053 
L 172 3500 
L 594 3500 
L 594 4494 
L 1172 4494 
z
" transform="scale(0.015625)"/>
       <path id="DejaVuSans-65" d="M 3597 1894 
L 3597 1613 
L 953 1613 
Q 991 1019 1311 708 
Q 1631 397 2203 397 
Q 2534 397 2845 478 
Q 3156 559 3463 722 
L 3463 178 
Q 3153 47 2828 -22 
Q 2503 -91 2169 -91 
Q 1331 -91 842 396 
Q 353 884 353 1716 
Q 353 2575 817 3079 
Q 1281 3584 2069 3584 
Q 2775 3584 3186 3129 
Q 3597 2675 3597 1894 
z
M 3022 2063 
Q 3016 2534 2758 2815 
Q 2500 3097 2075 3097 
Q 1594 3097 1305 2825 
Q 1016 2553 972 2059 
L 3022 2063 
z
" transform="scale(0.015625)"/>
      </defs>
      <use xlink:href="#DejaVuSans-44"/>
      <use xlink:href="#DejaVuSans-61" x="77.001953"/>
      <use xlink:href="#DejaVuSans-74" x="138.28125"/>
      <use xlink:href="#DejaVuSans-65" x="177.490234"/>
     </g>
    </g>
   </g>
   <g id="matplotlib.axis_2">
    <g id="ytick_1">
     <g id="line2d_43">
      <path d="M 33.3875 288.5425 
L 529.2 288.5425 
" clip-path="url(#p2f64a0c703)" style="fill: none; stroke: #ffffff"/>
     </g>
     <g id="line2d_44"/>
     <g id="text_23">
      <!-- 0 -->
      <g style="fill: #555555" transform="translate(23.525 292.341719)scale(0.1 -0.1)">
       <use xlink:href="#DejaVuSans-30"/>
      </g>
     </g>
    </g>
    <g id="ytick_2">
     <g id="line2d_45">
      <path d="M 33.3875 254.330149 
L 529.2 254.330149 
" clip-path="url(#p2f64a0c703)" style="fill: none; stroke: #ffffff"/>
     </g>
     <g id="line2d_46"/>
     <g id="text_24">
      <!-- 25 -->
      <g style="fill: #555555" transform="translate(17.1625 258.129368)scale(0.1 -0.1)">
       <use xlink:href="#DejaVuSans-32"/>
       <use xlink:href="#DejaVuSans-35" x="63.623047"/>
      </g>
     </g>
    </g>
    <g id="ytick_3">
     <g id="line2d_47">
      <path d="M 33.3875 220.117798 
L 529.2 220.117798 
" clip-path="url(#p2f64a0c703)" style="fill: none; stroke: #ffffff"/>
     </g>
     <g id="line2d_48"/>
     <g id="text_25">
      <!-- 50 -->
      <g style="fill: #555555" transform="translate(17.1625 223.917017)scale(0.1 -0.1)">
       <use xlink:href="#DejaVuSans-35"/>
       <use xlink:href="#DejaVuSans-30" x="63.623047"/>
      </g>
     </g>
    </g>
    <g id="ytick_4">
     <g id="line2d_49">
      <path d="M 33.3875 185.905448 
L 529.2 185.905448 
" clip-path="url(#p2f64a0c703)" style="fill: none; stroke: #ffffff"/>
     </g>
     <g id="line2d_50"/>
     <g id="text_26">
      <!-- 75 -->
      <g style="fill: #555555" transform="translate(17.1625 189.704666)scale(0.1 -0.1)">
       <use xlink:href="#DejaVuSans-37"/>
       <use xlink:href="#DejaVuSans-35" x="63.623047"/>
      </g>
     </g>
    </g>
    <g id="ytick_5">
     <g id="line2d_51">
      <path d="M 33.3875 151.693097 
L 529.2 151.693097 
" clip-path="url(#p2f64a0c703)" style="fill: none; stroke: #ffffff"/>
     </g>
     <g id="line2d_52"/>
     <g id="text_27">
      <!-- 100 -->
      <g style="fill: #555555" transform="translate(10.8 155.492316)scale(0.1 -0.1)">
       <use xlink:href="#DejaVuSans-31"/>
       <use xlink:href="#DejaVuSans-30" x="63.623047"/>
       <use xlink:href="#DejaVuSans-30" x="127.246094"/>
      </g>
     </g>
    </g>
    <g id="ytick_6">
     <g id="line2d_53">
      <path d="M 33.3875 117.480746 
L 529.2 117.480746 
" clip-path="url(#p2f64a0c703)" style="fill: none; stroke: #ffffff"/>
     </g>
     <g id="line2d_54"/>
     <g id="text_28">
      <!-- 125 -->
      <g style="fill: #555555" transform="translate(10.8 121.279965)scale(0.1 -0.1)">
       <use xlink:href="#DejaVuSans-31"/>
       <use xlink:href="#DejaVuSans-32" x="63.623047"/>
       <use xlink:href="#DejaVuSans-35" x="127.246094"/>
      </g>
     </g>
    </g>
    <g id="ytick_7">
     <g id="line2d_55">
      <path d="M 33.3875 83.268395 
L 529.2 83.268395 
" clip-path="url(#p2f64a0c703)" style="fill: none; stroke: #ffffff"/>
     </g>
     <g id="line2d_56"/>
     <g id="text_29">
      <!-- 150 -->
      <g style="fill: #555555" transform="translate(10.8 87.067614)scale(0.1 -0.1)">
       <use xlink:href="#DejaVuSans-31"/>
       <use xlink:href="#DejaVuSans-35" x="63.623047"/>
       <use xlink:href="#DejaVuSans-30" x="127.246094"/>
      </g>
     </g>
    </g>
    <g id="ytick_8">
     <g id="line2d_57">
      <path d="M 33.3875 49.056045 
L 529.2 49.056045 
" clip-path="url(#p2f64a0c703)" style="fill: none; stroke: #ffffff"/>
     </g>
     <g id="line2d_58"/>
     <g id="text_30">
      <!-- 175 -->
      <g style="fill: #555555" transform="translate(10.8 52.855263)scale(0.1 -0.1)">
       <use xlink:href="#DejaVuSans-31"/>
       <use xlink:href="#DejaVuSans-37" x="63.623047"/>
       <use xlink:href="#DejaVuSans-35" x="127.246094"/>
      </g>
     </g>
    </g>
   </g>
   <g id="patch_3">
    <path d="M 39.29003 288.5425 
L 51.095089 288.5425 
L 51.095089 98.32183 
L 39.29003 98.32183 
z
" clip-path="url(#p2f64a0c703)" style="fill: #e24a33"/>
   </g>
   <g id="patch_4">
    <path d="M 62.900149 288.5425 
L 74.705208 288.5425 
L 74.705208 142.113639 
L 62.900149 142.113639 
z
" clip-path="url(#p2f64a0c703)" style="fill: #e24a33"/>
   </g>
   <g id="patch_5">
    <path d="M 86.510268 288.5425 
L 98.315327 288.5425 
L 98.315327 87.373877 
L 86.510268 87.373877 
z
" clip-path="url(#p2f64a0c703)" style="fill: #e24a33"/>
   </g>
   <g id="patch_6">
    <path d="M 110.120387 288.5425 
L 121.925446 288.5425 
L 121.925446 70.951949 
L 110.120387 70.951949 
z
" clip-path="url(#p2f64a0c703)" style="fill: #e24a33"/>
   </g>
   <g id="patch_7">
    <path d="M 133.730506 288.5425 
L 145.535565 288.5425 
L 145.535565 88.742371 
L 133.730506 88.742371 
z
" clip-path="url(#p2f64a0c703)" style="fill: #e24a33"/>
   </g>
   <g id="patch_8">
    <path d="M 157.340625 288.5425 
L 169.145685 288.5425 
L 169.145685 40.160833 
L 157.340625 40.160833 
z
" clip-path="url(#p2f64a0c703)" style="fill: #e24a33"/>
   </g>
   <g id="patch_9">
    <path d="M 180.950744 288.5425 
L 192.755804 288.5425 
L 192.755804 58.635503 
L 180.950744 58.635503 
z
" clip-path="url(#p2f64a0c703)" style="fill: #e24a33"/>
   </g>
   <g id="patch_10">
    <path d="M 204.560863 288.5425 
L 216.365923 288.5425 
L 216.365923 64.109479 
L 204.560863 64.109479 
z
" clip-path="url(#p2f64a0c703)" style="fill: #e24a33"/>
   </g>
   <g id="patch_11">
    <path d="M 228.170982 288.5425 
L 239.976042 288.5425 
L 239.976042 68.557084 
L 228.170982 68.557084 
z
" clip-path="url(#p2f64a0c703)" style="fill: #e24a33"/>
   </g>
   <g id="patch_12">
    <path d="M 251.781101 288.5425 
L 263.586161 288.5425 
L 263.586161 84.636889 
L 251.781101 84.636889 
z
" clip-path="url(#p2f64a0c703)" style="fill: #e24a33"/>
   </g>
   <g id="patch_13">
    <path d="M 275.39122 288.5425 
L 287.19628 288.5425 
L 287.19628 72.320443 
L 275.39122 72.320443 
z
" clip-path="url(#p2f64a0c703)" style="fill: #e24a33"/>
   </g>
   <g id="patch_14">
    <path d="M 299.001339 288.5425 
L 310.806399 288.5425 
L 310.806399 53.845774 
L 299.001339 53.845774 
z
" clip-path="url(#p2f64a0c703)" style="fill: #e24a33"/>
   </g>
   <g id="patch_15">
    <path d="M 322.611458 288.5425 
L 334.416518 288.5425 
L 334.416518 84.636889 
L 322.611458 84.636889 
z
" clip-path="url(#p2f64a0c703)" style="fill: #e24a33"/>
   </g>
   <g id="patch_16">
    <path d="M 346.221577 288.5425 
L 358.026637 288.5425 
L 358.026637 87.373877 
L 346.221577 87.373877 
z
" clip-path="url(#p2f64a0c703)" style="fill: #e24a33"/>
   </g>
   <g id="patch_17">
    <path d="M 369.831696 288.5425 
L 381.636756 288.5425 
L 381.636756 57.267009 
L 369.831696 57.267009 
z
" clip-path="url(#p2f64a0c703)" style="fill: #e24a33"/>
   </g>
   <g id="patch_18">
    <path d="M 393.441815 288.5425 
L 405.246875 288.5425 
L 405.246875 84.636889 
L 393.441815 84.636889 
z
" clip-path="url(#p2f64a0c703)" style="fill: #e24a33"/>
   </g>
   <g id="patch_19">
    <path d="M 417.051935 288.5425 
L 428.856994 288.5425 
L 428.856994 116.796499 
L 417.051935 116.796499 
z
" clip-path="url(#p2f64a0c703)" style="fill: #e24a33"/>
   </g>
   <g id="patch_20">
    <path d="M 440.662054 288.5425 
L 452.467113 288.5425 
L 452.467113 82.584148 
L 440.662054 82.584148 
z
" clip-path="url(#p2f64a0c703)" style="fill: #e24a33"/>
   </g>
   <g id="patch_21">
    <path d="M 464.272173 288.5425 
L 476.077232 288.5425 
L 476.077232 135.271169 
L 464.272173 135.271169 
z
" clip-path="url(#p2f64a0c703)" style="fill: #e24a33"/>
   </g>
   <g id="patch_22">
    <path d="M 487.882292 288.5425 
L 499.687351 288.5425 
L 499.687351 138.692404 
L 487.882292 138.692404 
z
" clip-path="url(#p2f64a0c703)" style="fill: #e24a33"/>
   </g>
   <g id="patch_23">
    <path d="M 511.492411 288.5425 
L 523.29747 288.5425 
L 523.29747 128.428698 
L 511.492411 128.428698 
z
" clip-path="url(#p2f64a0c703)" style="fill: #e24a33"/>
   </g>
   <g id="patch_24">
    <path d="M 33.3875 288.5425 
L 33.3875 27.74175 
" style="fill: none; stroke: #ffffff; stroke-linejoin: miter; stroke-linecap: square"/>
   </g>
   <g id="patch_25">
    <path d="M 529.2 288.5425 
L 529.2 27.74175 
" style="fill: none; stroke: #ffffff; stroke-linejoin: miter; stroke-linecap: square"/>
   </g>
   <g id="patch_26">
    <path d="M 33.3875 288.5425 
L 529.2 288.5425 
" style="fill: none; stroke: #ffffff; stroke-linejoin: miter; stroke-linecap: square"/>
   </g>
   <g id="patch_27">
    <path d="M 33.3875 27.74175 
L 529.2 27.74175 
" style="fill: none; stroke: #ffffff; stroke-linejoin: miter; stroke-linecap: square"/>
   </g>
   <g id="text_31">
    <!-- EDF Work -->
    <g transform="translate(246.54025 21.74175)scale(0.144 -0.144)">
     <defs>
      <path id="DejaVuSans-45" d="M 628 4666 
L 3578 4666 
L 3578 4134 
L 1259 4134 
L 1259 2753 
L 3481 2753 
L 3481 2222 
L 1259 2222 
L 1259 531 
L 3634 531 
L 3634 0 
L 628 0 
L 628 4666 
z
" transform="scale(0.015625)"/>
      <path id="DejaVuSans-46" d="M 628 4666 
L 3309 4666 
L 3309 4134 
L 1259 4134 
L 1259 2759 
L 3109 2759 
L 3109 2228 
L 1259 2228 
L 1259 0 
L 628 0 
L 628 4666 
z
" transform="scale(0.015625)"/>
      <path id="DejaVuSans-20" transform="scale(0.015625)"/>
      <path id="DejaVuSans-57" d="M 213 4666 
L 850 4666 
L 1831 722 
L 2809 4666 
L 3519 4666 
L 4500 722 
L 5478 4666 
L 6119 4666 
L 4947 0 
L 4153 0 
L 3169 4050 
L 2175 0 
L 1381 0 
L 213 4666 
z
" transform="scale(0.015625)"/>
      <path id="DejaVuSans-6f" d="M 1959 3097 
Q 1497 3097 1228 2736 
Q 959 2375 959 1747 
Q 959 1119 1226 758 
Q 1494 397 1959 397 
Q 2419 397 2687 759 
Q 2956 1122 2956 1747 
Q 2956 2369 2687 2733 
Q 2419 3097 1959 3097 
z
M 1959 3584 
Q 2709 3584 3137 3096 
Q 3566 2609 3566 1747 
Q 3566 888 3137 398 
Q 2709 -91 1959 -91 
Q 1206 -91 779 398 
Q 353 888 353 1747 
Q 353 2609 779 3096 
Q 1206 3584 1959 3584 
z
" transform="scale(0.015625)"/>
      <path id="DejaVuSans-72" d="M 2631 2963 
Q 2534 3019 2420 3045 
Q 2306 3072 2169 3072 
Q 1681 3072 1420 2755 
Q 1159 2438 1159 1844 
L 1159 0 
L 581 0 
L 581 3500 
L 1159 3500 
L 1159 2956 
Q 1341 3275 1631 3429 
Q 1922 3584 2338 3584 
Q 2397 3584 2469 3576 
Q 2541 3569 2628 3553 
L 2631 2963 
z
" transform="scale(0.015625)"/>
      <path id="DejaVuSans-6b" d="M 581 4863 
L 1159 4863 
L 1159 1991 
L 2875 3500 
L 3609 3500 
L 1753 1863 
L 3688 0 
L 2938 0 
L 1159 1709 
L 1159 0 
L 581 0 
L 581 4863 
z
" transform="scale(0.015625)"/>
     </defs>
     <use xlink:href="#DejaVuSans-45"/>
     <use xlink:href="#DejaVuSans-44" x="63.183594"/>
     <use xlink:href="#DejaVuSans-46" x="140.185547"/>
     <use xlink:href="#DejaVuSans-20" x="197.705078"/>
     <use xlink:href="#DejaVuSans-57" x="229.492188"/>
     <use xlink:href="#DejaVuSans-6f" x="322.494141"/>
     <use xlink:href="#DejaVuSans-72" x="383.675781"/>
     <use xlink:href="#DejaVuSans-6b" x="424.789062"/>
    </g>
   </g>
   <g id="legend_1">
    <g id="patch_28">
     <path d="M 466.846875 50.419875 
L 522.2 50.419875 
Q 524.2 50.419875 524.2 48.419875 
L 524.2 34.74175 
Q 524.2 32.74175 522.2 32.74175 
L 466.846875 32.74175 
Q 464.846875 32.74175 464.846875 34.74175 
L 464.846875 48.419875 
Q 464.846875 50.419875 466.846875 50.419875 
z
" style="fill: #e5e5e5; opacity: 0.8; stroke: #cccccc; stroke-width: 0.5; stroke-linejoin: miter"/>
    </g>
    <g id="patch_29">
     <path d="M 468.846875 44.340188 
L 488.846875 44.340188 
L 488.846875 37.340188 
L 468.846875 37.340188 
z
" style="fill: #e24a33"/>
    </g>
    <g id="text_32">
     <!-- Total -->
     <g transform="translate(496.846875 44.340188)scale(0.1 -0.1)">
      <defs>
       <path id="DejaVuSans-54" d="M -19 4666 
L 3928 4666 
L 3928 4134 
L 2272 4134 
L 2272 0 
L 1638 0 
L 1638 4134 
L -19 4134 
L -19 4666 
z
" transform="scale(0.015625)"/>
       <path id="DejaVuSans-6c" d="M 603 4863 
L 1178 4863 
L 1178 0 
L 603 0 
L 603 4863 
z
" transform="scale(0.015625)"/>
      </defs>
      <use xlink:href="#DejaVuSans-54"/>
      <use xlink:href="#DejaVuSans-6f" x="44.083984"/>
      <use xlink:href="#DejaVuSans-74" x="105.265625"/>
      <use xlink:href="#DejaVuSans-61" x="144.474609"/>
      <use xlink:href="#DejaVuSans-6c" x="205.753906"/>
     </g>
    </g>
   </g>
  </g>
 </g>
 <defs>
  <clipPath id="p2f64a0c703">
   <rect x="33.3875" y="27.74175" width="495.8125" height="260.80075"/>
  </clipPath>
 </defs>
</svg>
