<?xml version="1.0" encoding="utf-8" standalone="no"?>
<!DOCTYPE svg PUBLIC "-//W3C//DTD SVG 1.1//EN"
  "http://www.w3.org/Graphics/SVG/1.1/DTD/svg11.dtd">
<svg xmlns:xlink="http://www.w3.org/1999/xlink" width="540pt" height="360pt" viewBox="0 0 540 360" xmlns="http://www.w3.org/2000/svg" version="1.1">
 <metadata>
  <rdf:RDF xmlns:dc="http://purl.org/dc/elements/1.1/" xmlns:cc="http://creativecommons.org/ns#" xmlns:rdf="http://www.w3.org/1999/02/22-rdf-syntax-ns#">
   <cc:Work>
    <dc:type rdf:resource="http://purl.org/dc/dcmitype/StillImage"/>
    <dc:date>2022-09-01T13:25:45.318264</dc:date>
    <dc:format>image/svg+xml</dc:format>
    <dc:creator>
     <cc:Agent>
      <dc:title>Matplotlib v3.5.2, https://matplotlib.org/</dc:title>
     </cc:Agent>
    </dc:creator>
   </cc:Work>
  </rdf:RDF>
 </metadata>
 <defs>
  <style type="text/css">*{stroke-linejoin: round; stroke-linecap: butt}</style>
 </defs>
 <g id="figure_1">
  <g id="patch_1">
   <path d="M 0 360 
L 540 360 
L 540 0 
L 0 0 
z
" style="fill: #f0f0f0"/>
  </g>
  <g id="axes_1">
   <g id="patch_2">
    <path d="M 30.203125 309.210312 
L 448.804687 309.210312 
L 448.804687 27.74175 
L 30.203125 27.74175 
z
" style="fill: #e5e5e5"/>
   </g>
   <g id="matplotlib.axis_1">
    <g id="xtick_1">
     <g id="line2d_1">
      <path d="M 30.203125 309.210312 
L 30.203125 27.74175 
" clip-path="url(#p4ce6b635e9)" style="fill: none; stroke: #ffffff"/>
     </g>
     <g id="line2d_2"/>
     <g id="text_1">
      <!-- Jan -->
      <g style="fill: #555555" transform="translate(22.495313 320.30875)scale(0.1 -0.1)">
       <defs>
        <path id="DejaVuSans-4a" d="M 628 4666 
L 1259 4666 
L 1259 325 
Q 1259 -519 939 -900 
Q 619 -1281 -91 -1281 
L -331 -1281 
L -331 -750 
L -134 -750 
Q 284 -750 456 -515 
Q 628 -281 628 325 
L 628 4666 
z
" transform="scale(0.015625)"/>
        <path id="DejaVuSans-61" d="M 2194 1759 
Q 1497 1759 1228 1600 
Q 959 1441 959 1056 
Q 959 750 1161 570 
Q 1363 391 1709 391 
Q 2188 391 2477 730 
Q 2766 1069 2766 1631 
L 2766 1759 
L 2194 1759 
z
M 3341 1997 
L 3341 0 
L 2766 0 
L 2766 531 
Q 2569 213 2275 61 
Q 1981 -91 1556 -91 
Q 1019 -91 701 211 
Q 384 513 384 1019 
Q 384 1609 779 1909 
Q 1175 2209 1959 2209 
L 2766 2209 
L 2766 2266 
Q 2766 2663 2505 2880 
Q 2244 3097 1772 3097 
Q 1472 3097 1187 3025 
Q 903 2953 641 2809 
L 641 3341 
Q 956 3463 1253 3523 
Q 1550 3584 1831 3584 
Q 2591 3584 2966 3190 
Q 3341 2797 3341 1997 
z
" transform="scale(0.015625)"/>
        <path id="DejaVuSans-6e" d="M 3513 2113 
L 3513 0 
L 2938 0 
L 2938 2094 
Q 2938 2591 2744 2837 
Q 2550 3084 2163 3084 
Q 1697 3084 1428 2787 
Q 1159 2491 1159 1978 
L 1159 0 
L 581 0 
L 581 3500 
L 1159 3500 
L 1159 2956 
Q 1366 3272 1645 3428 
Q 1925 3584 2291 3584 
Q 2894 3584 3203 3211 
Q 3513 2838 3513 2113 
z
" transform="scale(0.015625)"/>
       </defs>
       <use xlink:href="#DejaVuSans-4a"/>
       <use xlink:href="#DejaVuSans-61" x="29.492188"/>
       <use xlink:href="#DejaVuSans-6e" x="90.771484"/>
      </g>
      <!-- 2021 -->
      <g style="fill: #555555" transform="translate(17.478125 331.506562)scale(0.1 -0.1)">
       <defs>
        <path id="DejaVuSans-32" d="M 1228 531 
L 3431 531 
L 3431 0 
L 469 0 
L 469 531 
Q 828 903 1448 1529 
Q 2069 2156 2228 2338 
Q 2531 2678 2651 2914 
Q 2772 3150 2772 3378 
Q 2772 3750 2511 3984 
Q 2250 4219 1831 4219 
Q 1534 4219 1204 4116 
Q 875 4013 500 3803 
L 500 4441 
Q 881 4594 1212 4672 
Q 1544 4750 1819 4750 
Q 2544 4750 2975 4387 
Q 3406 4025 3406 3419 
Q 3406 3131 3298 2873 
Q 3191 2616 2906 2266 
Q 2828 2175 2409 1742 
Q 1991 1309 1228 531 
z
" transform="scale(0.015625)"/>
        <path id="DejaVuSans-30" d="M 2034 4250 
Q 1547 4250 1301 3770 
Q 1056 3291 1056 2328 
Q 1056 1369 1301 889 
Q 1547 409 2034 409 
Q 2525 409 2770 889 
Q 3016 1369 3016 2328 
Q 3016 3291 2770 3770 
Q 2525 4250 2034 4250 
z
M 2034 4750 
Q 2819 4750 3233 4129 
Q 3647 3509 3647 2328 
Q 3647 1150 3233 529 
Q 2819 -91 2034 -91 
Q 1250 -91 836 529 
Q 422 1150 422 2328 
Q 422 3509 836 4129 
Q 1250 4750 2034 4750 
z
" transform="scale(0.015625)"/>
        <path id="DejaVuSans-31" d="M 794 531 
L 1825 531 
L 1825 4091 
L 703 3866 
L 703 4441 
L 1819 4666 
L 2450 4666 
L 2450 531 
L 3481 531 
L 3481 0 
L 794 0 
L 794 531 
z
" transform="scale(0.015625)"/>
       </defs>
       <use xlink:href="#DejaVuSans-32"/>
       <use xlink:href="#DejaVuSans-30" x="63.623047"/>
       <use xlink:href="#DejaVuSans-32" x="127.246094"/>
       <use xlink:href="#DejaVuSans-31" x="190.869141"/>
      </g>
     </g>
    </g>
    <g id="xtick_2">
     <g id="line2d_3">
      <path d="M 281.364063 309.210312 
L 281.364063 27.74175 
" clip-path="url(#p4ce6b635e9)" style="fill: none; stroke: #ffffff"/>
     </g>
     <g id="line2d_4"/>
     <g id="text_2">
      <!-- Jan -->
      <g style="fill: #555555" transform="translate(273.65625 320.30875)scale(0.1 -0.1)">
       <use xlink:href="#DejaVuSans-4a"/>
       <use xlink:href="#DejaVuSans-61" x="29.492188"/>
       <use xlink:href="#DejaVuSans-6e" x="90.771484"/>
      </g>
      <!-- 2022 -->
      <g style="fill: #555555" transform="translate(268.639063 331.506562)scale(0.1 -0.1)">
       <use xlink:href="#DejaVuSans-32"/>
       <use xlink:href="#DejaVuSans-30" x="63.623047"/>
       <use xlink:href="#DejaVuSans-32" x="127.246094"/>
       <use xlink:href="#DejaVuSans-32" x="190.869141"/>
      </g>
     </g>
    </g>
    <g id="xtick_3">
     <g id="line2d_5"/>
    </g>
    <g id="xtick_4">
     <g id="line2d_6"/>
    </g>
    <g id="xtick_5">
     <g id="line2d_7"/>
     <g id="text_3">
      <!-- Apr -->
      <g style="fill: #555555" transform="translate(84.343359 320.20875)scale(0.1 -0.1)">
       <defs>
        <path id="DejaVuSans-41" d="M 2188 4044 
L 1331 1722 
L 3047 1722 
L 2188 4044 
z
M 1831 4666 
L 2547 4666 
L 4325 0 
L 3669 0 
L 3244 1197 
L 1141 1197 
L 716 0 
L 50 0 
L 1831 4666 
z
" transform="scale(0.015625)"/>
        <path id="DejaVuSans-70" d="M 1159 525 
L 1159 -1331 
L 581 -1331 
L 581 3500 
L 1159 3500 
L 1159 2969 
Q 1341 3281 1617 3432 
Q 1894 3584 2278 3584 
Q 2916 3584 3314 3078 
Q 3713 2572 3713 1747 
Q 3713 922 3314 415 
Q 2916 -91 2278 -91 
Q 1894 -91 1617 61 
Q 1341 213 1159 525 
z
M 3116 1747 
Q 3116 2381 2855 2742 
Q 2594 3103 2138 3103 
Q 1681 3103 1420 2742 
Q 1159 2381 1159 1747 
Q 1159 1113 1420 752 
Q 1681 391 2138 391 
Q 2594 391 2855 752 
Q 3116 1113 3116 1747 
z
" transform="scale(0.015625)"/>
        <path id="DejaVuSans-72" d="M 2631 2963 
Q 2534 3019 2420 3045 
Q 2306 3072 2169 3072 
Q 1681 3072 1420 2755 
Q 1159 2438 1159 1844 
L 1159 0 
L 581 0 
L 581 3500 
L 1159 3500 
L 1159 2956 
Q 1341 3275 1631 3429 
Q 1922 3584 2338 3584 
Q 2397 3584 2469 3576 
Q 2541 3569 2628 3553 
L 2631 2963 
z
" transform="scale(0.015625)"/>
       </defs>
       <use xlink:href="#DejaVuSans-41"/>
       <use xlink:href="#DejaVuSans-70" x="68.408203"/>
       <use xlink:href="#DejaVuSans-72" x="131.884766"/>
      </g>
     </g>
    </g>
    <g id="xtick_6">
     <g id="line2d_8"/>
    </g>
    <g id="xtick_7">
     <g id="line2d_9"/>
    </g>
    <g id="xtick_8">
     <g id="line2d_10"/>
     <g id="text_4">
      <!-- Jul -->
      <g style="fill: #555555" transform="translate(149.750781 320.20875)scale(0.1 -0.1)">
       <defs>
        <path id="DejaVuSans-75" d="M 544 1381 
L 544 3500 
L 1119 3500 
L 1119 1403 
Q 1119 906 1312 657 
Q 1506 409 1894 409 
Q 2359 409 2629 706 
Q 2900 1003 2900 1516 
L 2900 3500 
L 3475 3500 
L 3475 0 
L 2900 0 
L 2900 538 
Q 2691 219 2414 64 
Q 2138 -91 1772 -91 
Q 1169 -91 856 284 
Q 544 659 544 1381 
z
M 1991 3584 
L 1991 3584 
z
" transform="scale(0.015625)"/>
        <path id="DejaVuSans-6c" d="M 603 4863 
L 1178 4863 
L 1178 0 
L 603 0 
L 603 4863 
z
" transform="scale(0.015625)"/>
       </defs>
       <use xlink:href="#DejaVuSans-4a"/>
       <use xlink:href="#DejaVuSans-75" x="29.492188"/>
       <use xlink:href="#DejaVuSans-6c" x="92.871094"/>
      </g>
     </g>
    </g>
    <g id="xtick_9">
     <g id="line2d_11"/>
    </g>
    <g id="xtick_10">
     <g id="line2d_12"/>
    </g>
    <g id="xtick_11">
     <g id="line2d_13"/>
     <g id="text_5">
      <!-- Oct -->
      <g style="fill: #555555" transform="translate(209.928516 320.20875)scale(0.1 -0.1)">
       <defs>
        <path id="DejaVuSans-4f" d="M 2522 4238 
Q 1834 4238 1429 3725 
Q 1025 3213 1025 2328 
Q 1025 1447 1429 934 
Q 1834 422 2522 422 
Q 3209 422 3611 934 
Q 4013 1447 4013 2328 
Q 4013 3213 3611 3725 
Q 3209 4238 2522 4238 
z
M 2522 4750 
Q 3503 4750 4090 4092 
Q 4678 3434 4678 2328 
Q 4678 1225 4090 567 
Q 3503 -91 2522 -91 
Q 1538 -91 948 565 
Q 359 1222 359 2328 
Q 359 3434 948 4092 
Q 1538 4750 2522 4750 
z
" transform="scale(0.015625)"/>
        <path id="DejaVuSans-63" d="M 3122 3366 
L 3122 2828 
Q 2878 2963 2633 3030 
Q 2388 3097 2138 3097 
Q 1578 3097 1268 2742 
Q 959 2388 959 1747 
Q 959 1106 1268 751 
Q 1578 397 2138 397 
Q 2388 397 2633 464 
Q 2878 531 3122 666 
L 3122 134 
Q 2881 22 2623 -34 
Q 2366 -91 2075 -91 
Q 1284 -91 818 406 
Q 353 903 353 1747 
Q 353 2603 823 3093 
Q 1294 3584 2113 3584 
Q 2378 3584 2631 3529 
Q 2884 3475 3122 3366 
z
" transform="scale(0.015625)"/>
        <path id="DejaVuSans-74" d="M 1172 4494 
L 1172 3500 
L 2356 3500 
L 2356 3053 
L 1172 3053 
L 1172 1153 
Q 1172 725 1289 603 
Q 1406 481 1766 481 
L 2356 481 
L 2356 0 
L 1766 0 
Q 1100 0 847 248 
Q 594 497 594 1153 
L 594 3053 
L 172 3053 
L 172 3500 
L 594 3500 
L 594 4494 
L 1172 4494 
z
" transform="scale(0.015625)"/>
       </defs>
       <use xlink:href="#DejaVuSans-4f"/>
       <use xlink:href="#DejaVuSans-63" x="78.710938"/>
       <use xlink:href="#DejaVuSans-74" x="133.691406"/>
      </g>
     </g>
    </g>
    <g id="xtick_12">
     <g id="line2d_14"/>
    </g>
    <g id="xtick_13">
     <g id="line2d_15"/>
    </g>
    <g id="xtick_14">
     <g id="line2d_16"/>
    </g>
    <g id="xtick_15">
     <g id="line2d_17"/>
    </g>
    <g id="xtick_16">
     <g id="line2d_18"/>
     <g id="text_6">
      <!-- Apr -->
      <g style="fill: #555555" transform="translate(335.504297 320.20875)scale(0.1 -0.1)">
       <use xlink:href="#DejaVuSans-41"/>
       <use xlink:href="#DejaVuSans-70" x="68.408203"/>
       <use xlink:href="#DejaVuSans-72" x="131.884766"/>
      </g>
     </g>
    </g>
    <g id="xtick_17">
     <g id="line2d_19"/>
    </g>
    <g id="xtick_18">
     <g id="line2d_20"/>
    </g>
    <g id="xtick_19">
     <g id="line2d_21"/>
     <g id="text_7">
      <!-- Jul -->
      <g style="fill: #555555" transform="translate(400.911719 320.20875)scale(0.1 -0.1)">
       <use xlink:href="#DejaVuSans-4a"/>
       <use xlink:href="#DejaVuSans-75" x="29.492188"/>
       <use xlink:href="#DejaVuSans-6c" x="92.871094"/>
      </g>
     </g>
    </g>
    <g id="xtick_20">
     <g id="line2d_22"/>
    </g>
    <g id="xtick_21">
     <g id="line2d_23"/>
    </g>
    <g id="text_8">
     <!-- Date -->
     <g style="fill: #555555" transform="translate(225.162969 346.704375)scale(0.12 -0.12)">
      <defs>
       <path id="DejaVuSans-44" d="M 1259 4147 
L 1259 519 
L 2022 519 
Q 2988 519 3436 956 
Q 3884 1394 3884 2338 
Q 3884 3275 3436 3711 
Q 2988 4147 2022 4147 
L 1259 4147 
z
M 628 4666 
L 1925 4666 
Q 3281 4666 3915 4102 
Q 4550 3538 4550 2338 
Q 4550 1131 3912 565 
Q 3275 0 1925 0 
L 628 0 
L 628 4666 
z
" transform="scale(0.015625)"/>
       <path id="DejaVuSans-65" d="M 3597 1894 
L 3597 1613 
L 953 1613 
Q 991 1019 1311 708 
Q 1631 397 2203 397 
Q 2534 397 2845 478 
Q 3156 559 3463 722 
L 3463 178 
Q 3153 47 2828 -22 
Q 2503 -91 2169 -91 
Q 1331 -91 842 396 
Q 353 884 353 1716 
Q 353 2575 817 3079 
Q 1281 3584 2069 3584 
Q 2775 3584 3186 3129 
Q 3597 2675 3597 1894 
z
M 3022 2063 
Q 3016 2534 2758 2815 
Q 2500 3097 2075 3097 
Q 1594 3097 1305 2825 
Q 1016 2553 972 2059 
L 3022 2063 
z
" transform="scale(0.015625)"/>
      </defs>
      <use xlink:href="#DejaVuSans-44"/>
      <use xlink:href="#DejaVuSans-61" x="77.001953"/>
      <use xlink:href="#DejaVuSans-74" x="138.28125"/>
      <use xlink:href="#DejaVuSans-65" x="177.490234"/>
     </g>
    </g>
   </g>
   <g id="matplotlib.axis_2">
    <g id="ytick_1">
     <g id="line2d_24">
      <path d="M 30.203125 309.210312 
L 448.804687 309.210312 
" clip-path="url(#p4ce6b635e9)" style="fill: none; stroke: #ffffff"/>
     </g>
     <g id="line2d_25"/>
     <g id="text_9">
      <!-- 0.0 -->
      <g style="fill: #555555" transform="translate(10.8 313.009531)scale(0.1 -0.1)">
       <defs>
        <path id="DejaVuSans-2e" d="M 684 794 
L 1344 794 
L 1344 0 
L 684 0 
L 684 794 
z
" transform="scale(0.015625)"/>
       </defs>
       <use xlink:href="#DejaVuSans-30"/>
       <use xlink:href="#DejaVuSans-2e" x="63.623047"/>
       <use xlink:href="#DejaVuSans-30" x="95.410156"/>
      </g>
     </g>
    </g>
    <g id="ytick_2">
     <g id="line2d_26">
      <path d="M 30.203125 255.650812 
L 448.804687 255.650812 
" clip-path="url(#p4ce6b635e9)" style="fill: none; stroke: #ffffff"/>
     </g>
     <g id="line2d_27"/>
     <g id="text_10">
      <!-- 0.2 -->
      <g style="fill: #555555" transform="translate(10.8 259.450031)scale(0.1 -0.1)">
       <use xlink:href="#DejaVuSans-30"/>
       <use xlink:href="#DejaVuSans-2e" x="63.623047"/>
       <use xlink:href="#DejaVuSans-32" x="95.410156"/>
      </g>
     </g>
    </g>
    <g id="ytick_3">
     <g id="line2d_28">
      <path d="M 30.203125 202.091312 
L 448.804687 202.091312 
" clip-path="url(#p4ce6b635e9)" style="fill: none; stroke: #ffffff"/>
     </g>
     <g id="line2d_29"/>
     <g id="text_11">
      <!-- 0.4 -->
      <g style="fill: #555555" transform="translate(10.8 205.890531)scale(0.1 -0.1)">
       <defs>
        <path id="DejaVuSans-34" d="M 2419 4116 
L 825 1625 
L 2419 1625 
L 2419 4116 
z
M 2253 4666 
L 3047 4666 
L 3047 1625 
L 3713 1625 
L 3713 1100 
L 3047 1100 
L 3047 0 
L 2419 0 
L 2419 1100 
L 313 1100 
L 313 1709 
L 2253 4666 
z
" transform="scale(0.015625)"/>
       </defs>
       <use xlink:href="#DejaVuSans-30"/>
       <use xlink:href="#DejaVuSans-2e" x="63.623047"/>
       <use xlink:href="#DejaVuSans-34" x="95.410156"/>
      </g>
     </g>
    </g>
    <g id="ytick_4">
     <g id="line2d_30">
      <path d="M 30.203125 148.531812 
L 448.804687 148.531812 
" clip-path="url(#p4ce6b635e9)" style="fill: none; stroke: #ffffff"/>
     </g>
     <g id="line2d_31"/>
     <g id="text_12">
      <!-- 0.6 -->
      <g style="fill: #555555" transform="translate(10.8 152.331031)scale(0.1 -0.1)">
       <defs>
        <path id="DejaVuSans-36" d="M 2113 2584 
Q 1688 2584 1439 2293 
Q 1191 2003 1191 1497 
Q 1191 994 1439 701 
Q 1688 409 2113 409 
Q 2538 409 2786 701 
Q 3034 994 3034 1497 
Q 3034 2003 2786 2293 
Q 2538 2584 2113 2584 
z
M 3366 4563 
L 3366 3988 
Q 3128 4100 2886 4159 
Q 2644 4219 2406 4219 
Q 1781 4219 1451 3797 
Q 1122 3375 1075 2522 
Q 1259 2794 1537 2939 
Q 1816 3084 2150 3084 
Q 2853 3084 3261 2657 
Q 3669 2231 3669 1497 
Q 3669 778 3244 343 
Q 2819 -91 2113 -91 
Q 1303 -91 875 529 
Q 447 1150 447 2328 
Q 447 3434 972 4092 
Q 1497 4750 2381 4750 
Q 2619 4750 2861 4703 
Q 3103 4656 3366 4563 
z
" transform="scale(0.015625)"/>
       </defs>
       <use xlink:href="#DejaVuSans-30"/>
       <use xlink:href="#DejaVuSans-2e" x="63.623047"/>
       <use xlink:href="#DejaVuSans-36" x="95.410156"/>
      </g>
     </g>
    </g>
    <g id="ytick_5">
     <g id="line2d_32">
      <path d="M 30.203125 94.972312 
L 448.804687 94.972312 
" clip-path="url(#p4ce6b635e9)" style="fill: none; stroke: #ffffff"/>
     </g>
     <g id="line2d_33"/>
     <g id="text_13">
      <!-- 0.8 -->
      <g style="fill: #555555" transform="translate(10.8 98.771531)scale(0.1 -0.1)">
       <defs>
        <path id="DejaVuSans-38" d="M 2034 2216 
Q 1584 2216 1326 1975 
Q 1069 1734 1069 1313 
Q 1069 891 1326 650 
Q 1584 409 2034 409 
Q 2484 409 2743 651 
Q 3003 894 3003 1313 
Q 3003 1734 2745 1975 
Q 2488 2216 2034 2216 
z
M 1403 2484 
Q 997 2584 770 2862 
Q 544 3141 544 3541 
Q 544 4100 942 4425 
Q 1341 4750 2034 4750 
Q 2731 4750 3128 4425 
Q 3525 4100 3525 3541 
Q 3525 3141 3298 2862 
Q 3072 2584 2669 2484 
Q 3125 2378 3379 2068 
Q 3634 1759 3634 1313 
Q 3634 634 3220 271 
Q 2806 -91 2034 -91 
Q 1263 -91 848 271 
Q 434 634 434 1313 
Q 434 1759 690 2068 
Q 947 2378 1403 2484 
z
M 1172 3481 
Q 1172 3119 1398 2916 
Q 1625 2713 2034 2713 
Q 2441 2713 2670 2916 
Q 2900 3119 2900 3481 
Q 2900 3844 2670 4047 
Q 2441 4250 2034 4250 
Q 1625 4250 1398 4047 
Q 1172 3844 1172 3481 
z
" transform="scale(0.015625)"/>
       </defs>
       <use xlink:href="#DejaVuSans-30"/>
       <use xlink:href="#DejaVuSans-2e" x="63.623047"/>
       <use xlink:href="#DejaVuSans-38" x="95.410156"/>
      </g>
     </g>
    </g>
    <g id="ytick_6">
     <g id="line2d_34">
      <path d="M 30.203125 41.412812 
L 448.804687 41.412812 
" clip-path="url(#p4ce6b635e9)" style="fill: none; stroke: #ffffff"/>
     </g>
     <g id="line2d_35"/>
     <g id="text_14">
      <!-- 1.0 -->
      <g style="fill: #555555" transform="translate(10.8 45.212031)scale(0.1 -0.1)">
       <use xlink:href="#DejaVuSans-31"/>
       <use xlink:href="#DejaVuSans-2e" x="63.623047"/>
       <use xlink:href="#DejaVuSans-30" x="95.410156"/>
      </g>
     </g>
    </g>
   </g>
   <g id="PolyCollection_1">
    <defs>
     <path id="m3c6f310e01" d="M 30.203125 -59.627005 
L 30.203125 -50.789688 
L 51.133203 -50.789688 
L 72.063281 -50.789688 
L 92.993359 -50.789688 
L 113.923438 -50.789688 
L 134.853516 -50.789688 
L 155.783594 -50.789688 
L 176.713672 -50.789688 
L 197.64375 -50.789688 
L 218.573828 -50.789688 
L 239.503906 -50.789688 
L 260.433984 -50.789688 
L 281.364063 -50.789688 
L 302.294141 -50.789688 
L 323.224219 -50.789688 
L 344.154297 -50.789688 
L 365.084375 -50.789688 
L 386.014453 -50.789688 
L 406.944531 -50.789688 
L 427.874609 -50.789688 
L 448.804688 -50.789688 
L 448.804688 -50.789688 
L 448.804688 -50.789688 
L 427.874609 -64.982955 
L 406.944531 -50.789688 
L 386.014453 -67.66093 
L 365.084375 -60.1626 
L 344.154297 -54.003258 
L 323.224219 -80.51521 
L 302.294141 -84.532173 
L 281.364063 -64.982955 
L 260.433984 -84.532173 
L 239.503906 -64.44736 
L 218.573828 -52.128675 
L 197.64375 -62.572778 
L 176.713672 -62.037183 
L 155.783594 -63.643968 
L 134.853516 -71.677893 
L 113.923438 -56.94903 
L 92.993359 -53.199865 
L 72.063281 -69.267715 
L 51.133203 -61.501588 
L 30.203125 -59.627005 
z
"/>
    </defs>
    <g clip-path="url(#p4ce6b635e9)">
     <use xlink:href="#m3c6f310e01" x="0" y="360" style="fill: #e24a33"/>
    </g>
   </g>
   <g id="PolyCollection_2">
    <defs>
     <path id="mdf3ac3b247" d="M 30.203125 -74.08807 
L 30.203125 -59.627005 
L 51.133203 -61.501588 
L 72.063281 -69.267715 
L 92.993359 -53.199865 
L 113.923438 -56.94903 
L 134.853516 -71.677893 
L 155.783594 -63.643968 
L 176.713672 -62.037183 
L 197.64375 -62.572778 
L 218.573828 -52.128675 
L 239.503906 -64.44736 
L 260.433984 -84.532173 
L 281.364063 -64.982955 
L 302.294141 -84.532173 
L 323.224219 -80.51521 
L 344.154297 -54.003258 
L 365.084375 -60.1626 
L 386.014453 -67.66093 
L 406.944531 -50.789688 
L 427.874609 -64.982955 
L 448.804688 -50.789688 
L 448.804688 -50.789688 
L 448.804688 -50.789688 
L 427.874609 -108.901745 
L 406.944531 -52.396473 
L 386.014453 -81.318603 
L 365.084375 -74.08807 
L 344.154297 -57.216828 
L 323.224219 -112.115315 
L 302.294141 -112.383113 
L 281.364063 -71.94569 
L 260.433984 -132.200128 
L 239.503906 -70.071108 
L 218.573828 -62.30498 
L 197.64375 -71.410095 
L 176.713672 -78.640628 
L 155.783594 -70.071108 
L 134.853516 -96.315263 
L 113.923438 -78.105033 
L 92.993359 -56.681233 
L 72.063281 -88.816933 
L 51.133203 -69.535513 
L 30.203125 -74.08807 
z
"/>
    </defs>
    <g clip-path="url(#p4ce6b635e9)">
     <use xlink:href="#mdf3ac3b247" x="0" y="360" style="fill: #348abd"/>
    </g>
   </g>
   <g id="PolyCollection_3">
    <defs>
     <path id="mc634bd72b2" d="M 30.203125 -92.030503 
L 30.203125 -74.08807 
L 51.133203 -69.535513 
L 72.063281 -88.816933 
L 92.993359 -56.681233 
L 113.923438 -78.105033 
L 134.853516 -96.315263 
L 155.783594 -70.071108 
L 176.713672 -78.640628 
L 197.64375 -71.410095 
L 218.573828 -62.30498 
L 239.503906 -70.071108 
L 260.433984 -132.200128 
L 281.364063 -71.94569 
L 302.294141 -112.383113 
L 323.224219 -112.115315 
L 344.154297 -57.216828 
L 365.084375 -74.08807 
L 386.014453 -81.318603 
L 406.944531 -52.396473 
L 427.874609 -108.901745 
L 448.804688 -50.789688 
L 448.804688 -50.789688 
L 448.804688 -50.789688 
L 427.874609 -159.78327 
L 406.944531 -107.29496 
L 386.014453 -109.705138 
L 365.084375 -114.525493 
L 344.154297 -83.72878 
L 323.224219 -129.254355 
L 302.294141 -142.64423 
L 281.364063 -90.691515 
L 260.433984 -147.732383 
L 239.503906 -109.705138 
L 218.573828 -101.93901 
L 197.64375 -138.091673 
L 176.713672 -109.169543 
L 155.783594 -108.633948 
L 134.853516 -106.22377 
L 113.923438 -125.50519 
L 92.993359 -133.539115 
L 72.063281 -114.257695 
L 51.133203 -89.888123 
L 30.203125 -92.030503 
z
"/>
    </defs>
    <g clip-path="url(#p4ce6b635e9)">
     <use xlink:href="#mc634bd72b2" x="0" y="360" style="fill: #988ed5"/>
    </g>
   </g>
   <g id="PolyCollection_4">
    <defs>
     <path id="m5a69f3ea51" d="M 30.203125 -138.895065 
L 30.203125 -92.030503 
L 51.133203 -89.888123 
L 72.063281 -114.257695 
L 92.993359 -133.539115 
L 113.923438 -125.50519 
L 134.853516 -106.22377 
L 155.783594 -108.633948 
L 176.713672 -109.169543 
L 197.64375 -138.091673 
L 218.573828 -101.93901 
L 239.503906 -109.705138 
L 260.433984 -147.732383 
L 281.364063 -90.691515 
L 302.294141 -142.64423 
L 323.224219 -129.254355 
L 344.154297 -83.72878 
L 365.084375 -114.525493 
L 386.014453 -109.705138 
L 406.944531 -107.29496 
L 427.874609 -159.78327 
L 448.804688 -50.789688 
L 448.804688 -50.789688 
L 448.804688 -50.789688 
L 427.874609 -172.63755 
L 406.944531 -122.827215 
L 386.014453 -148.535775 
L 365.084375 -198.613908 
L 344.154297 -153.088333 
L 323.224219 -163.532435 
L 302.294141 -172.905348 
L 281.364063 -255.922573 
L 260.433984 -289.39726 
L 239.503906 -237.444545 
L 218.573828 -226.19705 
L 197.64375 -187.098615 
L 176.713672 -190.044388 
L 155.783594 -143.983218 
L 134.853516 -143.179825 
L 113.923438 -201.024085 
L 92.993359 -212.807175 
L 72.063281 -223.519075 
L 51.133203 -191.383375 
L 30.203125 -138.895065 
z
"/>
    </defs>
    <g clip-path="url(#p4ce6b635e9)">
     <use xlink:href="#m5a69f3ea51" x="0" y="360" style="fill: #777777"/>
    </g>
   </g>
   <g id="PolyCollection_5">
    <defs>
     <path id="m711b75e1b0" d="M 30.203125 -138.895065 
L 30.203125 -138.895065 
L 51.133203 -191.383375 
L 72.063281 -223.519075 
L 92.993359 -212.807175 
L 113.923438 -201.024085 
L 134.853516 -143.179825 
L 155.783594 -143.983218 
L 176.713672 -190.044388 
L 197.64375 -187.098615 
L 218.573828 -226.19705 
L 239.503906 -237.444545 
L 260.433984 -289.39726 
L 281.364063 -255.922573 
L 302.294141 -172.905348 
L 323.224219 -163.532435 
L 344.154297 -153.088333 
L 365.084375 -198.613908 
L 386.014453 -148.535775 
L 406.944531 -122.827215 
L 427.874609 -172.63755 
L 448.804688 -50.789688 
L 448.804688 -50.789688 
L 448.804688 -50.789688 
L 427.874609 -203.70206 
L 406.944531 -122.827215 
L 386.014453 -148.535775 
L 365.084375 -200.220693 
L 344.154297 -156.301903 
L 323.224219 -177.190108 
L 302.294141 -188.7054 
L 281.364063 -273.597208 
L 260.433984 -289.39726 
L 239.503906 -244.139483 
L 218.573828 -226.19705 
L 197.64375 -191.115578 
L 176.713672 -192.722363 
L 155.783594 -162.193448 
L 134.853516 -177.190108 
L 113.923438 -216.020745 
L 92.993359 -223.251278 
L 72.063281 -237.712343 
L 51.133203 -191.383375 
L 30.203125 -138.895065 
z
"/>
    </defs>
    <g clip-path="url(#p4ce6b635e9)">
     <use xlink:href="#m711b75e1b0" x="0" y="360" style="fill: #fbc15e"/>
    </g>
   </g>
   <g id="PolyCollection_6">
    <defs>
     <path id="m87e8d179d6" d="M 30.203125 -269.312448 
L 30.203125 -138.895065 
L 51.133203 -191.383375 
L 72.063281 -237.712343 
L 92.993359 -223.251278 
L 113.923438 -216.020745 
L 134.853516 -177.190108 
L 155.783594 -162.193448 
L 176.713672 -192.722363 
L 197.64375 -191.115578 
L 218.573828 -226.19705 
L 239.503906 -244.139483 
L 260.433984 -289.39726 
L 281.364063 -273.597208 
L 302.294141 -188.7054 
L 323.224219 -177.190108 
L 344.154297 -156.301903 
L 365.084375 -200.220693 
L 386.014453 -148.535775 
L 406.944531 -122.827215 
L 427.874609 -203.70206 
L 448.804688 -50.789688 
L 448.804688 -318.587188 
L 448.804688 -318.587188 
L 427.874609 -312.695643 
L 406.944531 -315.10582 
L 386.014453 -293.949818 
L 365.084375 -306.000705 
L 344.154297 -310.017668 
L 323.224219 -261.278523 
L 302.294141 -263.420903 
L 281.364063 -311.356655 
L 260.433984 -307.60749 
L 239.503906 -301.715945 
L 218.573828 -287.790475 
L 197.64375 -266.90227 
L 176.713672 -294.485413 
L 155.783594 -231.820798 
L 134.853516 -209.593605 
L 113.923438 -255.386978 
L 92.993359 -263.956498 
L 72.063281 -263.153105 
L 51.133203 -242.800495 
L 30.203125 -269.312448 
z
"/>
    </defs>
    <g clip-path="url(#p4ce6b635e9)">
     <use xlink:href="#m87e8d179d6" x="0" y="360" style="fill: #8eba42"/>
    </g>
   </g>
   <g id="PolyCollection_7">
    <defs>
     <path id="md08655a16a" d="M 30.203125 -318.31939 
L 30.203125 -269.312448 
L 51.133203 -242.800495 
L 72.063281 -263.153105 
L 92.993359 -263.956498 
L 113.923438 -255.386978 
L 134.853516 -209.593605 
L 155.783594 -231.820798 
L 176.713672 -294.485413 
L 197.64375 -266.90227 
L 218.573828 -287.790475 
L 239.503906 -301.715945 
L 260.433984 -307.60749 
L 281.364063 -311.356655 
L 302.294141 -263.420903 
L 323.224219 -261.278523 
L 344.154297 -310.017668 
L 365.084375 -306.000705 
L 386.014453 -293.949818 
L 406.944531 -315.10582 
L 427.874609 -312.695643 
L 448.804688 -318.587188 
L 448.804688 -318.587188 
L 448.804688 -318.587188 
L 427.874609 -318.31939 
L 406.944531 -318.587188 
L 386.014453 -318.587188 
L 365.084375 -318.587188 
L 344.154297 -318.31939 
L 323.224219 -318.31939 
L 302.294141 -318.854985 
L 281.364063 -318.31939 
L 260.433984 -318.854985 
L 239.503906 -318.587188 
L 218.573828 -318.587188 
L 197.64375 -318.854985 
L 176.713672 -318.854985 
L 155.783594 -318.587188 
L 134.853516 -318.31939 
L 113.923438 -318.854985 
L 92.993359 -318.587188 
L 72.063281 -318.31939 
L 51.133203 -318.587188 
L 30.203125 -318.31939 
z
"/>
    </defs>
    <g clip-path="url(#p4ce6b635e9)">
     <use xlink:href="#md08655a16a" x="0" y="360" style="fill: #ffb5b8"/>
    </g>
   </g>
   <g id="line2d_36">
    <path d="M 30.203125 300.372995 
L 51.133203 298.498412 
L 72.063281 290.732285 
L 92.993359 306.800135 
L 113.923438 303.05097 
L 134.853516 288.322107 
L 155.783594 296.356032 
L 176.713672 297.962817 
L 197.64375 297.427222 
L 218.573828 307.871325 
L 239.503906 295.55264 
L 260.433984 275.467827 
L 281.364063 295.017045 
L 302.294141 275.467827 
L 323.224219 279.48479 
L 344.154297 305.996742 
L 365.084375 299.8374 
L 386.014453 292.33907 
L 406.944531 309.210312 
L 427.874609 295.017045 
L 448.804688 309.210312 
" clip-path="url(#p4ce6b635e9)" style="fill: none"/>
   </g>
   <g id="line2d_37">
    <path d="M 30.203125 285.91193 
L 51.133203 290.464487 
L 72.063281 271.183067 
L 92.993359 303.318767 
L 113.923438 281.894967 
L 134.853516 263.684737 
L 155.783594 289.928892 
L 176.713672 281.359372 
L 197.64375 288.589905 
L 218.573828 297.69502 
L 239.503906 289.928892 
L 260.433984 227.799872 
L 281.364063 288.05431 
L 302.294141 247.616887 
L 323.224219 247.884685 
L 344.154297 302.783172 
L 365.084375 285.91193 
L 386.014453 278.681397 
L 406.944531 307.603527 
L 427.874609 251.098255 
L 448.804688 309.210312 
" clip-path="url(#p4ce6b635e9)" style="fill: none"/>
   </g>
   <g id="line2d_38">
    <path d="M 30.203125 267.969497 
L 51.133203 270.111877 
L 72.063281 245.742305 
L 92.993359 226.460885 
L 113.923438 234.49481 
L 134.853516 253.77623 
L 155.783594 251.366052 
L 176.713672 250.830457 
L 197.64375 221.908327 
L 218.573828 258.06099 
L 239.503906 250.294862 
L 260.433984 212.267617 
L 281.364063 269.308485 
L 302.294141 217.35577 
L 323.224219 230.745645 
L 344.154297 276.27122 
L 365.084375 245.474507 
L 386.014453 250.294862 
L 406.944531 252.70504 
L 427.874609 200.21673 
L 448.804688 309.210312 
" clip-path="url(#p4ce6b635e9)" style="fill: none"/>
   </g>
   <g id="line2d_39">
    <path d="M 30.203125 221.104935 
L 51.133203 168.616625 
L 72.063281 136.480925 
L 92.993359 147.192825 
L 113.923438 158.975915 
L 134.853516 216.820175 
L 155.783594 216.016782 
L 176.713672 169.955612 
L 197.64375 172.901385 
L 218.573828 133.80295 
L 239.503906 122.555455 
L 260.433984 70.60274 
L 281.364063 104.077427 
L 302.294141 187.094652 
L 323.224219 196.467565 
L 344.154297 206.911667 
L 365.084375 161.386092 
L 386.014453 211.464225 
L 406.944531 237.172785 
L 427.874609 187.36245 
L 448.804688 309.210312 
" clip-path="url(#p4ce6b635e9)" style="fill: none"/>
   </g>
   <g id="line2d_40">
    <path d="M 30.203125 221.104935 
L 51.133203 168.616625 
L 72.063281 122.287657 
L 92.993359 136.748722 
L 113.923438 143.979255 
L 134.853516 182.809892 
L 155.783594 197.806552 
L 176.713672 167.277637 
L 197.64375 168.884422 
L 218.573828 133.80295 
L 239.503906 115.860517 
L 260.433984 70.60274 
L 281.364063 86.402792 
L 302.294141 171.2946 
L 323.224219 182.809892 
L 344.154297 203.698097 
L 365.084375 159.779307 
L 386.014453 211.464225 
L 406.944531 237.172785 
L 427.874609 156.29794 
L 448.804688 309.210312 
" clip-path="url(#p4ce6b635e9)" style="fill: none"/>
   </g>
   <g id="line2d_41">
    <path d="M 30.203125 90.687552 
L 51.133203 117.199505 
L 72.063281 96.846895 
L 92.993359 96.043502 
L 113.923438 104.613022 
L 134.853516 150.406395 
L 155.783594 128.179202 
L 176.713672 65.514587 
L 197.64375 93.09773 
L 218.573828 72.209525 
L 239.503906 58.284055 
L 260.433984 52.39251 
L 281.364063 48.643345 
L 302.294141 96.579097 
L 323.224219 98.721477 
L 344.154297 49.982332 
L 365.084375 53.999295 
L 386.014453 66.050182 
L 406.944531 44.89418 
L 427.874609 47.304357 
L 448.804688 41.412812 
" clip-path="url(#p4ce6b635e9)" style="fill: none"/>
   </g>
   <g id="line2d_42">
    <path d="M 30.203125 41.68061 
L 51.133203 41.412812 
L 72.063281 41.68061 
L 92.993359 41.412812 
L 113.923438 41.145015 
L 134.853516 41.68061 
L 155.783594 41.412812 
L 176.713672 41.145015 
L 197.64375 41.145015 
L 218.573828 41.412812 
L 239.503906 41.412812 
L 260.433984 41.145015 
L 281.364063 41.68061 
L 302.294141 41.145015 
L 323.224219 41.68061 
L 344.154297 41.68061 
L 365.084375 41.412812 
L 386.014453 41.412812 
L 406.944531 41.412812 
L 427.874609 41.68061 
L 448.804688 41.412812 
" clip-path="url(#p4ce6b635e9)" style="fill: none"/>
   </g>
   <g id="patch_3">
    <path d="M 30.203125 309.210312 
L 30.203125 27.74175 
" style="fill: none; stroke: #ffffff; stroke-linejoin: miter; stroke-linecap: square"/>
   </g>
   <g id="patch_4">
    <path d="M 448.804687 309.210312 
L 448.804687 27.74175 
" style="fill: none; stroke: #ffffff; stroke-linejoin: miter; stroke-linecap: square"/>
   </g>
   <g id="patch_5">
    <path d="M 30.203125 309.210312 
L 448.804688 309.210312 
" style="fill: none; stroke: #ffffff; stroke-linejoin: miter; stroke-linecap: square"/>
   </g>
   <g id="patch_6">
    <path d="M 30.203125 27.74175 
L 448.804688 27.74175 
" style="fill: none; stroke: #ffffff; stroke-linejoin: miter; stroke-linecap: square"/>
   </g>
   <g id="text_15">
    <!-- EDF Work -->
    <g transform="translate(204.750406 21.74175)scale(0.144 -0.144)">
     <defs>
      <path id="DejaVuSans-45" d="M 628 4666 
L 3578 4666 
L 3578 4134 
L 1259 4134 
L 1259 2753 
L 3481 2753 
L 3481 2222 
L 1259 2222 
L 1259 531 
L 3634 531 
L 3634 0 
L 628 0 
L 628 4666 
z
" transform="scale(0.015625)"/>
      <path id="DejaVuSans-46" d="M 628 4666 
L 3309 4666 
L 3309 4134 
L 1259 4134 
L 1259 2759 
L 3109 2759 
L 3109 2228 
L 1259 2228 
L 1259 0 
L 628 0 
L 628 4666 
z
" transform="scale(0.015625)"/>
      <path id="DejaVuSans-20" transform="scale(0.015625)"/>
      <path id="DejaVuSans-57" d="M 213 4666 
L 850 4666 
L 1831 722 
L 2809 4666 
L 3519 4666 
L 4500 722 
L 5478 4666 
L 6119 4666 
L 4947 0 
L 4153 0 
L 3169 4050 
L 2175 0 
L 1381 0 
L 213 4666 
z
" transform="scale(0.015625)"/>
      <path id="DejaVuSans-6f" d="M 1959 3097 
Q 1497 3097 1228 2736 
Q 959 2375 959 1747 
Q 959 1119 1226 758 
Q 1494 397 1959 397 
Q 2419 397 2687 759 
Q 2956 1122 2956 1747 
Q 2956 2369 2687 2733 
Q 2419 3097 1959 3097 
z
M 1959 3584 
Q 2709 3584 3137 3096 
Q 3566 2609 3566 1747 
Q 3566 888 3137 398 
Q 2709 -91 1959 -91 
Q 1206 -91 779 398 
Q 353 888 353 1747 
Q 353 2609 779 3096 
Q 1206 3584 1959 3584 
z
" transform="scale(0.015625)"/>
      <path id="DejaVuSans-6b" d="M 581 4863 
L 1159 4863 
L 1159 1991 
L 2875 3500 
L 3609 3500 
L 1753 1863 
L 3688 0 
L 2938 0 
L 1159 1709 
L 1159 0 
L 581 0 
L 581 4863 
z
" transform="scale(0.015625)"/>
     </defs>
     <use xlink:href="#DejaVuSans-45"/>
     <use xlink:href="#DejaVuSans-44" x="63.183594"/>
     <use xlink:href="#DejaVuSans-46" x="140.185547"/>
     <use xlink:href="#DejaVuSans-20" x="197.705078"/>
     <use xlink:href="#DejaVuSans-57" x="229.492188"/>
     <use xlink:href="#DejaVuSans-6f" x="322.494141"/>
     <use xlink:href="#DejaVuSans-72" x="383.675781"/>
     <use xlink:href="#DejaVuSans-6b" x="424.789062"/>
    </g>
   </g>
   <g id="legend_1">
    <g id="patch_7">
     <path d="M 455.804687 138.488625 
L 527.2 138.488625 
Q 529.2 138.488625 529.2 136.488625 
L 529.2 34.74175 
Q 529.2 32.74175 527.2 32.74175 
L 455.804687 32.74175 
Q 453.804687 32.74175 453.804687 34.74175 
L 453.804687 136.488625 
Q 453.804687 138.488625 455.804687 138.488625 
z
" style="fill: #e5e5e5; opacity: 0.8; stroke: #cccccc; stroke-width: 0.5; stroke-linejoin: miter"/>
    </g>
    <g id="patch_8">
     <path d="M 457.804687 44.340188 
L 477.804687 44.340188 
L 477.804687 37.340188 
L 457.804687 37.340188 
z
" style="fill: #e24a33"/>
    </g>
    <g id="text_16">
     <!-- GE11 -->
     <g transform="translate(485.804687 44.340188)scale(0.1 -0.1)">
      <defs>
       <path id="DejaVuSans-47" d="M 3809 666 
L 3809 1919 
L 2778 1919 
L 2778 2438 
L 4434 2438 
L 4434 434 
Q 4069 175 3628 42 
Q 3188 -91 2688 -91 
Q 1594 -91 976 548 
Q 359 1188 359 2328 
Q 359 3472 976 4111 
Q 1594 4750 2688 4750 
Q 3144 4750 3555 4637 
Q 3966 4525 4313 4306 
L 4313 3634 
Q 3963 3931 3569 4081 
Q 3175 4231 2741 4231 
Q 1884 4231 1454 3753 
Q 1025 3275 1025 2328 
Q 1025 1384 1454 906 
Q 1884 428 2741 428 
Q 3075 428 3337 486 
Q 3600 544 3809 666 
z
" transform="scale(0.015625)"/>
      </defs>
      <use xlink:href="#DejaVuSans-47"/>
      <use xlink:href="#DejaVuSans-45" x="77.490234"/>
      <use xlink:href="#DejaVuSans-31" x="140.673828"/>
      <use xlink:href="#DejaVuSans-31" x="204.296875"/>
     </g>
    </g>
    <g id="patch_9">
     <path d="M 457.804687 59.018313 
L 477.804687 59.018313 
L 477.804687 52.018313 
L 457.804687 52.018313 
z
" style="fill: #348abd"/>
    </g>
    <g id="text_17">
     <!-- GE21 -->
     <g transform="translate(485.804687 59.018313)scale(0.1 -0.1)">
      <use xlink:href="#DejaVuSans-47"/>
      <use xlink:href="#DejaVuSans-45" x="77.490234"/>
      <use xlink:href="#DejaVuSans-32" x="140.673828"/>
      <use xlink:href="#DejaVuSans-31" x="204.296875"/>
     </g>
    </g>
    <g id="patch_10">
     <path d="M 457.804687 73.696438 
L 477.804687 73.696438 
L 477.804687 66.696438 
L 457.804687 66.696438 
z
" style="fill: #988ed5"/>
    </g>
    <g id="text_18">
     <!-- ME0 -->
     <g transform="translate(485.804687 73.696438)scale(0.1 -0.1)">
      <defs>
       <path id="DejaVuSans-4d" d="M 628 4666 
L 1569 4666 
L 2759 1491 
L 3956 4666 
L 4897 4666 
L 4897 0 
L 4281 0 
L 4281 4097 
L 3078 897 
L 2444 897 
L 1241 4097 
L 1241 0 
L 628 0 
L 628 4666 
z
" transform="scale(0.015625)"/>
      </defs>
      <use xlink:href="#DejaVuSans-4d"/>
      <use xlink:href="#DejaVuSans-45" x="86.279297"/>
      <use xlink:href="#DejaVuSans-30" x="149.462891"/>
     </g>
    </g>
    <g id="patch_11">
     <path d="M 457.804687 88.374563 
L 477.804687 88.374563 
L 477.804687 81.374563 
L 457.804687 81.374563 
z
" style="fill: #777777"/>
    </g>
    <g id="text_19">
     <!-- L0MDT -->
     <g transform="translate(485.804687 88.374563)scale(0.1 -0.1)">
      <defs>
       <path id="DejaVuSans-4c" d="M 628 4666 
L 1259 4666 
L 1259 531 
L 3531 531 
L 3531 0 
L 628 0 
L 628 4666 
z
" transform="scale(0.015625)"/>
       <path id="DejaVuSans-54" d="M -19 4666 
L 3928 4666 
L 3928 4134 
L 2272 4134 
L 2272 0 
L 1638 0 
L 1638 4134 
L -19 4134 
L -19 4666 
z
" transform="scale(0.015625)"/>
      </defs>
      <use xlink:href="#DejaVuSans-4c"/>
      <use xlink:href="#DejaVuSans-30" x="55.712891"/>
      <use xlink:href="#DejaVuSans-4d" x="119.335938"/>
      <use xlink:href="#DejaVuSans-44" x="205.615234"/>
      <use xlink:href="#DejaVuSans-54" x="282.617188"/>
     </g>
    </g>
    <g id="patch_12">
     <path d="M 457.804687 103.052688 
L 477.804687 103.052688 
L 477.804687 96.052688 
L 457.804687 96.052688 
z
" style="fill: #fbc15e"/>
    </g>
    <g id="text_20">
     <!-- OTHER -->
     <g transform="translate(485.804687 103.052688)scale(0.1 -0.1)">
      <defs>
       <path id="DejaVuSans-48" d="M 628 4666 
L 1259 4666 
L 1259 2753 
L 3553 2753 
L 3553 4666 
L 4184 4666 
L 4184 0 
L 3553 0 
L 3553 2222 
L 1259 2222 
L 1259 0 
L 628 0 
L 628 4666 
z
" transform="scale(0.015625)"/>
       <path id="DejaVuSans-52" d="M 2841 2188 
Q 3044 2119 3236 1894 
Q 3428 1669 3622 1275 
L 4263 0 
L 3584 0 
L 2988 1197 
Q 2756 1666 2539 1819 
Q 2322 1972 1947 1972 
L 1259 1972 
L 1259 0 
L 628 0 
L 628 4666 
L 2053 4666 
Q 2853 4666 3247 4331 
Q 3641 3997 3641 3322 
Q 3641 2881 3436 2590 
Q 3231 2300 2841 2188 
z
M 1259 4147 
L 1259 2491 
L 2053 2491 
Q 2509 2491 2742 2702 
Q 2975 2913 2975 3322 
Q 2975 3731 2742 3939 
Q 2509 4147 2053 4147 
L 1259 4147 
z
" transform="scale(0.015625)"/>
      </defs>
      <use xlink:href="#DejaVuSans-4f"/>
      <use xlink:href="#DejaVuSans-54" x="78.710938"/>
      <use xlink:href="#DejaVuSans-48" x="139.794922"/>
      <use xlink:href="#DejaVuSans-45" x="214.990234"/>
      <use xlink:href="#DejaVuSans-52" x="278.173828"/>
     </g>
    </g>
    <g id="patch_13">
     <path d="M 457.804687 117.730813 
L 477.804687 117.730813 
L 477.804687 110.730813 
L 457.804687 110.730813 
z
" style="fill: #8eba42"/>
    </g>
    <g id="text_21">
     <!-- ETL -->
     <g transform="translate(485.804687 117.730813)scale(0.1 -0.1)">
      <use xlink:href="#DejaVuSans-45"/>
      <use xlink:href="#DejaVuSans-54" x="63.183594"/>
      <use xlink:href="#DejaVuSans-4c" x="124.267578"/>
     </g>
    </g>
    <g id="patch_14">
     <path d="M 457.804687 132.408938 
L 477.804687 132.408938 
L 477.804687 125.408938 
L 457.804687 125.408938 
z
" style="fill: #ffb5b8"/>
    </g>
    <g id="text_22">
     <!-- APOLLO -->
     <g transform="translate(485.804687 132.408938)scale(0.1 -0.1)">
      <defs>
       <path id="DejaVuSans-50" d="M 1259 4147 
L 1259 2394 
L 2053 2394 
Q 2494 2394 2734 2622 
Q 2975 2850 2975 3272 
Q 2975 3691 2734 3919 
Q 2494 4147 2053 4147 
L 1259 4147 
z
M 628 4666 
L 2053 4666 
Q 2838 4666 3239 4311 
Q 3641 3956 3641 3272 
Q 3641 2581 3239 2228 
Q 2838 1875 2053 1875 
L 1259 1875 
L 1259 0 
L 628 0 
L 628 4666 
z
" transform="scale(0.015625)"/>
      </defs>
      <use xlink:href="#DejaVuSans-41"/>
      <use xlink:href="#DejaVuSans-50" x="68.408203"/>
      <use xlink:href="#DejaVuSans-4f" x="128.710938"/>
      <use xlink:href="#DejaVuSans-4c" x="207.421875"/>
      <use xlink:href="#DejaVuSans-4c" x="263.134766"/>
      <use xlink:href="#DejaVuSans-4f" x="315.222656"/>
     </g>
    </g>
   </g>
  </g>
 </g>
 <defs>
  <clipPath id="p4ce6b635e9">
   <rect x="30.203125" y="27.74175" width="418.601562" height="281.468562"/>
  </clipPath>
 </defs>
</svg>
