<svg class="marks" width="810" height="627" viewBox="0 0 810 627" version="1.1" xmlns="http://www.w3.org/2000/svg" xmlns:xlink="http://www.w3.org/1999/xlink"><rect width="810" height="627" style="fill: white;"></rect><g transform="translate(5,22)"><g class="mark-group role-frame root"><g transform="translate(0,0)"><path class="background" d="M0.5,0.5h800v600h-800Z" style="fill: none; stroke: none;"></path><g><g class="mark-arc role-mark layer_0_marks"><path transform="translate(400,300)" d="M144.69489987473503,-174.47396289423304A226.6666666666667,226.6666666666667,0,0,0,1.3879330390336672e-14,-226.6666666666667L0,0Z" style="fill: #4c78a8;"></path><path transform="translate(400,300)" d="M166.75010893772816,153.53233844058258A226.6666666666667,226.6666666666667,0,0,0,144.69489987473503,-174.47396289423304L0,0Z" style="fill: #f58518;"></path><path transform="translate(400,300)" d="M-142.38107283509035,176.36725284504064A226.6666666666667,226.6666666666667,0,0,0,166.75010893772816,153.53233844058258L0,0Z" style="fill: #e45756;"></path><path transform="translate(400,300)" d="M-182.75002480118528,134.09029127026295A226.6666666666667,226.6666666666667,0,0,0,-142.38107283509035,176.36725284504064L0,0Z" style="fill: #72b7b2;"></path><path transform="translate(400,300)" d="M-215.10464202730782,71.468669751728A226.6666666666667,226.6666666666667,0,0,0,-182.75002480118528,134.09029127026295L0,0Z" style="fill: #54a24b;"></path><path transform="translate(400,300)" d="M-158.1759306189928,-162.35194101270665A226.6666666666667,226.6666666666667,0,0,0,-215.10464202730782,71.468669751728L0,0Z" style="fill: #eeca3b;"></path><path transform="translate(400,300)" d="M-36.888216718468755,-223.6448909434532A226.6666666666667,226.6666666666667,0,0,0,-158.1759306189928,-162.35194101270665L0,0Z" style="fill: #b279a2;"></path><path transform="translate(400,300)" d="M-4.1637991171010013e-14,-226.6666666666667A226.6666666666667,226.6666666666667,0,0,0,-36.888216718468755,-223.6448909434532L0,0Z" style="fill: #ff9da6;"></path></g><g class="mark-text role-mark layer_1_marks"><text text-anchor="middle" transform="translate(490.48254410566017,55.153392840807214)" style="font-family: sans-serif; font-size: 20px; fill: #4c78a8;">APOLLO</text><text text-anchor="middle" transform="translate(666.0658705739431,288.1096778441289)" style="font-family: sans-serif; font-size: 20px; fill: #f58518;">ETC</text><text text-anchor="middle" transform="translate(419.64462151516926,571.9420988798819)" style="font-family: sans-serif; font-size: 20px; fill: #e45756;">ETL</text><text text-anchor="middle" transform="translate(207.1363389838786,490.15949438073983)" style="font-family: sans-serif; font-size: 20px; fill: #72b7b2;">GE11</text><text text-anchor="middle" transform="translate(163.08659883077203,428.40568392660356)" style="font-family: sans-serif; font-size: 20px; fill: #54a24b;">GE21</text><text text-anchor="middle" transform="translate(140.9022415769238,242.917017419526)" style="font-family: sans-serif; font-size: 20px; fill: #eeca3b;">L0MDT</text><text text-anchor="middle" transform="translate(279.7251600550931,67.99774373477436)" style="font-family: sans-serif; font-size: 20px; fill: #b279a2;">ME0</text><text text-anchor="middle" transform="translate(378.22836627595706,40.22357689949763)" style="font-family: sans-serif; font-size: 20px; fill: #ff9da6;">OTHER</text></g><g class="mark-group role-title"><g transform="translate(400,-17)"><path class="background" d="M0,0h0v0h0Z" style="pointer-events: none; fill: none;"></path><g><g class="mark-text role-title-text" style="pointer-events: none;"><text text-anchor="middle" transform="translate(0,10)" style="font-family: sans-serif; font-size: 13px; font-weight: bold; fill: #000; opacity: 1;">Cumulative EDF Work</text></g></g><path class="foreground" d="" style="pointer-events: none; display: none; fill: none;"></path></g></g></g><path class="foreground" d="" style="display: none; fill: none;"></path></g></g></g></svg>