<svg class="marks" width="810" height="627" viewBox="0 0 810 627" version="1.1" xmlns="http://www.w3.org/2000/svg" xmlns:xlink="http://www.w3.org/1999/xlink"><rect width="810" height="627" style="fill: white;"></rect><g transform="translate(5,22)"><g class="mark-group role-frame root"><g transform="translate(0,0)"><path class="background" d="M0.5,0.5h800v600h-800Z" style="fill: none; stroke: none;"></path><g><g class="mark-arc role-mark layer_0_marks"><path transform="translate(400,300)" d="M59.78877807327151,218.63915430288986A226.6666666666667,226.6666666666667,0,0,0,187.10895346924974,-127.93755238169885L0,0Z" style="fill: #54a24b;"></path><path transform="translate(400,300)" d="M-213.9102629093326,74.96784110428956A226.6666666666667,226.6666666666667,0,0,0,59.78877807327151,218.63915430288986L0,0Z" style="fill: #eeca3b;"></path><path transform="translate(400,300)" d="M-150.54214055095468,-169.45454168039996A226.6666666666667,226.6666666666667,0,0,0,-213.9102629093326,74.96784110428956L0,0Z" style="fill: #b279a2;"></path><path transform="translate(400,300)" d="M145.3268030466456,-173.94797525127817A226.6666666666667,226.6666666666667,0,0,0,1.3879330390336672e-14,-226.6666666666667L0,0Z" style="fill: #4c78a8;"></path><path transform="translate(400,300)" d="M-4.1637991171010013e-14,-226.6666666666667A226.6666666666667,226.6666666666667,0,0,0,-108.59882277038407,-198.95746648634352L0,0Z" style="fill: #9d755d;"></path><path transform="translate(400,300)" d="M187.10895346924974,-127.93755238169885A226.6666666666667,226.6666666666667,0,0,0,146.36594329646113,-173.0745169593575L0,0Z" style="fill: #72b7b2;"></path><path transform="translate(400,300)" d="M-108.59882277038407,-198.95746648634352A226.6666666666667,226.6666666666667,0,0,0,-150.54214055095468,-169.45454168039996L0,0Z" style="fill: #ff9da6;"></path><path transform="translate(400,300)" d="M146.36594329646113,-173.0745169593575A226.6666666666667,226.6666666666667,0,0,0,145.6242337683725,-173.69905099669427L0,0Z" style="fill: #e45756;"></path><path transform="translate(400,300)" d="M145.6242337683725,-173.69905099669427A226.6666666666667,226.6666666666667,0,0,0,145.3268030466456,-173.94797525127817L0,0Z" style="fill: #f58518;"></path></g><g class="mark-text role-mark layer_1_marks"><text text-anchor="middle" transform="translate(650.3104670523761,397.955321733614)" style="font-family: sans-serif; font-size: 20px; fill: #54a24b;">ETL</text><text text-anchor="middle" transform="translate(276.0582814659353,542.1134505231199)" style="font-family: sans-serif; font-size: 20px; fill: #eeca3b;">GEM</text><text text-anchor="middle" transform="translate(141.86732871616897,239.07739449943125)" style="font-family: sans-serif; font-size: 20px; fill: #b279a2;">L0MDT</text><text text-anchor="middle" transform="translate(490.93733366112224,55.317905590134245)" style="font-family: sans-serif; font-size: 20px; fill: #4c78a8;">APOLLO</text><text text-anchor="middle" transform="translate(334.0716964820376,47.61159099844559)" style="font-family: sans-serif; font-size: 20px; fill: #9d755d;">VAC/SICK/HOL</text><text text-anchor="middle" transform="translate(597.9504432270028,127.31946626074722)" style="font-family: sans-serif; font-size: 20px; fill: #72b7b2;">EDF</text><text text-anchor="middle" transform="translate(246.57941490168653,87.88710450960892)" style="font-family: sans-serif; font-size: 20px; fill: #ff9da6;">OTHER PRJ</text><text text-anchor="middle" transform="translate(571.7593205694018,102.01508166374501)" style="font-family: sans-serif; font-size: 20px; fill: #e45756;">DINESH-MIGDAL</text><text text-anchor="middle" transform="translate(571.1477313523765,101.50167442239066)" style="font-family: sans-serif; font-size: 20px; fill: #f58518;">CMS-PIXEL-DTC</text></g><g class="mark-group role-title"><g transform="translate(400,-17)"><path class="background" d="M0,0h0v0h0Z" style="pointer-events: none; fill: none;"></path><g><g class="mark-text role-title-text" style="pointer-events: none;"><text text-anchor="middle" transform="translate(0,10)" style="font-family: sans-serif; font-size: 13px; font-weight: bold; fill: #000; opacity: 1;">EDF Work</text></g></g><path class="foreground" d="" style="pointer-events: none; display: none; fill: none;"></path></g></g></g><path class="foreground" d="" style="display: none; fill: none;"></path></g></g></g></svg>