<svg class="marks" width="986" height="693" viewBox="0 0 986 693" version="1.1" xmlns="http://www.w3.org/2000/svg" xmlns:xlink="http://www.w3.org/1999/xlink"><rect width="986" height="693" style="fill: white;"></rect><g transform="translate(51,10)"><g class="mark-group role-frame root"><g transform="translate(0,0)"><path class="background" d="M0.5,0.5h800v600h-800Z" style="fill: none; stroke: #ddd;"></path><g><g class="mark-group role-axis"><g transform="translate(0.5,0.5)"><path class="background" d="M0,0h0v0h0Z" style="pointer-events: none; fill: none;"></path><g><g class="mark-rule role-axis-grid" style="pointer-events: none;"><line transform="translate(0,600)" x2="800" y2="0" style="fill: none; stroke: #ddd; stroke-width: 1; opacity: 1;"></line><line transform="translate(0,545)" x2="800" y2="0" style="fill: none; stroke: #ddd; stroke-width: 1; opacity: 1;"></line><line transform="translate(0,491)" x2="800" y2="0" style="fill: none; stroke: #ddd; stroke-width: 1; opacity: 1;"></line><line transform="translate(0,436)" x2="800" y2="0" style="fill: none; stroke: #ddd; stroke-width: 1; opacity: 1;"></line><line transform="translate(0,382)" x2="800" y2="0" style="fill: none; stroke: #ddd; stroke-width: 1; opacity: 1;"></line><line transform="translate(0,327)" x2="800" y2="0" style="fill: none; stroke: #ddd; stroke-width: 1; opacity: 1;"></line><line transform="translate(0,273)" x2="800" y2="0" style="fill: none; stroke: #ddd; stroke-width: 1; opacity: 1;"></line><line transform="translate(0,218)" x2="800" y2="0" style="fill: none; stroke: #ddd; stroke-width: 1; opacity: 1;"></line><line transform="translate(0,164)" x2="800" y2="0" style="fill: none; stroke: #ddd; stroke-width: 1; opacity: 1;"></line><line transform="translate(0,109)" x2="800" y2="0" style="fill: none; stroke: #ddd; stroke-width: 1; opacity: 1;"></line><line transform="translate(0,55)" x2="800" y2="0" style="fill: none; stroke: #ddd; stroke-width: 1; opacity: 1;"></line><line transform="translate(0,0)" x2="800" y2="0" style="fill: none; stroke: #ddd; stroke-width: 1; opacity: 1;"></line></g></g><path class="foreground" d="" style="pointer-events: none; display: none; fill: none;"></path></g></g><g class="mark-group role-axis"><g transform="translate(0.5,600.5)"><path class="background" d="M0,0h0v0h0Z" style="pointer-events: none; fill: none;"></path><g><g class="mark-rule role-axis-tick" style="pointer-events: none;"><line transform="translate(16,0)" x2="0" y2="5" style="fill: none; stroke: #888; stroke-width: 1; opacity: 1;"></line><line transform="translate(48,0)" x2="0" y2="5" style="fill: none; stroke: #888; stroke-width: 1; opacity: 1;"></line><line transform="translate(80,0)" x2="0" y2="5" style="fill: none; stroke: #888; stroke-width: 1; opacity: 1;"></line><line transform="translate(112,0)" x2="0" y2="5" style="fill: none; stroke: #888; stroke-width: 1; opacity: 1;"></line><line transform="translate(144,0)" x2="0" y2="5" style="fill: none; stroke: #888; stroke-width: 1; opacity: 1;"></line><line transform="translate(176,0)" x2="0" y2="5" style="fill: none; stroke: #888; stroke-width: 1; opacity: 1;"></line><line transform="translate(208,0)" x2="0" y2="5" style="fill: none; stroke: #888; stroke-width: 1; opacity: 1;"></line><line transform="translate(240,0)" x2="0" y2="5" style="fill: none; stroke: #888; stroke-width: 1; opacity: 1;"></line><line transform="translate(272,0)" x2="0" y2="5" style="fill: none; stroke: #888; stroke-width: 1; opacity: 1;"></line><line transform="translate(304,0)" x2="0" y2="5" style="fill: none; stroke: #888; stroke-width: 1; opacity: 1;"></line><line transform="translate(336,0)" x2="0" y2="5" style="fill: none; stroke: #888; stroke-width: 1; opacity: 1;"></line><line transform="translate(368,0)" x2="0" y2="5" style="fill: none; stroke: #888; stroke-width: 1; opacity: 1;"></line><line transform="translate(400,0)" x2="0" y2="5" style="fill: none; stroke: #888; stroke-width: 1; opacity: 1;"></line><line transform="translate(432,0)" x2="0" y2="5" style="fill: none; stroke: #888; stroke-width: 1; opacity: 1;"></line><line transform="translate(464,0)" x2="0" y2="5" style="fill: none; stroke: #888; stroke-width: 1; opacity: 1;"></line><line transform="translate(496,0)" x2="0" y2="5" style="fill: none; stroke: #888; stroke-width: 1; opacity: 1;"></line><line transform="translate(528,0)" x2="0" y2="5" style="fill: none; stroke: #888; stroke-width: 1; opacity: 1;"></line><line transform="translate(560,0)" x2="0" y2="5" style="fill: none; stroke: #888; stroke-width: 1; opacity: 1;"></line><line transform="translate(592,0)" x2="0" y2="5" style="fill: none; stroke: #888; stroke-width: 1; opacity: 1;"></line><line transform="translate(624,0)" x2="0" y2="5" style="fill: none; stroke: #888; stroke-width: 1; opacity: 1;"></line><line transform="translate(656,0)" x2="0" y2="5" style="fill: none; stroke: #888; stroke-width: 1; opacity: 1;"></line><line transform="translate(688,0)" x2="0" y2="5" style="fill: none; stroke: #888; stroke-width: 1; opacity: 1;"></line><line transform="translate(720,0)" x2="0" y2="5" style="fill: none; stroke: #888; stroke-width: 1; opacity: 1;"></line><line transform="translate(752,0)" x2="0" y2="5" style="fill: none; stroke: #888; stroke-width: 1; opacity: 1;"></line><line transform="translate(784,0)" x2="0" y2="5" style="fill: none; stroke: #888; stroke-width: 1; opacity: 1;"></line></g><g class="mark-text role-axis-label" style="pointer-events: none;"><text text-anchor="end" transform="translate(15.500000000000021,7) rotate(270) translate(0,3)" style="font-family: sans-serif; font-size: 10px; fill: #000; opacity: 1;">2021-01</text><text text-anchor="end" transform="translate(47.50000000000002,7) rotate(270) translate(0,3)" style="font-family: sans-serif; font-size: 10px; fill: #000; opacity: 1;">2021-02</text><text text-anchor="end" transform="translate(79.50000000000003,7) rotate(270) translate(0,3)" style="font-family: sans-serif; font-size: 10px; fill: #000; opacity: 1;">2021-03</text><text text-anchor="end" transform="translate(111.50000000000003,7) rotate(270) translate(0,3)" style="font-family: sans-serif; font-size: 10px; fill: #000; opacity: 1;">2021-04</text><text text-anchor="end" transform="translate(143.50000000000003,7) rotate(270) translate(0,3)" style="font-family: sans-serif; font-size: 10px; fill: #000; opacity: 1;">2021-05</text><text text-anchor="end" transform="translate(175.50000000000003,7) rotate(270) translate(0,3)" style="font-family: sans-serif; font-size: 10px; fill: #000; opacity: 1;">2021-06</text><text text-anchor="end" transform="translate(207.50000000000003,7) rotate(270) translate(0,3)" style="font-family: sans-serif; font-size: 10px; fill: #000; opacity: 1;">2021-07</text><text text-anchor="end" transform="translate(239.50000000000003,7) rotate(270) translate(0,3)" style="font-family: sans-serif; font-size: 10px; fill: #000; opacity: 1;">2021-08</text><text text-anchor="end" transform="translate(271.5,7) rotate(270) translate(0,3)" style="font-family: sans-serif; font-size: 10px; fill: #000; opacity: 1;">2021-09</text><text text-anchor="end" transform="translate(303.5,7) rotate(270) translate(0,3)" style="font-family: sans-serif; font-size: 10px; fill: #000; opacity: 1;">2021-10</text><text text-anchor="end" transform="translate(335.5,7) rotate(270) translate(0,3)" style="font-family: sans-serif; font-size: 10px; fill: #000; opacity: 1;">2021-11</text><text text-anchor="end" transform="translate(367.5,7) rotate(270) translate(0,3)" style="font-family: sans-serif; font-size: 10px; fill: #000; opacity: 1;">2021-12</text><text text-anchor="end" transform="translate(399.5,7) rotate(270) translate(0,3)" style="font-family: sans-serif; font-size: 10px; fill: #000; opacity: 1;">2022-01</text><text text-anchor="end" transform="translate(431.5,7) rotate(270) translate(0,3)" style="font-family: sans-serif; font-size: 10px; fill: #000; opacity: 1;">2022-02</text><text text-anchor="end" transform="translate(463.5,7) rotate(270) translate(0,3)" style="font-family: sans-serif; font-size: 10px; fill: #000; opacity: 1;">2022-03</text><text text-anchor="end" transform="translate(495.5,7) rotate(270) translate(0,3)" style="font-family: sans-serif; font-size: 10px; fill: #000; opacity: 1;">2022-04</text><text text-anchor="end" transform="translate(527.5,7) rotate(270) translate(0,3)" style="font-family: sans-serif; font-size: 10px; fill: #000; opacity: 1;">2022-05</text><text text-anchor="end" transform="translate(559.5,7) rotate(270) translate(0,3)" style="font-family: sans-serif; font-size: 10px; fill: #000; opacity: 1;">2022-06</text><text text-anchor="end" transform="translate(591.5,7) rotate(270) translate(0,3)" style="font-family: sans-serif; font-size: 10px; fill: #000; opacity: 1;">2022-07</text><text text-anchor="end" transform="translate(623.5,7) rotate(270) translate(0,3)" style="font-family: sans-serif; font-size: 10px; fill: #000; opacity: 1;">2022-08</text><text text-anchor="end" transform="translate(655.5,7) rotate(270) translate(0,3)" style="font-family: sans-serif; font-size: 10px; fill: #000; opacity: 1;">2022-09</text><text text-anchor="end" transform="translate(687.5,7) rotate(270) translate(0,3)" style="font-family: sans-serif; font-size: 10px; fill: #000; opacity: 1;">2022-10</text><text text-anchor="end" transform="translate(719.5,7) rotate(270) translate(0,3)" style="font-family: sans-serif; font-size: 10px; fill: #000; opacity: 1;">2022-11</text><text text-anchor="end" transform="translate(751.5,7) rotate(270) translate(0,3)" style="font-family: sans-serif; font-size: 10px; fill: #000; opacity: 1;">2022-12</text><text text-anchor="end" transform="translate(783.5,7) rotate(270) translate(0,3)" style="font-family: sans-serif; font-size: 10px; fill: #000; opacity: 1;">2023-01</text></g><g class="mark-rule role-axis-domain" style="pointer-events: none;"><line transform="translate(0,0)" x2="800" y2="0" style="fill: none; stroke: #888; stroke-width: 1; opacity: 1;"></line></g><g class="mark-text role-axis-title" style="pointer-events: none;"><text text-anchor="middle" transform="translate(400,76)" style="font-family: sans-serif; font-size: 11px; font-weight: bold; fill: #000; opacity: 1;">Date</text></g></g><path class="foreground" d="" style="pointer-events: none; display: none; fill: none;"></path></g></g><g class="mark-group role-axis"><g transform="translate(0.5,0.5)"><path class="background" d="M0,0h0v0h0Z" style="pointer-events: none; fill: none;"></path><g><g class="mark-rule role-axis-tick" style="pointer-events: none;"><line transform="translate(0,600)" x2="-5" y2="0" style="fill: none; stroke: #888; stroke-width: 1; opacity: 1;"></line><line transform="translate(0,545)" x2="-5" y2="0" style="fill: none; stroke: #888; stroke-width: 1; opacity: 1;"></line><line transform="translate(0,491)" x2="-5" y2="0" style="fill: none; stroke: #888; stroke-width: 1; opacity: 1;"></line><line transform="translate(0,436)" x2="-5" y2="0" style="fill: none; stroke: #888; stroke-width: 1; opacity: 1;"></line><line transform="translate(0,382)" x2="-5" y2="0" style="fill: none; stroke: #888; stroke-width: 1; opacity: 1;"></line><line transform="translate(0,327)" x2="-5" y2="0" style="fill: none; stroke: #888; stroke-width: 1; opacity: 1;"></line><line transform="translate(0,273)" x2="-5" y2="0" style="fill: none; stroke: #888; stroke-width: 1; opacity: 1;"></line><line transform="translate(0,218)" x2="-5" y2="0" style="fill: none; stroke: #888; stroke-width: 1; opacity: 1;"></line><line transform="translate(0,164)" x2="-5" y2="0" style="fill: none; stroke: #888; stroke-width: 1; opacity: 1;"></line><line transform="translate(0,109)" x2="-5" y2="0" style="fill: none; stroke: #888; stroke-width: 1; opacity: 1;"></line><line transform="translate(0,55)" x2="-5" y2="0" style="fill: none; stroke: #888; stroke-width: 1; opacity: 1;"></line><line transform="translate(0,0)" x2="-5" y2="0" style="fill: none; stroke: #888; stroke-width: 1; opacity: 1;"></line></g><g class="mark-text role-axis-label" style="pointer-events: none;"><text text-anchor="end" transform="translate(-7,603)" style="font-family: sans-serif; font-size: 10px; fill: #000; opacity: 1;">0.0</text><text text-anchor="end" transform="translate(-7,548.4545454545454)" style="font-family: sans-serif; font-size: 10px; fill: #000; opacity: 1;">0.1</text><text text-anchor="end" transform="translate(-7,493.9090909090909)" style="font-family: sans-serif; font-size: 10px; fill: #000; opacity: 1;">0.2</text><text text-anchor="end" transform="translate(-7,439.3636363636364)" style="font-family: sans-serif; font-size: 10px; fill: #000; opacity: 1;">0.3</text><text text-anchor="end" transform="translate(-7,384.8181818181818)" style="font-family: sans-serif; font-size: 10px; fill: #000; opacity: 1;">0.4</text><text text-anchor="end" transform="translate(-7,330.27272727272725)" style="font-family: sans-serif; font-size: 10px; fill: #000; opacity: 1;">0.5</text><text text-anchor="end" transform="translate(-7,275.72727272727275)" style="font-family: sans-serif; font-size: 10px; fill: #000; opacity: 1;">0.6</text><text text-anchor="end" transform="translate(-7,221.18181818181824)" style="font-family: sans-serif; font-size: 10px; fill: #000; opacity: 1;">0.7</text><text text-anchor="end" transform="translate(-7,166.63636363636363)" style="font-family: sans-serif; font-size: 10px; fill: #000; opacity: 1;">0.8</text><text text-anchor="end" transform="translate(-7,112.09090909090912)" style="font-family: sans-serif; font-size: 10px; fill: #000; opacity: 1;">0.9</text><text text-anchor="end" transform="translate(-7,57.54545454545456)" style="font-family: sans-serif; font-size: 10px; fill: #000; opacity: 1;">1.0</text><text text-anchor="end" transform="translate(-7,3)" style="font-family: sans-serif; font-size: 10px; fill: #000; opacity: 1;">1.1</text></g><g class="mark-rule role-axis-domain" style="pointer-events: none;"><line transform="translate(0,600)" x2="0" y2="-600" style="fill: none; stroke: #888; stroke-width: 1; opacity: 1;"></line></g><g class="mark-text role-axis-title" style="pointer-events: none;"><text text-anchor="middle" transform="translate(-35,300) rotate(-90) translate(0,-2)" style="font-family: sans-serif; font-size: 11px; font-weight: bold; fill: #000; opacity: 1;">Sum of Hours</text></g></g><path class="foreground" d="" style="pointer-events: none; display: none; fill: none;"></path></g></g><g class="mark-rect role-mark marks"><path d="M1.6000000000000227,145.80827732578717h28.8v12.734347364697584h-28.8Z" style="fill: #f58518;"></path><path d="M1.6000000000000227,54.545454545454696h28.8v91.26282278033247h-28.8Z" style="fill: #4c78a8;"></path><path d="M1.6000000000000227,158.54262469048476h28.8v252.56455606650147h-28.8Z" style="fill: #e45756;"></path><path d="M1.6000000000000227,476.9013088079236h28.8v89.14043155288294h-28.8Z" style="fill: #54a24b;"></path><path d="M1.6000000000000227,411.1071807569862h28.8v65.79412805093739h-28.8Z" style="fill: #72b7b2;"></path><path d="M1.6000000000000227,566.0417403608066h28.8v33.95825963919344h-28.8Z" style="fill: #b279a2;"></path><path d="M33.60000000000002,197.95134443021766h28.8v97.31113956466072h-28.8Z" style="fill: #e45756;"></path><path d="M33.60000000000002,366.9654289372599h28.8v192.06145966709352h-28.8Z" style="fill: #54a24b;"></path><path d="M33.60000000000002,54.54545454545456h28.8v143.4058898847631h-28.8Z" style="fill: #4c78a8;"></path><path d="M33.60000000000002,295.2624839948784h28.8v71.70294494238152h-28.8Z" style="fill: #72b7b2;"></path><path d="M33.60000000000002,559.0268886043534h28.8v40.97311139564658h-28.8Z" style="fill: #b279a2;"></path><path d="M65.60000000000002,166.96738376127672h28.8v52.04718945176958h-28.8Z" style="fill: #e45756;"></path><path d="M65.60000000000002,348.09160305343505h28.8v222.76197085357398h-28.8Z" style="fill: #54a24b;"></path><path d="M65.60000000000002,54.54545454545436h28.8v112.42192921582236h-28.8Z" style="fill: #4c78a8;"></path><path d="M65.60000000000002,219.0145732130463h28.8v129.07702984038875h-28.8Z" style="fill: #72b7b2;"></path><path d="M65.60000000000002,570.853573907009h28.8v29.146426092990964h-28.8Z" style="fill: #eeca3b;"></path><path d="M97.60000000000002,153.91120507399577h28.8v16.91331923890067h-28.8Z" style="fill: #f58518;"></path><path d="M97.60000000000002,394.9260042283298h28.8v147.99154334038053h-28.8Z" style="fill: #54a24b;"></path><path d="M97.60000000000002,244.82029598308665h28.8v150.10570824524316h-28.8Z" style="fill: #72b7b2;"></path><path d="M97.60000000000002,542.9175475687103h28.8v23.255813953488428h-28.8Z" style="fill: #eeca3b;"></path><path d="M97.60000000000002,170.82452431289644h28.8v73.99577167019021h-28.8Z" style="fill: #e45756;"></path><path d="M97.60000000000002,54.5454545454545h28.8v99.36575052854127h-28.8Z" style="fill: #4c78a8;"></path><path d="M97.60000000000002,566.1733615221988h28.8v33.826638477801225h-28.8Z" style="fill: #b279a2;"></path><path d="M129.60000000000002,417.5059141601893h28.8v152.07840486650895h-28.8Z" style="fill: #54a24b;"></path><path d="M129.60000000000002,186.34673876309566h28.8v77.05305846569789h-28.8Z" style="fill: #e45756;"></path><path d="M129.60000000000002,263.39979722879355h28.8v154.10611693139577h-28.8Z" style="fill: #72b7b2;"></path><path d="M129.60000000000002,54.54545454545456h28.8v131.8012842176411h-28.8Z" style="fill: #4c78a8;"></path><path d="M129.60000000000002,569.5843190266983h28.8v30.415680973301733h-28.8Z" style="fill: #eeca3b;"></path><path d="M161.60000000000002,428.78787878787887h28.8v74.24242424242419h-28.8Z" style="fill: #54a24b;"></path><path d="M161.60000000000002,503.03030303030306h28.8v72.72727272727269h-28.8Z" style="fill: #eeca3b;"></path><path d="M161.60000000000002,274.2424242424243h28.8v56.06060606060606h-28.8Z" style="fill: #e45756;"></path><path d="M161.60000000000002,54.545454545454696h28.8v219.6969696969696h-28.8Z" style="fill: #4c78a8;"></path><path d="M161.60000000000002,330.30303030303037h28.8v98.4848484848485h-28.8Z" style="fill: #72b7b2;"></path><path d="M161.60000000000002,575.7575757575758h28.8v24.24242424242425h-28.8Z" style="fill: #b279a2;"></path><path d="M193.60000000000002,469.9450016175995h28.8v62.11582012293752h-28.8Z" style="fill: #54a24b;"></path><path d="M193.60000000000002,54.54545454545456h28.8v161.11290844386932h-28.8Z" style="fill: #4c78a8;"></path><path d="M193.60000000000002,357.36007764477523h28.8v112.58492397282424h-28.8Z" style="fill: #72b7b2;"></path><path d="M193.60000000000002,568.9420899385312h28.8v31.05791006146876h-28.8Z" style="fill: #b279a2;"></path><path d="M193.60000000000002,227.3050792623747h28.8v130.05499838240053h-28.8Z" style="fill: #e45756;"></path><path d="M193.60000000000002,215.65836298932388h28.8v11.646716273050828h-28.8Z" style="fill: #f58518;"></path><path d="M193.60000000000002,532.060821740537h28.8v36.881268197994245h-28.8Z" style="fill: #eeca3b;"></path><path d="M225.60000000000002,54.54545454545463h28.8v50.699300699300736h-28.8Z" style="fill: #4c78a8;"></path><path d="M225.60000000000002,437.4125874125875h28.8v157.34265734265728h-28.8Z" style="fill: #54a24b;"></path><path d="M225.60000000000002,112.23776223776231h28.8v206.2937062937063h-28.8Z" style="fill: #e45756;"></path><path d="M225.60000000000002,318.5314685314686h28.8v118.88111888111894h-28.8Z" style="fill: #72b7b2;"></path><path d="M225.60000000000002,594.7552447552448h28.8v5.244755244755197h-28.8Z" style="fill: #eeca3b;"></path><path d="M225.60000000000002,105.24475524475537h28.8v6.993006993006944h-28.8Z" style="fill: #f58518;"></path><path d="M257.6,564.6382790629144h28.8v7.072344187417116h-28.8Z" style="fill: #eeca3b;"></path><path d="M257.6,150.02210107558577h28.8v28.28937674966849h-28.8Z" style="fill: #f58518;"></path><path d="M257.6,476.23397672020036h28.8v88.40430234271406h-28.8Z" style="fill: #54a24b;"></path><path d="M257.6,317.10623250331514h28.8v159.12774421688522h-28.8Z" style="fill: #72b7b2;"></path><path d="M257.6,178.31147782525426h28.8v138.79475467806088h-28.8Z" style="fill: #e45756;"></path><path d="M257.6,54.54545454545463h28.8v95.47664653013113h-28.8Z" style="fill: #4c78a8;"></path><path d="M257.6,571.7106232503315h28.8v28.289376749668463h-28.8Z" style="fill: #b279a2;"></path><path d="M289.6,54.54545454545456h28.8v60.32677000418934h-28.8Z" style="fill: #4c78a8;"></path><path d="M289.6,137.49476330121496h28.8v120.65354000837874h-28.8Z" style="fill: #e45756;"></path><path d="M289.6,258.1483033095937h28.8v100.54461667364887h-28.8Z" style="fill: #72b7b2;"></path><path d="M289.6,114.8722245496439h28.8v22.622538751571057h-28.8Z" style="fill: #f58518;"></path><path d="M289.6,358.6929199832426h28.8v241.30708001675742h-28.8Z" style="fill: #54a24b;"></path><path d="M321.6,283.9422259983008h28.8v197.11129991503822h-28.8Z" style="fill: #54a24b;"></path><path d="M321.6,81.73322005097712h28.8v25.488530161427335h-28.8Z" style="fill: #f58518;"></path><path d="M321.6,192.18351741716236h28.8v91.75870858113842h-28.8Z" style="fill: #72b7b2;"></path><path d="M321.6,54.54545454545456h28.8v27.187765505522563h-28.8Z" style="fill: #4c78a8;"></path><path d="M321.6,107.22175021240446h28.8v84.9617672047579h-28.8Z" style="fill: #e45756;"></path><path d="M321.6,481.053525913339h28.8v10.195412064570917h-28.8Z" style="fill: #eeca3b;"></path><path d="M321.6,491.2489379779099h28.8v108.75106202209008h-28.8Z" style="fill: #b279a2;"></path><path d="M353.6,125.4860746190227h28.8v108.77561744613766h-28.8Z" style="fill: #72b7b2;"></path><path d="M353.6,234.26169206516036h28.8v163.95165528113503h-28.8Z" style="fill: #54a24b;"></path><path d="M353.6,54.545454545454696h28.8v12.611665790856527h-28.8Z" style="fill: #4c78a8;"></path><path d="M353.6,104.99211770888088h28.8v20.49395691014182h-28.8Z" style="fill: #e45756;"></path><path d="M353.6,67.15712033631122h28.8v37.83499737256966h-28.8Z" style="fill: #f58518;"></path><path d="M353.6,398.2133473462954h28.8v201.7866526537046h-28.8Z" style="fill: #b279a2;"></path><path d="M385.6,67.63636363636354h28.8v15.272727272727238h-28.8Z" style="fill: #f58518;"></path><path d="M385.6,152.72727272727258h28.8v74.18181818181819h-28.8Z" style="fill: #72b7b2;"></path><path d="M385.6,226.90909090909076h28.8v305.4545454545456h-28.8Z" style="fill: #54a24b;"></path><path d="M385.6,82.90909090909078h28.8v69.8181818181818h-28.8Z" style="fill: #e45756;"></path><path d="M385.6,532.3636363636364h28.8v32.72727272727275h-28.8Z" style="fill: #eeca3b;"></path><path d="M385.6,54.5454545454545h28.8v13.090909090909044h-28.8Z" style="fill: #4c78a8;"></path><path d="M385.6,565.0909090909091h28.8v34.90909090909088h-28.8Z" style="fill: #b279a2;"></path><path d="M417.6,488.4297520661157h28.8v51.652892561983435h-28.8Z" style="fill: #54a24b;"></path><path d="M417.6,54.54545454545476h28.8v95.04132231404958h-28.8Z" style="fill: #4c78a8;"></path><path d="M417.6,331.40495867768607h28.8v157.02479338842966h-28.8Z" style="fill: #72b7b2;"></path><path d="M417.6,199.17355371900845h28.8v132.23140495867762h-28.8Z" style="fill: #e45756;"></path><path d="M417.6,149.58677685950434h28.8v49.58677685950411h-28.8Z" style="fill: #f58518;"></path><path d="M417.6,540.0826446280992h28.8v26.85950413223145h-28.8Z" style="fill: #eeca3b;"></path><path d="M417.6,566.9421487603306h28.8v33.05785123966939h-28.8Z" style="fill: #b279a2;"></path><path d="M449.6,178.59531772575272h28.8v164.1836424445119h-28.8Z" style="fill: #e45756;"></path><path d="M449.6,342.7789601702646h28.8v158.7108543630282h-28.8Z" style="fill: #72b7b2;"></path><path d="M449.6,167.64974156278524h28.8v10.945576162967484h-28.8Z" style="fill: #f58518;"></path><path d="M449.6,54.54545454545476h28.8v113.10428701733048h-28.8Z" style="fill: #4c78a8;"></path><path d="M449.6,501.4898145332928h28.8v71.1462450592885h-28.8Z" style="fill: #54a24b;"></path><path d="M449.6,572.6360595925813h28.8v27.36394040741868h-28.8Z" style="fill: #eeca3b;"></path><path d="M481.6,123.41597796143253h28.8v256.19834710743794h-28.8Z" style="fill: #e45756;"></path><path d="M481.6,434.7107438016529h28.8v115.70247933884303h-28.8Z" style="fill: #54a24b;"></path><path d="M481.6,550.4132231404959h28.8v5.509641873278156h-28.8Z" style="fill: #eeca3b;"></path><path d="M481.6,379.61432506887047h28.8v55.09641873278241h-28.8Z" style="fill: #72b7b2;"></path><path d="M481.6,555.9228650137741h28.8v44.07713498622593h-28.8Z" style="fill: #b279a2;"></path><path d="M481.6,68.31955922865018h28.8v55.096418732782354h-28.8Z" style="fill: #f58518;"></path><path d="M481.6,54.54545454545456h28.8v13.774104683195617h-28.8Z" style="fill: #4c78a8;"></path><path d="M513.6,77.6334776334777h28.8v14.430014430014467h-28.8Z" style="fill: #f58518;"></path><path d="M513.6,397.979797979798h28.8v152.958152958153h-28.8Z" style="fill: #54a24b;"></path><path d="M513.6,288.31168831168833h28.8v109.66810966810965h-28.8Z" style="fill: #72b7b2;"></path><path d="M513.6,92.06349206349216h28.8v196.24819624819617h-28.8Z" style="fill: #e45756;"></path><path d="M513.6,54.54545454545456h28.8v23.088023088023135h-28.8Z" style="fill: #4c78a8;"></path><path d="M513.6,550.937950937951h28.8v2.8860028860028706h-28.8Z" style="fill: #eeca3b;"></path><path d="M513.6,553.8239538239538h28.8v46.17604617604616h-28.8Z" style="fill: #b279a2;"></path><path d="M545.6,99.52153110047837h28.8v26.794258373205764h-28.8Z" style="fill: #f58518;"></path><path d="M545.6,126.31578947368413h28.8v265.0717703349284h-28.8Z" style="fill: #e45756;"></path><path d="M545.6,391.3875598086125h28.8v107.177033492823h-28.8Z" style="fill: #72b7b2;"></path><path d="M545.6,498.5645933014355h28.8v70.81339712918657h-28.8Z" style="fill: #54a24b;"></path><path d="M545.6,54.5454545454545h28.8v44.97607655502387h-28.8Z" style="fill: #4c78a8;"></path><path d="M545.6,569.377990430622h28.8v30.62200956937795h-28.8Z" style="fill: #b279a2;"></path><path d="M577.6,528.9772727272727h28.8v25.56818181818187h-28.8Z" style="fill: #54a24b;"></path><path d="M577.6,554.5454545454546h28.8v45.45454545454538h-28.8Z" style="fill: #b279a2;"></path><path d="M577.6,117.0454545454546h28.8v318.18181818181813h-28.8Z" style="fill: #e45756;"></path><path d="M577.6,435.22727272727275h28.8v93.75h-28.8Z" style="fill: #72b7b2;"></path><path d="M577.6,60.22727272727284h28.8v56.81818181818176h-28.8Z" style="fill: #f58518;"></path><path d="M577.6,54.54545454545463h28.8v5.681818181818208h-28.8Z" style="fill: #4c78a8;"></path><path d="M609.6,64.50809464508104h28.8v74.71980074719797h-28.8Z" style="fill: #f58518;"></path><path d="M609.6,331.00871731008715h28.8v191.78082191780834h-28.8Z" style="fill: #72b7b2;"></path><path d="M609.6,139.227895392279h28.8v191.78082191780814h-28.8Z" style="fill: #e45756;"></path><path d="M609.6,545.2054794520548h28.8v54.79452054794524h-28.8Z" style="fill: #eeca3b;"></path><path d="M609.6,54.54545454545463h28.8v9.962640099626412h-28.8Z" style="fill: #4c78a8;"></path><path d="M609.6,522.7895392278955h28.8v22.41594022415927h-28.8Z" style="fill: #54a24b;"></path><path d="M641.6,95.51856594110117h28.8v281.69014084507046h-28.8Z" style="fill: #e45756;"></path><path d="M641.6,559.0268886043534h28.8v40.97311139564658h-28.8Z" style="fill: #b279a2;"></path><path d="M641.6,507.81049935979513h28.8v51.216389244558286h-28.8Z" style="fill: #54a24b;"></path><path d="M641.6,377.2087067861716h28.8v130.60179257362353h-28.8Z" style="fill: #72b7b2;"></path><path d="M641.6,54.54545454545456h28.8v20.48655569782335h-28.8Z" style="fill: #4c78a8;"></path><path d="M641.6,75.03201024327791h28.8v20.486555697823263h-28.8Z" style="fill: #f58518;"></path><path d="M673.6,54.54545454545456h28.8v26.7379679144385h-28.8Z" style="fill: #4c78a8;"></path><path d="M673.6,428.8770053475936h28.8v125.66844919786104h-28.8Z" style="fill: #72b7b2;"></path><path d="M673.6,575.9358288770054h28.8v24.064171122994594h-28.8Z" style="fill: #eeca3b;"></path><path d="M673.6,113.36898395721926h28.8v315.5080213903743h-28.8Z" style="fill: #e45756;"></path><path d="M673.6,554.5454545454546h28.8v21.390374331550788h-28.8Z" style="fill: #54a24b;"></path><path d="M673.6,81.28342245989306h28.8v32.085561497326196h-28.8Z" style="fill: #f58518;"></path><path d="M705.6,91.48859109018484h28.8v275.98696124592533h-28.8Z" style="fill: #e45756;"></path><path d="M705.6,78.4498370155742h28.8v13.038754074610637h-28.8Z" style="fill: #f58518;"></path><path d="M705.6,54.545454545454696h28.8v23.904382470119508h-28.8Z" style="fill: #4c78a8;"></path><path d="M705.6,367.4755523361102h28.8v86.92502716407091h-28.8Z" style="fill: #72b7b2;"></path><path d="M705.6,454.4005795001811h28.8v6.519377037305333h-28.8Z" style="fill: #54a24b;"></path><path d="M705.6,460.9199565374864h28.8v139.08004346251357h-28.8Z" style="fill: #b279a2;"></path><path d="M737.6,187.66233766233768h28.8v285.7142857142857h-28.8Z" style="fill: #72b7b2;"></path><path d="M737.6,54.54545454545456h28.8v133.11688311688312h-28.8Z" style="fill: #e45756;"></path><path d="M737.6,473.3766233766234h28.8v22.727272727272748h-28.8Z" style="fill: #54a24b;"></path><path d="M737.6,496.10389610389615h28.8v103.89610389610385h-28.8Z" style="fill: #b279a2;"></path><path d="M769.6,519.9332777314429h28.8v80.0667222685571h-28.8Z" style="fill: #b279a2;"></path><path d="M769.6,214.67889908256885h28.8v230.1918265221017h-28.8Z" style="fill: #72b7b2;"></path><path d="M769.6,54.54545454545456h28.8v40.03336113427862h-28.8Z" style="fill: #f58518;"></path><path d="M769.6,94.57881567973318h28.8v120.10008340283566h-28.8Z" style="fill: #e45756;"></path><path d="M769.6,484.90408673894916h28.8v35.02919099249374h-28.8Z" style="fill: #eeca3b;"></path><path d="M769.6,444.87072560467055h28.8v40.03336113427861h-28.8Z" style="fill: #54a24b;"></path></g><g class="mark-group role-legend"><g transform="translate(818,0)"><path class="background" d="M0,0h112v105h-112Z" style="pointer-events: none; fill: none;"></path><g><g class="mark-group role-legend-entry"><g transform="translate(0,16)"><path class="background" d="M0,0h0v0h0Z" style="pointer-events: none; fill: none;"></path><g><g class="mark-group role-scope"><g transform="translate(0,0)"><path class="background" d="M0,0h112v11h-112Z" style="pointer-events: none; fill: none; opacity: 1;"></path><g><g class="mark-symbol role-legend-symbol" style="pointer-events: none;"><path transform="translate(6,6)" d="M-5,-5h10v10h-10Z" style="fill: #4c78a8; stroke-width: 1.5; opacity: 1;"></path></g><g class="mark-text role-legend-label" style="pointer-events: none;"><text text-anchor="start" transform="translate(16,9)" style="font-family: sans-serif; font-size: 10px; fill: #000; opacity: 1;">APOLLO</text></g></g><path class="foreground" d="" style="pointer-events: none; display: none; fill: none;"></path></g><g transform="translate(0,13)"><path class="background" d="M0,0h112v11h-112Z" style="pointer-events: none; fill: none; opacity: 1;"></path><g><g class="mark-symbol role-legend-symbol" style="pointer-events: none;"><path transform="translate(6,6)" d="M-5,-5h10v10h-10Z" style="fill: #f58518; stroke-width: 1.5; opacity: 1;"></path></g><g class="mark-text role-legend-label" style="pointer-events: none;"><text text-anchor="start" transform="translate(16,9)" style="font-family: sans-serif; font-size: 10px; fill: #000; opacity: 1;">EDF</text></g></g><path class="foreground" d="" style="pointer-events: none; display: none; fill: none;"></path></g><g transform="translate(0,26)"><path class="background" d="M0,0h112v11h-112Z" style="pointer-events: none; fill: none; opacity: 1;"></path><g><g class="mark-symbol role-legend-symbol" style="pointer-events: none;"><path transform="translate(6,6)" d="M-5,-5h10v10h-10Z" style="fill: #e45756; stroke-width: 1.5; opacity: 1;"></path></g><g class="mark-text role-legend-label" style="pointer-events: none;"><text text-anchor="start" transform="translate(16,9)" style="font-family: sans-serif; font-size: 10px; fill: #000; opacity: 1;">ETL</text></g></g><path class="foreground" d="" style="pointer-events: none; display: none; fill: none;"></path></g><g transform="translate(0,39)"><path class="background" d="M0,0h112v11h-112Z" style="pointer-events: none; fill: none; opacity: 1;"></path><g><g class="mark-symbol role-legend-symbol" style="pointer-events: none;"><path transform="translate(6,6)" d="M-5,-5h10v10h-10Z" style="fill: #72b7b2; stroke-width: 1.5; opacity: 1;"></path></g><g class="mark-text role-legend-label" style="pointer-events: none;"><text text-anchor="start" transform="translate(16,9)" style="font-family: sans-serif; font-size: 10px; fill: #000; opacity: 1;">GEM</text></g></g><path class="foreground" d="" style="pointer-events: none; display: none; fill: none;"></path></g><g transform="translate(0,52)"><path class="background" d="M0,0h112v11h-112Z" style="pointer-events: none; fill: none; opacity: 1;"></path><g><g class="mark-symbol role-legend-symbol" style="pointer-events: none;"><path transform="translate(6,6)" d="M-5,-5h10v10h-10Z" style="fill: #54a24b; stroke-width: 1.5; opacity: 1;"></path></g><g class="mark-text role-legend-label" style="pointer-events: none;"><text text-anchor="start" transform="translate(16,9)" style="font-family: sans-serif; font-size: 10px; fill: #000; opacity: 1;">L0MDT</text></g></g><path class="foreground" d="" style="pointer-events: none; display: none; fill: none;"></path></g><g transform="translate(0,65)"><path class="background" d="M0,0h112v11h-112Z" style="pointer-events: none; fill: none; opacity: 1;"></path><g><g class="mark-symbol role-legend-symbol" style="pointer-events: none;"><path transform="translate(6,6)" d="M-5,-5h10v10h-10Z" style="fill: #eeca3b; stroke-width: 1.5; opacity: 1;"></path></g><g class="mark-text role-legend-label" style="pointer-events: none;"><text text-anchor="start" transform="translate(16,9)" style="font-family: sans-serif; font-size: 10px; fill: #000; opacity: 1;">OTHER PRJ</text></g></g><path class="foreground" d="" style="pointer-events: none; display: none; fill: none;"></path></g><g transform="translate(0,78)"><path class="background" d="M0,0h112v11h-112Z" style="pointer-events: none; fill: none; opacity: 1;"></path><g><g class="mark-symbol role-legend-symbol" style="pointer-events: none;"><path transform="translate(6,6)" d="M-5,-5h10v10h-10Z" style="fill: #b279a2; stroke-width: 1.5; opacity: 1;"></path></g><g class="mark-text role-legend-label" style="pointer-events: none;"><text text-anchor="start" transform="translate(16,9)" style="font-family: sans-serif; font-size: 10px; fill: #000; opacity: 1;">VAC/SICK/HOL</text></g></g><path class="foreground" d="" style="pointer-events: none; display: none; fill: none;"></path></g></g></g><path class="foreground" d="" style="pointer-events: none; display: none; fill: none;"></path></g></g><g class="mark-text role-legend-title" style="pointer-events: none;"><text text-anchor="start" transform="translate(0,9)" style="font-family: sans-serif; font-size: 11px; font-weight: bold; fill: #000; opacity: 1;">Project</text></g></g><path class="foreground" d="" style="pointer-events: none; display: none; fill: none;"></path></g></g></g><path class="foreground" d="" style="display: none; fill: none;"></path></g></g></g></svg>