<svg class="marks" width="986" height="693" viewBox="0 0 986 693" version="1.1" xmlns="http://www.w3.org/2000/svg" xmlns:xlink="http://www.w3.org/1999/xlink"><rect width="986" height="693" style="fill: white;"></rect><g transform="translate(51,10)"><g class="mark-group role-frame root"><g transform="translate(0,0)"><path class="background" d="M0.5,0.5h800v600h-800Z" style="fill: none; stroke: #ddd;"></path><g><g class="mark-group role-axis"><g transform="translate(0.5,0.5)"><path class="background" d="M0,0h0v0h0Z" style="pointer-events: none; fill: none;"></path><g><g class="mark-rule role-axis-grid" style="pointer-events: none;"><line transform="translate(0,600)" x2="800" y2="0" style="fill: none; stroke: #ddd; stroke-width: 1; opacity: 1;"></line><line transform="translate(0,545)" x2="800" y2="0" style="fill: none; stroke: #ddd; stroke-width: 1; opacity: 1;"></line><line transform="translate(0,491)" x2="800" y2="0" style="fill: none; stroke: #ddd; stroke-width: 1; opacity: 1;"></line><line transform="translate(0,436)" x2="800" y2="0" style="fill: none; stroke: #ddd; stroke-width: 1; opacity: 1;"></line><line transform="translate(0,382)" x2="800" y2="0" style="fill: none; stroke: #ddd; stroke-width: 1; opacity: 1;"></line><line transform="translate(0,327)" x2="800" y2="0" style="fill: none; stroke: #ddd; stroke-width: 1; opacity: 1;"></line><line transform="translate(0,273)" x2="800" y2="0" style="fill: none; stroke: #ddd; stroke-width: 1; opacity: 1;"></line><line transform="translate(0,218)" x2="800" y2="0" style="fill: none; stroke: #ddd; stroke-width: 1; opacity: 1;"></line><line transform="translate(0,164)" x2="800" y2="0" style="fill: none; stroke: #ddd; stroke-width: 1; opacity: 1;"></line><line transform="translate(0,109)" x2="800" y2="0" style="fill: none; stroke: #ddd; stroke-width: 1; opacity: 1;"></line><line transform="translate(0,55)" x2="800" y2="0" style="fill: none; stroke: #ddd; stroke-width: 1; opacity: 1;"></line><line transform="translate(0,0)" x2="800" y2="0" style="fill: none; stroke: #ddd; stroke-width: 1; opacity: 1;"></line></g></g><path class="foreground" d="" style="pointer-events: none; display: none; fill: none;"></path></g></g><g class="mark-group role-axis"><g transform="translate(0.5,600.5)"><path class="background" d="M0,0h0v0h0Z" style="pointer-events: none; fill: none;"></path><g><g class="mark-rule role-axis-tick" style="pointer-events: none;"><line transform="translate(12,0)" x2="0" y2="5" style="fill: none; stroke: #888; stroke-width: 1; opacity: 1;"></line><line transform="translate(38,0)" x2="0" y2="5" style="fill: none; stroke: #888; stroke-width: 1; opacity: 1;"></line><line transform="translate(64,0)" x2="0" y2="5" style="fill: none; stroke: #888; stroke-width: 1; opacity: 1;"></line><line transform="translate(90,0)" x2="0" y2="5" style="fill: none; stroke: #888; stroke-width: 1; opacity: 1;"></line><line transform="translate(116,0)" x2="0" y2="5" style="fill: none; stroke: #888; stroke-width: 1; opacity: 1;"></line><line transform="translate(141,0)" x2="0" y2="5" style="fill: none; stroke: #888; stroke-width: 1; opacity: 1;"></line><line transform="translate(167,0)" x2="0" y2="5" style="fill: none; stroke: #888; stroke-width: 1; opacity: 1;"></line><line transform="translate(193,0)" x2="0" y2="5" style="fill: none; stroke: #888; stroke-width: 1; opacity: 1;"></line><line transform="translate(219,0)" x2="0" y2="5" style="fill: none; stroke: #888; stroke-width: 1; opacity: 1;"></line><line transform="translate(245,0)" x2="0" y2="5" style="fill: none; stroke: #888; stroke-width: 1; opacity: 1;"></line><line transform="translate(270,0)" x2="0" y2="5" style="fill: none; stroke: #888; stroke-width: 1; opacity: 1;"></line><line transform="translate(296,0)" x2="0" y2="5" style="fill: none; stroke: #888; stroke-width: 1; opacity: 1;"></line><line transform="translate(322,0)" x2="0" y2="5" style="fill: none; stroke: #888; stroke-width: 1; opacity: 1;"></line><line transform="translate(348,0)" x2="0" y2="5" style="fill: none; stroke: #888; stroke-width: 1; opacity: 1;"></line><line transform="translate(374,0)" x2="0" y2="5" style="fill: none; stroke: #888; stroke-width: 1; opacity: 1;"></line><line transform="translate(400,0)" x2="0" y2="5" style="fill: none; stroke: #888; stroke-width: 1; opacity: 1;"></line><line transform="translate(425,0)" x2="0" y2="5" style="fill: none; stroke: #888; stroke-width: 1; opacity: 1;"></line><line transform="translate(451,0)" x2="0" y2="5" style="fill: none; stroke: #888; stroke-width: 1; opacity: 1;"></line><line transform="translate(477,0)" x2="0" y2="5" style="fill: none; stroke: #888; stroke-width: 1; opacity: 1;"></line><line transform="translate(503,0)" x2="0" y2="5" style="fill: none; stroke: #888; stroke-width: 1; opacity: 1;"></line><line transform="translate(529,0)" x2="0" y2="5" style="fill: none; stroke: #888; stroke-width: 1; opacity: 1;"></line><line transform="translate(554,0)" x2="0" y2="5" style="fill: none; stroke: #888; stroke-width: 1; opacity: 1;"></line><line transform="translate(580,0)" x2="0" y2="5" style="fill: none; stroke: #888; stroke-width: 1; opacity: 1;"></line><line transform="translate(606,0)" x2="0" y2="5" style="fill: none; stroke: #888; stroke-width: 1; opacity: 1;"></line><line transform="translate(632,0)" x2="0" y2="5" style="fill: none; stroke: #888; stroke-width: 1; opacity: 1;"></line><line transform="translate(658,0)" x2="0" y2="5" style="fill: none; stroke: #888; stroke-width: 1; opacity: 1;"></line><line transform="translate(683,0)" x2="0" y2="5" style="fill: none; stroke: #888; stroke-width: 1; opacity: 1;"></line><line transform="translate(709,0)" x2="0" y2="5" style="fill: none; stroke: #888; stroke-width: 1; opacity: 1;"></line><line transform="translate(735,0)" x2="0" y2="5" style="fill: none; stroke: #888; stroke-width: 1; opacity: 1;"></line><line transform="translate(761,0)" x2="0" y2="5" style="fill: none; stroke: #888; stroke-width: 1; opacity: 1;"></line><line transform="translate(787,0)" x2="0" y2="5" style="fill: none; stroke: #888; stroke-width: 1; opacity: 1;"></line></g><g class="mark-text role-axis-label" style="pointer-events: none;"><text text-anchor="end" transform="translate(12.403225806451633,7) rotate(270) translate(0,3)" style="font-family: sans-serif; font-size: 10px; fill: #000; opacity: 1;">2021-01</text><text text-anchor="end" transform="translate(38.20967741935486,7) rotate(270) translate(0,3)" style="font-family: sans-serif; font-size: 10px; fill: #000; opacity: 1;">2021-02</text><text text-anchor="end" transform="translate(64.01612903225808,7) rotate(270) translate(0,3)" style="font-family: sans-serif; font-size: 10px; fill: #000; opacity: 1;">2021-03</text><text text-anchor="end" transform="translate(89.8225806451613,7) rotate(270) translate(0,3)" style="font-family: sans-serif; font-size: 10px; fill: #000; opacity: 1;">2021-04</text><text text-anchor="end" transform="translate(115.62903225806453,7) rotate(270) translate(0,3)" style="font-family: sans-serif; font-size: 10px; fill: #000; opacity: 1;">2021-05</text><text text-anchor="end" transform="translate(141.43548387096777,7) rotate(270) translate(0,3)" style="font-family: sans-serif; font-size: 10px; fill: #000; opacity: 1;">2021-06</text><text text-anchor="end" transform="translate(167.24193548387098,7) rotate(270) translate(0,3)" style="font-family: sans-serif; font-size: 10px; fill: #000; opacity: 1;">2021-07</text><text text-anchor="end" transform="translate(193.0483870967742,7) rotate(270) translate(0,3)" style="font-family: sans-serif; font-size: 10px; fill: #000; opacity: 1;">2021-08</text><text text-anchor="end" transform="translate(218.85483870967744,7) rotate(270) translate(0,3)" style="font-family: sans-serif; font-size: 10px; fill: #000; opacity: 1;">2021-09</text><text text-anchor="end" transform="translate(244.66129032258067,7) rotate(270) translate(0,3)" style="font-family: sans-serif; font-size: 10px; fill: #000; opacity: 1;">2021-10</text><text text-anchor="end" transform="translate(270.4677419354839,7) rotate(270) translate(0,3)" style="font-family: sans-serif; font-size: 10px; fill: #000; opacity: 1;">2021-11</text><text text-anchor="end" transform="translate(296.27419354838713,7) rotate(270) translate(0,3)" style="font-family: sans-serif; font-size: 10px; fill: #000; opacity: 1;">2021-12</text><text text-anchor="end" transform="translate(322.0806451612903,7) rotate(270) translate(0,3)" style="font-family: sans-serif; font-size: 10px; fill: #000; opacity: 1;">2022-01</text><text text-anchor="end" transform="translate(347.88709677419354,7) rotate(270) translate(0,3)" style="font-family: sans-serif; font-size: 10px; fill: #000; opacity: 1;">2022-02</text><text text-anchor="end" transform="translate(373.69354838709677,7) rotate(270) translate(0,3)" style="font-family: sans-serif; font-size: 10px; fill: #000; opacity: 1;">2022-03</text><text text-anchor="end" transform="translate(399.5,7) rotate(270) translate(0,3)" style="font-family: sans-serif; font-size: 10px; fill: #000; opacity: 1;">2022-04</text><text text-anchor="end" transform="translate(425.30645161290323,7) rotate(270) translate(0,3)" style="font-family: sans-serif; font-size: 10px; fill: #000; opacity: 1;">2022-05</text><text text-anchor="end" transform="translate(451.11290322580646,7) rotate(270) translate(0,3)" style="font-family: sans-serif; font-size: 10px; fill: #000; opacity: 1;">2022-06</text><text text-anchor="end" transform="translate(476.9193548387097,7) rotate(270) translate(0,3)" style="font-family: sans-serif; font-size: 10px; fill: #000; opacity: 1;">2022-07</text><text text-anchor="end" transform="translate(502.7258064516129,7) rotate(270) translate(0,3)" style="font-family: sans-serif; font-size: 10px; fill: #000; opacity: 1;">2022-08</text><text text-anchor="end" transform="translate(528.5322580645162,7) rotate(270) translate(0,3)" style="font-family: sans-serif; font-size: 10px; fill: #000; opacity: 1;">2022-09</text><text text-anchor="end" transform="translate(554.3387096774194,7) rotate(270) translate(0,3)" style="font-family: sans-serif; font-size: 10px; fill: #000; opacity: 1;">2022-10</text><text text-anchor="end" transform="translate(580.1451612903226,7) rotate(270) translate(0,3)" style="font-family: sans-serif; font-size: 10px; fill: #000; opacity: 1;">2022-11</text><text text-anchor="end" transform="translate(605.9516129032257,7) rotate(270) translate(0,3)" style="font-family: sans-serif; font-size: 10px; fill: #000; opacity: 1;">2022-12</text><text text-anchor="end" transform="translate(631.7580645161289,7) rotate(270) translate(0,3)" style="font-family: sans-serif; font-size: 10px; fill: #000; opacity: 1;">2023-01</text><text text-anchor="end" transform="translate(657.5645161290323,7) rotate(270) translate(0,3)" style="font-family: sans-serif; font-size: 10px; fill: #000; opacity: 1;">2023-02</text><text text-anchor="end" transform="translate(683.3709677419355,7) rotate(270) translate(0,3)" style="font-family: sans-serif; font-size: 10px; fill: #000; opacity: 1;">2023-03</text><text text-anchor="end" transform="translate(709.1774193548387,7) rotate(270) translate(0,3)" style="font-family: sans-serif; font-size: 10px; fill: #000; opacity: 1;">2023-04</text><text text-anchor="end" transform="translate(734.9838709677418,7) rotate(270) translate(0,3)" style="font-family: sans-serif; font-size: 10px; fill: #000; opacity: 1;">2023-05</text><text text-anchor="end" transform="translate(760.7903225806452,7) rotate(270) translate(0,3)" style="font-family: sans-serif; font-size: 10px; fill: #000; opacity: 1;">2023-06</text><text text-anchor="end" transform="translate(786.5967741935484,7) rotate(270) translate(0,3)" style="font-family: sans-serif; font-size: 10px; fill: #000; opacity: 1;">2023-07</text></g><g class="mark-rule role-axis-domain" style="pointer-events: none;"><line transform="translate(0,0)" x2="800" y2="0" style="fill: none; stroke: #888; stroke-width: 1; opacity: 1;"></line></g><g class="mark-text role-axis-title" style="pointer-events: none;"><text text-anchor="middle" transform="translate(400,76)" style="font-family: sans-serif; font-size: 11px; font-weight: bold; fill: #000; opacity: 1;">Date</text></g></g><path class="foreground" d="" style="pointer-events: none; display: none; fill: none;"></path></g></g><g class="mark-group role-axis"><g transform="translate(0.5,0.5)"><path class="background" d="M0,0h0v0h0Z" style="pointer-events: none; fill: none;"></path><g><g class="mark-rule role-axis-tick" style="pointer-events: none;"><line transform="translate(0,600)" x2="-5" y2="0" style="fill: none; stroke: #888; stroke-width: 1; opacity: 1;"></line><line transform="translate(0,545)" x2="-5" y2="0" style="fill: none; stroke: #888; stroke-width: 1; opacity: 1;"></line><line transform="translate(0,491)" x2="-5" y2="0" style="fill: none; stroke: #888; stroke-width: 1; opacity: 1;"></line><line transform="translate(0,436)" x2="-5" y2="0" style="fill: none; stroke: #888; stroke-width: 1; opacity: 1;"></line><line transform="translate(0,382)" x2="-5" y2="0" style="fill: none; stroke: #888; stroke-width: 1; opacity: 1;"></line><line transform="translate(0,327)" x2="-5" y2="0" style="fill: none; stroke: #888; stroke-width: 1; opacity: 1;"></line><line transform="translate(0,273)" x2="-5" y2="0" style="fill: none; stroke: #888; stroke-width: 1; opacity: 1;"></line><line transform="translate(0,218)" x2="-5" y2="0" style="fill: none; stroke: #888; stroke-width: 1; opacity: 1;"></line><line transform="translate(0,164)" x2="-5" y2="0" style="fill: none; stroke: #888; stroke-width: 1; opacity: 1;"></line><line transform="translate(0,109)" x2="-5" y2="0" style="fill: none; stroke: #888; stroke-width: 1; opacity: 1;"></line><line transform="translate(0,55)" x2="-5" y2="0" style="fill: none; stroke: #888; stroke-width: 1; opacity: 1;"></line><line transform="translate(0,0)" x2="-5" y2="0" style="fill: none; stroke: #888; stroke-width: 1; opacity: 1;"></line></g><g class="mark-text role-axis-label" style="pointer-events: none;"><text text-anchor="end" transform="translate(-7,603)" style="font-family: sans-serif; font-size: 10px; fill: #000; opacity: 1;">0.0</text><text text-anchor="end" transform="translate(-7,548.4545454545454)" style="font-family: sans-serif; font-size: 10px; fill: #000; opacity: 1;">0.1</text><text text-anchor="end" transform="translate(-7,493.9090909090909)" style="font-family: sans-serif; font-size: 10px; fill: #000; opacity: 1;">0.2</text><text text-anchor="end" transform="translate(-7,439.3636363636364)" style="font-family: sans-serif; font-size: 10px; fill: #000; opacity: 1;">0.3</text><text text-anchor="end" transform="translate(-7,384.8181818181818)" style="font-family: sans-serif; font-size: 10px; fill: #000; opacity: 1;">0.4</text><text text-anchor="end" transform="translate(-7,330.27272727272725)" style="font-family: sans-serif; font-size: 10px; fill: #000; opacity: 1;">0.5</text><text text-anchor="end" transform="translate(-7,275.72727272727275)" style="font-family: sans-serif; font-size: 10px; fill: #000; opacity: 1;">0.6</text><text text-anchor="end" transform="translate(-7,221.18181818181824)" style="font-family: sans-serif; font-size: 10px; fill: #000; opacity: 1;">0.7</text><text text-anchor="end" transform="translate(-7,166.63636363636363)" style="font-family: sans-serif; font-size: 10px; fill: #000; opacity: 1;">0.8</text><text text-anchor="end" transform="translate(-7,112.09090909090912)" style="font-family: sans-serif; font-size: 10px; fill: #000; opacity: 1;">0.9</text><text text-anchor="end" transform="translate(-7,57.54545454545456)" style="font-family: sans-serif; font-size: 10px; fill: #000; opacity: 1;">1.0</text><text text-anchor="end" transform="translate(-7,3)" style="font-family: sans-serif; font-size: 10px; fill: #000; opacity: 1;">1.1</text></g><g class="mark-rule role-axis-domain" style="pointer-events: none;"><line transform="translate(0,600)" x2="0" y2="-600" style="fill: none; stroke: #888; stroke-width: 1; opacity: 1;"></line></g><g class="mark-text role-axis-title" style="pointer-events: none;"><text text-anchor="middle" transform="translate(-35,300) rotate(-90) translate(0,-2)" style="font-family: sans-serif; font-size: 11px; font-weight: bold; fill: #000; opacity: 1;">Sum of Hours</text></g></g><path class="foreground" d="" style="pointer-events: none; display: none; fill: none;"></path></g></g><g class="mark-rect role-mark marks"><path d="M1.2903225806451815,145.80827732578717h23.225806451612904v12.734347364697584h-23.225806451612904Z" style="fill: #f58518;"></path><path d="M1.2903225806451815,54.545454545454696h23.225806451612904v91.26282278033247h-23.225806451612904Z" style="fill: #4c78a8;"></path><path d="M1.2903225806451815,158.54262469048476h23.225806451612904v252.56455606650147h-23.225806451612904Z" style="fill: #e45756;"></path><path d="M1.2903225806451815,476.9013088079236h23.225806451612904v89.14043155288294h-23.225806451612904Z" style="fill: #54a24b;"></path><path d="M1.2903225806451815,411.1071807569862h23.225806451612904v65.79412805093739h-23.225806451612904Z" style="fill: #72b7b2;"></path><path d="M1.2903225806451815,566.0417403608066h23.225806451612904v33.95825963919344h-23.225806451612904Z" style="fill: #b279a2;"></path><path d="M27.096774193548406,197.95134443021766h23.225806451612904v97.31113956466072h-23.225806451612904Z" style="fill: #e45756;"></path><path d="M27.096774193548406,366.9654289372599h23.225806451612904v192.06145966709352h-23.225806451612904Z" style="fill: #54a24b;"></path><path d="M27.096774193548406,54.54545454545456h23.225806451612904v143.4058898847631h-23.225806451612904Z" style="fill: #4c78a8;"></path><path d="M27.096774193548406,295.2624839948784h23.225806451612904v71.70294494238152h-23.225806451612904Z" style="fill: #72b7b2;"></path><path d="M27.096774193548406,559.0268886043534h23.225806451612904v40.97311139564658h-23.225806451612904Z" style="fill: #b279a2;"></path><path d="M52.90322580645163,166.96738376127672h23.225806451612904v52.04718945176958h-23.225806451612904Z" style="fill: #e45756;"></path><path d="M52.90322580645163,348.09160305343505h23.225806451612904v222.76197085357398h-23.225806451612904Z" style="fill: #54a24b;"></path><path d="M52.90322580645163,54.54545454545436h23.225806451612904v112.42192921582236h-23.225806451612904Z" style="fill: #4c78a8;"></path><path d="M52.90322580645163,219.0145732130463h23.225806451612904v129.07702984038875h-23.225806451612904Z" style="fill: #72b7b2;"></path><path d="M52.90322580645163,570.853573907009h23.225806451612904v29.146426092990964h-23.225806451612904Z" style="fill: #eeca3b;"></path><path d="M78.70967741935485,153.91120507399577h23.225806451612904v16.91331923890067h-23.225806451612904Z" style="fill: #f58518;"></path><path d="M78.70967741935485,394.9260042283298h23.225806451612904v147.99154334038053h-23.225806451612904Z" style="fill: #54a24b;"></path><path d="M78.70967741935485,244.82029598308665h23.225806451612904v150.10570824524316h-23.225806451612904Z" style="fill: #72b7b2;"></path><path d="M78.70967741935485,542.9175475687103h23.225806451612904v23.255813953488428h-23.225806451612904Z" style="fill: #eeca3b;"></path><path d="M78.70967741935485,170.82452431289644h23.225806451612904v73.99577167019021h-23.225806451612904Z" style="fill: #e45756;"></path><path d="M78.70967741935485,54.5454545454545h23.225806451612904v99.36575052854127h-23.225806451612904Z" style="fill: #4c78a8;"></path><path d="M78.70967741935485,566.1733615221988h23.225806451612904v33.826638477801225h-23.225806451612904Z" style="fill: #b279a2;"></path><path d="M104.51612903225808,417.5059141601893h23.225806451612904v152.07840486650895h-23.225806451612904Z" style="fill: #54a24b;"></path><path d="M104.51612903225808,186.34673876309566h23.225806451612904v77.05305846569789h-23.225806451612904Z" style="fill: #e45756;"></path><path d="M104.51612903225808,263.39979722879355h23.225806451612904v154.10611693139577h-23.225806451612904Z" style="fill: #72b7b2;"></path><path d="M104.51612903225808,54.54545454545456h23.225806451612904v131.8012842176411h-23.225806451612904Z" style="fill: #4c78a8;"></path><path d="M104.51612903225808,569.5843190266983h23.225806451612904v30.415680973301733h-23.225806451612904Z" style="fill: #eeca3b;"></path><path d="M130.3225806451613,428.78787878787887h23.225806451612904v74.24242424242419h-23.225806451612904Z" style="fill: #54a24b;"></path><path d="M130.3225806451613,503.03030303030306h23.225806451612904v72.72727272727269h-23.225806451612904Z" style="fill: #eeca3b;"></path><path d="M130.3225806451613,274.2424242424243h23.225806451612904v56.06060606060606h-23.225806451612904Z" style="fill: #e45756;"></path><path d="M130.3225806451613,54.545454545454696h23.225806451612904v219.6969696969696h-23.225806451612904Z" style="fill: #4c78a8;"></path><path d="M130.3225806451613,330.30303030303037h23.225806451612904v98.4848484848485h-23.225806451612904Z" style="fill: #72b7b2;"></path><path d="M130.3225806451613,575.7575757575758h23.225806451612904v24.24242424242425h-23.225806451612904Z" style="fill: #b279a2;"></path><path d="M156.1290322580645,469.9450016175995h23.225806451612904v62.11582012293752h-23.225806451612904Z" style="fill: #54a24b;"></path><path d="M156.1290322580645,54.54545454545456h23.225806451612904v161.11290844386932h-23.225806451612904Z" style="fill: #4c78a8;"></path><path d="M156.1290322580645,357.36007764477523h23.225806451612904v112.58492397282424h-23.225806451612904Z" style="fill: #72b7b2;"></path><path d="M156.1290322580645,568.9420899385312h23.225806451612904v31.05791006146876h-23.225806451612904Z" style="fill: #b279a2;"></path><path d="M156.1290322580645,227.3050792623747h23.225806451612904v130.05499838240053h-23.225806451612904Z" style="fill: #e45756;"></path><path d="M156.1290322580645,215.65836298932388h23.225806451612904v11.646716273050828h-23.225806451612904Z" style="fill: #f58518;"></path><path d="M156.1290322580645,532.060821740537h23.225806451612904v36.881268197994245h-23.225806451612904Z" style="fill: #eeca3b;"></path><path d="M181.93548387096774,54.54545454545463h23.225806451612904v50.699300699300736h-23.225806451612904Z" style="fill: #4c78a8;"></path><path d="M181.93548387096774,437.4125874125875h23.225806451612904v157.34265734265728h-23.225806451612904Z" style="fill: #54a24b;"></path><path d="M181.93548387096774,112.23776223776231h23.225806451612904v206.2937062937063h-23.225806451612904Z" style="fill: #e45756;"></path><path d="M181.93548387096774,318.5314685314686h23.225806451612904v118.88111888111894h-23.225806451612904Z" style="fill: #72b7b2;"></path><path d="M181.93548387096774,594.7552447552448h23.225806451612904v5.244755244755197h-23.225806451612904Z" style="fill: #eeca3b;"></path><path d="M181.93548387096774,105.24475524475537h23.225806451612904v6.993006993006944h-23.225806451612904Z" style="fill: #f58518;"></path><path d="M207.74193548387098,564.6382790629144h23.225806451612904v7.072344187417116h-23.225806451612904Z" style="fill: #eeca3b;"></path><path d="M207.74193548387098,150.02210107558577h23.225806451612904v28.28937674966849h-23.225806451612904Z" style="fill: #f58518;"></path><path d="M207.74193548387098,476.23397672020036h23.225806451612904v88.40430234271406h-23.225806451612904Z" style="fill: #54a24b;"></path><path d="M207.74193548387098,317.10623250331514h23.225806451612904v159.12774421688522h-23.225806451612904Z" style="fill: #72b7b2;"></path><path d="M207.74193548387098,178.31147782525426h23.225806451612904v138.79475467806088h-23.225806451612904Z" style="fill: #e45756;"></path><path d="M207.74193548387098,54.54545454545463h23.225806451612904v95.47664653013113h-23.225806451612904Z" style="fill: #4c78a8;"></path><path d="M207.74193548387098,571.7106232503315h23.225806451612904v28.289376749668463h-23.225806451612904Z" style="fill: #b279a2;"></path><path d="M233.5483870967742,54.54545454545456h23.225806451612904v60.32677000418934h-23.225806451612904Z" style="fill: #4c78a8;"></path><path d="M233.5483870967742,137.49476330121496h23.225806451612904v120.65354000837874h-23.225806451612904Z" style="fill: #e45756;"></path><path d="M233.5483870967742,258.1483033095937h23.225806451612904v100.54461667364887h-23.225806451612904Z" style="fill: #72b7b2;"></path><path d="M233.5483870967742,114.8722245496439h23.225806451612904v22.622538751571057h-23.225806451612904Z" style="fill: #f58518;"></path><path d="M233.5483870967742,358.6929199832426h23.225806451612904v241.30708001675742h-23.225806451612904Z" style="fill: #54a24b;"></path><path d="M259.35483870967744,283.9422259983008h23.225806451612904v197.11129991503822h-23.225806451612904Z" style="fill: #54a24b;"></path><path d="M259.35483870967744,81.73322005097712h23.225806451612904v25.488530161427335h-23.225806451612904Z" style="fill: #f58518;"></path><path d="M259.35483870967744,192.18351741716236h23.225806451612904v91.75870858113842h-23.225806451612904Z" style="fill: #72b7b2;"></path><path d="M259.35483870967744,54.54545454545456h23.225806451612904v27.187765505522563h-23.225806451612904Z" style="fill: #4c78a8;"></path><path d="M259.35483870967744,107.22175021240446h23.225806451612904v84.9617672047579h-23.225806451612904Z" style="fill: #e45756;"></path><path d="M259.35483870967744,481.053525913339h23.225806451612904v10.195412064570917h-23.225806451612904Z" style="fill: #eeca3b;"></path><path d="M259.35483870967744,491.2489379779099h23.225806451612904v108.75106202209008h-23.225806451612904Z" style="fill: #b279a2;"></path><path d="M285.16129032258067,125.4860746190227h23.225806451612904v108.77561744613766h-23.225806451612904Z" style="fill: #72b7b2;"></path><path d="M285.16129032258067,234.26169206516036h23.225806451612904v163.95165528113503h-23.225806451612904Z" style="fill: #54a24b;"></path><path d="M285.16129032258067,54.545454545454696h23.225806451612904v12.611665790856527h-23.225806451612904Z" style="fill: #4c78a8;"></path><path d="M285.16129032258067,104.99211770888088h23.225806451612904v20.49395691014182h-23.225806451612904Z" style="fill: #e45756;"></path><path d="M285.16129032258067,67.15712033631122h23.225806451612904v37.83499737256966h-23.225806451612904Z" style="fill: #f58518;"></path><path d="M285.16129032258067,398.2133473462954h23.225806451612904v201.7866526537046h-23.225806451612904Z" style="fill: #b279a2;"></path><path d="M310.96774193548384,67.63636363636354h23.225806451612904v15.272727272727238h-23.225806451612904Z" style="fill: #f58518;"></path><path d="M310.96774193548384,152.72727272727258h23.225806451612904v74.18181818181819h-23.225806451612904Z" style="fill: #72b7b2;"></path><path d="M310.96774193548384,226.90909090909076h23.225806451612904v305.4545454545456h-23.225806451612904Z" style="fill: #54a24b;"></path><path d="M310.96774193548384,82.90909090909078h23.225806451612904v69.8181818181818h-23.225806451612904Z" style="fill: #e45756;"></path><path d="M310.96774193548384,532.3636363636364h23.225806451612904v32.72727272727275h-23.225806451612904Z" style="fill: #eeca3b;"></path><path d="M310.96774193548384,54.5454545454545h23.225806451612904v13.090909090909044h-23.225806451612904Z" style="fill: #4c78a8;"></path><path d="M310.96774193548384,565.0909090909091h23.225806451612904v34.90909090909088h-23.225806451612904Z" style="fill: #b279a2;"></path><path d="M336.7741935483871,488.4297520661157h23.225806451612904v51.652892561983435h-23.225806451612904Z" style="fill: #54a24b;"></path><path d="M336.7741935483871,54.54545454545476h23.225806451612904v95.04132231404958h-23.225806451612904Z" style="fill: #4c78a8;"></path><path d="M336.7741935483871,331.40495867768607h23.225806451612904v157.02479338842966h-23.225806451612904Z" style="fill: #72b7b2;"></path><path d="M336.7741935483871,199.17355371900845h23.225806451612904v132.23140495867762h-23.225806451612904Z" style="fill: #e45756;"></path><path d="M336.7741935483871,149.58677685950434h23.225806451612904v49.58677685950411h-23.225806451612904Z" style="fill: #f58518;"></path><path d="M336.7741935483871,540.0826446280992h23.225806451612904v26.85950413223145h-23.225806451612904Z" style="fill: #eeca3b;"></path><path d="M336.7741935483871,566.9421487603306h23.225806451612904v33.05785123966939h-23.225806451612904Z" style="fill: #b279a2;"></path><path d="M362.5806451612903,178.59531772575272h23.225806451612904v164.1836424445119h-23.225806451612904Z" style="fill: #e45756;"></path><path d="M362.5806451612903,342.7789601702646h23.225806451612904v158.7108543630282h-23.225806451612904Z" style="fill: #72b7b2;"></path><path d="M362.5806451612903,167.64974156278524h23.225806451612904v10.945576162967484h-23.225806451612904Z" style="fill: #f58518;"></path><path d="M362.5806451612903,54.54545454545476h23.225806451612904v113.10428701733048h-23.225806451612904Z" style="fill: #4c78a8;"></path><path d="M362.5806451612903,501.4898145332928h23.225806451612904v71.1462450592885h-23.225806451612904Z" style="fill: #54a24b;"></path><path d="M362.5806451612903,572.6360595925813h23.225806451612904v27.36394040741868h-23.225806451612904Z" style="fill: #eeca3b;"></path><path d="M388.38709677419354,123.41597796143253h23.225806451612904v256.19834710743794h-23.225806451612904Z" style="fill: #e45756;"></path><path d="M388.38709677419354,434.7107438016529h23.225806451612904v115.70247933884303h-23.225806451612904Z" style="fill: #54a24b;"></path><path d="M388.38709677419354,550.4132231404959h23.225806451612904v5.509641873278156h-23.225806451612904Z" style="fill: #eeca3b;"></path><path d="M388.38709677419354,379.61432506887047h23.225806451612904v55.09641873278241h-23.225806451612904Z" style="fill: #72b7b2;"></path><path d="M388.38709677419354,555.9228650137741h23.225806451612904v44.07713498622593h-23.225806451612904Z" style="fill: #b279a2;"></path><path d="M388.38709677419354,68.31955922865018h23.225806451612904v55.096418732782354h-23.225806451612904Z" style="fill: #f58518;"></path><path d="M388.38709677419354,54.54545454545456h23.225806451612904v13.774104683195617h-23.225806451612904Z" style="fill: #4c78a8;"></path><path d="M414.19354838709677,77.6334776334777h23.225806451612904v14.430014430014467h-23.225806451612904Z" style="fill: #f58518;"></path><path d="M414.19354838709677,397.979797979798h23.225806451612904v152.958152958153h-23.225806451612904Z" style="fill: #54a24b;"></path><path d="M414.19354838709677,288.31168831168833h23.225806451612904v109.66810966810965h-23.225806451612904Z" style="fill: #72b7b2;"></path><path d="M414.19354838709677,92.06349206349216h23.225806451612904v196.24819624819617h-23.225806451612904Z" style="fill: #e45756;"></path><path d="M414.19354838709677,54.54545454545456h23.225806451612904v23.088023088023135h-23.225806451612904Z" style="fill: #4c78a8;"></path><path d="M414.19354838709677,550.937950937951h23.225806451612904v2.8860028860028706h-23.225806451612904Z" style="fill: #eeca3b;"></path><path d="M414.19354838709677,553.8239538239538h23.225806451612904v46.17604617604616h-23.225806451612904Z" style="fill: #b279a2;"></path><path d="M440,99.52153110047837h23.225806451612904v26.794258373205764h-23.225806451612904Z" style="fill: #f58518;"></path><path d="M440,126.31578947368413h23.225806451612904v265.0717703349284h-23.225806451612904Z" style="fill: #e45756;"></path><path d="M440,391.3875598086125h23.225806451612904v107.177033492823h-23.225806451612904Z" style="fill: #72b7b2;"></path><path d="M440,498.5645933014355h23.225806451612904v70.81339712918657h-23.225806451612904Z" style="fill: #54a24b;"></path><path d="M440,54.5454545454545h23.225806451612904v44.97607655502387h-23.225806451612904Z" style="fill: #4c78a8;"></path><path d="M440,569.377990430622h23.225806451612904v30.62200956937795h-23.225806451612904Z" style="fill: #b279a2;"></path><path d="M465.80645161290323,528.9772727272727h23.225806451612904v25.56818181818187h-23.225806451612904Z" style="fill: #54a24b;"></path><path d="M465.80645161290323,554.5454545454546h23.225806451612904v45.45454545454538h-23.225806451612904Z" style="fill: #b279a2;"></path><path d="M465.80645161290323,117.0454545454546h23.225806451612904v318.18181818181813h-23.225806451612904Z" style="fill: #e45756;"></path><path d="M465.80645161290323,435.22727272727275h23.225806451612904v93.75h-23.225806451612904Z" style="fill: #72b7b2;"></path><path d="M465.80645161290323,60.22727272727284h23.225806451612904v56.81818181818176h-23.225806451612904Z" style="fill: #f58518;"></path><path d="M465.80645161290323,54.54545454545463h23.225806451612904v5.681818181818208h-23.225806451612904Z" style="fill: #4c78a8;"></path><path d="M491.61290322580646,64.50809464508104h23.225806451612904v74.71980074719797h-23.225806451612904Z" style="fill: #f58518;"></path><path d="M491.61290322580646,331.00871731008715h23.225806451612904v191.78082191780834h-23.225806451612904Z" style="fill: #72b7b2;"></path><path d="M491.61290322580646,139.227895392279h23.225806451612904v191.78082191780814h-23.225806451612904Z" style="fill: #e45756;"></path><path d="M491.61290322580646,545.2054794520548h23.225806451612904v54.79452054794524h-23.225806451612904Z" style="fill: #eeca3b;"></path><path d="M491.61290322580646,54.54545454545463h23.225806451612904v9.962640099626412h-23.225806451612904Z" style="fill: #4c78a8;"></path><path d="M491.61290322580646,522.7895392278955h23.225806451612904v22.41594022415927h-23.225806451612904Z" style="fill: #54a24b;"></path><path d="M517.4193548387098,95.51856594110117h23.225806451612904v281.69014084507046h-23.225806451612904Z" style="fill: #e45756;"></path><path d="M517.4193548387098,559.0268886043534h23.225806451612904v40.97311139564658h-23.225806451612904Z" style="fill: #b279a2;"></path><path d="M517.4193548387098,507.81049935979513h23.225806451612904v51.216389244558286h-23.225806451612904Z" style="fill: #54a24b;"></path><path d="M517.4193548387098,377.2087067861716h23.225806451612904v130.60179257362353h-23.225806451612904Z" style="fill: #72b7b2;"></path><path d="M517.4193548387098,54.54545454545456h23.225806451612904v20.48655569782335h-23.225806451612904Z" style="fill: #4c78a8;"></path><path d="M517.4193548387098,75.03201024327791h23.225806451612904v20.486555697823263h-23.225806451612904Z" style="fill: #f58518;"></path><path d="M543.2258064516129,54.54545454545456h23.225806451612904v26.7379679144385h-23.225806451612904Z" style="fill: #4c78a8;"></path><path d="M543.2258064516129,428.8770053475936h23.225806451612904v125.66844919786104h-23.225806451612904Z" style="fill: #72b7b2;"></path><path d="M543.2258064516129,575.9358288770054h23.225806451612904v24.064171122994594h-23.225806451612904Z" style="fill: #eeca3b;"></path><path d="M543.2258064516129,113.36898395721926h23.225806451612904v315.5080213903743h-23.225806451612904Z" style="fill: #e45756;"></path><path d="M543.2258064516129,554.5454545454546h23.225806451612904v21.390374331550788h-23.225806451612904Z" style="fill: #54a24b;"></path><path d="M543.2258064516129,81.28342245989306h23.225806451612904v32.085561497326196h-23.225806451612904Z" style="fill: #f58518;"></path><path d="M569.0322580645161,91.48859109018484h23.225806451612904v275.98696124592533h-23.225806451612904Z" style="fill: #e45756;"></path><path d="M569.0322580645161,78.4498370155742h23.225806451612904v13.038754074610637h-23.225806451612904Z" style="fill: #f58518;"></path><path d="M569.0322580645161,54.545454545454696h23.225806451612904v23.904382470119508h-23.225806451612904Z" style="fill: #4c78a8;"></path><path d="M569.0322580645161,367.4755523361102h23.225806451612904v86.92502716407091h-23.225806451612904Z" style="fill: #72b7b2;"></path><path d="M569.0322580645161,454.4005795001811h23.225806451612904v6.519377037305333h-23.225806451612904Z" style="fill: #54a24b;"></path><path d="M569.0322580645161,460.9199565374864h23.225806451612904v139.08004346251357h-23.225806451612904Z" style="fill: #b279a2;"></path><path d="M594.8387096774193,187.66233766233768h23.225806451612904v285.7142857142857h-23.225806451612904Z" style="fill: #72b7b2;"></path><path d="M594.8387096774193,54.54545454545456h23.225806451612904v133.11688311688312h-23.225806451612904Z" style="fill: #e45756;"></path><path d="M594.8387096774193,473.3766233766234h23.225806451612904v22.727272727272748h-23.225806451612904Z" style="fill: #54a24b;"></path><path d="M594.8387096774193,496.10389610389615h23.225806451612904v103.89610389610385h-23.225806451612904Z" style="fill: #b279a2;"></path><path d="M620.6451612903224,532.4215607401449h23.225806451612904v67.57843925985514h-23.225806451612904Z" style="fill: #b279a2;"></path><path d="M620.6451612903224,334.5132743362832h23.225806451612904v144.81094127111828h-23.225806451612904Z" style="fill: #72b7b2;"></path><path d="M620.6451612903224,54.5454545454545h23.225806451612904v26.548672566371728h-23.225806451612904Z" style="fill: #f58518;"></path><path d="M620.6451612903224,81.09412711182623h23.225806451612904v253.41914722445696h-23.225806451612904Z" style="fill: #e45756;"></path><path d="M620.6451612903224,513.113435237329h23.225806451612904v19.30812550281587h-23.225806451612904Z" style="fill: #eeca3b;"></path><path d="M620.6451612903224,479.32421560740147h23.225806451612904v33.789219629927516h-23.225806451612904Z" style="fill: #54a24b;"></path><path d="M646.4516129032259,105.94954783436452h23.225806451612904v248.45311756306523h-23.225806451612904Z" style="fill: #e45756;"></path><path d="M646.4516129032259,354.40266539742976h23.225806451612904v185.62589243217525h-23.225806451612904Z" style="fill: #72b7b2;"></path><path d="M646.4516129032259,54.5454545454545h23.225806451612904v5.711565920989983h-23.225806451612904Z" style="fill: #4c78a8;"></path><path d="M646.4516129032259,562.8748215135649h23.225806451612904v8.567348881485032h-23.225806451612904Z" style="fill: #eeca3b;"></path><path d="M646.4516129032259,60.25702046644448h23.225806451612904v45.69252736792004h-23.225806451612904Z" style="fill: #f58518;"></path><path d="M646.4516129032259,540.028557829605h23.225806451612904v22.846263683959933h-23.225806451612904Z" style="fill: #54a24b;"></path><path d="M646.4516129032259,571.44217039505h23.225806451612904v28.55782960495003h-23.225806451612904Z" style="fill: #b279a2;"></path><path d="M672.258064516129,286.7804684398571h23.225806451612904v263.19968241365626h-23.225806451612904Z" style="fill: #72b7b2;"></path><path d="M672.258064516129,98.61055974593094h23.225806451612904v188.16990869392615h-23.225806451612904Z" style="fill: #e45756;"></path><path d="M672.258064516129,552.3620484319174h23.225806451612904v47.6379515680826h-23.225806451612904Z" style="fill: #eeca3b;"></path><path d="M672.258064516129,59.30924970226279h23.225806451612904v39.30131004366815h-23.225806451612904Z" style="fill: #f58518;"></path><path d="M672.258064516129,549.9801508535134h23.225806451612904v2.3818975784040504h-23.225806451612904Z" style="fill: #54a24b;"></path><path d="M672.258064516129,54.54545454545456h23.225806451612904v4.763795156808229h-23.225806451612904Z" style="fill: #4c78a8;"></path><path d="M698.0645161290322,250.2932551319649h23.225806451612904v222.14076246334307h-23.225806451612904Z" style="fill: #72b7b2;"></path><path d="M698.0645161290322,58.9442815249269h23.225806451612904v30.791788856304954h-23.225806451612904Z" style="fill: #f58518;"></path><path d="M698.0645161290322,472.434017595308h23.225806451612904v43.988269794721305h-23.225806451612904Z" style="fill: #54a24b;"></path><path d="M698.0645161290322,89.73607038123185h23.225806451612904v160.55718475073306h-23.225806451612904Z" style="fill: #e45756;"></path><path d="M698.0645161290322,516.4222873900293h23.225806451612904v39.5894428152493h-23.225806451612904Z" style="fill: #eeca3b;"></path><path d="M698.0645161290322,556.0117302052786h23.225806451612904v43.98826979472142h-23.225806451612904Z" style="fill: #b279a2;"></path><path d="M698.0645161290322,54.54545454545476h23.225806451612904v4.39882697947214h-23.225806451612904Z" style="fill: #4c78a8;"></path><path d="M723.8709677419354,346.36363636363643h23.225806451612904v144.5454545454545h-23.225806451612904Z" style="fill: #72b7b2;"></path><path d="M723.8709677419354,92.72727272727266h23.225806451612904v253.63636363636377h-23.225806451612904Z" style="fill: #e45756;"></path><path d="M723.8709677419354,57.27272727272727h23.225806451612904v35.45454545454539h-23.225806451612904Z" style="fill: #f58518;"></path><path d="M723.8709677419354,501.81818181818187h23.225806451612904v70.90909090909088h-23.225806451612904Z" style="fill: #eeca3b;"></path><path d="M723.8709677419354,54.54545454545456h23.225806451612904v2.7272727272727124h-23.225806451612904Z" style="fill: #4c78a8;"></path><path d="M723.8709677419354,490.90909090909093h23.225806451612904v10.909090909090935h-23.225806451612904Z" style="fill: #54a24b;"></path><path d="M723.8709677419354,572.7272727272727h23.225806451612904v27.272727272727252h-23.225806451612904Z" style="fill: #b279a2;"></path><path d="M749.6774193548388,268.83116883116884h23.225806451612904v155.84415584415586h-23.225806451612904Z" style="fill: #72b7b2;"></path><path d="M749.6774193548388,71.243042671614h23.225806451612904v197.58812615955483h-23.225806451612904Z" style="fill: #e45756;"></path><path d="M749.6774193548388,54.5454545454545h23.225806451612904v16.69758812615951h-23.225806451612904Z" style="fill: #f58518;"></path><path d="M749.6774193548388,424.6753246753247h23.225806451612904v128.0148423005566h-23.225806451612904Z" style="fill: #54a24b;"></path><path d="M749.6774193548388,552.6901669758813h23.225806451612904v19.480519480519433h-23.225806451612904Z" style="fill: #eeca3b;"></path><path d="M749.6774193548388,572.1706864564007h23.225806451612904v27.829313543599255h-23.225806451612904Z" style="fill: #b279a2;"></path><path d="M775.483870967742,545.1804476930105h23.225806451612904v54.81955230698952h-23.225806451612904Z" style="fill: #b279a2;"></path><path d="M775.483870967742,95.66011877569673h23.225806451612904v169.94061215166738h-23.225806451612904Z" style="fill: #e45756;"></path><path d="M775.483870967742,54.54545454545456h23.225806451612904v41.11466423024217h-23.225806451612904Z" style="fill: #f58518;"></path><path d="M775.483870967742,282.0465966194609h23.225806451612904v249.42896299680223h-23.225806451612904Z" style="fill: #54a24b;"></path><path d="M775.483870967742,265.6007309273641h23.225806451612904v16.44586569209679h-23.225806451612904Z" style="fill: #72b7b2;"></path><path d="M775.483870967742,531.4755596162631h23.225806451612904v13.704888076747352h-23.225806451612904Z" style="fill: #eeca3b;"></path></g><g class="mark-group role-legend"><g transform="translate(818,0)"><path class="background" d="M0,0h112v105h-112Z" style="pointer-events: none; fill: none;"></path><g><g class="mark-group role-legend-entry"><g transform="translate(0,16)"><path class="background" d="M0,0h0v0h0Z" style="pointer-events: none; fill: none;"></path><g><g class="mark-group role-scope"><g transform="translate(0,0)"><path class="background" d="M0,0h112v11h-112Z" style="pointer-events: none; fill: none; opacity: 1;"></path><g><g class="mark-symbol role-legend-symbol" style="pointer-events: none;"><path transform="translate(6,6)" d="M-5,-5h10v10h-10Z" style="fill: #4c78a8; stroke-width: 1.5; opacity: 1;"></path></g><g class="mark-text role-legend-label" style="pointer-events: none;"><text text-anchor="start" transform="translate(16,9)" style="font-family: sans-serif; font-size: 10px; fill: #000; opacity: 1;">APOLLO</text></g></g><path class="foreground" d="" style="pointer-events: none; display: none; fill: none;"></path></g><g transform="translate(0,13)"><path class="background" d="M0,0h112v11h-112Z" style="pointer-events: none; fill: none; opacity: 1;"></path><g><g class="mark-symbol role-legend-symbol" style="pointer-events: none;"><path transform="translate(6,6)" d="M-5,-5h10v10h-10Z" style="fill: #f58518; stroke-width: 1.5; opacity: 1;"></path></g><g class="mark-text role-legend-label" style="pointer-events: none;"><text text-anchor="start" transform="translate(16,9)" style="font-family: sans-serif; font-size: 10px; fill: #000; opacity: 1;">EDF</text></g></g><path class="foreground" d="" style="pointer-events: none; display: none; fill: none;"></path></g><g transform="translate(0,26)"><path class="background" d="M0,0h112v11h-112Z" style="pointer-events: none; fill: none; opacity: 1;"></path><g><g class="mark-symbol role-legend-symbol" style="pointer-events: none;"><path transform="translate(6,6)" d="M-5,-5h10v10h-10Z" style="fill: #e45756; stroke-width: 1.5; opacity: 1;"></path></g><g class="mark-text role-legend-label" style="pointer-events: none;"><text text-anchor="start" transform="translate(16,9)" style="font-family: sans-serif; font-size: 10px; fill: #000; opacity: 1;">ETL</text></g></g><path class="foreground" d="" style="pointer-events: none; display: none; fill: none;"></path></g><g transform="translate(0,39)"><path class="background" d="M0,0h112v11h-112Z" style="pointer-events: none; fill: none; opacity: 1;"></path><g><g class="mark-symbol role-legend-symbol" style="pointer-events: none;"><path transform="translate(6,6)" d="M-5,-5h10v10h-10Z" style="fill: #72b7b2; stroke-width: 1.5; opacity: 1;"></path></g><g class="mark-text role-legend-label" style="pointer-events: none;"><text text-anchor="start" transform="translate(16,9)" style="font-family: sans-serif; font-size: 10px; fill: #000; opacity: 1;">GEM</text></g></g><path class="foreground" d="" style="pointer-events: none; display: none; fill: none;"></path></g><g transform="translate(0,52)"><path class="background" d="M0,0h112v11h-112Z" style="pointer-events: none; fill: none; opacity: 1;"></path><g><g class="mark-symbol role-legend-symbol" style="pointer-events: none;"><path transform="translate(6,6)" d="M-5,-5h10v10h-10Z" style="fill: #54a24b; stroke-width: 1.5; opacity: 1;"></path></g><g class="mark-text role-legend-label" style="pointer-events: none;"><text text-anchor="start" transform="translate(16,9)" style="font-family: sans-serif; font-size: 10px; fill: #000; opacity: 1;">L0MDT</text></g></g><path class="foreground" d="" style="pointer-events: none; display: none; fill: none;"></path></g><g transform="translate(0,65)"><path class="background" d="M0,0h112v11h-112Z" style="pointer-events: none; fill: none; opacity: 1;"></path><g><g class="mark-symbol role-legend-symbol" style="pointer-events: none;"><path transform="translate(6,6)" d="M-5,-5h10v10h-10Z" style="fill: #eeca3b; stroke-width: 1.5; opacity: 1;"></path></g><g class="mark-text role-legend-label" style="pointer-events: none;"><text text-anchor="start" transform="translate(16,9)" style="font-family: sans-serif; font-size: 10px; fill: #000; opacity: 1;">OTHER PRJ</text></g></g><path class="foreground" d="" style="pointer-events: none; display: none; fill: none;"></path></g><g transform="translate(0,78)"><path class="background" d="M0,0h112v11h-112Z" style="pointer-events: none; fill: none; opacity: 1;"></path><g><g class="mark-symbol role-legend-symbol" style="pointer-events: none;"><path transform="translate(6,6)" d="M-5,-5h10v10h-10Z" style="fill: #b279a2; stroke-width: 1.5; opacity: 1;"></path></g><g class="mark-text role-legend-label" style="pointer-events: none;"><text text-anchor="start" transform="translate(16,9)" style="font-family: sans-serif; font-size: 10px; fill: #000; opacity: 1;">VAC/SICK/HOL</text></g></g><path class="foreground" d="" style="pointer-events: none; display: none; fill: none;"></path></g></g></g><path class="foreground" d="" style="pointer-events: none; display: none; fill: none;"></path></g></g><g class="mark-text role-legend-title" style="pointer-events: none;"><text text-anchor="start" transform="translate(0,9)" style="font-family: sans-serif; font-size: 11px; font-weight: bold; fill: #000; opacity: 1;">Project</text></g></g><path class="foreground" d="" style="pointer-events: none; display: none; fill: none;"></path></g></g></g><path class="foreground" d="" style="display: none; fill: none;"></path></g></g></g></svg>